<?xml version="1.0" encoding="utf-8"?>
<!-- Generator: Adobe Illustrator 21.0.0, SVG Export Plug-In . SVG Version: 6.00 Build 0)  -->
<svg version="1.1" id="Capa_1" xmlns="http://www.w3.org/2000/svg" xmlns:xlink="http://www.w3.org/1999/xlink" x="0px" y="0px"
	 viewBox="0 0 368.5 212.8" style="enable-background:new 0 0 368.5 212.8;" xml:space="preserve">
<style type="text/css">
	.st0{fill:#FDB341;}
</style>
<path class="st0" d="M305.3,151.8c-5.9-7.1-12.6-13.4-19.1-19.5c-2.3-2.2-4.7-4.5-7-6.7c-6.6-6.4-6.9-8.9-1.6-16.2
	c3.6-5.1,7.5-10.1,11.2-15c3.4-4.4,6.9-9,10.1-13.6l0.7-1c6.3-8.8,13-17.9,16.5-28.9c0.9-2.9,1.9-7.2-0.3-10.7
	c-2.2-3.6-6.4-4.6-9.4-5.1c-1.5-0.2-3-0.3-4.3-0.3h-41.7h-0.4c-6.3,0-10.5,3-13,9.1c-2.3,5.8-4.8,12.1-7.8,18
	c-5.8,11.8-13.1,25.3-23.8,36.6l-0.4,0.4c-1.3,1.3-2.7,2.9-3.7,2.9c-0.1,0-0.3,0-0.5-0.1c-2.2-0.9-3.7-6.2-3.7-8.6v-0.1V44.8
	c0-0.1,0-0.3,0-0.5c-1-7.8-3.4-12.7-12.3-14.5c-0.2-0.1-0.4-0.1-0.7-0.1h-43.3c-7.1,0-11,2.8-14.6,7.2c-1,1.1-3.1,3.5-2,6.4
	c1,2.9,4.4,3.6,5.4,3.8c5.4,1,8.5,4.3,9.3,10.1c1.5,10.1,1.7,20.8,0.6,33.8c-0.3,3.6-0.9,6.4-1.9,8.8c-0.2,0.5-1,2.4-1.9,2.4
	c-0.3,0-1-0.1-2.5-1.1c-3.4-2.3-5.8-5.6-8.7-9.6c-9.7-13.8-17.9-28.9-25-46.4c-2.6-6.4-7.5-10-13.9-10.1c-6.9-0.1-13.1-0.1-19.2-0.1
	c-6.6,0-12.6,0.1-18.5,0.1c-5.1,0.1-8.6,1.6-10.4,4.5s-1.7,6.7,0.4,11.3c16.7,37.1,31.8,64,49,87.4c12.1,16.3,24.1,27.7,38.1,35.6
	c14.7,8.4,31.1,12.4,50.2,12.4c2.2,0,4.4-0.1,6.7-0.1c11.1-0.5,15.3-4.5,15.8-15.4c0.2-5.5,0.8-11.3,3.6-16.3
	c1.7-3.1,3.4-3.1,3.9-3.1c1,0,2.2,0.4,3.7,1.3c2.4,1.6,4.5,3.7,6.2,5.5c1.6,1.8,3.2,3.5,4.8,5.3c3.4,3.8,6.9,7.8,10.7,11.6
	c8.1,8.2,17,11.9,27.2,11h38.2c0.1,0,0.1,0,0.2,0c3.8-0.2,7.1-2.4,9-5.8c2.4-4.2,2.4-9.7-0.1-14.5
	C312.1,160.3,308.5,155.7,305.3,151.8z"/>
</svg>
