<?xml version="1.0" encoding="utf-8"?>
<!-- Generator: Adobe Illustrator 21.0.0, SVG Export Plug-In . SVG Version: 6.00 Build 0)  -->
<svg version="1.1" id="Слой_1" xmlns="http://www.w3.org/2000/svg" xmlns:xlink="http://www.w3.org/1999/xlink" x="0px" y="0px"
	 viewBox="0 0 133.5 146.6" style="enable-background:new 0 0 133.5 146.6;" xml:space="preserve">
<style type="text/css">
	.st0{fill:none;}
	.st1{fill:#F9B345;}
	.st2{fill:none;stroke:#F9B345;stroke-width:1.5;stroke-miterlimit:10;}
</style>
<g>
	<path class="st0" d="M67.2,119.6c-5.2,0-9.2,0.7-11.8,1.7c2.6,0.9,6.7,1.7,11.8,1.7c5,0,9-0.7,11.6-1.6v-0.1
		C76.2,120.3,72.2,119.6,67.2,119.6z"/>
	<path class="st0" d="M78.8,118c-1,0.3-2.2,0.6-3.4,0.8c1.2,0.2,2.4,0.5,3.4,0.8v-0.8V118z"/>
	<path class="st0" d="M81.3,127.3c-0.7,0.5-1,0.9-1,1.4s0.4,0.9,1,1.4c0.7-0.5,1-0.9,1-1.4S82,127.8,81.3,127.3z"/>
	<path class="st0" d="M78.8,122.9c-1,0.3-2.2,0.6-3.4,0.8c1.2,0.2,2.4,0.5,3.4,0.8v-0.8V122.9z"/>
	<path class="st0" d="M81.7,105.7c0.5-0.3,1.1-0.5,1.8-0.7h-2.7C81,105.2,81.3,105.4,81.7,105.7z"/>
	<path class="st0" d="M87.7,137.1c0.2-0.2,0.4-0.3,0.6-0.5h-3C86,136.8,86.8,137,87.7,137.1z"/>
	<path class="st0" d="M53.5,125.4c1.5-0.7,3.4-1.2,5.5-1.6c-2.1-0.4-4-0.9-5.5-1.6c-0.9,0.5-1.5,1.1-1.5,1.6S52.6,124.8,53.5,125.4z
		"/>
	<path class="st0" d="M53.5,115.5c0.7-0.3,1.4-0.6,2.3-0.9h-3.4C52.6,114.9,53,115.2,53.5,115.5z"/>
	<path class="st0" d="M81.7,110.6c1.5-0.7,3.4-1.2,5.5-1.6c-2.1-0.4-4-0.9-5.5-1.6c-0.9,0.5-1.5,1.1-1.5,1.6
		C80.3,109.5,80.8,110,81.7,110.6z"/>
	<path class="st0" d="M52,121.3L52,121.3C52,121.3,52.1,121.3,52,121.3C52.1,121.3,52,121.3,52,121.3z"/>
	<path class="st0" d="M53.5,120.4c1.5-0.7,3.4-1.2,5.5-1.6c-2.1-0.4-4-0.9-5.5-1.6c-0.9,0.5-1.5,1.1-1.5,1.6
		C52,119.3,52.6,119.9,53.5,120.4z"/>
	<path class="st0" d="M52,116.3L52,116.3C52,116.4,52.1,116.4,52,116.3C52.1,116.3,52,116.3,52,116.3z"/>
	<path class="st0" d="M80.3,106.5L80.3,106.5C80.3,106.5,80.3,106.5,80.3,106.5C80.3,106.5,80.3,106.5,80.3,106.5z"/>
	<path class="st0" d="M78.8,114.6h-0.2C78.6,114.7,78.7,114.7,78.8,114.6L78.8,114.6z"/>
	<path class="st1" d="M52,116.4L52,116.4c-0.9-0.7-1.5-1.6-1.5-2.5v4.9C50.5,117.9,51.1,117.1,52,116.4z"/>
	<path class="st1" d="M52,121.3L52,121.3c-0.9-0.7-1.5-1.6-1.5-2.5v4.9C50.5,122.8,51.1,122,52,121.3z"/>
	<path class="st1" d="M80.3,126.2L80.3,126.2C80.3,126.2,80.3,126.2,80.3,126.2C80.3,126.2,80.3,126.2,80.3,126.2z"/>
	<path class="st1" d="M53.5,120.4c-0.9-0.5-1.5-1.1-1.5-1.6v2.4c0,0,0,0,0,0C52.5,121,53,120.7,53.5,120.4z"/>
	<path class="st1" d="M75.4,123.7c1.2-0.2,2.4-0.5,3.4-0.8v-1.6c-2.6,0.9-6.6,1.6-11.6,1.6c-5.2,0-9.2-0.7-11.8-1.7
		c-0.7,0.3-1.4,0.5-1.9,0.8c1.5,0.7,3.4,1.2,5.5,1.6c2.5-0.5,5.4-0.7,8.2-0.7S72.8,123.3,75.4,123.7z"/>
	<path class="st1" d="M52,121.3v-2.4v-2.4c-0.9,0.7-1.5,1.5-1.5,2.4S51.1,120.6,52,121.3z"/>
	<path class="st1" d="M75.4,123.7c-2.5-0.5-5.4-0.7-8.2-0.7s-5.6,0.2-8.2,0.7c2.5,0.5,5.4,0.7,8.2,0.7S72.8,124.2,75.4,123.7z"/>
	<path class="st1" d="M53.5,120.4c-0.5,0.3-1,0.5-1.4,0.8c0.4,0.3,0.9,0.6,1.4,0.8c0.5-0.3,1.1-0.6,1.9-0.8
		C54.6,121,54,120.7,53.5,120.4z"/>
	<path class="st1" d="M80.3,121.3L80.3,121.3C80.3,121.3,80.3,121.3,80.3,121.3C80.3,121.3,80.3,121.3,80.3,121.3z"/>
	<path class="st1" d="M67.2,109.8c5,0,9,0.7,11.6,1.6v-1.6c-3.2-1-7.5-1.5-11.6-1.5c-7.5,0-15.4,1.7-16.5,4.9h1.7
		C53.7,111.5,59.1,109.8,67.2,109.8z"/>
	<path class="st1" d="M53.5,115.5c-0.5-0.3-0.9-0.6-1.1-0.9H52v1.7c0,0,0,0,0,0C52.5,116.1,53,115.8,53.5,115.5z"/>
	<path class="st1" d="M75.4,118.8c1.2-0.2,2.4-0.5,3.4-0.8v-1.6c-2.6,0.9-6.6,1.6-11.6,1.6c-5.2,0-9.2-0.7-11.8-1.7
		c-0.7,0.3-1.4,0.5-1.9,0.8c1.5,0.7,3.4,1.2,5.5,1.6c2.5-0.5,5.4-0.7,8.2-0.7S72.8,118.4,75.4,118.8z"/>
	<path class="st1" d="M80.3,111.4L80.3,111.4C80.3,111.4,80.3,111.4,80.3,111.4C80.3,111.4,80.3,111.4,80.3,111.4z"/>
	<path class="st1" d="M52,116.3v-1.7h0.3c-0.2-0.3-0.3-0.5-0.3-0.8s0.1-0.5,0.3-0.8h-1.7c-0.1,0.2-0.1,0.5-0.1,0.8
		C50.5,114.8,51.1,115.6,52,116.3z"/>
	<path class="st1" d="M75.4,118.8c-2.5-0.5-5.4-0.7-8.2-0.7s-5.6,0.2-8.2,0.7c2.5,0.5,5.4,0.7,8.2,0.7S72.8,119.3,75.4,118.8z"/>
	<path class="st1" d="M53.5,115.5c-0.5,0.3-1,0.5-1.4,0.8c0.4,0.3,0.9,0.6,1.4,0.8c0.5-0.3,1.1-0.6,1.9-0.8
		C54.6,116.1,54,115.8,53.5,115.5z"/>
	<path class="st1" d="M80.3,116.3L80.3,116.3C80.3,116.4,80.3,116.4,80.3,116.3C80.3,116.3,80.3,116.3,80.3,116.3z"/>
	<path class="st1" d="M78.9,113.1c0.2-0.5,0.5-0.9,1-1.4c-0.3-0.1-0.7-0.3-1.1-0.4v1.8H78.9z"/>
	<path class="st1" d="M79,117.9c-0.1,0-0.1,0-0.2,0.1v0.8C78.8,118.5,78.9,118.2,79,117.9z"/>
	<path class="st1" d="M78.8,118.8v0.8c0.1,0,0.1,0,0.2,0.1C78.9,119.4,78.8,119.1,78.8,118.8z"/>
	<path class="st1" d="M78.8,123.7v0.8c0.1,0,0.1,0,0.2,0.1C78.9,124.4,78.8,124.1,78.8,123.7z"/>
	<path class="st1" d="M79,122.9c-0.1,0-0.1,0-0.2,0.1v0.8C78.8,123.4,78.9,123.1,79,122.9z"/>
	<path class="st1" d="M78.8,128.7v0.8c0.1,0,0.1,0,0.2,0.1C78.9,129.3,78.8,129,78.8,128.7z"/>
	<path class="st1" d="M79,127.8c-0.1,0-0.1,0-0.2,0.1v0.8C78.8,128.4,78.9,128.1,79,127.8z"/>
	<path class="st1" d="M78.8,116.3v0.1c0.1,0,0.1,0,0.2-0.1C78.9,116.3,78.9,116.3,78.8,116.3z"/>
	<path class="st1" d="M78.8,126.1v0.1c0.1,0,0.1,0,0.2-0.1C78.9,126.2,78.9,126.2,78.8,126.1z"/>
	<path class="st1" d="M78.8,121.2v0.1c0.1,0,0.1,0,0.2-0.1C78.9,121.3,78.9,121.2,78.8,121.2z"/>
	<path class="st1" d="M80.3,106.5L80.3,106.5c-0.9-0.7-1.5-1.6-1.5-2.5v4.9C78.8,108,79.3,107.2,80.3,106.5z"/>
	<path class="st1" d="M78.8,109v0.8c0.1,0,0.1,0,0.2,0.1C78.9,109.6,78.8,109.3,78.8,109z"/>
	<path class="st1" d="M79,114.8c0,0,0-0.1-0.1-0.1h-0.1v0.1C78.8,114.7,78.9,114.8,79,114.8z"/>
	<path class="st1" d="M78.8,113.9v0.8h0.1C78.8,114.4,78.8,114.1,78.8,113.9z"/>
	<path class="st1" d="M78.8,113.1v0.8c0-0.3,0.1-0.5,0.1-0.8H78.8z"/>
	<path class="st1" d="M79,129.6c-0.1,0-0.1,0-0.2-0.1v1c0.3,0,0.6,0.1,0.9,0.1C79.4,130.3,79.1,129.9,79,129.6z"/>
	<path class="st1" d="M79.9,125.9c-0.4-0.4-0.7-0.8-0.9-1.2c-0.1,0-0.1,0-0.2-0.1v1.6c0.1,0,0.1,0,0.2,0.1
		C79.3,126.1,79.6,126,79.9,125.9z"/>
	<path class="st1" d="M79.9,126.6c-0.3-0.1-0.6-0.2-0.9-0.4c-0.1,0-0.1,0-0.2,0.1v1.6c0.1,0,0.1,0,0.2-0.1
		C79.2,127.3,79.5,126.9,79.9,126.6z"/>
	<path class="st1" d="M79.9,120.9c-0.4-0.4-0.7-0.8-0.9-1.2c-0.1,0-0.1,0-0.2-0.1v1.6c0.1,0,0.1,0,0.2,0.1
		C79.3,121.2,79.6,121.1,79.9,120.9z"/>
	<path class="st1" d="M80.3,126.2c-0.1-0.1-0.3-0.2-0.4-0.3c-0.3,0.1-0.6,0.2-0.9,0.4c0.3,0.1,0.6,0.2,0.9,0.4
		C80,126.4,80.1,126.3,80.3,126.2L80.3,126.2z"/>
	<path class="st1" d="M79.9,121.6c-0.3-0.1-0.6-0.2-0.9-0.4c-0.1,0-0.1,0-0.2,0.1v1.6c0.1,0,0.1,0,0.2-0.1
		C79.2,122.4,79.5,122,79.9,121.6z"/>
	<path class="st1" d="M79.9,116c-0.4-0.4-0.7-0.8-0.9-1.2c-0.1,0-0.1,0-0.2-0.1v1.6c0.1,0,0.1,0,0.2,0.1
		C79.3,116.2,79.6,116.1,79.9,116z"/>
	<path class="st1" d="M80.3,121.3c-0.1-0.1-0.3-0.2-0.4-0.3c-0.3,0.1-0.6,0.2-0.9,0.4c0.3,0.1,0.6,0.2,0.9,0.4
		C80,121.5,80.1,121.4,80.3,121.3L80.3,121.3z"/>
	<path class="st1" d="M79.9,116.7c-0.3-0.1-0.6-0.2-0.9-0.4c-0.1,0-0.1,0-0.2,0.1v1.6c0.1,0,0.1,0,0.2-0.1
		C79.2,117.5,79.5,117.1,79.9,116.7z"/>
	<path class="st1" d="M79.9,111.8c0.1-0.1,0.2-0.2,0.4-0.3v0c-0.6-0.5-1.1-1-1.3-1.6c-0.1,0-0.1,0-0.2-0.1v1.6
		C79.2,111.5,79.6,111.6,79.9,111.8z"/>
	<path class="st1" d="M80.3,116.3c-0.1-0.1-0.3-0.2-0.4-0.3c-0.3,0.1-0.6,0.2-0.9,0.4c0.3,0.1,0.6,0.2,0.9,0.4
		C80,116.6,80.1,116.5,80.3,116.3L80.3,116.3z"/>
	<path class="st1" d="M88.6,138.3L88.6,138.3C88.6,138.3,88.6,138.3,88.6,138.3C88.6,138.3,88.6,138.3,88.6,138.3z"/>
	<path class="st1" d="M80.3,132.2L80.3,132.2C80.3,132.2,80.3,132.2,80.3,132.2C80.3,132.2,80.3,132.2,80.3,132.2z"/>
	<path class="st1" d="M81.3,130c-0.7-0.5-1-0.9-1-1.4v1.4c0.2,0.1,0.4,0.2,0.6,0.3C81,130.2,81.2,130.1,81.3,130z"/>
	<path class="st1" d="M83.3,131.3c0.2,0,0.4,0.1,0.5,0.1v-0.2c-0.1,0-0.1,0-0.2-0.1C83.5,131.2,83.4,131.2,83.3,131.3z"/>
	<path class="st1" d="M80.3,130v0.6c0.2-0.1,0.4-0.2,0.6-0.3C80.7,130.2,80.5,130.1,80.3,130z"/>
	<path class="st1" d="M81.3,130.5c0.1-0.1,0.3-0.2,0.4-0.2c-0.2-0.1-0.3-0.2-0.4-0.3c-0.1,0.1-0.3,0.2-0.4,0.3
		C81,130.4,81.2,130.5,81.3,130.5z"/>
	<path class="st1" d="M81.3,130.5c-0.1-0.1-0.3-0.2-0.4-0.2c-0.2,0.1-0.4,0.2-0.6,0.3v0.1c0.2,0,0.4,0.1,0.6,0.1
		C81,130.7,81.2,130.6,81.3,130.5z"/>
	<path class="st1" d="M80.3,128.7v-1.4c-0.4,0.2-0.8,0.3-1.3,0.5c-0.1,0.3-0.2,0.6-0.2,0.9s0.1,0.6,0.2,0.9c0.5,0.2,0.9,0.3,1.3,0.5
		V128.7z"/>
	<path class="st1" d="M80.3,130.6V130c-0.4-0.2-0.8-0.3-1.3-0.5c0.2,0.4,0.4,0.7,0.7,1c0.2,0,0.3,0,0.5,0.1
		C80.2,130.6,80.2,130.6,80.3,130.6z"/>
	<path class="st1" d="M80.1,130.7c0,0,0.1,0,0.1,0v-0.1C80.2,130.6,80.2,130.6,80.1,130.7z"/>
	<path class="st1" d="M80.3,126.7c-0.1-0.1-0.3-0.1-0.4-0.2c-0.4,0.4-0.7,0.8-0.9,1.2c0.5-0.2,0.9-0.3,1.3-0.5V126.7z"/>
	<path class="st1" d="M80.3,126.2c-0.1,0.1-0.3,0.2-0.4,0.3c0.1,0.1,0.3,0.1,0.4,0.2V126.2z"/>
	<path class="st1" d="M83.3,131.3c0.1,0,0.2-0.1,0.3-0.1c-0.3-0.1-0.6-0.2-0.9-0.4c-0.1,0.1-0.2,0.2-0.3,0.3
		C82.7,131.1,83,131.2,83.3,131.3z"/>
	<path class="st1" d="M81.3,130.5c0.3,0.1,0.5,0.3,0.8,0.5c0.1,0,0.2,0,0.3,0v-0.4c-0.2-0.1-0.4-0.2-0.6-0.3
		C81.6,130.4,81.4,130.5,81.3,130.5z"/>
	<path class="st1" d="M82.3,131C82.3,131,82.4,131,82.3,131c0.2-0.1,0.3-0.2,0.4-0.2c-0.1-0.1-0.3-0.1-0.4-0.2V131z"/>
	<path class="st1" d="M82.1,131c-0.2-0.2-0.5-0.3-0.8-0.5c-0.1,0.1-0.3,0.2-0.4,0.2C81.3,130.8,81.7,130.9,82.1,131z"/>
	<path class="st1" d="M81.3,125.1c-0.7-0.5-1-0.9-1-1.4v1.4c0.2,0.1,0.4,0.2,0.6,0.3C81,125.3,81.2,125.2,81.3,125.1z"/>
	<path class="st1" d="M82.7,126.6c0.4,0.4,0.7,0.8,0.9,1.2c0.1,0,0.1,0,0.2,0.1v-1.6c-0.1,0-0.1,0-0.2-0.1
		C83.3,126.3,83,126.4,82.7,126.6z"/>
	<path class="st1" d="M82.3,127.3v-0.6c-0.2,0.1-0.4,0.2-0.6,0.3C81.9,127.1,82.1,127.2,82.3,127.3z"/>
	<path class="st1" d="M80.3,125.1v0.6c0.2-0.1,0.4-0.2,0.6-0.3C80.7,125.3,80.5,125.2,80.3,125.1z"/>
	<path class="st1" d="M82.3,127.3c0.4,0.2,0.8,0.3,1.3,0.5c-0.2-0.4-0.5-0.8-0.9-1.2c-0.1,0.1-0.3,0.1-0.4,0.2V127.3z"/>
	<path class="st1" d="M81.3,125.6c0.1-0.1,0.3-0.2,0.4-0.2c-0.2-0.1-0.3-0.2-0.4-0.3c-0.1,0.1-0.3,0.2-0.4,0.3
		C81,125.4,81.2,125.5,81.3,125.6z"/>
	<path class="st1" d="M81.3,125.6c-0.1-0.1-0.3-0.2-0.4-0.2c-0.2,0.1-0.4,0.2-0.6,0.3v0.5c0,0,0,0,0,0
		C80.6,126,80.9,125.8,81.3,125.6z"/>
	<path class="st1" d="M80.3,123.7v-1.4c-0.4,0.2-0.8,0.3-1.3,0.5c-0.1,0.3-0.2,0.6-0.2,0.9s0.1,0.6,0.2,0.9c0.5,0.2,0.9,0.3,1.3,0.5
		V123.7z"/>
	<path class="st1" d="M80.3,125.1c-0.4-0.2-0.8-0.3-1.3-0.5c0.2,0.4,0.5,0.8,0.9,1.2c0.1-0.1,0.3-0.1,0.4-0.2V125.1z"/>
	<path class="st1" d="M80.3,125.7c-0.1,0.1-0.3,0.1-0.4,0.2c0.1,0.1,0.2,0.2,0.4,0.3V125.7z"/>
	<path class="st1" d="M80.3,121.8c-0.1-0.1-0.3-0.1-0.4-0.2c-0.4,0.4-0.7,0.8-0.9,1.2c0.5-0.2,0.9-0.3,1.3-0.5V121.8z"/>
	<path class="st1" d="M80.3,121.3c-0.1,0.1-0.3,0.2-0.4,0.3c0.1,0.1,0.3,0.1,0.4,0.2V121.3z"/>
	<path class="st1" d="M82.3,126.2L82.3,126.2C82.3,126.2,82.3,126.2,82.3,126.2C82.3,126.2,82.3,126.2,82.3,126.2z"/>
	<path class="st1" d="M82.3,126.2c0.1,0.1,0.3,0.2,0.4,0.3c0.3-0.1,0.6-0.2,0.9-0.4c-0.3-0.1-0.6-0.2-0.9-0.4
		C82.6,126,82.5,126.1,82.3,126.2L82.3,126.2z"/>
	<path class="st1" d="M81.3,126.8c0.1,0.1,0.3,0.2,0.4,0.2c0.2-0.1,0.4-0.2,0.6-0.3v-0.5c0,0,0,0,0,0
		C82,126.4,81.7,126.6,81.3,126.8z"/>
	<path class="st1" d="M82.3,126.7c0.1-0.1,0.3-0.1,0.4-0.2c-0.1-0.1-0.2-0.2-0.4-0.3V126.7z"/>
	<path class="st1" d="M81.3,125.6c0.4,0.2,0.7,0.4,1,0.6c0,0,0,0,0,0v-0.5c-0.2-0.1-0.4-0.2-0.6-0.3
		C81.6,125.4,81.4,125.5,81.3,125.6z"/>
	<path class="st1" d="M82.3,126.2c0.1-0.1,0.3-0.2,0.4-0.3c-0.1-0.1-0.3-0.1-0.4-0.2V126.2z"/>
	<path class="st1" d="M81.3,126.8c0.4-0.2,0.7-0.4,1-0.6c-0.3-0.2-0.6-0.4-1-0.6c-0.4,0.2-0.7,0.4-1,0.6
		C80.6,126.4,80.9,126.6,81.3,126.8z"/>
	<path class="st1" d="M81.3,120.2c-0.7-0.5-1-0.9-1-1.4v1.4c0.2,0.1,0.4,0.2,0.6,0.3C81,120.4,81.2,120.3,81.3,120.2z"/>
	<path class="st1" d="M82.7,121.6c0.4,0.4,0.7,0.8,0.9,1.2c0.1,0,0.1,0,0.2,0.1v-1.6c-0.1,0-0.1,0-0.2-0.1
		C83.3,121.4,83,121.5,82.7,121.6z"/>
	<path class="st1" d="M82.3,122.4v-0.6c-0.2,0.1-0.4,0.2-0.6,0.3C81.9,122.2,82.1,122.3,82.3,122.4z"/>
	<path class="st1" d="M80.3,120.2v0.6c0.2-0.1,0.4-0.2,0.6-0.3C80.7,120.4,80.5,120.3,80.3,120.2z"/>
	<path class="st1" d="M82.3,122.4c0.4,0.2,0.8,0.3,1.3,0.5c-0.2-0.4-0.5-0.8-0.9-1.2c-0.1,0.1-0.3,0.1-0.4,0.2V122.4z"/>
	<path class="st1" d="M81.3,120.7c0.1-0.1,0.3-0.2,0.4-0.2c-0.2-0.1-0.3-0.2-0.4-0.3c-0.1,0.1-0.3,0.2-0.4,0.3
		C81,120.5,81.2,120.6,81.3,120.7z"/>
	<path class="st1" d="M81.3,120.7c-0.1-0.1-0.3-0.2-0.4-0.2c-0.2,0.1-0.4,0.2-0.6,0.3v0.5c0,0,0,0,0,0
		C80.6,121.1,80.9,120.9,81.3,120.7z"/>
	<path class="st1" d="M80.3,118.8v-1.4c-0.4,0.2-0.8,0.3-1.3,0.5c-0.1,0.3-0.2,0.6-0.2,0.9c0,0.3,0.1,0.6,0.2,0.9
		c0.5,0.2,0.9,0.3,1.3,0.5V118.8z"/>
	<path class="st1" d="M80.3,120.2c-0.4-0.2-0.8-0.3-1.3-0.5c0.2,0.4,0.5,0.8,0.9,1.2c0.1-0.1,0.3-0.1,0.4-0.2V120.2z"/>
	<path class="st1" d="M80.3,120.7c-0.1,0.1-0.3,0.1-0.4,0.2c0.1,0.1,0.2,0.2,0.4,0.3V120.7z"/>
	<path class="st1" d="M80.3,116.9c-0.1-0.1-0.3-0.1-0.4-0.2c-0.4,0.4-0.7,0.8-0.9,1.2c0.5-0.2,0.9-0.3,1.3-0.5V116.9z"/>
	<path class="st1" d="M80.3,116.4c-0.1,0.1-0.3,0.2-0.4,0.3c0.1,0.1,0.3,0.1,0.4,0.2V116.4z"/>
	<path class="st1" d="M82.3,121.3L82.3,121.3C82.3,121.3,82.3,121.3,82.3,121.3C82.3,121.3,82.3,121.3,82.3,121.3z"/>
	<path class="st1" d="M82.3,121.3c0.1,0.1,0.3,0.2,0.4,0.3c0.3-0.1,0.6-0.2,0.9-0.4c-0.3-0.1-0.6-0.2-0.9-0.4
		C82.6,121,82.5,121.2,82.3,121.3L82.3,121.3z"/>
	<path class="st1" d="M81.3,121.9c0.1,0.1,0.3,0.2,0.4,0.2c0.2-0.1,0.4-0.2,0.6-0.3v-0.5c0,0,0,0,0,0
		C82,121.5,81.7,121.7,81.3,121.9z"/>
	<path class="st1" d="M82.3,121.8c0.1-0.1,0.3-0.1,0.4-0.2c-0.1-0.1-0.2-0.2-0.4-0.3V121.8z"/>
	<path class="st1" d="M81.3,120.7c0.4,0.2,0.7,0.4,1,0.6c0,0,0,0,0,0v-0.5c-0.2-0.1-0.4-0.2-0.6-0.3
		C81.6,120.5,81.4,120.6,81.3,120.7z"/>
	<path class="st1" d="M82.3,121.3c0.1-0.1,0.3-0.2,0.4-0.3c-0.1-0.1-0.3-0.1-0.4-0.2V121.3z"/>
	<path class="st1" d="M81.3,121.9c0.4-0.2,0.7-0.4,1-0.6c-0.3-0.2-0.6-0.4-1-0.6c-0.4,0.2-0.7,0.4-1,0.6
		C80.6,121.5,80.9,121.7,81.3,121.9z"/>
	<path class="st1" d="M80.9,115.5c0.2-0.1,0.3-0.2,0.4-0.3c-0.3-0.2-0.5-0.4-0.7-0.6h-0.3v0.6C80.5,115.3,80.7,115.4,80.9,115.5z"/>
	<path class="st1" d="M80.3,113.9v0.8h0.3C80.4,114.4,80.3,114.1,80.3,113.9z"/>
	<path class="st1" d="M82.7,116.7c0.4,0.4,0.7,0.8,0.9,1.2c0.1,0,0.1,0,0.2,0.1v-1.6c-0.1,0-0.1,0-0.2-0.1
		C83.3,116.5,83,116.6,82.7,116.7z"/>
	<path class="st1" d="M82.3,117.4v-0.6c-0.2,0.1-0.4,0.2-0.6,0.3C81.9,117.3,82.1,117.4,82.3,117.4z"/>
	<path class="st1" d="M80.3,115.3v0.6c0.2-0.1,0.4-0.2,0.6-0.3C80.7,115.4,80.5,115.3,80.3,115.3z"/>
	<path class="st1" d="M82.3,117.4c0.4,0.2,0.8,0.3,1.3,0.5c-0.2-0.4-0.5-0.8-0.9-1.2c-0.1,0.1-0.3,0.1-0.4,0.2V117.4z"/>
	<path class="st1" d="M81.7,115.5c-0.2-0.1-0.3-0.2-0.4-0.3c-0.1,0.1-0.3,0.2-0.4,0.3c0.2,0.1,0.3,0.2,0.4,0.2
		C81.4,115.7,81.6,115.6,81.7,115.5z"/>
	<path class="st1" d="M80.3,116.4c0.3-0.2,0.6-0.4,1-0.6c-0.1-0.1-0.3-0.2-0.4-0.2c-0.2,0.1-0.4,0.2-0.6,0.3L80.3,116.4
		C80.3,116.3,80.3,116.3,80.3,116.4z"/>
	<path class="st1" d="M80.3,114.6h-1.4c0,0,0,0.1,0.1,0.1c0.5,0.2,0.9,0.3,1.3,0.5V114.6z"/>
	<path class="st1" d="M78.9,113.1h1.4V112c-0.1-0.1-0.3-0.1-0.4-0.2C79.4,112.2,79.1,112.7,78.9,113.1z"/>
	<path class="st1" d="M80.3,114.6v-0.8v-0.8h-1.4c-0.1,0.2-0.1,0.5-0.1,0.8s0.1,0.5,0.1,0.8H80.3z"/>
	<path class="st1" d="M79.9,116c0.1-0.1,0.3-0.1,0.4-0.2v-0.6c-0.4-0.2-0.8-0.3-1.3-0.5C79.2,115.2,79.5,115.6,79.9,116z"/>
	<path class="st1" d="M80.3,111.4c-0.1,0.1-0.3,0.2-0.4,0.3c0.1,0.1,0.3,0.1,0.4,0.2V111.4z"/>
	<path class="st1" d="M80.3,115.8c-0.1,0.1-0.3,0.1-0.4,0.2c0.1,0.1,0.2,0.2,0.4,0.3V115.8z"/>
	<path class="st1" d="M82.3,116.4L82.3,116.4C82.3,116.3,82.3,116.3,82.3,116.4C82.3,116.4,82.3,116.4,82.3,116.4z"/>
	<path class="st1" d="M82.3,116.4c0.1,0.1,0.3,0.2,0.4,0.3c0.3-0.1,0.6-0.2,0.9-0.4c-0.3-0.1-0.6-0.2-0.9-0.4
		C82.6,116.1,82.5,116.2,82.3,116.4L82.3,116.4z"/>
	<path class="st1" d="M81.3,117c0.1,0.1,0.3,0.2,0.4,0.2c0.2-0.1,0.4-0.2,0.6-0.3v-0.5c0,0,0,0,0,0C82,116.6,81.7,116.8,81.3,117z"
		/>
	<path class="st1" d="M82.3,116.9c0.1-0.1,0.3-0.1,0.4-0.2c-0.1-0.1-0.2-0.2-0.4-0.3V116.9z"/>
	<path class="st1" d="M81.3,115.7c0.4,0.2,0.7,0.4,1,0.6c0,0,0,0,0,0v-0.5c-0.2-0.1-0.4-0.2-0.6-0.3
		C81.6,115.6,81.4,115.7,81.3,115.7z"/>
	<path class="st1" d="M82.3,116.3c0.1-0.1,0.3-0.2,0.4-0.3c-0.1-0.1-0.3-0.1-0.4-0.2V116.3z"/>
	<path class="st1" d="M82.3,116.4c-0.3-0.2-0.6-0.4-1-0.6c-0.4,0.2-0.7,0.4-1,0.6c0.3,0.2,0.6,0.4,1,0.6
		C81.7,116.8,82,116.6,82.3,116.4z"/>
	<path class="st1" d="M81.7,110.6c-0.9-0.5-1.5-1.1-1.5-1.6v1.4c0.4,0.2,0.7,0.3,1,0.5C81.4,110.7,81.6,110.7,81.7,110.6z"/>
	<path class="st1" d="M82.7,111.8c-0.4,0.2-0.7,0.3-1,0.5c0.6,0.3,1.2,0.5,1.9,0.7C83.4,112.6,83.1,112.2,82.7,111.8z"/>
	<path class="st1" d="M81.3,110.8c-0.3-0.2-0.7-0.3-1-0.5v1.1c0,0,0,0,0,0C80.6,111.2,80.9,111,81.3,110.8z"/>
	<path class="st1" d="M80.3,110.3V109v-2.4c-0.9,0.7-1.5,1.5-1.5,2.4c0,0.3,0.1,0.6,0.2,0.9C79.4,110,79.9,110.2,80.3,110.3z"/>
	<path class="st1" d="M79,109.9c0.2,0.6,0.7,1.1,1.3,1.6v-1.1C79.9,110.2,79.4,110,79,109.9z"/>
	<path class="st1" d="M83.6,111.4c-0.7-0.3-1.4-0.5-1.9-0.8c-0.2,0.1-0.3,0.1-0.4,0.2c0.6,0.3,1,0.6,1.4,1
		C83,111.7,83.3,111.5,83.6,111.4z"/>
	<path class="st1" d="M81.3,110.8c-0.4,0.2-0.7,0.4-1,0.6c0.4,0.3,0.9,0.6,1.4,0.8c0.3-0.2,0.6-0.3,1-0.5
		C82.3,111.4,81.9,111.1,81.3,110.8z"/>
	<path class="st1" d="M81.7,105.7c-0.4-0.2-0.7-0.5-1-0.7h-0.5v1.5c0,0,0,0,0,0C80.7,106.2,81.2,105.9,81.7,105.7z"/>
	<path class="st1" d="M80.3,106.5V105h0.5c-0.3-0.3-0.5-0.6-0.5-0.9c0-0.2,0.1-0.4,0.2-0.6h-1.6c0,0.2-0.1,0.4-0.1,0.6
		C78.8,105,79.3,105.8,80.3,106.5z"/>
	<path class="st1" d="M81.7,105.7c-0.5,0.3-1,0.5-1.4,0.8c0.4,0.3,0.9,0.6,1.4,0.8c0.5-0.3,1.1-0.6,1.9-0.8
		C82.9,106.2,82.2,106,81.7,105.7z"/>
	<path class="st0" d="M69,14.9l6.4-11.1C75.2,3.9,74.9,4,74.5,4c-1.7,0-3.3-0.8-4.4-2.1c-0.2-0.3-0.8-0.3-1,0
		C68.1,3.2,66.5,4,64.8,4c-1.7,0-3.3-0.8-4.4-2.1c-0.2-0.2-0.4-0.2-0.5-0.2c-0.2,0-0.4,0-0.6,0.2C58.3,3.2,56.7,4,55,4
		c-1.7,0-3.3-0.8-4.4-2.1c-0.2-0.3-0.8-0.3-1,0C48.5,3.2,46.9,4,45.2,4c-0.3,0-0.6-0.1-0.9-0.2L51,15.3h17.8L69,14.9z M59.8,7.2
		c0-0.1,0-0.1,0-0.2h0.1L59.8,7.2z"/>
	<path class="st0" d="M59.8,7.2L59.9,7h-0.1C59.8,7.1,59.8,7.2,59.8,7.2z"/>
	<path class="st1" d="M112.1,116.9c0.3-0.5,0.6-1,1-1.6c-0.3,0-0.6,0-1-0.1V116.9z"/>
	<polygon class="st1" points="68.8,15.3 51,15.3 51.9,16.8 67.9,16.8 	"/>
	<polygon class="st1" points="50.4,15.3 50.4,16.8 51.9,16.8 51,15.3 	"/>
	<polygon class="st1" points="70,16.8 70,15.3 68.8,15.3 67.9,16.8 	"/>
	<path class="st0" d="M128.7,102.5c-2.3-0.8-5.7-1.5-10-1.6c-0.2,1.1-0.5,2.2-0.8,3.3C122.5,104.1,126.2,103.4,128.7,102.5z"/>
	<path class="st1" d="M116.2,104.2c0.2,0,0.4,0,0.6,0c0.3,0,0.6,0,0.9,0c0.3-1.1,0.6-2.2,0.8-3.3c-0.5,0-1,0-1.5,0
		C116.8,102,116.5,103.1,116.2,104.2z"/>
	<path class="st0" d="M109.1,127c-1.5,0.7-3.4,1.2-5.5,1.6c2.1,0.4,4,0.9,5.5,1.6c0.9-0.5,1.5-1.1,1.5-1.6S110,127.6,109.1,127z"/>
	<path class="st0" d="M110.6,131.2L110.6,131.2C110.6,131.1,110.5,131.1,110.6,131.2C110.5,131.1,110.6,131.1,110.6,131.2z"/>
	<path class="st0" d="M110.6,126.2L110.6,126.2C110.6,126.2,110.5,126.2,110.6,126.2C110.5,126.2,110.6,126.2,110.6,126.2z"/>
	<path class="st0" d="M110.6,121.3L110.6,121.3C110.6,121.3,110.5,121.3,110.6,121.3C110.5,121.3,110.6,121.3,110.6,121.3z"/>
	<path class="st0" d="M109.1,122.1c-0.5,0.2-1,0.4-1.5,0.6c-0.5,0.5-1,1.1-1.5,1.6c1.1,0.3,2.2,0.7,3,1.1c0.9-0.5,1.5-1.1,1.5-1.6
		S110,122.7,109.1,122.1z"/>
	<path class="st0" d="M104.3,123.9c0.1-0.1,0.3-0.3,0.4-0.4c-0.4,0.1-0.7,0.2-1.1,0.2C103.9,123.8,104.1,123.8,104.3,123.9z"/>
	<path class="st0" d="M106.8,132.9h3.4c-0.2-0.3-0.6-0.6-1.1-0.9C108.4,132.3,107.6,132.6,106.8,132.9z"/>
	<path class="st0" d="M108,120c0.6-0.7,1.2-1.5,1.8-2.3c-0.2-0.2-0.4-0.3-0.7-0.5c-1.5,0.7-3.4,1.2-5.5,1.6
		C105.2,119.1,106.7,119.5,108,120z"/>
	<path class="st0" d="M110.2,134.4H89.6c0.2,0.2,0.3,0.5,0.4,0.7h0.1v0.8v1.6c1.6,0.2,3.4,0.3,5.3,0.3
		C103.5,137.7,108.9,135.9,110.2,134.4z"/>
	<path class="st0" d="M116.8,109.1c5.2,0,9.2-0.7,11.8-1.7c-2.5-0.9-6.4-1.6-11.4-1.7c-0.4,1.1-0.8,2.2-1.2,3.3
		C116.4,109.1,116.6,109.1,116.8,109.1z"/>
	<path class="st1" d="M115.7,105.8c-0.4,1.1-0.8,2.2-1.2,3.3c0.5,0,1.1,0,1.6,0c0.4-1.1,0.8-2.2,1.2-3.3c-0.2,0-0.3,0-0.5,0
		C116.4,105.8,116.1,105.8,115.7,105.8z"/>
	<path class="st0" d="M132,102.5L132,102.5C132,102.5,132,102.5,132,102.5C132,102.5,132,102.5,132,102.5z"/>
	<path class="st0" d="M132,82.8L132,82.8C132,82.8,132,82.8,132,82.8C132,82.8,132,82.8,132,82.8z"/>
	<path class="st0" d="M130.5,88.6c-1.5,0.7-3.4,1.2-5.5,1.6c2.1,0.4,4,0.9,5.5,1.6c0.9-0.5,1.5-1.1,1.5-1.6
		C132,89.7,131.5,89.1,130.5,88.6z"/>
	<path class="st0" d="M130.5,83.6c-1.5,0.7-3.4,1.2-5.5,1.6c2.1,0.4,4,0.9,5.5,1.6c0.9-0.5,1.5-1.1,1.5-1.6
		C132,84.8,131.5,84.2,130.5,83.6z"/>
	<path class="st0" d="M130.5,63.9c-1.5,0.7-3.4,1.2-5.5,1.6c2.1,0.4,4,0.9,5.5,1.6c0.9-0.5,1.5-1.1,1.5-1.6
		C132,65,131.5,64.5,130.5,63.9z"/>
	<path class="st0" d="M132,92.7L132,92.7C132,92.6,132,92.7,132,92.7C132,92.7,132,92.7,132,92.7z"/>
	<path class="st0" d="M130.5,93.5c-1.5,0.7-3.4,1.2-5.5,1.6c2.1,0.4,4,0.9,5.5,1.6c0.9-0.5,1.5-1.1,1.5-1.6
		C132,94.6,131.5,94,130.5,93.5z"/>
	<path class="st0" d="M132,97.6L132,97.6C132,97.6,132,97.6,132,97.6C132,97.6,132,97.6,132,97.6z"/>
	<path class="st0" d="M130.5,78.7c-1.5,0.7-3.4,1.2-5.5,1.6c2.1,0.4,4,0.9,5.5,1.6c0.9-0.5,1.5-1.1,1.5-1.6
		C132,79.8,131.5,79.3,130.5,78.7z"/>
	<path class="st0" d="M132,73L132,73C132,72.9,132,72.9,132,73C132,72.9,132,73,132,73z"/>
	<path class="st0" d="M132,68L132,68C132,68,132,68,132,68C132,68,132,68,132,68z"/>
	<path class="st0" d="M132,77.9L132,77.9C132,77.9,132,77.9,132,77.9C132,77.9,132,77.9,132,77.9z"/>
	<path class="st0" d="M130.5,73.8c-1.5,0.7-3.4,1.2-5.5,1.6c2.1,0.4,4,0.9,5.5,1.6c1-0.5,1.5-1.1,1.5-1.6
		C132,74.9,131.5,74.3,130.5,73.8z"/>
	<path class="st0" d="M130.5,68.8c-1.5,0.7-3.4,1.2-5.5,1.6c2.1,0.4,4,0.9,5.5,1.6c0.9-0.5,1.5-1.1,1.5-1.6S131.5,69.4,130.5,68.8z"
		/>
	<path class="st0" d="M107.2,126.2c-0.7-0.3-1.6-0.5-2.5-0.7c-0.7,0.7-1.5,1.3-2.3,1.9C104.4,127.1,106,126.7,107.2,126.2z"/>
	<path class="st0" d="M110.5,113.6c-0.1-0.4-0.6-0.9-1.4-1.4c-0.6,0.3-1.2,0.5-1.9,0.7C108.2,113.3,109.3,113.5,110.5,113.6z"/>
	<path class="st0" d="M110.6,116.4L110.6,116.4C110.6,116.3,110.5,116.3,110.6,116.4C110.5,116.4,110.6,116.4,110.6,116.4z"/>
	<path class="st0" d="M115.5,110.6c-0.5,1.1-1.1,2.3-1.6,3.3c1,0.1,2,0.1,3,0.1c8.2,0,13.6-1.8,14.8-3.4h-14.8H115.5z"/>
	<path class="st0" d="M112.1,110.6v3.2c0,0,0.1,0,0.1,0c0.6-1,1.1-2.1,1.6-3.2H112.1z"/>
	<path class="st1" d="M113.8,110.6c-0.5,1.1-1,2.2-1.6,3.2c0.5,0,1.1,0.1,1.6,0.1c0.6-1.1,1.1-2.2,1.6-3.3H113.8z"/>
	<path class="st0" d="M130.5,98.4c-1.5,0.7-3.4,1.2-5.5,1.6c2.1,0.4,4,0.9,5.5,1.6c0.9-0.5,1.5-1.1,1.5-1.6S131.5,99,130.5,98.4z"/>
	<path class="st0" d="M130.5,103.3c-1.5,0.7-3.4,1.2-5.5,1.6c2.1,0.4,4,0.9,5.5,1.6c0.9-0.5,1.5-1.1,1.5-1.6
		S131.5,103.9,130.5,103.3z"/>
	<path class="st0" d="M132,107.5L132,107.5C132,107.4,132,107.4,132,107.5C132,107.4,132,107.5,132,107.5z"/>
	<path class="st0" d="M128.4,109.1h3.2c-0.2-0.3-0.6-0.6-1.1-0.8C129.9,108.6,129.1,108.9,128.4,109.1z"/>
	<path class="st0" d="M132,87.7L132,87.7C132,87.7,132,87.7,132,87.7C132,87.7,132,87.7,132,87.7z"/>
	<path class="st0" d="M101.7,97.6L101.7,97.6C101.7,97.6,101.7,97.6,101.7,97.6C101.7,97.6,101.7,97.6,101.7,97.6z"/>
	<path class="st0" d="M110.6,106.5L110.6,106.5C110.6,106.5,110.5,106.5,110.6,106.5C110.5,106.5,110.6,106.5,110.6,106.5z"/>
	<path class="st1" d="M108.1,45.1c-0.4-0.8-0.9-1.5-1.4-2.2c-0.5,0.1-1,0.3-1.4,0.4c0.4,0.6,0.8,1.2,1.1,1.8H108.1z"/>
	<path class="st0" d="M128.7,87.7c-2.1-0.8-5.1-1.4-8.9-1.6c0,1.1,0.1,2.1,0.1,3.2C123.5,89.1,126.6,88.5,128.7,87.7z"/>
	<path class="st1" d="M118.3,89.4c0.5,0,1,0,1.5-0.1c0-1.1,0-2.1-0.1-3.2c-0.5,0-1,0-1.5-0.1C118.3,87.2,118.3,88.3,118.3,89.4z"/>
	<path class="st0" d="M128.7,92.7c-2.1-0.8-5.1-1.4-8.9-1.6c0,1.1-0.1,2.1-0.2,3.2C123.4,94,126.5,93.4,128.7,92.7z"/>
	<path class="st1" d="M118.1,94.3c0.5,0,1,0,1.5-0.1c0.1-1,0.1-2.1,0.2-3.2c-0.5,0-1-0.1-1.5-0.1C118.2,92.1,118.2,93.2,118.1,94.3z
		"/>
	<path class="st0" d="M108.7,100c-2.1-0.4-4-0.9-5.5-1.6c-0.3,0.2-0.5,0.3-0.7,0.5c2,0.3,3.9,0.7,5.4,1.3
		C108.1,100.1,108.4,100.1,108.7,100z"/>
	<path class="st0" d="M128.7,97.6c-2.2-0.8-5.3-1.4-9.2-1.6c-0.1,1.1-0.3,2.2-0.5,3.2C123.1,99,126.4,98.4,128.7,97.6z"/>
	<path class="st1" d="M117.4,99.2c0.5,0,1,0,1.5,0c0.2-1.1,0.3-2.1,0.5-3.2c-0.5,0-1,0-1.5-0.1C117.8,97.1,117.6,98.2,117.4,99.2z"
		/>
	<path class="st0" d="M128.6,77.9c-2.3-0.8-5.6-1.5-9.8-1.6c0.2,1.1,0.3,2.1,0.4,3.2C123.2,79.3,126.5,78.7,128.6,77.9z"/>
	<path class="st1" d="M117.7,79.5c0.5,0,1,0,1.5,0c-0.1-1.1-0.3-2.2-0.4-3.2c-0.5,0-1,0-1.5,0C117.5,77.3,117.6,78.4,117.7,79.5z"/>
	<path class="st0" d="M130.5,47.5c0.5-0.3,0.9-0.6,1.1-0.9h-3.4C129.1,46.8,129.8,47.1,130.5,47.5z"/>
	<path class="st0" d="M110.6,111.4L110.6,111.4C110.6,111.4,110.5,111.4,110.6,111.4C110.5,111.4,110.6,111.4,110.6,111.4z"/>
	<path class="st0" d="M101.7,100.3c0.1,0.4,0.6,0.9,1.4,1.4c0.6-0.3,1.2-0.5,1.9-0.7C104.1,100.7,103,100.5,101.7,100.3z"/>
	<path class="st0" d="M128.7,82.8c-2.2-0.8-5.3-1.4-9.3-1.6c0.1,1.1,0.2,2.1,0.2,3.2C123.5,84.2,126.5,83.6,128.7,82.8z"/>
	<path class="st1" d="M118.1,84.4c0.5,0,1,0,1.5-0.1c-0.1-1.1-0.1-2.1-0.2-3.2c-0.5,0-1,0-1.5-0.1C118,82.2,118.1,83.3,118.1,84.4z"
		/>
	<path class="st0" d="M116.8,54.9c5.2,0,9.2-0.7,11.8-1.7c-2.6-0.9-6.7-1.7-11.8-1.7c-1.9,0-3.6,0.1-5.2,0.3c0.4,1,0.9,1.9,1.3,2.9
		C114.2,54.8,115.5,54.9,116.8,54.9z"/>
	<path class="st1" d="M111.4,54.6c0.5,0.1,1,0.1,1.6,0.2c-0.4-1-0.8-2-1.3-2.9c-0.5,0.1-1,0.1-1.5,0.2
		C110.6,52.9,111,53.7,111.4,54.6z"/>
	<path class="st1" d="M108.9,49.3c0.5,0.1,1.1,0.2,1.7,0.3c-0.4-0.8-0.8-1.6-1.2-2.3c-0.5,0.1-1,0.2-1.4,0.3
		C108.2,48.1,108.5,48.7,108.9,49.3z"/>
	<path class="st0" d="M104.4,108.8c-0.3,0.1-0.5,0.1-0.8,0.2c0.3,0,0.5,0.1,0.8,0.1h1C105,109,104.7,108.9,104.4,108.8z"/>
	<path class="st0" d="M128.7,68c-2.6-0.9-6.7-1.7-11.8-1.7c0.3,1.1,0.6,2.2,0.8,3.3C122.4,69.6,126.2,68.9,128.7,68z"/>
	<path class="st1" d="M115.4,66.4c0.3,1.1,0.6,2.2,0.8,3.3c0.2,0,0.5,0,0.7,0c0.3,0,0.5,0,0.8,0c-0.2-1.1-0.5-2.2-0.8-3.3
		c0,0,0,0,0,0C116.3,66.3,115.8,66.4,115.4,66.4z"/>
	<path class="st0" d="M128.7,72.9c-2.4-0.9-6.1-1.6-10.7-1.6c0.2,1.1,0.4,2.2,0.6,3.3C122.9,74.4,126.3,73.8,128.7,72.9z"/>
	<path class="st1" d="M116.5,71.3c0.2,1.1,0.4,2.2,0.6,3.3c0.5,0,1,0,1.5,0c-0.2-1.1-0.4-2.2-0.6-3.3c-0.4,0-0.7,0-1.1,0
		C116.7,71.3,116.6,71.3,116.5,71.3z"/>
	<path class="st0" d="M116.8,59.8c5.2,0,9.2-0.7,11.8-1.7c-2.6-0.9-6.7-1.7-11.8-1.7c-1.1,0-2.2,0-3.2,0.1c0.4,1.1,0.8,2.1,1.2,3.2
		C115.5,59.8,116.2,59.8,116.8,59.8z"/>
	<path class="st1" d="M113.3,59.7c0.5,0,1,0.1,1.5,0.1c-0.4-1.1-0.8-2.1-1.2-3.2c-0.5,0-1,0.1-1.5,0.1
		C112.6,57.7,113,58.7,113.3,59.7z"/>
	<path class="st0" d="M116.8,64.8c5.2,0,9.2-0.7,11.8-1.7c-2.6-0.9-6.7-1.7-11.8-1.7c-0.5,0-1,0-1.4,0c0.4,1.1,0.7,2.2,1,3.3
		C116.5,64.7,116.7,64.8,116.8,64.8z"/>
	<path class="st1" d="M114.9,64.7c0.5,0,1,0,1.5,0c-0.3-1.1-0.6-2.2-1-3.3c-0.5,0-1,0-1.5,0.1C114.3,62.6,114.6,63.6,114.9,64.7z"/>
	<path class="st0" d="M130.5,49.1c-1.5,0.7-3.4,1.2-5.5,1.6c2.1,0.4,4,0.9,5.5,1.6c0.9-0.5,1.5-1.1,1.5-1.6S131.5,49.7,130.5,49.1z"
		/>
	<path class="st0" d="M132,58.2L132,58.2C132,58.1,132,58.2,132,58.2C132,58.2,132,58.2,132,58.2z"/>
	<path class="st0" d="M130.5,54.1c-1.5,0.7-3.4,1.2-5.5,1.6c2.1,0.4,4,0.9,5.5,1.6c0.9-0.5,1.5-1.1,1.5-1.6S131.5,54.6,130.5,54.1z"
		/>
	<path class="st0" d="M132,53.2L132,53.2C132,53.2,132,53.2,132,53.2C132,53.2,132,53.2,132,53.2z"/>
	<path class="st0" d="M130.5,59c-1.5,0.7-3.4,1.2-5.5,1.6c2.1,0.4,4,0.9,5.5,1.6c0.9-0.5,1.5-1.1,1.5-1.6
		C132,60.1,131.5,59.5,130.5,59z"/>
	<path class="st0" d="M132,63.1L132,63.1C132,63.1,132,63.1,132,63.1C132,63.1,132,63.1,132,63.1z"/>
	<path class="st0" d="M132,48.3L132,48.3C132,48.3,132,48.3,132,48.3C132,48.3,132,48.3,132,48.3z"/>
	<path class="st1" d="M132,53.2L132,53.2c0.9,0.7,1.5,1.6,1.5,2.5v-4.9C133.5,51.7,132.9,52.5,132,53.2z"/>
	<path class="st1" d="M115.5,110.6h1.4C116.4,110.6,115.9,110.6,115.5,110.6C115.5,110.6,115.5,110.6,115.5,110.6z"/>
	<path class="st1" d="M113.9,110.5c0,0,0,0.1,0,0.1h1.6c0,0,0,0,0,0C114.9,110.6,114.4,110.5,113.9,110.5z"/>
	<path class="st1" d="M132,92.6L132,92.6c0.9,0.7,1.5,1.6,1.5,2.5v-4.9C133.5,91.1,132.9,91.9,132,92.6z"/>
	<path class="st1" d="M132,48.3L132,48.3c0.9,0.7,1.5,1.6,1.5,2.5v-4.9C133.5,46.8,132.9,47.6,132,48.3z"/>
	<path class="st1" d="M132,97.6L132,97.6c0.9,0.7,1.5,1.6,1.5,2.5v-4.9C133.5,96,132.9,96.9,132,97.6z"/>
	<path class="st1" d="M132,102.5L132,102.5c0.9,0.7,1.5,1.6,1.5,2.5V100C133.5,101,132.9,101.8,132,102.5z"/>
	<path class="st1" d="M132,72.9L132,72.9c0.9,0.7,1.5,1.6,1.5,2.5v-4.9C133.5,71.4,132.9,72.2,132,72.9z"/>
	<path class="st1" d="M132,58.1L132,58.1c0.9,0.7,1.5,1.6,1.5,2.5v-4.9C133.5,56.6,132.9,57.4,132,58.1z"/>
	<path class="st1" d="M107.1,46.2c0.5-0.1,0.9-0.2,1.4-0.3c-0.1-0.3-0.3-0.5-0.5-0.8h-1.6C106.7,45.4,106.9,45.8,107.1,46.2z"/>
	<path class="st1" d="M132,63.1L132,63.1c0.9,0.7,1.5,1.6,1.5,2.5v-4.9C133.5,61.5,132.9,62.4,132,63.1z"/>
	<path class="st1" d="M132,68L132,68c0.9,0.7,1.5,1.6,1.5,2.5v-4.9C133.5,66.5,132.9,67.3,132,68z"/>
	<path class="st1" d="M132,107.4L132,107.4c0.9,0.7,1.5,1.6,1.5,2.5V105C133.5,105.9,132.9,106.7,132,107.4z"/>
	<path class="st1" d="M132,82.8L132,82.8c0.9,0.7,1.5,1.6,1.5,2.5v-4.9C133.5,81.3,132.9,82.1,132,82.8z"/>
	<path class="st1" d="M132,77.8L132,77.8c0.9,0.7,1.5,1.6,1.5,2.5v-4.9C133.5,76.3,132.9,77.1,132,77.8z"/>
	<path class="st1" d="M132,87.7L132,87.7c0.9,0.7,1.5,1.6,1.5,2.5v-4.9C133.5,86.2,132.9,87,132,87.7z"/>
	<path class="st1" d="M116.8,114c-1.1,0-2.1,0-3-0.1c-0.3,0.5-0.5,1-0.8,1.4c1.3,0.1,2.5,0.2,3.8,0.2c7.5,0,15.5-1.7,16.5-4.9h-1.7
		C130.4,112.2,125,114,116.8,114z"/>
	<path class="st1" d="M112.1,113.9v0.2c0-0.1,0.1-0.1,0.1-0.2C112.1,113.8,112.1,113.8,112.1,113.9L112.1,113.9z"/>
	<path class="st1" d="M112.2,113.8c0,0.1-0.1,0.1-0.1,0.2v1.3c0.3,0,0.6,0,1,0.1c0.3-0.5,0.5-0.9,0.8-1.4
		C113.3,113.9,112.7,113.9,112.2,113.8z"/>
	<path class="st1" d="M115.8,105.7c0,0,0,0.1,0,0.1c0.4,0,0.7,0,1.1,0c0.2,0,0.3,0,0.5,0c0,0,0-0.1,0-0.1c-0.2,0-0.3,0-0.5,0
		C116.5,105.7,116.1,105.7,115.8,105.7z"/>
	<path class="st1" d="M116.1,109.1h0.7C116.6,109.1,116.4,109.1,116.1,109.1C116.1,109.1,116.1,109.1,116.1,109.1z"/>
	<path class="st1" d="M114.5,109.1C114.5,109.1,114.5,109.1,114.5,109.1l1.6,0.1c0,0,0,0,0,0C115.6,109.1,115,109.1,114.5,109.1z"/>
	<path class="st1" d="M117.1,100.8c0.5,0,1,0,1.5,0c0-0.1,0-0.1,0-0.2C118.1,100.7,117.6,100.7,117.1,100.8
		C117.1,100.8,117.1,100.8,117.1,100.8z"/>
	<path class="st1" d="M116.8,109.1h11.5c0.8-0.2,1.5-0.5,2.2-0.8c-0.5-0.3-1.1-0.6-1.9-0.8C126,108.4,122,109.1,116.8,109.1z"/>
	<path class="st1" d="M130.5,106.6c0.5,0.3,1,0.5,1.4,0.8c0,0,0,0,0,0V105C132,105.5,131.5,106.1,130.5,106.6z"/>
	<path class="st1" d="M116.1,109.1c-0.2,0.5-0.4,1-0.6,1.5c0.5,0,0.9,0,1.4,0c4.1,0,8.3-0.5,11.5-1.5h-11.5H116.1z"/>
	<path class="st1" d="M113.9,110.5c0.5,0,1.1,0.1,1.6,0.1c0.2-0.5,0.4-1,0.6-1.5h-1.6C114.3,109.6,114.1,110,113.9,110.5z"/>
	<path class="st1" d="M132,102.5v2.4v2.4c0.9-0.7,1.5-1.5,1.5-2.4S132.9,103.2,132,102.5z"/>
	<path class="st1" d="M130.5,108.3c0.5-0.3,1-0.5,1.4-0.8c-0.4-0.3-0.9-0.6-1.4-0.8c-0.5,0.3-1.1,0.6-1.9,0.8
		C129.4,107.7,130,108,130.5,108.3z"/>
	<path class="st1" d="M117.8,104.2c0,0,0,0.1,0,0.1c2.5,0,5,0.3,7.3,0.7c2.1-0.4,4-0.9,5.5-1.6c-0.5-0.3-1.1-0.6-1.9-0.8
		C126.2,103.4,122.5,104.1,117.8,104.2z"/>
	<path class="st1" d="M116.2,104.2c0,0,0,0.1,0,0.1c0.2,0,0.4,0,0.6,0c0.3,0,0.6,0,0.9,0c0,0,0-0.1,0-0.1c-0.3,0-0.6,0-0.9,0
		C116.6,104.2,116.4,104.2,116.2,104.2z"/>
	<path class="st1" d="M117.9,95.9c0.5,0,1,0,1.5,0.1c0-0.1,0-0.2,0-0.2c-0.5,0-1,0-1.5,0.1C117.9,95.8,117.9,95.9,117.9,95.9z"/>
	<path class="st1" d="M130.5,101.7c0.5,0.3,1,0.5,1.4,0.8c0,0,0,0,0,0V100C132,100.6,131.5,101.1,130.5,101.7z"/>
	<path class="st1" d="M132,97.6v2.4v2.4c0.9-0.7,1.5-1.5,1.5-2.4S132.9,98.3,132,97.6z"/>
	<path class="st1" d="M117.3,105.7c2.6,0,5.3-0.3,7.7-0.7c-2.3-0.4-4.8-0.6-7.3-0.7C117.6,104.8,117.5,105.2,117.3,105.7z"/>
	<path class="st1" d="M116.2,104.3c-0.1,0.5-0.3,0.9-0.4,1.4c0.4,0,0.7,0,1.1,0c0.2,0,0.3,0,0.5,0c0.1-0.5,0.3-0.9,0.4-1.4
		c-0.3,0-0.6,0-0.9,0C116.6,104.3,116.4,104.3,116.2,104.3z"/>
	<path class="st1" d="M130.5,103.3c0.5-0.3,1-0.5,1.4-0.8c-0.4-0.3-0.9-0.6-1.4-0.8c-0.5,0.3-1.1,0.6-1.9,0.8
		C129.4,102.8,130,103.1,130.5,103.3z"/>
	<path class="st1" d="M118.9,99.2c0,0.1,0,0.1,0,0.2c2.1,0.1,4.2,0.3,6.1,0.7c2.1-0.4,4-0.9,5.5-1.6c-0.5-0.3-1.1-0.6-1.9-0.8
		C126.4,98.4,123.1,99,118.9,99.2z"/>
	<path class="st1" d="M117.4,99.4c0.5,0,1,0,1.5,0c0-0.1,0-0.1,0-0.2c-0.5,0-1,0-1.5,0C117.4,99.3,117.4,99.3,117.4,99.4z"/>
	<path class="st1" d="M118.3,91c0.5,0,1,0,1.5,0.1c0-0.1,0-0.2,0-0.3c-0.5,0-1,0.1-1.5,0.1C118.3,90.9,118.3,91,118.3,91z"/>
	<path class="st1" d="M130.5,96.7c0.5,0.3,1,0.5,1.4,0.8c0,0,0,0,0,0v-2.4C132,95.6,131.5,96.2,130.5,96.7z"/>
	<path class="st1" d="M132,92.7v2.4v2.4c0.9-0.7,1.5-1.5,1.5-2.4S132.9,93.4,132,92.7z"/>
	<path class="st1" d="M118.6,100.7c2.2-0.1,4.4-0.3,6.4-0.7c-1.9-0.3-4-0.6-6.1-0.7C118.8,99.8,118.7,100.3,118.6,100.7z"/>
	<path class="st1" d="M117.1,100.7c0.5,0,1,0,1.5,0c0.1-0.4,0.2-0.9,0.3-1.3c-0.5,0-1,0-1.5,0C117.3,99.8,117.2,100.3,117.1,100.7z"
		/>
	<path class="st1" d="M130.5,98.4c0.5-0.3,1-0.5,1.4-0.8c-0.4-0.3-0.9-0.6-1.4-0.8c-0.5,0.3-1.1,0.6-1.9,0.8
		C129.4,97.9,130,98.1,130.5,98.4z"/>
	<path class="st1" d="M118.2,86.1c0.5,0,1,0,1.5,0.1c0-0.1,0-0.2,0-0.3c-0.5,0-1,0.1-1.5,0.1C118.2,86,118.2,86,118.2,86.1z"/>
	<path class="st1" d="M130.5,91.8c0.5,0.3,1,0.5,1.4,0.8c0,0,0,0,0,0v-2.4C132,90.7,131.5,91.3,130.5,91.8z"/>
	<path class="st1" d="M119.6,94.2c0,0.1,0,0.2,0,0.3c1.9,0.1,3.7,0.3,5.5,0.6c2.1-0.4,4-0.9,5.5-1.6c-0.5-0.3-1.1-0.6-1.9-0.8
		C126.5,93.4,123.4,94,119.6,94.2z"/>
	<path class="st1" d="M118.1,94.4c0.5,0,1,0,1.5,0.1c0-0.1,0-0.2,0-0.3c-0.5,0-1,0-1.5,0.1C118.1,94.3,118.1,94.4,118.1,94.4z"/>
	<path class="st1" d="M132,87.7v2.4v2.4c0.9-0.7,1.5-1.5,1.5-2.4S132.9,88.5,132,87.7z"/>
	<path class="st1" d="M119.4,95.7c1.9-0.1,3.8-0.3,5.6-0.6c-1.7-0.3-3.6-0.5-5.5-0.6C119.5,94.9,119.5,95.3,119.4,95.7z"/>
	<path class="st1" d="M117.9,95.8c0.5,0,1,0,1.5-0.1c0-0.4,0.1-0.8,0.1-1.2c-0.5,0-1,0-1.5-0.1C118,94.9,118,95.3,117.9,95.8z"/>
	<path class="st1" d="M130.5,93.5c0.5-0.3,1-0.5,1.4-0.8c-0.4-0.3-0.9-0.6-1.4-0.8c-0.5,0.3-1.1,0.6-1.9,0.8
		C129.4,92.9,130,93.2,130.5,93.5z"/>
	<path class="st1" d="M117.9,81.2c0.5,0,1,0,1.5,0.1c0-0.1,0-0.2,0-0.2c-0.5,0-1,0-1.5,0.1C117.9,81.1,117.9,81.1,117.9,81.2z"/>
	<path class="st1" d="M119.8,89.3c0,0.1,0,0.2,0,0.3v0c1.8,0.1,3.6,0.3,5.2,0.6c2.1-0.4,4-0.9,5.5-1.6c-0.5-0.3-1.1-0.6-1.9-0.8
		C126.6,88.5,123.5,89.1,119.8,89.3z"/>
	<path class="st1" d="M118.3,89.5c0.5,0,1,0,1.5,0.1v0c0-0.1,0-0.2,0-0.3c-0.5,0-1,0.1-1.5,0.1C118.3,89.4,118.3,89.5,118.3,89.5z"
		/>
	<path class="st1" d="M130.5,86.9c0.5,0.3,1,0.5,1.4,0.8c0,0,0,0,0,0v-2.4C132,85.8,131.5,86.3,130.5,86.9z"/>
	<path class="st1" d="M132,82.8v2.4v2.4c0.9-0.7,1.5-1.5,1.5-2.4S132.9,83.5,132,82.8z"/>
	<path class="st1" d="M119.8,90.1c0,0.2,0,0.4,0,0.7c1.8-0.1,3.6-0.3,5.3-0.6c-1.6-0.3-3.4-0.5-5.2-0.6V90.1z"/>
	<path class="st1" d="M118.3,89.6v0.5c0,0.2,0,0.5,0,0.7c0.5,0,1,0,1.5-0.1c0-0.2,0-0.4,0-0.7v-0.5
		C119.3,89.6,118.8,89.5,118.3,89.6C118.3,89.5,118.3,89.6,118.3,89.6z"/>
	<path class="st1" d="M130.5,88.6c0.5-0.3,1-0.5,1.4-0.8c-0.4-0.3-0.9-0.6-1.4-0.8c-0.5,0.3-1.1,0.6-1.9,0.8
		C129.4,88,130,88.3,130.5,88.6z"/>
	<path class="st1" d="M130.5,82c0.5,0.3,1,0.5,1.4,0.8c0,0,0,0,0,0v-2.4C132,80.8,131.5,81.4,130.5,82z"/>
	<path class="st1" d="M119.6,84.4c0,0.1,0,0.2,0,0.3c1.9,0.1,3.7,0.3,5.4,0.6c2.1-0.4,4-0.9,5.5-1.6c-0.5-0.3-1.1-0.6-1.9-0.8
		C126.5,83.6,123.5,84.2,119.6,84.4z"/>
	<path class="st1" d="M118.1,84.6c0.5,0,1,0,1.5,0.1c0-0.1,0-0.2,0-0.3c-0.5,0-1,0-1.5,0.1C118.1,84.5,118.1,84.5,118.1,84.6z"/>
	<path class="st1" d="M117.3,76.2c0.5,0,1,0,1.5,0c0-0.1,0-0.1,0-0.2c-0.5,0-1,0-1.5,0C117.3,76.1,117.3,76.2,117.3,76.2z"/>
	<path class="st1" d="M132,77.9v2.4v2.4c0.9-0.7,1.5-1.5,1.5-2.4S132.9,78.6,132,77.9z"/>
	<path class="st1" d="M119.7,85.9c1.8-0.1,3.6-0.3,5.3-0.6c-1.7-0.3-3.5-0.5-5.4-0.6C119.7,85.1,119.7,85.5,119.7,85.9z"/>
	<path class="st1" d="M118.2,85.9c0.5,0,1,0,1.5-0.1c0-0.4,0-0.8-0.1-1.2c-0.5,0-1,0-1.5-0.1C118.2,85,118.2,85.5,118.2,85.9z"/>
	<path class="st1" d="M130.5,83.6c0.5-0.3,1-0.5,1.4-0.8c-0.4-0.3-0.9-0.6-1.4-0.8c-0.5,0.3-1.1,0.6-1.9,0.8
		C129.4,83.1,130,83.3,130.5,83.6z"/>
	<path class="st1" d="M116.5,71.2c0,0,0,0.1,0,0.1c0.1,0,0.2,0,0.4,0c0.4,0,0.8,0,1.1,0c0,0,0-0.1,0-0.1c-0.4,0-0.7,0-1.1,0
		C116.7,71.2,116.6,71.2,116.5,71.2z"/>
	<path class="st1" d="M119.2,79.5c0,0.1,0,0.1,0,0.2c2,0.1,3.9,0.3,5.7,0.6c2.1-0.4,4-0.9,5.5-1.6c-0.5-0.3-1.1-0.6-1.9-0.8
		C126.5,78.7,123.2,79.3,119.2,79.5z"/>
	<path class="st1" d="M117.8,79.7c0.5,0,1,0,1.5,0c0-0.1,0-0.1,0-0.2c-0.5,0-1,0-1.5,0C117.8,79.6,117.8,79.6,117.8,79.7z"/>
	<path class="st1" d="M130.5,77c0.5,0.3,1,0.5,1.4,0.8c0,0,0,0,0,0v-2.4C132,75.9,131.5,76.5,130.5,77z"/>
	<path class="st1" d="M132,73v2.4v2.4c0.9-0.7,1.5-1.5,1.5-2.4S132.9,73.7,132,73z"/>
	<path class="st1" d="M119.4,81c1.9-0.1,3.9-0.3,5.6-0.6c-1.8-0.3-3.8-0.5-5.7-0.6C119.3,80.1,119.3,80.5,119.4,81z"/>
	<path class="st1" d="M117.9,81c0.5,0,1,0,1.5-0.1c0-0.4-0.1-0.8-0.1-1.3c-0.5,0-1,0-1.5,0C117.8,80.1,117.8,80.6,117.9,81z"/>
	<path class="st1" d="M130.5,78.7c0.5-0.3,1-0.5,1.4-0.8c-0.4-0.3-0.9-0.6-1.4-0.8c-0.5,0.3-1.1,0.6-1.9,0.8
		C129.4,78.1,130,78.4,130.5,78.7z"/>
	<path class="st1" d="M115.4,66.4c0.5,0,1,0,1.5,0c0,0,0,0,0,0c0,0,0-0.1,0-0.1c-0.5,0-1,0-1.5,0C115.3,66.3,115.3,66.3,115.4,66.4z
		"/>
	<path class="st1" d="M130.5,72.1c0.5,0.3,1,0.5,1.4,0.8c0,0,0,0,0,0v-2.4C132,71,131.5,71.6,130.5,72.1z"/>
	<path class="st1" d="M118.6,74.6c0,0.1,0,0.1,0,0.2c2.2,0.1,4.4,0.3,6.4,0.7c2.1-0.4,4-0.9,5.5-1.6c-0.5-0.3-1.1-0.6-1.9-0.8
		C126.3,73.8,122.9,74.4,118.6,74.6z"/>
	<path class="st1" d="M117.1,74.7c0.5,0,1,0,1.5,0c0-0.1,0-0.1,0-0.2c-0.5,0-1,0-1.5,0C117.1,74.6,117.1,74.7,117.1,74.7z"/>
	<path class="st1" d="M132,68v2.4v2.4c0.9-0.7,1.5-1.5,1.5-2.4S132.9,68.7,132,68z"/>
	<path class="st1" d="M118.8,76.1c2.1-0.1,4.3-0.3,6.2-0.7c-2-0.4-4.2-0.6-6.4-0.7C118.7,75.2,118.7,75.6,118.8,76.1z"/>
	<path class="st1" d="M117.3,76.1c0.5,0,1,0,1.5,0c-0.1-0.4-0.1-0.9-0.2-1.3c-0.5,0-1,0-1.5,0C117.2,75.2,117.3,75.6,117.3,76.1z"/>
	<path class="st1" d="M130.5,73.8c0.5-0.3,1-0.5,1.4-0.8c-0.4-0.3-0.9-0.6-1.4-0.8c-0.5,0.3-1.1,0.6-1.9,0.8
		C129.4,73.2,130,73.5,130.5,73.8z"/>
	<path class="st1" d="M113.9,61.5c0.5,0,1,0,1.5-0.1c0,0,0-0.1,0-0.1c-0.5,0-1,0-1.5-0.1C113.9,61.3,113.9,61.4,113.9,61.5z"/>
	<path class="st1" d="M117.6,69.7c0,0,0,0.1,0,0.1c2.5,0,5.1,0.3,7.4,0.7c2.1-0.4,4-0.9,5.5-1.6c-0.5-0.3-1.1-0.6-1.9-0.8
		C126.2,68.9,122.4,69.6,117.6,69.7z"/>
	<path class="st1" d="M116.1,69.7c0,0,0,0.1,0,0.1c0.2,0,0.4,0,0.7,0c0.3,0,0.6,0,0.8,0c0,0,0-0.1,0-0.1c-0.3,0-0.5,0-0.8,0
		C116.6,69.7,116.4,69.7,116.1,69.7z"/>
	<path class="st1" d="M130.5,67.2c0.5,0.3,1,0.5,1.4,0.8c0,0,0,0,0,0v-2.4C132,66.1,131.5,66.6,130.5,67.2z"/>
	<path class="st1" d="M132,63.1v2.4V68c0.9-0.7,1.5-1.5,1.5-2.4S132.9,63.8,132,63.1z"/>
	<path class="st1" d="M117.9,71.2c2.4-0.1,4.9-0.3,7.1-0.7c-2.3-0.4-4.8-0.6-7.4-0.7C117.8,70.2,117.8,70.7,117.9,71.2z"/>
	<path class="st1" d="M116.2,69.8c0.1,0.5,0.2,0.9,0.3,1.4c0.1,0,0.3,0,0.4,0c0.4,0,0.7,0,1.1,0c-0.1-0.5-0.2-0.9-0.3-1.4
		c-0.3,0-0.6,0-0.8,0C116.6,69.8,116.4,69.8,116.2,69.8z"/>
	<path class="st1" d="M130.5,68.8c0.5-0.3,1-0.5,1.4-0.8c-0.4-0.3-0.9-0.6-1.4-0.8c-0.5,0.3-1.1,0.6-1.9,0.8
		C129.4,68.3,130,68.6,130.5,68.8z"/>
	<path class="st1" d="M112.2,56.7c0.5,0,1-0.1,1.5-0.1c0-0.1-0.1-0.2-0.1-0.3c-0.5,0-1.1-0.1-1.6-0.1
		C112.1,56.3,112.1,56.5,112.2,56.7z"/>
	<path class="st1" d="M116.8,64.8c-0.2,0-0.3,0-0.4,0c0,0,0,0.1,0,0.1C116.6,64.9,116.7,64.8,116.8,64.8c2.8,0.1,5.6,0.3,8.2,0.8
		c2.1-0.4,4-0.9,5.5-1.6c-0.5-0.3-1.1-0.6-1.9-0.8C126,64,122,64.8,116.8,64.8z"/>
	<path class="st1" d="M114.9,64.9c0.5,0,1,0,1.5,0c0,0,0-0.1,0-0.1c-0.5,0-1,0-1.5,0C114.9,64.8,114.9,64.8,114.9,64.9z"/>
	<path class="st1" d="M130.5,62.2c0.5,0.3,1,0.5,1.4,0.8c0,0,0,0,0,0v-2.4C132,61.1,131.5,61.7,130.5,62.2z"/>
	<path class="st1" d="M132,58.2v2.4v2.4c0.9-0.7,1.5-1.5,1.5-2.4S132.9,58.9,132,58.2z"/>
	<path class="st1" d="M116.4,64.9c0.1,0.5,0.3,0.9,0.4,1.4c0,0,0,0,0,0c2.8,0,5.6-0.2,8.2-0.7c-2.5-0.5-5.4-0.7-8.2-0.7
		C116.7,64.8,116.6,64.9,116.4,64.9z"/>
	<path class="st1" d="M115.3,66.2c0.5,0,1,0,1.5,0c-0.1-0.5-0.3-0.9-0.4-1.4c-0.5,0-1,0-1.5,0C115.1,65.3,115.2,65.8,115.3,66.2z"/>
	<path class="st1" d="M130.5,63.9c0.5-0.3,1-0.5,1.4-0.8c-0.4-0.3-0.9-0.6-1.4-0.8c-0.5,0.3-1.1,0.6-1.9,0.8
		C129.4,63.4,130,63.6,130.5,63.9z"/>
	<path class="st1" d="M116.8,59.8c-0.7,0-1.3,0-2,0c0,0.1,0,0.1,0.1,0.2C115.6,59.9,116.2,59.9,116.8,59.8c2.8,0.1,5.6,0.3,8.2,0.8
		c2.1-0.4,4-0.9,5.5-1.6c-0.5-0.3-1.1-0.6-1.9-0.8C126,59.1,122,59.8,116.8,59.8z"/>
	<path class="st1" d="M113.4,60c0.5,0,1-0.1,1.5-0.1c0-0.1,0-0.1-0.1-0.2c-0.5,0-1,0-1.5-0.1C113.4,59.8,113.4,59.9,113.4,60z"/>
	<path class="st1" d="M110.2,52c0.5-0.1,1-0.1,1.5-0.2c-0.1-0.2-0.2-0.5-0.3-0.7c-0.6-0.1-1.1-0.1-1.7-0.2
		C109.8,51.3,110,51.6,110.2,52z"/>
	<path class="st1" d="M130.5,57.3c0.5,0.3,1,0.5,1.4,0.8c0,0,0,0,0,0v-2.4C132,56.2,131.5,56.8,130.5,57.3z"/>
	<path class="st1" d="M132,53.2v2.4v2.4c0.9-0.7,1.5-1.5,1.5-2.4S132.9,54,132,53.2z"/>
	<path class="st1" d="M114.9,60c0.2,0.4,0.3,0.9,0.4,1.3c0.5,0,1,0,1.5,0c2.8,0,5.6-0.2,8.2-0.7c-2.5-0.5-5.4-0.7-8.2-0.7
		C116.2,59.9,115.6,59.9,114.9,60z"/>
	<path class="st1" d="M113.8,61.2c0.5,0,1,0.1,1.5,0.1c-0.1-0.4-0.3-0.9-0.4-1.3c-0.5,0-1,0.1-1.5,0.1
		C113.6,60.4,113.7,60.8,113.8,61.2z"/>
	<path class="st1" d="M130.5,59c0.5-0.3,1-0.5,1.4-0.8c-0.4-0.3-0.9-0.6-1.4-0.8c-0.5,0.3-1.1,0.6-1.9,0.8
		C129.4,58.4,130,58.7,130.5,59z"/>
	<path class="st1" d="M130.5,52.4c0.5,0.3,1,0.5,1.4,0.8c0,0,0,0,0,0v-2.4C132,51.3,131.5,51.8,130.5,52.4z"/>
	<path class="st1" d="M116.8,54.9c-1.4,0-2.7-0.1-3.9-0.2c0.1,0.1,0.1,0.3,0.2,0.4C114.3,55,115.6,55,116.8,54.9
		c2.8,0.1,5.6,0.3,8.2,0.8c2.1-0.4,4-0.9,5.5-1.6c-0.5-0.3-1.1-0.6-1.9-0.8C126,54.2,122,54.9,116.8,54.9z"/>
	<path class="st1" d="M111.6,55.3c0.5-0.1,1-0.1,1.5-0.1c-0.1-0.1-0.1-0.3-0.2-0.4c-0.5,0-1.1-0.1-1.6-0.2
		C111.4,54.8,111.5,55.1,111.6,55.3z"/>
	<path class="st1" d="M109.3,47.2c-0.1-0.2-0.2-0.4-0.3-0.6h-1.6c0.2,0.3,0.3,0.6,0.5,0.9C108.3,47.4,108.8,47.3,109.3,47.2z"/>
	<path class="st1" d="M132,48.3v2.4v2.4c0.9-0.7,1.5-1.5,1.5-2.4S132.9,49,132,48.3z"/>
	<path class="st1" d="M107.4,46.6h1.6c-0.1-0.2-0.3-0.5-0.4-0.7c-0.5,0.1-1,0.2-1.4,0.3C107.2,46.3,107.3,46.4,107.4,46.6z"/>
	<path class="st1" d="M113.1,55.1c0.2,0.4,0.3,0.8,0.5,1.1c1.1,0.1,2.2,0.1,3.3,0.1c2.8,0,5.6-0.2,8.2-0.7c-2.5-0.5-5.4-0.7-8.2-0.7
		C115.6,55,114.3,55,113.1,55.1z"/>
	<path class="st1" d="M112,56.1c0.5,0.1,1,0.1,1.6,0.1c-0.2-0.4-0.3-0.8-0.5-1.1c-0.5,0-1,0.1-1.5,0.1
		C111.8,55.6,111.9,55.9,112,56.1z"/>
	<path class="st1" d="M130.5,54.1c0.5-0.3,1-0.5,1.4-0.8c-0.4-0.3-0.9-0.6-1.4-0.8c-0.5,0.3-1.1,0.6-1.9,0.8
		C129.4,53.5,130,53.8,130.5,54.1z"/>
	<path class="st1" d="M116.8,41.7c8.1,0,13.5,1.8,14.8,3.4h1.7c-1.1-3.2-9-4.9-16.5-4.9c-3.9,0-7.8,0.5-10.9,1.3
		c0.3,0.4,0.6,0.9,0.9,1.3C109.3,42.2,112.7,41.7,116.8,41.7z"/>
	<path class="st1" d="M105.4,43.3c0.4-0.1,0.9-0.3,1.4-0.4c-0.3-0.4-0.6-0.9-0.9-1.3c-0.5,0.1-0.9,0.3-1.4,0.4
		C104.8,42.4,105.1,42.8,105.4,43.3z"/>
	<path class="st1" d="M116.8,50c-2.3,0-4.4-0.2-6.3-0.4c0.1,0.3,0.3,0.6,0.4,0.9C112.9,50.2,114.9,50.1,116.8,50
		c2.8,0.1,5.6,0.3,8.2,0.8c2.1-0.4,4-0.9,5.5-1.6c-0.5-0.3-1.1-0.6-1.9-0.8C126,49.2,122,50,116.8,50z"/>
	<path class="st1" d="M109.5,50.6c0.5-0.1,1-0.1,1.5-0.2c-0.1-0.3-0.3-0.6-0.4-0.9c-0.6-0.1-1.2-0.2-1.7-0.3
		C109.1,49.7,109.3,50.2,109.5,50.6z"/>
	<path class="st1" d="M132,48.3C132,48.3,132,48.3,132,48.3l0-1.7h-0.3c-0.2,0.3-0.6,0.6-1.1,0.9C131.1,47.7,131.5,48,132,48.3z"/>
	<path class="st1" d="M131.6,45.1c0.2,0.3,0.3,0.5,0.3,0.8s-0.1,0.5-0.3,0.8h0.3v1.7c0.9-0.7,1.5-1.5,1.5-2.4c0-0.3-0.1-0.5-0.1-0.8
		H131.6z"/>
	<path class="st1" d="M111,50.4c0.1,0.2,0.2,0.5,0.4,0.7c1.8,0.2,3.7,0.3,5.5,0.3c2.8,0,5.6-0.2,8.2-0.7c-2.5-0.5-5.4-0.7-8.2-0.7
		C114.9,50.1,112.9,50.2,111,50.4z"/>
	<path class="st1" d="M109.7,50.9c0.5,0.1,1.1,0.2,1.7,0.2c-0.1-0.2-0.2-0.5-0.4-0.7c-0.5,0.1-1,0.1-1.5,0.2
		C109.6,50.7,109.6,50.8,109.7,50.9z"/>
	<path class="st1" d="M130.5,49.1c0.5-0.3,1-0.5,1.4-0.8c-0.4-0.3-0.9-0.6-1.4-0.8c-0.5,0.3-1.1,0.6-1.9,0.8
		C129.4,48.6,130,48.8,130.5,49.1z"/>
	<path class="st1" d="M110.6,116.4C110.6,116.4,110.6,116.4,110.6,116.4c0.1,0,0.2-0.1,0.2-0.2C110.7,116.2,110.6,116.3,110.6,116.4
		L110.6,116.4z"/>
	<path class="st1" d="M112.1,118.8v-1.9c-0.1,0.2-0.3,0.4-0.4,0.6C111.9,117.9,112.1,118.4,112.1,118.8z"/>
	<path class="st1" d="M111.6,115.3c-0.2,0.3-0.5,0.6-0.8,0.9c-0.1,0.1-0.1,0.2-0.2,0.3c0.5,0.3,0.8,0.7,1.1,1.1
		c0.1-0.2,0.3-0.4,0.4-0.6v-1.6C111.9,115.3,111.8,115.3,111.6,115.3z"/>
	<path class="st1" d="M110.6,121.3L110.6,121.3c0.9,0.7,1.5,1.6,1.5,2.5v-4.9C112.1,119.7,111.5,120.6,110.6,121.3z"/>
	<path class="st1" d="M110.6,126.2L110.6,126.2c0.9,0.7,1.5,1.6,1.5,2.5v-4.9C112.1,124.7,111.5,125.5,110.6,126.2z"/>
	<path class="st1" d="M110.6,131.1L110.6,131.1c0.9,0.7,1.5,1.6,1.5,2.5v-4.9C112.1,129.6,111.5,130.4,110.6,131.1z"/>
	<path class="st1" d="M110.6,106.5L110.6,106.5c0.9,0.7,1.5,1.5,1.5,2.4c0,0,0,0,0,0V106c-0.4,0-0.7,0.1-1.1,0.1
		C110.8,106.2,110.7,106.4,110.6,106.5z"/>
	<path class="st1" d="M110.6,111.4L110.6,111.4c0.9,0.7,1.5,1.5,1.5,2.4c0,0,0,0,0,0v-3.2h-0.7C111.2,110.9,110.9,111.2,110.6,111.4
		z"/>
	<path class="st1" d="M111.6,110.3c-0.1,0.1-0.1,0.2-0.2,0.3h0.7v-0.2C111.9,110.4,111.8,110.3,111.6,110.3z"/>
	<path class="st1" d="M111,106.1c0.4,0,0.7-0.1,1.1-0.1v-0.5c-0.1,0-0.3,0-0.4,0C111.5,105.7,111.2,105.9,111,106.1z"/>
	<path class="st1" d="M112,114.1C112.1,114.1,112.1,114.1,112,114.1l0-0.2C112.1,114,112.1,114,112,114.1z"/>
	<path class="st1" d="M111.6,115.3c0.1,0,0.3,0,0.4,0V114c0,0,0,0,0,0C112,114.5,111.9,114.9,111.6,115.3z"/>
	<path class="st1" d="M112.1,113.9L112.1,113.9C112.1,113.8,112.1,113.8,112.1,113.9C112,113.8,112.1,113.9,112.1,113.9z"/>
	<path class="st1" d="M112,109.1L112,109.1l0-0.1C112.1,109,112,109.1,112,109.1z"/>
	<path class="st1" d="M112.1,109L112.1,109C112.1,108.9,112.1,108.9,112.1,109C112,108.9,112.1,108.9,112.1,109z"/>
	<path class="st1" d="M112,109.1c0,0.4-0.2,0.8-0.4,1.2c0.1,0,0.3,0,0.4,0L112,109.1L112,109.1z"/>
	<path class="st1" d="M112.1,104.5V104C112.1,104.2,112,104.4,112.1,104.5C112,104.5,112,104.5,112.1,104.5z"/>
	<path class="st1" d="M112.1,104L112.1,104C112.1,104,112.1,104,112.1,104C112,104,112.1,104,112.1,104z"/>
	<path class="st1" d="M111.6,105.4c0.1,0,0.3,0,0.4,0v-0.9c0,0,0,0-0.1,0C111.9,104.8,111.8,105.1,111.6,105.4z"/>
	<path class="st1" d="M95.4,137.7c-1.9,0-3.7-0.1-5.3-0.3v1.5c1.7,0.2,3.5,0.3,5.3,0.3c7.5,0,15.4-1.7,16.5-4.9h-1.7
		C108.9,135.9,103.5,137.7,95.4,137.7z"/>
	<path class="st1" d="M83.8,131.2v0.2c0.9,0.2,1.7,0.5,2.5,0.8c0.3,0,0.6,0,0.9-0.1C85.9,131.8,84.8,131.5,83.8,131.2z"/>
	<path class="st1" d="M107.2,131.1c-2.6,0.9-6.7,1.7-11.8,1.7c-1.3,0-2.5,0-3.6-0.1c-0.2,0.1-0.4,0.1-0.6,0.2h15.5
		c0.9-0.3,1.6-0.6,2.3-0.9C108.6,131.7,108,131.4,107.2,131.1z"/>
	<path class="st1" d="M87.2,132.1c-0.3,0-0.6,0.1-0.9,0.1c0.5,0.2,1,0.4,1.4,0.7h3.5c0.2-0.1,0.4-0.1,0.6-0.2
		C90.1,132.6,88.6,132.4,87.2,132.1z"/>
	<path class="st1" d="M109.1,130.3c0.5,0.3,1,0.5,1.4,0.8c0,0,0,0,0,0v-2.4C110.6,129.2,110,129.8,109.1,130.3z"/>
	<path class="st1" d="M110.6,126.2v2.4v2.4c0.9-0.7,1.5-1.5,1.5-2.4C112.1,127.7,111.5,126.9,110.6,126.2z"/>
	<path class="st1" d="M106.8,132.9H91.2c-0.9,0.2-1.8,0.4-2.6,0.6c0.2,0.2,0.4,0.3,0.6,0.5c2,0.3,4.1,0.4,6.2,0.4
		C99.5,134.3,103.6,133.8,106.8,132.9z"/>
	<path class="st1" d="M87.8,132.9c0.3,0.2,0.6,0.4,0.9,0.6c0.9-0.1,1.8-0.3,2.6-0.6H87.8z"/>
	<path class="st1" d="M109.1,132c0.5-0.3,1-0.5,1.4-0.8c-0.4-0.3-0.9-0.6-1.4-0.8c-0.5,0.3-1.1,0.6-1.9,0.8
		C108,131.4,108.6,131.7,109.1,132z"/>
	<path class="st1" d="M109.1,125.4c0.5,0.3,1,0.5,1.4,0.8c0,0,0,0,0,0v-2.4C110.6,124.3,110,124.8,109.1,125.4z"/>
	<path class="st1" d="M102.5,127.4c-0.4,0.3-0.9,0.6-1.3,1c0.8,0.1,1.7,0.2,2.5,0.4c2.1-0.4,4-0.9,5.5-1.6c-0.5-0.3-1.1-0.6-1.9-0.8
		C106,126.7,104.4,127.1,102.5,127.4z"/>
	<path class="st1" d="M98.7,128.1c0.2-0.1,0.4-0.2,0.6-0.4c-1.2,0.1-2.5,0.1-3.9,0.1c-5,0-9-0.7-11.6-1.6v1.6c1,0.3,2.2,0.6,3.4,0.8
		c2.5-0.5,5.4-0.7,8.2-0.7C96.5,128,97.6,128,98.7,128.1z"/>
	<path class="st1" d="M98.7,128.1c0.8,0.1,1.6,0.1,2.4,0.2c0.5-0.3,0.9-0.6,1.3-1c-1,0.2-2,0.3-3.2,0.4
		C99.1,127.8,98.9,128,98.7,128.1z"/>
	<path class="st1" d="M110.6,121.3v2.4v2.4c0.9-0.7,1.5-1.5,1.5-2.4S111.5,122,110.6,121.3z"/>
	<path class="st1" d="M99.8,129.2c1.3-0.1,2.6-0.3,3.8-0.5c-0.8-0.1-1.6-0.3-2.5-0.4C100.7,128.6,100.3,128.9,99.8,129.2z"/>
	<path class="st1" d="M96.4,129.4c0.8-0.4,1.6-0.8,2.4-1.3c-1.1-0.1-2.2-0.1-3.3-0.1c-2.8,0-5.6,0.2-8.2,0.7
		c2.5,0.5,5.4,0.7,8.2,0.7C95.7,129.4,96.1,129.4,96.4,129.4z"/>
	<path class="st1" d="M96.4,129.4c1.2,0,2.3-0.1,3.4-0.2c0.5-0.3,0.9-0.6,1.3-0.9c-0.8-0.1-1.6-0.2-2.4-0.2
		C98,128.6,97.2,129,96.4,129.4z"/>
	<path class="st1" d="M109.1,127c0.5-0.3,1-0.5,1.4-0.8c-0.4-0.3-0.9-0.6-1.4-0.8c-0.5,0.3-1.1,0.6-1.9,0.8
		C108,126.5,108.6,126.8,109.1,127z"/>
	<path class="st1" d="M110.5,121.3C110.5,121.3,110.6,121.3,110.5,121.3l0-2.2c-0.4,0.5-0.8,1-1.1,1.5
		C109.8,120.8,110.2,121,110.5,121.3z"/>
	<path class="st1" d="M109.1,120.4c0.1,0.1,0.2,0.1,0.3,0.2c0.4-0.5,0.8-1,1.1-1.5v-0.3C110.6,119.3,110,119.9,109.1,120.4z"/>
	<path class="st1" d="M103.6,123.7c0.4-0.1,0.7-0.1,1.1-0.2c0.7-0.7,1.4-1.4,2-2.1c-2.6,0.9-6.5,1.5-11.3,1.5c-5,0-9-0.7-11.6-1.6
		v1.6c1,0.3,2.2,0.6,3.4,0.8c2.5-0.5,5.4-0.7,8.2-0.7S101.1,123.3,103.6,123.7z"/>
	<path class="st1" d="M107.6,122.7c0.5-0.2,1-0.4,1.5-0.6c-0.2-0.1-0.4-0.2-0.7-0.3C108.2,122.1,107.9,122.4,107.6,122.7z"/>
	<path class="st1" d="M107.2,121.3c-0.2,0.1-0.3,0.1-0.5,0.2c-0.7,0.7-1.3,1.4-2,2.1c1-0.2,2-0.5,2.9-0.8c0.3-0.3,0.6-0.6,0.8-0.9
		C108.1,121.6,107.7,121.4,107.2,121.3z"/>
	<path class="st1" d="M110.6,116.5C110.6,116.5,110.6,116.4,110.6,116.5c0-0.1,0-0.1,0-0.1V116.5z"/>
	<path class="st1" d="M110.6,119.1v2.2c0.9-0.7,1.5-1.5,1.5-2.4c0-0.5-0.1-0.9-0.4-1.3C111.3,118.1,110.9,118.6,110.6,119.1z"/>
	<path class="st1" d="M110.6,118.8v0.3c0.4-0.5,0.8-1,1.1-1.6c-0.2-0.4-0.6-0.8-1.1-1.1c0,0,0,0.1-0.1,0.1V118.8z"/>
	<path class="st1" d="M103.6,123.7c-2.5-0.5-5.4-0.7-8.2-0.7s-5.6,0.2-8.2,0.7c2.5,0.5,5.4,0.7,8.2,0.7S101.1,124.2,103.6,123.7z"/>
	<path class="st1" d="M109.1,122.1c0.5-0.3,1-0.5,1.4-0.8c-0.3-0.2-0.7-0.5-1.1-0.7c-0.3,0.4-0.6,0.8-1,1.2
		C108.7,121.9,108.9,122,109.1,122.1z"/>
	<path class="st1" d="M108.4,121.8c0.3-0.4,0.7-0.8,1-1.2c-0.1-0.1-0.2-0.1-0.3-0.2c-0.5,0.3-1.1,0.6-1.9,0.8
		C107.7,121.4,108.1,121.6,108.4,121.8z"/>
	<path class="st1" d="M109.1,115.5c0.5,0.3,1,0.5,1.4,0.8c0,0,0,0,0,0v-1.2c-0.2,0-0.5-0.1-0.7-0.1
		C109.6,115.2,109.4,115.4,109.1,115.5z"/>
	<path class="st1" d="M103.6,118.8c2.1-0.4,4-0.9,5.5-1.6c-0.5-0.3-1.1-0.6-1.9-0.8c-2.6,0.9-6.7,1.7-11.8,1.7c-5,0-9-0.7-11.6-1.6
		v1.6c1,0.3,2.2,0.6,3.4,0.8c2.5-0.5,5.4-0.7,8.2-0.7S101.1,118.4,103.6,118.8z"/>
	<path class="st1" d="M109.8,115c0.2,0,0.5,0.1,0.7,0.1v-1.2C110.6,114.2,110.3,114.6,109.8,115z"/>
	<path class="st1" d="M110.6,113.9v-0.3c0,0,0,0-0.1,0C110.5,113.7,110.6,113.8,110.6,113.9z"/>
	<path class="st1" d="M112,113.8c0-0.9-0.6-1.7-1.5-2.4v2.2C111,113.7,111.5,113.8,112,113.8z"/>
	<path class="st1" d="M110.6,115.1v1.2c0.1-0.1,0.2-0.1,0.2-0.2c0.2-0.3,0.4-0.6,0.6-0.9C111.1,115.2,110.8,115.2,110.6,115.1z"/>
	<path class="st1" d="M110.8,116.1c0.3-0.3,0.6-0.6,0.8-0.9c-0.1,0-0.2,0-0.2,0C111.2,115.5,111,115.8,110.8,116.1z"/>
	<path class="st1" d="M110.6,113.6v0.3v1.2c0.3,0,0.5,0.1,0.8,0.1c0.2-0.4,0.5-0.8,0.7-1.2c0-0.1,0-0.1,0-0.2c0,0,0-0.1,0-0.1
		C111.5,113.8,111,113.7,110.6,113.6z"/>
	<path class="st1" d="M111.4,115.2c0.1,0,0.2,0,0.2,0c0.2-0.4,0.4-0.8,0.4-1.2C111.8,114.5,111.6,114.8,111.4,115.2z"/>
	<path class="st1" d="M103.6,118.8c-2.5-0.5-5.4-0.7-8.2-0.7s-5.6,0.2-8.2,0.7c2.5,0.5,5.4,0.7,8.2,0.7S101.1,119.3,103.6,118.8z"/>
	<path class="st1" d="M109.1,117.2c0.5-0.3,1-0.5,1.4-0.8c-0.4-0.3-0.9-0.6-1.4-0.8c-0.5,0.3-1.1,0.6-1.9,0.8
		C108,116.6,108.6,116.9,109.1,117.2z"/>
	<path class="st1" d="M109.1,110.6c0.5,0.3,1,0.5,1.4,0.8c0,0,0,0,0,0v-0.8H109.1z"/>
	<path class="st1" d="M103.6,113.9c0.3-0.1,0.6-0.1,0.8-0.2c-0.9-0.3-1.7-0.7-2.3-1.1c-2,0.3-4.2,0.5-6.7,0.5
		c-5.2,0-9.2-0.7-11.8-1.7c-0.3,0.1-0.6,0.2-0.9,0.4c0.4,0.4,0.7,0.8,0.9,1.2c1.1,0.4,2.3,0.7,3.6,0.9c2.5-0.5,5.4-0.7,8.2-0.7
		S101.1,113.4,103.6,113.9z"/>
	<path class="st1" d="M104.6,112.2c0.7,0.3,1.6,0.6,2.6,0.8c0.7-0.2,1.3-0.5,1.9-0.7c-0.5-0.3-1.1-0.6-1.9-0.8
		C106.5,111.7,105.6,112,104.6,112.2z"/>
	<path class="st1" d="M109.1,110.6C109.1,110.6,109.1,110.6,109.1,110.6l1.5,0v-0.4c-0.2,0-0.5-0.1-0.7-0.1
		C109.6,110.3,109.4,110.4,109.1,110.6z"/>
	<path class="st1" d="M104.6,112.2c-0.7,0.2-1.6,0.3-2.4,0.4c0.6,0.4,1.4,0.8,2.3,1.1c1-0.2,1.9-0.4,2.8-0.7
		C106.2,112.8,105.3,112.5,104.6,112.2z"/>
	<path class="st1" d="M110.5,109.1L110.5,109.1l0-0.1C110.6,109,110.5,109.1,110.5,109.1z"/>
	<path class="st1" d="M109.8,110.1c0.2,0,0.5,0.1,0.7,0.1v-1.1h0C110.5,109.4,110.2,109.8,109.8,110.1z"/>
	<path class="st1" d="M110.6,111.4c0.3-0.3,0.6-0.5,0.8-0.8h-0.8V111.4z"/>
	<path class="st1" d="M110.6,106.5v2.2c0.5,0.1,1,0.1,1.5,0.2C112,108,111.5,107.2,110.6,106.5z"/>
	<path class="st1" d="M110.6,110.6h0.8c0.1-0.1,0.2-0.2,0.2-0.3c-0.4,0-0.7-0.1-1.1-0.1V110.6z"/>
	<path class="st1" d="M112,108.9c-0.5-0.1-1-0.1-1.5-0.2v0.3v0.1h1.5C112,109.1,112.1,109,112,108.9
		C112.1,108.9,112,108.9,112,108.9z"/>
	<path class="st1" d="M110.6,109.1v1.1c0.3,0,0.7,0.1,1.1,0.1c0.3-0.4,0.4-0.8,0.4-1.2H110.6z"/>
	<path class="st1" d="M103.6,113.9c-2.5-0.5-5.4-0.7-8.2-0.7s-5.6,0.2-8.2,0.7c2.5,0.5,5.4,0.7,8.2,0.7S101.1,114.4,103.6,113.9z"/>
	<path class="st1" d="M107.2,111.4c0.7,0.3,1.4,0.5,1.9,0.8c0.5-0.3,1-0.5,1.4-0.8c-0.4-0.3-0.9-0.6-1.4-0.8h-0.1
		C108.6,110.9,108,111.2,107.2,111.4z"/>
	<path class="st1" d="M109.1,110.6L109.1,110.6C109.1,110.6,109.1,110.6,109.1,110.6C109.1,110.6,109.1,110.6,109.1,110.6z"/>
	<path class="st1" d="M95.4,99.9c1.7,0,3.3,0.1,4.8,0.2V100v-1.4c-1.6-0.2-3.2-0.2-4.8-0.2c-7.6,0-15.7,1.8-16.6,5.1h1.6
		C81.6,101.8,87,99.9,95.4,99.9z"/>
	<path class="st1" d="M100.2,108.5v-0.5c-1.5,0.1-3.1,0.2-4.8,0.2c-5.2,0-9.2-0.7-11.8-1.7c-0.7,0.3-1.4,0.5-1.9,0.8
		c1.5,0.7,3.4,1.2,5.5,1.6c2.5-0.5,5.4-0.7,8.2-0.7C97,108.3,98.6,108.3,100.2,108.5z"/>
	<path class="st1" d="M110.4,103.5h1.6c-0.2-0.8-0.9-1.5-1.8-2.2c-0.9,0.1-1.7,0.3-2.4,0.4C109.1,102.3,110,102.9,110.4,103.5z"/>
	<path class="st1" d="M105.1,100.9c0.9-0.3,1.8-0.5,2.8-0.7c-1.5-0.6-3.4-1-5.4-1.3c-0.5,0.4-0.7,0.8-0.7,1.1c0,0.1,0,0.2,0.1,0.3
		C103,100.5,104.1,100.7,105.1,100.9z"/>
	<path class="st1" d="M105,107.4c0.6,0.2,1.4,0.4,2.2,0.6c0.7-0.2,1.3-0.5,1.9-0.7c-0.4-0.2-0.9-0.4-1.4-0.7
		C106.7,106.9,105.8,107.2,105,107.4z"/>
	<path class="st1" d="M102.4,108.8c0.4,0.1,0.8,0.1,1.2,0.2c0.3-0.1,0.6-0.1,0.8-0.2c-0.5-0.2-0.9-0.3-1.3-0.5
		C102.9,108.4,102.6,108.6,102.4,108.8z"/>
	<path class="st1" d="M110.1,106.2c0.1,0.1,0.3,0.2,0.4,0.3c0,0,0,0,0,0v-0.3C110.4,106.2,110.3,106.2,110.1,106.2z"/>
	<path class="st1" d="M100.2,100L100.2,100C100.2,100.1,100.2,100.1,100.2,100C100.2,100.1,100.2,100.1,100.2,100z"/>
	<path class="st1" d="M100.6,98.7c-0.1,0-0.3,0-0.4,0v1.4C100.2,99.6,100.4,99.1,100.6,98.7z"/>
	<path class="st1" d="M101.3,107.8c-0.4,0-0.7,0.1-1.1,0.1v0.5c0.1,0,0.3,0,0.4,0C100.8,108.3,101,108,101.3,107.8z"/>
	<path class="st1" d="M107.2,106.5c-0.8,0.3-1.7,0.5-2.7,0.8c0.2,0.1,0.3,0.1,0.5,0.2c0.8-0.3,1.7-0.5,2.7-0.8
		C107.6,106.6,107.4,106.6,107.2,106.5z"/>
	<path class="st1" d="M109.1,105.7c0.4,0.2,0.7,0.4,1,0.6c0.1,0,0.3,0,0.4-0.1v-0.9c-0.2,0-0.5-0.1-0.7-0.1
		C109.6,105.3,109.4,105.5,109.1,105.7z"/>
	<path class="st1" d="M103.2,108.3c-0.4-0.2-0.7-0.4-1-0.6c-0.1,0-0.3,0-0.4,0.1v0.9c0.2,0,0.5,0.1,0.7,0.1
		C102.6,108.6,102.9,108.4,103.2,108.3z"/>
	<path class="st1" d="M101.7,107.8c-0.1,0-0.3,0-0.4,0c-0.3,0.2-0.5,0.5-0.6,0.7c0.4,0,0.7,0.1,1.1,0.1V107.8z"/>
	<path class="st1" d="M103.2,108.3c0.4,0.2,0.8,0.4,1.3,0.5c1-0.2,1.9-0.4,2.8-0.7c-0.8-0.2-1.5-0.4-2.2-0.6
		C104.3,107.7,103.7,108,103.2,108.3z"/>
	<path class="st1" d="M107.7,101.7c0.7-0.2,1.6-0.3,2.4-0.4c-0.6-0.4-1.4-0.8-2.3-1.1c-1,0.2-1.9,0.4-2.8,0.7
		C106.1,101.2,107,101.5,107.7,101.7z"/>
	<path class="st1" d="M105,107.4c-0.2-0.1-0.3-0.1-0.5-0.2c-0.7,0.2-1.6,0.3-2.4,0.4c0.3,0.2,0.7,0.4,1,0.6
		C103.7,108,104.3,107.7,105,107.4z"/>
	<path class="st1" d="M101.7,100v0.3c0,0,0,0,0.1,0C101.7,100.2,101.7,100.1,101.7,100z"/>
	<path class="st1" d="M102.4,98.9c-0.2,0-0.5-0.1-0.7-0.1v1.2C101.7,99.7,102,99.3,102.4,98.9z"/>
	<path class="st1" d="M101.7,100.3V100v-1.2c-0.3,0-0.7-0.1-1.1-0.1c-0.3,0.4-0.4,0.9-0.4,1.4c0,0,0,0.1,0,0.1
		C100.7,100.2,101.2,100.2,101.7,100.3z"/>
	<path class="st1" d="M110.6,105.3V105h-0.5c-0.1,0.1-0.1,0.1-0.2,0.2C110.1,105.2,110.3,105.2,110.6,105.3z"/>
	<path class="st1" d="M110.6,106.5c0.2-0.1,0.3-0.2,0.4-0.4c-0.1,0-0.3,0-0.4,0V106.5z"/>
	<path class="st1" d="M110.5,103.8c0.5,0.1,1,0.1,1.5,0.2c0-0.2,0-0.3-0.1-0.5h-1.6C110.4,103.6,110.5,103.7,110.5,103.8z"/>
	<path class="st1" d="M110.6,106.2c0.1,0,0.3,0,0.4,0c0.3-0.2,0.5-0.5,0.6-0.7c-0.4,0-0.7-0.1-1.1-0.1V106.2z"/>
	<path class="st1" d="M110.5,103.8c0,0.1,0.1,0.2,0.1,0.3c0,0.2-0.1,0.4-0.3,0.7c0.6-0.1,1.1-0.1,1.7-0.2c0-0.2,0.1-0.3,0.1-0.5
		c0,0,0-0.1,0-0.1C111.5,103.9,111,103.8,110.5,103.8z"/>
	<path class="st1" d="M110.6,105v0.3c0.3,0,0.7,0.1,1.1,0.1c0.2-0.3,0.3-0.6,0.4-0.9c-0.6,0.1-1.1,0.1-1.7,0.2
		c-0.1,0.1-0.2,0.2-0.2,0.3H110.6z"/>
	<path class="st1" d="M100.2,109.4v-0.9c-1.6-0.2-3.2-0.2-4.8-0.2c-2.8,0-5.6,0.2-8.2,0.7c2.5,0.5,5.4,0.7,8.2,0.7
		C97,109.7,98.6,109.6,100.2,109.4z"/>
	<path class="st1" d="M102.4,108.8c-0.1,0.1-0.3,0.2-0.4,0.3h0.7c0.3,0,0.5-0.1,0.8-0.1C103.2,108.9,102.8,108.8,102.4,108.8z"/>
	<path class="st1" d="M100.6,108.5c-0.1,0-0.3,0-0.4,0v0.9c0,0,0,0,0.1,0C100.3,109.1,100.5,108.8,100.6,108.5z"/>
	<path class="st1" d="M102.1,109.1c0,0-0.1,0.1-0.1,0.1c0.3,0,0.6-0.1,0.8-0.1H102.1z"/>
	<path class="st1" d="M101.7,108.7v0.4h0.4c0.1-0.1,0.2-0.2,0.4-0.3C102.2,108.7,101.9,108.7,101.7,108.7z"/>
	<path class="st1" d="M101.7,109.1v-0.4c-0.3,0-0.7-0.1-1.1-0.1c-0.2,0.3-0.3,0.6-0.4,0.9c0.6-0.1,1.1-0.1,1.7-0.2
		c0,0,0.1-0.1,0.1-0.1H101.7z"/>
	<path class="st1" d="M107.7,106.7c0.5,0.2,1,0.4,1.4,0.7c0.5-0.3,1-0.5,1.4-0.8c-0.1-0.1-0.3-0.2-0.4-0.3
		C109.3,106.4,108.4,106.5,107.7,106.7z"/>
	<path class="st1" d="M110.1,106.2c-0.3-0.2-0.7-0.4-1-0.6c-0.5,0.3-1.1,0.6-1.9,0.8c0.2,0.1,0.3,0.1,0.5,0.2
		C108.4,106.5,109.3,106.4,110.1,106.2z"/>
	<path class="st1" d="M89.5,137.4c0.2,0,0.4,0,0.6,0.1v-1.6C90.1,136.4,89.9,136.9,89.5,137.4z"/>
	<path class="st1" d="M90.1,140.8v-1.8c-0.3,0-0.6-0.1-0.9-0.1C89.8,139.4,90.1,140.1,90.1,140.8z"/>
	<path class="st1" d="M89.5,137.4c-0.2,0.3-0.5,0.6-0.9,0.9v0c0.2,0.2,0.4,0.3,0.6,0.5c0.3,0,0.6,0.1,0.9,0.1v-1.5
		C89.9,137.4,89.7,137.4,89.5,137.4z"/>
	<path class="st1" d="M89.2,138.8c-0.2,0-0.4-0.1-0.6-0.1v1.4h-0.3c0.2,0.2,0.3,0.4,0.3,0.7c0,0.3-0.2,0.6-0.4,0.8h1.7
		c0.1-0.3,0.2-0.6,0.2-0.8C90.1,140.1,89.8,139.4,89.2,138.8z"/>
	<path class="st1" d="M89.2,138.8c-0.2-0.2-0.4-0.4-0.6-0.5v0.4C88.8,138.8,89,138.8,89.2,138.8z"/>
	<path class="st1" d="M88.3,135.1H90c-0.1-0.3-0.2-0.5-0.4-0.7h-2.2C87.8,134.6,88.1,134.8,88.3,135.1z"/>
	<path class="st1" d="M83.8,132.9H84C84,132.8,83.9,132.8,83.8,132.9L83.8,132.9z"/>
	<path class="st1" d="M87.7,137.1c0.3,0.1,0.6,0.1,0.9,0.1v-0.7h-0.3C88.1,136.8,87.9,136.9,87.7,137.1z"/>
	<path class="st1" d="M81.5,132.4c-0.1,0-0.1-0.1-0.2-0.1c0,0-0.1,0.1-0.1,0.1C81.3,132.3,81.4,132.4,81.5,132.4z"/>
	<path class="st1" d="M83.6,132.7c0,0,0,0.1,0.1,0.1h0.1v-0.1C83.8,132.8,83.7,132.7,83.6,132.7z"/>
	<path class="st1" d="M81.3,132.2c0.1,0,0.1,0.1,0.2,0.1c0.3,0.1,0.6,0.1,0.8,0.2v-0.3c-0.2-0.1-0.4-0.2-0.6-0.3
		C81.6,132.1,81.4,132.2,81.3,132.2z"/>
	<path class="st1" d="M82.3,132.5c0.4,0.1,0.9,0.2,1.3,0.3h0.1c0,0,0-0.1-0.1-0.1c-0.5-0.2-0.9-0.3-1.3-0.5V132.5z"/>
	<path class="st1" d="M76.7,131.8c0.7,0,1.4,0.1,2.1,0.2v-0.8C78.2,131.4,77.5,131.6,76.7,131.8z"/>
	<path class="st1" d="M80.3,131.1L80.3,131.1C80.3,131.1,80.3,131.1,80.3,131.1C80.3,131.1,80.3,131.1,80.3,131.1z"/>
	<path class="st1" d="M83.8,132.9L83.8,132.9c1.5,0.5,2.7,1,3.6,1.5h2.2c-0.1-0.2-0.2-0.3-0.4-0.4c-1.9-0.2-3.6-0.6-5.2-1.1H83.8z"
		/>
	<path class="st1" d="M78.8,131.1v0.1c0.1,0,0.1,0,0.2-0.1C78.9,131.1,78.9,131.1,78.8,131.1z"/>
	<path class="st1" d="M83.7,132.9c0,0,0.1,0,0.1,0v-0.1L83.7,132.9C83.7,132.9,83.7,132.9,83.7,132.9z"/>
	<path class="st1" d="M79,131.1c0.3-0.1,0.6-0.2,0.9-0.4c-0.1-0.1-0.1-0.1-0.2-0.2c-0.3,0-0.6-0.1-0.9-0.1v0.6
		C78.9,131.1,78.9,131.1,79,131.1z"/>
	<path class="st1" d="M83.7,132.9C83.7,132.9,83.7,132.9,83.7,132.9L83.7,132.9C83.6,132.9,83.7,132.9,83.7,132.9z"/>
	<path class="st1" d="M79.9,131.5c-0.3-0.1-0.6-0.2-0.9-0.4c-0.1,0-0.1,0-0.2,0.1v0.8c0.2,0,0.4,0,0.6,0.1
		C79.5,131.9,79.7,131.7,79.9,131.5z"/>
	<path class="st1" d="M80.3,131.2L80.3,131.2c-0.1-0.1-0.3-0.3-0.4-0.4c-0.3,0.1-0.6,0.2-0.9,0.4c0.3,0.1,0.6,0.2,0.9,0.4
		C80,131.4,80.1,131.3,80.3,131.2z"/>
	<path class="st1" d="M80.4,132.2c0.3,0,0.6,0.1,0.8,0.1c0,0,0.1-0.1,0.1-0.1c-0.1-0.1-0.3-0.2-0.4-0.3
		C80.7,132.1,80.5,132.1,80.4,132.2z"/>
	<path class="st1" d="M87.7,137.1c-0.2,0.1-0.3,0.2-0.5,0.4c0.5,0.3,1,0.5,1.4,0.8c0,0,0,0,0,0v-1C88.3,137.2,88,137.2,87.7,137.1z"
		/>
	<path class="st1" d="M81.3,132.2c0.1-0.1,0.3-0.2,0.4-0.3c-0.2-0.1-0.3-0.2-0.4-0.2c-0.1,0.1-0.3,0.2-0.4,0.2
		C81,132.1,81.2,132.2,81.3,132.2z"/>
	<path class="st1" d="M80.9,132c-0.2-0.1-0.4-0.2-0.6-0.3v0.5c0,0,0.1,0,0.1,0C80.5,132.1,80.7,132.1,80.9,132z"/>
	<path class="st1" d="M80.9,132c0.2-0.1,0.3-0.2,0.4-0.2c-0.4-0.2-0.7-0.4-1-0.6c0,0,0,0,0,0v0.5C80.5,131.8,80.7,131.9,80.9,132z"
		/>
	<path class="st1" d="M80.3,131.7c-0.1-0.1-0.3-0.1-0.4-0.2c-0.2,0.2-0.4,0.4-0.5,0.6c0.3,0,0.6,0.1,0.9,0.1V131.7z"/>
	<path class="st1" d="M80.3,131.2c-0.1,0.1-0.3,0.2-0.4,0.3c0.1,0.1,0.3,0.1,0.4,0.2V131.2z"/>
	<path class="st1" d="M84,132.9h3.7c-1-0.6-2.4-1.1-3.9-1.5v1.4C83.9,132.8,84,132.8,84,132.9z"/>
	<path class="st1" d="M82.7,131.5c0.4,0.4,0.7,0.8,0.9,1.2c0.1,0,0.1,0,0.2,0.1v-1.4c-0.2,0-0.3-0.1-0.5-0.1
		C83.1,131.3,82.9,131.4,82.7,131.5z"/>
	<path class="st1" d="M82.3,132.2v-0.6c-0.2,0.1-0.4,0.2-0.6,0.3C81.9,132.1,82.1,132.1,82.3,132.2z"/>
	<path class="st1" d="M82.3,132.2c0.4,0.2,0.8,0.3,1.3,0.5c-0.2-0.4-0.5-0.8-0.9-1.2c-0.1,0.1-0.3,0.1-0.4,0.2V132.2z"/>
	<path class="st1" d="M80.9,130.8c-0.2,0-0.4-0.1-0.6-0.1v0.4c0,0,0,0,0,0C80.5,131,80.7,130.9,80.9,130.8z"/>
	<path class="st1" d="M84,132.9c1.5,0.5,3.3,0.8,5.2,1.1c-0.4-0.4-0.9-0.7-1.4-1.1H84z"/>
	<path class="st1" d="M79.7,130.6c0.1,0.1,0.1,0.1,0.2,0.2c0.1,0,0.2-0.1,0.3-0.1C80,130.6,79.8,130.6,79.7,130.6z"/>
	<path class="st1" d="M80.3,130.7c0,0-0.1,0-0.1,0c-0.1,0-0.2,0.1-0.3,0.1c0.1,0.1,0.2,0.2,0.4,0.3V130.7z"/>
	<path class="st1" d="M82.3,131.2L82.3,131.2C82.3,131.1,82.3,131.1,82.3,131.2C82.3,131.1,82.3,131.1,82.3,131.2z"/>
	<path class="st1" d="M82.3,131.1L82.3,131.1c0.1,0.1,0.3,0.3,0.4,0.4c0.2-0.1,0.4-0.2,0.6-0.2C83,131.2,82.7,131.1,82.3,131.1
		C82.4,131.1,82.3,131.1,82.3,131.1z"/>
	<path class="st1" d="M81.3,131.7c0.1,0.1,0.3,0.2,0.4,0.2c0.2-0.1,0.4-0.2,0.6-0.3v-0.5c0,0,0,0,0,0
		C82,131.4,81.7,131.6,81.3,131.7z"/>
	<path class="st1" d="M82.3,131.7c0.1-0.1,0.3-0.1,0.4-0.2c-0.1-0.1-0.2-0.2-0.4-0.3V131.7z"/>
	<path class="st1" d="M82.3,131.1C82.3,131.1,82.3,131.1,82.3,131.1l0-0.1c-0.1,0-0.2,0-0.3,0C82.1,131,82.2,131.1,82.3,131.1z"/>
	<path class="st1" d="M82.4,131.1C82.4,131,82.3,131,82.4,131.1L82.4,131.1C82.3,131.1,82.4,131.1,82.4,131.1z"/>
	<path class="st1" d="M80.3,131.1c0.3,0.2,0.6,0.4,1,0.6c0.4-0.2,0.7-0.4,1-0.6c-0.1-0.1-0.2-0.1-0.2-0.2c-0.4-0.1-0.8-0.1-1.2-0.2
		C80.7,130.9,80.5,131,80.3,131.1z"/>
	<path class="st1" d="M90,135.1h-1.7c0.2,0.3,0.3,0.5,0.3,0.8s-0.1,0.5-0.3,0.8h0.3v0.7c0.3,0,0.6,0.1,0.9,0.1
		c0.4-0.5,0.6-1,0.6-1.5C90.1,135.6,90,135.3,90,135.1z"/>
	<path class="st1" d="M88.6,138.3c0.4-0.3,0.7-0.6,0.9-0.9c-0.3,0-0.6-0.1-0.9-0.1V138.3z"/>
	<path class="st1" d="M85.3,138.3c0.7,0.3,1.4,0.5,1.9,0.8c0.3-0.1,0.6-0.3,0.9-0.5c-0.8-0.1-1.7-0.3-2.4-0.5
		C85.5,138.2,85.4,138.3,85.3,138.3z"/>
	<path class="st0" d="M58.6,140.1h3.8c-1-0.3-1.9-0.6-2.6-1C59.2,139.5,58.8,139.8,58.6,140.1z"/>
	<path class="st0" d="M55.4,126.2c2.6,0.9,6.7,1.7,11.8,1.7c5,0,9-0.7,11.6-1.6v-0.1c-2.6-0.9-6.6-1.6-11.6-1.6
		C62,124.5,58,125.3,55.4,126.2z"/>
	<path class="st0" d="M78.8,129.5v-0.8v-0.8c-1,0.3-2.2,0.6-3.4,0.8C76.6,128.9,77.7,129.2,78.8,129.5z"/>
	<path class="st0" d="M53.5,130.3c1.5-0.7,3.4-1.2,5.5-1.6c-2.1-0.4-4-0.9-5.5-1.6c-0.9,0.5-1.5,1.1-1.5,1.6S52.6,129.8,53.5,130.3z
		"/>
	<path class="st0" d="M52,131.1L52,131.1C52,131.1,52.1,131.1,52,131.1C52.1,131.1,52,131.1,52,131.1z"/>
	<path class="st0" d="M52,126.2L52,126.2C52,126.2,52.1,126.2,52,126.2C52.1,126.2,52,126.2,52,126.2z"/>
	<path class="st0" d="M53.5,132c-0.2,0.1-0.4,0.2-0.5,0.3h1.3C54,132.2,53.7,132.1,53.5,132z"/>
	<path class="st0" d="M60.3,132.3c3.2-1.4,8.3-2.1,13.2-2.1c0.8,0,1.6,0,2.3,0.1c-2.3-0.5-5.2-0.8-8.6-0.8c-5.2,0-9.2,0.7-11.8,1.7
		C56.6,131.6,58.3,132,60.3,132.3L60.3,132.3z"/>
	<path class="st0" d="M56.8,135.1H57c0.1-0.2,0.2-0.5,0.4-0.7h-4.9c0.7,0.7,2.2,1.5,4.4,2.1v-0.7V135.1z"/>
	<path class="st0" d="M73.5,144.9c7.9,0,13.2-1.7,14.7-3.3H58.7C60.2,143.2,65.5,144.9,73.5,144.9z"/>
	<path class="st1" d="M52,126.2L52,126.2c-0.9-0.7-1.5-1.6-1.5-2.5v4.9C50.5,127.7,51.1,126.9,52,126.2z"/>
	<path class="st1" d="M52,131.2L52,131.2c-0.9-0.7-1.5-1.6-1.5-2.5v3.6h0.4C51.2,131.9,51.6,131.5,52,131.2z"/>
	<path class="st1" d="M52.4,134.4h-1.7c0.6,1.6,2.9,2.8,6.1,3.7v-1.5C54.6,135.9,53.1,135.1,52.4,134.4z"/>
	<path class="st1" d="M58.3,138.3L58.3,138.3C58.3,138.3,58.3,138.3,58.3,138.3C58.3,138.3,58.3,138.3,58.3,138.3z"/>
	<path class="st1" d="M52.1,133.8h-1.5c0,0.2,0.1,0.4,0.1,0.6h1.7C52.2,134.2,52.1,134,52.1,133.8z"/>
	<path class="st1" d="M52,131.2c-0.5,0.4-0.9,0.7-1.1,1.2H52V131.2z"/>
	<path class="st1" d="M54.3,132.3h6c-1.9-0.3-3.6-0.7-4.9-1.2c-0.7,0.3-1.4,0.5-1.9,0.8C53.7,132.1,54,132.2,54.3,132.3z"/>
	<path class="st1" d="M53.5,130.3c-0.9-0.5-1.5-1.1-1.5-1.6v2.4c0,0,0,0,0,0C52.5,130.8,53,130.6,53.5,130.3z"/>
	<path class="st1" d="M52,131.1v-2.4v-2.4c-0.9,0.7-1.5,1.5-1.5,2.4C50.5,129.6,51.1,130.4,52,131.1z"/>
	<path class="st1" d="M53.5,132c0.5-0.3,1.1-0.6,1.9-0.8c-0.7-0.3-1.4-0.5-1.9-0.8c-0.5,0.3-1,0.5-1.4,0.8
		C52.5,131.4,53,131.7,53.5,132z"/>
	<path class="st1" d="M52.1,126.2c0.4-0.3,0.9-0.6,1.4-0.8c-0.9-0.5-1.5-1.1-1.5-1.6L52.1,126.2C52,126.2,52.1,126.2,52.1,126.2z"/>
	<path class="st1" d="M55.4,126.2c-0.7,0.3-1.4,0.5-1.9,0.8c1.5,0.7,3.4,1.2,5.5,1.6c2.5-0.5,5.4-0.7,8.2-0.7s5.6,0.2,8.2,0.7
		c1.2-0.2,2.4-0.5,3.4-0.8v-1.6c-2.6,0.9-6.6,1.6-11.6,1.6C62,127.9,58,127.2,55.4,126.2z"/>
	<path class="st1" d="M52,126.2v-2.4v-2.4c-0.9,0.7-1.5,1.5-1.5,2.4S51.1,125.5,52,126.2z"/>
	<path class="st1" d="M75.4,128.7c-2.5-0.5-5.4-0.7-8.2-0.7s-5.6,0.2-8.2,0.7c2.5,0.5,5.4,0.7,8.2,0.7S72.8,129.1,75.4,128.7z"/>
	<path class="st1" d="M53.5,127c0.5-0.3,1.1-0.6,1.9-0.8c-0.7-0.3-1.4-0.5-1.9-0.8c-0.5,0.3-1,0.5-1.4,0.8
		C52.5,126.5,53,126.8,53.5,127z"/>
	<path class="st1" d="M105.3,40.7c-9-13.2-21.4-22-35-24.9l7.6-13.1l-0.2-0.4c-0.1-0.2-0.3-0.7-0.9-0.8c-0.5-0.1-0.9,0.2-1.3,0.5
		c-0.4,0.3-0.6,0.5-1,0.5c-1.2,0-2.4-0.6-3.2-1.5c-0.4-0.5-1-0.8-1.7-0.8h0C69,0.2,68.4,0.5,68,1c-0.8,1-2,1.5-3.2,1.5
		c-1.2,0-2.4-0.6-3.2-1.5c-0.4-0.5-1-0.8-1.7-0.8c-0.7,0-1.3,0.3-1.7,0.8c-0.8,1-2,1.5-3.2,1.5c-1.2,0-2.4-0.6-3.2-1.5
		c-0.4-0.5-1-0.8-1.7-0.8h0c-0.7,0-1.3,0.3-1.7,0.8c-0.8,1-2,1.5-3.2,1.5c-0.4,0-0.6-0.2-1-0.5c-0.3-0.3-0.7-0.6-1.3-0.5
		c-0.5,0.1-0.8,0.6-0.9,0.8l-0.2,0.4l7.6,13.1l0,0c-13.6,3-26,11.8-35,24.9C5.1,54.2,0,71.6,0,89.6v0.6
		c0.2,24.1,16.3,43.7,35.9,43.7h14.6v-0.2v-1.3H35.9c-18.8,0-34.3-18.9-34.4-42.2v-0.6c0-36.5,20.7-67,49.3-72.6l1-0.2l0,0h-1.4
		v-1.5H51L44.4,3.8C44.6,3.9,44.9,4,45.2,4c1.7,0,3.3-0.8,4.4-2.1c0.2-0.3,0.8-0.3,1,0C51.7,3.2,53.3,4,55,4c1.7,0,3.3-0.8,4.4-2.1
		c0.2-0.2,0.4-0.2,0.6-0.2c0.1,0,0.4,0,0.5,0.2C61.5,3.2,63.1,4,64.8,4c1.7,0,3.3-0.8,4.4-2.1c0.2-0.3,0.8-0.3,1,0
		C71.3,3.2,72.9,4,74.5,4c0.3,0,0.6-0.1,0.9-0.2L69,14.9l-0.2,0.3H70v1.5h-2l0,0l1,0.2c14.4,2.8,26.8,11.9,35.6,25
		c0.4-0.2,0.9-0.3,1.4-0.4C105.7,41.3,105.5,41,105.3,40.7z"/>
	<path class="st1" d="M60.3,132.3C60.3,132.3,60.3,132.3,60.3,132.3L60.3,132.3C60.3,132.3,60.3,132.3,60.3,132.3z"/>
	<path class="st1" d="M50.5,133.6v0.2h0C50.6,133.7,50.5,133.7,50.5,133.6z"/>
	<path class="st1" d="M50.9,132.3h-0.4v1.3C50.5,133.1,50.7,132.7,50.9,132.3z"/>
	<path class="st1" d="M59.1,132.9c0.4-0.2,0.8-0.4,1.2-0.6c0,0,0,0,0,0h-6c0.5,0.2,1.1,0.4,1.7,0.6H59.1z"/>
	<path class="st1" d="M58.2,133.5c0.3-0.2,0.5-0.4,0.8-0.6H56C56.7,133.1,57.4,133.3,58.2,133.5z"/>
	<path class="st1" d="M56.8,136.5c0,0,0.1,0,0.1,0c-0.1-0.2-0.1-0.5-0.1-0.7V136.5z"/>
	<path class="st1" d="M58.2,138.4c-0.5-0.1-1-0.2-1.4-0.3v2.7C56.8,139.9,57.3,139.1,58.2,138.4z"/>
	<path class="st1" d="M58.3,138.3L58.3,138.3c-0.7-0.6-1.2-1.1-1.4-1.8c0,0-0.1,0-0.1,0v1.5C57.3,138.2,57.7,138.3,58.3,138.3
		C58.3,138.4,58.3,138.3,58.3,138.3z"/>
	<path class="st1" d="M58.7,141.6H57c1.2,3.1,9,4.8,16.5,4.8s15.2-1.7,16.5-4.8h-1.7c-1.5,1.6-6.8,3.3-14.7,3.3
		S60.2,143.2,58.7,141.6z"/>
	<path class="st1" d="M58.2,138.4C58.3,138.4,58.3,138.4,58.2,138.4L58.2,138.4C58.3,138.3,58.3,138.4,58.2,138.4z"/>
	<path class="st1" d="M57,135.1h1.7c0.2-0.2,0.5-0.5,0.8-0.7h-2.2C57.2,134.6,57,134.8,57,135.1z"/>
	<path class="st1" d="M73.5,130.2c-4.9,0-9.9,0.7-13.2,2.1h5.6c2.1-0.4,4.7-0.6,7.6-0.6c1.1,0,2.2,0,3.2,0.1
		c0.8-0.2,1.5-0.4,2.1-0.6v-0.1c-0.9-0.3-1.8-0.6-3-0.8C75,130.2,74.2,130.2,73.5,130.2z"/>
	<path class="st1" d="M63.9,132.7c0.6-0.1,1.3-0.3,1.9-0.4h-5.6c0,0,0,0,0,0C61.4,132.5,62.6,132.6,63.9,132.7z"/>
	<path class="st1" d="M58.3,136.9c0.3,0.1,0.6,0.1,0.8,0.2c-0.2-0.2-0.4-0.3-0.5-0.5h-0.3V136.9z"/>
	<path class="st1" d="M64.8,139.2c-1.5-0.1-2.9-0.2-4.3-0.4c-0.3,0.1-0.5,0.2-0.7,0.4c0.8,0.4,1.7,0.7,2.6,1h22.1
		c1-0.3,1.9-0.6,2.6-1c-0.5-0.3-1.1-0.6-1.9-0.8c-2.6,0.9-6.7,1.7-11.8,1.7C70.1,140,67.2,139.7,64.8,139.2z"/>
	<path class="st1" d="M57.8,133.8c-0.2,0.2-0.4,0.4-0.5,0.6h2.2c0.3-0.2,0.6-0.4,1-0.6c-0.1,0-0.1,0-0.2,0H57.8z"/>
	<path class="st1" d="M60.3,133.8c-0.7-0.1-1.4-0.2-2-0.3c-0.1,0.1-0.3,0.2-0.4,0.3H60.3z"/>
	<path class="st1" d="M78.8,131.1v-0.6c-1-0.1-2-0.2-3-0.2C76.9,130.5,77.9,130.8,78.8,131.1z"/>
	<path class="st1" d="M59.8,137.5c-0.2-0.1-0.4-0.3-0.6-0.4c-0.3-0.1-0.6-0.1-0.8-0.2v1.4c0,0,0,0,0,0
		C58.8,138,59.2,137.7,59.8,137.5z"/>
	<path class="st1" d="M64.8,139.2c-1.2-0.3-2.3-0.5-3.2-0.9c-0.4,0.2-0.8,0.3-1.2,0.5C61.9,139,63.4,139.1,64.8,139.2z"/>
	<path class="st1" d="M59.1,132.9h4.1c0.2-0.1,0.5-0.1,0.8-0.2c-1.3-0.1-2.5-0.2-3.6-0.4C59.9,132.5,59.4,132.7,59.1,132.9z"/>
	<path class="st1" d="M60.3,133.8c0.1,0,0.1,0,0.2,0c0,0,0.1,0,0.1,0H60.3z"/>
	<path class="st1" d="M58.2,133.5c0.7,0.1,1.3,0.2,2,0.3h0.3c0.7-0.3,1.6-0.6,2.6-0.9h-4.1C58.8,133.1,58.5,133.3,58.2,133.5z"/>
	<path class="st1" d="M56.8,135.8c0,0.2,0,0.5,0.1,0.7c0.4,0.1,0.9,0.2,1.4,0.3v-0.3h0.3c-0.2-0.3-0.3-0.5-0.3-0.8s0.1-0.5,0.3-0.8
		H57C56.9,135.3,56.8,135.6,56.8,135.8z"/>
	<path class="st1" d="M73.5,141.5c3.9,0,7.9-0.5,11-1.4H62.4C65.5,141,69.6,141.5,73.5,141.5z"/>
	<path class="st1" d="M56.9,136.6c0.2,0.6,0.7,1.2,1.4,1.7v-1.4C57.8,136.8,57.4,136.7,56.9,136.6z"/>
	<path class="st1" d="M59.8,139.1c0.2-0.1,0.4-0.2,0.7-0.4c-0.7-0.1-1.3-0.2-1.9-0.3C58.9,138.7,59.3,138.9,59.8,139.1z"/>
	<path class="st1" d="M58.3,138.3c0.1,0.1,0.2,0.1,0.2,0.2c0.6,0.1,1.3,0.2,1.9,0.3c0.3-0.2,0.7-0.3,1.2-0.5
		c-0.7-0.3-1.4-0.5-1.9-0.8C59.2,137.7,58.8,138,58.3,138.3z"/>
	<path class="st1" d="M88,138.7c0.2-0.1,0.4-0.2,0.6-0.4c-0.4-0.3-0.9-0.6-1.4-0.8c-0.4,0.2-0.9,0.5-1.6,0.7
		C86.4,138.4,87.2,138.5,88,138.7z"/>
	<g>
		<path class="st2" d="M56.1,74.8v4.8h10.6c0.3,0,0.6,0.2,0.8,0.5c0.2,0.3,0.3,0.9,0.3,1.6c0,1.4-0.4,2.2-1.1,2.2H56.1v7.5
			c0,0.3-0.2,0.6-0.6,0.8c-0.4,0.2-1.1,0.3-2.2,0.3c-1.1,0-1.8-0.1-2.2-0.3c-0.4-0.2-0.5-0.4-0.5-0.8v-7.5h-3.1
			c-0.7,0-1.1-0.7-1.1-2.2c0-0.8,0.1-1.3,0.3-1.6c0.2-0.3,0.4-0.5,0.8-0.5h3.1v-4.8h-3.1c-0.3,0-0.6-0.2-0.8-0.5
			c-0.2-0.3-0.3-0.9-0.3-1.7c0-0.7,0.1-1.3,0.3-1.6c0.2-0.3,0.4-0.5,0.8-0.5h3.1V52.1c0-0.9,0.2-1.5,0.7-1.9c0.5-0.4,1-0.6,1.5-0.6
			h8.5c2,0,3.9,0.3,5.7,0.8c1.8,0.5,3.3,1.3,4.6,2.3c1.3,1,2.4,2.3,3.1,3.9c0.8,1.6,1.1,3.4,1.1,5.4c0,1.9-0.3,3.6-1,5.1
			c-0.6,1.5-1.6,2.9-2.9,4c-1.3,1.1-2.9,2-4.8,2.6c-1.9,0.6-4.2,0.9-6.8,0.9H56.1z M56.1,54v16.5h4.8c1.7,0,3.1-0.2,4.3-0.6
			c1.2-0.4,2.2-1,2.9-1.7c0.8-0.7,1.3-1.6,1.7-2.5c0.4-1,0.5-2,0.5-3.1c0-1.7-0.3-3.2-0.8-4.3c-0.5-1.1-1.3-2-2.2-2.6
			c-0.9-0.6-1.9-1.1-3-1.3c-1.1-0.2-2.2-0.4-3.3-0.4H56.1z"/>
	</g>
	<path class="st1" d="M131.7,110.6h0.3v-0.7C132,110.1,131.9,110.4,131.7,110.6z"/>
	<path class="st1" d="M133.5,109.9c0-0.9-0.6-1.7-1.5-2.4v0.8v0.8v0.8v0.7h1.4C133.4,110.4,133.5,110.1,133.5,109.9z"/>
	<path class="st1" d="M52,132.9v-0.6h-1.1c-0.3,0.4-0.4,0.8-0.4,1.3c0,0.1,0,0.1,0,0.2H52v-0.2V132.9z"/>
	<path class="st1" d="M52,133.6v0.2h0.1C52.1,133.7,52,133.7,52,133.6z"/>
	<path class="st0" d="M58.3,140.9v-0.2C58.3,140.7,58.3,140.7,58.3,140.9C58.3,140.8,58.3,140.8,58.3,140.9z"/>
	<path class="st1" d="M58.3,140.9v0.7h0.4C58.5,141.4,58.4,141.1,58.3,140.9z"/>
	<path class="st1" d="M58.3,139.1v-0.7c0,0-0.1,0-0.1,0c-0.9,0.7-1.4,1.5-1.4,2.4c0,0.3,0.1,0.6,0.2,0.8h1.3v-0.7c0,0,0-0.1,0-0.1
		v0.5v-0.5v-0.7V139.1z"/>
	<path class="st0" d="M110.5,133.5v0.1C110.5,133.6,110.6,133.6,110.5,133.5C110.6,133.6,110.5,133.6,110.5,133.5z"/>
	<path class="st1" d="M110.2,134.4h0.3v-0.7C110.5,133.9,110.4,134.1,110.2,134.4z"/>
	<path class="st1" d="M110.6,131.2v1.3v0.4v0.8v0.5v-0.5c0,0,0,0,0,0.1v0.7h1.4c0.1-0.2,0.1-0.5,0.1-0.8
		C112.1,132.7,111.5,131.9,110.6,131.2z"/>
</g>
</svg>
