<?xml version="1.0" encoding="utf-8"?>
<!-- Generator: Adobe Illustrator 21.0.0, SVG Export Plug-In . SVG Version: 6.00 Build 0)  -->
<svg version="1.1" id="Слой_1" xmlns="http://www.w3.org/2000/svg" xmlns:xlink="http://www.w3.org/1999/xlink" x="0px" y="0px"
	 viewBox="0 0 145.8 137" style="enable-background:new 0 0 145.8 137;" xml:space="preserve">
<style type="text/css">
	.st0{fill:#F9B345;}
	.st1{fill:none;}
</style>
<rect x="7.2" y="123.9" class="st0" width="1.5" height="1.5"/>
<rect x="7.9" y="119.4" class="st0" width="0.8" height="1.5"/>
<g>
	<polygon class="st1" points="61.2,62.8 58,66 58.2,68.5 61.4,65.3 	"/>
	<path class="st1" d="M12.9,132.9h119.9c2.3,0,4.3-1.9,4.3-4.3v-3.2H90.2c-1.4,3-4.8,5.1-8.7,5.1H64.7c-3.9,0-7.3-2-8.7-5.1H8.7v3.2
		C8.7,131,10.6,132.9,12.9,132.9z"/>
	<path class="st1" d="M96.5,17.8v1.6c0,0.7,0.5,1.2,1.2,1.3v-4.2C97,16.6,96.5,17.1,96.5,17.8z"/>
	<path class="st1" d="M35.4,16.5c-0.7,0-1.3,0.6-1.3,1.3v1.6c0,0.7,0.6,1.3,1.3,1.3h1.6v-4.2H35.4z"/>
	<path class="st1" d="M49.4,19.5v-1.6c0-0.7-0.5-1.2-1.2-1.3v4.2C48.9,20.7,49.4,20.1,49.4,19.5z"/>
	<rect x="70.9" y="25.5" class="st1" width="4.2" height="16.6"/>
	<path class="st1" d="M72.2,45.1h1.6c0.7,0,1.3-0.6,1.3-1.3v-0.1h-4.2v0.1C70.9,44.5,71.5,45.1,72.2,45.1z"/>
	<path class="st1" d="M73.8,22.9h-1.6c-0.6,0-1.1,0.5-1.2,1.1h4.1C75,23.4,74.5,22.9,73.8,22.9z"/>
	<path class="st1" d="M31.1,86c0,5.8,4.7,10.5,10.5,10.5S52.2,91.8,52.2,86c0-2.6-1-5-2.6-6.9l-4,4c0.7,0.9,1.2,1.9,1.2,3.1
		c0,2.7-2.2,4.9-4.9,4.9c-2.7,0-4.9-2.2-4.9-4.9s2.2-4.9,4.9-4.9c1,0,1.9,0.3,2.7,0.8l4-4c-1.9-1.6-4.3-2.6-6.9-2.6
		C35.9,75.5,31.1,80.2,31.1,86z"/>
	<path class="st1" d="M24.4,86.2c0,9.7,7.9,17.5,17.5,17.5s17.5-7.9,17.5-17.5c0-4.7-1.8-8.9-4.8-12l-3.9,3.9c1.9,2.1,3,4.9,3,8
		c0,6.6-5.4,12-12,12s-12-5.4-12-12s5.4-12,12-12c3.1,0,5.8,1.1,8,3l3.9-3.9c-3.1-2.8-7.2-4.4-11.6-4.4
		C32.2,68.7,24.4,76.6,24.4,86.2z"/>
	<path class="st1" d="M132.9,134.4H12.9c-3.2,0-5.8-2.6-5.8-5.8v-3.2H1.5c0.5,5.6,6.2,10.1,13.3,10.1H131c7,0,12.8-4.5,13.3-10.1
		h-5.6v3.2C138.6,131.8,136,134.4,132.9,134.4z"/>
	<polygon class="st1" points="61.7,69.7 64.9,66.5 62.4,66.3 59.2,69.5 	"/>
	<path class="st1" d="M110.5,20.7c0.7,0,1.3-0.6,1.3-1.3v-1.6c0-0.7-0.6-1.3-1.3-1.3H109v4.2H110.5z"/>
	<path class="st1" d="M57.1,124.4c1,2.7,4.1,4.6,7.5,4.6h16.8c3.4,0,6.5-1.9,7.5-4.6l0.2-0.5h47.9v-3H8.7v3H57L57.1,124.4z"/>
	<path class="st1" d="M38.4,86.2c0,1.9,1.5,3.4,3.4,3.4c1.9,0,3.4-1.5,3.4-3.4c0-0.8-0.3-1.5-0.7-2.1l-2.7,2.7l-1.1-1.1l2.6-2.6
		c-0.5-0.2-1-0.4-1.6-0.4C40,82.8,38.4,84.3,38.4,86.2z"/>
	<polygon class="st0" points="70.9,25.5 70.3,25.5 69.4,25.8 69.4,42.2 70.9,42.2 	"/>
	<polygon class="st0" points="75.1,25.5 75.1,42.2 76.6,42.2 76.6,25.9 75.6,25.5 	"/>
	<path class="st0" d="M70.8,21.8C70.8,21.8,70.9,21.8,70.8,21.8l0.1-8.5h4.2V12l0.8-0.3H70l0.8,0.3V21.8z"/>
	<path class="st0" d="M75.1,25.4v-1.1c0-0.1,0-0.1,0-0.2h-4.1c0,0.1,0,0.1,0,0.2v1.3h4.2V25.4z"/>
	<path class="st0" d="M75.1,24c0,0.1,0,0.1,0,0.2L75.1,24L75.1,24z"/>
	<polygon class="st0" points="75.1,25.5 75.6,25.5 75.1,25.4 	"/>
	<path class="st0" d="M70.9,24L70.9,24l0-2.3c0,0-0.1,0-0.1,0.1v3.6l-0.5,0.2h0.6v-1.3C70.9,24.1,70.9,24.1,70.9,24z"/>
	<path class="st0" d="M35.4,20.7c-0.7,0-1.3-0.6-1.3-1.3v-1.6c0-0.7,0.6-1.3,1.3-1.3h1.6V15h-1.6c-1.5,0-2.8,1.2-2.8,2.8v1.6
		c0,1.5,1.2,2.8,2.8,2.8h1.6v-1.5H35.4z"/>
	<path class="st0" d="M69.4,24.1V11.8H70L42.4,2.4V4l4.3,1.4V5.1h1.5V6l21.1,7.1v11.2l-21.1,7v0.8h-1.5v-0.3l-4.3,1.4v1.6l27-9v-1.6
		C69.4,24.2,69.4,24.1,69.4,24.1z"/>
	<path class="st0" d="M69.4,25.5v-1.4c0,0,0,0.1,0,0.1v1.6l0.9-0.3H69.4z"/>
	<path class="st0" d="M69.4,24.1c0-1,0.6-1.8,1.4-2.3V12L70,11.8h-0.6V24.1z"/>
	<path class="st0" d="M70.8,21.8c-0.8,0.5-1.4,1.3-1.4,2.3v1.4h0.9l0.5-0.2V21.8z"/>
	<path class="st0" d="M48.2,20.7v-4.2c0,0-0.1,0-0.1,0h-1.4v4.2h1.4C48.1,20.7,48.2,20.7,48.2,20.7z"/>
	<path class="st0" d="M48.1,22.2h-1.4v9.6l1.5-0.5v-9.1C48.2,22.2,48.1,22.2,48.1,22.2z"/>
	<path class="st0" d="M48.1,15c0,0,0.1,0,0.1,0V6l-1.5-0.5V15H48.1z"/>
	<path class="st0" d="M48.1,16.5c0,0,0.1,0,0.1,0V15c0,0-0.1,0-0.1,0h-1.4v1.5H48.1z"/>
	<path class="st0" d="M48.1,20.7h-1.4v1.5h1.4c0,0,0.1,0,0.1,0v-1.5C48.2,20.7,48.1,20.7,48.1,20.7z"/>
	<polygon class="st0" points="48.2,5.1 46.7,5.1 46.7,5.5 48.2,6 	"/>
	<polygon class="st0" points="46.7,32.1 48.2,32.1 48.2,31.3 46.7,31.8 	"/>
	<path class="st0" d="M40.9,35.7c0,0.1-0.1,0.1-0.1,0.1h-2.3c-0.1,0-0.1-0.1-0.1-0.1V22.2h-1.5v13.4c0,0.9,0.7,1.6,1.6,1.6h2.3
		c0.9,0,1.6-0.7,1.6-1.6v-0.8l-1.5,0.5V35.7z"/>
	<rect x="36.9" y="16.5" class="st0" width="1.5" height="4.2"/>
	<path class="st0" d="M38.4,1.6c0-0.1,0.1-0.1,0.1-0.1h2.3c0.1,0,0.1,0.1,0.1,0.1v0.3l1.5,0.5V1.6c0-0.9-0.7-1.6-1.6-1.6h-2.3
		c-0.9,0-1.6,0.7-1.6,1.6V15h1.5V1.6z"/>
	<rect x="36.9" y="15" class="st0" width="1.5" height="1.5"/>
	<rect x="36.9" y="20.7" class="st0" width="1.5" height="1.5"/>
	<polygon class="st0" points="42.4,22.2 40.9,22.2 40.9,35.3 42.4,34.8 42.4,33.2 	"/>
	<rect x="40.9" y="16.5" class="st0" width="1.5" height="4.2"/>
	<polygon class="st0" points="40.9,15 42.4,15 42.4,4 42.4,2.4 40.9,1.9 	"/>
	<rect x="40.9" y="15" class="st0" width="1.5" height="1.5"/>
	<rect x="40.9" y="20.7" class="st0" width="1.5" height="1.5"/>
	<path class="st0" d="M110.5,16.5c0.7,0,1.3,0.6,1.3,1.3v1.6c0,0.7-0.6,1.3-1.3,1.3H109v1.5h1.6c1.5,0,2.8-1.2,2.8-2.8v-1.6
		c0-1.5-1.2-2.8-2.8-2.8H109v1.5H110.5z"/>
	<polygon class="st0" points="76.6,13.1 97.7,6 97.7,5.1 99.2,5.1 99.2,5.5 103.5,4 103.5,2.4 75.9,11.8 76.6,11.8 	"/>
	<polygon class="st0" points="99.2,31.8 99.2,32.1 97.7,32.1 97.7,31.3 76.6,24.3 76.6,25.5 76.6,25.9 103.5,34.8 103.5,33.2 	"/>
	<polygon class="st0" points="75.6,25.5 76.6,25.9 76.6,25.5 	"/>
	<path class="st0" d="M75.1,13.3v8.5c0.9,0.5,1.5,1.4,1.5,2.5V13.1v-1.3h-0.7L75.1,12V13.3z"/>
	<path class="st0" d="M75.1,24.2v1.1l0.5,0.2h1v-1.2v-0.1c0-1.1-0.6-2-1.5-2.5V24V24.2z"/>
	<path class="st0" d="M97.8,15h1.4V5.5L97.7,6V15C97.7,15,97.8,15,97.8,15z"/>
	<path class="st0" d="M97.7,16.6v4.2c0,0,0.1,0,0.1,0h1.4v-4.2h-1.4C97.8,16.5,97.7,16.5,97.7,16.6z"/>
	<path class="st0" d="M97.8,22.2c0,0-0.1,0-0.1,0v9.1l1.5,0.5v-9.6H97.8z"/>
	<path class="st0" d="M97.8,16.5h1.4V15h-1.4c0,0-0.1,0-0.1,0v1.5C97.7,16.5,97.8,16.5,97.8,16.5z"/>
	<path class="st0" d="M99.2,22.2v-1.5h-1.4c0,0-0.1,0-0.1,0v1.5c0,0,0.1,0,0.1,0H99.2z"/>
	<polygon class="st0" points="99.2,5.1 97.7,5.1 97.7,6 99.2,5.5 	"/>
	<polygon class="st0" points="97.7,32.1 99.2,32.1 99.2,31.8 97.7,31.3 	"/>
	<path class="st0" d="M107.5,35.7c0,0.1-0.1,0.1-0.1,0.1h-2.3c-0.1,0-0.1-0.1-0.1-0.1v-0.3l-1.5-0.5v0.8c0,0.9,0.7,1.6,1.6,1.6h2.3
		c0.9,0,1.6-0.7,1.6-1.6V22.2h-1.5V35.7z"/>
	<path class="st0" d="M105,1.6c0-0.1,0.1-0.1,0.1-0.1h2.3c0.1,0,0.1,0.1,0.1,0.1V15h1.5V1.6c0-0.9-0.7-1.6-1.6-1.6h-2.3
		c-0.9,0-1.6,0.7-1.6,1.6v0.8l1.5-0.5V1.6z"/>
	<rect x="107.5" y="16.5" class="st0" width="1.5" height="4.2"/>
	<rect x="107.5" y="20.7" class="st0" width="1.5" height="1.5"/>
	<rect x="107.5" y="15" class="st0" width="1.5" height="1.5"/>
	<rect x="103.5" y="16.5" class="st0" width="1.5" height="4.2"/>
	<polygon class="st0" points="103.5,15 105,15 105,1.9 103.5,2.4 103.5,4 	"/>
	<polygon class="st0" points="105,22.2 103.5,22.2 103.5,33.2 103.5,34.8 105,35.3 	"/>
	<rect x="103.5" y="15" class="st0" width="1.5" height="1.5"/>
	<rect x="103.5" y="20.7" class="st0" width="1.5" height="1.5"/>
	<path class="st0" d="M8.7,120.9H7.9v-1.5h0.8V47.9c0-2.3,1.9-4.3,4.3-4.3h56.5v-1.5H12.9c-3.2,0-5.8,2.6-5.8,5.8v76h1.5V120.9z"/>
	<path class="st0" d="M132.9,43.7c2.3,0,4.3,1.9,4.3,4.3v71.5h0.8v1.5h-0.8v3h1.5v-76c0-3.2-2.6-5.8-5.8-5.8H76.6v1.5H132.9z"/>
	<rect x="70.9" y="42.2" class="st0" width="4.2" height="1.5"/>
	<rect x="69.4" y="42.2" class="st0" width="1.5" height="1.5"/>
	<rect x="75.1" y="42.2" class="st0" width="1.5" height="1.5"/>
	<path class="st0" d="M138.6,123.9v1.5h5.6c-0.5,5.6-6.2,10.1-13.3,10.1H14.8c-7,0-12.8-4.5-13.3-10.1h5.6v-1.5H0v0.8
		c0,6.8,6.6,12.3,14.8,12.3H131c8.2,0,14.8-5.5,14.8-12.3v-0.8H138.6z"/>
	<path class="st0" d="M64.7,130.5h16.8c3.9,0,7.3-2,8.7-5.1h46.9v-1.5H89.2l-0.2,0.5c-1,2.7-4.1,4.6-7.5,4.6H64.7
		c-3.4,0-6.5-1.9-7.5-4.6l-0.2-0.5H8.7v1.5h47.3C57.3,128.5,60.8,130.5,64.7,130.5z"/>
	<rect x="137.1" y="123.9" class="st0" width="1.5" height="1.5"/>
	<rect x="8.7" y="119.4" class="st0" width="128.4" height="1.5"/>
	<rect x="137.1" y="119.4" class="st0" width="0.8" height="1.5"/>
	<rect x="99.8" y="73.1" class="st0" width="26.3" height="1.5"/>
	<rect x="99.8" y="81.1" class="st0" width="16.7" height="1.5"/>
	<rect x="99.8" y="89.1" class="st0" width="16.7" height="1.5"/>
	<rect x="79.7" y="73.1" class="st0" width="15.4" height="1.5"/>
	<rect x="79.7" y="81.1" class="st0" width="15.4" height="1.5"/>
	<rect x="79.7" y="89.1" class="st0" width="15.4" height="1.5"/>
	<path class="st0" d="M28.3,11.9c0.1,0.1,0.3,0.2,0.5,0.2s0.4-0.1,0.5-0.2c0.3-0.3,0.3-0.8,0-1.1l-8.9-8.9c-0.3-0.3-0.8-0.3-1.1,0
		s-0.3,0.8,0,1.1L28.3,11.9z"/>
	<path class="st0" d="M16.2,18.3h12.6c0.4,0,0.8-0.3,0.8-0.8s-0.3-0.8-0.8-0.8H16.2c-0.4,0-0.8,0.3-0.8,0.8S15.8,18.3,16.2,18.3z"/>
	<path class="st0" d="M28.3,23L19.4,32c-0.3,0.3-0.3,0.8,0,1.1c0.1,0.1,0.3,0.2,0.5,0.2s0.4-0.1,0.5-0.2l8.9-8.9
		c0.3-0.3,0.3-0.8,0-1.1S28.6,22.7,28.3,23z"/>
	<path class="st0" d="M116.1,13.3c0.2,0,0.4-0.1,0.5-0.2l8.9-8.9c0.3-0.3,0.3-0.8,0-1.1s-0.8-0.3-1.1,0l-8.9,8.9
		c-0.3,0.3-0.3,0.8,0,1.1C115.7,13.2,115.9,13.3,116.1,13.3z"/>
	<path class="st0" d="M116.1,19.5h12.6c0.4,0,0.8-0.3,0.8-0.8s-0.3-0.8-0.8-0.8h-12.6c-0.4,0-0.8,0.3-0.8,0.8S115.6,19.5,116.1,19.5
		z"/>
	<path class="st0" d="M124.4,34.2c0.1,0.1,0.3,0.2,0.5,0.2s0.4-0.1,0.5-0.2c0.3-0.3,0.3-0.8,0-1.1l-8.9-8.9c-0.3-0.3-0.8-0.3-1.1,0
		s-0.3,0.8,0,1.1L124.4,34.2z"/>
	<path class="st0" d="M59.4,86.2c0,9.7-7.9,17.5-17.5,17.5s-17.5-7.9-17.5-17.5s7.9-17.5,17.5-17.5c4.5,0,8.5,1.7,11.6,4.4l1.1-1.1
		c-3.4-3-7.8-4.9-12.7-4.9c-10.5,0-19,8.5-19,19s8.5,19,19,19s19-8.5,19-19c0-5.1-2-9.7-5.3-13.1l-1.1,1.1
		C57.6,77.3,59.4,81.6,59.4,86.2z"/>
	<path class="st0" d="M45.3,86.2c0,1.9-1.5,3.4-3.4,3.4c-1.9,0-3.4-1.5-3.4-3.4s1.5-3.4,3.4-3.4c0.6,0,1.1,0.2,1.6,0.4l1.1-1.1
		c-0.8-0.5-1.7-0.8-2.7-0.8c-2.7,0-4.9,2.2-4.9,4.9s2.2,4.9,4.9,4.9c2.7,0,4.9-2.2,4.9-4.9c0-1.2-0.4-2.3-1.2-3.1l-1.1,1.1
		C45.1,84.7,45.3,85.4,45.3,86.2z"/>
	<path class="st0" d="M52.2,86c0,5.8-4.7,10.5-10.5,10.5S31.1,91.8,31.1,86s4.7-10.5,10.5-10.5c2.6,0,5,1,6.9,2.6l1.1-1.1
		c-2.1-1.9-4.9-3-8-3c-6.6,0-12,5.4-12,12s5.4,12,12,12s12-5.4,12-12c0-3.1-1.1-5.8-3-8l-1.1,1.1C51.3,81,52.2,83.4,52.2,86z"/>
	<path class="st0" d="M45.7,83.1l4-4c-0.3-0.4-0.7-0.7-1.1-1.1l-4,4C45,82.4,45.4,82.7,45.7,83.1z"/>
	<polygon class="st0" points="59.2,69.5 62.4,66.3 61.4,66.3 61.4,65.3 58.2,68.5 58.2,69.5 	"/>
	<path class="st0" d="M41.9,86.8l2.7-2.7c-0.3-0.4-0.7-0.7-1.2-1l-2.6,2.6L41.9,86.8z"/>
	<path class="st0" d="M56.7,69.9l-2.2,2.2c0.4,0.3,0.7,0.7,1.1,1l2.2-2.2l-1-0.1L56.7,69.9z"/>
	<path class="st0" d="M50.7,78.1l3.9-3.9c-0.3-0.4-0.7-0.7-1.1-1L49.6,77C50,77.3,50.4,77.7,50.7,78.1z"/>
	<path class="st0" d="M54.6,72.1l-1.1,1.1c0.4,0.3,0.7,0.7,1.1,1l1.1-1.1C55.3,72.8,54.9,72.4,54.6,72.1z"/>
	<path class="st0" d="M44.6,82.1l-1.1,1.1c0.5,0.2,0.8,0.6,1.2,1l1.1-1.1C45.4,82.7,45,82.4,44.6,82.1z"/>
	<path class="st0" d="M49.6,77l-1.1,1.1c0.4,0.3,0.7,0.7,1.1,1.1l1.1-1.1C50.4,77.7,50,77.3,49.6,77z"/>
	<polygon class="st0" points="62.8,64.9 62.6,61.1 62.6,60.8 61.9,60 56.5,65.4 56.7,69.9 58.2,68.5 58,66 61.2,62.8 61.4,65.3 
		61.4,65.2 62.5,66.3 62.4,66.3 64.9,66.5 61.7,69.7 59.2,69.5 57.8,71 62.3,71.2 67.7,65.8 66.9,65.1 	"/>
	<polygon class="st0" points="58.2,69.5 58.2,68.5 56.7,69.9 56.8,70.9 57.8,71 59.2,69.5 	"/>
	<polygon class="st0" points="62.4,66.3 62.5,66.3 61.4,65.2 61.4,65.3 61.4,66.3 	"/>
</g>
</svg>
