<?xml version="1.0" encoding="UTF-8"?>
<!-- Generator: Adobe Illustrator 21.0.0, SVG Export Plug-In . SVG Version: 6.00 Build 0)  -->
<svg version="1.1" id="Capa_1" xmlns="http://www.w3.org/2000/svg" xmlns:xlink="http://www.w3.org/1999/xlink" x="0px" y="0px" viewBox="0 0 71.5 71.5" style="enable-background:new 0 0 71.5 71.5;" xml:space="preserve">
<style type="text/css">
	.st0{fill:#FFFFFF;}
	.st1{fill:#F9B243;}
</style>
<path class="st0" d="M35.8,70.2L35.8,70.2c-19,0-34.4-15.4-34.4-34.4l0,0c0-19,15.4-34.4,34.4-34.4l0,0c19,0,34.4,15.4,34.4,34.4  l0,0C70.2,54.8,54.8,70.2,35.8,70.2z"/>
<path class="st1" d="M0,35.8C0,16,16,0,35.8,0s35.8,16,35.8,35.8s-16,35.8-35.8,35.8S0,55.5,0,35.8z M68.9,35.8  C68.9,17.5,54,2.6,35.8,2.6S2.6,17.5,2.6,35.8s14.8,33.1,33.1,33.1S68.9,54,68.9,35.8z"/>
<path class="st1" d="M29.5,53c-0.3,0-0.7-0.1-0.9-0.4c-0.5-0.5-0.5-1.4,0-1.9l15-15l-15-15c-0.5-0.5-0.5-1.4,0-1.9s1.4-0.5,1.9,0  l15.2,15.2c0.9,0.9,0.9,2.3,0,3.2L30.5,52.6C30.2,52.8,29.9,53,29.5,53z"/>
</svg>