<?xml version="1.0" encoding="utf-8"?>
<!-- Generator: Adobe Illustrator 21.0.0, SVG Export Plug-In . SVG Version: 6.00 Build 0)  -->
<svg version="1.1" xmlns="http://www.w3.org/2000/svg" xmlns:xlink="http://www.w3.org/1999/xlink" x="0px" y="0px"
	 viewBox="0 0 68.4 57.9" style="enable-background:new 0 0 68.4 57.9;" xml:space="preserve">
<style type="text/css">
	.st0{fill:none;stroke:#F9B345;stroke-miterlimit:10;}
	.st1{fill:#F9B345;}
</style>
<g id="Слой_2">
	<rect x="17.9" y="6.1" class="st0" width="33.7" height="41"/>
	<rect x="22.3" y="10.6" class="st0" width="24.8" height="32"/>
	<circle class="st1" cx="34.7" cy="44.7" r="0.8"/>
	<line class="st0" x1="30.7" y1="8.4" x2="38.7" y2="8.4"/>
	<g>
		<circle class="st0" cx="34.7" cy="25.6" r="7.3"/>
		<path class="st0" d="M36.2,22.8c-1.2,0-1.5,1.6-1.5,1.6h0h0c0,0-0.2-1.6-1.5-1.6c-0.8,0-1.5,0.7-1.5,1.5c0,2.5,2.9,4.2,2.9,4.2
			c0,0,2.9-1.8,2.9-4.2C37.6,23.4,37,22.8,36.2,22.8z"/>
	</g>
</g>
<g id="Слой_1">
</g>
</svg>
