<?xml version="1.0" encoding="UTF-8"?>
<!-- Generator: Adobe Illustrator 21.0.0, SVG Export Plug-In . SVG Version: 6.00 Build 0)  -->
<svg version="1.1" id="Capa_1" xmlns="http://www.w3.org/2000/svg" xmlns:xlink="http://www.w3.org/1999/xlink" x="0px" y="0px" viewBox="0 0 71.5 71.5" style="enable-background:new 0 0 71.5 71.5;" xml:space="preserve">
<style type="text/css">
	.st0{fill:#FFFFFF;}
	.st1{fill:#F9B243;}
	.st2{fill:none;stroke:#F9B243;stroke-width:3;stroke-miterlimit:10;}
</style>
<path class="st0" d="M70.2,35.8L70.2,35.8c0,19-15.4,34.4-34.4,34.4l0,0c-19,0-34.4-15.4-34.4-34.4l0,0c0-19,15.4-34.4,34.4-34.4  l0,0C54.8,1.3,70.2,16.7,70.2,35.8z"/>
<path class="st1" d="M35.8,71.5C16,71.5,0,55.5,0,35.8S16,0,35.8,0s35.8,16,35.8,35.8S55.5,71.5,35.8,71.5z M35.8,2.6  C17.5,2.6,2.6,17.5,2.6,35.8s14.8,33.1,33.1,33.1S68.9,54,68.9,35.8S54,2.6,35.8,2.6z"/>
<path class="st1" d="M53,30.7c0,0.3-0.1,0.7-0.4,0.9c-0.5,0.5-1.4,0.5-1.9,0l-15-15l-15,15c-0.5,0.5-1.4,0.5-1.9,0  c-0.5-0.5-0.5-1.4,0-1.9l15.2-15.2c0.9-0.9,2.3-0.9,3.2,0l15.2,15.2C52.8,30.1,53,30.4,53,30.7z"/>
<line class="st2" x1="35.8" y1="16.7" x2="35.8" y2="70.2"/>
</svg>