<?xml version="1.0" encoding="UTF-8"?>
<!-- Generator: Adobe Illustrator 21.0.0, SVG Export Plug-In . SVG Version: 6.00 Build 0)  -->
<svg version="1.1" id="Слой_1" xmlns="http://www.w3.org/2000/svg" xmlns:xlink="http://www.w3.org/1999/xlink" x="0px" y="0px" viewBox="0 0 21 24.6" style="enable-background:new 0 0 21 24.6;" xml:space="preserve">
<style type="text/css">
	.st0{fill:#FDB341;}
</style>
<g>
	<g>
		<path class="st0" d="M21,24.6h-21V0h21V24.6z M1.1,23.6h19V1h-19V23.6z"/>
	</g>
	<g>
		<path class="st0" d="M18.5,9.1H2.4v-6h16.1V9.1z M3.4,8.1h14.1v-4H3.4V8.1z"/>
	</g>
	<g>
		<path class="st0" d="M18.5,21.7H2.4V10.8h16.1V21.7z M3.4,20.7h14.1v-8.9H3.4V20.7z"/>
	</g>
	<g>
		<path class="st0" d="M12.3,7.3c-0.1,0-0.2,0-0.3-0.1c-0.2-0.2-0.3-0.5-0.1-0.7l2.3-3.2c0.2-0.2,0.5-0.3,0.7-0.1    c0.2,0.2,0.3,0.5,0.1,0.7l-2.3,3.2C12.6,7.2,12.4,7.3,12.3,7.3z"/>
	</g>
	<g>
		<path class="st0" d="M13,8.9c-0.1,0-0.2,0-0.3-0.1c-0.2-0.2-0.3-0.5-0.1-0.7l2.3-3.2c0.2-0.2,0.5-0.3,0.7-0.1    c0.2,0.2,0.3,0.5,0.1,0.7l-2.3,3.2C13.3,8.9,13.2,8.9,13,8.9z"/>
	</g>
	<g>
		<path class="st0" d="M8,21.7c-0.3,0-0.5-0.2-0.5-0.5v-9.9c0-0.3,0.2-0.5,0.5-0.5c0.3,0,0.5,0.2,0.5,0.5v9.9    C8.5,21.5,8.3,21.7,8,21.7z"/>
	</g>
	<g>
		<path class="st0" d="M12.9,21.7c-0.3,0-0.5-0.2-0.5-0.5v-9.9c0-0.3,0.2-0.5,0.5-0.5s0.5,0.2,0.5,0.5v9.9    C13.4,21.5,13.2,21.7,12.9,21.7z"/>
	</g>
	<g>
		<g>
			<path class="st0" d="M6.4,14.3H4.4c-0.3,0-0.5-0.2-0.5-0.5s0.2-0.5,0.5-0.5h1.9c0.3,0,0.5,0.2,0.5,0.5S6.7,14.3,6.4,14.3z"/>
		</g>
		<g>
			<path class="st0" d="M5.4,15.2c-0.3,0-0.5-0.2-0.5-0.5v-1.9c0-0.3,0.2-0.5,0.5-0.5s0.5,0.2,0.5,0.5v1.9C5.9,15,5.7,15.2,5.4,15.2     z"/>
		</g>
	</g>
	<g>
		<path class="st0" d="M11.4,14.3H9.5C9.2,14.3,9,14,9,13.8s0.2-0.5,0.5-0.5h1.9c0.3,0,0.5,0.2,0.5,0.5S11.7,14.3,11.4,14.3z"/>
	</g>
	<g>
		<path class="st0" d="M16.4,16.3h-1.9c-0.3,0-0.5-0.2-0.5-0.5s0.2-0.5,0.5-0.5h1.9c0.3,0,0.5,0.2,0.5,0.5S16.7,16.3,16.4,16.3z"/>
	</g>
	<g>
		<path class="st0" d="M16.4,17.7h-1.9c-0.3,0-0.5-0.2-0.5-0.5s0.2-0.5,0.5-0.5h1.9c0.3,0,0.5,0.2,0.5,0.5S16.7,17.7,16.4,17.7z"/>
	</g>
	<g>
		<path class="st0" d="M11.1,19.9c-0.1,0-0.3,0-0.4-0.1l-1.4-1.4c-0.2-0.2-0.2-0.5,0-0.7s0.5-0.2,0.7,0l1.4,1.4    c0.2,0.2,0.2,0.5,0,0.7C11.4,19.9,11.3,19.9,11.1,19.9z"/>
	</g>
	<g>
		<path class="st0" d="M9.8,19.9c-0.1,0-0.3,0-0.4-0.1c-0.2-0.2-0.2-0.5,0-0.7l1.4-1.4c0.2-0.2,0.5-0.2,0.7,0s0.2,0.5,0,0.7    l-1.4,1.4C10,19.9,9.9,19.9,9.8,19.9z"/>
	</g>
	<g>
		<path class="st0" d="M12.9,16.7h-10c-0.3,0-0.5-0.2-0.5-0.5s0.2-0.5,0.5-0.5h10c0.3,0,0.5,0.2,0.5,0.5S13.2,16.7,12.9,16.7z"/>
	</g>
	<g>
		<path class="st0" d="M4.9,20c-0.1,0-0.3,0-0.4-0.1c-0.2-0.2-0.2-0.5,0-0.7l1.3-1.3c0.2-0.2,0.5-0.2,0.7,0s0.2,0.5,0,0.7l-1.3,1.3    C5.2,19.9,5.1,20,4.9,20z"/>
	</g>
</g>
</svg>