<?xml version="1.0" encoding="UTF-8"?>
<!-- Generator: Adobe Illustrator 21.0.0, SVG Export Plug-In . SVG Version: 6.00 Build 0)  -->
<svg version="1.1" id="Слой_1" xmlns="http://www.w3.org/2000/svg" xmlns:xlink="http://www.w3.org/1999/xlink" x="0px" y="0px" viewBox="0 0 94.6 117.5" style="enable-background:new 0 0 94.6 117.5;" xml:space="preserve">
<style type="text/css">
	.st0{fill:none;}
	.st1{fill:#F9B243;}
	.st2{fill:#FFFFFF;}
</style>
<path class="st0" d="M72.1,20.4H24.9v-3.7v-2.9H3v100.7h88.6V13.7H72.1v2.9V20.4z M19.4,49c0.6-0.6,1.6-0.5,2.1,0.1l1.1,1.2l2.8-3.2  c0.6-0.6,1.5-0.7,2.1-0.1c0.6,0.6,0.7,1.5,0.1,2.1l-3.9,4.4c-0.3,0.3-0.7,0.5-1.1,0.5c0,0,0,0,0,0c-0.4,0-0.8-0.2-1.1-0.5l-2.2-2.4  C18.8,50.5,18.8,49.5,19.4,49z M27.7,78.4l-3.9,4.4c-0.3,0.3-0.7,0.5-1.1,0.5c0,0,0,0,0,0c-0.4,0-0.8-0.2-1.1-0.5l-2.2-2.4  c-0.6-0.6-0.5-1.6,0.1-2.1c0.6-0.6,1.6-0.5,2.1,0.1l1.1,1.2l2.8-3.2c0.6-0.6,1.5-0.7,2.1-0.1C28.2,76.9,28.2,77.8,27.7,78.4z   M27.7,63.8l-3.9,4.4c-0.3,0.3-0.7,0.5-1.1,0.5c0,0,0,0,0,0c-0.4,0-0.8-0.2-1.1-0.5l-2.2-2.4c-0.6-0.6-0.5-1.6,0.1-2.1  c0.6-0.6,1.6-0.5,2.1,0.1l1.1,1.2l2.8-3.2c0.6-0.6,1.5-0.7,2.1-0.1C28.2,62.2,28.2,63.1,27.7,63.8z M73,81.1H34.3v-3H73V81.1z   M73,66.5H34.3v-3H73V66.5z M73,48.9v2.9v0.1H34.3v-0.1v-2.9v-0.1H73V48.9z"/>
<rect x="34.3" y="51.8" class="st1" width="38.6" height="0.1"/>
<path class="st1" d="M25.5,61.8l-2.8,3.2l-1.1-1.2c-0.6-0.6-1.5-0.6-2.1-0.1c-0.6,0.6-0.6,1.5-0.1,2.1l2.2,2.4  c0.3,0.3,0.7,0.5,1.1,0.5c0,0,0,0,0,0c0.4,0,0.8-0.2,1.1-0.5l3.9-4.4c0.6-0.6,0.5-1.6-0.1-2.1C27,61.1,26,61.1,25.5,61.8z"/>
<rect x="34.3" y="63.5" class="st1" width="38.6" height="3"/>
<path class="st1" d="M21.6,53.5c0.3,0.3,0.7,0.5,1.1,0.5c0,0,0,0,0,0c0.4,0,0.8-0.2,1.1-0.5l3.9-4.4c0.6-0.6,0.5-1.6-0.1-2.1  c-0.6-0.6-1.6-0.5-2.1,0.1l-2.8,3.2l-1.1-1.2C21,48.4,20,48.4,19.4,49c-0.6,0.6-0.6,1.5-0.1,2.1L21.6,53.5z"/>
<rect x="34.3" y="48.8" class="st1" width="38.6" height="0.1"/>
<rect x="34.3" y="48.9" class="st1" width="38.6" height="2.9"/>
<path class="st1" d="M25.5,76.4l-2.8,3.2l-1.1-1.2c-0.6-0.6-1.5-0.6-2.1-0.1c-0.6,0.6-0.6,1.5-0.1,2.1l2.2,2.4  c0.3,0.3,0.7,0.5,1.1,0.5c0,0,0,0,0,0c0.4,0,0.8-0.2,1.1-0.5l3.9-4.4c0.6-0.6,0.5-1.6-0.1-2.1C27,75.8,26,75.8,25.5,76.4z"/>
<rect x="34.3" y="78.1" class="st1" width="38.6" height="3"/>
<circle class="st2" cx="48.5" cy="8.2" r="0.3"/>
<path class="st1" d="M48.5,4.9c-1.8,0-3.3,1.5-3.3,3.3c0,1,0.5,1.9,1.2,2.5c0.6,0.5,1.3,0.8,2.1,0.8s1.5-0.3,2.1-0.8  c0.7-0.6,1.2-1.5,1.2-2.5C51.8,6.4,50.3,4.9,48.5,4.9z M48.5,7.9c0.2,0,0.3,0.1,0.3,0.3s-0.1,0.3-0.3,0.3s-0.3-0.1-0.3-0.3  S48.3,7.9,48.5,7.9z"/>
<rect x="27.9" y="16.6" class="st2" width="41.2" height="0.7"/>
<path class="st1" d="M72.1,10.7v-0.2c0-1.9-1.6-3.5-3.5-3.5H56.2c-0.4-3.9-3.7-7-7.7-7s-7.4,3.1-7.7,7H28.4c-1.9,0-3.5,1.6-3.5,3.5  v0.2H0v106.7h94.6V10.7H72.1z M27.9,10.7v-0.2c0-0.3,0.2-0.5,0.5-0.5H44l-0.2-1.7c0-0.2,0-0.4,0-0.6c0-2.6,2.1-4.8,4.8-4.8  c2.6,0,4.8,2.1,4.8,4.8c0,0.2,0,0.4,0,0.6L53,10h15.6c0.3,0,0.5,0.2,0.5,0.5v0.2v2.9H27.9V10.7z M27.9,16.6h41.2v0.7H27.9V16.6z   M91.6,114.5H3V13.7h21.9v2.9v3.7h47.2v-3.7v-2.9h19.4V114.5z"/>
</svg>