<?xml version="1.0" encoding="utf-8"?>
<!-- Generator: Adobe Illustrator 21.0.0, SVG Export Plug-In . SVG Version: 6.00 Build 0)  -->
<svg version="1.1" id="Слой_1" xmlns="http://www.w3.org/2000/svg" xmlns:xlink="http://www.w3.org/1999/xlink" x="0px" y="0px"
	 viewBox="0 0 32.9 41.2" style="enable-background:new 0 0 32.9 41.2;" xml:space="preserve">
<style type="text/css">
	.st0{fill:#FFFFFF;}
	.st1{fill:#F9B243;}
</style>
<g>
	<path class="st0" d="M30.1,10.4c0-1.2-0.9-2.1-2.1-2.1s-2.1,0.9-2.1,2.1v7.1h-1v-7.1V6.4c0-1.2-0.9-2.1-2.1-2.1s-2.1,0.9-2.1,2.1
		v11.2h-1V6.4V3c0-1.2-0.9-2.1-2.1-2.1S15.7,1.9,15.7,3v3.3v11.2h-1V6.4c0-1.2-0.9-2.1-2.1-2.1s-2.1,0.9-2.1,2.1v11.2
		c0,0.1-0.3,10.6-0.3,10.6l-0.8-0.8c-0.6-0.5-1.1-1.2-1.7-1.9c-2.4-2.8-4.1-4.5-6.5-2.9c1,1.8,5.6,9.5,10.5,13.6l0.1,0.1
		c1.9,2.5,5,4,8.4,4c7.4,0,11.6-3.1,11.6-8.6c0,0-1.8-13.9-1.8-14.1V10.4z"/>
	<path class="st1" d="M10.5,17.5V6.4c0-1.2,0.9-2.1,2.1-2.1s2.1,0.9,2.1,2.1v11.2h1V6.4V3c0-1.2,0.9-2.1,2.1-2.1s2.1,0.9,2.1,2.1
		v3.3v11.2h1V6.4c0-1.2,0.9-2.1,2.1-2.1S25,5.2,25,6.4v4.1v7.1h1v-7.1c0-1.2,0.9-2.1,2.1-2.1s2.1,0.9,2.1,2.1v7.1h0.1h0.8v-7.1
		c0-1.7-1.4-3-3-3c-0.8,0-1.5,0.3-2.1,0.8V6.4c0-1.7-1.4-3-3-3c-0.8,0-1.5,0.3-2.1,0.8V3c0-1.7-1.4-3-3-3s-3,1.4-3,3v1.1
		c-0.5-0.5-1.3-0.8-2.1-0.8c-1.7,0-3,1.4-3,3v11.2h0.7H10.5z"/>
	<path class="st1" d="M10.3,17.5c0,0.1,0,0.3,0,0.4v10.2c0,0,0.2-10.4,0.3-10.6H10.3z"/>
	<path class="st1" d="M31.9,31.6c0,0-1.7-13.9-1.7-14.1h-0.1C30.1,17.6,31.9,31.6,31.9,31.6z"/>
	<path class="st1" d="M30.2,17.5c0,0.1,1.7,14.1,1.7,14.1c0,5.5-4.2,8.6-11.6,8.6c-3.4,0-6.5-1.5-8.4-4l-0.1-0.1
		C6.9,32,2.3,24.3,1.3,22.5c2.4-1.6,4.1,0.1,6.5,2.9c0.6,0.7,1.1,1.3,1.7,1.9l0.8,0.8V17.9c0-0.1,0-0.3,0-0.4H9.6
		c0,0.1-0.3,8.2-0.3,8.2c-0.3-0.3-0.5-0.6-0.8-0.9c-2.1-2.5-4.7-5.6-8.2-2.8L0,22.2l0.2,0.4c0.2,0.4,5.3,9.5,10.9,14.3
		c2,2.7,5.5,4.3,9.2,4.3c11.4,0,12.6-6.7,12.6-9.7c0,0-1.8-13.9-1.8-14H30.2z"/>
</g>
</svg>
