<?xml version="1.0" encoding="utf-8"?>
<!-- Generator: Adobe Illustrator 21.0.0, SVG Export Plug-In . SVG Version: 6.00 Build 0)  -->
<svg version="1.1" id="Слой_1" xmlns="http://www.w3.org/2000/svg" xmlns:xlink="http://www.w3.org/1999/xlink" x="0px" y="0px"
	 viewBox="0 0 31.1 38" style="enable-background:new 0 0 31.1 38;" xml:space="preserve">
<style type="text/css">
	.st0{fill:#FFFFFF;}
	.st1{fill:#F9B243;}
</style>
<g>
	<polygon class="st0" points="16.5,10.7 16.5,10.7 16.5,10.7 	"/>
	<path class="st0" d="M28.2,13.6c0.2-0.7,0-1.5-0.4-2.1c-0.2-0.2-0.5-0.4-0.8-0.6c-0.1,0-0.1-0.1-0.2-0.1c-0.2-0.1-0.4-0.1-0.6-0.1
		c-0.4,0-0.8,0.1-1.1,0.3c-0.4,0.3-0.8,0.7-1,1.2l-0.8,2.5l0,0h0h0h-0.9h-0.2h-0.4h-0.5l0.4-2.3l0.4-2.3l0.1-0.6c0-0.1,0-0.2,0-0.3
		c0-0.5-0.1-0.9-0.4-1.3c-0.3-0.5-0.8-0.8-1.4-0.9c-0.6-0.1-1.2,0-1.6,0.3c-0.5,0.3-0.8,0.8-0.9,1.4c0,0,0,0,0,0l-0.2,1l-1,5h-0.4
		h-1v-1v-3.1v-2V7.9c0,0,0-0.1,0-0.1c-0.1-1.2-1-2.1-2.2-2.1c-1.2,0-2.2,1-2.2,2.2v1v0.2v1v4.7h-1v-4.5v-1V8.9V3.2
		C10.1,2,9.1,1,7.9,1S5.7,2,5.7,3.2v8.2V13v1.9h0l0.2,6.5L6,25.1H4.9c0,0,0,0,0,0c0-0.3-0.1-5.9-0.1-5.9c-1,0.5-2.2,1-3.7,1.7
		c0.3,1.7,1.6,9,6.5,12.6l0.1,0.1c1.9,2.2,5.1,3.5,8.6,3.5c7.6,0,11.9-2.7,11.9-7.4l-0.5-14.2l0.4-1.6L28.2,13.6z M6,18.2
		C6,18.2,6,18.2,6,18.2l0.1,2.6L6,18.2z"/>
	<path class="st1" d="M6,18.2l0.1,2.6L6,18.2C6,18.2,6,18.2,6,18.2z"/>
	<path class="st1" d="M28.9,14.9l0.3-1c0-0.1,0-0.1,0-0.2c0.4-1.6-0.5-3.3-2.1-3.8c-0.7-0.2-1.5-0.2-2.1,0.1
		c-0.4,0.2-0.8,0.4-1.1,0.7c-0.2-0.1-0.5-0.1-0.7-0.2l0.1-0.7c0-0.1,0-0.2,0-0.3c0.1-0.7-0.1-1.4-0.5-2.1c-0.5-0.7-1.2-1.2-2-1.3
		c-0.8-0.2-1.7,0-2.4,0.5c-0.7,0.5-1.2,1.2-1.3,2l0,0.1l-0.2,1c-0.1,0-0.3,0-0.4,0v-1V7.9c0,0,0-0.1,0-0.1c-0.1-1.7-1.5-3.1-3.2-3.1
		c-0.8,0-1.6,0.3-2.2,0.9V3.2C11.1,1.4,9.7,0,7.9,0S4.7,1.4,4.7,3.2v9.5v2.2h0c0,0,0,3.2,0,3.2c-1.2,0.5-2.7,1.2-4.4,2.1L0,20.3
		l0,0.4c0,0.4,1.1,9.3,7,13.6c2.1,2.4,5.6,3.8,9.4,3.8c11.7,0,12.9-5.9,12.9-8.4c0,0-0.5-14.2-0.5-14.2L28.9,14.9z M16.5,10.7
		L16.5,10.7L16.5,10.7L16.5,10.7z M28.3,29.6c0,4.7-4.4,7.4-11.9,7.4c-3.5,0-6.7-1.3-8.6-3.5l-0.1-0.1c-4.9-3.5-6.3-10.9-6.5-12.6
		c1.5-0.7,2.7-1.3,3.7-1.7c0,0,0,5.6,0.1,5.9c0,0,0,0,0,0H6l-0.1-3.8l-0.2-6.5h0V13v-1.6V3.2C5.7,2,6.7,1,7.9,1s2.2,1,2.2,2.2v5.7
		v0.4v1v4.5h1v-4.7v-1V8.9v-1c0-1.2,1-2.2,2.2-2.2c1.2,0,2.1,0.9,2.2,2.1c0,0,0,0.1,0,0.1v0.9v2v3.1v1h1h0.4l1-5l0.2-1c0,0,0,0,0,0
		c0.1-0.6,0.4-1,0.9-1.4C19.4,7.1,20,7,20.6,7.1C21.2,7.2,21.7,7.6,22,8c0.3,0.4,0.4,0.8,0.4,1.3c0,0.1,0,0.2,0,0.3l-0.1,0.6
		l-0.4,2.3l-0.4,2.3h0.5h0.4h0.2h0.9h0h0l0,0l0.8-2.5c0.2-0.5,0.5-0.9,1-1.2c0.3-0.2,0.7-0.3,1.1-0.3c0.2,0,0.4,0,0.6,0.1
		c0.1,0,0.1,0.1,0.2,0.1c0.3,0.2,0.5,0.4,0.8,0.6c0.5,0.6,0.7,1.3,0.4,2.1l-0.1,0.2l-0.4,1.6L28.3,29.6z"/>
</g>
</svg>
