<?xml version="1.0" encoding="utf-8"?>
<!-- Generator: Adobe Illustrator 21.0.0, SVG Export Plug-In . SVG Version: 6.00 Build 0)  -->
<svg version="1.1" id="Слой_1" xmlns="http://www.w3.org/2000/svg" xmlns:xlink="http://www.w3.org/1999/xlink" x="0px" y="0px"
	 viewBox="0 0 77.8 60.6" style="enable-background:new 0 0 77.8 60.6;" xml:space="preserve">
<style type="text/css">
	.st0{fill:#F9B243;}
</style>
<g>
	<path class="st0" d="M12.3,51.8H7.2c-0.3,0-0.5-0.2-0.5-0.5s0.2-0.5,0.5-0.5h5.1c0.3,0,0.5,0.2,0.5,0.5S12.6,51.8,12.3,51.8z"/>
</g>
<g>
	<path class="st0" d="M76.1,54.9H53.1V4.6c0-2.5,2-4.6,4.6-4.6h15.6c2.5,0,4.6,2,4.6,4.6v48.7C77.8,54.1,77,54.9,76.1,54.9z
		 M54.1,53.9h22.1c0.3,0,0.6-0.3,0.6-0.6V4.6c0-2-1.6-3.6-3.6-3.6H57.6c-2,0-3.6,1.6-3.6,3.6V53.9z"/>
</g>
<g>
	<path class="st0" d="M74.3,56.8H3.6c-1.9,0-3.5-1.6-3.5-3.5V34.2c0-1.9,1.6-3.5,3.5-3.5h74.2v22.6C77.8,55.2,76.2,56.8,74.3,56.8z
		 M3.6,31.7c-1.4,0-2.5,1.1-2.5,2.5v19.1c0,1.4,1.1,2.5,2.5,2.5h70.7c1.4,0,2.5-1.1,2.5-2.5V31.7H3.6z"/>
</g>
<g>
	<path class="st0" d="M61,28.9h-4.9c-0.3,0-0.5-0.2-0.5-0.5s0.2-0.5,0.5-0.5H61c0.3,0,0.5,0.2,0.5,0.5S61.3,28.9,61,28.9z"/>
</g>
<g>
	<path class="st0" d="M61,34.5h-4.9c-0.3,0-0.5-0.2-0.5-0.5s0.2-0.5,0.5-0.5H61c0.3,0,0.5,0.2,0.5,0.5S61.3,34.5,61,34.5z"/>
</g>
<g>
	<path class="st0" d="M36.3,37h-4.9c-0.3,0-0.5-0.2-0.5-0.5s0.2-0.5,0.5-0.5h4.9c0.3,0,0.5,0.2,0.5,0.5S36.6,37,36.3,37z"/>
</g>
<g>
	<path class="st0" d="M15.2,37h-4.9c-0.3,0-0.5-0.2-0.5-0.5S10,36,10.3,36h4.9c0.3,0,0.5,0.2,0.5,0.5S15.5,37,15.2,37z"/>
</g>
<g>
	<path class="st0" d="M53.6,56.7c-0.3,0-0.5-0.2-0.5-0.5V30.1c0-0.3,0.2-0.5,0.5-0.5s0.5,0.2,0.5,0.5v26.1
		C54.1,56.5,53.8,56.7,53.6,56.7z"/>
</g>
<g>
	<path class="st0" d="M25,56.7c-0.3,0-0.5-0.2-0.5-0.5V31.5c0-0.3,0.2-0.5,0.5-0.5s0.5,0.2,0.5,0.5v24.7
		C25.5,56.5,25.3,56.7,25,56.7z"/>
</g>
<g>
	<path class="st0" d="M25,44.1H0.5c-0.3,0-0.5-0.2-0.5-0.5s0.2-0.5,0.5-0.5H25c0.3,0,0.5,0.2,0.5,0.5S25.3,44.1,25,44.1z"/>
</g>
<g>
	<path class="st0" d="M24.4,20.6H3c-0.3,0-0.5-0.2-0.5-0.5s0.2-0.5,0.5-0.5h21.4c0.3,0,0.5,0.2,0.5,0.5S24.7,20.6,24.4,20.6z"/>
</g>
<g>
	<path class="st0" d="M10.3,29.2H3.9c-0.3,0-0.5-0.2-0.5-0.5s0.2-0.5,0.5-0.5h6.3c0.3,0,0.5,0.2,0.5,0.5S10.5,29.2,10.3,29.2z"/>
</g>
<g>
	<path class="st0" d="M22.2,29.2h-6.3c-0.3,0-0.5-0.2-0.5-0.5s0.2-0.5,0.5-0.5h6.3c0.3,0,0.5,0.2,0.5,0.5S22.5,29.2,22.2,29.2z"/>
</g>
<g>
	<path class="st0" d="M27.9,31.6c-0.3,0-0.5-0.2-0.5-0.5v-5.2c0-2,1.6-3.6,3.6-3.6h0.3c2,0,3.6,1.6,3.6,3.6c0,0.3-0.2,0.5-0.5,0.5
		s-0.5-0.2-0.5-0.5c0-1.4-1.2-2.6-2.6-2.6h-0.3c-1.4,0-2.6,1.2-2.6,2.6v5.2C28.4,31.4,28.1,31.6,27.9,31.6z"/>
</g>
<g>
	<g>
		<path class="st0" d="M15.8,60.8c-0.3,0-0.5-0.2-0.5-0.5v-3.5c0-0.3,0.2-0.5,0.5-0.5s0.5,0.2,0.5,0.5v3.5
			C16.3,60.6,16.1,60.8,15.8,60.8z"/>
	</g>
	<g>
		<path class="st0" d="M63.5,60.8c-0.3,0-0.5-0.2-0.5-0.5v-3.5c0-0.3,0.2-0.5,0.5-0.5s0.5,0.2,0.5,0.5v3.5
			C64,60.6,63.8,60.8,63.5,60.8z"/>
	</g>
</g>
<g>
	<path class="st0" d="M20.1,20.6H7.3V4.2h12.8V20.6z M8.3,19.6h10.8V5.2H8.3V19.6z"/>
</g>
<g>
	<path class="st0" d="M54.1,31.6H36.8V20.2h17.2V31.6z M37.8,30.6h15.2v-9.4H37.8V30.6z"/>
</g>
<g>
	<path class="st0" d="M48.4,29.2H39V23h9.4V29.2z M40,28.2h7.4V24H40V28.2z"/>
</g>
<g>
	<path class="st0" d="M50.7,25.9c-0.7,0-1.2-0.5-1.2-1.2s0.5-1.2,1.2-1.2c0.7,0,1.2,0.5,1.2,1.2S51.4,25.9,50.7,25.9z M50.7,24.5
		c-0.1,0-0.2,0.1-0.2,0.2c0,0.2,0.4,0.2,0.4,0C50.9,24.6,50.8,24.5,50.7,24.5z"/>
</g>
<g>
	<path class="st0" d="M50.7,28.9c-0.7,0-1.2-0.5-1.2-1.2s0.5-1.2,1.2-1.2c0.7,0,1.2,0.5,1.2,1.2S51.4,28.9,50.7,28.9z M50.7,27.4
		c-0.1,0-0.2,0.1-0.2,0.2c0,0.2,0.4,0.2,0.4,0C50.9,27.5,50.8,27.4,50.7,27.4z"/>
</g>
<g>
	<path class="st0" d="M26.3,9.9c-0.3,0-0.5-0.2-0.5-0.5V4.8c0-0.3,0.2-0.5,0.5-0.5s0.5,0.2,0.5,0.5v4.6C26.8,9.7,26.5,9.9,26.3,9.9z
		"/>
</g>
<g>
	<path class="st0" d="M30.9,17.1h-9.3v-0.5c0-1.8,1.1-3.5,2.7-4.2v-1c0-1,0.9-1.9,1.9-1.9s1.9,0.9,1.9,1.9v1
		c1.7,0.7,2.7,2.4,2.7,4.2V17.1z M22.7,16.1h7.2c-0.2-1.3-1.1-2.5-2.4-2.9l-0.3-0.1v-1.7c0-0.5-0.4-0.9-0.9-0.9s-0.9,0.4-0.9,0.9
		v1.7L25,13.2C23.8,13.6,22.8,14.8,22.7,16.1z"/>
</g>
<g>
	<g>
		<path class="st0" d="M36.6,10.4c-0.3,0-0.5-0.2-0.5-0.5V5.3c0-0.3,0.2-0.5,0.5-0.5s0.5,0.2,0.5,0.5v4.6
			C37.1,10.2,36.9,10.4,36.6,10.4z"/>
	</g>
	<g>
		<path class="st0" d="M41.2,17.1H32v-0.5c0-1.8,1.1-3.5,2.7-4.2v-1c0-1,0.9-1.9,1.9-1.9s1.9,0.9,1.9,1.9v1c1.7,0.7,2.7,2.4,2.7,4.2
			V17.1z M33,16.1h7.2c-0.2-1.3-1.1-2.5-2.4-2.9l-0.3-0.1v-1.7c0-0.5-0.4-0.9-0.9-0.9s-0.9,0.4-0.9,0.9v1.7l-0.3,0.1
			C34.1,13.6,33.2,14.8,33,16.1z"/>
	</g>
</g>
<g>
	<g>
		<path class="st0" d="M47.3,10.4c-0.3,0-0.5-0.2-0.5-0.5V5.3c0-0.3,0.2-0.5,0.5-0.5s0.5,0.2,0.5,0.5v4.6
			C47.8,10.2,47.6,10.4,47.3,10.4z"/>
	</g>
	<g>
		<path class="st0" d="M51.9,17.1h-9.3v-0.5c0-1.8,1.1-3.5,2.7-4.2v-1c0-1,0.9-1.9,1.9-1.9s1.9,0.9,1.9,1.9v1
			c1.7,0.7,2.7,2.4,2.7,4.2V17.1z M43.7,16.1h7.2c-0.2-1.3-1.1-2.5-2.4-2.9l-0.3-0.1v-1.7c0-0.5-0.4-0.9-0.9-0.9s-0.9,0.4-0.9,0.9
			v1.7l-0.3,0.1C44.8,13.6,43.9,14.8,43.7,16.1z"/>
	</g>
</g>
</svg>
