<?xml version="1.0" encoding="utf-8"?>
<!-- Generator: Adobe Illustrator 21.0.0, SVG Export Plug-In . SVG Version: 6.00 Build 0)  -->
<svg version="1.1" id="Слой_1" xmlns="http://www.w3.org/2000/svg" xmlns:xlink="http://www.w3.org/1999/xlink" x="0px" y="0px"
	 viewBox="0 0 60.7 60.6" style="enable-background:new 0 0 60.7 60.6;" xml:space="preserve">
<style type="text/css">
	.st0{fill:none;}
	.st1{fill:#F9B243;}
</style>
<path class="st0" d="M22.5,41.9C22.4,41.9,22.4,41.9,22.5,41.9c-0.2,0-0.2,0.1-0.3,0.2c0,0.1-0.1,0.2,0,0.3L24.7,53l0.7-0.2
	l-2.6-10.6C22.8,42.1,22.6,41.9,22.5,41.9z"/>
<path class="st0" d="M28.5,38.7h-4.4h-0.9H17h-0.7H9.9H7.3v14.6h4.8V42.1c0-0.7,0.6-1.3,1.3-1.3c0.7,0,1.3,0.6,1.3,1.3v11.2h0.7
	V42.1c0-0.7,0.6-1.3,1.3-1.3s1.3,0.6,1.3,1.3v11.2h0.6V42.1c0-0.7,0.6-1.3,1.3-1.3c0.5,0,1,0.3,1.2,0.8c0,0,0,0,0,0
	c0.2-0.3,0.5-0.5,0.8-0.6c0.7-0.2,1.4,0.3,1.6,1l2.8,11.3h5.7V38.7H28.5z"/>
<path class="st0" d="M19,17.9c1.1-0.2,2.2-0.6,3.3-1.2c2.3-1.3,4.2-3.4,4.9-5.7c0.7-2.2,0.6-4.5-0.4-6.4H7.3v12.1l7.2-2L19,17.9z"/>
<polygon class="st0" points="21.4,53.3 23.8,53.3 21.4,43.7 "/>
<path class="st0" d="M20.1,41.8c-0.2,0-0.3,0.2-0.3,0.3v10.9h0.7V42.1C20.4,41.9,20.3,41.8,20.1,41.8z"/>
<path class="st0" d="M45.8,41.8c-0.2,0-0.3,0.2-0.3,0.3v10.9h0.7V42.1C46.1,41.9,45.9,41.8,45.8,41.8z"/>
<path class="st0" d="M50,22.2H33.3v15.5H42V26.8c0-0.7,0.6-1.3,1.3-1.3c0.7,0,1.3,0.6,1.3,1.3v10.9h3V26.8c0-0.7,0.6-1.3,1.3-1.3
	c0.7,0,1.3,0.6,1.3,1.3v10.9h0.5V26.8c0-0.7,0.6-1.3,1.3-1.3c0.7,0,1.3,0.6,1.3,1.3v10.9H58V22.2h-5.3H50z"/>
<path class="st0" d="M43.9,21.2L43.9,21.2L48.1,10c0.1-0.3,0.4-0.6,0.7-0.7c0.3-0.1,0.7-0.2,1,0c0.2,0.1,0.3,0.2,0.4,0.3
	c0.2-0.3,0.6-0.6,1.1-0.6c0.7,0,1.3,0.6,1.3,1.3v10.9H58V4.6H33.3v16.6H43.9z"/>
<path class="st0" d="M16.8,41.8c-0.2,0-0.3,0.2-0.3,0.3v10.9h0.7V42.1C17.2,41.9,17,41.8,16.8,41.8z"/>
<path class="st0" d="M28.2,11.3c-0.9,2.5-2.8,4.8-5.4,6.2c-0.9,0.5-1.8,0.9-2.7,1.1l0.2,0.1l-1,2.4h13V4.6h-4.4
	C28.8,6.6,28.9,9.1,28.2,11.3z"/>
<path class="st0" d="M50.8,38.7h-0.5h-2.7h-3H42h-8.7v14.6h7.8V42.1c0-0.7,0.6-1.3,1.3-1.3s1.3,0.6,1.3,1.3v11.2h0.7V42.1
	c0-0.7,0.6-1.3,1.3-1.3s1.3,0.6,1.3,1.3v11.2h0.6V42.1c0-0.7,0.6-1.3,1.3-1.3c0.7,0,1.3,0.6,1.3,1.3v11.2h0.5V42.1
	c0-0.7,0.6-1.3,1.3-1.3c0.7,0,1.3,0.6,1.3,1.3v11.2H58V38.7h-4.5H50.8z"/>
<path class="st0" d="M52.2,41.8c-0.2,0-0.3,0.2-0.3,0.3v10.9h0.7V42.1C52.5,41.9,52.4,41.8,52.2,41.8z"/>
<path class="st0" d="M49,41.8c-0.2,0-0.3,0.2-0.3,0.3v10.9h0.7V42.1C49.4,41.9,49.2,41.8,49,41.8z"/>
<path class="st0" d="M42.4,41.8c-0.2,0-0.3,0.2-0.3,0.3v10.9h0.7V42.1C42.7,41.9,42.6,41.8,42.4,41.8z"/>
<path class="st0" d="M52.2,26.5c-0.2,0-0.3,0.2-0.3,0.3v10.9h0.7V26.8C52.5,26.6,52.4,26.5,52.2,26.5z"/>
<path class="st0" d="M49,26.5c-0.2,0-0.3,0.2-0.3,0.3v10.9h0.7V26.8C49.4,26.6,49.2,26.5,49,26.5z"/>
<path class="st0" d="M43.3,26.5c-0.2,0-0.3,0.2-0.3,0.3v10.9h0.7V26.8C43.7,26.6,43.5,26.5,43.3,26.5z"/>
<circle class="st0" cx="25.9" cy="29.3" r="0.5"/>
<path class="st0" d="M13.5,41.8c-0.2,0-0.3,0.2-0.3,0.3v10.9h0.7V42.1C13.8,41.9,13.7,41.8,13.5,41.8z"/>
<polygon class="st0" points="46.7,21.2 50,21.2 50,12.5 "/>
<path class="st0" d="M51.7,10.3c0-0.2-0.2-0.3-0.3-0.3S51,10.1,51,10.3v10.9h0.7V10.3z"/>
<rect x="10.9" y="35.9" class="st0" width="5.1" height="1.8"/>
<path class="st0" d="M20.7,26.7v4.9h0.8v-3.7C21.5,27.4,21.2,26.9,20.7,26.7z"/>
<path class="st0" d="M9.9,34.9h1.2v-2.5h1v2.5h0.6v-2.5h1v2.5h0.6v-2.5h1v2.5h0.8v-3.3h1.6v-3.7c0-1.3,1-2.3,2.3-2.3s2.3,1,2.3,2.3
	v3.7h1.6v2.3h1.2v-3.2c-0.6-0.2-1-0.8-1-1.5c0-0.9,0.7-1.5,1.5-1.5c0.9,0,1.5,0.7,1.5,1.5c0,0.7-0.4,1.2-1,1.5v3.2h2.2v3.8h3.7V22.2
	H18.9l-1.3,3.2L7.3,28.3v9.4h2.6V34.9z"/>
<rect x="24.2" y="34.9" class="st0" width="3.3" height="2.8"/>
<path class="st0" d="M18.9,27.9v3.7h0.8v-4.9C19.2,26.9,18.9,27.4,18.9,27.9z"/>
<polygon class="st0" points="22.5,32.6 17.9,32.6 17.2,32.6 17.2,37.7 23.1,37.7 23.1,32.6 "/>
<path class="st0" d="M49.7,10.6c0-0.1,0-0.2,0-0.3c0-0.1-0.1-0.1-0.2-0.2c-0.1,0-0.2,0-0.3,0c-0.1,0-0.1,0.1-0.2,0.2l-3.9,10.2
	l0.6,0.2L49.7,10.6z"/>
<path class="st0" d="M6.3,3.6h19.8c-0.3-0.4-0.6-0.7-1-1H5.8v14.6l0.6-0.2V3.6z"/>
<path class="st0" d="M19.8,1.1c-0.3,0.1-0.5,0.2-0.5,0.3l-0.2,0.1h4.5C22.4,1,21.1,0.8,19.8,1.1z"/>
<path class="st0" d="M27.4,3.6H59v50.7H6.3V28.6l-0.6,0.2v27.9h54.1V2.5H26.6c0.2,0.2,0.4,0.4,0.5,0.6C27.2,3.3,27.3,3.4,27.4,3.6z"
	/>
<rect x="11.2" y="57.6" class="st1" width="1" height="3"/>
<rect x="53.3" y="57.6" class="st1" width="1" height="3"/>
<path class="st1" d="M60.8,1.5H25.6c0.4,0.3,0.7,0.6,1.1,1h33.2v54.1H5.8V28.7l-1,0.3v28.6h6.4v-0.1h1v0.1h41.2v-0.1h1v0.1h6.5V1.5z
	"/>
<path class="st1" d="M5.8,2.5h19.4c-0.5-0.4-1-0.7-1.6-1h-4.5l-0.6,0.4c-0.1-0.1-0.2-0.3-0.2-0.4H4.8v15.8l1-0.3V2.5z"/>
<rect x="11.2" y="57.5" class="st1" width="1" height="0.1"/>
<rect x="53.3" y="57.5" class="st1" width="1" height="0.1"/>
<rect x="32.3" y="22.2" class="st1" width="1" height="15.5"/>
<rect x="32.3" y="38.7" class="st1" width="1" height="14.6"/>
<rect x="32.3" y="4.6" class="st1" width="1" height="16.6"/>
<polygon class="st1" points="32.3,22.2 32.3,21.2 19.3,21.2 18.9,22.2 "/>
<rect x="52.7" y="21.2" class="st1" width="5.3" height="1"/>
<polygon class="st1" points="50,22.2 50,21.2 46.7,21.2 46.4,22.1 43.9,21.2 33.3,21.2 33.3,22.2 "/>
<rect x="32.3" y="21.2" class="st1" width="1" height="1"/>
<rect x="44.7" y="37.7" class="st1" width="3" height="1"/>
<rect x="33.3" y="37.7" class="st1" width="8.7" height="1"/>
<rect x="7.3" y="37.7" class="st1" width="2.6" height="1"/>
<rect x="50.4" y="37.7" class="st1" width="0.5" height="1"/>
<rect x="28.5" y="37.7" class="st1" width="3.7" height="1"/>
<rect x="53.5" y="37.7" class="st1" width="4.5" height="1"/>
<rect x="32.3" y="37.7" class="st1" width="1" height="1"/>
<path class="st1" d="M50.6,10.9L50,12.5v8.7h1V10.3c0-0.2,0.2-0.3,0.3-0.3s0.3,0.2,0.3,0.3v10.9h1V10.3c0-0.7-0.6-1.3-1.3-1.3
	c-0.5,0-0.8,0.2-1.1,0.6c0.1,0.1,0.2,0.3,0.3,0.4C50.7,10.2,50.7,10.6,50.6,10.9z"/>
<polygon class="st1" points="51,21.2 50,21.2 50,22.2 52.7,22.2 52.7,21.2 51.7,21.2 "/>
<path class="st1" d="M50,12.5v-2.3c0-0.3,0.1-0.5,0.3-0.8c-0.1-0.1-0.3-0.2-0.4-0.3c-0.3-0.1-0.7-0.1-1,0c-0.3,0.1-0.6,0.4-0.7,0.7
	l-4.2,11.2l0.1,0h2.8L50,12.5z M49,10.4c0-0.1,0.1-0.2,0.2-0.2c0.1,0,0.2,0,0.3,0c0.1,0,0.2,0.1,0.2,0.2c0,0.1,0,0.2,0,0.3
	l-3.9,10.2l-0.6-0.2L49,10.4z"/>
<polygon class="st1" points="46.7,21.2 43.9,21.2 46.4,22.1 "/>
<path class="st1" d="M50,12.5l0.6-1.6c0.1-0.3,0.1-0.7,0-1c-0.1-0.2-0.2-0.3-0.3-0.4C50.1,9.7,50,10,50,10.3V12.5z"/>
<path class="st1" d="M51.8,26.8c0-0.2,0.2-0.3,0.3-0.3s0.3,0.2,0.3,0.3v10.9h1V26.8c0-0.7-0.6-1.3-1.3-1.3c-0.7,0-1.3,0.6-1.3,1.3
	v10.9h1V26.8z"/>
<polygon class="st1" points="53.5,38.7 53.5,37.7 52.5,37.7 51.8,37.7 50.8,37.7 50.8,38.7 "/>
<path class="st1" d="M48.7,26.8c0-0.2,0.2-0.3,0.3-0.3s0.3,0.2,0.3,0.3v10.9h1V26.8c0-0.7-0.6-1.3-1.3-1.3c-0.7,0-1.3,0.6-1.3,1.3
	v10.9h1V26.8z"/>
<polygon class="st1" points="50.4,38.7 50.4,37.7 49.4,37.7 48.7,37.7 47.7,37.7 47.7,38.7 "/>
<path class="st1" d="M43,26.8c0-0.2,0.2-0.3,0.3-0.3s0.3,0.2,0.3,0.3v10.9h1V26.8c0-0.7-0.6-1.3-1.3-1.3c-0.7,0-1.3,0.6-1.3,1.3
	v10.9h1V26.8z"/>
<polygon class="st1" points="44.7,38.7 44.7,37.7 43.7,37.7 43,37.7 42,37.7 42,38.7 "/>
<path class="st1" d="M52.2,40.8c-0.7,0-1.3,0.6-1.3,1.3v11.2h2.7V42.1C53.5,41.4,52.9,40.8,52.2,40.8z M52.5,53.1h-0.7V42.1
	c0-0.2,0.2-0.3,0.3-0.3s0.3,0.2,0.3,0.3V53.1z"/>
<path class="st1" d="M49,40.8c-0.7,0-1.3,0.6-1.3,1.3v11.2h2.7V42.1C50.4,41.4,49.8,40.8,49,40.8z M49.4,53.1h-0.7V42.1
	c0-0.2,0.2-0.3,0.3-0.3s0.3,0.2,0.3,0.3V53.1z"/>
<path class="st1" d="M45.8,40.8c-0.7,0-1.3,0.6-1.3,1.3v11.2h2.7V42.1C47.1,41.4,46.5,40.8,45.8,40.8z M46.1,53.1h-0.7V42.1
	c0-0.2,0.2-0.3,0.3-0.3s0.3,0.2,0.3,0.3V53.1z"/>
<path class="st1" d="M42.4,40.8c-0.7,0-1.3,0.6-1.3,1.3v11.2h2.7V42.1C43.7,41.4,43.1,40.8,42.4,40.8z M42.7,53.1h-0.7V42.1
	c0-0.2,0.2-0.3,0.3-0.3s0.3,0.2,0.3,0.3V53.1z"/>
<path class="st1" d="M22.1,41c-0.3,0.1-0.6,0.3-0.8,0.6c0,0,0,0,0,0c0.1,0.2,0.1,0.3,0.1,0.5v1.5l2.4,9.6h2.8L23.8,42
	C23.6,41.2,22.9,40.8,22.1,41z M24.7,53l-2.6-10.6c0-0.1,0-0.2,0-0.3c0-0.1,0.1-0.1,0.2-0.2c0,0,0.1,0,0.1,0c0.2,0,0.3,0.1,0.3,0.3
	l2.6,10.6L24.7,53z"/>
<path class="st1" d="M21.2,42.6c-0.1-0.3,0-0.7,0.2-1c-0.2-0.5-0.7-0.8-1.2-0.8c-0.7,0-1.3,0.6-1.3,1.3v11.2h2.7v-9.6L21.2,42.6z
	 M20.4,53.1h-0.7V42.1c0-0.2,0.2-0.3,0.3-0.3s0.3,0.2,0.3,0.3V53.1z"/>
<path class="st1" d="M21.2,42.6l0.3,1.1v-1.5c0-0.2,0-0.4-0.1-0.5C21.1,41.9,21.1,42.3,21.2,42.6z"/>
<path class="st1" d="M16.8,40.8c-0.7,0-1.3,0.6-1.3,1.3v11.2h2.7V42.1C18.2,41.4,17.6,40.8,16.8,40.8z M17.2,53.1h-0.7V42.1
	c0-0.2,0.2-0.3,0.3-0.3s0.3,0.2,0.3,0.3V53.1z"/>
<path class="st1" d="M13.5,40.8c-0.7,0-1.3,0.6-1.3,1.3v11.2h2.7V42.1C14.8,41.4,14.2,40.8,13.5,40.8z M13.8,53.1h-0.7V42.1
	c0-0.2,0.2-0.3,0.3-0.3s0.3,0.2,0.3,0.3V53.1z"/>
<polygon class="st1" points="17,37.7 17.2,37.7 17.2,32.6 17.9,32.6 17.9,31.6 16.2,31.6 16.2,34.9 17,34.9 "/>
<polygon class="st1" points="23.1,32.6 23.1,37.7 23.2,37.7 23.2,33.9 24.1,33.9 24.1,31.6 22.5,31.6 22.5,32.6 "/>
<polygon class="st1" points="23.1,37.7 17.2,37.7 17,37.7 17,38.7 23.2,38.7 23.2,37.7 "/>
<polygon class="st1" points="24.2,37.7 24.2,34.9 27.5,34.9 27.5,37.7 28.5,37.7 28.5,33.9 26.4,33.9 26.4,33.9 25.4,33.9 
	25.4,33.9 24.1,33.9 24.1,37.7 "/>
<polygon class="st1" points="27.5,37.7 24.2,37.7 24.1,37.7 24.1,38.7 28.5,38.7 28.5,37.7 "/>
<rect x="23.2" y="33.9" class="st1" width="0.9" height="3.8"/>
<rect x="23.2" y="37.7" class="st1" width="0.9" height="1"/>
<path class="st1" d="M18.9,27.9c0-0.6,0.3-1,0.8-1.2v-0.6h1v0.6c0.5,0.2,0.8,0.7,0.8,1.2v3.7h1v-3.7c0-1.3-1-2.3-2.3-2.3
	s-2.3,1-2.3,2.3v3.7h1V27.9z"/>
<polygon class="st1" points="22.5,32.6 22.5,31.6 21.5,31.6 20.7,31.6 20.7,31.7 19.7,31.7 19.7,31.6 18.9,31.6 17.9,31.6 
	17.9,32.6 "/>
<path class="st1" d="M20.2,26.6c-0.2,0-0.3,0-0.5,0.1v4.9h1v-4.9C20.5,26.6,20.4,26.6,20.2,26.6z"/>
<path class="st1" d="M20.7,26.7v-0.6h-1v0.6c0.2-0.1,0.3-0.1,0.5-0.1S20.5,26.6,20.7,26.7z"/>
<rect x="19.7" y="31.6" class="st1" width="1" height="0.2"/>
<path class="st1" d="M26.4,30.7c-0.2,0.1-0.3,0.1-0.5,0.1s-0.3,0-0.5-0.1v3.2h1V30.7z"/>
<rect x="25.4" y="33.9" class="st1" width="1" height="0"/>
<path class="st1" d="M26.4,30.3v0.4c0.6-0.2,1-0.8,1-1.5c0-0.9-0.7-1.5-1.5-1.5c-0.9,0-1.5,0.7-1.5,1.5c0,0.7,0.4,1.2,1,1.5v-0.4
	H26.4z M25.9,28.7c0.3,0,0.5,0.2,0.5,0.5c0,0.3-0.2,0.5-0.5,0.5c-0.3,0-0.5-0.2-0.5-0.5C25.3,29,25.6,28.7,25.9,28.7z"/>
<path class="st1" d="M26.4,30.7v-0.4h-1v0.4c0.2,0.1,0.3,0.1,0.5,0.1S26.2,30.8,26.4,30.7z"/>
<polygon class="st1" points="10.9,35.9 16,35.9 16,37.7 16.2,37.7 16.2,34.9 15.4,34.9 15.4,34.9 14.4,34.9 14.4,34.9 13.8,34.9 
	13.8,34.9 12.8,34.9 12.8,34.9 12.2,34.9 12.2,34.9 11.2,34.9 11.2,34.9 9.9,34.9 9.9,37.7 10.9,37.7 "/>
<polygon class="st1" points="16,37.7 10.9,37.7 9.9,37.7 9.9,38.7 16.2,38.7 16.2,37.7 "/>
<rect x="16.2" y="34.9" class="st1" width="0.7" height="2.8"/>
<rect x="16.2" y="37.7" class="st1" width="0.7" height="1"/>
<rect x="11.2" y="32.4" class="st1" width="1" height="2.5"/>
<rect x="11.2" y="34.9" class="st1" width="1" height="0"/>
<rect x="12.8" y="32.4" class="st1" width="1" height="2.5"/>
<rect x="12.8" y="34.9" class="st1" width="1" height="0"/>
<rect x="14.4" y="32.4" class="st1" width="1" height="2.5"/>
<rect x="14.4" y="34.9" class="st1" width="1" height="0"/>
<path class="st1" d="M6.3,16.9l1-0.3V4.6h19.5c-0.1-0.3-0.3-0.6-0.5-0.8c0-0.1-0.1-0.1-0.1-0.2H6.3V16.9z"/>
<path class="st1" d="M32.3,4.6V4.1h1v0.5H58v16.6h0.5v1H58v15.5h0.5v1H58v14.6h-4.5v0.8h-2.7v-0.8h-0.5v0.8h-2.7v-0.8h-0.6v0.8h-2.7
	v-0.8h-0.7v0.8h-2.7v-0.8h-7.8v0.3h-1v-0.3h-5.7l0.1,0.3L24,54.2l-0.2-0.9h-2.4v0.8h-2.7v-0.8h-0.6v0.8h-2.7v-0.8h-0.7v0.8h-2.7
	v-0.8H7.3V38.7H6.8v-1h0.5v-9.4l-1,0.3v25.7H59V3.6H27.4c0.2,0.3,0.4,0.7,0.5,1H32.3z"/>
<rect x="32.3" y="53.3" class="st1" width="1" height="0.3"/>
<rect x="32.3" y="4.1" class="st1" width="1" height="0.5"/>
<rect x="58" y="21.2" class="st1" width="0.5" height="1"/>
<rect x="58" y="37.7" class="st1" width="0.5" height="1"/>
<rect x="6.8" y="37.7" class="st1" width="0.5" height="1"/>
<rect x="50.8" y="53.3" class="st1" width="2.7" height="0.8"/>
<rect x="47.7" y="53.3" class="st1" width="2.7" height="0.8"/>
<rect x="44.4" y="53.3" class="st1" width="2.7" height="0.8"/>
<rect x="41.1" y="53.3" class="st1" width="2.7" height="0.8"/>
<polygon class="st1" points="24,54.2 26.6,53.6 26.6,53.3 23.8,53.3 "/>
<rect x="18.8" y="53.3" class="st1" width="2.7" height="0.8"/>
<rect x="15.5" y="53.3" class="st1" width="2.7" height="0.8"/>
<rect x="12.1" y="53.3" class="st1" width="2.7" height="0.8"/>
<path class="st1" d="M19.3,1.4c0-0.1,0.3-0.3,0.5-0.3c1.3-0.3,2.6-0.1,3.8,0.5h1.9c-1.7-1.3-3.9-1.9-6-1.4c-0.5,0.1-1.1,0.5-1.2,1
	c-0.1,0.2-0.1,0.3,0,0.5h0.8L19.3,1.4z"/>
<path class="st1" d="M26.2,3.6h1.2c-0.1-0.1-0.2-0.3-0.2-0.4c-0.2-0.2-0.3-0.4-0.5-0.6h-1.4C25.6,2.8,25.9,3.2,26.2,3.6z"/>
<path class="st1" d="M27.2,11c-0.8,2.3-2.6,4.4-4.9,5.7c-1.1,0.6-2.2,1-3.3,1.2l1.1,0.8c0.9-0.3,1.8-0.6,2.7-1.1
	c2.6-1.4,4.5-3.7,5.4-6.2c0.8-2.2,0.7-4.7-0.3-6.8h-1.1C27.8,6.4,28,8.8,27.2,11z"/>
<path class="st1" d="M19.1,1.5h-0.8c0,0.1,0.1,0.3,0.2,0.4L19.1,1.5z"/>
<path class="st1" d="M25.2,2.5h1.4c-0.3-0.4-0.7-0.7-1.1-1h-1.9C24.2,1.8,24.7,2.1,25.2,2.5z"/>
<path class="st1" d="M26.8,4.6h1.1c-0.2-0.3-0.3-0.7-0.5-1h-1.2c0,0.1,0.1,0.1,0.1,0.2C26.5,4,26.7,4.3,26.8,4.6z"/>
<polygon class="st1" points="6.3,16.9 5.8,17.1 5.8,17.6 6.3,17.4 "/>
<path class="st1" d="M19.7,19l-0.9,2.2h0.5l1-2.4l-0.2-0.1c-0.2,0.1-0.4,0.1-0.6,0.1L19.7,19z"/>
<path class="st1" d="M14.5,15.1l3.8,2.8c0.2,0,0.5-0.1,0.7-0.1l-4.4-3.3l-7.2,2v0.5L14.5,15.1z"/>
<polygon class="st1" points="3.4,28.9 0.6,19 4.8,17.9 4.8,17.4 0,18.7 3.1,29.5 4.8,29 4.8,28.5 "/>
<polygon class="st1" points="6.3,28 5.8,28.2 5.8,28.7 6.3,28.6 "/>
<polygon class="st1" points="18.9,22.2 18.4,22.2 17.2,25 7.3,27.8 7.3,28.3 17.6,25.4 "/>
<polygon class="st1" points="5.8,28.2 4.8,28.5 4.8,29 5.8,28.7 "/>
<polygon class="st1" points="5.8,17.6 5.8,17.1 4.8,17.4 4.8,17.9 "/>
<polygon class="st1" points="18.4,22.2 18.9,22.2 19.3,21.2 18.8,21.2 "/>
<polygon class="st1" points="7.3,16.6 6.3,16.9 6.3,17.4 7.3,17.1 "/>
<polygon class="st1" points="7.3,27.8 6.3,28 6.3,28.6 7.3,28.3 "/>
<path class="st1" d="M20.1,18.6L19,17.9c-0.2,0-0.5,0.1-0.7,0.1l1.1,0.8C19.6,18.7,19.9,18.7,20.1,18.6z"/>
<path class="st1" d="M17.7,18.1L17.7,18.1c0.2-0.1,0.4-0.1,0.6-0.1l-3.8-2.8l-7.1,2v0.5l7-2L17.7,18.1z"/>
<polygon class="st1" points="18.4,22.2 17.8,22.2 16.9,24.5 7.3,27.2 7.3,27.8 17.2,25 "/>
<path class="st1" d="M19.7,19l-0.2-0.2c-0.2,0-0.4,0.1-0.7,0.1l0.3,0.2l-0.8,2h0.5L19.7,19z"/>
<polygon class="st1" points="6.3,27.5 5.8,27.7 5.8,28.2 6.3,28 "/>
<polygon class="st1" points="6.3,17.9 6.3,17.4 5.8,17.6 5.8,18.1 "/>
<polygon class="st1" points="3.7,28.3 1.2,19.4 4.8,18.4 4.8,17.9 0.6,19 3.4,28.9 4.8,28.5 4.8,28 "/>
<polygon class="st1" points="5.8,18.1 5.8,17.6 4.8,17.9 4.8,18.4 "/>
<polygon class="st1" points="4.8,28 4.8,28.5 5.8,28.2 5.8,27.7 "/>
<polygon class="st1" points="18.2,21.2 17.8,22.2 18.4,22.2 18.8,21.2 "/>
<polygon class="st1" points="7.3,27.2 6.3,27.5 6.3,28 7.3,27.8 "/>
<polygon class="st1" points="7.3,17.1 6.3,17.4 6.3,17.9 7.3,17.7 "/>
<path class="st1" d="M17.7,18.1l1.1,0.8c0.2,0,0.4-0.1,0.7-0.1L18.3,18C18.1,18,17.9,18,17.7,18.1L17.7,18.1z"/>
<polygon class="st1" points="7.3,23.6 7.3,23.6 7.3,23.6 "/>
<g>
	<polygon class="st1" points="10.8,19.4 10.2,19.4 8.7,22.1 9.3,22.1 	"/>
	<path class="st1" d="M10.9,21.5c-0.5,0-0.9,0.2-1.1,0.6H12C11.8,21.7,11.4,21.5,10.9,21.5z"/>
	<path class="st1" d="M5.9,21c0,0.5,0.2,0.9,0.4,1.1v-2.3C6.1,20.1,5.9,20.5,5.9,21z"/>
	<path class="st1" d="M7.8,21c0,0.5-0.1,0.9-0.4,0.9v0.3h0.9c0.3-0.3,0.5-0.7,0.5-1.2c0-0.8-0.5-1.5-1.3-1.5v0.6
		C7.7,20.1,7.8,20.5,7.8,21z"/>
	<path class="st1" d="M10.9,23.9c-0.3,0-0.5-0.3-0.5-0.8H9.5c0,0.9,0.6,1.4,1.3,1.4c0.7,0,1.3-0.5,1.4-1.4h-0.9
		C11.3,23.6,11.2,23.9,10.9,23.9z"/>
	<polygon class="st1" points="8.8,23.1 8.1,23.1 7.3,24.6 7.3,24.6 8,24.6 	"/>
	<polygon class="st1" points="8.7,22.1 8.1,23.1 8.8,23.1 9.3,22.1 	"/>
	<path class="st1" d="M12,22.1H9.7c-0.2,0.3-0.3,0.6-0.3,0.9c0,0,0,0,0,0.1h0.9c0,0,0-0.1,0-0.1c0-0.5,0.2-0.9,0.5-0.9
		c0.4,0,0.5,0.4,0.5,0.9c0,0,0,0.1,0,0.1h0.9c0-0.1,0-0.1,0-0.2C12.2,22.6,12.2,22.4,12,22.1z"/>
	<path class="st1" d="M7.3,22.5c0.3,0,0.6-0.1,0.9-0.4H7.3V22.5z"/>
	<path class="st1" d="M7.3,22.1v-0.3c0,0,0,0,0,0c-0.3,0-0.5-0.4-0.5-0.9c0-0.5,0.2-0.9,0.5-0.9c0,0,0,0,0.1,0v-0.6c0,0,0,0,0,0
		c-0.4,0-0.7,0.2-1,0.4v2.3c0.1,0.1,0.3,0.2,0.5,0.3v-0.3H7.3z"/>
	<path class="st1" d="M7.3,22.5v-0.4H6.8v0.3C7,22.4,7.1,22.5,7.3,22.5C7.3,22.5,7.3,22.5,7.3,22.5z"/>
</g>
</svg>
