<?xml version="1.0" encoding="utf-8"?>
<!-- Generator: Adobe Illustrator 21.0.0, SVG Export Plug-In . SVG Version: 6.00 Build 0)  -->
<svg version="1.1" id="Слой_1" xmlns="http://www.w3.org/2000/svg" xmlns:xlink="http://www.w3.org/1999/xlink" x="0px" y="0px"
	 viewBox="0 0 60 60" style="enable-background:new 0 0 60 60;" xml:space="preserve">
<style type="text/css">
	.st0{fill:none;}
	.st1{fill:#F9B243;}
</style>
<rect x="23.6" y="1" class="st0" width="11.5" height="0.3"/>
<path class="st0" d="M16.6,45.9h17.6c1.4,0,2.5-1.1,2.5-2.5v-0.2H14.1v0.2C14.1,44.8,15.2,45.9,16.6,45.9z"/>
<rect x="2" y="25.5" class="st0" width="5.5" height="0.2"/>
<path class="st1" d="M6,30.4c-0.1,0-0.2,0.1-0.2,0.2c0,0.2,0.4,0.2,0.4,0C6.2,30.5,6.1,30.4,6,30.4z"/>
<path class="st1" d="M7.2,32.7c-2.3,0-4.3-1.5-5.1-3.6H1.8c-0.3,0-0.5-0.2-0.5-0.5l0,0H0.5v-2.4H1v-0.5H0v3.4h1.6
	c0.8,2.4,3.1,4.1,5.6,4.1c0.1,0,0.1,0,0.2,0v-0.5C7.4,32.7,7.3,32.7,7.2,32.7z"/>
<path class="st1" d="M1.8,28.2H1v-1.4h6.4v-0.1H1v-0.4H0.5v2.4h0.8C1.3,28.4,1.5,28.2,1.8,28.2z"/>
<path class="st1" d="M7.2,32.2c-2,0-3.8-1.2-4.6-3.1H2.2c0.8,2.1,2.7,3.6,5.1,3.6c0.1,0,0.1,0,0.2,0v-0.5
	C7.4,32.2,7.3,32.2,7.2,32.2z"/>
<path class="st1" d="M7.4,28.2h-5l0.1,0.4c0.1,0.2,0.1,0.4,0.2,0.6h4.7C7.4,29.2,7.4,28.2,7.4,28.2z"/>
<path class="st1" d="M1.8,28.7H1.3l0,0c0,0.3,0.2,0.5,0.5,0.5h0.3C2.1,29,2,28.8,2,28.7H1.8z"/>
<path class="st1" d="M2.5,28.5l-0.1-0.4H1.8c-0.3,0-0.5,0.2-0.5,0.5h0.5H2c0,0.2,0.1,0.3,0.2,0.5h0.5C2.6,29,2.5,28.8,2.5,28.5z"/>
<polygon class="st1" points="2.5,26.3 7.2,26.3 7.4,26.3 7.4,25.8 1,25.8 1,26.3 "/>
<polygon class="st1" points="7.4,26.7 7.4,26.3 7.2,26.3 2.5,26.3 1,26.3 1,26.7 "/>
<rect x="7.4" y="25.5" class="st1" width="0.5" height="0.2"/>
<path class="st1" d="M10.9,42.7c-1.7,0-3-1.3-3-3v-6.6c-0.2,0-0.3,0-0.5,0v6.5c0,1.9,1.6,3.5,3.5,3.5h2.2v-0.5L10.9,42.7L10.9,42.7z
	"/>
<path class="st1" d="M45.2,39.7c0,1.7-1.3,3-3,3h-4.5v0.5h4.5c1.9,0,3.5-1.6,3.5-3.5V29.6h-0.5V39.7z"/>
<rect x="15.5" y="18.4" class="st1" width="5.1" height="0.5"/>
<path class="st1" d="M7.9,21.9c0-1.7,1.3-3,3-3h3.6v-0.5h-3.6c-1.9,0-3.5,1.6-3.5,3.5v2.6h0.5C7.9,24.5,7.9,21.9,7.9,21.9z"/>
<rect x="7.4" y="26.8" class="st1" width="0.5" height="1.4"/>
<path class="st1" d="M7.4,29.2v3.1c0.2,0,0.3,0,0.5,0v-3L7.4,29.2L7.4,29.2z"/>
<path class="st1" d="M7.9,32.7c-0.2,0-0.3,0-0.5,0v0.5c0.2,0,0.3,0,0.5,0V32.7z"/>
<rect x="7.4" y="26.7" class="st1" width="0.5" height="0.1"/>
<path class="st1" d="M7.4,32.2v0.5c0.2,0,0.3,0,0.5,0v-0.5C7.7,32.2,7.6,32.2,7.4,32.2z"/>
<rect x="7.4" y="28.2" class="st1" width="0.5" height="1"/>
<rect x="7.4" y="25.7" class="st1" width="0.5" height="0.1"/>
<rect x="7.4" y="24.5" class="st1" width="0.5" height="1"/>
<rect x="7.4" y="25.8" class="st1" width="0.5" height="0.5"/>
<rect x="7.4" y="26.3" class="st1" width="0.5" height="0.4"/>
<path class="st1" d="M44.8,26.3L44.8,26.3l-0.1,13.5c0,1.4-1.1,2.5-2.5,2.5H10.9c-1.4,0-2.5-1.1-2.5-2.5v-6.6
	c-0.2,0-0.3,0.1-0.5,0.1v6.6c0,1.7,1.3,3,3,3h2.2v-0.5h24.6v0.5h4.5c1.7,0,3-1.3,3-3V29.6h-0.4V26.3z"/>
<path class="st1" d="M15,19.4h5.6v-0.5h-5.1l0,0C15.5,19.1,15.3,19.4,15,19.4z"/>
<path class="st1" d="M8.4,21.9c0-1.4,1.1-2.5,2.5-2.5H15c-0.3,0-0.5-0.2-0.5-0.5l0,0h-3.6c-1.7,0-3,1.3-3,3v2.6h0.5V21.9z"/>
<rect x="7.9" y="25.5" class="st1" width="0.5" height="0.2"/>
<rect x="7.9" y="26.8" class="st1" width="0.5" height="1.4"/>
<path class="st1" d="M7.9,29.2v3c0.2,0,0.3-0.1,0.5-0.1v-2.9C8.4,29.2,7.9,29.2,7.9,29.2z"/>
<path class="st1" d="M8.4,32.6c-0.2,0-0.3,0.1-0.5,0.1v0.5c0.2,0,0.3,0,0.5-0.1V32.6z"/>
<rect x="7.9" y="26.7" class="st1" width="0.5" height="0.1"/>
<path class="st1" d="M8.4,32.1c-0.2,0-0.3,0.1-0.5,0.1v0.5c0.2,0,0.3,0,0.5-0.1V32.1z"/>
<rect x="7.9" y="28.2" class="st1" width="0.5" height="1"/>
<rect x="7.9" y="25.7" class="st1" width="0.5" height="0.1"/>
<rect x="7.9" y="24.5" class="st1" width="0.5" height="1"/>
<rect x="7.9" y="25.8" class="st1" width="0.5" height="0.5"/>
<rect x="7.9" y="26.3" class="st1" width="0.5" height="0.4"/>
<polygon class="st1" points="48.8,29.1 45.7,29.1 45.7,29.6 49.3,29.6 49.3,26.3 48.8,26.3 "/>
<polygon class="st1" points="45.3,29.1 45.3,26.3 45.2,26.3 45.2,29.6 45.7,29.6 45.7,29.1 "/>
<rect x="44.8" y="26.3" class="st1" width="0.4" height="3.3"/>
<polygon class="st1" points="48.3,28.6 45.8,28.6 45.8,26.3 45.7,26.3 45.7,29.1 48.8,29.1 48.8,26.3 48.3,26.3 "/>
<rect x="45.3" y="26.3" class="st1" width="0.4" height="2.8"/>
<path class="st1" d="M20.6,14.6v3.8h0.5v-3.3h38.4v1.7c0,5-4,9-9,9h-1.1v0.5h1.1c5.2,0,9.5-4.3,9.5-9.5v-2.2
	C60,14.6,20.6,14.6,20.6,14.6z"/>
<path class="st1" d="M22.5,25.8c-0.8,0-1.4-0.6-1.4-1.4v-5h-0.5v5c0,1,0.8,1.9,1.9,1.9h22.2v-0.5H22.5z"/>
<rect x="20.6" y="18.4" class="st1" width="0.5" height="0.5"/>
<rect x="20.6" y="18.9" class="st1" width="0.5" height="0.5"/>
<rect x="44.7" y="25.8" class="st1" width="0.1" height="0.5"/>
<rect x="45.8" y="26.1" class="st1" width="2.5" height="0.2"/>
<rect x="48.8" y="25.8" class="st1" width="0.5" height="0.5"/>
<rect x="45.2" y="25.8" class="st1" width="0.1" height="0.5"/>
<rect x="44.8" y="25.8" class="st1" width="0.4" height="0.5"/>
<polygon class="st1" points="45.7,26.3 45.8,26.3 45.8,26.1 48.3,26.1 48.3,26.3 48.8,26.3 48.8,25.8 45.7,25.8 "/>
<rect x="45.3" y="25.8" class="st1" width="0.4" height="0.5"/>
<path class="st1" d="M21.6,15.6H59v1.2c0,4.7-3.8,8.5-8.5,8.5h-1.1v0.5h1.1c5,0,9-4,9-9v-1.7H21.1v3.3h0.5V15.6z"/>
<path class="st1" d="M22.5,25.8h22.2v-0.5H22.5c-0.5,0-0.9-0.4-0.9-0.9v-5h-0.5v5C21.1,25.2,21.7,25.8,22.5,25.8z"/>
<rect x="21.1" y="18.4" class="st1" width="0.5" height="0.5"/>
<rect x="21.1" y="18.9" class="st1" width="0.5" height="0.5"/>
<rect x="44.7" y="25.3" class="st1" width="0.1" height="0.5"/>
<polygon class="st1" points="45.7,25.3 45.7,25.6 48.8,25.6 48.8,25.8 49.3,25.8 49.3,25.3 "/>
<polygon class="st1" points="45.2,25.8 45.3,25.8 45.3,25.6 45.7,25.6 45.7,25.3 45.2,25.3 "/>
<rect x="44.8" y="25.3" class="st1" width="0.4" height="0.5"/>
<rect x="45.7" y="25.6" class="st1" width="3.2" height="0.2"/>
<rect x="45.3" y="25.6" class="st1" width="0.4" height="0.2"/>
<path class="st1" d="M16.4,37.9h-4.9c-0.3,0-0.5,0.2-0.5,0.5s0.2,0.5,0.5,0.5h4.9c0.3,0,0.5-0.2,0.5-0.5S16.7,37.9,16.4,37.9z"/>
<path class="st1" d="M20.6,38.4c0,0.3,0.2,0.5,0.5,0.5H26c0.3,0,0.5-0.2,0.5-0.5s-0.2-0.5-0.5-0.5h-4.9
	C20.8,37.9,20.6,38.2,20.6,38.4z"/>
<path class="st1" d="M30.7,38.9h4.9c0.3,0,0.5-0.2,0.5-0.5s-0.2-0.5-0.5-0.5h-4.9c-0.3,0-0.5,0.2-0.5,0.5S30.5,38.9,30.7,38.9z"/>
<path class="st1" d="M13.1,43.4c0,1.9,1.6,3.5,3.5,3.5h17.6c1.9,0,3.5-1.6,3.5-3.5v-0.2H13.1V43.4z M36.7,43.2v0.2
	c0,1.4-1.1,2.5-2.5,2.5H16.6c-1.4,0-2.5-1.1-2.5-2.5v-0.2H36.7z"/>
<rect x="13.1" y="42.7" class="st1" width="24.6" height="0.5"/>
<rect x="13.1" y="42.2" class="st1" width="24.6" height="0.5"/>
<path class="st1" d="M15.5,7.5C15.5,7.3,15.3,7,15,7s-0.5,0.2-0.5,0.5v10.8h1V7.5z"/>
<rect x="14.5" y="18.4" class="st1" width="1" height="0.5"/>
<path class="st1" d="M15,19.4c0.3,0,0.5-0.2,0.5-0.5l0,0h-1l0,0C14.5,19.1,14.7,19.4,15,19.4z"/>
<path class="st1" d="M57.9,49.5h1.6v3.7h-1.6c0,0.3-0.2,0.5-0.5,0.5H57c-1.1,3.4-4.3,5.9-8,5.9c-3.8,0-6.9-2.5-8-5.9h-0.4
	c-0.3,0-0.5-0.2-0.5-0.5h-1.6v-3.7h1V49H38v4.7h2.4c1.1,3.8,4.6,6.4,8.6,6.4s7.4-2.6,8.6-6.4H60V49h-2.1V49.5z"/>
<path class="st1" d="M49,59c-3.4,0-6.4-2.2-7.5-5.4H41c1.1,3.4,4.3,5.9,8,5.9c3.8,0,6.9-2.5,8-5.9h-0.5C55.4,56.8,52.4,59,49,59z"/>
<path class="st1" d="M39.5,49.7v-0.3h-1v3.7h1.6c0-0.3,0.2-0.5,0.5-0.5H39V50h20v2.7h-1.6c0.3,0,0.5,0.2,0.5,0.5h1.6v-3.7h-1.6v0.3
	L39.5,49.7L39.5,49.7z"/>
<path class="st1" d="M41.3,53L41.3,53l15.3,0.1V53l0.1-0.4H41.2L41.3,53z"/>
<path class="st1" d="M41.5,53.6h15c0.1-0.2,0.1-0.3,0.2-0.5H41.4C41.4,53.3,41.5,53.5,41.5,53.6z"/>
<path class="st1" d="M57.4,53.1h-0.2c0,0.2-0.1,0.3-0.2,0.5h0.4c0.3,0,0.5-0.2,0.5-0.5H57.4L57.4,53.1z"/>
<path class="st1" d="M40.6,53.1h-0.5c0,0.3,0.2,0.5,0.5,0.5H41c-0.1-0.2-0.1-0.3-0.2-0.5H40.6z"/>
<path class="st1" d="M57.4,52.6h-0.6L56.7,53v0.1h0.5h0.2l0,0h0.5C57.9,52.8,57.7,52.6,57.4,52.6z"/>
<path class="st1" d="M41.4,53.1h-0.5c0,0.2,0.1,0.3,0.2,0.5h0.5C41.5,53.5,41.4,53.3,41.4,53.1z"/>
<path class="st1" d="M40.8,53.1h0.5V53l-0.1-0.4h-0.6c-0.3,0-0.5,0.2-0.5,0.5h0.5H40.8z"/>
<path class="st1" d="M56.7,53.1c0,0.2-0.1,0.3-0.2,0.5H57c0.1-0.2,0.1-0.3,0.2-0.5H56.7z"/>
<polygon class="st1" points="40,47.4 57.4,47.4 57.4,49 57.9,49 57.9,46.9 39.5,46.9 39.5,49 40,49 "/>
<polygon class="st1" points="41.7,49.5 49,49.5 56.3,49.5 57.9,49.5 57.9,49 57.4,49 57.4,49.2 40,49.2 40,49 39.5,49 39.5,49.5 "/>
<polygon class="st1" points="49,49.5 41.7,49.5 39.5,49.5 39.5,49.7 57.9,49.7 57.9,49.5 56.3,49.5 "/>
<path class="st1" d="M40,47.4V49h17.4v-1.6H40z M40.5,48.7v-0.8h16.4v0.8H40.5z"/>
<rect x="40" y="49" class="st1" width="17.4" height="0.3"/>
<path class="st1" d="M47.1,57.7c0.9,0,1.6-0.7,1.6-1.6c0-0.9-0.7-1.6-1.6-1.6s-1.6,0.7-1.6,1.6S46.2,57.7,47.1,57.7z M47.1,55
	c0.6,0,1.1,0.5,1.1,1.1s-0.5,1.1-1.1,1.1S46,56.7,46,56.1S46.5,55,47.1,55z"/>
<path class="st1" d="M47.1,57.2c0.6,0,1.1-0.5,1.1-1.1S47.7,55,47.1,55S46,55.5,46,56.1S46.5,57.2,47.1,57.2z M47.1,55.5
	c0.3,0,0.6,0.3,0.6,0.6s-0.3,0.6-0.6,0.6s-0.6-0.3-0.6-0.6S46.8,55.5,47.1,55.5z"/>
<path class="st1" d="M29.6,9.7c2.9,0,5.4-1.9,6.3-4.6h1.8V1.5h-1.5V2h1v2.6h-1l0,0c0,0.3-0.2,0.5-0.5,0.5h-0.3
	c-0.8,2.4-3.1,4.1-5.7,4.1c-2.7,0-4.9-1.7-5.7-4.1h-0.3c-0.3,0-0.5-0.2-0.5-0.5l0,0h-1V2h0.6V1.5h-1.1v3.6h1.8
	C24.2,7.9,26.7,9.7,29.6,9.7z"/>
<path class="st1" d="M29.6,8.7c-2.3,0-4.4-1.4-5.2-3.6h-0.5c0.8,2.4,3.1,4.1,5.7,4.1c2.7,0,4.9-1.7,5.7-4.1h-0.5
	C33.9,7.3,31.9,8.7,29.6,8.7z"/>
<path class="st1" d="M22.6,2.4V2H22v2.6h1c0-0.3,0.2-0.5,0.5-0.5h-1V2.5h14.1v1.6h-1c0.3,0,0.5,0.2,0.5,0.5h1V2h-1v0.3H22.6V2.4z"/>
<path class="st1" d="M24.1,4.5c0.1,0.2,0.1,0.4,0.2,0.6h10.4c0.1-0.2,0.2-0.4,0.2-0.6L35,4.1H24L24.1,4.5z"/>
<path class="st1" d="M35.4,4.7c0,0.2-0.1,0.3-0.2,0.5h0.3C35.8,5.2,36,5,36,4.7l0,0H35.4L35.4,4.7z"/>
<path class="st1" d="M23.5,4.7H23l0,0c0,0.3,0.2,0.5,0.5,0.5h0.3C23.7,5,23.7,4.9,23.5,4.7L23.5,4.7z"/>
<path class="st1" d="M35.6,4.2h-0.5L35,4.5c-0.1,0.2-0.1,0.4-0.2,0.6h0.5c0.1-0.2,0.1-0.3,0.2-0.5h0.2h0.5
	C36.1,4.4,35.9,4.2,35.6,4.2z"/>
<path class="st1" d="M24.1,4.5L24,4.1h-0.6c-0.3,0-0.5,0.2-0.5,0.5h0.5h0.2c0,0.2,0.1,0.3,0.2,0.5h0.5C24.3,4.9,24.2,4.7,24.1,4.5z"
	/>
<path class="st1" d="M36.1,0H22.6v1.5h13.5V0z M23.6,1.4V1h11.5v0.3H23.6V1.4z"/>
<polygon class="st1" points="24.3,2 29.6,2 34.8,2 36.1,2 36.1,1.5 22.6,1.5 22.6,2 "/>
<polygon class="st1" points="29.6,2 24.3,2 22.6,2 22.6,2.4 36.1,2.4 36.1,2 34.8,2 "/>
<path class="st1" d="M28.2,8.1c0.7,0,1.3-0.6,1.3-1.3s-0.6-1.3-1.3-1.3s-1.3,0.6-1.3,1.3S27.5,8.1,28.2,8.1z M28.2,6.5
	c0.2,0,0.3,0.1,0.3,0.3s-0.1,0.3-0.3,0.3S27.9,7,27.9,6.8S28,6.5,28.2,6.5z"/>
</svg>
