<?xml version="1.0" encoding="utf-8"?>
<!-- Generator: Adobe Illustrator 21.0.0, SVG Export Plug-In . SVG Version: 6.00 Build 0)  -->
<svg version="1.1" id="Слой_1" xmlns="http://www.w3.org/2000/svg" xmlns:xlink="http://www.w3.org/1999/xlink" x="0px" y="0px"
	 viewBox="0 0 60 60" style="enable-background:new 0 0 60 60;" xml:space="preserve">
<style type="text/css">
	.st0{fill:#F9B243;}
	.st1{fill:none;}
</style>
<rect x="42.7" y="0.3" class="st0" width="0.5" height="0.5"/>
<rect x="42.2" y="0.3" class="st0" width="0.5" height="0.5"/>
<g>
	<path class="st1" d="M22.2,24.2v8.5c1.1,0.8,2.4,1.5,3.8,2.1c-1.1-1.1-2-2.5-2.6-4c-0.8-2.3-1-5-0.5-8c0.2-1,0.4-1.9,0.7-2.7
		c-0.3,0-0.5,0-0.8,0c-0.4,0-0.8,0-1.2,0c-0.7,0-1.4,0.1-2,0.5c-0.5,0.3-0.8,0.7-1,1.2h1.2C21.1,21.7,22.2,22.8,22.2,24.2z"/>
	<path class="st1" d="M39.5,53.8V57h7.4v-3.2c0-1.5-1.2-2.8-2.8-2.8h-0.8h-0.1h-0.1h-0.8C40.7,51,39.5,52.3,39.5,53.8z"/>
	<path class="st1" d="M43.9,23l-1.3-3.3L42,21.4c0.4,0.8,0.7,1.5,1,2.4c1.2,4.1,0.4,8.8-2.1,12.4c0.7,0.1,1.3,0.3,2,0.4
		c0.5-0.3,1.1-0.5,1.8-0.7l0.4-5.5C45.2,27.9,44.9,25.3,43.9,23z"/>
	<path class="st1" d="M40.3,30.4l0.3,4.2C42.5,31.4,43,27.5,42,24c-0.1-0.5-0.3-0.9-0.5-1.4L41.4,23C40.5,25.3,40.1,27.9,40.3,30.4z
		"/>
	<path class="st1" d="M34.9,36.4c-1.2,0.7-2.5,0.7-3.8,0.6l0,0c-0.7,0-1.3-0.1-1.9-0.3c-2.7-0.6-5.1-1.5-7-2.8v7.4
		c3.5-0.6,9.4-2,13.3-3.2l-0.2-2C35.1,36.2,35,36.3,34.9,36.4z"/>
	<path class="st1" d="M37.4,18.4v-0.7c-1.4-1-3-1.7-4.7-1.9c-2.7-0.4-5.3,0.4-6.8,2c-0.3,0.4-0.6,0.8-0.9,1.3
		c2.1,0.3,4.2,0.9,6.2,1.8c1.5,0.7,3.2,1.9,4.3,3.4c0.2-1.2,0.5-2.3,0.9-3.5L37.4,18.4z"/>
	<path class="st1" d="M30.9,21.8c-2-0.9-4.1-1.5-6.2-1.8c-0.3,0.8-0.5,1.7-0.7,2.8c-0.4,2.9-0.3,5.4,0.5,7.5
		c0.9,2.5,2.7,4.5,4.8,5.3c0.1,0,0.1,0,0.2,0.1c0.2,0,0.4,0.1,0.6,0.1c0.3,0.1,0.7,0.1,1,0.2c0.4,0,0.8-0.1,1.1-0.2
		c0.4-0.1,0.7-0.3,1-0.6c-3.1-1-5.8-2.2-7.4-3.6c-2.1-1.7-2-5.3-0.7-7.5c0.3-0.5,0.7-0.8,1.1-1c0.5-0.2,1.1-0.2,1.5-0.2
		c2.9,0.2,5.6,1.7,7.4,4c0.1-0.4,0.1-0.9,0.2-1.3C34.3,23.9,32.5,22.6,30.9,21.8z"/>
	<path class="st1" d="M35.1,28.5c-1.6-2.6-4.4-4.3-7.4-4.5c-0.1,0-0.2,0-0.3,0c-0.2,0-0.5,0-0.7,0.1s-0.5,0.3-0.7,0.7
		c-1.1,1.8-1.1,4.8,0.5,6.2c1.7,1.4,4.4,2.6,7.5,3.6c0.3-0.4,0.6-0.9,0.9-1.3c0-0.1,0.1-0.1,0.1-0.2v-2.6C35,29.7,35,29.1,35.1,28.5
		z"/>
	<path class="st1" d="M35,34.8C35.1,34.8,35.1,34.8,35,34.8L35,34.8C35.1,34.7,35.1,34.7,35,34.8z"/>
	<path class="st1" d="M58.6,38.2C58,38,57,37.7,55.3,37.3c-2-0.4-3.7-0.7-5.3-0.8l-0.1,1.2C53.8,38.2,57.1,38.3,58.6,38.2z"/>
	<path class="st1" d="M41.7,37.4c-0.3-0.1-0.6-0.1-0.9-0.2l0.1,1.1C41.1,38,41.4,37.7,41.7,37.4z"/>
	<path class="st1" d="M5.2,31.8C4,31.6,2.8,32,2.1,32.7c-0.5,0.6-0.8,1.4-1,2.2c-0.3,1.1-0.5,2.6,0,3.7c0.4,0.9,1.3,1.5,2,1.9
		c1.5,0.9,3.1,1.5,4.8,1.9v-9.9C7,32.3,6.2,31.9,5.2,31.8z"/>
	<path class="st0" d="M42.8,36.6c-0.7-0.1-1.3-0.3-2-0.4c2.5-3.6,3.4-8.3,2.1-12.4c-0.2-0.8-0.6-1.6-1-2.4l-0.5,1.3
		c0.2,0.4,0.4,0.9,0.5,1.4c1,3.5,0.5,7.3-1.4,10.6l0.2,2.5c0.3,0.1,0.6,0.1,0.9,0.2c-0.3,0.3-0.6,0.6-0.8,0.9l0.1,1
		c0,0.3,0,0.6,0,0.9c0.4-1.1,1.1-1.9,2.1-2.5c0.5,0.1,1,0.2,1.4,0.3l0.2-2C43.9,36.1,43.3,36.3,42.8,36.6z"/>
	<path class="st0" d="M60.2,38.2c-0.1-0.4-0.1-0.9-4.6-1.9c-2-0.5-3.8-0.7-5.4-0.9l-0.1,1c1.6,0.1,3.3,0.4,5.3,0.8
		c1.7,0.4,2.7,0.7,3.2,0.9c-1.5,0.2-4.7,0-8.7-0.5l-0.1,1c5.1,0.6,9.1,0.7,10,0.2C60.2,38.7,60.2,38.3,60.2,38.2z"/>
	<path class="st0" d="M19.6,20.5c0.6-0.4,1.3-0.5,2-0.5c0.4,0,0.8,0,1.2,0c0.3,0,0.5,0,0.8,0c-0.3,0.8-0.5,1.7-0.7,2.7
		c-0.5,3-0.3,5.7,0.5,8c0.6,1.6,1.5,3,2.6,4c-1.5-0.6-2.7-1.2-3.8-2.1v1.2c1.9,1.3,4.2,2.2,7,2.8c0.5,0.2,1.2,0.3,1.9,0.3l0,0
		c1.3,0.1,2.6,0.1,3.8-0.6c0.1-0.1,0.3-0.2,0.4-0.3l-0.2-1.3H35c0,0,0-0.1,0.1-0.1L35,33.8V33c0,0.1-0.1,0.1-0.1,0.2
		c-0.3,0.4-0.6,0.9-0.9,1.3c-3.1-1-5.8-2.2-7.5-3.6c-1.6-1.4-1.6-4.4-0.5-6.2c0.2-0.3,0.4-0.5,0.7-0.7c0.2-0.1,0.5-0.1,0.7-0.1
		c0.1,0,0.2,0,0.3,0c3,0.2,5.8,2,7.4,4.5c0-0.5,0.1-1,0.1-1.5c-1.8-2.3-4.6-3.8-7.4-4c-0.5,0-1,0-1.5,0.2c-0.4,0.2-0.8,0.5-1.1,1
		c-1.3,2.1-1.4,5.7,0.7,7.5c1.6,1.4,4.3,2.6,7.4,3.6c-0.3,0.2-0.6,0.5-1,0.6C32,35.9,31.6,36,31.2,36s-0.7-0.1-1-0.2
		c-0.2,0-0.4-0.1-0.6-0.1c-0.1,0-0.1,0-0.2-0.1c-2.1-0.8-4-2.8-4.8-5.3c-0.8-2.1-0.9-4.6-0.5-7.5c0.2-1.1,0.4-2,0.7-2.8
		c2.1,0.2,4.3,0.8,6.2,1.8c1.7,0.8,3.4,2.1,4.5,3.8c0.1-0.4,0.2-0.9,0.3-1.3c-1.2-1.5-2.8-2.6-4.3-3.4c-2-0.9-4.1-1.6-6.2-1.8
		c0.3-0.5,0.5-0.9,0.9-1.3c1.5-1.7,4.1-2.4,6.8-2c1.7,0.3,3.3,0.9,4.7,1.9v-1.1l-0.1-0.1c-1.4-0.9-2.9-1.4-4.5-1.7
		c-3-0.5-5.9,0.4-7.7,2.3c-0.5,0.5-0.9,1.1-1.2,1.8c-0.8-0.1-1.6,0-2.5,0c-0.8,0.1-1.7,0.2-2.5,0.6c-0.8,0.5-1.3,1.3-1.6,2h1.1
		C18.8,21.2,19.1,20.8,19.6,20.5z"/>
	<path class="st0" d="M22.2,41.3v1c3.5-0.6,9.3-1.9,13.4-3.2l-0.1-1C31.6,39.4,25.7,40.7,22.2,41.3z"/>
	<path class="st0" d="M43.3,51h-0.2h0.1C43.2,51,43.3,51,43.3,51z"/>
	<path class="st0" d="M39.7,44.3c0.4,2.3,1.3,4.6,2.3,5.8c0.1,0,0.2,0,0.3,0h1c-0.6-0.3-2.7-3.8-2.7-7.3c-0.1,0.4-0.3,0.8-0.5,1.2
		C40,44,39.8,44.2,39.7,44.3z"/>
	<path class="st0" d="M7.9,42.5c-1.7-0.4-3.3-1-4.8-1.9c-0.6-0.4-1.5-1-2-1.9c-0.6-1.2-0.3-2.6,0-3.7c0.2-0.8,0.5-1.6,1-2.2
		c0.7-0.8,1.9-1.2,3.1-1c0.9,0.1,1.8,0.5,2.7,0.9v-1.1c-0.8-0.3-1.6-0.6-2.5-0.8c-1.6-0.2-3,0.3-4,1.2c-0.7,0.7-1,1.7-1.2,2.7
		c-0.3,1.3-0.6,3,0.1,4.4c0.6,1.1,1.6,1.9,2.4,2.3c1.7,1,3.5,1.7,5.4,2.1C8,43.3,8,43.1,8,42.8L7.9,42.5L7.9,42.5z"/>
	<path class="st0" d="M8.4,24.2c0-1.1,0.9-2,2-2h6.9c0.1-0.2,0.1-0.3,0.2-0.5h-7.1c-1.4,0-2.5,1.1-2.5,2.5v7.4
		c0.2,0.1,0.3,0.1,0.5,0.2V24.2z"/>
	<path class="st0" d="M7.9,32.7v9.9c0.2,0,0.3,0.1,0.5,0.1v-9.8C8.2,32.8,8.1,32.7,7.9,32.7z"/>
	<path class="st0" d="M21.7,24.2v8.1c0.2,0.1,0.3,0.3,0.5,0.4v-8.5c0-1.4-1.1-2.5-2.5-2.5h-1.2c-0.1,0.2-0.2,0.3-0.2,0.5h1.4
		C20.8,22.2,21.7,23.1,21.7,24.2z"/>
	<path class="st0" d="M21.7,42.9c0,1.1-0.9,2-2,2h-9.3c-0.8,0-1.5-0.5-1.8-1.2c-0.2,0-0.4-0.1-0.6-0.1c0.3,1.1,1.3,1.8,2.4,1.8h9.3
		c1.4,0,2.5-1.1,2.5-2.5v-0.6c-0.2,0-0.3,0.1-0.5,0.1V42.9z"/>
	<path class="st0" d="M21.7,33.5v7.9c0.2,0,0.3-0.1,0.5-0.1v-7.4C22.1,33.8,21.9,33.7,21.7,33.5z"/>
	<path class="st0" d="M21.7,41.4v1c0.2,0,0.3-0.1,0.5-0.1v-1C22.1,41.4,21.9,41.4,21.7,41.4z"/>
	<path class="st0" d="M21.7,33.5c0.2,0.1,0.3,0.2,0.5,0.4v-1.2c-0.2-0.1-0.3-0.3-0.5-0.4V33.5z"/>
	<path class="st0" d="M18.3,22.2c0.1-0.2,0.1-0.3,0.2-0.5h-1.1c-0.1,0.2-0.1,0.3-0.2,0.5H18.3z"/>
	<path class="st0" d="M8.4,32.9v-1.1c-0.2-0.1-0.3-0.1-0.5-0.2v1.1C8.1,32.7,8.2,32.8,8.4,32.9z"/>
	<path class="st0" d="M8.4,42.9v-0.3c-0.2,0-0.3-0.1-0.5-0.1v0.4c0,0.2,0,0.4,0.1,0.7c0.2,0,0.4,0.1,0.6,0.1
		C8.5,43.5,8.4,43.2,8.4,42.9z"/>
	<path class="st0" d="M8.9,32.6L8.7,33c-0.1,0-0.2-0.1-0.3-0.1v9.8c0.2,0,0.3,0.1,0.5,0.1V32.6z"/>
	<path class="st0" d="M21.2,33.2v8.3c0.2,0,0.3-0.1,0.5-0.1v-7.9C21.6,33.4,21.4,33.3,21.2,33.2z"/>
	<path class="st0" d="M21.2,42.9c0,0.8-0.7,1.5-1.5,1.5h-3.5c-0.4,0.1-0.9,0.2-1.7,0.1c-0.5,0-1-0.1-1.5-0.1h-2.7
		c-0.5,0-0.9-0.2-1.2-0.6c-0.2,0-0.4-0.1-0.7-0.1c0.3,0.7,1,1.2,1.8,1.2h9.3c1.1,0,2-0.9,2-2v-0.5c-0.2,0-0.3,0.1-0.5,0.1v0.4H21.2z
		"/>
	<path class="st0" d="M8.9,24.2c0-0.8,0.7-1.5,1.5-1.5h6.7l0,0c0-0.1,0.1-0.3,0.1-0.5h-6.9c-1.1,0-2,0.9-2,2v7.6
		C8.6,31.9,8.7,32,8.9,32V24.2z"/>
	<path class="st0" d="M19.7,22.7c0.8,0,1.5,0.7,1.5,1.5v7.7c0.2,0.1,0.3,0.3,0.5,0.4v-8.1c0-1.1-0.9-2-2-2h-1.4
		c-0.1,0.2-0.1,0.3-0.2,0.5C18.1,22.7,19.7,22.7,19.7,22.7z"/>
	<path class="st0" d="M21.2,31.8v1.3c0.2,0.1,0.3,0.2,0.5,0.4v-1.3C21.6,32.1,21.4,32,21.2,31.8z"/>
	<path class="st0" d="M21.2,42.5c0.2,0,0.3-0.1,0.5-0.1v-1c-0.2,0-0.3,0.1-0.5,0.1V42.5z"/>
	<path class="st0" d="M8.9,32.6V32c-0.2-0.1-0.3-0.2-0.5-0.2v1.1c0.1,0,0.2,0.1,0.3,0.1L8.9,32.6z"/>
	<path class="st0" d="M14.6,44.6c0.8,0.1,1.3,0,1.7-0.1h-3.2C13.6,44.5,14.1,44.5,14.6,44.6z"/>
	<path class="st0" d="M17.1,22.7h1c0-0.2,0.1-0.3,0.2-0.5h-1.1C17.2,22.3,17.2,22.5,17.1,22.7C17.1,22.6,17.1,22.6,17.1,22.7z"/>
	<path class="st0" d="M8.9,42.9L8.9,42.9c-0.2-0.1-0.3-0.2-0.5-0.2V43c0,0.3,0.1,0.6,0.2,0.8c0.2,0,0.4,0.1,0.7,0.1
		C9,43.6,8.9,43.3,8.9,42.9z"/>
	<path class="st0" d="M15.1,32.4c-1.7,0-3.1-1.4-3.1-3.1s1.4-3.1,3.1-3.1c0.8,0,1.6,0.3,2.2,0.9c-0.1-0.5-0.2-0.9-0.3-1.4
		c-0.6-0.3-1.2-0.5-1.9-0.5c-2.2,0-4.1,1.8-4.1,4.1s1.8,4.1,4.1,4.1c1.8,0,3.3-1.1,3.8-2.7c-0.3-0.4-0.5-0.8-0.8-1.2
		C18.1,31,16.7,32.4,15.1,32.4z"/>
	<path class="st0" d="M19.1,29.2c0-1-0.4-1.9-1-2.5C18.3,27.5,18.7,28.3,19.1,29.2z"/>
	<path class="st0" d="M17,25.7c0.1,0.5,0.1,0.9,0.3,1.4c0.6,0.6,0.9,1.3,0.9,2.2v0.1c0.2,0.4,0.5,0.8,0.8,1.2
		c0.2-0.4,0.3-0.9,0.3-1.4v-0.1c-0.5-0.8-0.8-1.7-1-2.5C17.8,26.2,17.4,25.9,17,25.7z"/>
	<path class="st0" d="M15.1,34.6c-2.2,0-4.1,1.8-4.1,4.1s1.8,4.1,4.1,4.1s4.1-1.8,4.1-4.1S17.3,34.6,15.1,34.6z M15.1,41.7
		c-1.7,0-3.1-1.4-3.1-3.1s1.4-3.1,3.1-3.1s3.1,1.4,3.1,3.1S16.8,41.7,15.1,41.7z"/>
	<rect x="13.8" y="27.7" class="st0" width="1" height="2.7"/>
	<rect x="15.3" y="27.7" class="st0" width="1" height="2.7"/>
	<rect x="13.8" y="37.3" class="st0" width="1" height="2.7"/>
	<rect x="15.3" y="37.3" class="st0" width="1" height="2.7"/>
	<path class="st0" d="M39.6,43.6c-0.1,0.2-0.2,0.3-0.4,0.3h-2.1c-0.2,0-0.4-0.2-0.5-0.4L36.1,39c-0.2,0.1-0.3,0.1-0.5,0.2l0.5,4.4
		c0.1,0.5,0.5,0.9,1,0.9h2.1c0.2,0,0.4-0.1,0.5-0.1C39.7,44.1,39.6,43.8,39.6,43.6L39.6,43.6z"/>
	<path class="st0" d="M40.4,38.9c0.1-0.2,0.3-0.4,0.5-0.7l-0.1-1.1c-0.2,0-0.3-0.1-0.5-0.1L40.4,38.9z"/>
	<path class="st0" d="M35.6,34.3V34c-0.1,0.2-0.3,0.4-0.4,0.6v0.1h0.1C35.4,34.7,35.5,34.5,35.6,34.3z"/>
	<path class="st0" d="M48.7,43.5c0,0.2-0.2,0.4-0.5,0.4h-2.1c-0.2,0-0.3-0.1-0.4-0.3L45.4,43c-0.5-0.9-0.7-2-0.6-3.1l0.2-2
		c-0.2,0-0.3-0.1-0.5-0.1L44.3,40c-0.1,1.1,0.1,2.3,0.7,3.3l0.3,0.6c0.2,0.3,0.5,0.5,0.9,0.5h2.1c0.5,0,0.9-0.4,1-0.9l0.6-4.9
		c-0.2,0-0.3,0-0.5-0.1L48.7,43.5z"/>
	<path class="st0" d="M44.6,36.9c0.1,0,0.3,0,0.4,0.1v-0.2C44.9,36.9,44.8,36.9,44.6,36.9z"/>
	<path class="st0" d="M35.8,26.3c-0.1-0.3-0.3-0.5-0.4-0.7c-0.1,0.4-0.1,0.9-0.2,1.3c0.2,0.2,0.3,0.4,0.4,0.6
		C35.7,27.1,35.8,26.7,35.8,26.3z"/>
	<path class="st0" d="M35.6,35.9c-0.1,0.1-0.2,0.1-0.3,0.2l0.2,2c0.2-0.1,0.3-0.1,0.5-0.2l-0.2-2C35.7,36,35.6,35.9,35.6,35.9z"/>
	<path class="st0" d="M37.9,16.6c0-0.1,0-0.1,0-0.2L37,14.2c-0.1-0.1,0-0.3,0-0.4l0.6-1.1c0.2-0.3,0.5-0.3,0.7-0.1l0.7,0.6
		c0.1,0.1,0.2,0.1,0.3,0.1h0.2c0.3,0,0.5-0.2,0.5-0.4v-1c0-0.3-0.2-0.5-0.5-0.5S39,11.2,39,10.9V7.8c0-0.1,0-0.1,0-0.1l2.3-7
		c0.1-0.2,0.2-0.3,0.4-0.3h0.7h0.7c0.2,0,0.4,0.1,0.4,0.3l2.3,7v0.1v3.1c0,0.3-0.2,0.5-0.5,0.5s-0.5,0.2-0.5,0.5v1
		c0,0.3,0.2,0.4,0.5,0.4H46c0.1,0,0.2,0,0.3-0.1l0.7-0.6c0.2-0.2,0.6-0.2,0.7,0.1l0.6,1.1c0.1,0.1,0.1,0.3,0,0.4l-0.9,2.2
		c0,0.1,0,0.1,0,0.2v1.8c0,0.1,0,0.1,0,0.2l0.8,2.4c1,3,1.6,6.2,1.6,9.4v3.5c0,0,0,0,0,0.1l-0.2,1.6c0.2,0,0.3,0,0.5,0l0.2-1.5v-3.6
		c0-3.3-0.5-6.5-1.6-9.6l-0.8-2.4v-1.8l0.9-2.2c0.1-0.3,0.1-0.6-0.1-0.9l-0.6-1.1C48,12.2,47.7,12,47.4,12s-0.6,0-0.8,0.2L46,12.9
		h-0.2l-0.1-1c0.5,0,1-0.4,1-1V7.8c0-0.1,0-0.2,0-0.3l-2.3-7c-0.1-0.4-0.5-0.7-0.9-0.7h-1.4c-0.4,0-0.8,0.3-0.9,0.7l-2.3,7
		c0,0.1,0,0.2,0,0.3v3.1c0,0.5,0.4,1,0.9,0.9v1h-0.2l-0.7-0.6c-0.2-0.2-0.5-0.3-0.8-0.2c-0.3,0-0.5,0.2-0.7,0.5l-0.6,1.1
		c-0.2,0.3-0.2,0.6-0.1,0.9l0.9,2.1c0.2,0.1,0.4,0.2,0.6,0.4v-0.4H37.9z"/>
	<path class="st0" d="M40.5,42.7c0.3-0.8,0.4-1.7,0.4-2.5c0,0.1-0.1,0.2-0.1,0.3C40.6,41.2,40.5,42,40.5,42.7z"/>
	<path class="st0" d="M44.4,22.8l-1.3-3.3c-0.2-0.4-0.7-0.4-0.9,0L41.6,21c0.1,0.2,0.2,0.4,0.3,0.5l0.7-1.8l1.3,3.3
		c0.9,2.4,1.3,4.9,1.1,7.4l-0.4,5.5c0.2,0,0.3-0.1,0.5-0.1l0.4-5.3C45.7,27.8,45.4,25.2,44.4,22.8z"/>
	<path class="st0" d="M40.9,22.8c-1,2.4-1.3,5.1-1.1,7.7l0.4,4.9c0.2-0.2,0.3-0.4,0.4-0.7l-0.3-4.2c-0.2-2.5,0.2-5.1,1.1-7.4
		l0.1-0.2c-0.1-0.2-0.2-0.4-0.3-0.6L40.9,22.8z"/>
	<path class="st0" d="M49.4,37.6c0.2,0,0.3,0,0.5,0.1l0.1-1.2c-0.2,0-0.3,0-0.5,0L49.4,37.6z"/>
	<path class="st0" d="M35.5,30.4c0-0.4,0-0.7,0-1.1c-0.1-0.2-0.2-0.4-0.3-0.6c0-0.1-0.1-0.2-0.2-0.3c0,0.6-0.1,1.3-0.1,1.9V33
		c0.2-0.3,0.3-0.6,0.5-0.9L35.5,30.4L35.5,30.4z"/>
	<path class="st0" d="M37.1,21l0.8-2.4c0,0,0-0.1,0-0.2v-0.3c-0.2-0.1-0.3-0.3-0.5-0.4v0.7l-0.8,2.4c-0.4,1.1-0.7,2.3-0.9,3.5
		c0.1,0.2,0.3,0.4,0.4,0.5C36.3,23.5,36.6,22.2,37.1,21z"/>
	<path class="st0" d="M40.9,38.3c-0.2,0.2-0.3,0.4-0.5,0.7v0.4c0.1,1.5-0.2,3-0.9,4.3c0,0.2,0,0.4,0.1,0.6c0.2-0.1,0.3-0.2,0.4-0.4
		c0.2-0.4,0.3-0.8,0.5-1.2c0-0.7,0.1-1.5,0.3-2.2c0-0.1,0.1-0.2,0.1-0.3c0-0.3,0-0.6,0-0.9L40.9,38.3z"/>
	<path class="st0" d="M49.5,36.5c0.2,0,0.3,0,0.5,0l0.1-1c-0.2,0-0.3,0-0.5,0L49.5,36.5z"/>
	<path class="st0" d="M35.5,33.9C35.5,33.9,35.5,33.8,35.5,33.9v-1.8c-0.2,0.3-0.3,0.6-0.5,0.9v0.8l0.1,0.8c0.2-0.2,0.3-0.4,0.4-0.6
		V33.9z"/>
	<path class="st0" d="M36.1,24.8c-0.1-0.2-0.3-0.4-0.4-0.5c-0.1,0.4-0.2,0.9-0.3,1.3c0.2,0.2,0.3,0.5,0.4,0.7
		C35.9,25.8,36,25.3,36.1,24.8z"/>
	<path class="st0" d="M35.8,36l-0.2-1.7c-0.1,0.2-0.2,0.4-0.3,0.5h-0.1l0.2,1.3c0.1-0.1,0.2-0.1,0.3-0.2C35.6,35.9,35.7,36,35.8,36z
		"/>
	<path class="st0" d="M40.3,37.1c0.2,0,0.3,0.1,0.5,0.1l-0.2-2.5c-0.1,0.2-0.3,0.5-0.4,0.7L40.3,37.1z"/>
	<path class="st0" d="M35.6,29.3c0-0.6,0.1-1.2,0.1-1.8c-0.1-0.2-0.3-0.4-0.4-0.6c-0.1,0.5-0.1,1-0.1,1.5c0.1,0.1,0.1,0.2,0.2,0.3
		C35.4,28.9,35.5,29.1,35.6,29.3z"/>
	<path class="st0" d="M49.4,37.6l-0.1,1c0.2,0,0.3,0,0.5,0.1l0.1-1C49.7,37.7,49.5,37.7,49.4,37.6z"/>
	<path class="st0" d="M41.2,22.1c0.1,0.2,0.2,0.4,0.3,0.6l0.5-1.3c-0.1-0.2-0.2-0.4-0.3-0.5L41.2,22.1z"/>
	<path class="st0" d="M37.4,17.7c0.2,0.1,0.3,0.2,0.5,0.4v-1.2c-0.2-0.1-0.4-0.2-0.6-0.4l0.1,0.1V17.7z"/>
	<path class="st0" d="M45,37c-0.1,0-0.3,0-0.4-0.1c0.1,0,0.3-0.1,0.4-0.1l0.1-1.1c-0.2,0-0.3,0.1-0.5,0.1l-0.2,2
		c0.2,0,0.3,0.1,0.5,0.1L45,37z"/>
	<path class="st0" d="M36,38c-0.2,0.1-0.3,0.1-0.5,0.2l0.1,1c0.2-0.1,0.3-0.1,0.5-0.2L36,38z"/>
	<path class="st0" d="M45.6,36.7c-0.2,0-0.3,0.1-0.5,0.1V37c0.2,0,0.3,0.1,0.5,0.1V36.7z"/>
	<path class="st0" d="M36,33.3c-0.1,0.1-0.2,0.3-0.3,0.4c-0.1,0.1-0.2,0.2-0.2,0.3v0.3C35.7,34,35.9,33.7,36,33.3L36,33.3z"/>
	<path class="st0" d="M48.2,43.4h-2.1l-0.3-0.6C45.4,42,45.2,41,45.3,40l0.2-2c-0.2,0-0.4,0-0.5,0l-0.2,2c-0.1,1.1,0.1,2.1,0.6,3.1
		l0.3,0.6c0.1,0.2,0.2,0.3,0.4,0.3h2.1c0.2,0,0.4-0.2,0.5-0.4l0.6-4.9c-0.2,0-0.3,0-0.5-0.1L48.2,43.4z"/>
	<path class="st0" d="M40.5,22.6c-1,2.5-1.4,5.2-1.2,7.9l0.4,5.5l0,0c0.2-0.2,0.3-0.4,0.4-0.6l-0.4-4.9c-0.2-2.6,0.2-5.2,1.1-7.7
		l0.3-0.7c-0.1-0.2-0.2-0.4-0.3-0.6L40.5,22.6z"/>
	<path class="st0" d="M37.9,18.6L37.1,21c-0.4,1.3-0.8,2.5-1,3.8c0.1,0.2,0.3,0.4,0.4,0.6c0.3-1.4,0.6-2.9,1.1-4.3l0.8-2.4
		c0-0.1,0-0.1,0-0.2c-0.2-0.1-0.3-0.3-0.5-0.4v0.3C37.9,18.5,37.9,18.5,37.9,18.6z"/>
	<path class="st0" d="M43.2,0.4v0.5h0.2l2.3,6.9v3.1c-0.3,0-0.5,0.1-0.7,0.3s-0.3,0.5-0.3,0.7v1c0,0.5,0.5,0.9,1,0.9H46
		c0.2,0,0.5-0.1,0.7-0.3l0.6-0.6l0.6,1.1L47,16.3c-0.1,0.1-0.1,0.2-0.1,0.4v1.8c0,0.1,0,0.2,0.1,0.3l0.8,2.4c1,3,1.5,6.1,1.5,9.2
		v3.4l-0.2,1.6c0.2,0,0.3,0,0.5,0l0.2-1.6c0,0,0,0,0-0.1v-3.5c0-3.2-0.5-6.4-1.6-9.4l-0.8-2.4c0,0,0-0.1,0-0.2v-1.8
		c0-0.1,0-0.1,0-0.2l0.9-2.2c0.1-0.1,0-0.3,0-0.4l-0.6-1.1c-0.2-0.3-0.5-0.3-0.7-0.1L46.3,13c-0.1,0.1-0.2,0.1-0.3,0.1h-0.2
		c-0.3,0-0.5-0.2-0.5-0.4v-1c0-0.3,0.2-0.5,0.5-0.5s0.5-0.2,0.5-0.5V7.8c0-0.1,0-0.1,0-0.1l-2.3-7c-0.1-0.2-0.2-0.3-0.4-0.3h-0.7
		l0,0C42.9,0.4,43.2,0.4,43.2,0.4z"/>
	<path class="st0" d="M49,36.4l-0.1,1.1c0.2,0,0.3,0,0.5,0.1l0.1-1.2C49.3,36.5,49.2,36.4,49,36.4z"/>
	<path class="st0" d="M46,30.5c0.2-2.7-0.2-5.4-1.2-7.9l-1.3-3.3c-0.1-0.4-0.5-0.6-0.9-0.6s-0.8,0.2-0.9,0.6l-0.4,1.1
		c0.1,0.2,0.2,0.4,0.3,0.5l0.6-1.5c0.2-0.4,0.7-0.4,0.9,0l1.3,3.3c1,2.4,1.3,5.1,1.1,7.7l-0.4,5.3c0.2,0,0.3-0.1,0.5-0.1L46,30.5z"
		/>
	<path class="st0" d="M36,30.6c-0.1-0.5-0.3-0.9-0.5-1.3c0,0.4,0,0.7,0,1.1v1.7c0.2-0.4,0.4-0.7,0.5-1.1V30.6z"/>
	<path class="st0" d="M36.2,27.3c-0.1-0.3-0.2-0.7-0.4-1c-0.1,0.4-0.1,0.8-0.1,1.2c0.1,0.2,0.3,0.4,0.4,0.7
		C36.1,27.9,36.2,27.6,36.2,27.3z"/>
	<path class="st0" d="M39.2,43.4h-2.1l-0.5-4.6c-0.2,0.1-0.3,0.1-0.5,0.2l0.5,4.5c0,0.2,0.2,0.4,0.5,0.4h2.1c0.2,0,0.3-0.1,0.4-0.3
		l0,0c0-0.4-0.1-0.8-0.1-1.1C39.4,42.8,39.3,43.1,39.2,43.4z"/>
	<path class="st0" d="M38.4,16.6c0-0.1,0-0.3-0.1-0.4L37.4,14l0.6-1l0.7,0.6c0.2,0.2,0.4,0.3,0.7,0.3h0.2c0.5,0,0.9-0.4,1-0.9v-1
		c0-0.3-0.1-0.5-0.3-0.7S39.9,11,39.6,11V7.9L41.9,1h0.2V0.4h0.5l0,0h-0.7c-0.2,0-0.4,0.1-0.4,0.3l-2.3,7v0.1v3.1
		c0,0.3,0.2,0.5,0.5,0.5s0.5,0.2,0.5,0.5v1c0,0.3-0.2,0.4-0.5,0.4h-0.2c-0.1,0-0.2,0-0.3-0.1l-0.7-0.6c-0.2-0.2-0.6-0.2-0.7,0.1
		L37,13.8c-0.1,0.1-0.1,0.3,0,0.4l0.9,2.2c0,0.1,0,0.1,0,0.2v0.2c0.2,0.1,0.3,0.2,0.5,0.4V16.6z"/>
	<path class="st0" d="M36.3,36.1c-0.2,0-0.3-0.1-0.5-0.1l0.2,2c0.2-0.1,0.3-0.1,0.5-0.2L36.3,36.1z"/>
	<path class="st0" d="M40.2,37.1C40.1,37.1,40.1,37.1,40.2,37.1c-0.1,0.1-0.2,0.2-0.3,0.3l0.2,2c0,0.2,0,0.4,0,0.6
		c0.1-0.4,0.3-0.7,0.5-1l-0.1-1.8C40.2,37.1,40.2,37.1,40.2,37.1z"/>
	<path class="st0" d="M36,33.3c-0.1,0.4-0.3,0.7-0.4,1l0.2,1.7c0.2,0,0.3,0.1,0.5,0.1L36,33.8V33.3z"/>
	<path class="st0" d="M39.7,36l0.1,1.4c0.1-0.1,0.2-0.2,0.3-0.3l0,0h0.1l-0.1-1.8C40,35.5,39.9,35.8,39.7,36L39.7,36z"/>
	<path class="st0" d="M36.5,25.4c-0.1-0.2-0.2-0.4-0.4-0.6c-0.1,0.5-0.2,1-0.3,1.5c0.2,0.3,0.3,0.6,0.4,1
		C36.3,26.7,36.3,26,36.5,25.4z"/>
	<path class="st0" d="M36,33.3V31c-0.1,0.4-0.3,0.8-0.5,1.1v1.7c0,0,0,0,0,0.1v0.2c0.1-0.1,0.2-0.2,0.2-0.3
		C35.8,33.6,35.9,33.4,36,33.3z"/>
	<path class="st0" d="M38.4,18.4v-1.2c-0.2-0.1-0.3-0.2-0.5-0.4V18C38.1,18.1,38.2,18.3,38.4,18.4C38.4,18.5,38.4,18.4,38.4,18.4z"
		/>
	<path class="st0" d="M41.2,22.1l0.5-1.2c-0.1-0.2-0.2-0.4-0.3-0.5l-0.5,1.2C41,21.7,41.1,21.9,41.2,22.1z"/>
	<path class="st0" d="M49,36.4c0.2,0,0.3,0,0.5,0l0.1-1c-0.2,0-0.3,0-0.5,0L49,36.4z"/>
	<path class="st0" d="M45.5,37.1c-0.2,0-0.3-0.1-0.5-0.1v1c0.2,0,0.3,0.1,0.5,0.1V37.1z"/>
	<path class="st0" d="M39.6,42.5c0,0.4,0,0.8,0.1,1.1c0.7-1.3,1-2.8,0.9-4.3v-0.4c-0.2,0.3-0.3,0.7-0.5,1
		C40,40.8,39.8,41.7,39.6,42.5z"/>
	<path class="st0" d="M48.8,38.6c0.2,0,0.3,0,0.5,0.1l0.1-1c-0.2,0-0.3,0-0.5-0.1L48.8,38.6z"/>
	<path class="st0" d="M36.5,37.8c-0.2,0.1-0.3,0.1-0.5,0.2l0.1,1c0.2-0.1,0.3-0.1,0.5-0.2L36.5,37.8z"/>
	<path class="st0" d="M45.7,35.7c-0.2,0-0.3,0.1-0.5,0.1l-0.1,1.1c0.2,0,0.3-0.1,0.5-0.1L45.7,35.7z"/>
	<path class="st0" d="M36,30.4c0-0.7,0-1.5,0.1-2.2c-0.1-0.2-0.3-0.4-0.4-0.7c-0.1,0.6-0.1,1.2-0.1,1.8c0.2,0.4,0.3,0.8,0.5,1.3
		L36,30.4L36,30.4z"/>
	<polygon class="st0" points="43.2,8.1 43.2,0.4 42.7,0.4 42.7,8.1 42.7,0.4 42.2,0.4 42.2,8.1 	"/>
	<path class="st0" d="M42.7,10.3c-0.9,0-1.6,0.7-1.6,1.6s0.7,1.6,1.6,1.6s1.6-0.7,1.6-1.6S43.6,10.3,42.7,10.3z M42.7,13
		c-0.6,0-1.1-0.5-1.1-1.1s0.5-1.1,1.1-1.1s1.1,0.5,1.1,1.1S43.3,13,42.7,13z"/>
	<path class="st0" d="M42.7,10.8c-0.6,0-1.1,0.5-1.1,1.1S42,13,42.7,13c0.6,0,1.1-0.5,1.1-1.1S43.3,10.8,42.7,10.8z M42.7,12.5
		c-0.3,0-0.6-0.3-0.6-0.6s0.3-0.6,0.6-0.6s0.6,0.3,0.6,0.6S43,12.5,42.7,12.5z"/>
	<path class="st0" d="M43,50.2l1,0.3c-0.1,0.3-0.3,0.5-0.6,0.6h0.8c1.5,0,2.8,1.2,2.8,2.8V57h-7.4v-3.2c0-1.5,1.2-2.8,2.8-2.8h0.8
		h-0.1c-0.3-0.1-0.7-0.4-1.1-1c-1.9,0.2-3.4,1.8-3.4,3.7V58h2.1v-0.5h1V58H45v-0.5h1V58h2v-4.2c0-2.1-1.7-3.8-3.8-3.8h-0.9l0,0
		C43.2,50,43,50.1,43,50.2z"/>
	<path class="st0" d="M41.9,50c0.4,0.5,0.8,0.9,1.1,1h0.1h0.2c0.3,0,0.5-0.2,0.6-0.6l-1-0.3c0-0.1,0.2-0.2,0.3-0.1l0,0h-1
		C42.2,50,42,50,41.9,50z"/>
	<rect x="44.9" y="58" class="st0" width="1" height="2.1"/>
	<rect x="44.9" y="57.5" class="st0" width="1" height="0.5"/>
	<rect x="40.6" y="58" class="st0" width="1" height="2.1"/>
	<rect x="40.6" y="57.5" class="st0" width="1" height="0.5"/>
</g>
</svg>
