<?xml version="1.0" encoding="utf-8"?>
<!-- Generator: Adobe Illustrator 21.0.0, SVG Export Plug-In . SVG Version: 6.00 Build 0)  -->
<svg version="1.1" id="Слой_1" xmlns="http://www.w3.org/2000/svg" xmlns:xlink="http://www.w3.org/1999/xlink" x="0px" y="0px"
	 viewBox="0 0 60 60" style="enable-background:new 0 0 60 60;" xml:space="preserve">
<style type="text/css">
	.st0{fill:#FDB341;}
</style>
<g>
	<g>
		<g>
			<path class="st0" d="M31.5,60H0V31.3l0.1-0.2C10,17.4,29.8,13.1,30.6,13l0.9-0.2V60z M1.5,58.5H30V14.6c-4,1-20.1,5.6-28.5,17.1
				V58.5z"/>
		</g>
		<g>
			<g>
				<path class="st0" d="M7.7,37c-1.6,0-2.8-1.3-2.8-2.8v-1.8c0-1.6,1.3-2.8,2.8-2.8c1.6,0,2.8,1.3,2.8,2.8v1.8
					C10.5,35.8,9.3,37,7.7,37z M7.7,31.1c-0.7,0-1.3,0.6-1.3,1.3v1.8c0,0.7,0.6,1.3,1.3,1.3c0.7,0,1.3-0.6,1.3-1.3v-1.8
					C9,31.7,8.4,31.1,7.7,31.1z"/>
			</g>
			<g>
				<path class="st0" d="M15.8,37c-1.6,0-2.8-1.3-2.8-2.8v-1.8c0-1.6,1.3-2.8,2.8-2.8c1.6,0,2.8,1.3,2.8,2.8v1.8
					C18.6,35.8,17.3,37,15.8,37z M15.8,31.1c-0.7,0-1.3,0.6-1.3,1.3v1.8c0,0.7,0.6,1.3,1.3,1.3c0.7,0,1.3-0.6,1.3-1.3v-1.8
					C17.1,31.7,16.5,31.1,15.8,31.1z"/>
			</g>
			<g>
				<path class="st0" d="M23.8,37c-1.6,0-2.8-1.3-2.8-2.8v-1.8c0-1.6,1.3-2.8,2.8-2.8s2.8,1.3,2.8,2.8v1.8
					C26.6,35.8,25.4,37,23.8,37z M23.8,31.1c-0.7,0-1.3,0.6-1.3,1.3v1.8c0,0.7,0.6,1.3,1.3,1.3s1.3-0.6,1.3-1.3v-1.8
					C25.1,31.7,24.5,31.1,23.8,31.1z"/>
			</g>
		</g>
		<g>
			<g>
				<path class="st0" d="M7.7,46.1c-1.6,0-2.8-1.3-2.8-2.8v-1.8c0-1.6,1.3-2.8,2.8-2.8c1.6,0,2.8,1.3,2.8,2.8v1.8
					C10.5,44.9,9.3,46.1,7.7,46.1z M7.7,40.2c-0.7,0-1.3,0.6-1.3,1.3v1.8c0,0.7,0.6,1.3,1.3,1.3C8.4,44.6,9,44,9,43.3v-1.8
					C9,40.8,8.4,40.2,7.7,40.2z"/>
			</g>
			<g>
				<path class="st0" d="M15.8,46.1c-1.6,0-2.8-1.3-2.8-2.8v-1.8c0-1.6,1.3-2.8,2.8-2.8c1.6,0,2.8,1.3,2.8,2.8v1.8
					C18.6,44.9,17.3,46.1,15.8,46.1z M15.8,40.2c-0.7,0-1.3,0.6-1.3,1.3v1.8c0,0.7,0.6,1.3,1.3,1.3c0.7,0,1.3-0.6,1.3-1.3v-1.8
					C17.1,40.8,16.5,40.2,15.8,40.2z"/>
			</g>
			<g>
				<path class="st0" d="M23.8,46.1c-1.6,0-2.8-1.3-2.8-2.8v-1.8c0-1.6,1.3-2.8,2.8-2.8s2.8,1.3,2.8,2.8v1.8
					C26.6,44.9,25.4,46.1,23.8,46.1z M23.8,40.2c-0.7,0-1.3,0.6-1.3,1.3v1.8c0,0.7,0.6,1.3,1.3,1.3s1.3-0.6,1.3-1.3v-1.8
					C25.1,40.8,24.5,40.2,23.8,40.2z"/>
			</g>
		</g>
		<g>
			<g>
				<path class="st0" d="M7.7,55.3c-1.6,0-2.8-1.3-2.8-2.8v-1.8c0-1.6,1.3-2.8,2.8-2.8c1.6,0,2.8,1.3,2.8,2.8v1.8
					C10.5,54,9.3,55.3,7.7,55.3z M7.7,49.3c-0.7,0-1.3,0.6-1.3,1.3v1.8c0,0.7,0.6,1.3,1.3,1.3c0.7,0,1.3-0.6,1.3-1.3v-1.8
					C9,49.9,8.4,49.3,7.7,49.3z"/>
			</g>
			<g>
				<path class="st0" d="M15.8,55.3c-1.6,0-2.8-1.3-2.8-2.8v-1.8c0-1.6,1.3-2.8,2.8-2.8c1.6,0,2.8,1.3,2.8,2.8v1.8
					C18.6,54,17.3,55.3,15.8,55.3z M15.8,49.3c-0.7,0-1.3,0.6-1.3,1.3v1.8c0,0.7,0.6,1.3,1.3,1.3c0.7,0,1.3-0.6,1.3-1.3v-1.8
					C17.1,49.9,16.5,49.3,15.8,49.3z"/>
			</g>
			<g>
				<path class="st0" d="M23.8,55.3c-1.6,0-2.8-1.3-2.8-2.8v-1.8c0-1.6,1.3-2.8,2.8-2.8s2.8,1.3,2.8,2.8v1.8
					C26.6,54,25.4,55.3,23.8,55.3z M23.8,49.3c-0.7,0-1.3,0.6-1.3,1.3v1.8c0,0.7,0.6,1.3,1.3,1.3s1.3-0.6,1.3-1.3v-1.8
					C25.1,49.9,24.5,49.3,23.8,49.3z"/>
			</g>
		</g>
	</g>
	<g>
		<g>
			<path class="st0" d="M60,60H30V0l1,0.3c19.4,5.2,28.5,56.6,28.9,58.8L60,60z M31.6,58.5h26.6C56.9,51.7,48.1,8,31.6,2V58.5z"/>
		</g>
		<g>
			<rect x="30.8" y="9" class="st0" width="10.5" height="1.5"/>
		</g>
		<g>
			<rect x="30.8" y="12.7" class="st0" width="12.9" height="1.5"/>
		</g>
		<g>
			<rect x="30.8" y="16.4" class="st0" width="15.4" height="1.5"/>
		</g>
		<g>
			<rect x="30.8" y="20.1" class="st0" width="16.5" height="1.5"/>
		</g>
		<g>
			<rect x="30.8" y="23.8" class="st0" width="18.3" height="1.5"/>
		</g>
		<g>
			<rect x="30.8" y="27.5" class="st0" width="20.3" height="1.5"/>
		</g>
		<g>
			<rect x="30.8" y="31.2" class="st0" width="21.1" height="1.5"/>
		</g>
		<g>
			<rect x="30.8" y="34.9" class="st0" width="22" height="1.5"/>
		</g>
		<g>
			<rect x="30.8" y="38.6" class="st0" width="23" height="1.5"/>
		</g>
		<g>
			<rect x="30.8" y="42.3" class="st0" width="25" height="1.5"/>
		</g>
		<g>
			<rect x="30.8" y="46" class="st0" width="24.9" height="1.5"/>
		</g>
		<g>
			<path class="st0" d="M44.9,60h-8.5V50h8.5V60z M38,58.5h5.4v-7H38V58.5z"/>
		</g>
		<g>
			<path class="st0" d="M41.6,56.8c-0.4,0-0.8-0.3-0.8-0.8v-2.3c0-0.4,0.3-0.8,0.8-0.8s0.8,0.3,0.8,0.8v2.3
				C42.4,56.5,42.1,56.8,41.6,56.8z"/>
		</g>
	</g>
</g>
</svg>
