<?xml version="1.0" encoding="utf-8"?>
<!-- Generator: Adobe Illustrator 21.0.0, SVG Export Plug-In . SVG Version: 6.00 Build 0)  -->
<svg version="1.1" id="Слой_1" xmlns="http://www.w3.org/2000/svg" xmlns:xlink="http://www.w3.org/1999/xlink" x="0px" y="0px"
	 viewBox="0 0 60 60" style="enable-background:new 0 0 60 60;" xml:space="preserve">
<style type="text/css">
	.st0{fill:#FDB341;}
</style>
<g>
	<g>
		<path class="st0" d="M39,22.5h-5.8v-5.8H39V22.5z M34.7,21h2.8v-2.8h-2.8V21z"/>
	</g>
	<g>
		<path class="st0" d="M46.2,22.5h-5.8v-5.8h5.8V22.5z M41.9,21h2.8v-2.8h-2.8V21z"/>
	</g>
	<g>
		<path class="st0" d="M53.3,22.5h-5.8v-5.8h5.8V22.5z M49.1,21h2.8v-2.8h-2.8V21z"/>
	</g>
</g>
<g>
	<path class="st0" d="M12.8,22.5H7.1v-5.8h5.8V22.5z M8.6,21h2.8v-2.8H8.6V21z"/>
</g>
<g>
	<path class="st0" d="M20,22.5h-5.8v-5.8H20V22.5z M15.8,21h2.8v-2.8h-2.8V21z"/>
</g>
<g>
	<path class="st0" d="M27.2,22.5h-5.8v-5.8h5.8V22.5z M23,21h2.8v-2.8H23V21z"/>
</g>
<g>
	<path class="st0" d="M27.2,36h-5.8v-5.8h5.8V36z M23,34.5h2.8v-2.8H23V34.5z"/>
</g>
<g>
	<path class="st0" d="M27.2,49.7h-5.8v-5.8h5.8V49.7z M23,48.2h2.8v-2.8H23V48.2z"/>
</g>
<g>
	<g>
		<path class="st0" d="M39,36.1h-5.8v-5.8H39V36.1z M34.7,34.6h2.8v-2.8h-2.8V34.6z"/>
	</g>
	<g>
		<path class="st0" d="M46.2,36.1h-5.8v-5.8h5.8V36.1z M41.9,34.6h2.8v-2.8h-2.8V34.6z"/>
	</g>
	<g>
		<path class="st0" d="M53.3,36.1h-5.8v-5.8h5.8V36.1z M49.1,34.6h2.8v-2.8h-2.8V34.6z"/>
	</g>
</g>
<g>
	<g>
		<path class="st0" d="M39,49.7h-5.8v-5.8H39V49.7z M34.7,48.2h2.8v-2.8h-2.8V48.2z"/>
	</g>
	<g>
		<path class="st0" d="M46.2,49.7h-5.8v-5.8h5.8V49.7z M41.9,48.2h2.8v-2.8h-2.8V48.2z"/>
	</g>
	<g>
		<path class="st0" d="M53.3,49.7h-5.8v-5.8h5.8V49.7z M49.1,48.2h2.8v-2.8h-2.8V48.2z"/>
	</g>
</g>
<g>
	<path class="st0" d="M57.1,54.1H2.9V12.2h54.2V54.1z M4.4,52.6h51.2V13.7H4.4V52.6z"/>
</g>
<g>
	<rect x="29.2" y="13" class="st0" width="1.5" height="40.4"/>
</g>
<g>
	<rect x="3.6" y="25.5" class="st0" width="52.7" height="1.5"/>
</g>
<rect x="3.6" y="39.3" class="st0" width="3.5" height="1.5"/>
<rect x="17.9" y="39.3" class="st0" width="38.4" height="1.5"/>
<polygon class="st0" points="8.6,31.8 16.4,31.8 16.4,39.3 17.9,39.3 17.9,30.3 7.1,30.3 7.1,39.3 8.6,39.3 "/>
<polygon class="st0" points="16.4,52.6 8.6,52.6 8.6,40.8 7.1,40.8 7.1,54.1 17.9,54.1 17.9,40.8 16.4,40.8 "/>
<rect x="7.1" y="39.3" class="st0" width="1.5" height="1.5"/>
<rect x="16.4" y="39.3" class="st0" width="1.5" height="1.5"/>
<g>
	<g>
		<path class="st0" d="M57.9,11.6H2.1c-0.4,0-0.8-0.3-0.8-0.8s0.3-0.8,0.8-0.8h55.9c0.4,0,0.8,0.3,0.8,0.8S58.4,11.6,57.9,11.6z"/>
	</g>
	<path class="st0" d="M1,8.1c-0.4,0-0.8,0.3-0.8,0.8S0.6,9.6,1,9.6h37.1c-0.4-0.4-0.7-0.9-1-1.5H1z"/>
	<path class="st0" d="M59,8.1H47.6c-0.3,0.6-0.6,1.1-1,1.5H59c0.4,0,0.8-0.3,0.8-0.8S59.4,8.1,59,8.1z"/>
	<path class="st0" d="M38.1,5.8c0-2.3,1.9-4.3,4.3-4.3s4.3,1.9,4.3,4.3c0,0.9-0.3,1.7-0.7,2.4h1.7c0.3-0.7,0.5-1.5,0.5-2.4
		c0-3.2-2.6-5.8-5.8-5.8s-5.8,2.6-5.8,5.8c0,0.8,0.2,1.6,0.5,2.4h1.7C38.4,7.5,38.1,6.6,38.1,5.8z"/>
	<path class="st0" d="M42.4,10c-0.6,0-1.2-0.1-1.7-0.4h-2.5c1.1,1.1,2.6,1.9,4.2,1.9s3.2-0.7,4.2-1.9h-2.5C43.6,9.9,43,10,42.4,10z"
		/>
	<path class="st0" d="M38.8,8.1h-1.7c0.3,0.6,0.6,1.1,1,1.5h2.5C39.9,9.3,39.3,8.8,38.8,8.1z"/>
	<path class="st0" d="M45.9,8.1c-0.4,0.7-1.1,1.2-1.8,1.5h2.5c0.4-0.4,0.7-0.9,1-1.5H45.9z"/>
	<g>
		<path class="st0" d="M42.4,6.5c-0.3,0-0.6-0.2-0.7-0.5c-0.1-0.4,0-0.8,0.4-1l2.6-1c0.4-0.1,0.8,0,1,0.4c0.1,0.4,0,0.8-0.4,1
			l-2.6,1C42.5,6.5,42.4,6.5,42.4,6.5z"/>
	</g>
	<g>
		<path class="st0" d="M10.1,9.6c-0.4,0-0.8-0.3-0.8-0.8V2.4c0-0.4,0.3-0.8,0.8-0.8s0.8,0.3,0.8,0.8v6.5C10.8,9.3,10.5,9.6,10.1,9.6
			z"/>
	</g>
	<g>
		<path class="st0" d="M6.3,5.2C6,5.2,5.7,4.9,5.6,4.5C5.5,4.1,5.8,3.7,6.2,3.7l6.3-0.8c0.4-0.1,0.8,0.2,0.8,0.6
			c0.1,0.4-0.2,0.8-0.6,0.8L6.3,5.2C6.4,5.2,6.4,5.2,6.3,5.2z"/>
	</g>
</g>
<g>
	<path class="st0" d="M58.3,57H1.7C1.3,57,1,56.7,1,56.3s0.3-0.8,0.8-0.8h56.5c0.4,0,0.8,0.3,0.8,0.8S58.7,57,58.3,57z"/>
</g>
<g>
	<path class="st0" d="M59.3,60H0.8C0.4,60,0,59.7,0,59.2s0.3-0.8,0.8-0.8h58.5c0.4,0,0.8,0.3,0.8,0.8S59.7,60,59.3,60z"/>
</g>
</svg>
