<?xml version="1.0" encoding="utf-8"?>
<!-- Generator: Adobe Illustrator 21.0.0, SVG Export Plug-In . SVG Version: 6.00 Build 0)  -->
<svg version="1.1" xmlns="http://www.w3.org/2000/svg" xmlns:xlink="http://www.w3.org/1999/xlink" x="0px" y="0px"
	 viewBox="0 0 68.4 57.9" style="enable-background:new 0 0 68.4 57.9;" xml:space="preserve">
<style type="text/css">
	.st0{fill:none;stroke:#F9B345;stroke-miterlimit:10;}
	.st1{fill:#FFFFFF;stroke:#F9B345;stroke-miterlimit:10;}
	.st2{fill:none;stroke:#FFFFFF;stroke-miterlimit:10;}
</style>
<g id="Слой_2">
	<g>
		<path class="st0" d="M4.3,47.7L4.3,47.7c-0.8-0.4-1.1-1.3-0.7-2.1l8.2-17.1c0.4-0.8,1.3-1.1,2.1-0.7l0,0c0.8,0.4,1.1,1.3,0.7,2.1
			L6.4,47C6,47.7,5.1,48.1,4.3,47.7z"/>
		<rect x="10.1" y="8.4" class="st0" width="44.9" height="26"/>
		<rect x="19.1" y="38.8" class="st0" width="26.8" height="2.7"/>
		<line class="st0" x1="32.5" y1="38.8" x2="32.5" y2="34.1"/>
		<line class="st0" x1="27.2" y1="24.5" x2="33.3" y2="18.5"/>
		<line class="st0" x1="39.6" y1="23.9" x2="43.8" y2="19.7"/>
		<line class="st0" x1="28.3" y1="28.7" x2="42" y2="15"/>
		<ellipse transform="matrix(0.4332 -0.9013 0.9013 0.4332 -16.2717 28.146)" class="st1" cx="14.2" cy="27" rx="9" ry="9"/>
		<line class="st0" x1="7.4" y1="37.5" x2="10.3" y2="38.9"/>
	</g>
</g>
<g id="Слой_1">
	<line class="st2" x1="29.2" y1="45.1" x2="29.2" y2="47.9"/>
	<line class="st2" x1="18.5" y1="37" x2="18.5" y2="39.8"/>
</g>
</svg>
