<?xml version="1.0" encoding="utf-8"?>
<!-- Generator: Adobe Illustrator 21.1.0, SVG Export Plug-In . SVG Version: 6.00 Build 0)  -->
<svg version="1.1" id="Слой_1" xmlns="http://www.w3.org/2000/svg" xmlns:xlink="http://www.w3.org/1999/xlink" x="0px" y="0px"
	 viewBox="0 0 1840.9 526.7" style="enable-background:new 0 0 1840.9 526.7;" xml:space="preserve">
<style type="text/css">
	.st0{fill:#FFD35D;}
	.st1{fill:#FFFFFF;}
	.st2{fill:#032193;}
	.st3{fill:#DA261F;}
	.st4{fill:#232323;}
</style>
<g id="Artboard_1">
</g>
<g id="Artboard_2">
</g>
<g id="DESIGNED_BY_FREEPIK">
	<g>
		<polygon class="st0" points="305.3,0 314.6,18.9 335.5,21.9 320.4,36.6 324,57.4 305.3,47.6 286.7,57.4 290.2,36.6 275.2,21.9 
			296,18.9 		"/>
		<path class="st0" d="M36.5,182.2c0,0,18.2,3.8,19.2,2.4s11-20.3,11-20.3s3,20.1,4.1,21.3s18.4,2.5,18,2.5s-15.3,9-15.2,12.6
			c0.1,3.6,3,21.8,3,21.8S65.1,209.6,62,210.6s-20.8,12.3-20.8,12.3s10.4-20.6,9.2-23.6C49.2,196.3,36.5,182.2,36.5,182.2z"/>
		<path class="st0" d="M463.2,478.2c0,0,22.3-4.9,23.6-8.7c1.3-3.8,2.1-26.1,2.1-26.1s8,19.2,12.6,19.9c4.5,0.8,19.5-5.3,19.5-5.3
			s-13.9,15.6-13,20.1s9,16.9,9,16.9s-15.4-9-17.4-6.2s-13.5,19.1-13.5,19.1s2.1-23.4,0.8-25.8C485.4,479.8,463.2,478.2,463.2,478.2
			z"/>
		<path class="st1" d="M66.9,390c0.6,0,41.6-44.8,50-51.9s44.4-33.4,53.2-37.9c8.9-4.5,27.7-13.1,27.7-13.1s58.3-24.7,86.8-31.5
			c25.9-6.2,70.6-10.2,67.5-8.5c0,0,51.1-0.9,62.5,0c11.5,0.9,72.9,5.2,72.9,5.2L609,273.8L552.5,300c0,0-59.3-16.1-69.5-16.6
			c-10.2-0.4-136.6-11-136.6-11s-24.2,0.2-36.6,1.1c-33,2.2-105.4,26.5-105.4,26.5s-23.4,9.5-36.6,17s-42.4,26.7-48.7,32.1
			C113,354.5,66.9,390,66.9,390z"/>
		<path class="st2" d="M64.7,394.1c0.1,0,0.4-0.3,1.1-0.7c8.6-5.7,66.6-45.5,86.3-55.9c21.2-11.2,74.9-26.7,74.9-26.7s51.1-8,73.6-9
			c22.5-1.1,108.6,1.3,108.6,1.3l92.8,16.8l41.6-16.4c0,0-52.8-13.1-69.5-14.9c-16.7-1.7-124.9-9.7-124.9-9.7h-35.4
			c-8.6,0.9-11.6,0.9-19.2,2L203,300.6c0,0-41.6,16.6-59.6,30.2S64.7,394.1,64.7,394.1z"/>
		<path class="st3" d="M69.9,394.1c0,0,28.4-21.7,47.2-33.4s51.5-27.1,65.8-31s38.5-10.3,38.5-10.3l32.8-6.6c3.3-0.6,34-4,38.4-4.3
			l45.3-1.4l63.3,2l92.2,15.6L450,341.2c0,0-33.5-4.5-34.2-4.6c-0.6-0.1-56.7-8.5-71-8.5s-68.6-1.5-68.6-1.5s-35.3,1.9-70.6,10
			S129.4,363,129.4,363L69.9,394.1z"/>
		<path class="st0" d="M97.4,459.2c1,0.1,14,5.8,16.5,5.5c2.5-0.4,12.1-20.5,12.1-20.5l1.2,0.6c0,0,0.3,22.2,2.6,24.2
			c2.3,1.9,19.6,7.1,19.6,7.1s-19.1,5.6-19.8,8.7s2.1,21,2.1,21s-12.6-16.9-15.4-17.4s-16.7,6.4-16.6,6.2c0.1-0.2,8.8-13.6,8.8-16.6
			C108.5,475.1,97.4,459.2,97.4,459.2z"/>
		<path class="st0" d="M250.3,203.2l6.4-77.1l9.5,15.6L304,58.9l39.3,72.2l7.2-10.1l17.9,80.5l77.9-13.9l-3.8,12.7l81.4,6.4
			l-55.4,61.5c0,0-0.9,2.9,2.9,2.9s8.4,0,8.4,0s-69,37.8-69,39.5s52.2,62.3,52.2,62.3s-18.5-2-18.5,0s28,80.8,28,80.8L394.6,428
			c0,0-5.2-1.2-5.2,2.3s5.5,11.8,5.5,11.8l-73.3-54c0,0-4.6-1.2-5.2,0s11,99,11,99s8.4,18.2,9.8,19.9s-19.1,0-19.1,0
			s-7.5-2.9-7.5-8.1l-2.9-64.9l1.4-92.4l60.6,19.9c0,0,10.4,4.6,11,0.6s-25.4-62.3-25.4-62.3l45.9-40.1c0,0,4.6-6.1,2.3-7.2
			c-2.3-1.2-70.7-2.9-70.7-2.9s-25.7-64.7-27.7-64.9c-2-0.3-27.7,65.2-29.2,65.8s-67.8-1.7-68.7,0.3s49.1,46.8,49.1,49.6
			c0,2.9-26.3,60.9-24,62.9s61.5-26.3,63.5-25.1c2,1.2,6.4,0.3,7.2,5.2c0.9,4.9-2.3,27.4-18.8,45.6s-63.5,55.1-63.5,55.1
			s-0.6-17.3-2.6-17.9s-80.2,27.1-80.2,27.1s34.3-81.1,30.9-82.8s-18.2,2.3-18.2,2.3s47.6-56.6,47-58.9s-67-41.6-67.3-42.4
			c-0.3-0.9,11.3-1.2,11.3-4c0-2.9-55.1-61.2-55.1-61.2s83.1-5.2,83.7-7.8s-5.5-11.3-5.5-11.3L250.3,203.2z"/>
		<path class="st0" d="M549.3,171.7c0,0,5.3,15,7.7,15.8s22.6-1.4,22.6-1.4s-16.7,14-16,16.9c0.6,2.9,11,25.3,11,25.3
			s-18.1-14.6-20.9-13.4c-2.8,1.2-16.8,15.4-16.8,15.4s5.5-21.9,3.6-24.6c-1.9-2.7-14.8-11.9-14.8-11.9s18.5-2.1,19.1-4.1
			C545.2,187.6,549.3,171.7,549.3,171.7z"/>
	</g>
</g>
<g>
	<path class="st4" d="M733.1,78.4l-17.8,47.4c-4.6,12.3-6.9,19.1-6.9,20.2c0,1.7,0.7,2.9,2,3.7c1.4,0.8,3.6,1.4,6.6,1.8
		c0.5,0.1,2.5,0.4,6,0.9l0.1,4.3c0,0.7-0.1,1.3-0.2,2c-3.5,0-8.6-0.3-15.4-0.8l-9.8-0.7l-3.5,0.6c-4.1,0.6-8.6,1-13.5,1l0.2-5.7
		c0.6-0.2,2.5-0.6,5.7-1.3c4.4-0.8,7.2-1.7,8.4-2.7c1.2-0.9,2.7-3.6,4.5-8.1c1.8-4.4,6.6-17.2,14.3-38.4l11.3-29l10-26.7h9.2
		c1.8,3.5,6.6,14.8,14.4,34.1l2.3,5c2.5,5.7,6.1,14.5,10.7,26.6l2.7,6.5c1.9,4.5,3.9,9.5,5.9,14.9c2.2,5.8,3.9,10,5.3,12.4
		c1.4,2.5,3.4,3.8,5.9,4.1c3.1,0.4,5.9,1.1,8.4,2.1c0.3,1.8,0.4,3.2,0.4,4.2l-0.1,1.8c-4.2,0-8.9-0.2-14.3-0.6
		c-4.8-0.4-8.4-0.6-11-0.6c-7.1,0-14,0.3-20.7,0.8l-9.7,0.3c0-2,0.1-3.9,0.3-5.7c0.3-0.1,2.3-0.5,6.2-1.2c4.6-1.2,7.3-2,8-2.4
		c0.7-0.3,1-1,1-2.1c0-1-2.1-6.5-6.3-16.5l-3.8-9.6C741.4,97.8,735.7,83.5,733.1,78.4z"/>
	<path class="st4" d="M855.4,135.3c-0.5-3.2-5.8-11.8-15.9-25.9c-3.2-4.5-6.2-8.9-9-13.2c-5-7.9-9.9-15.3-14.8-22.2l-2.2-3.6
		c-2.5-4.1-5.3-8.1-8.4-12c-1.2-1.2-3.4-2.1-6.5-2.6l-1.3-0.3c-1.3-0.3-2.3-0.6-2.9-0.7c-0.3-0.5-0.4-1-0.4-1.4c0-0.3,0-0.8,0.1-1.3
		c0.1-0.6,0.1-1.4,0.2-2.5c0.8-0.3,2.5-0.5,5-0.5l5.6-0.2c0.2,0.1,0.5,0.1,0.8,0.2c1.4,0.2,2.4,0.3,3,0.3c0.1,0,0.4,0,0.8-0.1
		c5.9,0.9,13.8,1.4,23.6,1.4c4.5,0,9-0.3,13.3-0.9c0.6-0.1,1.1-0.2,1.4-0.2c0.1,0,0.3,0,0.6,0.1c0.3,0.7,0.4,1.3,0.4,1.7
		c0,0.1,0,0.5-0.1,1c-0.1,0.4-0.1,0.7-0.1,0.9l0.1,2.5c-1.1,0.5-2.7,0.8-4.6,1.2l-3.8,0.7c-1.8,0.3-3.7,0.6-5.7,0.9
		c-0.5,0.1-0.7,0.5-0.7,1.4c0.8,1.9,2.5,4.8,5.1,8.7l2.3,3.7l4.5,6.4l11.9,18.3l8.7,15.8l22.3-47.6c1.7-3.6,2.6-5.7,2.6-6.2
		c0-1.6-1.9-2.4-5.6-2.4l-3.2-0.6c-1.4-0.2-2.3-0.4-2.7-0.5c-0.1-0.4-0.3-2.5-0.5-6.3c1,0,3.4,0.2,7.3,0.5l10.1,0.4l2.1,0.3h4.1
		l1.4-0.1c1.2-0.2,2.4-0.3,3.5-0.3l2.8-0.3l0.8-0.1c0.8-0.1,1.7-0.1,2.5-0.3L914,56l-1.1,0.3c-4.7,0.6-8.1,1.6-10.1,2.9
		c-2,1.3-4.3,4.8-6.9,10.4L866,133.6c-8.6,18.4-20.2,27.7-34.7,27.7c-5.8,0-10.4-1.4-13.8-4.2c-3.5-2.8-5.2-6.2-5.2-10.2
		c0-3.1,1-5.7,3.1-7.9c2-2.2,4.8-3.4,8.1-3.4c1.8,0,3.5,0.4,5.1,1.1c1.7,0.7,3.7,2.9,6.2,6.6c2,3,4.1,4.5,6.2,4.5
		C846.4,147.7,851.2,143.6,855.4,135.3z"/>
	<path class="st4" d="M912.5,55.1l-0.3-6.6l3.9-0.1c2.4,0,5.1,0.1,8,0.3l12.7,0.6c9,0,18.8-0.3,29.1-0.8c-0.1,0.6-0.1,0.9-0.1,1
		l0.1,2.4l0.1,2.5v0.7c-2.7,0.5-5.7,0.7-8.9,0.7c-2.9,0-4.7,0.5-5.4,1.5c-0.7,1-1.1,4.5-1.1,10.4c0,18,0.2,29,0.6,33.1
		s2.3,7.6,5.7,10.4c3.4,2.9,7.9,4.3,13.7,4.3c4.5,0,8.8-1.2,13.1-3.5c4.3-2.3,7.2-5.8,8.9-10.3c1.7-4.6,2.5-16,2.5-34.3
		c0-3.7-0.4-6.9-1.1-9.3c-2.3-1.1-5.4-1.7-9.4-2c-2.8-0.1-4.4-0.2-4.7-0.3l-0.2-7.3l16.3,0.8l4.8,0.1l3.6,0.1c3.4,0.2,5.7,0.2,7,0.2
		c2.6,0,6-0.2,10.2-0.6c2.9-0.3,7-0.4,12.2-0.6c-0.2,0.7-0.3,1.1-0.3,1.2l0.2,1.7c0.2,1.2,0.3,1.8,0.3,1.9c0,0.2-0.1,0.6-0.3,1.4
		c-1.9,0.7-4.4,1.4-7.4,2.1c-3.5,0.8-6.1,1.6-7.6,2.3c-0.3,1.6-0.5,4.1-0.5,7.5l0.2,6.2l0.3,8l-0.4,14.9l-0.3,13.9l0.2,28.2
		c0,6.9,0.1,10.8,0.3,11.6c3.1,0.7,6.3,1.2,9.6,1.5l5.1,0.7c0.2,1.7,0.3,3.1,0.3,4.3l-0.1,2.9l-1.6,0.1l-14.9-0.4l-4.9-0.5
		c-4.6-0.4-7.8-0.5-9.3-0.5c-2.9,0-6.2,0.1-9.7,0.4c-6.1,0.6-10.6,0.8-13.3,0.8l0.1-6.1c0.6-0.2,2.5-0.7,5.5-1.4
		c4.1-1,6.9-2,8.3-2.8c1-1.5,1.4-3.9,1.4-7.3v-9.2l-0.2-19.5c-8,8.1-18.2,12.1-30.6,12.1c-7.5,0-14-0.9-19.5-2.7s-9.6-4.3-12.2-7.6
		c-2.7-3.2-4.3-6.8-4.8-10.6c-0.5-3.8-0.8-11.8-0.8-23.9l0.1-1.6l0.1-4.8l-0.3-7.1l-0.1-2.2c-0.1-3.6-0.7-5.9-2-7
		c-1.2-1.1-4.4-1.7-9.4-1.9C914.2,55.3,913.1,55.2,912.5,55.1z"/>
	<path class="st4" d="M1224.9,149.2c0.8,0.2,1.9,0.4,3.3,0.6l8.1,1.1c0.8,0.2,1.4,0.3,1.9,0.3c1,0.1,1.6,0.3,1.7,0.6
		c0.1,0.3,0.2,1.3,0.2,3c0,1.8-0.3,2.8-0.8,3c-0.6,0.2-2.1,0.3-4.7,0.3c-1.5,0-3.4-0.1-5.8-0.2l-39.5-0.6l-19.9,0.1l-12.1-0.2
		l-18,0.2l-32.4-0.4h2.5l-19.8-0.2c-15.7,0-26.3,0.4-31.8,1.1c-2.2,0.2-3.5,0.3-4.2,0.3c-1.6,0-3,0-4.3-0.1c-1.3-0.1-2-0.2-2-0.4
		c0-0.4,0.1-0.8,0.2-1.4c0.1-0.7,0.2-1.5,0.2-2.2v-1.1c0-1,0.6-1.4,2-1.4c0.8-0.1,2-0.3,3.3-0.7l8.4-2.5c1.1-0.2,1.7-0.8,2-1.7
		c0.3-0.9,0.4-3.8,0.4-8.6c0-0.4,0-1-0.1-1.7l-0.1-4.2l-0.1-18.9l0.1-14.9l-0.2-11.1l0.1-12c0-2.9-0.1-6.3-0.3-10l0.3-6.3
		c0-0.5-0.8-0.9-2.5-1.2c-1.5-0.2-4.1-0.8-7.7-1.9c-3.6-1-5.7-1.9-6.3-2.7c-0.6-0.8-0.9-1.6-0.9-2.6c0-1.7,1.4-2.5,4.2-2.5
		c1.8,0,3.3,0.1,4.6,0.2l3.9,0.1l2.4,0.3c4.6,0.5,12,0.8,22.2,0.8c3.3,0,6.4-0.1,9.2-0.3l8.9-0.8c2,0.1,3,0.4,3,0.8
		c0,0.5,0,1-0.1,1.6c-0.1,0.3-0.1,0.6-0.1,0.9v1.3c0,1.1-0.5,1.6-1.4,1.7c-2.4,0.6-6.2,1.4-11.4,2.2l-3.1,0.7
		c-0.2,0-0.4,0.1-0.6,0.3c-0.2,0.2-0.3,0.8-0.3,1.7l0.1,1.3l-0.8,11.7c-0.1,0.8-0.1,2-0.1,3.6l0.2,17.7l-0.3,28
		c0,7,0.2,12.1,0.5,15.2c0.2,1.8,0.3,3.5,0.3,5c0,0.7-0.1,1.5-0.2,2.3c-0.1,0.8-0.2,1.7-0.2,2.5c0,0.6,0.6,0.8,2,0.8
		c0.3,0,0.7,0,1-0.1h0.9c0.8,0,1.8,0.1,3.1,0.2c2.6,0.2,5.2,0.3,7.9,0.3c1.9,0,3.8-0.1,5.8-0.2c2.6-0.1,5.2-0.2,7.8-0.2
		c5.1,0,9,0.3,11.5,0.8c0.7,0.2,1.5,0.3,2.2,0.3c0.8,0,1.3-0.4,1.6-1.3c0.3-0.9,0.4-4.2,0.4-10.1l-0.2-4.6v-18.8l0.1-15l-0.2-11.1
		v-12l-0.2-9.9l0.3-6.3c0-0.5-0.9-0.9-2.6-1.2c-1.5-0.2-4-0.9-7.6-1.9c-3.6-1-5.7-1.9-6.3-2.7c-0.6-0.7-0.9-1.6-0.9-2.5
		c0-1.7,1.4-2.5,4.1-2.5c1.8,0,3.3,0,4.6,0.1l6.4,0.4c4.6,0.5,12,0.8,22.2,0.8c3.3,0,6.3-0.1,9.2-0.3l8.9-0.8c2,0.1,3.1,0.4,3.1,0.8
		c0,0.5-0.1,1-0.2,1.6c-0.1,0.3-0.1,0.6-0.1,0.9l0.1,1.3c0,1-0.5,1.6-1.4,1.7c-2.4,0.6-6.2,1.4-11.4,2.2l-3.2,0.6
		c-0.2,0.1-0.4,0.2-0.6,0.4c-0.1,0.2-0.2,0.8-0.2,1.7v1.2l-0.7,11.7c-0.1,0.9-0.1,2.1-0.1,3.6l0.2,18.4l-0.3,27.2
		c0,7.1,0.2,12.2,0.5,15.3c0.2,1.8,0.3,3.5,0.3,4.9c0,0.8-0.1,1.6-0.2,2.3c-0.2,0.8-0.3,1.7-0.3,2.5c0,0.6,0.7,0.8,2,0.8h0.9
		c1.6,0,2.9,0,4.1,0.1c1,0.1,2.2,0.1,3.7,0.1l14.6-0.1l13.3,0.2c1.8,0,4.1-0.2,7.1-0.7c0.2-2.3,0.3-4,0.3-5.3l-0.1-11.5l0.1-16.6
		l-0.1-36.5l-0.1-13.7v-4.2c0-1.5-0.1-2.2-0.3-2.3c-0.2-0.1-1.1-0.3-2.8-0.6l-5.6-0.8c-4.8-0.8-7.3-1.4-7.7-1.6
		c-0.4-0.2-0.6-0.8-0.6-1.9c0-0.2,0-0.6-0.1-1.1c-0.1-0.4-0.1-0.8-0.1-1.2c0-1.4,0.5-2.1,1.5-2.1c0.6,0,1.2,0,1.9,0.1h3.5
		c1.2,0,2.5,0.1,4,0.2c2.5,0.2,5.9,0.4,10.3,0.4l4.3,0.4l8.9,0.1c2.2,0,4.8-0.2,7.8-0.6l6.4-0.4h1.3c0.9,0.1,1.8,0.1,2.7,0.1
		c0.8,0,1.4,0,1.8-0.1c0.7-0.2,1.4-0.3,2-0.3c0.2,0,0.3,0.1,0.4,0.2c0,1-0.1,1.9-0.2,2.6l-0.2,2.2c-0.1,0.8-0.2,1.2-0.2,1.3
		c0,0.1-0.1,0.1-0.3,0.2c-0.1,0.1-0.6,0.1-1.3,0.1c-0.5,0-1.2,0.1-2,0.3c-0.7,0.2-2.4,0.5-5.3,1l-6,1.4c-0.2,0.1-0.3,0.4-0.3,1.1
		v0.8c0.1,1,0.2,1.9,0.2,2.9c0,2.5-0.3,6-0.8,10.4c-0.3,2.8-0.5,4.7-0.5,5.8l0.3,9.7l0.1,8l-0.2,5.3l-0.2,14.2l-0.1,17
		C1223.3,139.9,1223.8,145.6,1224.9,149.2z"/>
	<path class="st4" d="M1243.1,158.9l0.2-5.8c1.1-0.3,3-0.8,5.7-1.3c4.4-0.8,7-1.6,7.9-2.3c0.9-0.7,2.1-2.3,3.4-4.9l17.1-44.9
		l20.1-52.7c1.9,0,3.7,0,5.4,0h3.8l0.8,1.5l14.8,35c3.3,7.4,6.3,14.6,9,21.6c2.7,7,4.9,12.7,6.9,17.1c1.1,2.7,2.7,6.6,4.7,12
		c1,2.9,2.6,6.5,4.7,10.9c1.1,2.4,2,3.8,2.5,4.2c1,0.8,2.7,1.4,5,1.7c2.3,0.3,4.8,0.9,7.4,2c0.3,1.9,0.4,3.3,0.4,4.2
		c0,0.4,0,1-0.1,1.9c-4.2,0-8.8-0.2-13.8-0.6c-5-0.4-9.6-0.6-13.6-0.6c-4.5,0-7.7,0.1-9.7,0.2l-14.4,0.8l-4.2,0.2
		c0-2,0.1-3.9,0.3-5.7l9.4-2c2.8-0.7,4.5-1.3,4.9-1.7c0.6-0.6,0.8-1.2,0.8-2c0-0.7-0.1-1.5-0.4-2.3l-3.4-8.3l-6.7-16.6l-32.4-0.1
		c-1.2,2.7-3.7,9.4-7.5,19.9c-1.1,3-1.6,5-1.6,6.1c0,1.5,0.4,2.5,1.2,3.1c1.3,1.1,3.8,1.8,7.5,2.3c0.5,0.1,2.5,0.4,6,0.9
		c0.1,2,0.1,3.5,0.1,4.2c0,0.6-0.1,1.3-0.2,2c-3.5,0-11.9-0.5-25.1-1.4l-3.5,0.6c-4.2,0.7-8.2,1-12,1H1243.1z M1283,111.2
		c13.2,0.2,21,0.3,23.4,0.3l2.1-0.1c-1.7-5-3.9-10.9-6.6-17.6c-2.7-6.7-4.9-11.8-6.6-15.3L1283,111.2z"/>
	<path class="st4" d="M1473.8,153.6c0.1,1.1,0.2,2,0.2,2.6c0,0.5-0.1,1.5-0.2,2.8c-5.5,0-10.8-0.3-15.9-0.8l-3.5-0.1l-2.8-0.3
		c-2.5-0.2-4.5-0.3-6-0.3c-2.3,0-9.5,0.5-21.6,1.5l-3.3-0.2c-0.5,0-1.2,0-2.2,0.1c-0.3-1.2-0.4-3.3-0.4-6.3c0.6-0.3,2.7-0.9,6.2-1.6
		c5.1-1.1,9-2.3,11.5-3.8l-0.4-15.9l0.2-16.7l-0.3-5.7l0.1-2.3l-6.1-0.2c-3.6,0-6.1,0.4-7.5,1.2c-1.4,0.8-2.7,2-3.8,3.7
		c-1.1,1.7-3.8,6.6-8.1,14.8c-4.3,8.2-7.8,15.4-10.6,21.6l-5.1,11.2l-9.1-0.8l-22.9,0.8h-1.2l-3.6-0.1c-0.1-0.8-0.1-1.4-0.1-2
		c0-0.8,0.2-1.6,0.6-2.5c1.3-0.5,3.2-1.2,5.7-2c3-1,5.4-2.5,7.2-4.6c1.8-2.1,6.1-8.9,12.9-20.4c8.4-14.2,14.2-22.2,17.3-24.1
		c-16.5-4.4-24.7-13.2-24.7-26.5c0-8.3,3.2-15.1,9.5-20.6c6.4-5.5,17.5-8.2,33.3-8.2c4.6,0,8.9,0.2,12.9,0.7
		c5.3,0.5,11.5,0.8,18.7,0.8l3.3-0.1l3.1-0.1c7,0,12.2,0.3,15.5,0.8c0.2,0.5,0.3,0.8,0.3,0.9v2.2c0,1.7-0.1,2.7-0.2,2.9
		c-1.1,0.2-2.8,0.4-5.1,0.6c-3.6,0.3-6.6,0.7-9.1,1.3c-0.3,3.2-0.4,10.6-0.4,22.1l0.4,22.3l-0.1,7.9l0.3,12.1l-0.1,7.3
		c0,11.8,0.2,18.5,0.6,20.3c2,0.8,4.8,1.4,8.2,1.9C1470.5,152.3,1472.5,152.8,1473.8,153.6z M1435.6,98.8l-0.2-8.6l-0.1-3.9l0.1-9.2
		l-0.2-7V57c-1.6-0.3-3.9-0.4-7-0.4c-8.7,0-15.1,1.6-19.1,4.9c-4,3.3-6,8.7-6,16.4c0,7,2.1,12.3,6.3,15.8c4.2,3.5,10.9,5.3,20.2,5.3
		L1435.6,98.8z"/>
	<path class="st4" d="M747.3,264c5,1.6,9.5,4.4,13.3,8.3s8.5,10.8,14,20.5c6.4,11.4,11.3,18.7,14.6,21.9c3.3,3.2,7.7,5.6,13.3,7.2
		c2,0.6,3.3,1,3.9,1.4c0.1,1,0.2,1.8,0.2,2.4c0,0.7-0.1,1.7-0.3,3.1l-9.3-0.2l-12.8-0.3c-3.2,0-7.5,0.2-12.7,0.6
		c-3.6-7.7-9-17.5-16.3-29.6c-7.2-12.1-12.5-19.3-15.9-21.6c-3.4-2.3-6.8-3.5-10.3-3.5c-0.2,2.1-0.3,4-0.3,5.7l0.4,11.7
		c0.1,2.4,0.2,4.6,0.2,6.8l-0.2,10.2l0.2,3l0.2,5.9c1.1,1.3,4,2.5,8.5,3.7c2.5,0.7,4.7,1.6,6.4,2.7c0.2,1.1,0.3,2,0.3,2.5
		c0,0.5-0.1,1.2-0.2,2.1c-2.5,0.1-4.6,0.2-6.2,0.2c-4.2,0-8.8-0.2-13.7-0.5l-5.7-0.3L711,328l-15-0.1l-8.1,0.3l-0.1-4.8
		c0.5-0.4,3.2-1.5,8-3.3l2.2-0.9c2.5-1.1,4.2-1.8,5-2c1.1-0.7,1.9-1.6,2.2-2.8c0.3-1.2,0.5-5.6,0.5-13.2l-0.3-8.1l0.1-18l-0.1-12.7
		l0.2-3.7l-0.2-10.9l0.3-4.3c0-6.6-0.4-11-1.3-13.3c-1.8-1.5-5.1-2.8-10.2-4.1c-3-0.7-5-1.5-6.1-2.3l0.6-5.3
		c1.1-0.2,2.2-0.3,3.4-0.3c4.1,0,8.2,0.3,12.3,0.8c4.1,0.5,9.4,0.8,15.9,0.8l3.6-0.2l10.2-0.3c1.5-0.1,3.6-0.2,6.3-0.4l3-0.3
		l2.1,0.1c0.2,0.5,0.3,1.1,0.3,1.9c0,1.9-0.1,3.2-0.3,3.7c-3.5,1.3-7,2.3-10.7,2.9c-2.8,0.5-4.6,1-5.3,1.4c-0.7,0.5-1,1.5-1,3.1
		c0,5.7,0.1,9.4,0.2,11.2l0.2,7.2l-0.2,5.4v6.4l-0.1,7.3c3.3-1.1,6.6-2.7,9.7-5c3.2-2.3,7.1-7.4,12-15.4
		c8.3-13.9,15.2-22.7,20.8-26.4c5.6-3.8,11.3-5.6,16.9-5.6s10,1.4,12.9,4.3c3,2.9,4.4,6.3,4.4,10.2c0,2.9-0.9,5.5-2.8,7.8
		c-1.8,2.3-4.4,3.4-7.6,3.4c-2.5,0-4.5-0.5-5.9-1.6c-1.4-1-3.2-3.1-5.3-6.1c-2-3.1-4.1-4.6-6.1-4.6c-4.8,0-10.9,6.4-18.4,19.4
		C755,256.9,750.9,261.8,747.3,264z"/>
	<path class="st4" d="M813.6,272.3c0-7,1.4-14.1,4.1-21.1c2-5.1,4.7-9.8,8.3-14c3.6-4.2,8-8,13.4-11.3c5.4-3.3,10.9-5.7,16.5-7.1
		c5.6-1.4,11.8-2.2,18.7-2.2c11.8,0,22,2.2,30.6,6.6c8.6,4.4,15.5,10.4,20.4,17.9c6.4,9.8,9.7,20.1,9.7,30.8
		c0,16-5.4,29.7-16.3,41.2c-10.9,11.4-26,17.1-45.4,17.1c-4.8,0-9.3-0.3-13.5-0.9c-3.2-0.5-5.9-1.1-8.3-1.9
		c-4.3-1.4-6.7-2.2-7.2-2.5c-6.2-3.5-11.1-7.1-14.8-10.8c-3.7-3.7-6.9-7.8-9.5-12.5c-1.4-2.6-3-7.3-4.8-14.1
		C814.2,283.3,813.6,278.2,813.6,272.3z M871.3,225c-4.9,0-9.3,1.1-13.1,3.4c-3.8,2.3-6.6,4.8-8.6,7.6c-3.2,4.7-5.5,9.8-6.9,15.4
		c-1.4,5.6-2,12.3-2,20.3c0,4.9,0.2,8.3,0.6,10.4c0.1,0.7,0.3,1.8,0.5,3.5c0.5,4.2,1.1,7.2,1.8,9.2c2.4,7.2,4.2,11.6,5.2,13.3
		c1.7,2.9,4.2,5.7,7.5,8.6c1.7,1.5,4.2,2.8,7.4,4c3.2,1.2,6.4,1.8,9.7,1.8c6.1,0,11.8-1.4,17-4.3c5.2-2.9,9.4-7.7,12.6-14.6
		c3.2-6.8,4.7-15.8,4.7-26.7c0-4.5-0.3-10.7-0.9-18.4l-0.4-1.6c-0.2-0.5-0.5-1.6-0.8-3.5c-2.1-9.3-6.1-16.3-12-21.2
		C887.7,227.4,880.3,225,871.3,225z"/>
	<path class="st4" d="M947,328.6l0.3-5.8c7.1-0.9,11.6-2.3,13.5-4.3c1.2-1.4,2.2-4.9,2.9-10.6l1.1-30.2L966,247
		c0.1-1.9,0.2-3,0.2-3.4c0-8-0.5-12.6-1.4-13.8c-0.9-1.2-4.6-2.5-10.9-3.6c-1.6-0.3-2.8-0.6-3.7-0.8c-0.1-1.4-0.2-2.6-0.2-3.6V219
		c2.1-0.2,4.5-0.3,7.4-0.3l24.8,0.8c0.6,0.1,1.4,0.1,2.4,0.2l3.9,0.2c1,1.2,1.9,2.7,2.9,4.5c2.1,4.1,4.8,10.2,8.3,18.2l1,2.3
		l13.2,28.8c0.3,0.7,0.8,1.6,1.4,3c0.9,2,1.8,3.9,2.7,5.8c0.9,1.9,1.8,3.9,2.9,6.1c1,2.2,2,4.2,2.8,5.9c0.8-1.4,1.6-2.9,2.3-4.5
		c2.3-5.2,4.5-10,6.6-14.3c3.7-7.7,8.8-19.5,15.2-35.3c1-2.5,2.7-6.4,5-11.5c2.3-5.1,3.6-7.8,3.9-8.1c0.5-0.5,1.5-0.7,3.1-0.7
		c0.6,0,1.4,0,2.6-0.1c2.9-0.2,6.5-0.3,10.6-0.4c5.9-0.1,10.7-0.2,14.3-0.6c3.6-0.3,5.6-0.5,6.1-0.5c0.6,0,1.2,0.1,2,0.2
		c0.1,0.8,0.1,1.4,0.1,1.9l-0.2,2.5c0,0.5,0,1.3-0.1,2.3c-5.3,0.8-9.6,2-13,3.6c-2.3,1.1-3.5,2.5-3.5,4.2v1.3l1.5,26
		c0.2,2.4,0.6,14.2,1.4,35.4c0.2,4.8,0.5,10.8,1.1,18.1c0.1,0.9,0.2,1.6,0.2,2.1c0.1,1.4,0.4,2.2,0.9,2.6c0.5,0.4,5.6,2,15.2,4.9
		c0.1,0.9,0.1,1.6,0.1,2c0,1.2,0,2.4-0.1,3.6c-1.5,0-5.4-0.3-11.5-1c-6.2-0.6-11.9-1-17.3-1c-8.2,0-16.2,0.3-23.9,1
		c-1,0.1-2,0.2-3,0.3l0.2-5.9c2.3-0.9,5.4-1.7,9.2-2.3c2.7-0.5,4.4-1.2,5.2-2.3c0.7-1.1,1.1-4.1,1.1-9c0-1.9,0-3.5-0.1-4.9
		c-0.3-5.9-0.5-14.2-0.5-24.8l-1.4-30c-0.2-4.2-0.4-7.2-0.6-8.8l-21.1,48.5c-0.5,1.1-1.3,2.8-2.3,4.9c-1.3,2.8-2.2,4.7-2.6,5.7
		c-4.4,10.5-7.4,18.5-9.1,24c-0.5,1.4-1.1,3.3-2,5.5l-6.5-0.1l-4.6-13c-1.4-3.4-3.7-8.5-7-15.4c-1.9-4-3.4-7.3-4.5-9.8
		c-0.5-1-0.9-1.8-1.1-2.3l-1-2.1c-0.1-0.3-0.1-0.6-0.3-0.8l-12.7-27.2l-7.7-16.5l-0.7,40.1l-0.6,26.1c0,4.3,0.8,7.4,2.4,9.2
		c1.6,1.8,5.1,3.4,10.4,4.7l4.1,1v6.2c-3.3-0.1-6.8-0.3-10.6-0.7c-3.8-0.4-8.8-0.6-15-0.6C962.4,327.8,956.8,328.1,947,328.6z"/>
	<path class="st4" d="M1108.2,328.3c0-1.8,0.2-3.8,0.5-6c0.5-0.1,1.7-0.3,3.6-0.5l3.6-0.7c3.6-0.6,6.3-1.3,8.1-2l1.1-21.2l-0.3-17.1
		v-5.3l0.3-23.8l-0.1-7.4v-3.6c0-6.7-0.5-11.3-1.4-13.6c-0.3-0.2-0.8-0.3-1.5-0.3c-0.5-0.1-1-0.1-1.6-0.3c-2.6-0.5-4.9-0.7-7-0.8
		l-1.3-0.3c-1.6-0.2-2.7-0.4-3.5-0.7c-0.2-1.6-0.3-2.7-0.3-3.1c0-0.7,0.2-1.6,0.5-2.8c1.2-0.3,2.6-0.4,4-0.4c3.4,0,6.9,0.1,10.5,0.4
		c10.2,0.7,21.4,1.1,33.4,1.1l27.3-0.4l20.1,0.2c15,0,25.7-0.4,31.9-1.1c2.4-0.3,4.1-0.4,5-0.4c1.1,0,2.8,0.1,5.3,0.3
		c-0.1,2.3-0.2,4.3-0.4,6c-7.6,1.5-12.7,2.9-15.1,4.3c-0.5,1.1-0.7,4.3-0.7,9.6v1.7l0.1,4.2l0.1,18.9l-0.1,14.9l0.2,11.1v12l0.2,10
		c0,2-0.1,4.2-0.2,6.8c1.2,0.3,2.3,0.6,3.3,0.8c5.3,1.1,9.3,2.3,12,3.5l0.3,6l-4,0.1c-0.7,0-1.7-0.1-3-0.2l-6.4-0.4
		c-4.6-0.5-12-0.8-22.2-0.8c-3.3,0-6.4,0.1-9.2,0.3l-8.9,0.8c-0.8,0-1.8-0.2-2.9-0.5c0.1-2.7,0.2-4.6,0.4-5.5l5.8-1.4l3.3-0.6
		c3.6-0.6,5.9-1,7-1.4c0.7-2.8,1.1-20.4,1.1-52.8l-0.5-36.7c-1.8-0.2-4.1-0.3-6.8-0.3l-39.3-0.4l-0.8-0.1c-0.2-0.1-0.4-0.1-0.6-0.1
		c-0.4,0-0.8,0-1.4,0.1l-3.7,0.1c-3.1,0-5.1,0.2-6,0.6c-0.3,5.9-0.4,11-0.4,15.4l0.3,43.7v24.5c0,3.1,0.1,5.2,0.3,6.3
		c0.3,0.4,1.3,0.7,3,0.8l3.9,0.6c1.6,0.2,3.2,0.5,4.8,0.8l3.1,0.7c0.7,0.1,1.4,0.4,1.9,0.8c0.2,1.3,0.3,2.2,0.3,2.6
		c0,0.7-0.1,1.8-0.3,3.1l-5.3,0.1c-2.2,0-5.2-0.2-9.1-0.5l-6.4-0.1l-4.3-0.4l-8.9-0.1c-2.3,0-4.9,0.2-7.8,0.6l-5.5,0.4H1108.2z"/>
	<path class="st4" d="M1250.8,328.7l0.2-5.8c1.1-0.3,3-0.8,5.7-1.3c4.4-0.8,7-1.6,7.9-2.3c0.9-0.7,2.1-2.3,3.4-4.9l17.1-44.9
		l20.1-52.7c1.9,0,3.7,0,5.4,0h3.8l0.8,1.5l14.8,35c3.3,7.4,6.3,14.6,9,21.6c2.7,7,4.9,12.7,6.9,17.1c1.1,2.7,2.7,6.6,4.7,12
		c1,2.9,2.6,6.5,4.7,10.9c1.1,2.4,2,3.8,2.5,4.2c1,0.8,2.7,1.4,5,1.7s4.8,0.9,7.4,2c0.3,1.9,0.4,3.3,0.4,4.2c0,0.4,0,1-0.1,1.9
		c-4.2,0-8.8-0.2-13.8-0.6c-5-0.4-9.6-0.6-13.6-0.6c-4.5,0-7.7,0.1-9.7,0.2l-14.4,0.8l-4.2,0.2c0-2,0.1-3.9,0.3-5.7l9.4-2
		c2.8-0.7,4.5-1.3,4.9-1.7c0.6-0.6,0.8-1.2,0.8-2c0-0.7-0.1-1.5-0.4-2.3l-3.4-8.3l-6.7-16.6l-32.4-0.1c-1.2,2.7-3.7,9.4-7.5,19.9
		c-1.1,3-1.6,5-1.6,6.1c0,1.5,0.4,2.5,1.2,3.1c1.3,1.1,3.8,1.8,7.5,2.3c0.5,0.1,2.5,0.4,6,0.9c0.1,2,0.1,3.5,0.1,4.2
		c0,0.6-0.1,1.3-0.2,2c-3.5,0-11.9-0.5-25.1-1.4l-3.5,0.6c-4.2,0.7-8.2,1-12,1H1250.8z M1290.8,281c13.2,0.2,21,0.3,23.4,0.3
		l2.1-0.1c-1.7-5-3.9-10.9-6.6-17.6c-2.7-6.7-4.9-11.8-6.6-15.3L1290.8,281z"/>
	<path class="st4" d="M1372.5,328.3c0-1.7,0.2-3.7,0.5-6l10.7-1.9c1.3-0.3,2.9-0.7,4.7-1.4l1.1-21.2c-0.2-7.6-0.3-13.4-0.3-17.1
		l0.1-2c0.2-2.3,0.3-8.1,0.3-17.5l-0.2-2.5l0.2-7.1l-0.2-7.4v-3.6c0-3.3-0.2-7.1-0.7-11.5c-0.1-0.4-0.3-1.1-0.6-2
		c-0.5-0.2-1-0.3-1.5-0.3c-0.5-0.1-1.1-0.1-1.7-0.3c-2.2-0.4-4.6-0.7-7.1-0.8l-1.3-0.3c-1.5-0.2-2.7-0.4-3.5-0.7
		c-0.2-1.6-0.3-2.7-0.3-3.1c0-0.7,0.2-1.6,0.5-2.8c1.1-0.2,2.7-0.3,4.8-0.3s3.5,0,4.2-0.1c6.9,0.7,12,1.1,15.4,1.2
		c1.5,0,3.1,0,4.6,0.1c1.6,0.1,2.9,0.1,4.1,0.1c1.9,0,6.4-0.3,13.7-0.8c1.2-0.3,2.5-0.4,3.9-0.4c2.1,0,3.9,0.1,5.3,0.3
		c0.1,1.2,0.1,2,0.1,2.5c0,0.9-0.1,2-0.3,3.3l-15,2.4c-1.2,0.6-1.8,1.4-1.8,2.5l0.2,3.1l0.1,1.4l-0.1,3.7l-0.1,2.9v0.7
		c0.1,0.6,0.2,1.2,0.2,1.6l-0.2,10.8c0.1,1,0.2,1.8,0.2,2.3c0,0.3,0,1.2-0.1,2.7c0,0.9-0.1,1.8-0.1,2.8c0,0.8,0.1,2.9,0.2,6
		c1.6,0.3,2.9,0.5,4,0.5l12.5,0.3h6.1l15.3,0.1l14.8-0.4c1.9,0,4-0.2,6.1-0.6c0.1-1.9,0.2-6.6,0.3-14.2l0.2-3.8l-0.5-14.4l-0.6-5.9
		c-0.2-0.4-0.6-0.8-1.2-1.1c-2-1.1-5.9-2.4-11.9-3.8c-1.1-0.2-2.1-0.5-3.1-0.8c0.1-2,0.3-3.6,0.7-4.8c1.2-0.1,2-0.1,2.3-0.1l8.2,0.1
		c5.3,0.7,10.6,1,16,1c1.2,0,2.2,0,3-0.1l11-0.3c1-0.1,2-0.1,3-0.2c2-0.5,4.1-0.7,6.3-0.7c1.6,0,3.6,0.1,5.9,0.3
		c-0.1,2.2-0.2,4.2-0.4,6c-5.2,1.1-8.6,1.9-10.2,2.3c-1.6,0.5-3.2,1.1-4.9,2l-0.5,1.7v1.4l0.1,2.2l-0.1,1.1
		c-0.2,1.2-0.2,2.1-0.2,2.7v2.1c0.1,2.5,0.2,4,0.2,4.2v10.8l0.1,8.1l-0.2,10.8c-0.1,2.5,0,7.6,0.3,15.3v12l0.2,10
		c0,1.9-0.1,4.1-0.2,6.8c1.2,0.3,2.3,0.6,3.3,0.8c5.3,1.1,9.3,2.3,12,3.5l0.3,5.9c-2.3,0.1-3.6,0.1-4,0.1c-2.7,0-5.8-0.2-9.3-0.5
		c-4.6-0.5-12.1-0.8-22.4-0.8c-4.6,0-10.6,0.4-18,1.1c-0.8,0-1.8-0.2-2.9-0.5c0.1-2.6,0.2-4.4,0.4-5.5l6.5-1.5l6.9-1.1
		c0.7-0.2,1.6-0.4,2.6-0.8c0.6-4.6,1-12.2,1-22.8l0.1-7.2c-0.3-3-0.5-6.6-0.5-10.8c-2.1-0.2-4.4-0.3-6.8-0.3l-39.3-0.4l-0.8-0.1
		l-0.6-0.1c-0.4,0-0.8,0-1.4,0.1c-1.5,0.1-2.7,0.1-3.7,0.1h-2.4c-1.1,0-2.3,0.2-3.6,0.6l-0.4,6.4v1.1c0.1,1.5,0.2,2.5,0.2,3v26.3
		c0,1.5,0.1,3,0.3,4.5l0.8,0.5l12.5,2c0.6,0.2,1.1,0.4,1.5,0.4c0.7,0.2,1.4,0.4,1.9,0.8c0.2,1.3,0.3,2.2,0.3,2.6
		c0,0.7-0.1,1.8-0.3,3.1c-2,0.1-3.8,0.1-5.2,0.1c-1.2,0-2.4,0-3.5-0.1c-0.5,0-1,0-1.4-0.1l-12-0.5c-2.8-0.3-6.8-0.4-11.9-0.4
		l-1.8,0.1c-2.4,0.1-3.8,0.2-4.2,0.3C1385.5,328.1,1380,328.3,1372.5,328.3z"/>
	<path class="st4" d="M1562.4,297.9c30.1-30.4,49.8-50.8,59.1-61.5c0-4.2-0.1-6.6-0.4-7.3c-0.3-0.6-1.2-1.4-2.8-2.1
		c-1.6-0.8-4.7-1.7-9.3-2.8c-2.2-0.5-3.6-0.9-4.3-1.2c0.1-2.1,0.3-3.7,0.7-4.8l2.4-0.1c4.8,0,7.9,0.1,9.5,0.3
		c4.5,0.6,8.9,0.8,13.4,0.8c7.2,0,13.9-0.3,19.9-0.9c2.2-0.2,4-0.3,5.3-0.3c1.2,0,3,0.1,5.3,0.3c-0.1,2.3-0.2,4.3-0.4,6
		c-6.4,1.4-10.7,2.4-12.7,3.3c-2,0.8-3,2.3-3,4.4v12.3l0.1,18.8l-0.2,10.8l0.3,15.3v12l0.2,10c0,2-0.1,4.2-0.2,6.8
		c1.2,0.3,2.3,0.6,3.3,0.8c5.3,1.1,9.3,2.3,12,3.5l0.3,6l-3.6,0.1c-1,0-2.1-0.1-3.3-0.2l-6.4-0.4c-4.6-0.5-12-0.8-22.2-0.8
		c-5.2,0-9.2,0.2-12,0.5c-3.6,0.4-5.7,0.6-6.4,0.6c-0.6,0-1.5-0.2-2.6-0.5c0.1-2.7,0.2-4.6,0.4-5.5l5.8-1.4l3.3-0.6
		c3.6-0.6,5.9-1,7-1.4c0.7-4.2,1.1-14.2,1.1-30l-0.1-25l0.2-15.8l-59.4,61.1c0.1,6.3,0.1,9.6,0.3,9.9c0.3,0.4,1.3,0.7,3,0.8l5.5,0.8
		c4.9,0.9,7.6,1.6,8.1,2c0.2,1.3,0.3,2.2,0.3,2.6c0,0.7-0.1,1.8-0.3,3.1l-5.3,0.1c-2.2,0-5.2-0.2-9.1-0.5l-6.4-0.1l-4.3-0.3
		l-7.7-0.3c-2.5,0-5.5,0.2-9.1,0.5c-3.6,0.3-8.5,0.5-14.5,0.5c0-1.8,0.2-3.8,0.5-6c0.5-0.1,1.7-0.3,3.6-0.5l3.6-0.7
		c3.6-0.6,6.3-1.3,8.1-2c0.6-10.7,0.8-20,0.8-28v-11.3l0.3-28.7c0-8.7-0.3-16.1-0.9-22.3c-0.1-0.3-0.3-0.9-0.6-1.8
		c-0.3-0.2-0.8-0.3-1.5-0.3c-0.5-0.1-1-0.1-1.6-0.3c-2.6-0.5-5-0.7-7-0.8l-1.3-0.3c-1.6-0.2-2.7-0.4-3.5-0.7
		c-0.2-1.6-0.3-2.7-0.3-3.1c0-0.7,0.2-1.6,0.5-2.8c1.2-0.3,2.6-0.4,4-0.4c4.1,0,8.9,0.2,14.4,0.7c5,0.4,9.1,0.6,12.4,0.6
		c4.6,0,8.8-0.2,12.6-0.6c4.8-0.5,7.6-0.8,8.4-0.8c1.1,0,2.4,0.1,4.1,0.4l0.1,2.5c0,0.9-0.1,2-0.3,3.3l-14.9,2.4
		c-0.8,0.1-1.4,1.4-1.5,4c-0.2,2.5-0.3,5.6-0.3,9.1l0.1,4l-0.1,7.6l0.1,4.4l-0.3,5.8c0,0.7,0.1,2.1,0.2,4c0.1,2.5,0.2,5.1,0.2,7.5
		c0,2-0.1,4.1-0.2,6.1l-0.3,4.4L1562.4,297.9z"/>
	<path class="st4" d="M1782.1,323.3c0.1,1.1,0.2,2,0.2,2.6c0,0.5-0.1,1.5-0.2,2.8c-5.5,0-10.8-0.3-15.9-0.8l-3.5-0.1l-2.8-0.3
		c-2.5-0.2-4.5-0.3-6-0.3c-2.3,0-9.5,0.5-21.6,1.5l-3.3-0.2c-0.5,0-1.2,0-2.2,0.1c-0.3-1.2-0.4-3.3-0.4-6.3c0.6-0.3,2.7-0.9,6.2-1.6
		c5.1-1.1,9-2.3,11.5-3.8l-0.4-15.9l0.2-16.7l-0.3-5.7l0.1-2.3l-6.1-0.2c-3.6,0-6.1,0.4-7.5,1.2c-1.4,0.8-2.7,2-3.8,3.7
		c-1.1,1.7-3.8,6.6-8.1,14.8c-4.3,8.2-7.8,15.4-10.6,21.6l-5.1,11.2l-9.1-0.8l-22.9,0.8h-1.2l-3.6-0.1c-0.1-0.8-0.1-1.4-0.1-2
		c0-0.8,0.2-1.6,0.6-2.5c1.3-0.5,3.2-1.2,5.7-2c3-1,5.4-2.5,7.2-4.6c1.8-2.1,6.1-8.9,12.9-20.4c8.4-14.2,14.2-22.2,17.3-24.1
		c-16.5-4.4-24.7-13.2-24.7-26.5c0-8.3,3.2-15.1,9.5-20.6c6.4-5.5,17.5-8.2,33.3-8.2c4.6,0,8.9,0.2,12.9,0.7
		c5.3,0.5,11.5,0.8,18.7,0.8l3.3-0.1l3.1-0.1c7,0,12.2,0.3,15.5,0.8c0.2,0.5,0.3,0.8,0.3,0.9v2.2c0,1.7-0.1,2.7-0.2,2.9
		c-1.1,0.2-2.8,0.4-5.1,0.6c-3.6,0.3-6.6,0.7-9.1,1.3c-0.3,3.2-0.4,10.6-0.4,22.1l0.4,22.3l-0.1,7.9l0.3,12.1l-0.1,7.3
		c0,11.8,0.2,18.5,0.6,20.3c2,0.8,4.8,1.4,8.2,1.9C1778.7,322,1780.8,322.6,1782.1,323.3z M1743.9,268.5l-0.2-8.6l-0.1-3.9l0.1-9.2
		l-0.2-7v-13.1c-1.6-0.3-3.9-0.4-7-0.4c-8.7,0-15.1,1.6-19.1,4.9c-4,3.3-6,8.7-6,16.4c0,7,2.1,12.3,6.3,15.8
		c4.2,3.5,10.9,5.3,20.2,5.3L1743.9,268.5z"/>
	<path class="st4" d="M687.3,394.2l-0.1-6.4l20.3,1.3l9.1-0.1h3.3c3.4,0,8.9-0.2,16.2-0.6c4.2-0.3,6.8-0.4,7.9-0.4
		c7.1,0,12.5,0.4,16.1,1.2c5.5,1.1,9.9,2.9,13.2,5.4c3.3,2.5,6.1,6,8.4,10.6c2.3,4.6,3.5,8.9,3.5,12.9c0,9.8-3.1,17.8-9.3,24
		c-6.2,6.1-14,9.2-23.5,9.2c-3.3,0-6.4-0.4-9.4-1.2c-3-0.8-5.8-2-8.4-3.6c-0.3-1.6-0.4-3.9-0.4-6.8c1.4,0.1,2.6,0.2,3.7,0.3
		c1.1,0.1,2.1,0.1,2.9,0.1c4.8,0,8.9-1.3,12.1-4c4.4-3.5,6.5-9.1,6.5-16.8c0-5.6-0.9-10.1-2.8-13.6c-1.9-3.5-4.1-5.9-6.7-7.2
		c-3.6-1.7-7.7-2.6-12.2-2.6c-4.2,0-7.3,0.6-9.1,1.9c-0.5,0.7-0.8,1.4-1,2.1l0.6,40l-0.2,3.4l0.3,3.6c0.1,0.8,0.1,2,0.1,3.5v7
		l0.1,11.1l-0.2,13.2c0,1.9,0.2,4.4,0.5,7.6l16.9,2.1c0.2,1.4,0.3,2.4,0.3,3.2c0,0.8-0.1,2-0.4,3.6c-1.4,0.2-2.5,0.3-3.2,0.3
		c-1.8,0-5.1-0.2-9.9-0.6c-4.9-0.4-10.4-0.6-16.6-0.6c-7,0-13.7,0.5-20,1.4c-1.1,0.2-2.8,0.3-5.1,0.4c-0.2-1.6-0.3-2.9-0.3-3.6
		c0-0.5,0.1-1.3,0.2-2.4l5.2-1.7c3.6-1.1,6.6-2.4,9.2-3.9c0.5-1.6,0.8-3.1,0.8-4.5c0-0.6,0-1.2-0.1-2c-0.1-1.8-0.1-4.2-0.1-7.4
		l-0.3-23.8l-0.9-26.9c-0.4-12.8-0.7-19.7-0.9-20.7c-0.4-1.6-1.1-2.9-2-3.9c-1-0.9-2.6-1.6-4.8-2
		C691.9,395.4,688.8,394.8,687.3,394.2z"/>
	<path class="st4" d="M797.6,442.1c0-7,1.4-14.1,4.1-21.1c2-5.1,4.7-9.8,8.3-14c3.6-4.2,8-8,13.4-11.3c5.4-3.3,10.9-5.7,16.5-7.1
		c5.6-1.4,11.8-2.2,18.7-2.2c11.8,0,22,2.2,30.6,6.6c8.6,4.4,15.5,10.4,20.4,17.9c6.4,9.8,9.7,20.1,9.7,30.8
		c0,16-5.4,29.7-16.3,41.2c-10.9,11.4-26,17.1-45.4,17.1c-4.8,0-9.3-0.3-13.5-0.9c-3.2-0.5-5.9-1.1-8.3-1.9
		c-4.3-1.4-6.7-2.2-7.2-2.5c-6.2-3.5-11.1-7.1-14.8-10.8c-3.7-3.7-6.9-7.8-9.5-12.5c-1.4-2.6-3-7.3-4.8-14.1
		C798.2,453,797.6,447.9,797.6,442.1z M855.4,394.8c-4.9,0-9.3,1.1-13.1,3.4c-3.8,2.3-6.6,4.8-8.6,7.6c-3.2,4.7-5.5,9.8-6.9,15.4
		c-1.4,5.6-2,12.3-2,20.3c0,4.9,0.2,8.3,0.6,10.4c0.1,0.7,0.3,1.8,0.5,3.5c0.5,4.2,1.1,7.2,1.8,9.2c2.4,7.2,4.2,11.6,5.2,13.3
		c1.7,2.9,4.2,5.7,7.5,8.6c1.7,1.5,4.2,2.8,7.4,4c3.2,1.2,6.4,1.8,9.7,1.8c6.1,0,11.8-1.4,17-4.3c5.2-2.9,9.4-7.7,12.6-14.6
		c3.2-6.8,4.7-15.8,4.7-26.7c0-4.5-0.3-10.7-0.9-18.4l-0.4-1.6c-0.2-0.5-0.5-1.6-0.8-3.5c-2.1-9.3-6.1-16.3-12-21.2
		C871.7,397.2,864.3,394.8,855.4,394.8z"/>
	<path class="st4" d="M1031.8,390.3c0.7,1.7,2.2,6.5,4.5,14.5c1,3.6,1.6,7.5,1.6,11.5h-7.7c-5.4-7.7-11-13.2-16.8-16.6
		c-5.8-3.4-12.2-5-19.3-5c-8.8,0-15.8,3.4-21.2,10.3c-7.3,9.3-10.9,22.2-10.9,38.8c0,9.6,0.6,16.5,1.9,20.5c2,6.6,4.6,12,7.7,16.2
		c2.4,3.2,5.5,5.7,9.3,7.6c5,2.5,10.3,3.8,16,3.8c6.2,0,12.2-1.9,18-5.8c5.8-3.9,11.4-9.6,16.7-17.3c2.1-0.4,4.8-0.6,8.2-0.7
		c-0.2,2.1-0.6,4.4-1.1,6.7c-0.2,0.9-0.8,4.5-2,10.7l-0.8,2.5l-1.2,4c-3.5,2.7-8.3,4.7-14.6,6c-6.3,1.3-13.9,2-23,2
		c-7,0-13.5-0.7-19.7-2c-6.2-1.3-11.5-3.4-15.9-6.2c-6.4-4.1-11.5-8.5-15.2-13.2c-3.7-4.8-6.4-9.9-8.2-15.5
		c-1.8-5.6-2.7-11.9-2.7-18.8c0-16.9,5.6-30.8,16.7-41.8c11.1-11,25.3-16.5,42.6-16.5c7,0,13.6,0.4,19.8,1.1
		C1020.7,387.9,1026.5,388.9,1031.8,390.3z"/>
	<path class="st4" d="M1149.5,390.3c0.7,1.7,2.2,6.5,4.5,14.5c1,3.6,1.6,7.5,1.6,11.5h-7.7c-5.4-7.7-11-13.2-16.8-16.6
		c-5.8-3.4-12.2-5-19.3-5c-8.8,0-15.8,3.4-21.2,10.3c-7.3,9.3-10.9,22.2-10.9,38.8c0,9.6,0.6,16.5,1.9,20.5c2,6.6,4.6,12,7.7,16.2
		c2.4,3.2,5.5,5.7,9.3,7.6c5,2.5,10.3,3.8,16,3.8c6.2,0,12.2-1.9,18-5.8c5.8-3.9,11.4-9.6,16.7-17.3c2.1-0.4,4.8-0.6,8.2-0.7
		c-0.2,2.1-0.6,4.4-1.1,6.7c-0.2,0.9-0.8,4.5-2,10.7l-0.8,2.5l-1.2,4c-3.5,2.7-8.3,4.7-14.6,6c-6.3,1.3-13.9,2-23,2
		c-7,0-13.5-0.7-19.7-2c-6.2-1.3-11.5-3.4-15.9-6.2c-6.4-4.1-11.5-8.5-15.2-13.2c-3.7-4.8-6.4-9.9-8.2-15.5
		c-1.8-5.6-2.7-11.9-2.7-18.8c0-16.9,5.6-30.8,16.7-41.8c11.1-11,25.3-16.5,42.6-16.5c7,0,13.6,0.4,19.8,1.1
		C1138.4,387.9,1144.2,388.9,1149.5,390.3z"/>
	<path class="st4" d="M1207.9,467.7c30.1-30.4,49.8-50.8,59.1-61.5c0-4.2-0.1-6.6-0.4-7.3c-0.3-0.7-1.2-1.4-2.8-2.1
		c-1.6-0.8-4.7-1.7-9.2-2.8c-2.2-0.5-3.6-0.9-4.3-1.2c0.1-2.1,0.3-3.7,0.7-4.8l2.4-0.1c4.8,0,7.9,0.1,9.5,0.3
		c4.5,0.6,8.9,0.8,13.4,0.8c7.2,0,13.9-0.3,19.9-0.9c2.2-0.2,4-0.3,5.3-0.3c1.2,0,3,0.1,5.3,0.3c-0.1,2.3-0.2,4.3-0.4,6
		c-6.4,1.4-10.7,2.4-12.7,3.3c-2,0.8-3,2.3-3,4.4V414l0.1,18.8l-0.2,10.8l0.3,15.3v12l0.2,10c0,2-0.1,4.2-0.2,6.8
		c1.2,0.3,2.3,0.6,3.3,0.8c5.3,1.1,9.3,2.3,12,3.5l0.3,6l-3.6,0.1c-1,0-2.1-0.1-3.3-0.2l-6.4-0.4c-4.6-0.5-12-0.8-22.2-0.8
		c-5.2,0-9.2,0.2-12,0.5c-3.6,0.4-5.7,0.6-6.4,0.6c-0.6,0-1.5-0.2-2.6-0.5c0.1-2.7,0.2-4.6,0.4-5.5l5.8-1.4l3.3-0.6
		c3.6-0.6,5.9-1,7-1.4c0.7-4.2,1.1-14.2,1.1-30l-0.1-25l0.2-15.8l-59.4,61.1c0.1,6.3,0.1,9.6,0.3,9.9c0.3,0.4,1.3,0.7,3,0.8l5.5,0.8
		c4.9,0.9,7.6,1.6,8.1,2c0.2,1.3,0.3,2.2,0.3,2.6c0,0.7-0.1,1.8-0.3,3.1l-5.3,0.1c-2.2,0-5.2-0.2-9.1-0.5l-6.4-0.1l-4.3-0.3
		l-7.7-0.3c-2.5,0-5.5,0.2-9.1,0.5c-3.6,0.3-8.5,0.5-14.5,0.5c0-1.8,0.2-3.8,0.5-6c0.5-0.1,1.7-0.3,3.6-0.5l3.6-0.7
		c3.6-0.6,6.3-1.3,8.1-2c0.6-10.7,0.8-20,0.8-28v-11.3l0.3-28.7c0-8.7-0.3-16.1-0.9-22.3c-0.1-0.3-0.3-0.9-0.6-1.8
		c-0.3-0.2-0.8-0.3-1.5-0.3c-0.5-0.1-1-0.1-1.6-0.3c-2.6-0.5-5-0.7-7-0.8l-1.3-0.3c-1.6-0.2-2.7-0.4-3.5-0.7
		c-0.2-1.6-0.3-2.7-0.3-3.1c0-0.7,0.2-1.6,0.5-2.8c1.2-0.3,2.6-0.4,4-0.4c4.1,0,8.9,0.2,14.4,0.7c5,0.4,9.1,0.6,12.4,0.6
		c4.6,0,8.8-0.2,12.6-0.6c4.8-0.5,7.6-0.8,8.4-0.8c1.1,0,2.4,0.1,4.1,0.4l0.1,2.5c0,0.9-0.1,2-0.3,3.3l-14.9,2.4
		c-0.8,0.1-1.4,1.4-1.5,4c-0.2,2.5-0.3,5.6-0.3,9.1l0.1,4l-0.1,7.6l0.1,4.4l-0.3,5.8c0,0.7,0.1,2.1,0.2,4c0.1,2.5,0.2,5.1,0.2,7.5
		c0,2-0.1,4.1-0.2,6.1l-0.3,4.4L1207.9,467.7z"/>
	<path class="st4" d="M1358.2,467.7c30.1-30.4,49.8-50.8,59.1-61.5c0-4.2-0.1-6.6-0.4-7.3c-0.3-0.7-1.2-1.4-2.8-2.1
		c-1.6-0.8-4.7-1.7-9.3-2.8c-2.2-0.5-3.6-0.9-4.3-1.2c0.1-2.1,0.3-3.7,0.7-4.8l2.4-0.1c4.8,0,7.9,0.1,9.5,0.3
		c4.5,0.6,8.9,0.8,13.4,0.8c7.2,0,13.9-0.3,19.9-0.9c2.2-0.2,4-0.3,5.3-0.3c1.2,0,3,0.1,5.3,0.3c-0.1,2.3-0.2,4.3-0.4,6
		c-6.4,1.4-10.7,2.4-12.7,3.3c-2,0.8-3,2.3-3,4.4V414l0.1,18.8l-0.2,10.8l0.3,15.3v12l0.2,10c0,2-0.1,4.2-0.2,6.8
		c1.2,0.3,2.3,0.6,3.3,0.8c5.3,1.1,9.3,2.3,12,3.5l0.3,6l-3.6,0.1c-1,0-2.1-0.1-3.3-0.2l-6.4-0.4c-4.6-0.5-12-0.8-22.2-0.8
		c-5.2,0-9.2,0.2-12,0.5c-3.6,0.4-5.7,0.6-6.4,0.6c-0.6,0-1.5-0.2-2.6-0.5c0.1-2.7,0.2-4.6,0.4-5.5l5.8-1.4l3.3-0.6
		c3.6-0.6,5.9-1,7-1.4c0.7-4.2,1.1-14.2,1.1-30l-0.1-25l0.2-15.8l-59.4,61.1c0.1,6.3,0.1,9.6,0.3,9.9c0.3,0.4,1.3,0.7,3,0.8l5.5,0.8
		c4.9,0.9,7.6,1.6,8.1,2c0.2,1.3,0.3,2.2,0.3,2.6c0,0.7-0.1,1.8-0.3,3.1l-5.3,0.1c-2.2,0-5.2-0.2-9.1-0.5l-6.4-0.1l-4.3-0.3
		l-7.7-0.3c-2.5,0-5.5,0.2-9.1,0.5c-3.6,0.3-8.5,0.5-14.5,0.5c0-1.8,0.2-3.8,0.5-6c0.5-0.1,1.7-0.3,3.6-0.5l3.6-0.7
		c3.6-0.6,6.3-1.3,8.1-2c0.6-10.7,0.8-20,0.8-28v-11.3l0.3-28.7c0-8.7-0.3-16.1-0.9-22.3c-0.1-0.3-0.3-0.9-0.6-1.8
		c-0.3-0.2-0.8-0.3-1.5-0.3c-0.5-0.1-1-0.1-1.6-0.3c-2.6-0.5-5-0.7-7-0.8l-1.3-0.3c-1.6-0.2-2.7-0.4-3.5-0.7
		c-0.2-1.6-0.3-2.7-0.3-3.1c0-0.7,0.2-1.6,0.5-2.8c1.2-0.3,2.6-0.4,4-0.4c4.1,0,8.9,0.2,14.4,0.7c5,0.4,9.1,0.6,12.4,0.6
		c4.6,0,8.8-0.2,12.6-0.6c4.8-0.5,7.6-0.8,8.4-0.8c1.1,0,2.4,0.1,4.1,0.4l0.1,2.5c0,0.9-0.1,2-0.3,3.3l-14.9,2.4
		c-0.8,0.1-1.4,1.4-1.5,4c-0.2,2.5-0.3,5.6-0.3,9.1l0.1,4l-0.1,7.6l0.1,4.4l-0.3,5.8c0,0.7,0.1,2.1,0.2,4c0.1,2.5,0.2,5.1,0.2,7.5
		c0,2-0.1,4.1-0.2,6.1l-0.3,4.4L1358.2,467.7z"/>
</g>
</svg>
