<?xml version="1.0" encoding="utf-8"?>
<!-- Generator: Adobe Illustrator 21.0.0, SVG Export Plug-In . SVG Version: 6.00 Build 0)  -->
<svg version="1.1" id="Слой_1" xmlns="http://www.w3.org/2000/svg" xmlns:xlink="http://www.w3.org/1999/xlink" x="0px" y="0px"
	 viewBox="0 0 77.8 60.6" style="enable-background:new 0 0 77.8 60.6;" xml:space="preserve">
<style type="text/css">
	.st0{fill:none;}
	.st1{fill:#F9B243;}
	.st2{fill:#FFFFFF;}
</style>
<g>
	<path class="st0" d="M35.5,49.2c0-0.6-0.2-1.1-0.6-1.5C34.5,47.3,34,47,33.4,47s-1.1,0.2-1.5,0.6L31,48.6c1.2,0.8,2.3,1.7,3.5,2.5
		l0.5-0.5C35.3,50.3,35.5,49.7,35.5,49.2z"/>
	<path class="st0" d="M30.9,43.7c-0.8-0.8-2.2-0.8-3,0l-1.8,1.8c1.2,0.7,2.4,1.5,3.6,2.4l1.1-1.1C31.8,45.8,31.8,44.5,30.9,43.7z"/>
	<path class="st0" d="M20.5,43.2l-1,1c-0.8,0.8-0.8,2.2,0,3c0.8,0.8,2.2,0.8,3,0l1.7-1.7c-0.7-0.4-1.3-0.8-2-1.1
		C21.6,44,21,43.6,20.5,43.2z"/>
	<path class="st0" d="M38.9,51.6c-0.4-0.4-0.9-0.6-1.5-0.6s-1.1,0.2-1.5,0.6l-0.3,0.3c1.2,0.9,2.3,1.8,3.3,2.6
		C39.7,53.7,39.7,52.4,38.9,51.6z"/>
	<path class="st0" d="M31.1,32.2c4.1,0.6,8.5-2.9,8.6-2.9c0.1-0.1,0.2-0.1,0.3-0.1c0.1,0,0.2,0,0.3,0.1c0.1,0.1,8,5.2,15.6,9.1
		c0.8,0.4,1.5,0.7,2.3,0.8l-15.4-9c0,0-0.1-0.1-0.1-0.1l-5.2-5.7h-1.5l-8.8,5.5C28.2,31.2,29.5,32,31.1,32.2z"/>
	<path class="st0" d="M55.4,39.3c-6.8-3.5-13.8-8-15.4-8.9c-1.1,0.8-5.1,3.4-9.1,2.9c-2-0.3-3.7-1.4-5-3.2c-0.1-0.1-0.1-0.3-0.1-0.4
		s0.1-0.3,0.2-0.3l7.9-5H19.7c-0.7,1.3-3.8,7.5-2.2,12.9c0.5,1.8,1.5,3.4,3,4.6l2.8-2.8c1.2-1.2,3.2-1.2,4.4,0
		c0.6,0.6,0.9,1.4,0.9,2.2c0,0.4-0.1,0.7-0.2,1.1c1.1-0.4,2.4-0.2,3.3,0.7c0.9,0.9,1.1,2.2,0.7,3.3c1.1-0.4,2.4-0.2,3.3,0.7
		c0.6,0.6,0.9,1.4,0.9,2.2c0,0.4-0.1,0.7-0.2,1c1.1-0.4,2.4-0.1,3.2,0.7c1.2,1.2,1.2,3.1,0.1,4.3c1.9,1.6,3.5,3,4.6,3.9
		c1,0.9,2.4,0.8,3.4-0.1c0.5-0.5,0.8-1.2,0.8-2c-0.1-0.7-0.4-1.4-1.1-1.9L42.1,51c-0.2-0.2-0.3-0.5-0.1-0.7c0.2-0.2,0.5-0.3,0.7-0.1
		l9.7,7.2c1.1,0.7,2.5,0.6,3.4-0.4c0.5-0.5,0.7-1.2,0.6-2c-0.1-0.6-0.3-1.1-0.7-1.5l-13.5-8.8c-0.2-0.2-0.3-0.5-0.1-0.7
		c0.1-0.2,0.5-0.3,0.7-0.1l0,0l13.2,8.5c0.1,0.1,0.3,0.2,0.4,0.3l1.9,1.3c1.1,0.8,2.6,0.7,3.5-0.3c0.6-0.6,0.9-1.4,0.8-2.2
		c-0.1-0.8-0.5-1.6-1.2-2l-15.1-8.9c-0.2-0.1-0.3-0.4-0.2-0.7s0.4-0.3,0.7-0.2l15.5,8.8c1.3,0.8,3.1,0.5,4-0.7
		c0.5-0.7,0.7-1.5,0.5-2.3s-0.6-1.5-1.3-2l-5.4-3.2c-0.2,0-0.5,0.1-0.7,0.1C58,40.3,56.7,40,55.4,39.3z"/>
	<path class="st0" d="M24.9,44.7l2-2c0.4-0.4,0.6-0.9,0.6-1.5s-0.2-1.1-0.6-1.5c-0.8-0.8-2.2-0.8-3,0l-2.8,2.8c0.5,0.3,1,0.7,1.5,1
		C23.4,43.8,24.2,44.2,24.9,44.7z"/>
	<path class="st0" d="M31.4,56.1c-0.4,0.4-0.6,0.9-0.6,1.5s0.2,1.1,0.6,1.5c0.8,0.8,2.2,0.8,3,0l3.8-3.8c-1-0.8-2.2-1.7-3.4-2.6
		L31.4,56.1z"/>
	<path class="st0" d="M27.4,52.1c-0.4,0.4-0.6,0.9-0.6,1.5s0.2,1.1,0.6,1.5c0.8,0.8,2.2,0.8,3,0l3.3-3.3c-1.1-0.8-2.3-1.7-3.5-2.5
		L27.4,52.1z"/>
	<path class="st0" d="M38,23.5l5.3,5.8l16.9,9.9c0.4-0.1,0.7-0.1,1.1-0.3c3.1-1.1,4.9-4.6,5.4-5.6L55.5,20.3l-5.9,3.3
		c-0.1,0-0.2,0.1-0.3,0.1l-10.8-0.9l-1,0.6h0.1C37.8,23.3,37.9,23.4,38,23.5z"/>
	<path class="st0" d="M23.5,48.2c-0.4,0.4-0.6,0.9-0.6,1.5s0.2,1.1,0.6,1.5c0.8,0.8,2.2,0.8,3,0l2.6-2.6c-1.2-0.8-2.4-1.6-3.6-2.3
		L23.5,48.2z"/>
	<path class="st1" d="M67.7,45.2c-0.2-1.1-0.9-2.1-1.8-2.6l-4.5-2.6c-0.5,0.2-1,0.3-1.5,0.3l5.4,3.2c0.7,0.4,1.2,1.2,1.3,2
		s0,1.7-0.5,2.3c-0.9,1.2-2.7,1.6-4,0.7l-15.5-8.8c-0.2-0.1-0.5-0.1-0.7,0.2s-0.1,0.5,0.2,0.7l15.1,8.9c0.7,0.5,1.1,1.2,1.2,2
		c0.1,0.8-0.2,1.6-0.8,2.2c-1,1-2.4,1.1-3.5,0.3l-1.9-1.3c-0.1-0.1-0.2-0.2-0.4-0.3l-13.2-8.5l0,0c-0.2-0.2-0.5-0.1-0.7,0.1
		c-0.1,0.2-0.1,0.5,0.1,0.7l13.5,8.8c0.4,0.4,0.7,0.9,0.7,1.5c0.1,0.7-0.1,1.4-0.6,2c-0.9,1-2.3,1.2-3.4,0.4l-9.7-7.2
		C42.4,50,42.1,50,42,50.3c-0.2,0.2-0.1,0.5,0.1,0.7l5.3,4.2c0.6,0.4,1,1.1,1.1,1.9c0.1,0.7-0.2,1.5-0.8,2c-0.9,0.9-2.4,0.9-3.4,0.1
		c-1.1-0.9-2.7-2.3-4.6-3.9c0,0-0.1,0.1-0.1,0.1L39,55.9c2,1.6,3.6,3,4.7,3.9c0.7,0.6,1.5,0.9,2.3,0.9c0.9,0,1.7-0.3,2.4-1
		c0.8-0.7,1.1-1.7,1.1-2.8c0-0.2,0-0.3-0.1-0.5l2.4,1.8c1.5,1.1,3.5,0.8,4.7-0.6c0.6-0.8,1-1.7,0.8-2.7c0-0.1,0-0.2,0-0.3l0.3,0.2
		c1.5,1.1,3.5,0.9,4.8-0.4c0.8-0.8,1.2-1.9,1.1-3c-0.1-0.5-0.2-1.1-0.5-1.5c1.5,0.3,3-0.3,4-1.5C67.7,47.5,67.9,46.3,67.7,45.2z"/>
	<path class="st1" d="M17.4,37.2c-1.5-5.4,1.5-11.6,2.2-12.9H34l1.6-1H19.4c-0.2,0-0.3,0.1-0.4,0.2c-0.2,0.3-4.3,7.5-2.5,13.9
		c0.6,2,1.7,3.7,3.2,5.1l0.7-0.7C18.9,40.6,17.9,39,17.4,37.2z"/>
	<path class="st1" d="M55.8,38.4c-7.6-3.9-15.5-9-15.6-9.1c-0.1-0.1-0.2-0.1-0.3-0.1c-0.1,0-0.2,0-0.3,0.1c0,0-4.5,3.5-8.6,2.9
		c-1.6-0.2-2.9-1-4-2.4l8.8-5.5H34l-7.9,5c-0.1,0.1-0.2,0.2-0.2,0.3s0,0.3,0.1,0.4c1.3,1.8,3,2.9,5,3.2c4,0.6,8-2.1,9.1-2.9
		c1.5,1,8.6,5.4,15.4,8.9c1.3,0.7,2.6,1,3.9,1c0.2,0,0.5,0,0.7-0.1l-1.8-1.1C57.4,39.1,56.6,38.8,55.8,38.4z"/>
	<path class="st1" d="M38.5,22.7l10.8,0.9c0.1,0,0.2,0,0.3-0.1l5.9-3.3l11.2,13.1c-0.5,1-2.3,4.5-5.4,5.6c-0.4,0.1-0.7,0.2-1.1,0.3
		l1.2,0.7c0.1,0,0.1,0,0.2-0.1c4-1.5,6-6.2,6.1-6.4c0.1-0.2,0-0.4-0.1-0.5L56,19.3c-0.2-0.2-0.4-0.2-0.6-0.1l-6.1,3.4l-10.8-0.9
		c-0.1,0-0.2,0-0.3,0.1l-2.5,1.6h1.9L38.5,22.7z"/>
	<polygon class="st1" points="35.9,24.3 37.5,23.3 35.6,23.3 34,24.3 	"/>
	<path class="st1" d="M58.1,39.2l1.8,1.1c0.5,0,1-0.1,1.5-0.3l-1.2-0.7C59.5,39.3,58.8,39.3,58.1,39.2z"/>
	<path class="st1" d="M24.6,45.6c-0.1-0.1-0.2-0.1-0.4-0.2l-1.7,1.7c-0.8,0.8-2.2,0.8-3,0c-0.8-0.8-0.8-2.2,0-3l1-1
		c-0.3-0.2-0.5-0.4-0.8-0.6l-0.9,0.9c-1.2,1.2-1.2,3.2,0,4.4c0.6,0.6,1.4,0.9,2.2,0.9c0.4,0,0.7-0.1,1.1-0.2
		c0.2-0.4,0.4-0.8,0.7-1.1L24.6,45.6z"/>
	<path class="st1" d="M26.9,39.7c0.4,0.4,0.6,0.9,0.6,1.5s-0.2,1.1-0.6,1.5l-2,2c0.1,0.1,0.2,0.1,0.4,0.2l1.9-1.9
		c0.3-0.3,0.7-0.6,1.1-0.7c0.1-0.3,0.2-0.7,0.2-1.1c0-0.8-0.3-1.6-0.9-2.2c-1.2-1.2-3.2-1.2-4.4,0l-2.8,2.8c0.2,0.2,0.5,0.4,0.8,0.6
		l2.8-2.8C24.8,38.9,26.1,38.9,26.9,39.7z"/>
	<path class="st1" d="M24.9,44.7l-0.7,0.7c0.1,0.1,0.2,0.1,0.4,0.2l0.7-0.7C25.2,44.8,25.1,44.8,24.9,44.7z"/>
	<path class="st1" d="M21.2,42.5c-0.3-0.2-0.5-0.4-0.8-0.6l-0.7,0.7c0.2,0.2,0.5,0.4,0.8,0.6L21.2,42.5z"/>
	<path class="st1" d="M25.8,45.2c0.1,0.1,0.2,0.1,0.4,0.2l1.8-1.8c0.8-0.8,2.2-0.8,3,0c0.8,0.8,0.8,2.2,0,3l-1.1,1.1
		c0.1,0.1,0.2,0.2,0.3,0.2l1.1-1.1c0.3-0.3,0.7-0.5,1.1-0.7c0.4-1.1,0.2-2.4-0.7-3.3c-0.9-0.9-2.2-1.1-3.3-0.7
		c-0.2,0.4-0.4,0.8-0.7,1.1L25.8,45.2z"/>
	<path class="st1" d="M29.4,48.7c-0.1-0.1-0.2-0.2-0.3-0.2l-2.6,2.6c-0.8,0.8-2.2,0.8-3,0c-0.4-0.4-0.6-0.9-0.6-1.5s0.2-1.1,0.6-1.5
		l2-2c-0.1-0.1-0.2-0.1-0.4-0.2l-1.9,1.9c-0.3,0.3-0.7,0.6-1.1,0.7c-0.1,0.3-0.2,0.7-0.2,1.1c0,0.8,0.3,1.6,0.9,2.2
		c0.6,0.6,1.4,0.9,2.2,0.9c0.4,0,0.7-0.1,1.1-0.2c0.2-0.4,0.4-0.8,0.7-1.1L29.4,48.7z"/>
	<path class="st1" d="M29.8,47.8l-0.7,0.7c0.1,0.1,0.2,0.2,0.3,0.2l0.7-0.7C30,47.9,29.9,47.9,29.8,47.8z"/>
	<path class="st1" d="M25.8,45.2l-0.7,0.7c0.1,0.1,0.2,0.1,0.4,0.2l0.7-0.7C26.1,45.4,25.9,45.3,25.8,45.2z"/>
	<path class="st1" d="M25.1,45.9c-0.2-0.1-0.3-0.2-0.5-0.3l-1.8,1.8c-0.3,0.3-0.6,0.7-0.7,1.1c0.4-0.2,0.8-0.4,1.1-0.7L25.1,45.9z"
		/>
	<path class="st1" d="M25.3,44.9c0.2,0.1,0.3,0.2,0.5,0.3l1.8-1.8c0.3-0.3,0.6-0.7,0.7-1.1c-0.4,0.2-0.8,0.4-1.1,0.7L25.3,44.9z"/>
	<path class="st1" d="M25.3,44.9l-0.7,0.7c0.2,0.1,0.3,0.2,0.5,0.3l0.7-0.7C25.6,45.1,25.5,45,25.3,44.9z"/>
	<path class="st1" d="M30.7,48.4c0.1,0.1,0.2,0.2,0.3,0.2l0.9-0.9c0.4-0.4,0.9-0.6,1.5-0.6s1.1,0.2,1.5,0.6c0.4,0.4,0.6,0.9,0.6,1.5
		s-0.2,1.1-0.6,1.5l-0.5,0.5c0.1,0.1,0.2,0.1,0.3,0.2l0.4-0.4c0.3-0.3,0.7-0.6,1.2-0.7c0.1-0.3,0.2-0.7,0.2-1c0-0.8-0.3-1.6-0.9-2.2
		c-0.9-0.9-2.2-1.1-3.3-0.7c-0.2,0.4-0.4,0.8-0.7,1.1L30.7,48.4z"/>
	<path class="st1" d="M34,52c-0.1-0.1-0.2-0.1-0.3-0.2l-3.3,3.3c-0.8,0.8-2.2,0.8-3,0c-0.4-0.4-0.6-0.9-0.6-1.5s0.2-1.1,0.6-1.5
		l2.8-2.8c-0.1-0.1-0.2-0.2-0.3-0.2l-2.8,2.8c-0.3,0.3-0.7,0.6-1.1,0.7c-0.1,0.3-0.2,0.7-0.2,1.1c0,0.8,0.3,1.6,0.9,2.2
		s1.4,0.9,2.2,0.9c0.4,0,0.7-0.1,1-0.2c0.2-0.4,0.4-0.9,0.7-1.2L34,52z"/>
	<path class="st1" d="M34.5,51.1l-0.7,0.7c0.1,0.1,0.2,0.1,0.3,0.2l0.7-0.7C34.7,51.2,34.6,51.2,34.5,51.1z"/>
	<path class="st1" d="M30.7,48.4l-0.7,0.7c0.1,0.1,0.2,0.2,0.3,0.2l0.7-0.7C30.9,48.5,30.8,48.4,30.7,48.4z"/>
	<path class="st1" d="M29.9,49.1c-0.2-0.1-0.3-0.2-0.5-0.3l-2.7,2.7c-0.3,0.3-0.6,0.7-0.7,1.1c0.4-0.2,0.8-0.4,1.1-0.7L29.9,49.1z"
		/>
	<path class="st1" d="M30.2,48c0.2,0.1,0.3,0.2,0.5,0.3l1-1c0.3-0.3,0.6-0.7,0.7-1.1c-0.4,0.1-0.8,0.4-1.1,0.7L30.2,48z"/>
	<path class="st1" d="M30.2,48l-0.7,0.7c0.2,0.1,0.3,0.2,0.5,0.3l0.7-0.7C30.5,48.2,30.3,48.1,30.2,48z"/>
	<path class="st1" d="M39.6,50.9c-0.8-0.8-2.1-1.1-3.2-0.7c-0.2,0.4-0.4,0.8-0.7,1.2l-0.4,0.4c0.1,0.1,0.2,0.1,0.3,0.2l0.3-0.3
		c0.4-0.4,0.9-0.6,1.5-0.6s1.1,0.2,1.5,0.6c0.8,0.8,0.8,2.1,0,2.9c0.3,0.2,0.5,0.4,0.8,0.6C40.8,54,40.7,52.1,39.6,50.9z"/>
	<path class="st1" d="M34.4,59.1c-0.8,0.8-2.2,0.8-3,0c-0.4-0.4-0.6-0.9-0.6-1.5s0.2-1.1,0.6-1.5l3.5-3.5c-0.1-0.1-0.2-0.1-0.3-0.2
		l-3.4,3.4c-0.3,0.3-0.7,0.6-1.2,0.7c-0.1,0.3-0.2,0.7-0.2,1c0,0.8,0.3,1.6,0.9,2.2s1.4,0.9,2.2,0.9s1.6-0.3,2.2-0.9l3.9-3.9
		c-0.3-0.2-0.5-0.4-0.8-0.6L34.4,59.1z"/>
	<path class="st1" d="M39.7,55.2c-0.3-0.2-0.5-0.4-0.8-0.6c0,0,0,0,0,0l-0.7,0.7c0.3,0.2,0.5,0.4,0.8,0.6l0.6-0.6
		C39.6,55.3,39.6,55.2,39.7,55.2z"/>
	<path class="st1" d="M35.3,51.7l-0.7,0.7c0.1,0.1,0.2,0.1,0.3,0.2l0.7-0.7C35.5,51.9,35.4,51.8,35.3,51.7z"/>
	<path class="st1" d="M34.7,51.3c0.2,0.1,0.4,0.3,0.5,0.4l0.4-0.4c0.3-0.3,0.6-0.7,0.7-1.2c-0.4,0.1-0.8,0.4-1.2,0.7L34.7,51.3z"/>
	<path class="st1" d="M34.6,52.4c-0.2-0.1-0.4-0.3-0.5-0.4l-3.4,3.4c-0.3,0.3-0.6,0.7-0.7,1.2c0.4-0.2,0.8-0.4,1.2-0.7L34.6,52.4z"
		/>
	<path class="st1" d="M34.7,51.3L34,52c0.2,0.1,0.4,0.3,0.5,0.4l0.7-0.7C35.1,51.6,34.9,51.4,34.7,51.3z"/>
</g>
<g>
	<path class="st2" d="M39.7,8.1c0-4.2-3.4-7.6-7.6-7.6H14.3c-4.2,0-7.6,3.4-7.6,7.6c0,4.2,3.4,7.6,7.6,7.6h13.2
		c0.6,1,1.4,1.9,2.4,2.6c0.3,0.2,3.1,1.3,3.1,1.4c-0.4-1.4-1-2.7-1.5-4.1h0.7C36.3,15.6,39.7,12.2,39.7,8.1z"/>
	<path class="st1" d="M33,20.2c-0.1,0-0.2,0-0.3-0.1c-0.2-0.1-0.8-0.4-1.2-0.5c-1.1-0.5-1.7-0.7-1.9-0.9c-0.9-0.7-1.7-1.5-2.4-2.5
		H14.3c-4.4,0-8.1-3.6-8.1-8.1S9.8,0,14.3,0h17.9c4.4,0,8.1,3.6,8.1,8.1c0,4.4-3.6,8-8,8.1c0,0.1,0.1,0.2,0.1,0.3
		c0.4,1,0.9,2.1,1.1,3.2c0.1,0.3-0.1,0.5-0.4,0.6C33,20.2,33,20.2,33,20.2z M14.3,1c-3.9,0-7.1,3.2-7.1,7.1s3.2,7.1,7.1,7.1h13.2
		c0.2,0,0.3,0.1,0.4,0.2c0.6,1,1.3,1.8,2.2,2.5c0.2,0.1,1.1,0.5,1.7,0.8c0.1,0.1,0.2,0.1,0.3,0.1c-0.2-0.7-0.5-1.3-0.8-2
		c-0.1-0.3-0.3-0.6-0.4-1c-0.1-0.2,0-0.3,0.1-0.5c0.1-0.1,0.2-0.2,0.4-0.2h0.7c3.9,0,7.1-3.2,7.1-7.1S36,1,32.1,1H14.3z"/>
</g>
<g>
	<circle class="st1" cx="18.2" cy="8.1" r="0.9"/>
	<circle class="st1" cx="23.2" cy="8.1" r="0.9"/>
	<circle class="st1" cx="28.2" cy="8.1" r="0.9"/>
</g>
</svg>
