<?xml version="1.0" encoding="utf-8"?>
<!-- Generator: Adobe Illustrator 21.0.0, SVG Export Plug-In . SVG Version: 6.00 Build 0)  -->
<svg version="1.1" id="Слой_1" xmlns="http://www.w3.org/2000/svg" xmlns:xlink="http://www.w3.org/1999/xlink" x="0px" y="0px"
	 viewBox="0 0 60 60" style="enable-background:new 0 0 60 60;" xml:space="preserve">
<style type="text/css">
	.st0{fill:#F9B243;}
	.st1{fill:none;}
</style>
<g>
	<path class="st0" d="M33,29.1c-0.1,0-0.2,0-0.3-0.1l-1.8-1.4c-0.1-0.1-0.2-0.2-0.2-0.4v-1.7l-1.3-2c-0.1-0.2-0.1-0.4,0-0.5l1.3-2
		v-1.5l-1.3-2c-0.1-0.2-0.1-0.4,0-0.5l1.3-2v-1c-2.9-1-4.9-3.7-4.9-6.8C25.8,3.2,29,0,33,0s7.2,3.2,7.2,7.2c0,3.1-2,5.9-4.9,6.8
		v13.3c0,0.2-0.1,0.3-0.2,0.4l-1.8,1.4C33.2,29.1,33.1,29.1,33,29.1z M31.7,27l1.3,1l1.3-1V13.6c0-0.2,0.1-0.4,0.4-0.5
		c2.7-0.7,4.6-3.2,4.6-6c0-3.4-2.8-6.2-6.2-6.2s-6.2,2.8-6.2,6.2c0,2.8,1.9,5.2,4.6,6c0.2,0.1,0.4,0.3,0.4,0.5v1.5
		c0,0.1,0,0.2-0.1,0.3l-1.2,1.9l1.2,1.9c0.1,0.1,0.1,0.2,0.1,0.3v1.8c0,0.1,0,0.2-0.1,0.3l-1.2,1.9l1.2,1.9c0.1,0.1,0.1,0.2,0.1,0.3
		V27H31.7z M34.8,27.3L34.8,27.3L34.8,27.3z"/>
</g>
<g>
	<path class="st0" d="M34.6,9.3h-3.1c-0.3,0-0.5-0.2-0.5-0.5V7.4h-0.1c-0.2,0-0.4-0.1-0.5-0.3c-0.1-0.2,0-0.4,0.1-0.5l2.2-2.2
		c0.2-0.2,0.5-0.2,0.7,0l2.2,2.2c0.1,0.1,0.2,0.3,0.1,0.5c-0.1,0.2-0.3,0.3-0.5,0.3h-0.1v1.4C35.1,9.1,34.9,9.3,34.6,9.3z M32,8.3
		h2.1V6.9c0-0.1,0-0.2,0.1-0.3L33,5.4l-1.2,1.2c0.1,0.1,0.1,0.2,0.1,0.3v1.4H32z"/>
</g>
<path class="st1" d="M136,54.2v-3.3C135.8,52.3,135.8,53.6,136,54.2z"/>
<path class="st0" d="M174,44.1c-0.6-1.5-2.4-2.2-3.9-1.6l-9.3,3.8c0.1,0.3,0.1,0.5,0.1,0.8c0,0.1,0,0.2,0,0.2l9.6-4
	c1-0.4,2.2,0.1,2.6,1.1c0.4,1-0.1,2.2-1.1,2.6l-16.5,6.8l-0.9,1.4l-0.1,0.1l17.9-7.4c0.7-0.3,1.3-0.9,1.6-1.6S174.3,44.8,174,44.1z"
	/>
<path class="st0" d="M154.4,55.3l-1.2,0.5C153.9,55.8,154.3,55.5,154.4,55.3z"/>
<path class="st0" d="M152.5,55.6l-0.3-0.8c-0.2-0.1-0.4-0.1-0.6-0.2c-0.9-0.4-3.5-0.6-6.4-0.6c-3.1,0-6.4,0.2-8.1,0.4v1
	c3.1-0.4,12.5-0.7,14.1,0.1c0.7,0.3,1.3,0.5,1.8,0.5h-0.1C152.7,55.8,152.6,55.7,152.5,55.6z"/>
<path class="st0" d="M150.5,45.2c0.1,0,0.1,0,0.2,0h7.3c0.9,0,1.6,0.6,1.8,1.4l0.9-0.4c-0.3-1.2-1.4-2-2.7-2h-7.2
	c-7.1-2.7-11.8-0.2-13.8,1.2v1.3C138.1,45.7,142.7,42.2,150.5,45.2z"/>
<path class="st0" d="M159.9,47.1c0,0.2-0.1,0.5-0.1,0.7l1.1-0.5c0-0.1,0-0.2,0-0.2c0-0.3-0.1-0.5-0.1-0.8l-0.9,0.4
	C159.8,46.8,159.9,47,159.9,47.1z"/>
<path class="st0" d="M155.5,53.8l-1.7,0.7l-0.1,0.1c0,0-0.5,0.5-1.6,0.1l0.3,0.8c0.1,0.1,0.1,0.2,0.3,0.3h0.1l0,0c0.1,0,0.2,0,0.3,0
	l1.2-0.5l0.1-0.1L155.5,53.8z"/>
<path class="st0" d="M148.8,48.9c-0.3,0-0.5,0.2-0.5,0.5s0.2,0.5,0.5,0.5h3.1l2.4-1H148.8z"/>
<path class="st0" d="M154.5,49.9h2.3l0.5-0.8c0.1-0.1,0.2-0.2,0.4-0.2H157L154.5,49.9z"/>
<polygon class="st0" points="154.3,48.9 151.9,49.9 154.5,49.9 157,48.9 "/>
<path class="st0" d="M156.9,49.9h0.9c0.3,0,0.5-0.2,0.5-0.5s-0.2-0.5-0.5-0.5c-0.2,0-0.3,0.1-0.4,0.2L156.9,49.9z"/>
<path class="st0" d="M158,48.9h-0.2c0.3,0,0.5,0.2,0.5,0.5s-0.2,0.5-0.5,0.5h0.3c1.5,0,2.7-1.2,2.8-2.6l-1.1,0.5
	C159.4,48.5,158.8,48.9,158,48.9z"/>
<path class="st0" d="M136.9,46.7c-0.3,1.3-0.7,2.8-0.9,4.2v3.3c0,0.1,0.1,0.1,0.1,0.2c0,0,0.1,0.1,0.2,0.1c0.2,0,0.4-0.1,0.7-0.1
	v-7.7C137,46.7,136.9,46.7,136.9,46.7z"/>
<path class="st0" d="M136,55.4V57h-3V44.8h3v1.4v-0.1c0,0,0.3-0.3,1-0.8v-1.1c0-0.3-0.2-0.5-0.5-0.5h-4c-0.3,0-0.5,0.2-0.5,0.5v13.3
	c0,0.3,0.2,0.5,0.5,0.5h4c0.3,0,0.5-0.3,0.5-0.5v-2.2c-0.2,0-0.4,0-0.5,0.1C136.4,55.4,136.2,55.4,136,55.4z"/>
<path class="st0" d="M136.4,54.4c-0.1,0-0.2,0-0.2-0.1c0,0-0.1-0.1-0.1-0.2v1.2c0.2,0,0.3,0,0.5,0c0.1,0,0.3,0,0.5-0.1v-1
	C136.8,54.3,136.5,54.4,136.4,54.4z"/>
<path class="st0" d="M136,46.2v4.7c0.2-1.4,0.5-2.9,0.9-4.1l0.1-0.1v-1.3C136.4,45.8,136.1,46.1,136,46.2
	C136.1,46.2,136.1,46.2,136,46.2z"/>
<path class="st0" d="M59.5,40.3c-0.4-0.7-1-1.3-1.8-1.5c-0.8-0.3-1.6-0.2-2.4,0.2l-11.2,5.8c0,0,0-0.1,0-0.1c0-2.1-1.7-3.9-3.9-3.9
	H28.6L28,40.4c-0.7-0.5-1.5-1-2.3-1.3c-1.2-0.4-2.4-0.5-3.5-0.5c0,0,0,0,0,0c-3.8,0-7.3,0.8-10.2,2.4c-0.4,0.2-0.7,0.4-1.1,0.6V38
	c0-0.3-0.2-0.5-0.5-0.5H0.7c-0.3,0-0.5,0.2-0.5,0.5v21.5c0,0.3,0.2,0.5,0.5,0.5h9.6c0.3,0,0.5-0.2,0.5-0.5v-2.8l4-0.3
	c5.1-0.4,10.3-0.8,15.4,0.3l0.4,0.1c0.7,0.2,1.5,0.4,2.3,0.4c0,0,0,0,0,0c2.3,0,4.3-1.5,5.7-2.6c0.2-0.1,0.3-0.3,0.5-0.4
	c0.2-0.1,0.4-0.1,0.7-0.2l18.3-9.5c0.7-0.4,1.3-1,1.5-1.8S59.8,41,59.5,40.3z M9.8,59H1.2v-2.2h4.7c0.3,0,0.5-0.2,0.5-0.5
	s-0.2-0.5-0.5-0.5H1.2V38.5h8.6v3.8v1.3v12.2v1V59z M58.7,42.3c-0.2,0.5-0.5,1-1,1.2l-16.8,8.7L39.4,53c-0.2,0.1-0.4,0.2-0.6,0.2
	c-0.2,0.2-0.4,0.3-0.7,0.5c0,0,0,0,0,0c-0.2,0.1-0.3,0.3-0.5,0.4c-1.5,1.1-3,2-4.6,2c0,0,0,0,0,0c-0.7,0-1.4-0.2-2.1-0.3l-0.4-0.1
	c-2.5-0.6-5-0.8-7.5-0.8c-2.7,0-5.5,0.2-8.1,0.4l-3.9,0.3V42.9c0.5-0.3,1.1-0.7,1.6-1c2.7-1.5,6.1-2.3,9.7-2.3c1,0,2.1,0.1,3.2,0.4
	c0.6,0.2,1.1,0.5,1.7,0.9c0.2,0.1,0.3,0.2,0.5,0.3l0.8,0.5h1.8h10.1c1.6,0,2.9,1.3,2.9,2.9c0,0.2,0,0.5-0.1,0.7
	c-0.1,0.3-0.2,0.5-0.3,0.7c-0.3,0.5-0.7,1-1.3,1.2l-0.1,0.1c-0.3,0.1-0.7,0.2-1.1,0.2h-0.4H39h-0.3h-1.5h-6v1h5.6h1h0.8h0.3h1.3
	c0,0,0.1,0,0.1,0c1.6-0.1,3-1.1,3.5-2.5l11.9-6.2c0.5-0.3,1.1-0.3,1.6-0.1c0.5,0.2,1,0.5,1.2,1C58.8,41.2,58.9,41.8,58.7,42.3z"/>
</svg>
