<?xml version="1.0" encoding="utf-8"?>
<!-- Generator: Adobe Illustrator 21.0.0, SVG Export Plug-In . SVG Version: 6.00 Build 0)  -->
<svg version="1.1" id="Слой_1" xmlns="http://www.w3.org/2000/svg" xmlns:xlink="http://www.w3.org/1999/xlink" x="0px" y="0px"
	 viewBox="0 0 55 60.6" style="enable-background:new 0 0 55 60.6;" xml:space="preserve">
<style type="text/css">
	.st0{fill:none;}
	.st1{fill:#F9B243;}
</style>
<polygon class="st0" points="15.6,42 15.6,42.1 15.6,43.1 23.5,43.1 23.5,42.1 23.5,42 "/>
<polygon class="st0" points="31.6,34 39.4,34 39.4,43.1 39.4,50.9 54,50.9 54,1 15.1,1 15.1,27.2 31.6,27.2 "/>
<rect x="15.6" y="43.1" class="st0" width="7.9" height="0.5"/>
<polygon class="st0" points="10.3,29.8 14.1,29.8 14.1,28.2 8.9,28.2 8.9,34 10.3,34 "/>
<polygon class="st0" points="29.1,29.8 29.1,34 30.6,34 30.6,28.2 15.1,28.2 15.1,29.8 "/>
<rect x="15.6" y="41.7" class="st0" width="7.9" height="0.3"/>
<polygon class="st1" points="11.3,34 11.3,30.8 14.1,30.8 14.1,29.8 10.3,29.8 10.3,34 10.4,34 "/>
<polygon class="st1" points="28.1,30.8 28.1,34 29.1,34 29.1,29.8 15.1,29.8 15.1,30.8 "/>
<polygon class="st1" points="8.9,28.2 14.1,28.2 14.1,27.2 7.9,27.2 7.9,34 8.9,34 "/>
<polygon class="st1" points="30.6,28.2 30.6,34 31.6,34 31.6,27.2 15.1,27.2 15.1,28.2 "/>
<path class="st1" d="M38.4,57c0,1.4-1.1,2.5-2.5,2.5H3.5C2.1,59.5,1,58.4,1,57V43.1H0V57c0,1.9,1.6,3.5,3.5,3.5h32.4
	c1.9,0,3.5-1.6,3.5-3.5v-5.1h-1V57z"/>
<rect x="38.4" y="43.1" class="st1" width="1" height="7.8"/>
<rect x="24.5" y="42.1" class="st1" width="13.9" height="1"/>
<rect x="1" y="42.1" class="st1" width="13.1" height="1"/>
<rect x="29.1" y="34" class="st1" width="1.5" height="1"/>
<polygon class="st1" points="1,42.1 1,35 7.9,35 7.9,34 0,34 0,43.1 1,43.1 "/>
<rect x="8.9" y="34" class="st1" width="1.4" height="1"/>
<polygon class="st1" points="38.4,35 38.4,42.1 38.4,43.1 39.4,43.1 39.4,34 31.6,34 31.6,35 "/>
<rect x="11.3" y="34" class="st1" width="2.8" height="1"/>
<rect x="15.1" y="34" class="st1" width="13" height="1"/>
<rect x="10.4" y="34" class="st1" width="0.9" height="1"/>
<rect x="10.3" y="34" class="st1" width="0.1" height="1"/>
<rect x="28.1" y="34" class="st1" width="1" height="1"/>
<rect x="30.6" y="34" class="st1" width="1" height="1"/>
<rect x="7.9" y="34" class="st1" width="1" height="1"/>
<polygon class="st1" points="15.1,40.7 15.1,42.1 15.6,42.1 15.6,42 15.6,41.7 23.5,41.7 23.5,42 23.5,42.1 24.5,42.1 24.5,40.7 "/>
<polygon class="st1" points="23.5,43.6 15.6,43.6 15.6,43.1 15.1,43.1 15.1,44.6 24.5,44.6 24.5,43.1 23.5,43.1 "/>
<rect x="23.5" y="42.1" class="st1" width="1" height="1"/>
<rect x="15.1" y="42.1" class="st1" width="0.5" height="1"/>
<polygon class="st1" points="55,0 14.1,0 14.1,27.2 15.1,27.2 15.1,1 54,1 54,50.9 39.4,50.9 39.4,51.9 55,51.9 "/>
<rect x="14.1" y="29.8" class="st1" width="1" height="1"/>
<rect x="14.1" y="27.2" class="st1" width="1" height="1"/>
<rect x="38.4" y="50.9" class="st1" width="1" height="1"/>
<rect x="14.1" y="42.1" class="st1" width="0.5" height="1"/>
<rect x="14.1" y="34" class="st1" width="1" height="1"/>
<rect x="14.6" y="40.7" class="st1" width="0.5" height="1.4"/>
<rect x="14.6" y="43.1" class="st1" width="0.5" height="1.5"/>
<rect x="14.6" y="42.1" class="st1" width="0.5" height="1"/>
<g>
	<path class="st1" d="M48.3,9.4H21.1c-0.3,0-0.5-0.2-0.5-0.5s0.2-0.5,0.5-0.5h27.1c0.3,0,0.5,0.2,0.5,0.5S48.5,9.4,48.3,9.4z"/>
</g>
<g>
	<path class="st1" d="M48.3,13H21.1c-0.3,0-0.5-0.2-0.5-0.5s0.2-0.5,0.5-0.5h27.1c0.3,0,0.5,0.2,0.5,0.5S48.5,13,48.3,13z"/>
</g>
<g>
	<path class="st1" d="M48.3,16.6H21.1c-0.3,0-0.5-0.2-0.5-0.5s0.2-0.5,0.5-0.5h27.1c0.3,0,0.5,0.2,0.5,0.5S48.5,16.6,48.3,16.6z"/>
</g>
<g>
	<path class="st1" d="M48.3,20.3H21.1c-0.3,0-0.5-0.2-0.5-0.5s0.2-0.5,0.5-0.5h27.1c0.3,0,0.5,0.2,0.5,0.5S48.5,20.3,48.3,20.3z"/>
</g>
</svg>
