<?xml version="1.0" encoding="utf-8"?>
<!-- Generator: Adobe Illustrator 21.0.0, SVG Export Plug-In . SVG Version: 6.00 Build 0)  -->
<svg version="1.1" id="Слой_1" xmlns="http://www.w3.org/2000/svg" xmlns:xlink="http://www.w3.org/1999/xlink" x="0px" y="0px"
	 viewBox="0 0 103.8 102.4" style="enable-background:new 0 0 103.8 102.4;" xml:space="preserve">
<style type="text/css">
	.st0{fill:#F9B345;}
	.st1{fill:none;}
</style>
<g>
	<g>
		<rect x="40.2" y="100.9" class="st0" width="9.8" height="1"/>
		<g>
			<rect x="41.7" y="59.6" class="st1" width="6.8" height="7.2"/>
			<rect x="50" y="59.6" class="st1" width="6.6" height="7.2"/>
			<rect x="58.1" y="59.6" class="st1" width="4.8" height="7.2"/>
			<path class="st1" d="M83,84.2L83,84.2l0-4.3h-2.8C81.8,80.7,82.8,82.3,83,84.2z"/>
			<rect x="27.4" y="59.6" class="st1" width="3.2" height="7.2"/>
			<rect x="22.8" y="59.6" class="st1" width="3.1" height="7.2"/>
			<rect x="27.4" y="50.1" class="st1" width="3.2" height="8"/>
			<path class="st1" d="M32.1,45.7v12.4h8.1V47.7h4.7v-0.4c0-3.4-2.8-6.2-6.2-6.2h-4c0,0.1,0,0.2,0,0.3
				C34.7,43.1,33.7,44.7,32.1,45.7z"/>
			<rect x="15" y="59.6" class="st1" width="6.3" height="7.2"/>
			<path class="st1" d="M26.8,40.8c-0.6-0.2-1.2-0.4-1.7-0.8c-0.2,0.5-0.3,0.9-0.3,1.2c0,1.1,0.4,2,1.1,2.7v-1.5L26.8,40.8z"/>
			<path class="st1" d="M30.6,46.4c-0.6,0.2-1.2,0.3-1.9,0.3c-0.5,0-0.9-0.1-1.4-0.2v2.1h3.2V46.4z"/>
			<path class="st1" d="M32.1,42.5v1.3c0.7-0.7,1.1-1.5,1.1-2.4c0-0.1,0-0.2,0-0.3h-1.8L32.1,42.5z"/>
			<path class="st1" d="M54.1,28.6c-0.3,0-0.5,0.2-0.5,0.3c-0.8,3.4-4.5,5.8-8.8,5.8c0,0,0,0,0,0c-0.4,0-0.8,0.1-1,0.3
				c-0.1,0.1-0.3,0.3-0.3,0.6v1.7c0,0,0.2,0.2,0.4,0.2h12.8v-8.8H54.1z"/>
			<rect x="58.1" y="38.9" class="st1" width="4.8" height="19.2"/>
			<rect x="58.1" y="28.6" class="st1" width="4.8" height="8.8"/>
			<path class="st1" d="M26.6,88.8c2,0,3.6-1.4,4-3.3h-8C23,87.3,24.6,88.8,26.6,88.8z"/>
			<path class="st1" d="M70.5,37.4c0.2,0,0.4-0.1,0.4-0.2c1-1.4,2.8-2.2,4.7-2.2h0.8v2.2c0,0,0.2,0.2,0.5,0.2h3
				c0.3,0,0.5-0.2,0.5-0.2v-8.4c0,0-0.2-0.2-0.5-0.2h-3c-0.3,0-0.4,0.2-0.4,0.2v3.5h-0.8c-0.5,0-1.1-0.1-1.6-0.2
				c-1.8-0.5-3.2-1.7-3.7-3.2c0-0.1-0.2-0.2-0.5-0.2h-5.4v8.8H70.5z"/>
			<rect x="32.1" y="59.6" class="st1" width="8.1" height="7.2"/>
			<path class="st1" d="M26.6,80.6c-2,0-3.6,1.4-4,3.3h8C30.2,82.1,28.6,80.6,26.6,80.6z"/>
			<polygon class="st1" points="83,56.6 78.5,56.6 78.5,55.1 83,55.1 83,50.8 78.5,50.8 78.5,49.3 83,49.3 83,43.7 73.9,43.7 
				73.9,58.1 83,58.1 			"/>
			<rect x="41.7" y="68.4" class="st1" width="6.8" height="32"/>
			<rect x="27.4" y="68.4" class="st1" width="3.2" height="8.8"/>
			<path class="st1" d="M81.5,83.9c-0.4-1.9-2-3.3-4-3.3c-1.5,0-2.8,0.9-3.5,2.1v1.2H81.5z"/>
			<rect x="41.7" y="49.2" class="st1" width="6.8" height="2.1"/>
			<rect x="15" y="47.5" class="st1" width="6.3" height="10.7"/>
			<polygon class="st1" points="18.2,43.2 15.7,46 20.6,46 			"/>
			<path class="st1" d="M13.5,59.6H2.8c-0.7,0-1.3,0.6-1.3,1.3v6h12V59.6z"/>
			<path class="st1" d="M62.9,25.9c0-0.7-0.6-1.3-1.3-1.3h-2.3c-0.7,0-1.3,0.6-1.3,1.3v1.2h4.8V25.9z"/>
			<rect x="41.7" y="52.9" class="st1" width="6.8" height="5.3"/>
			<path class="st1" d="M58.1,96.1c0,0.7,0.6,1.3,1.3,1.3h2.3c0.7,0,1.3-0.6,1.3-1.3V68.4h-4.8V96.1z"/>
			<path class="st1" d="M77.5,88.8c1.9,0,3.5-1.3,3.9-3.1h-2.9v-0.2h-4.5v1.2C74.6,87.9,75.9,88.8,77.5,88.8z"/>
			<path class="st1" d="M89.1,11.7c0.7,0,1.3-0.6,1.3-1.3V10c0-0.7-0.6-1.3-1.3-1.3h-2.2v3H89.1z"/>
			<path class="st0" d="M86.9,8.7h2.2c0.7,0,1.3,0.6,1.3,1.3v0.5c0,0.7-0.6,1.3-1.3,1.3h-2.2V13c0,0.1,0,0.2,0,0.2h2.3
				c1.5,0,2.8-1.2,2.8-2.8V10c0-1.5-1.2-2.8-2.8-2.8h-2.3c0,0.2,0,0.3,0,0.5V8.7z"/>
			<rect x="85.4" y="8.7" class="st0" width="1.5" height="3"/>
			<path class="st0" d="M29,10.6c-0.3,0-0.5,0-0.8,0V13c0,4.3,3.5,7.8,7.8,7.8h43.1c4.2,0,7.6-3.4,7.7-7.5h-1.5
				c-0.1,3.3-2.9,6-6.2,6H36c-3.4,0-6.3-2.8-6.3-6.3V7.8c0-3.4,2.8-6.3,6.3-6.3h43.1c3.3,0,6,2.5,6.2,5.7h1.5
				c-0.3-4-3.6-7.2-7.7-7.2H36c-4.3,0-7.8,3.5-7.8,7.8v1.4c0.2,0,0.5,0,0.8,0V10.6z"/>
			<path class="st0" d="M85.4,7.8v1h1.5v-1c0-0.2,0-0.3,0-0.5h-1.5C85.4,7.4,85.4,7.6,85.4,7.8z"/>
			<path class="st0" d="M86.9,11.7h-1.5V13c0,0.1,0,0.2,0,0.2h1.5c0-0.1,0-0.2,0-0.2V11.7z"/>
			<path class="st0" d="M22.8,33.4V16.8c0-3.2,2.4-5.8,5.4-6.1V9.1c-3.9,0.4-6.9,3.7-6.9,7.7v16.6c0,2.2,1,4.3,2.5,5.7
				c0.2-0.5,0.4-0.9,0.7-1.4C23.4,36.6,22.8,35.1,22.8,33.4z"/>
			<path class="st0" d="M38.7,41.1c3.4,0,6.2,2.8,6.2,6.2v0.4h1.5v-0.4c0-4.2-3.5-7.7-7.7-7.7h-4.4c0.2,0.4,0.4,0.9,0.4,1.5H38.7z"
				/>
			<path class="st0" d="M29,10.6V9.1c-0.3,0-0.5,0-0.8,0v1.5C28.5,10.6,28.7,10.6,29,10.6z"/>
			<polygon class="st0" points="44.9,48.5 44.9,47.7 40.2,47.7 40.2,58.1 41.7,58.1 41.7,52.9 40.9,52.9 40.9,51.4 41.7,51.4 
				41.7,49.2 48.5,49.2 48.5,51.4 49.3,51.4 49.3,52.9 48.5,52.9 48.5,58.1 50,58.1 50,47.7 46.4,47.7 46.4,48.5 			"/>
			<rect x="44.9" y="47.7" class="st0" width="1.5" height="0.8"/>
			<rect x="41.7" y="51.4" class="st0" width="6.8" height="1.5"/>
			<rect x="40.9" y="51.4" class="st0" width="0.8" height="1.5"/>
			<rect x="48.5" y="51.4" class="st0" width="0.8" height="1.5"/>
			<polygon class="st0" points="73.9,43.7 83,43.7 83,49.3 83.8,49.3 83.8,50.8 83,50.8 83,55.1 83.8,55.1 83.8,56.6 83,56.6 
				83,58.1 84.5,58.1 84.5,42.2 72.4,42.2 72.4,58.1 73.9,58.1 			"/>
			<rect x="78.5" y="49.3" class="st0" width="4.5" height="1.5"/>
			<rect x="83" y="49.3" class="st0" width="0.8" height="1.5"/>
			<rect x="78.5" y="55.1" class="st0" width="4.5" height="1.5"/>
			<rect x="83" y="55.1" class="st0" width="0.8" height="1.5"/>
			<path class="st0" d="M83,84.2L83,84.2L83,84.2C83,84.2,83,84.2,83,84.2z"/>
			<rect x="56.6" y="38.9" class="st0" width="1.5" height="19.2"/>
			<path class="st0" d="M58.1,25.9c0-0.7,0.6-1.3,1.3-1.3h2.3c0.7,0,1.3,0.6,1.3,1.3v1.2h1.5v-1.2c0-1.5-1.2-2.8-2.8-2.8h-2.3
				c-1.5,0-2.8,1.2-2.8,2.8v1.2h1.5V25.9z"/>
			<rect x="62.9" y="38.9" class="st0" width="1.5" height="19.2"/>
			<rect x="58.1" y="37.4" class="st0" width="4.8" height="1.5"/>
			<rect x="58.1" y="27.1" class="st0" width="4.8" height="1.5"/>
			<path class="st0" d="M69.8,28.6c0.3,0,0.5,0.2,0.5,0.2c0.4,1.5,1.8,2.8,3.7,3.2c0.5,0.1,1.1,0.2,1.6,0.2h0.8v-3.5
				c0,0,0.2-0.2,0.4-0.2h3c0.3,0,0.5,0.2,0.5,0.2v8.4c0,0-0.2,0.2-0.5,0.2h-3c-0.3,0-0.5-0.2-0.5-0.2V35h-0.8
				c-1.9,0-3.8,0.9-4.7,2.2c-0.1,0.1-0.2,0.2-0.4,0.2h-6.1v1.5h6.1c0.7,0,1.3-0.3,1.7-0.8c0.6-0.8,1.6-1.4,2.7-1.5v0.7
				c0,0.9,0.9,1.7,2,1.7h3c1.1,0,2-0.8,2-1.7v-8.4c0-0.9-0.9-1.7-2-1.7h-3c-1.1,0-1.9,0.8-1.9,1.7v1.9c-0.2,0-0.3-0.1-0.5-0.1
				c-1.3-0.3-2.3-1.2-2.6-2.2c-0.2-0.8-1-1.3-2-1.3h-5.4v1.5H69.8z"/>
			<path class="st0" d="M43.8,37.4c-0.2,0-0.4-0.1-0.4-0.2v-1.7c0-0.3,0.2-0.5,0.3-0.6c0.3-0.2,0.6-0.3,1-0.3c0,0,0,0,0,0
				c4.3,0,8-2.4,8.8-5.8c0-0.1,0.2-0.3,0.5-0.3h2.5v-1.5h-2.5c-1,0-1.8,0.6-2,1.4c-0.7,2.7-3.8,4.7-7.4,4.7c0,0,0,0,0,0
				c-0.7,0-1.4,0.2-1.9,0.6c-0.6,0.4-0.9,1.1-0.9,1.7v1.7c0,0.9,0.9,1.7,1.9,1.7h12.8v-1.5H43.8z"/>
			<rect x="56.6" y="37.4" class="st0" width="1.5" height="1.5"/>
			<rect x="56.6" y="27.1" class="st0" width="1.5" height="1.5"/>
			<rect x="62.9" y="37.4" class="st0" width="1.5" height="1.5"/>
			<rect x="62.9" y="27.1" class="st0" width="1.5" height="1.5"/>
			<polygon class="st0" points="15,47.5 14.3,47.5 14.3,46 15.7,46 18.2,43.2 20.6,46 22,46 22,47.5 21.3,47.5 21.3,58.1 22.8,58.1 
				22.8,46.2 18.2,41 13.5,46.2 13.5,58.1 15,58.1 			"/>
			<polygon class="st0" points="21.3,46.7 20.6,46 15.7,46 15,46.7 15,47.5 21.3,47.5 			"/>
			<polygon class="st0" points="21.3,47.5 22,47.5 22,46 20.6,46 21.3,46.7 			"/>
			<polygon class="st0" points="15.7,46 14.3,46 14.3,47.5 15,47.5 15,46.7 			"/>
			<path class="st0" d="M27.4,50.1h-0.8v-1.5h0.8v-2.1c-0.5-0.1-1-0.4-1.5-0.6v12.2h1.5V50.1z"/>
			<path class="st0" d="M32.1,45.7c-0.5,0.3-1,0.5-1.5,0.7v2.2h0.8v1.5h-0.8v8h1.5V45.7z"/>
			<rect x="22.8" y="58.1" class="st0" width="3.1" height="1.5"/>
			<rect x="15" y="58.1" class="st0" width="6.3" height="1.5"/>
			<rect x="32.1" y="58.1" class="st0" width="8.1" height="1.5"/>
			<rect x="64.4" y="58.1" class="st0" width="8" height="1.5"/>
			<rect x="58.1" y="58.1" class="st0" width="4.8" height="1.5"/>
			<rect x="73.9" y="58.1" class="st0" width="9.1" height="1.5"/>
			<rect x="27.4" y="58.1" class="st0" width="3.2" height="1.5"/>
			<path class="st0" d="M101.3,58.1H84.5v1.5h16.8c0.7,0,1.3,0.6,1.3,1.3v6h1.2v1.5h-1.2v31.3c0,0.7-0.6,1.3-1.3,1.3H50v1h-9.8v-1
				H2.8c-0.7,0-1.3-0.6-1.3-1.3V68.4H0.9v-1.5h0.6v-6c0-0.7,0.6-1.3,1.3-1.3h10.8v-1.5H2.8c-1.5,0-2.8,1.2-2.8,2.8v38.8
				c0,1.5,1.2,2.8,2.8,2.8h98.6c1.5,0,2.8-1.2,2.8-2.8V60.9C104.1,59.4,102.8,58.1,101.3,58.1z"/>
			<rect x="50" y="58.1" class="st0" width="6.6" height="1.5"/>
			<rect x="41.7" y="58.1" class="st0" width="6.8" height="1.5"/>
			<rect x="48.5" y="58.1" class="st0" width="1.5" height="1.5"/>
			<rect x="40.2" y="58.1" class="st0" width="1.5" height="1.5"/>
			<rect x="72.4" y="58.1" class="st0" width="1.5" height="1.5"/>
			<rect x="83" y="58.1" class="st0" width="1.5" height="1.5"/>
			<rect x="62.9" y="58.1" class="st0" width="1.5" height="1.5"/>
			<rect x="56.6" y="58.1" class="st0" width="1.5" height="1.5"/>
			<rect x="21.3" y="58.1" class="st0" width="1.5" height="1.5"/>
			<rect x="13.5" y="58.1" class="st0" width="1.5" height="1.5"/>
			<rect x="25.9" y="58.1" class="st0" width="1.5" height="1.5"/>
			<rect x="30.6" y="58.1" class="st0" width="1.5" height="1.5"/>
			<rect x="22.8" y="66.9" class="st0" width="3.1" height="1.5"/>
			<rect x="15" y="66.9" class="st0" width="6.3" height="1.5"/>
			<polygon class="st0" points="83,68.4 83,68.2 78.5,68.2 78.5,66.9 73.9,66.9 73.9,68.4 			"/>
			<rect x="64.4" y="66.9" class="st0" width="8" height="1.5"/>
			<rect x="84.5" y="66.9" class="st0" width="18.1" height="1.5"/>
			<rect x="50" y="66.9" class="st0" width="6.6" height="1.5"/>
			<rect x="27.4" y="66.9" class="st0" width="3.2" height="1.5"/>
			<rect x="1.5" y="66.9" class="st0" width="12" height="1.5"/>
			<rect x="41.7" y="66.9" class="st0" width="6.8" height="1.5"/>
			<rect x="32.1" y="66.9" class="st0" width="8.1" height="1.5"/>
			<rect x="58.1" y="66.9" class="st0" width="4.8" height="1.5"/>
			<rect x="48.5" y="66.9" class="st0" width="1.5" height="1.5"/>
			<rect x="40.2" y="66.9" class="st0" width="1.5" height="1.5"/>
			<polygon class="st0" points="83,68.2 83,68.4 84.5,68.4 84.5,66.9 83.8,66.9 83.8,68.2 			"/>
			<rect x="72.4" y="66.9" class="st0" width="1.5" height="1.5"/>
			<rect x="78.5" y="66.9" class="st0" width="4.5" height="1.4"/>
			<rect x="83" y="66.9" class="st0" width="0.8" height="1.4"/>
			<rect x="62.9" y="66.9" class="st0" width="1.5" height="1.5"/>
			<rect x="56.6" y="66.9" class="st0" width="1.5" height="1.5"/>
			<rect x="21.3" y="66.9" class="st0" width="1.5" height="1.5"/>
			<rect x="13.5" y="66.9" class="st0" width="1.5" height="1.5"/>
			<rect x="30.6" y="66.9" class="st0" width="1.5" height="1.5"/>
			<rect x="25.9" y="66.9" class="st0" width="1.5" height="1.5"/>
			<rect x="102.6" y="66.9" class="st0" width="1.2" height="1.5"/>
			<path class="st0" d="M31.4,85.4h-0.8c-0.4,1.9-2,3.3-4,3.3s-3.6-1.4-4-3.3h-0.8c-0.4,0-0.8-0.3-0.8-0.8c0,3.1,2.5,5.6,5.6,5.6
				c3.1,0,5.6-2.5,5.6-5.6C32.2,85.1,31.8,85.4,31.4,85.4z"/>
			<path class="st0" d="M21.6,82.4c-0.3,0.7-0.5,1.5-0.5,2.3c0-0.4,0.3-0.8,0.8-0.8h0.8c0.4-1.9,2-3.3,4-3.3s3.6,1.4,4,3.3h0.8
				c0.4,0,0.8,0.3,0.8,0.8c0-3.1-2.5-5.6-5.6-5.6c-1.5,0-2.8,0.6-3.8,1.5v1.7H21.6z"/>
			<path class="st0" d="M22.8,82.4v-1.7c-0.5,0.5-0.9,1.1-1.2,1.7H22.8z"/>
			<path class="st0" d="M22.6,85.4h8c0-0.2,0.1-0.5,0.1-0.8s0-0.5-0.1-0.8h-8c0,0.2-0.1,0.5-0.1,0.8S22.6,85.2,22.6,85.4z"/>
			<path class="st0" d="M21.8,85.4h0.8c0-0.2-0.1-0.5-0.1-0.8s0-0.5,0.1-0.8h-0.8c-0.4,0-0.8,0.3-0.8,0.8S21.4,85.4,21.8,85.4z"/>
			<path class="st0" d="M31.4,83.9h-0.8c0,0.2,0.1,0.5,0.1,0.8s0,0.5-0.1,0.8h0.8c0.4,0,0.8-0.3,0.8-0.8S31.8,83.9,31.4,83.9z"/>
			<path class="st0" d="M77.5,80.6c2,0,3.6,1.4,4,3.3h0.8c0.2,0,0.4,0.1,0.5,0.2H83c-0.2-1.9-1.3-3.4-2.8-4.3h-1.7v-0.6
				c-0.3-0.1-0.7-0.1-1-0.1c-1.3,0-2.6,0.5-3.5,1.3v2.3C74.6,81.5,75.9,80.6,77.5,80.6z"/>
			<path class="st0" d="M78.5,90.2V90h0.7c2-0.6,3.4-2.3,3.8-4.3h-1.5c-0.4,1.8-2,3.1-3.9,3.1c-1.5,0-2.8-0.9-3.5-2.1V89
				c1,0.8,2.2,1.3,3.5,1.3C77.8,90.3,78.2,90.2,78.5,90.2z"/>
			<path class="st0" d="M71.9,84.7c0,0.8,0.2,1.6,0.5,2.3v-1.6C72.1,85.3,71.9,85,71.9,84.7z"/>
			<path class="st0" d="M72.4,84v-1.6c-0.3,0.7-0.5,1.5-0.5,2.3C71.9,84.4,72.1,84.1,72.4,84z"/>
			<path class="st0" d="M73.9,89v-2.3c-0.2-0.4-0.4-0.8-0.4-1.2h-0.8c-0.1,0-0.2,0-0.2,0V87C72.8,87.8,73.3,88.5,73.9,89z"/>
			<path class="st0" d="M72.7,83.9h0.8c0.1-0.4,0.2-0.8,0.4-1.2v-2.3c-0.6,0.5-1.1,1.2-1.5,2V84C72.5,84,72.6,83.9,72.7,83.9z"/>
			<path class="st0" d="M80.2,79.9c-0.5-0.3-1.1-0.5-1.7-0.6v0.6H80.2z"/>
			<path class="st0" d="M82.3,85.4h-0.8c0,0.1,0,0.2-0.1,0.2h1.5c0-0.2,0.1-0.3,0.1-0.5v-0.4C82.9,85.2,82.7,85.4,82.3,85.4z"/>
			<path class="st0" d="M83,84.6v-0.4c0,0,0,0,0,0h-0.2C82.9,84.3,83,84.4,83,84.6z"/>
			<path class="st0" d="M83,84.7c0-0.2,0-0.3,0-0.5v0.4C83,84.6,83,84.7,83,84.7z"/>
			<path class="st0" d="M83,85.2c0-0.2,0-0.3,0-0.5c0,0,0,0.1,0,0.1V85.2z"/>
			<path class="st0" d="M78.5,90.2c0.2,0,0.4-0.1,0.7-0.2h-0.7V90.2z"/>
			<path class="st0" d="M81.5,84.2c0-0.1,0-0.2,0-0.2h-7.5v1.5h4.5v-1.3H81.5z"/>
			<path class="st0" d="M73.9,83.9h-0.4c0,0.2-0.1,0.5-0.1,0.8s0,0.5,0.1,0.8h0.4V83.9z"/>
			<path class="st0" d="M81.5,84.7c0-0.2,0-0.3-0.1-0.5h-3v1.3h3C81.5,85.2,81.5,85,81.5,84.7z"/>
			<path class="st0" d="M72.4,85.4V84c-0.3,0.1-0.5,0.4-0.5,0.7S72.1,85.3,72.4,85.4z"/>
			<path class="st0" d="M82.8,84.2c-0.1-0.1-0.3-0.2-0.5-0.2h-0.8c0,0.1,0,0.2,0,0.2H82.8z"/>
			<path class="st0" d="M73.5,83.9h-0.8c-0.1,0-0.2,0-0.2,0v1.4c0.1,0,0.1,0,0.2,0h0.8c0-0.2-0.1-0.5-0.1-0.8S73.5,84.2,73.5,83.9z"
				/>
			<path class="st0" d="M81.5,84.7c0,0.3,0,0.5-0.1,0.8h0.8c0.4,0,0.7-0.3,0.7-0.6v-0.3c0-0.1-0.1-0.3-0.2-0.4h-1.3
				C81.5,84.4,81.5,84.5,81.5,84.7z"/>
			<path class="st0" d="M83,84.8c0,0,0-0.1,0-0.1s0-0.1,0-0.1V84.8z"/>
			<path class="st0" d="M30.6,46.4v-1.6c-0.6,0.3-1.2,0.4-1.9,0.4c-0.5,0-0.9-0.1-1.4-0.3v1.6c0.4,0.1,0.9,0.2,1.4,0.2
				C29.4,46.7,30,46.6,30.6,46.4z"/>
			<path class="st0" d="M32.1,43.8v2c1.5-1,2.6-2.6,2.6-4.3c0-0.1,0-0.2,0-0.3h-1.5c0,0.1,0,0.2,0,0.3
				C33.2,42.3,32.8,43.1,32.1,43.8z"/>
			<path class="st0" d="M27.4,36.2c0.3-0.4,1.4-1.3,2.9-2.4c-0.2,1.1-0.3,2.3,0,3.2c0.3,1,1,1.5,1.6,2c0.2,0.2,0.4,0.3,0.6,0.5h1.9
				c-0.4-0.7-1-1.2-1.5-1.6c-0.5-0.4-1-0.8-1.2-1.3c-0.4-1.2,0.3-3.4,0.5-4c0.1-0.4,0-0.8-0.3-1c-0.3-0.2-0.7-0.2-1,0
				c-1.4,1-4,2.8-4.6,3.7c-0.5,0.6-1.2,1.5-1.7,2.4c0.4,0.4,0.7,0.7,1.2,1C26.2,37.8,26.7,36.9,27.4,36.2z M31.7,32.9
				C31.7,32.9,31.7,32.9,31.7,32.9C31.7,32.9,31.7,32.9,31.7,32.9z"/>
			<path class="st0" d="M24.8,41.2c0-0.3,0.1-0.7,0.3-1.2c-0.4-0.3-0.9-0.6-1.3-0.9c-0.3,0.8-0.5,1.5-0.5,2.1c0,2,1,3.7,2.6,4.6V44
				C25.2,43.3,24.8,42.3,24.8,41.2z"/>
			<path class="st0" d="M25.7,38.7c-0.4-0.3-0.8-0.6-1.2-1c-0.3,0.5-0.5,0.9-0.7,1.4c0.4,0.4,0.8,0.7,1.3,0.9
				C25.2,39.6,25.4,39.1,25.7,38.7z"/>
			<path class="st0" d="M33.2,41.1h1.5c0-0.6-0.2-1.1-0.4-1.5h-1.9C32.8,40,33.1,40.5,33.2,41.1z"/>
			<path class="st0" d="M32.1,43.8c-0.4,0.4-0.9,0.8-1.5,1v1.6c0.5-0.2,1-0.4,1.5-0.7V43.8z"/>
			<path class="st0" d="M27.4,45c-0.6-0.2-1.1-0.6-1.5-1v1.9c0.5,0.3,1,0.5,1.5,0.6V45z"/>
			<rect x="27.4" y="48.6" class="st0" width="3.2" height="1.5"/>
			<rect x="26.6" y="48.6" class="st0" width="0.8" height="1.5"/>
			<rect x="30.6" y="48.6" class="st0" width="0.8" height="1.5"/>
		</g>
	</g>
	<rect y="65.6" class="st0" width="1.5" height="3.2"/>
</g>
</svg>
