<?xml version="1.0" encoding="utf-8"?>
<!-- Generator: Adobe Illustrator 21.0.0, SVG Export Plug-In . SVG Version: 6.00 Build 0)  -->
<svg version="1.1" id="Слой_1" xmlns="http://www.w3.org/2000/svg" xmlns:xlink="http://www.w3.org/1999/xlink" x="0px" y="0px"
	 viewBox="0 0 117.9 104.4" style="enable-background:new 0 0 117.9 104.4;" xml:space="preserve">
<style type="text/css">
	.st0{fill:#F9B345;}
	.st1{fill:none;}
</style>
<g>
	<g>
		<path class="st0" d="M77.1,30.2c-0.7,0.5-1.8,0.9-3.2,0.9c-1.8,0-3.3-0.7-4.4-1.9c-0.8-0.9-1.4-2.2-1.6-3.7h-1.3v-1.1h1.2
			c0-0.1,0-0.2,0-0.3c0-0.3,0-0.7,0-1h-1.3v-1.1H68c0.3-1.5,0.9-2.8,1.8-3.7c1.1-1.1,2.5-1.8,4.3-1.8c1.3,0,2.3,0.4,2.9,0.7
			l-0.4,1.4c-0.5-0.3-1.4-0.6-2.4-0.6c-1.2,0-2.1,0.4-2.9,1.2c-0.6,0.6-1.1,1.6-1.3,2.7h6v1.1h-6.2c0,0.3,0,0.6,0,0.9
			c0,0.1,0,0.2,0,0.4H76v1.1h-6.1c0.2,1.3,0.6,2.2,1.2,2.8c0.8,0.8,1.9,1.3,3,1.3c1.1,0,2.1-0.4,2.6-0.7L77.1,30.2z"/>
	</g>
	<rect x="42.8" y="90.8" class="st1" width="58.2" height="6.5"/>
	<path class="st1" d="M3.8,100.2c-1.1,0-2.1,0.8-2.2,1.9H26v-1.9H3.8z"/>
	<rect x="42.8" y="98.8" class="st1" width="58.2" height="3.4"/>
	<path class="st1" d="M27.6,100.2L27.6,100.2l-0.1,1.9h2.3C29.7,101.1,28.8,100.2,27.6,100.2z"/>
	<path class="st1" d="M101.1,89.3v-12c0-4.3,3.3-7.9,7.6-8.3c-0.7-5-5-8.9-10.1-8.9H73.1v29.3H101.1z M93.8,70.3h1.3V69
		c0-0.4,0.3-0.8,0.8-0.8s0.8,0.3,0.8,0.8v1.3h1.3c0.4,0,0.8,0.3,0.8,0.8s-0.3,0.8-0.8,0.8h-1.3v1.3c0,0.4-0.3,0.8-0.8,0.8
		s-0.8-0.3-0.8-0.8v-1.3h-1.3c-0.4,0-0.8-0.3-0.8-0.8S93.4,70.3,93.8,70.3z M87.1,79.5h1.3v-1.3c0-0.4,0.3-0.8,0.8-0.8
		s0.8,0.3,0.8,0.8v1.3h1.3c0.4,0,0.8,0.3,0.8,0.8S91.6,81,91.2,81h-1.3v1.3c0,0.4-0.3,0.8-0.8,0.8s-0.8-0.3-0.8-0.8V81h-1.3
		c-0.4,0-0.8-0.3-0.8-0.8S86.7,79.5,87.1,79.5z M80.1,70.3h1.3V69c0-0.4,0.3-0.8,0.8-0.8s0.8,0.3,0.8,0.8v1.3h1.3
		c0.4,0,0.8,0.3,0.8,0.8s-0.3,0.8-0.8,0.8h-1.3v1.3c0,0.4-0.3,0.8-0.8,0.8s-0.8-0.3-0.8-0.8v-1.3h-1.3c-0.4,0-0.8-0.3-0.8-0.8
		S79.7,70.3,80.1,70.3z"/>
	<path class="st1" d="M61.3,39.4c0.5,0,1-0.1,1.6-0.5c0.7-0.5,1.5-0.7,2.4-0.7c0,0,0,0,0.1,0l-3.1-1.2L61.3,39.4z"/>
	<path class="st1" d="M72.3,35.8c6.6,0,11.9-5.4,11.9-11.9s-5.4-11.9-11.9-11.9c-4,0-7.5,2-9.7,5l3.9,13l-4.1,0.6
		C64.6,33.7,68.2,35.8,72.3,35.8z"/>
	<path class="st1" d="M63.7,40.2c-0.9,0.6-1.9,0.8-2.9,0.6l-2.9,7.2l3.5-1l1.7,3l3.9-9.8c-0.2-0.2-0.5-0.3-0.8-0.4
		C65.4,39.7,64.5,39.8,63.7,40.2z"/>
	<path class="st1" d="M78.4,40c-0.9,0.3-1.5,1-1.8,1.9c-0.1,0.4-0.3,0.7-0.5,1l3,7.5l1.7-3l3.5,1l-3.2-7.9c-0.1-0.1-0.2-0.1-0.3-0.1
		C80.2,39.8,79.2,39.7,78.4,40z"/>
	<path class="st1" d="M72.3,10.4c7.4,0,13.4,6,13.4,13.4s-6,13.4-13.4,13.4c-4.9,0-9.2-2.6-11.5-6.5l-2.7,0.4
		c0.1,0.1,0.1,0.2,0.2,0.3c0.7,1.2,0.8,2.6,0.3,3.9c-0.6,1.5,0,2.7,0.8,3.4c0.1,0.1,0.3,0.2,0.5,0.3l1.6-3.9l8,3.2l-0.7,1.7
		c0.3,0.4,0.6,0.8,0.7,1.3c0.5,1.5,1.8,2,2.8,2c0.7,0,1.5-0.2,2.1-0.8l-1.6-4.1l8-3.2l1.6,4c1.1,0.4,2.2,0,2.8-0.5
		c0.8-0.7,1.4-1.9,0.8-3.4c-0.5-1.3-0.4-2.7,0.3-3.9c0.7-1.2,1.9-2,3.2-2.2c1.6-0.2,2.3-1.4,2.5-2.4c0.2-1-0.1-2.4-1.5-3.1
		c-1.2-0.6-2.1-1.8-2.3-3.2c-0.2-1.4,0.2-2.7,1.1-3.8c1.1-1.2,0.9-2.6,0.4-3.5c-0.5-0.9-1.6-1.7-3.2-1.4c-1.4,0.3-2.7-0.1-3.8-0.9
		s-1.6-2.2-1.6-3.6c0.1-1.6-1-2.5-1.9-2.9c-1-0.4-2.4-0.3-3.3,1c-0.9,1.1-2.1,1.7-3.5,1.7c0,0,0,0,0,0c-1.4,0-2.7-0.6-3.5-1.7
		c-1-1.3-2.4-1.3-3.3-1c-1,0.4-2,1.3-1.9,2.9c0.1,1.4-0.5,2.7-1.6,3.6c-0.3,0.2-0.6,0.4-0.9,0.6l1.1,3.6
		C64.6,12.3,68.2,10.4,72.3,10.4z"/>
	<path class="st1" d="M74.7,39.4l0.6,1.5c0.5-1.1,1.4-1.9,2.5-2.3c0.8-0.3,1.7-0.3,2.6-0.1L80,37.3L74.7,39.4z"/>
	<path class="st1" d="M42.8,77.3v12h28.8V60.1H48.1c-5.4,0-9.9,4.2-10.2,9.6C40.8,71,42.8,73.9,42.8,77.3z M59.4,70.1h1.3v-1.3
		c0-0.4,0.3-0.8,0.8-0.8s0.8,0.3,0.8,0.8v1.3h1.3c0.4,0,0.8,0.3,0.8,0.8s-0.3,0.8-0.8,0.8h-1.3v1.3c0,0.4-0.3,0.8-0.8,0.8
		s-0.8-0.3-0.8-0.8v-1.3h-1.3c-0.4,0-0.8-0.3-0.8-0.8S59,70.1,59.4,70.1z M52.7,79.3H54V78c0-0.4,0.3-0.8,0.8-0.8s0.8,0.3,0.8,0.8
		v1.3h1.3c0.4,0,0.8,0.3,0.8,0.8s-0.3,0.8-0.8,0.8h-1.3v1.3c0,0.4-0.3,0.8-0.8,0.8S54,82.5,54,82.1v-1.3h-1.3
		c-0.4,0-0.8-0.3-0.8-0.8S52.3,79.3,52.7,79.3z M46.4,70.1h1.3v-1.3c0-0.4,0.3-0.8,0.8-0.8s0.8,0.3,0.8,0.8v1.3h1.3
		c0.4,0,0.8,0.3,0.8,0.8s-0.3,0.8-0.8,0.8h-1.3v1.3c0,0.4-0.3,0.8-0.8,0.8s-0.8-0.3-0.8-0.8v-1.3h-1.3c-0.4,0-0.8-0.3-0.8-0.8
		S45.9,70.1,46.4,70.1z"/>
	<path class="st0" d="M48.1,60.1h23.5v-0.8h1.5v0.8h25.3c5.2,0,9.5,3.9,10.1,8.9c0.3,0,0.6,0,0.8,0h0.7c-0.7-5.8-5.7-10.4-11.7-10.4
		H48.1c-6.1,0-11.1,4.7-11.7,10.6c0.5,0.1,1,0.3,1.5,0.5C38.2,64.3,42.7,60.1,48.1,60.1z"/>
	<rect x="42.8" y="97.3" class="st0" width="58.2" height="1.5"/>
	<polygon class="st0" points="101.1,90.8 101.1,89.3 73.1,89.3 73.1,90.1 71.6,90.1 71.6,89.3 42.8,89.3 42.8,90.8 	"/>
	<rect x="71.6" y="60.1" class="st0" width="1.5" height="29.3"/>
	<rect x="71.6" y="59.3" class="st0" width="1.5" height="0.8"/>
	<rect x="71.6" y="89.3" class="st0" width="1.5" height="0.8"/>
	<rect x="41.3" y="90.8" class="st0" width="1.5" height="6.5"/>
	<path class="st0" d="M27.5,70.4h6.9c0.7,0,1.3,0.1,1.9,0.3v-0.4c0-0.4,0-0.8,0.1-1.2c-0.6-0.2-1.3-0.2-2-0.2H26v29.8h1.5V70.4z"/>
	<path class="st0" d="M41.3,77.3v12h1.5v-12c0-3.4-2-6.3-5-7.6c0,0.2,0,0.4,0,0.7v1C39.9,72.5,41.3,74.7,41.3,77.3z"/>
	<path class="st0" d="M41.8,102.2h1.1v-3.4h-1.5v3.4h-10c0,0.1,0,0.2,0,0.2v1.2H26v0.1h16.8v-0.1h-1.1V102.2z"/>
	<path class="st0" d="M36.4,70.7c0.5,0.2,1,0.4,1.5,0.6v-1c0-0.2,0-0.4,0-0.7c-0.5-0.2-1-0.4-1.5-0.5c0,0.4-0.1,0.8-0.1,1.2V70.7z"
		/>
	<rect x="41.3" y="97.3" class="st0" width="1.5" height="1.5"/>
	<rect x="41.3" y="89.3" class="st0" width="1.5" height="1.5"/>
	<path class="st0" d="M101.1,77.3v12h1.5v-12c0-3.5,2.7-6.5,6.2-6.8v-0.1c0-0.5,0-0.9-0.1-1.4C104.4,69.4,101.1,73,101.1,77.3z"/>
	<rect x="101.1" y="90.8" class="st0" width="1.5" height="6.5"/>
	<path class="st0" d="M110.1,68.9c0.1,0.5,0.1,0.9,0.1,1.4v0.1h6.1v31.8h-13.8v-3.4h-1.5v3.4h0.4v1.5h-0.4v0.1h16.8V68.9H110.1z"/>
	<path class="st0" d="M108.6,69c0.1,0.4,0.1,0.9,0.1,1.4v0.1c0.2,0,0.5,0,0.7,0h0.8v-0.1c0-0.5,0-0.9-0.1-1.4h-0.7
		C109.2,68.9,108.9,68.9,108.6,69z"/>
	<rect x="101.1" y="97.3" class="st0" width="1.5" height="1.5"/>
	<rect x="101.1" y="89.3" class="st0" width="1.5" height="1.5"/>
	<path class="st0" d="M46.4,71.6h1.3v-1.5h-1.3c-0.4,0-0.8,0.3-0.8,0.8S45.9,71.6,46.4,71.6z"/>
	<path class="st0" d="M50.4,71.6c0.4,0,0.8-0.3,0.8-0.8s-0.3-0.8-0.8-0.8h-1.3v1.5H50.4z"/>
	<path class="st0" d="M47.6,72.9c0,0.4,0.3,0.8,0.8,0.8s0.8-0.3,0.8-0.8v-1.3h-1.5V72.9z"/>
	<path class="st0" d="M49.1,68.8c0-0.4-0.3-0.8-0.8-0.8s-0.8,0.3-0.8,0.8v1.3h1.5V68.8z"/>
	<rect x="47.6" y="70.1" class="st0" width="1.5" height="1.5"/>
	<path class="st0" d="M63.5,71.6c0.4,0,0.8-0.3,0.8-0.8s-0.3-0.8-0.8-0.8h-1.3v1.5H63.5z"/>
	<path class="st0" d="M59.4,71.6h1.3v-1.5h-1.3c-0.4,0-0.8,0.3-0.8,0.8S59,71.6,59.4,71.6z"/>
	<path class="st0" d="M62.2,68.8c0-0.4-0.3-0.8-0.8-0.8s-0.8,0.3-0.8,0.8v1.3h1.5V68.8z"/>
	<path class="st0" d="M60.7,72.9c0,0.4,0.3,0.8,0.8,0.8s0.8-0.3,0.8-0.8v-1.3h-1.5V72.9z"/>
	<rect x="60.7" y="70.1" class="st0" width="1.5" height="1.5"/>
	<path class="st0" d="M56.8,80.8c0.4,0,0.8-0.3,0.8-0.8s-0.3-0.8-0.8-0.8h-1.3v1.5H56.8z"/>
	<path class="st0" d="M52.7,80.8H54v-1.5h-1.3c-0.4,0-0.8,0.3-0.8,0.8S52.3,80.8,52.7,80.8z"/>
	<path class="st0" d="M54,82.1c0,0.4,0.3,0.8,0.8,0.8s0.8-0.3,0.8-0.8v-1.3H54V82.1z"/>
	<path class="st0" d="M55.5,78c0-0.4-0.3-0.8-0.8-0.8S54,77.6,54,78v1.3h1.5V78z"/>
	<rect x="54" y="79.3" class="st0" width="1.5" height="1.5"/>
	<path class="st0" d="M93.8,71.8h1.3v-1.5h-1.3c-0.4,0-0.8,0.3-0.8,0.8S93.4,71.8,93.8,71.8z"/>
	<path class="st0" d="M97.9,71.8c0.4,0,0.8-0.3,0.8-0.8s-0.3-0.8-0.8-0.8h-1.3v1.5H97.9z"/>
	<path class="st0" d="M96.6,69c0-0.4-0.3-0.8-0.8-0.8s-0.8,0.3-0.8,0.8v1.3h1.5V69z"/>
	<path class="st0" d="M95.1,73.1c0,0.4,0.3,0.8,0.8,0.8s0.8-0.3,0.8-0.8v-1.3h-1.5V73.1z"/>
	<rect x="95.1" y="70.3" class="st0" width="1.5" height="1.5"/>
	<path class="st0" d="M91.2,81c0.4,0,0.8-0.3,0.8-0.8s-0.3-0.8-0.8-0.8h-1.3V81H91.2z"/>
	<path class="st0" d="M87.1,81h1.3v-1.5h-1.3c-0.4,0-0.8,0.3-0.8,0.8S86.7,81,87.1,81z"/>
	<path class="st0" d="M88.4,82.3c0,0.4,0.3,0.8,0.8,0.8s0.8-0.3,0.8-0.8V81h-1.5V82.3z"/>
	<path class="st0" d="M89.9,78.2c0-0.4-0.3-0.8-0.8-0.8s-0.8,0.3-0.8,0.8v1.3h1.5V78.2z"/>
	<rect x="88.4" y="79.5" class="st0" width="1.5" height="1.5"/>
	<path class="st0" d="M84.2,71.8c0.4,0,0.8-0.3,0.8-0.8s-0.3-0.8-0.8-0.8h-1.3v1.5H84.2z"/>
	<path class="st0" d="M80.1,71.8h1.3v-1.5h-1.3c-0.4,0-0.8,0.3-0.8,0.8S79.7,71.8,80.1,71.8z"/>
	<path class="st0" d="M82.9,69c0-0.4-0.3-0.8-0.8-0.8s-0.8,0.3-0.8,0.8v1.3h1.5V69z"/>
	<path class="st0" d="M81.4,73.1c0,0.4,0.3,0.8,0.8,0.8s0.8-0.3,0.8-0.8v-1.3h-1.5V73.1z"/>
	<rect x="81.4" y="70.3" class="st0" width="1.5" height="1.5"/>
	<path class="st0" d="M67,40.4l-3.9,9.8l-1.7-3l-3.5,1l2.9-7.2c-0.5-0.1-1-0.2-1.4-0.5l-4,9.9l5.3-1.4l2.7,4.7l4.7-11.8
		C67.9,41.2,67.5,40.8,67,40.4z"/>
	<path class="st0" d="M84.4,48.3l-3.5-1l-1.7,3l-3-7.5c-0.3,0.5-0.7,0.9-1.1,1.2l3.9,9.7l2.7-4.7l5.3,1.4l-3.8-9.6
		c-0.6,0-1.2-0.2-1.8-0.5L84.4,48.3z"/>
	<path class="st0" d="M72.3,43.4c-1,0-2.3-0.5-2.8-2c-0.2-0.5-0.4-0.9-0.7-1.3l-0.7,1.8c0,0,0,0,0,0c0.6,1.9,2.3,3.1,4.2,3.1
		c1,0,1.9-0.3,2.7-0.9l-0.6-1.5C73.8,43.2,73,43.4,72.3,43.4z"/>
	<path class="st0" d="M62.9,39c-0.5,0.3-1.1,0.5-1.6,0.5l-0.6,1.5c1,0.1,2-0.1,2.9-0.6c0.8-0.5,1.7-0.6,2.6-0.3
		c0.3,0.1,0.5,0.3,0.8,0.4l0.5-1.2l-2.2-0.9c0,0,0,0-0.1,0C64.4,38.3,63.6,38.5,62.9,39z"/>
	<path class="st0" d="M59.4,38.7c-0.8-0.7-1.4-1.9-0.8-3.4c0.5-1.3,0.4-2.7-0.3-3.9c-0.1-0.1-0.1-0.2-0.2-0.3l-1.8,0.3
		c0.3,0.2,0.5,0.5,0.7,0.8c0.5,0.8,0.5,1.7,0.2,2.6c-0.7,1.8-0.2,3.8,1.3,5.1c0.3,0.2,0.6,0.4,0.9,0.6l0.6-1.4
		C59.7,38.9,59.6,38.8,59.4,38.7z"/>
	<path class="st0" d="M77.9,38.6c-1.1,0.4-2,1.3-2.5,2.3l0.8,1.9c0.2-0.3,0.3-0.6,0.5-1c0.3-0.9,0.9-1.6,1.8-1.9
		c0.9-0.3,1.8-0.2,2.6,0.3c0.1,0.1,0.2,0.1,0.3,0.1l-0.8-2C79.6,38.2,78.7,38.3,77.9,38.6z"/>
	<path class="st0" d="M61.9,11c1.1-0.9,1.6-2.2,1.6-3.6c-0.1-1.6,1-2.5,1.9-2.9c1-0.4,2.4-0.3,3.3,1c0.8,1.1,2.1,1.7,3.5,1.7
		c0,0,0,0,0,0c1.4,0,2.7-0.6,3.5-1.7c1-1.3,2.4-1.3,3.3-1c1,0.4,2,1.3,1.9,2.9c-0.1,1.4,0.5,2.7,1.6,3.6s2.4,1.2,3.8,0.9
		c1.6-0.3,2.7,0.5,3.2,1.4c0.5,0.9,0.7,2.3-0.4,3.5c-0.9,1-1.3,2.4-1.1,3.8c0.2,1.4,1.1,2.5,2.3,3.2c1.4,0.7,1.7,2.1,1.5,3.1
		c-0.2,1-0.9,2.2-2.5,2.4c-1.4,0.2-2.6,1-3.2,2.2c-0.7,1.2-0.8,2.6-0.3,3.9c0.6,1.5,0,2.7-0.8,3.4c-0.7,0.6-1.7,0.9-2.8,0.5l0.7,1.6
		c1.1,0.1,2.2-0.3,3.1-1c1.5-1.3,2-3.3,1.3-5.1c-0.3-0.9-0.3-1.8,0.2-2.6s1.2-1.3,2.2-1.5c2-0.3,3.4-1.7,3.8-3.6s-0.6-3.8-2.3-4.7
		c-0.8-0.4-1.4-1.2-1.5-2.1c-0.2-0.9,0.1-1.8,0.7-2.5c1.3-1.5,1.5-3.5,0.6-5.2c-1-1.7-2.9-2.5-4.8-2.1c-0.9,0.2-1.8,0-2.5-0.6
		c-0.7-0.6-1.1-1.5-1.1-2.4c0.1-2-1.1-3.7-2.9-4.4c-1.8-0.7-3.8-0.1-5,1.5c-0.6,0.7-1.4,1.1-2.3,1.1S70.6,5.3,70,4.6
		c-1.2-1.6-3.2-2.1-5-1.5c-1.9,0.7-3,2.4-2.9,4.4c0,0.9-0.4,1.8-1.1,2.4c-0.1,0.1-0.3,0.2-0.4,0.3l0.4,1.5
		C61.3,11.4,61.6,11.2,61.9,11z"/>
	<path class="st0" d="M66.8,38.6c-0.5-0.2-1-0.3-1.5-0.3l2.2,0.9L67,40.4c0.5,0.4,0.9,0.8,1,1.4l0.7-1.8
		C68.3,39.4,67.6,38.9,66.8,38.6z"/>
	<path class="st0" d="M61.3,39.4c-0.5,0-1-0.2-1.5-0.4l-0.6,1.4c0.5,0.2,0.9,0.4,1.4,0.5L61.3,39.4z"/>
	<path class="st0" d="M76.1,42.8l-0.8-1.9c-0.1,0.2-0.2,0.3-0.2,0.5c-0.2,0.5-0.4,0.9-0.7,1.2l0.6,1.5
		C75.4,43.7,75.8,43.3,76.1,42.8z"/>
	<path class="st0" d="M81.8,39c-0.4-0.3-0.8-0.4-1.3-0.6l0.8,2c0.6,0.3,1.2,0.5,1.8,0.5l-0.7-1.6C82.2,39.2,82,39.1,81.8,39z"/>
	<path class="st0" d="M72.3,11.9c6.6,0,11.9,5.4,11.9,11.9s-5.4,11.9-11.9,11.9c-4.1,0-7.8-2.1-9.9-5.3l-1.6,0.2
		c2.4,3.9,6.6,6.5,11.5,6.5c7.4,0,13.4-6,13.4-13.4s-6-13.4-13.4-13.4c-4.1,0-7.8,1.9-10.2,4.8l0.5,1.8
		C64.8,13.9,68.3,11.9,72.3,11.9z"/>
	<path class="st0" d="M62.6,17c-0.4,0.6-0.7,1.1-1,1.8l3,10l-3,0.4c0.2,0.5,0.5,1,0.8,1.4l4.1-0.6L62.6,17z"/>
	<path class="st0" d="M60.1,29.4l-3.3,0.5c0.6,0.3,1,0.8,1.4,1.3l2.7-0.4C60.5,30.3,60.3,29.9,60.1,29.4z"/>
	<path class="st0" d="M36.2,16.4h-0.6l-0.2,18l20.9-3c-0.4-0.3-0.9-0.6-1.5-0.7c-0.5-0.1-1-0.2-1.4-0.4L37,32.7l0.3-28.3l19.2-2.7
		l2.7,8.9c0.5,0,1-0.2,1.4-0.4L57.5,0L35.8,3.1l-0.1,11.8h0.6V16.4z"/>
	<path class="st0" d="M62.1,15.2L61,11.6c-0.5,0.2-0.9,0.4-1.4,0.4l1.4,4.7C61.3,16.2,61.7,15.7,62.1,15.2z"/>
	<path class="st0" d="M59.1,10.5l0.4,1.5c0.5-0.1,1-0.2,1.4-0.4l-0.4-1.5C60.1,10.4,59.6,10.5,59.1,10.5z"/>
	<path class="st0" d="M56.7,29.8l-3.3,0.5c0.4,0.2,0.9,0.4,1.4,0.4c0.6,0.1,1.1,0.3,1.5,0.7l1.8-0.3C57.8,30.6,57.3,30.2,56.7,29.8z
		"/>
	<path class="st0" d="M62.6,17l-0.5-1.8c-0.4,0.5-0.8,1-1.1,1.5l0.6,2C61.9,18.1,62.2,17.5,62.6,17z"/>
	<path class="st0" d="M62.4,30.5c-0.3-0.4-0.6-0.9-0.8-1.4l-1.6,0.2c0.2,0.5,0.5,1,0.7,1.4L62.4,30.5z"/>
	<polygon class="st0" points="32.5,16.4 35.6,16.4 35.7,14.9 31.2,14.9 15,98.7 16.5,98.7 	"/>
	<polygon class="st0" points="36.2,16.4 36.2,14.9 35.7,14.9 35.6,16.4 	"/>
	<path class="st0" d="M27.6,98.7L27.6,98.7l-0.1,1.5h0.1c1.1,0,2.1,0.8,2.2,1.9h-2.3v0.1h3.8C31.2,100.3,29.6,98.7,27.6,98.7z"/>
	<path class="st0" d="M1.5,102.2c0.2-1.1,1.1-1.9,2.2-1.9H26v-1.5h-9.5l-0.1,0.4L15,98.9l0-0.2H3.8c-2.1,0-3.8,1.7-3.8,3.8v1.2h26
		v-1.5H1.5z"/>
	<path class="st0" d="M31.4,102.5c0-0.1,0-0.2,0-0.2h-3.8v-0.1H26v1.5h5.3V102.5z"/>
	<rect x="26" y="98.7" class="st0" width="1.5" height="1.5"/>
	<polygon class="st0" points="16.4,99.2 16.5,98.7 15,98.7 15,98.9 	"/>
	<rect x="42.8" y="102.2" class="st0" width="58.2" height="1.5"/>
	<rect x="41.8" y="102.2" class="st0" width="1.1" height="1.5"/>
	<rect x="101.1" y="102.2" class="st0" width="0.4" height="1.5"/>
</g>
</svg>
