<?xml version="1.0" encoding="utf-8"?>
<!-- Generator: Adobe Illustrator 21.0.0, SVG Export Plug-In . SVG Version: 6.00 Build 0)  -->
<svg version="1.1" id="Слой_1" xmlns="http://www.w3.org/2000/svg" xmlns:xlink="http://www.w3.org/1999/xlink" x="0px" y="0px"
	 viewBox="0 0 157.5 120.7" style="enable-background:new 0 0 157.5 120.7;" xml:space="preserve">
<style type="text/css">
	.st0{fill:none;}
	.st1{fill:#F9B243;}
</style>
<rect x="73.1" y="119.2" class="st0" width="14.5" height="0.1"/>
<polygon class="st1" points="87.6,119.2 73.1,119.2 73.1,119.2 71.6,119.2 71.6,120.7 89.1,120.7 89.1,119.2 87.6,119.2 "/>
<path class="st0" d="M108.7,68c-1.3-3.9-2.5-7.5-4.9-10.9c-4.7,2.9-9.7,5.3-14.9,7.4c-1.8,0.7-4,1.5-6.1,1.5c-1.3,0-2.7-0.3-3.8-1.1
	c-1.8-1.1-2.8-3-3.5-4.7v20.6H46.2V51.5h25.1l-1.6-3.2c-1.1-2.3-1.5-4.8-1-7.1c1-5.1,4.9-6.4,8.7-7.7c2.1-0.7,4.2-1.4,5.8-2.8
	c1.5-1.3,2.4-3.1,3.4-4.9c0.7-1.4,1.5-2.9,2.5-4.1c0.1-0.2,0.2-0.3,0.4-0.4L62.5,2c-0.5-0.4-1.1-0.5-1.7-0.5c-0.6,0-1.2,0.2-1.7,0.5
	L32.4,21.2v13.5h-9.5V28L2.4,42.6c-0.7,0.5-1,1.3-0.8,2.2c0.2,0.7,0.9,1.5,2.2,1.5h6.7v63.5c0,4.3,3.8,7.8,8.6,7.8h52.5v-32l8.8-5.3
	l8.8,5.3v32h4.6v-32l8.8-5.3l8.7,5.3V74.7c-0.5-1.2-1-2.5-1.4-3.7C109.4,69.9,109.1,68.9,108.7,68z"/>
<path class="st0" d="M95.2,119.2L95.2,119.2l14.5,0.1v-2.8c-1.8,1.7-4.4,2.8-7.1,2.8H95.2z"/>
<path class="st0" d="M109.7,114.1V86.5l-7.3-4.4l-7.3,4.4v31.2h7.4C105.6,117.7,108.2,116.3,109.7,114.1z"/>
<path class="st0" d="M112.6,49.6c1.5-0.8,3-1.5,4.7-1.8c0.1,0,0.2,0,0.3,0h-5V49.6z"/>
<path class="st0" d="M111.2,115c0.2-0.5,0.4-1,0.6-1.6c-0.2,0.4-0.4,0.8-0.6,1.2V115z"/>
<path class="st0" d="M117.9,46.3c1.3,0,2-0.8,2.2-1.5c0.3-0.8,0-1.6-0.8-2.2L90.6,22.1c-0.1,0.2-0.3,0.3-0.4,0.5
	c-0.9,1.1-1.6,2.5-2.3,3.9c-1,1.9-2,3.9-3.7,5.4c-1.8,1.6-4.1,2.3-6.3,3c-3.7,1.2-6.9,2.3-7.7,6.5c-0.4,2-0.1,4.1,0.9,6.1l1.9,3.9
	h2.5v5.3l1.2,2.5c0.9,1.9,1.8,3.5,3.2,4.4c2.5,1.6,5.9,0.6,8.6-0.5c6.7-2.7,13.2-6.1,19.2-10.2l0.8-0.6c0.9-0.6,1.8-1.2,2.7-1.8
	v-4.2H117.9z"/>
<path class="st0" d="M108.4,54.1c-1.1,0.7-2.2,1.5-3.3,2.2c2.5,3.5,3.8,7.3,5.1,11.2c0.3,1,0.6,2,1,3V52.3c-0.6,0.4-1.3,0.8-1.9,1.3
	L108.4,54.1z"/>
<path class="st0" d="M30.9,14.4c0-0.7-0.6-1.3-1.3-1.3h-4c-0.7,0-1.3,0.6-1.3,1.3v10.7l6.5-4.6V14.4z"/>
<polygon class="st0" points="74,53 73.7,53 74,53.6 "/>
<path class="st0" d="M121.5,45.3c-0.4,1.2-1.3,2-2.5,2.4c6-0.4,11.7,3.4,16.9,7.4c0.9,0.7,1.9,1.5,3,1.7c1.4,0.3,2.9-0.2,4.9-1.4
	c2.4-1.5,5.3-4.1,6-7.6c0.3-1.5,0.1-3.1,0-4.7c-0.1-0.5-0.1-1.1-0.2-1.6c-0.1-1.9-0.1-3.8,0-5.7c0.1-3.8,0.3-7.3-1.2-10.8
	c-1-2.4-2.7-4.2-4.8-5c-3.6-1.4-7,0.5-10.5,2.5c-2.5,1.4-5.1,2.9-7.9,3.3c-4.2,0.6-8.5-1.2-13.1-5.5c-1.8-1.7-4.4-2.5-6.8-2
	c0,0-3.7,0.7-5.3,0.6l0,0.1c-0.8,0.1-1.6,0.2-2.3,0.3c-2.3,0.3-4.3,0.5-6,1.9l28.4,20.3C121.4,42.3,122,43.8,121.5,45.3z"/>
<rect x="47.7" y="53" class="st0" width="12.4" height="9.7"/>
<polygon class="st0" points="61.6,79.2 74,79.2 74,57.1 72,53 61.6,53 "/>
<polygon class="st0" points="30.9,33.2 30.9,22.3 24.4,26.9 24.4,33.2 "/>
<polygon class="st0" points="80.3,82.1 73.1,86.5 73.1,117.7 87.6,117.7 87.6,86.5 "/>
<rect x="47.7" y="64.2" class="st0" width="12.4" height="15"/>
<path class="st0" d="M112.5,111.5c2.4-8.6,2.7-23.1,1.6-28c-0.4-1.6-0.9-3.3-1.5-4.9v31.2C112.6,110.4,112.6,111,112.5,111.5z"/>
<polygon class="st0" points="141.5,86.5 141.5,119.2 156,119.2 156,86.5 148.7,82.1 "/>
<path class="st0" d="M118.8,55.4c0.1,0.1,0.3,0.3,0.5,0.3c0.2,0,0.6-0.2,0.8-0.3c2.2-1.4,4.3-2.9,6.2-4.7c-2.8-1.3-5.7-1.9-8.7-1.4
	c-0.9,0.2-1.8,0.5-2.7,0.9C115.8,52.2,117.1,54,118.8,55.4z"/>
<polygon class="st0" points="119.3,119.2 133.9,119.2 133.9,86.5 126.6,82.1 119.3,86.5 "/>
<rect x="89.1" y="117.7" class="st1" width="4.6" height="1.5"/>
<polygon class="st1" points="30.9,20.4 24.4,25.1 24.4,26.9 30.9,22.3 "/>
<path class="st1" d="M19.1,117.7c-4.7,0-8.6-3.5-8.6-7.8V46.3H3.8c-1.3,0-2-0.8-2.2-1.5c-0.3-0.8,0-1.6,0.8-2.2L22.9,28v-1.8
	L1.5,41.4c-1.3,0.9-1.8,2.4-1.3,3.8c0.5,1.5,1.9,2.5,3.6,2.5H9v62c0,5.2,4.5,9.3,10.1,9.3h52.5v-1.5H19.1z"/>
<path class="st1" d="M59.1,2c0.5-0.4,1.1-0.5,1.7-0.5c0.6,0,1.2,0.2,1.7,0.5l26.9,19.2c0.4-0.4,0.7-0.8,1.1-1.1L63.4,0.8
	c-1.5-1.1-3.6-1.1-5.1,0L32.4,19.4v1.8L59.1,2z"/>
<path class="st1" d="M24.4,14.4c0-0.7,0.6-1.3,1.3-1.3h4c0.7,0,1.3,0.6,1.3,1.3v6.1l1.5-1.1v-5c0-1.5-1.2-2.8-2.8-2.8h-4
	c-1.5,0-2.8,1.2-2.8,2.8v11.8l1.5-1.1V14.4z"/>
<polygon class="st1" points="24.4,26.9 24.4,25.1 22.9,26.1 22.9,28 "/>
<polygon class="st1" points="30.9,22.3 32.4,21.2 32.4,19.4 30.9,20.4 "/>
<path class="st1" d="M74,57.1v22.2H61.6V80h-1.5v-0.8H47.7v-15h-0.8v-1.5h0.8V53h12.4v-0.8h1.5V53H72l-0.7-1.5H46.2v29.3h29.3V60.2
	c-0.1-0.1-0.1-0.2-0.2-0.3L74,57.1z"/>
<polygon class="st1" points="60.1,53 60.1,62.7 60.8,62.7 60.8,64.2 60.1,64.2 60.1,79.2 61.6,79.2 61.6,53 "/>
<rect x="60.1" y="79.2" class="st1" width="1.5" height="0.8"/>
<rect x="60.1" y="52.2" class="st1" width="1.5" height="0.8"/>
<rect x="47.7" y="62.7" class="st1" width="12.4" height="1.5"/>
<rect x="46.9" y="62.7" class="st1" width="0.8" height="1.5"/>
<rect x="60.1" y="62.7" class="st1" width="0.8" height="1.5"/>
<path class="st1" d="M86.6,25.8c-1,1.9-1.9,3.7-3.4,4.9c-1.6,1.4-3.7,2.1-5.8,2.8c-3.8,1.3-7.7,2.5-8.7,7.7c-0.4,2.3-0.1,4.8,1,7.1
	l1.6,3.2h1.7l-1.9-3.9c-1-2-1.3-4.2-0.9-6.1c0.8-4.2,4-5.3,7.7-6.5c2.2-0.7,4.5-1.5,6.3-3c1.7-1.5,2.7-3.5,3.7-5.4
	c0.7-1.3,1.4-2.7,2.3-3.9c0.1-0.2,0.3-0.3,0.4-0.5l-1.2-0.9c-0.1,0.1-0.2,0.3-0.4,0.4C88,23,87.3,24.4,86.6,25.8z"/>
<polygon class="st1" points="74,53.6 73.7,53 72,53 74,57.1 "/>
<path class="st1" d="M107.6,52.9c-6,4.1-12.5,7.5-19.2,10.2c-2.7,1.1-6.1,2.1-8.6,0.5c-1.4-0.9-2.2-2.5-3.2-4.4l-1.2-2.5v3.4
	c0.8,1.6,1.8,3.5,3.5,4.7c1.2,0.8,2.5,1.1,3.8,1.1c2.1,0,4.3-0.7,6.1-1.5c5.1-2,10.1-4.5,14.9-7.4c0-0.1-0.1-0.1-0.1-0.2l1.2-0.9
	c0.1,0.1,0.1,0.2,0.2,0.3c1.1-0.7,2.2-1.4,3.3-2.2l0.8-0.6c0.6-0.4,1.2-0.8,1.9-1.3v-1.8c-0.9,0.6-1.8,1.2-2.7,1.8L107.6,52.9z"/>
<path class="st1" d="M151.3,47.9c0.3-1.7,0.1-3.4,0-5.1c-0.1-0.5-0.1-1.1-0.1-1.6c-0.1-1.8-0.1-3.7,0-5.5c0.1-3.8,0.3-7.6-1.3-11.4
	c-1.1-2.8-3.1-4.9-5.6-5.8c-4.3-1.6-8.1,0.5-11.8,2.6c-2.4,1.3-4.8,2.7-7.3,3.1c-3.8,0.5-7.6-1.1-11.9-5.1c-2.2-2.1-5.2-2.9-8.2-2.3
	c-1.7,0.3-3.5,0.5-4.4,0.6l0-0.1l-0.8,0.1c-0.8,0.1-1.5,0.2-2.3,0.3c-2.5,0.3-4.9,0.6-7.1,2.4l1.3,0.9c1.8-1.3,3.7-1.6,6-1.9
	c0.8-0.1,1.5-0.2,2.3-0.3l0-0.1c1.6,0.1,5.2-0.6,5.3-0.6c2.4-0.5,5,0.2,6.8,2c4.6,4.3,8.9,6.1,13.1,5.5c2.8-0.4,5.4-1.9,7.9-3.3
	c3.5-2,6.9-3.9,10.5-2.5c2.1,0.8,3.8,2.6,4.8,5c1.4,3.5,1.3,7,1.2,10.8c-0.1,1.9-0.1,3.8,0,5.7c0,0.5,0.1,1.1,0.2,1.6
	c0.2,1.6,0.3,3.2,0,4.7c-0.7,3.6-3.6,6.1-6,7.6c-2,1.3-3.5,1.7-4.9,1.4c-1.1-0.2-2.1-1-3-1.7c-5.2-4-10.9-7.8-16.9-7.4
	c-0.4,0.1-0.7,0.2-1.1,0.2h-0.2c-0.1,0-0.2,0-0.3,0c-1.7,0.3-3.2,1-4.7,1.8v1.7c0.3-0.2,0.6-0.3,0.9-0.5c-0.1-0.3-0.2-0.5-0.3-0.8
	l1.4-0.5c0.1,0.2,0.2,0.4,0.3,0.6c0.9-0.4,1.8-0.7,2.7-0.9c2.9-0.6,5.8,0.1,8.7,1.4c0.1-0.1,0.2-0.2,0.3-0.3l0.7,0.8
	c1.2,0.6,2.4,1.3,3.6,2.1c0.2-0.1,0.4-0.2,0.5-0.3l0.7,1.2c1,0.7,1.9,1.4,2.9,2.1c1,0.7,2.2,1.7,3.6,2c2.3,0.5,4.6-0.7,6-1.6
	C147.3,54.9,150.5,52,151.3,47.9z"/>
<path class="st1" d="M117.9,47.8c0.4,0,0.8-0.1,1.1-0.2c-0.4,0-0.9,0.1-1.3,0.2H117.9z"/>
<path class="st1" d="M89.4,21.3l1.2,0.9c0.4-0.4,0.7-0.7,1.1-1l-1.3-0.9C90.1,20.5,89.8,20.9,89.4,21.3z"/>
<path class="st1" d="M111.1,50.5v1.8c0.5-0.3,1-0.6,1.5-0.9v-1.7C112.1,49.9,111.6,50.2,111.1,50.5z"/>
<path class="st1" d="M74,57.1l1.3,2.8c0.1,0.1,0.1,0.2,0.2,0.3v-3.4L74,53.6V57.1z"/>
<polygon class="st1" points="72,53 73.7,53 72.9,51.5 71.3,51.5 "/>
<path class="st1" d="M105.1,56.3c-0.4,0.3-0.8,0.5-1.3,0.8c2.4,3.4,3.6,7,4.9,10.9c0.3,1,0.7,2,1,3c0.4,1.3,0.9,2.5,1.4,3.7v-4.2
	c-0.4-1-0.7-2-1-3C108.8,63.5,107.6,59.8,105.1,56.3z"/>
<path class="st1" d="M114.1,83.5c1.1,4.9,0.8,19.4-1.6,28c-0.1,0.7-0.3,1.3-0.6,1.9c-0.2,0.6-0.4,1.1-0.6,1.6v2.8
	c4.9-6.1,5.8-28,4.4-34.6c-0.7-3-1.8-5.9-2.9-8.7c0,0,0-0.1,0-0.1v4.2C113.2,80.2,113.7,81.9,114.1,83.5z"/>
<path class="st1" d="M111.1,70.4v4.2c0,0.1,0.1,0.2,0.1,0.4c0.5,1.2,0.9,2.4,1.4,3.6v-4.2C112.1,73.1,111.6,71.8,111.1,70.4
	C111.2,70.4,111.1,70.4,111.1,70.4z"/>
<path class="st1" d="M112.5,111.5c-0.2,0.7-0.4,1.3-0.6,1.9C112.1,112.8,112.3,112.2,112.5,111.5z"/>
<path class="st1" d="M104.9,56l-1.2,0.9c0,0.1,0.1,0.1,0.1,0.2c0.4-0.3,0.9-0.5,1.3-0.8C105,56.2,105,56.1,104.9,56z"/>
<path class="st1" d="M120.1,55.3c-0.2,0.1-0.5,0.3-0.8,0.3c-0.2,0-0.4-0.2-0.5-0.3c-1.7-1.4-3-3.2-3.9-5.2c-0.5,0.2-0.9,0.4-1.4,0.7
	c1,2.2,2.5,4.2,4.3,5.7c0.3,0.3,0.7,0.5,1.2,0.6c0.1,0,0.2,0,0.3,0c0.6,0,1.1-0.3,1.5-0.5c2.4-1.5,4.7-3.2,6.7-5.1l-0.3-0.3
	c-0.3-0.2-0.7-0.3-1-0.5C124.4,52.4,122.3,54,120.1,55.3z"/>
<path class="st1" d="M114.6,49.6l-1.4,0.5c0.1,0.3,0.2,0.5,0.3,0.8c0.5-0.2,0.9-0.5,1.4-0.7C114.8,50,114.7,49.8,114.6,49.6z"/>
<path class="st1" d="M126.3,50.7c0.3,0.2,0.7,0.3,1,0.5l-0.7-0.8C126.5,50.5,126.4,50.6,126.3,50.7z"/>
<path class="st1" d="M121.7,62.3c-1,1.5-2.3,3.4-3,5.7c-0.6,2-0.8,4-1,6c-0.4,4,1.5,6.6,3.7,9.5l1.3-0.8c-2.1-2.8-3.8-5.1-3.5-8.6
	c0.2-1.9,0.4-3.8,0.9-5.7c0.7-2.1,1.9-3.9,2.8-5.3c2.9-4.1,5.9-7,9.3-8.9l-0.1-0.2c-0.4-0.3-0.8-0.6-1.2-0.8
	C127.6,55.3,124.5,58.3,121.7,62.3z"/>
<path class="st1" d="M130.9,53.3c0.4,0.3,0.8,0.5,1.2,0.8l-0.7-1.2C131.3,53.1,131.1,53.2,130.9,53.3z"/>
<polygon class="st1" points="80.3,80.3 71.6,85.6 71.6,117.7 73.1,117.7 73.1,86.5 80.3,82.1 87.6,86.5 87.6,117.7 89.1,117.7 
	89.1,85.6 "/>
<rect x="87.6" y="117.7" class="st1" width="1.5" height="1.5"/>
<rect x="71.6" y="117.7" class="st1" width="1.5" height="1.5"/>
<path class="st1" d="M148.7,80.3l-8.8,5.3v35.1h17.5V85.6L148.7,80.3z M156,119.2h-14.5V86.5l7.3-4.4l7.3,4.4V119.2z"/>
<path class="st1" d="M102.5,82.1l7.3,4.4v27.7c0.9-1.2,1.4-2.7,1.4-4.3V85.6l-8.7-5.3l-8.8,5.3v32h1.5V86.5L102.5,82.1z"/>
<path class="st1" d="M109.9,117.1c0.5-0.5,0.9-1.2,1.3-2.1v-0.4c-0.4,0.7-0.9,1.3-1.5,1.8v2.8H95.2v-0.1h-1.5v1.6h17.5v-2.9
	c-0.1,0.1-0.1,0.2-0.2,0.2L109.9,117.1z"/>
<path class="st1" d="M111.1,85.6v24.2c0,1.6-0.5,3.1-1.4,4.3v2.3c0.6-0.5,1.1-1.1,1.5-1.8L111.1,85.6L111.1,85.6z"/>
<rect x="93.7" y="117.7" class="st1" width="1.5" height="1.5"/>
<path class="st1" d="M109.9,117.1l1.1,1c0.1-0.1,0.1-0.2,0.2-0.2V115C110.8,115.8,110.4,116.5,109.9,117.1z"/>
<path class="st1" d="M123.1,83.2l-1.2,0.9l-0.2-0.3c-0.1-0.1-0.2-0.3-0.3-0.4l-3.5,2.1v35.1h17.5V85.6l-8.8-5.3l-4,2.4
	c0.1,0.1,0.1,0.2,0.2,0.3L123.1,83.2z M133.9,86.5v32.8h-14.5V86.5l7.3-4.4L133.9,86.5z"/>
<path class="st1" d="M121.7,83.9l0.2,0.3l1.2-0.9l-0.2-0.3c-0.1-0.1-0.1-0.2-0.2-0.3l-1.3,0.8C121.5,83.6,121.6,83.8,121.7,83.9z"/>
</svg>
