<?xml version="1.0" encoding="utf-8"?>
<!-- Generator: Adobe Illustrator 21.0.0, SVG Export Plug-In . SVG Version: 6.00 Build 0)  -->
<svg version="1.1" id="Слой_1" xmlns="http://www.w3.org/2000/svg" xmlns:xlink="http://www.w3.org/1999/xlink" x="0px" y="0px"
	 viewBox="0 0 155.7 148.8" style="enable-background:new 0 0 155.7 148.8;" xml:space="preserve">
<style type="text/css">
	.st0{fill:#F9B243;}
	.st1{fill:none;}
	.st2{fill:none;stroke:#F9B243;stroke-width:1.5;stroke-linecap:round;stroke-miterlimit:10;}
</style>
<g>
	<g>
		<g>
			<path class="st0" d="M147.9,32.8H102c-0.6,0-1.2-0.3-1.5-0.8c-0.3-0.5-0.3-1.1-0.1-1.6L114.6,1c0.3-0.6,0.9-1,1.6-1h17.5
				c0.7,0,1.3,0.4,1.6,1l14.2,29.4c0.2,0.5,0.2,1.1-0.1,1.6C149.1,32.5,148.6,32.8,147.9,32.8z M116.2,1.5c-0.1,0-0.2,0.1-0.3,0.1
				l-14.2,29.4c0,0,0,0.1,0,0.1c0,0,0.1,0.1,0.2,0.1h45.9c0.2,0,0.2-0.1,0.2-0.1c0-0.1,0-0.1,0-0.1L134,1.7c0-0.1-0.1-0.1-0.3-0.1
				H116.2z"/>
		</g>
		<g>
			<rect x="117.4" y="0.8" class="st0" width="1.5" height="31.3"/>
		</g>
		<g>
			<rect x="130.9" y="0.8" class="st0" width="1.5" height="31.3"/>
		</g>
	</g>
	<g>
		<path class="st0" d="M145.2,124.1h-42v-0.8c0-3.8,3.1-6.9,6.9-6.9h28.2c3.8,0,6.9,3.1,6.9,6.9V124.1z M104.7,122.6h38.9
			c-0.4-2.6-2.6-4.7-5.4-4.7h-28.2C107.3,117.9,105,120,104.7,122.6z"/>
	</g>
	<rect x="59.3" y="74.2" class="st1" width="31.5" height="2.5"/>
	<path class="st1" d="M108.4,76.7c0.7,0,1.2-0.6,1.2-1.2s-0.6-1.2-1.2-1.2H92.3v2.5H108.4z"/>
	<rect x="59.3" y="72.7" class="st0" width="31.5" height="1.5"/>
	<rect x="59.3" y="76.7" class="st0" width="31.5" height="1.5"/>
	<path class="st0" d="M108.4,72.7H92.3v1.5h16.1c0.7,0,1.2,0.6,1.2,1.2s-0.6,1.2-1.2,1.2H92.3v1.5h16.1c1.5,0,2.7-1.2,2.7-2.7
		S109.9,72.7,108.4,72.7z"/>
	<path class="st0" d="M92.3,42.6c0-9.5-7.7-17.3-17.3-17.3c-8.6,0-15.8,6.4-17,14.6h1.5c1.3-7.4,7.7-13.1,15.5-13.1
		c8.7,0,15.8,7.1,15.8,15.8v30.1h1.5V42.6z"/>
	<rect x="90.8" y="72.7" class="st0" width="1.5" height="1.5"/>
	<rect x="90.8" y="76.7" class="st0" width="1.5" height="1.5"/>
	<rect x="57.8" y="76.7" class="st0" width="1.5" height="1.5"/>
	<rect x="57.8" y="72.7" class="st0" width="1.5" height="1.5"/>
	<path class="st0" d="M49.8,40c-0.3,0-0.6,0.3-0.6,0.8s0.2,0.8,0.6,0.8h8.1c0-0.5,0.1-1,0.1-1.5H49.8z"/>
	<path class="st0" d="M69.7,41.5c0.4,0,0.8-0.3,0.8-0.8S70.1,40,69.7,40H59.5c-0.1,0.5-0.1,1-0.2,1.5H69.7z"/>
	<path class="st0" d="M59.5,40H58c-0.1,0.5-0.1,1-0.2,1.5h1.5C59.4,41,59.4,40.5,59.5,40z"/>
	<path class="st1" d="M50.7,72.1c-0.4-0.4-0.9-0.6-1.4-0.6s-1,0.2-1.4,0.6c-0.2,0.2-0.3,0.4-0.4,0.6h3.5
		C51,72.5,50.9,72.3,50.7,72.1z"/>
	<path class="st1" d="M37.3,68.2c-2.7,0-4.9,2-5.3,4.6h10.5C42.2,70.2,40,68.2,37.3,68.2z"/>
	<path class="st1" d="M30.5,71.8c0-1.9-1.5-3.4-3.4-3.4s-3.4,1.5-3.4,3.4c0,0.3,0.1,0.7,0.2,1h6.5C30.4,72.4,30.5,72.1,30.5,71.8z"
		/>
	<path class="st1" d="M37.3,78.8c0.9,0,1.7-0.2,2.4-0.6h-4.8C35.6,78.6,36.5,78.8,37.3,78.8z"/>
	<circle class="st1" cx="45.1" cy="71.1" r="1"/>
	<path class="st1" d="M20.9,72.5c-0.3,0-0.5,0.1-0.7,0.2h1.5C21.4,72.6,21.2,72.5,20.9,72.5z"/>
	<path class="st1" d="M18,74.2h-7.3c-0.7,0-1.2,0.6-1.2,1.2s0.6,1.2,1.2,1.2h4.6h4.8C19,76.4,18.1,75.4,18,74.2z"/>
	<path class="st1" d="M20.9,75.4c0.7,0,1.2-0.5,1.4-1.1h-2.8C19.7,74.9,20.2,75.4,20.9,75.4z"/>
	<path class="st1" d="M46,74.2h-1.9c-0.1,0.9-0.4,1.7-0.8,2.5h4.9c-0.5-0.2-1-0.4-1.4-0.8C46.4,75.4,46.1,74.9,46,74.2z"/>
	<path class="st1" d="M27.1,76.7c-1.4,0-2.7-0.6-3.6-1.5c-0.4,0.8-1,1.4-1.9,1.6h9.6c-0.3-0.5-0.5-1.1-0.6-1.6
		C29.8,76.1,28.5,76.7,27.1,76.7z"/>
	<path class="st1" d="M42.6,74.2H32.1c0.1,0.9,0.5,1.8,1,2.5h8.4C42.1,76,42.5,75.2,42.6,74.2z"/>
	<path class="st1" d="M48,74.9c0.8,0.7,2,0.7,2.7,0c0.2-0.2,0.3-0.4,0.4-0.6h-3.5C47.7,74.5,47.8,74.7,48,74.9z"/>
	<path class="st1" d="M29.4,74.2h-4.7c0.6,0.6,1.4,0.9,2.3,0.9S28.8,74.8,29.4,74.2z"/>
	<path class="st1" d="M51.8,75.9c-0.4,0.4-0.9,0.7-1.4,0.8h7.4v-2.5h-5.1C52.5,74.9,52.2,75.4,51.8,75.9z"/>
	<path class="st0" d="M52.7,74.2h5.1v-1.5h-5.1C52.8,73.2,52.8,73.7,52.7,74.2z"/>
	<path class="st0" d="M15.3,76.7h-4.6c-0.7,0-1.2-0.6-1.2-1.2s0.6-1.2,1.2-1.2H18c0-0.1,0-0.2,0-0.3c0-0.4,0.1-0.8,0.3-1.2h-7.5
		C9.2,72.7,8,74,8,75.5s1.2,2.7,2.7,2.7h4.6c0-0.3,0-0.5,0-0.8V76.7z"/>
	<path class="st0" d="M45.9,73.4c-0.2,0.1-0.5,0.1-0.8,0.1c-0.3,0-0.7-0.1-1-0.2c0,0,0,0.1,0,0.1c0,0.3,0,0.5,0,0.8H46
		C45.9,74,45.9,73.7,45.9,73.4z"/>
	<path class="st0" d="M32.4,78.2c-0.4-0.4-0.8-0.9-1.1-1.5h-9.6c-0.3,0.1-0.5,0.1-0.8,0.1s-0.5-0.1-0.8-0.1h-4.8v0.8
		c0,0.3,0,0.5,0,0.8h1.5H32.4z"/>
	<path class="st0" d="M49.3,76.9c-0.4,0-0.7-0.1-1.1-0.2h-4.9c-0.3,0.6-0.7,1.1-1.1,1.5h15.5v-1.5h-7.4
		C50.1,76.8,49.7,76.9,49.3,76.9z"/>
	<path class="st0" d="M31.9,72.7h0.2c0.4-2.6,2.6-4.6,5.3-4.6s4.9,2,5.3,4.6h0.7c-0.4-0.4-0.6-1-0.6-1.6c0-0.5,0.1-0.9,0.4-1.3
		c-1.2-1.9-3.3-3.1-5.7-3.1c-2.4,0-4.5,1.3-5.8,3.2c0.3,0.6,0.4,1.3,0.4,2C32,72.1,32,72.4,31.9,72.7z"/>
	<path class="st0" d="M37.3,80.3c1.9,0,3.7-0.8,4.9-2.1h-2.5c-0.7,0.4-1.5,0.6-2.4,0.6s-1.7-0.2-2.4-0.6h-2.5
		C33.7,79.5,35.4,80.3,37.3,80.3z"/>
	<path class="st0" d="M42.6,74.2c-0.1,0.9-0.5,1.8-1,2.5h1.8c0.4-0.8,0.7-1.6,0.8-2.5H42.6z"/>
	<path class="st0" d="M32.1,74.2h-0.8c-0.2,0.3-0.4,0.6-0.6,0.8c0.1,0.6,0.3,1.1,0.6,1.6h1.8C32.6,76,32.2,75.2,32.1,74.2z"/>
	<path class="st0" d="M32.1,74.2c0-0.2-0.1-0.5-0.1-0.8s0-0.5,0.1-0.8h-0.2c-0.1,0.5-0.3,1-0.6,1.5H32.1z"/>
	<path class="st0" d="M42.6,74.2h1.5c0-0.2,0-0.5,0-0.8c0,0,0-0.1,0-0.1c-0.3-0.1-0.6-0.4-0.9-0.6h-0.7c0,0.2,0.1,0.5,0.1,0.8
		S42.6,74,42.6,74.2z"/>
	<path class="st0" d="M39.7,78.2h2.5c0.4-0.4,0.8-0.9,1.1-1.5h-1.8C41.1,77.4,40.5,77.9,39.7,78.2z"/>
	<path class="st0" d="M33.1,76.7h-1.8c0.3,0.6,0.7,1.1,1.1,1.5h2.5C34.2,77.9,33.6,77.4,33.1,76.7z"/>
	<path class="st0" d="M47,72.7h0.6c0.1-0.2,0.2-0.4,0.4-0.6c0.4-0.4,0.9-0.6,1.4-0.6s1,0.2,1.4,0.6c0.2,0.2,0.3,0.4,0.4,0.6h1.6
		c-0.1-0.6-0.4-1.2-0.9-1.7c-1.1-1.1-2.9-1.3-4.2-0.5c0,0.2,0.1,0.3,0.1,0.5C47.6,71.7,47.4,72.3,47,72.7z"/>
	<path class="st0" d="M48,74.9c-0.2-0.2-0.3-0.4-0.4-0.6H46c0.1,0.6,0.4,1.2,0.9,1.7c0.4,0.4,0.9,0.7,1.4,0.8h2.1
		c0.5-0.2,1-0.4,1.4-0.8c0.5-0.5,0.8-1.1,0.9-1.7h-1.6c-0.1,0.2-0.2,0.4-0.4,0.6C49.9,75.6,48.7,75.6,48,74.9z"/>
	<path class="st0" d="M51.1,74.2h1.6c0.1-0.5,0.1-1,0-1.5h-1.6C51.3,73.2,51.3,73.8,51.1,74.2z"/>
	<path class="st0" d="M45.9,73.4c0,0.3,0,0.5,0.1,0.8h1.6c-0.2-0.5-0.2-1,0-1.5H47C46.7,73.1,46.3,73.3,45.9,73.4z"/>
	<path class="st0" d="M49.3,76.9c0.4,0,0.7-0.1,1.1-0.2h-2.1C48.6,76.8,49,76.9,49.3,76.9z"/>
	<path class="st0" d="M23.5,72.7h0.3c-0.1-0.3-0.2-0.6-0.2-1c0-1.9,1.5-3.4,3.4-3.4s3.4,1.5,3.4,3.4c0,0.3-0.1,0.7-0.2,1h0.2
		c0.1-1.1,0.5-2.1,1-2.9c-0.8-1.7-2.5-2.9-4.5-2.9c-2.6,0-4.6,2-4.9,4.5C22.8,71.7,23.3,72.1,23.5,72.7z"/>
	<path class="st0" d="M29.4,74.2c-0.6,0.6-1.4,0.9-2.3,0.9s-1.7-0.4-2.3-0.9h-1c0,0.3-0.1,0.6-0.2,0.9c0.9,0.9,2.2,1.5,3.6,1.5
		c1.4,0,2.7-0.6,3.6-1.6c-0.1-0.3-0.1-0.6-0.2-0.8H29.4z"/>
	<path class="st0" d="M29.4,74.2h1.1c0-0.2,0-0.5,0-0.8s0-0.5,0-0.8h-0.2C30.2,73.3,29.8,73.8,29.4,74.2z"/>
	<path class="st0" d="M23.8,74.2h1c-0.4-0.4-0.7-0.9-0.9-1.5h-0.3c0.2,0.4,0.3,0.8,0.3,1.2C23.8,74,23.8,74.1,23.8,74.2z"/>
	<path class="st0" d="M31.9,72.7c0.1-0.3,0.1-0.6,0.1-1c0-0.7-0.2-1.4-0.4-2c-0.6,0.9-0.9,1.9-1,2.9H31.9z"/>
	<path class="st0" d="M30.7,75.1c0.2-0.3,0.4-0.5,0.6-0.8h-0.8C30.6,74.5,30.6,74.8,30.7,75.1z"/>
	<path class="st0" d="M30.5,74.2h0.8c0.3-0.5,0.5-1,0.6-1.5h-1.4c0,0.2,0,0.5,0,0.8S30.5,74,30.5,74.2z"/>
	<path class="st0" d="M46,72.7c0.1-0.6,0.4-1.2,0.9-1.7c0.2-0.2,0.4-0.3,0.6-0.5c-0.2-1.1-1.2-1.9-2.4-1.9c-0.9,0-1.6,0.5-2.1,1.1
		c0.6,0.9,0.9,1.9,1.1,3H46z M45.1,70.1c0.5,0,1,0.4,1,1c0,0.5-0.4,1-1,1c-0.5,0-1-0.4-1-1C44.2,70.6,44.6,70.1,45.1,70.1z"/>
	<path class="st0" d="M45.1,73.6c0.3,0,0.5-0.1,0.8-0.1c0-0.2,0-0.5,0.1-0.7h-1.9c0,0.2,0,0.4,0,0.6C44.5,73.5,44.8,73.6,45.1,73.6z
		"/>
	<path class="st0" d="M43.3,72.7h0.8c-0.1-1.1-0.5-2.1-1.1-3c-0.2,0.4-0.4,0.8-0.4,1.3C42.7,71.7,42.9,72.3,43.3,72.7z"/>
	<path class="st0" d="M44.2,73.4c0-0.2,0-0.4,0-0.6h-0.8C43.5,73,43.8,73.2,44.2,73.4z"/>
	<path class="st0" d="M46,72.7h1c0.4-0.4,0.6-1,0.6-1.6c0-0.2,0-0.4-0.1-0.5c-0.2,0.1-0.4,0.3-0.6,0.5C46.4,71.5,46.1,72.1,46,72.7z
		"/>
	<path class="st0" d="M47,72.7h-1c-0.1,0.2-0.1,0.5-0.1,0.7C46.3,73.3,46.7,73.1,47,72.7z"/>
	<path class="st0" d="M20.9,72.5c0.3,0,0.5,0.1,0.7,0.2h0.7c-0.1-0.3-0.1-0.6-0.1-1c0-0.1,0-0.3,0-0.4c-0.4-0.2-0.9-0.3-1.3-0.3
		c-1.2,0-2.2,0.7-2.6,1.7h1.9C20.4,72.6,20.6,72.5,20.9,72.5z"/>
	<path class="st0" d="M23.5,75.1c-0.3-0.3-0.5-0.6-0.7-0.9h-0.6c-0.1,0.6-0.7,1.1-1.4,1.1s-1.2-0.5-1.4-1.1H18
		c0.1,1.2,1,2.2,2.1,2.5h1.6C22.5,76.5,23.2,75.9,23.5,75.1z"/>
	<path class="st0" d="M22.3,73.9c0,0.1,0,0.2,0,0.3h0.6c-0.3-0.5-0.5-1-0.6-1.5h-0.7C22,73,22.3,73.4,22.3,73.9z"/>
	<path class="st0" d="M18,74.2h1.5c0-0.1,0-0.2,0-0.3c0-0.5,0.3-0.9,0.7-1.2h-1.9c-0.2,0.4-0.3,0.8-0.3,1.2C18,74,18,74.1,18,74.2z"
		/>
	<path class="st0" d="M20.9,76.9c0.3,0,0.5-0.1,0.8-0.1h-1.6C20.4,76.8,20.6,76.9,20.9,76.9z"/>
	<path class="st0" d="M22.3,72.7h1.3c-0.3-0.6-0.7-1.1-1.3-1.4c0,0.1,0,0.3,0,0.4C22.2,72.1,22.2,72.4,22.3,72.7z"/>
	<path class="st0" d="M22.9,74.2c0.2,0.3,0.4,0.6,0.7,0.9c0.1-0.3,0.2-0.6,0.2-0.9H22.9z"/>
	<path class="st0" d="M23.8,74.2c0-0.1,0-0.2,0-0.3c0-0.4-0.1-0.8-0.3-1.2h-1.3c0.1,0.5,0.3,1,0.6,1.5H23.8z"/>
	<line class="st2" x1="25.4" y1="121.6" x2="31.2" y2="111.2"/>
	<line class="st2" x1="95.4" y1="121.6" x2="89.5" y2="111.2"/>
	<circle class="st2" cx="42.3" cy="58" r="2.4"/>
	<path class="st1" d="M123.4,117.2v-13.3h-27c-7.9,10.3-20.3,16.9-34.3,16.9h-3.5c-13.9,0-26.3-6.6-34.3-16.9H1.5v32.8h152.7v-32.8
		h-29.3v13.3H123.4z"/>
	<rect x="123.4" y="103.9" class="st0" width="1.5" height="13.3"/>
	<rect x="123.4" y="32.1" class="st0" width="1.5" height="70.3"/>
	<path class="st0" d="M16.8,78.2h-1.5c0.2,9,3.1,17.3,7.9,24.1h1.8C20,95.6,17,87.3,16.8,78.2z"/>
	<path class="st0" d="M58.6,120.8h3.5c13.9,0,26.3-6.6,34.3-16.9h-1.9c-7.7,9.4-19.3,15.4-32.3,15.4h-3.5c-13,0-24.7-6-32.3-15.4
		h-1.9C32.2,114.1,44.7,120.8,58.6,120.8z"/>
	<path class="st0" d="M95.7,102.4h1.8c5-7,7.9-15.6,7.9-24.9v-0.8H57.8v1.5h46.1C103.7,87.3,100.7,95.6,95.7,102.4z"/>
	<path class="st0" d="M123.4,103.9v-1.5H97.5c-0.4,0.5-0.7,1-1.1,1.5H123.4z"/>
	<path class="st0" d="M124.9,102.4v1.5h29.3v32.8H1.5v-32.8h22.8c-0.4-0.5-0.7-1-1.1-1.5H0v35.8h155.7v-35.8H124.9z"/>
	<rect x="123.4" y="102.4" class="st0" width="1.5" height="1.5"/>
	<path class="st0" d="M26.2,103.9c-0.4-0.5-0.8-1-1.2-1.5h-1.8c0.4,0.5,0.7,1,1.1,1.5H26.2z"/>
	<path class="st0" d="M94.5,103.9h1.9c0.4-0.5,0.7-1,1.1-1.5h-1.8C95.3,102.9,94.9,103.4,94.5,103.9z"/>
	<line class="st2" x1="0.8" y1="137.5" x2="0.8" y2="148.4"/>
	<line class="st2" x1="6.3" y1="137.5" x2="6.3" y2="148.4"/>
	<line class="st2" x1="11.8" y1="137.5" x2="11.8" y2="148.4"/>
	<line class="st2" x1="17.3" y1="137.5" x2="17.3" y2="148.4"/>
	<line class="st2" x1="22.8" y1="137.5" x2="22.8" y2="148.4"/>
	<line class="st2" x1="28.3" y1="137.5" x2="28.3" y2="148.4"/>
	<line class="st2" x1="33.8" y1="137.5" x2="33.8" y2="148.4"/>
	<line class="st2" x1="39.3" y1="137.5" x2="39.3" y2="148.4"/>
	<line class="st2" x1="44.8" y1="137.5" x2="44.8" y2="148.4"/>
	<line class="st2" x1="50.3" y1="137.5" x2="50.3" y2="148.4"/>
	<line class="st2" x1="55.8" y1="137.5" x2="55.8" y2="148.4"/>
	<line class="st2" x1="61.3" y1="137.5" x2="61.3" y2="148.4"/>
	<line class="st2" x1="66.8" y1="137.5" x2="66.8" y2="148.4"/>
	<line class="st2" x1="72.3" y1="137.5" x2="72.3" y2="148.4"/>
	<line class="st2" x1="77.8" y1="137.5" x2="77.8" y2="148.4"/>
	<line class="st2" x1="83.3" y1="137.5" x2="83.3" y2="148.4"/>
	<line class="st2" x1="88.8" y1="137.5" x2="88.8" y2="148.4"/>
	<line class="st2" x1="94.3" y1="137.5" x2="94.3" y2="148.4"/>
	<line class="st2" x1="99.8" y1="137.5" x2="99.8" y2="148.4"/>
	<line class="st2" x1="105.3" y1="137.5" x2="105.3" y2="148.4"/>
	<line class="st2" x1="110.8" y1="137.5" x2="110.8" y2="148.4"/>
	<line class="st2" x1="116.3" y1="137.5" x2="116.3" y2="148.4"/>
	<line class="st2" x1="121.8" y1="137.5" x2="121.8" y2="148.4"/>
	<line class="st2" x1="127.3" y1="137.5" x2="127.3" y2="148.4"/>
	<line class="st2" x1="132.8" y1="137.5" x2="132.8" y2="148.4"/>
	<line class="st2" x1="138.3" y1="137.5" x2="138.3" y2="148.4"/>
	<line class="st2" x1="143.8" y1="137.5" x2="143.8" y2="148.4"/>
	<line class="st2" x1="149.3" y1="137.5" x2="149.3" y2="148.4"/>
	<line class="st2" x1="154.8" y1="137.5" x2="154.8" y2="148.4"/>
</g>
</svg>
