<?xml version="1.0" encoding="utf-8"?>
<!-- Generator: Adobe Illustrator 21.0.0, SVG Export Plug-In . SVG Version: 6.00 Build 0)  -->
<svg version="1.1" id="Слой_1" xmlns="http://www.w3.org/2000/svg" xmlns:xlink="http://www.w3.org/1999/xlink" x="0px" y="0px"
	 viewBox="0 0 350 260" style="enable-background:new 0 0 350 260;" xml:space="preserve">
<style type="text/css">
	.st0{fill:#F3F3F3;}
	.st1{fill:#525252;}
	.st2{fill:#FF9B00;}
	.st3{fill:#FFFFFF;}
</style>
<path class="st0" d="M269.9,152.2c-3.1-7-7.4-13.8-14.1-17.4c-8.2-4.5-18.1-3.5-27.3-4.7c-11.8-1.5-23.1-6.7-31.9-14.7l-30.9-9.8
	l-9.7-13.4c-35.7-7-74-13.7-107.4,0.6c-15.5,6.7-26.2,17.8-35.1,31.6c-1.4,2-2.7,4.1-3.8,6.3c0,0,0,0,0,0l0,0
	c-3,5.8-5.2,12.2-6.8,18.3c-2,8.2-3.5,16.7-2.4,25.1c1.4,10.3,6.7,19.1,13.9,26.5c4.6-6.2,10.8-13.7,16.9-14.2c-0.2,0-0.4,0-0.6,0
	l0.6,0c0,0,0,0,0,0c40.5-2.8,81.1-3.7,121.7-2.8c13.5,0.3,26.9,0.8,40.3,2.4c5.5,0.7,11.1,1.5,16.1,3.8c5,2.3,9.5,6.3,11.4,11.5
	c2.8,7.8-0.9,16.4-4.9,23.7c-6.4,11.9-13.8,23.2-22.1,33.9c18.5,2,36-0.1,50.9-11.2C273.2,226.4,284.2,184.7,269.9,152.2z"/>
<ellipse class="st1" cx="285.6" cy="159.4" rx="1.1" ry="3.1"/>
<g>
	<path class="st1" d="M280,157.3c-0.2,0-0.5-0.1-0.6-0.4c-0.1-0.3,0-0.6,0.3-0.8l6.3-2.4c0.3-0.1,0.6,0,0.8,0.3
		c0.1,0.3,0,0.6-0.3,0.8l-6.3,2.4C280.2,157.3,280.1,157.3,280,157.3z"/>
</g>
<path class="st2" d="M155.6,92.3h5.5c3.5,0,6.5-1.8,8.2-4.5c5.7,2.5,13.6,3.4,22.6-2.5c10.7-7,3-5.3-2.6-10
	c-1.8-1.5-8.8-4.1-5.3-10.8c2-3.8,8.9-1.5,15,4.3c14.5,13.9,26.7,27.6,15.1,29.9c-11.5,2.3-11.5,2.3-11.5,2.3l13.7,14.3
	c-5.4,8-12.3,18.3-21.5,17.9c-5.2-0.2,10.9,37.4-19.6,44.3C144.6,184.4,155.6,92.3,155.6,92.3z"/>
<g>
	<path class="st1" d="M283,142.1c3.4-1-5.5-30.4-47.8,0.4c0,0-12,6.7-50.8,2.5s-88.9,60.6-29.8,88.4c3.7,1.7,18.8-15.3,32.1-24.8
		c13.3-9.5,26,2,26,2s9.3,39.1,42.3-9.3S279.6,143.1,283,142.1z"/>
	<path class="st2" d="M283,142.1c0,0-4.6,20.3,13.7,23.2c14.7,2.4-6.5,7-6.5,7s9.1,10.5,2.9,13.8c-6,3.1-9.9,6-28.3,6
		c-13.4,0,4.1-11.5-8.6-13.3c-4.1-0.6-10.6-14.5-5.8-16.4c2.1-0.8,4.6-0.3,6.2,1.3l1.6,1.6l-3-17C255.1,148.2,255.5,140.1,283,142.1
		z"/>
	<path class="st2" d="M259.8,187.5l-3.4,9.9c-0.9,2.5-2.2,4.8-3.8,6.9c-1.3,1.7-1.4,2.2-0.9,2.5l20.4,13.2c1.7,1.1,3.9,0,4.1-2
		l6.3-31.3L259.8,187.5z"/>
</g>
<g>
	<path class="st1" d="M164.8,144c-0.2,0-0.4-0.1-0.5-0.3c-0.2-0.3-0.1-0.6,0.2-0.8l8.8-5c0.3-0.2,0.6-0.1,0.8,0.2
		c0.2,0.3,0.1,0.6-0.2,0.8l-8.8,5C165,144,164.9,144,164.8,144z"/>
</g>
<path class="st2" d="M205.5,48h19.7c0,0,6,27.2,24.8,24.2c7.2-1.2,7.2,1,5.4,3.5c-2.5,3.4-6.6,5.2-10.8,5.2h-2.8
	C199.1,79.1,205.5,48,205.5,48z"/>
<path class="st1" d="M214.1,98.6c11.5-2.3-0.7-16-15.1-29.9c-6-5.8-13-8.1-15-4.3c-3.5,6.7,3.5,9.3,5.3,10.8c5.6,4.8,13.3,3,2.6,10
	c-9,5.9-16.8,5-22.6,2.5c1-1.7,1.6-3.7,1.4-5.8c-1.3-14.3,0.3-38.7,25.8-40.3c15.6-1,25.3-1.7,31.2-2.1c4.8-0.4,8.8,3.6,8.5,8.4
	h-10.9h-19.7c0,0-6.4,31.1,36.3,32.8c0,0,44.3,47.1-16.6,25.3c-2.4-0.9-5.3,3.6-9,9.1l-13.7-14.3
	C202.6,100.9,202.6,100.9,214.1,98.6z"/>
<g>
	<path class="st1" d="M222,59.3c-0.2,0-0.4-0.1-0.5-0.3c-0.2-0.3-0.1-0.6,0.2-0.8l8.8-5c0.3-0.2,0.6-0.1,0.8,0.2
		c0.2,0.3,0.1,0.6-0.2,0.8l-8.8,5C222.2,59.3,222.1,59.3,222,59.3z"/>
</g>
<ellipse class="st1" cx="230.8" cy="62.5" rx="1.1" ry="3.1"/>
<g>
	<path class="st1" d="M273.6,156.5c-0.2,0-0.5-0.1-0.6-0.4c-0.1-0.3,0-0.6,0.3-0.8l6.3-2.4c0.3-0.1,0.6,0,0.8,0.3
		c0.1,0.3,0,0.6-0.3,0.8l-6.3,2.4C273.8,156.5,273.7,156.5,273.6,156.5z"/>
</g>
<ellipse class="st1" cx="278.5" cy="159.4" rx="1.1" ry="3.1"/>
<g>
	<path class="st1" d="M285.3,177.4c-2.3,0-4.6-0.7-6.5-2c-0.3-0.2-0.3-0.6-0.2-0.8c0.2-0.3,0.6-0.3,0.8-0.2c3.4,2.3,8.3,2.3,11.7,0
		c0.3-0.2,0.6-0.1,0.8,0.2c0.2,0.3,0.1,0.6-0.2,0.8C289.9,176.8,287.6,177.4,285.3,177.4z"/>
</g>
<path class="st3" d="M30.7,186.4c0.2,0,0.4,0,0.6,0c0,0,0,0,0,0L30.7,186.4z"/>
<path class="st3" d="M220.7,201.2c-1.8-5.2-6.3-9.2-11.4-11.5c-5-2.3-10.6-3.2-16.1-3.8c-13.4-1.6-26.8-2.1-40.3-2.4
	c-40.6-0.9-81.2,0.1-121.7,2.8c-6.1,0.5-12.4,8-16.9,14.2c8.7,8.8,20.2,15.6,31.7,20.5c21.7,9.2,44.9,14.5,68.1,19.1
	c25.6,5.1,53.6,15.9,79.6,18.7c8.2-10.7,15.6-22.1,22.1-33.9C219.8,217.6,223.5,209.1,220.7,201.2z"/>
<g>
	<polygon class="st2" points="129,210.3 148.5,180.7 122.9,177.9 119.9,203.1 	"/>
	<path class="st1" d="M122,153.8c-7.9-2.8-11-16.6-2.3-18.3c13.3-2.7,10.9,13.6,13.5,17.1c1.9,2.5,6.7,0.6,6.5-2.4V112
		c0-2.3,5.6-3.2,5.9,0c1.5,14.1,11.7,19.2,26,18.9c-1-4.9-3.4-9.8-6.4-13.6c-15.2-19.1-43.3-8.5-54.2,1.2
		c-11.4,10.1-7.9,20.6-7.9,35.7v9.2l13.7-0.7C122.6,161.1,123.8,154.4,122,153.8z"/>
	<path class="st2" d="M181.9,162.7c-1.8-0.9-6.8-2.8-6.8-2.8c-2.9-1.2-4.8-4-4.8-7.1c0,0,0.3-6.9,1.6-13.7c0.5-2.5,0.3-5.3-0.3-8.1
		c-14.3,0.2-24.5-4.8-26-18.9c-0.3-3.2-5.9-2.3-5.9,0v38.1c0.2,3.1-4.6,5-6.5,2.4c-2.6-3.5-0.1-19.8-13.5-17.1
		c-8.7,1.7-5.5,15.5,2.3,18.3c1.8,0.6,0.5,7.3-5.2,9l-13.7,0.7v8.1l-12.6,16.8c38.3,51.4,46.2,13.6,46.2,13.6s-24.2-13,13.3-14.9
		c28.2-1.4,23.4-19.6,23.4-19.6s5.5-0.5,7.9-0.7C183.7,166.7,183.7,163.6,181.9,162.7z"/>
</g>
<g>
	<path class="st1" d="M157.8,144c-0.2,0-0.4-0.1-0.5-0.3c-0.2-0.3-0.1-0.6,0.2-0.8l8.8-5c0.3-0.2,0.6-0.1,0.8,0.2
		c0.2,0.3,0.1,0.6-0.2,0.8l-8.8,5C158,144,157.9,144,157.8,144z"/>
</g>
<ellipse class="st1" cx="164.2" cy="147.3" rx="1.1" ry="3.1"/>
<g>
	<path class="st1" d="M168.1,172.2c-0.5,0-0.9,0-1.4-0.1c-2.6-0.3-5-1.1-7.2-1.9c-0.3-0.1-0.5-0.4-0.4-0.8c0.1-0.3,0.5-0.5,0.8-0.4
		c2.1,0.8,4.5,1.6,6.9,1.9c2.6,0.3,4.9-0.2,6.6-1.4c0.3-0.2,0.6-0.1,0.8,0.2c0.2,0.3,0.1,0.6-0.2,0.8
		C172.5,171.7,170.4,172.2,168.1,172.2z"/>
</g>
<g>
	<path class="st3" d="M243.4,89.4c-0.5,0-1,0-1.5-0.1c-2.6-0.3-5.1-1.2-7.2-1.9c-0.4-0.1-0.6-0.6-0.5-1c0.1-0.4,0.6-0.6,1-0.5
		c2.1,0.8,4.5,1.6,6.9,1.8c2.5,0.3,4.8-0.2,6.5-1.4c0.4-0.2,0.8-0.2,1.1,0.2c0.2,0.4,0.2,0.8-0.2,1.1
		C247.8,88.8,245.7,89.4,243.4,89.4z"/>
</g>
<path class="st2" d="M231.7,131.6c-1.2,0-2.1,1.3-2.1,2.4c0-1.2-0.9-2.4-2.1-2.4c-0.2,0-0.4,0-0.6,0.1c-1.1,0.4-1.6,1.7-1,2.8
	l3.6,4.2l3.8-4.1c0.7-1.2,0-2.8-1.4-2.9C231.9,131.6,231.8,131.6,231.7,131.6z"/>
<path class="st2" d="M316.4,119.4c-1.7,0-3.2,2-3.2,3.7c0-1.7-1.4-3.7-3.2-3.7c-0.3,0-0.6,0.1-0.9,0.1c-1.7,0.5-2.4,2.6-1.6,4.2
	l5.5,6.3l5.8-6.2c1-1.8,0-4.2-2.1-4.4C316.7,119.4,316.5,119.4,316.4,119.4z"/>
<path class="st2" d="M72.2,149.1c-2.7,0-4.9,3-4.9,5.7c0-2.7-2.2-5.7-4.9-5.7c-0.5,0-1,0.1-1.5,0.2c-2.6,0.8-3.8,4-2.4,6.4l8.4,9.7
	l9-9.6c1.6-2.8-0.1-6.4-3.2-6.8C72.5,149.1,72.4,149.1,72.2,149.1z"/>
<path class="st2" d="M164.9,42.9c-1,0-1.8,1.1-1.8,2.2c0-1-0.8-2.2-1.8-2.2c-0.2,0-0.4,0-0.6,0.1c-1,0.3-1.4,1.5-0.9,2.4l0.5,0.9
	l2.7,2.8l2.9-2.8l0.5-0.9c0.6-1,0-2.4-1.2-2.6C165,42.9,165,42.9,164.9,42.9z"/>
<path class="st2" d="M269.6,115c-0.6,0-1.1,0.7-1.1,1.3c0-0.6-0.5-1.3-1.1-1.3c-0.1,0-0.2,0-0.3,0c-0.6,0.2-0.8,0.9-0.5,1.4l1.9,2.1
	l2-2.1c0.4-0.6,0-1.4-0.7-1.5C269.7,115,269.6,115,269.6,115z"/>
<path class="st2" d="M304.7,100.5c-3.1,0-5.6,3.5-5.6,6.6c0-3.1-2.5-6.6-5.6-6.6c-0.6,0-1.2,0.1-1.7,0.3c-3,1-4.3,4.6-2.8,7.4
	l9.7,11.2l10.3-11c1.8-3.2-0.1-7.4-3.7-7.8C305.1,100.6,304.9,100.5,304.7,100.5z"/>
<g>
	<path class="st0" d="M264.9,5.7h-23.4c-1.3,0-2.4-1.1-2.4-2.4s1.1-2.4,2.4-2.4h23.4c1.3,0,2.4,1.1,2.4,2.4S266.2,5.7,264.9,5.7z"/>
</g>
<g>
	<path class="st0" d="M299.5,23.2h-23.4c-1.3,0-2.4-1.1-2.4-2.4s1.1-2.4,2.4-2.4h23.4c1.3,0,2.4,1.1,2.4,2.4S300.8,23.2,299.5,23.2z
		"/>
</g>
<g>
	<path class="st0" d="M274.6,14.1h-26.5c-1.3,0-2.4-1.1-2.4-2.4s1.1-2.4,2.4-2.4h26.5c1.3,0,2.4,1.1,2.4,2.4S275.9,14.1,274.6,14.1z
		"/>
</g>
<g>
	<path class="st0" d="M291.1,14.1h-6.7c-1.3,0-2.4-1.1-2.4-2.4s1.1-2.4,2.4-2.4h6.7c1.3,0,2.4,1.1,2.4,2.4S292.4,14.1,291.1,14.1z"
		/>
</g>
<g>
	<path class="st0" d="M307.3,14.1h-6.7c-1.3,0-2.4-1.1-2.4-2.4s1.1-2.4,2.4-2.4h6.7c1.3,0,2.4,1.1,2.4,2.4S308.6,14.1,307.3,14.1z"
		/>
</g>
<g>
	<path class="st0" d="M67.3,236.2H43.9c-1.3,0-2.4-1.1-2.4-2.4s1.1-2.4,2.4-2.4h23.4c1.3,0,2.4,1.1,2.4,2.4S68.6,236.2,67.3,236.2z"
		/>
</g>
<g>
	<path class="st0" d="M77,244.6H50.5c-1.3,0-2.4-1.1-2.4-2.4s1.1-2.4,2.4-2.4H77c1.3,0,2.4,1.1,2.4,2.4S78.3,244.6,77,244.6z"/>
</g>
<g>
	<path class="st0" d="M93.5,243.3h-6.7c-1.3,0-2.4-1.1-2.4-2.4s1.1-2.4,2.4-2.4h6.7c1.3,0,2.4,1.1,2.4,2.4S94.8,243.3,93.5,243.3z"
		/>
</g>
<g>
	<path class="st0" d="M347.6,151.1h-23.4c-1.3,0-2.4-1.1-2.4-2.4s1.1-2.4,2.4-2.4h23.4c1.3,0,2.4,1.1,2.4,2.4
		S348.9,151.1,347.6,151.1z"/>
</g>
<g>
	<path class="st0" d="M322.8,142.1h-26.5c-1.3,0-2.4-1.1-2.4-2.4s1.1-2.4,2.4-2.4h26.5c1.3,0,2.4,1.1,2.4,2.4
		S324.1,142.1,322.8,142.1z"/>
</g>
<g>
	<path class="st0" d="M339.3,142.1h-6.7c-1.3,0-2.4-1.1-2.4-2.4s1.1-2.4,2.4-2.4h6.7c1.3,0,2.4,1.1,2.4,2.4S340.6,142.1,339.3,142.1
		z"/>
</g>
<g>
	<path class="st0" d="M109.7,243.3H103c-1.3,0-2.4-1.1-2.4-2.4s1.1-2.4,2.4-2.4h6.7c1.3,0,2.4,1.1,2.4,2.4S111,243.3,109.7,243.3z"
		/>
</g>
</svg>
