<?xml version="1.0" encoding="utf-8"?>
<!-- Generator: Adobe Illustrator 21.0.0, SVG Export Plug-In . SVG Version: 6.00 Build 0)  -->
<svg version="1.1" id="Слой_1" xmlns="http://www.w3.org/2000/svg" xmlns:xlink="http://www.w3.org/1999/xlink" x="0px" y="0px"
	 viewBox="0 0 50.8 54.5" style="enable-background:new 0 0 50.8 54.5;" xml:space="preserve">
<style type="text/css">
	.st0{fill:#FDB341;}
</style>
<polygon class="st0" points="4.8,38.8 4.8,5.4 45.9,5.4 45.9,38.8 40.8,38.8 40.8,39.8 46.9,39.8 46.9,4.4 3.8,4.4 3.8,39.8 
	27.5,39.8 27.5,38.8 "/>
<polygon class="st0" points="50.8,0 0,0 0,44.2 27.5,44.2 27.5,43.2 1,43.2 1,1 49.8,1 49.8,43.2 40.8,43.2 40.8,44.2 50.8,44.2 "/>
<rect x="7.9" y="14" class="st0" width="19.2" height="1"/>
<rect x="7.9" y="26.8" class="st0" width="13.6" height="1"/>
<rect x="7.9" y="20.4" class="st0" width="10.4" height="1"/>
<rect x="27.5" y="39.8" class="st0" width="1" height="3.4"/>
<path class="st0" d="M27.5,34.1v4.7h1v-3C28.1,35.2,27.8,34.7,27.5,34.1z"/>
<path class="st0" d="M40.8,34.1c-0.3,0.6-0.6,1.2-1,1.7v3h1V34.1z"/>
<polygon class="st0" points="39.8,52.4 34.2,48 28.5,52.4 28.5,44.2 27.5,44.2 27.5,54.5 34.2,49.2 40.8,54.5 40.8,44.2 39.8,44.2 
	"/>
<rect x="39.8" y="39.8" class="st0" width="1" height="3.4"/>
<rect x="27.5" y="38.8" class="st0" width="1" height="1"/>
<rect x="39.8" y="38.8" class="st0" width="1" height="1"/>
<rect x="39.8" y="43.2" class="st0" width="1" height="1"/>
<rect x="27.5" y="43.2" class="st0" width="1" height="1"/>
<path class="st0" d="M39.4,34.6c-1.1,1.7-3,2.9-5.2,2.9s-4.1-1.1-5.2-2.9h-0.4v1.1c1.3,1.7,3.4,2.7,5.7,2.7s4.3-1.1,5.7-2.7v-1.1
	H39.4z"/>
<path class="st0" d="M34.2,24c-4,0-7.2,3.2-7.2,7.2c0,1,0.2,2,0.6,2.8v-0.5h0.9C28.2,32.8,28,32,28,31.1c0-3.4,2.8-6.2,6.2-6.2
	s6.2,2.8,6.2,6.2c0,0.8-0.2,1.6-0.5,2.4h0.9V34c0.4-0.9,0.6-1.8,0.6-2.8C41.4,27.3,38.1,24,34.2,24z"/>
<path class="st0" d="M28.9,34.6c-0.2-0.3-0.4-0.6-0.5-1h-0.9v0.5c0.3,0.6,0.6,1.2,1,1.7v-1.1h0.4V34.6z"/>
<path class="st0" d="M39.9,33.6c-0.1,0.4-0.3,0.7-0.5,1h0.4v1.1c0.4-0.5,0.7-1.1,1-1.7v-0.5h-0.9V33.6z"/>
<rect x="31.9" y="20.4" class="st0" width="9.7" height="1"/>
<rect x="19.9" y="20.4" class="st0" width="4.1" height="1"/>
<rect x="25.5" y="20.4" class="st0" width="4.1" height="1"/>
<rect x="29.5" y="13.9" class="st0" width="4.1" height="1"/>
<rect x="35.3" y="13.9" class="st0" width="6.1" height="1"/>
</svg>
