<?xml version="1.0" encoding="utf-8"?>
<!-- Generator: Adobe Illustrator 21.0.0, SVG Export Plug-In . SVG Version: 6.00 Build 0)  -->
<svg version="1.1" id="Слой_1" xmlns="http://www.w3.org/2000/svg" xmlns:xlink="http://www.w3.org/1999/xlink" x="0px" y="0px"
	 viewBox="0 0 49.6 47.5" style="enable-background:new 0 0 49.6 47.5;" xml:space="preserve">
<style type="text/css">
	.st0{fill:none;stroke:#FDB341;stroke-miterlimit:10;}
	.st1{fill:#FDB341;}
</style>
<path class="st0" d="M20.4,1.1C14.6,1.1,10,5.8,10,11.5h20.9C30.9,5.7,26.2,1.1,20.4,1.1z"/>
<line class="st0" x1="30.9" y1="11.5" x2="36.8" y2="11.5"/>
<path class="st1" d="M49.6,23.4v-8.2H30.3v0.5c0,3-2.5,5.5-5.5,5.5s-5.5-2.5-5.5-5.5v-0.5H0v8.2h11.1v24.1h27.4v-6.6h-1v5.6H12.1
	V22.4H1v-6.2h17.4c0.3,3.3,3,6,6.4,6s6.2-2.6,6.4-6h17.4v6.2H37.5v6.8h1v-5.8C38.5,23.4,49.6,23.4,49.6,23.4z"/>
<polygon class="st1" points="26.4,38.5 29.8,38.5 29.8,37.5 27.4,37.5 27.4,30.2 37.5,30.2 37.5,29.2 26.4,29.2 "/>
<polygon class="st1" points="41.8,30.2 41.8,31.5 42.8,31.5 42.8,29.2 38.5,29.2 38.5,30.2 "/>
<rect x="37.5" y="29.2" class="st1" width="1" height="1"/>
<polygon class="st1" points="30.8,32.5 37.5,32.5 37.5,31.5 29.8,31.5 29.8,37.5 30.8,37.5 "/>
<rect x="38.5" y="31.5" class="st1" width="3.3" height="1"/>
<polygon class="st1" points="45.2,32.5 45.2,39.9 38.5,39.9 38.5,40.9 46.2,40.9 46.2,31.5 42.8,31.5 42.8,32.5 "/>
<polygon class="st1" points="30.8,39.9 30.8,38.5 29.8,38.5 29.8,40.9 37.5,40.9 37.5,39.9 "/>
<rect x="37.5" y="39.9" class="st1" width="1" height="1"/>
<rect x="37.5" y="31.5" class="st1" width="1" height="1"/>
<rect x="41.8" y="31.5" class="st1" width="1" height="1"/>
<rect x="29.8" y="37.5" class="st1" width="1" height="1"/>
<rect x="32.7" y="34.4" class="st1" width="4.8" height="1"/>
<rect x="37.5" y="34.4" class="st1" width="0.4" height="1"/>
<rect x="42.8" y="36.6" class="st1" width="0.5" height="1"/>
<rect x="32.7" y="36.6" class="st1" width="4.8" height="0.9"/>
<rect x="38.5" y="36.6" class="st1" width="3.3" height="0.9"/>
<rect x="37.5" y="36.6" class="st1" width="1" height="0.9"/>
<rect x="32.7" y="37.5" class="st1" width="4.8" height="0.1"/>
<polygon class="st1" points="38.5,37.5 38.5,37.6 42.8,37.6 42.8,36.6 41.8,36.6 41.8,37.5 "/>
<rect x="37.5" y="37.5" class="st1" width="1" height="0.1"/>
</svg>
