<?xml version="1.0" encoding="utf-8"?>
<!-- Generator: Adobe Illustrator 21.0.0, SVG Export Plug-In . SVG Version: 6.00 Build 0)  -->
<svg version="1.1" id="Слой_1" xmlns="http://www.w3.org/2000/svg" xmlns:xlink="http://www.w3.org/1999/xlink" x="0px" y="0px"
	 viewBox="0 0 61.1 47.5" style="enable-background:new 0 0 61.1 47.5;" xml:space="preserve">
<style type="text/css">
	.st0{fill:#FDB341;}
</style>
<g>
	<path class="st0" d="M1,33v-1.1c-0.6-0.6-1-1.2-1-1.9v4.9C0,34.2,0.4,33.6,1,33z"/>
	<path class="st0" d="M1,23.1V22c-0.6-0.6-1-1.2-1-1.9V25C0,24.4,0.4,23.7,1,23.1z"/>
	<path class="st0" d="M1,18.2v-1.1c-0.6-0.6-1-1.2-1-1.9v4.9C0,19.4,0.4,18.8,1,18.2z"/>
	<path class="st0" d="M1,28.1V27c-0.6-0.6-1-1.2-1-1.9V30C0,29.3,0.4,28.7,1,28.1z"/>
	<path class="st0" d="M1.2,35.5H0.1c0.4,1.7,2.9,2.9,6.2,3.7v-1C3.5,37.5,1.7,36.5,1.2,35.5z"/>
	<path class="st0" d="M1,34.9c0-0.2,0-0.5,0-0.5V33c-0.6,0.6-1,1.2-1,1.9c0,0.2,0,0.4,0.1,0.5h1.1C1.1,35.3,1,35.1,1,34.9z"/>
	<path class="st0" d="M9.5,33.9c-2.3-0.3-4.2-0.8-5.6-1.4c-0.5,0.2-0.9,0.4-1.2,0.6c1.2,0.6,2.7,1.1,4.4,1.4h1.2
		C8.7,34.3,9.1,34.1,9.5,33.9z"/>
	<path class="st0" d="M2.7,31.9C1.6,31.3,1,30.6,1,30v1.9c0.2,0.2,0.4,0.4,0.7,0.5C2,32.3,2.3,32.1,2.7,31.9z"/>
	<path class="st0" d="M1,31.9V30v-1.9c-0.6,0.6-1,1.2-1,1.9S0.4,31.4,1,31.9z"/>
	<path class="st0" d="M7.1,34.5c0.3,0.1,0.6,0.1,0.9,0.2c0.1-0.1,0.2-0.1,0.3-0.2H7.1z"/>
	<path class="st0" d="M2.7,31.9c-0.4,0.2-0.7,0.4-1,0.6c0.3,0.2,0.6,0.4,1,0.6c0.4-0.2,0.8-0.4,1.2-0.6C3.5,32.3,3,32.1,2.7,31.9z"
		/>
	<path class="st0" d="M23.1,30c1.9-0.3,3.7-0.6,5.2-1.1v-1.1c-2.7,1-6.9,1.7-11.9,1.7c-5.4,0-9.8-0.8-12.5-1.9
		C3.4,27.8,3,28,2.7,28.2c1.8,0.9,4.3,1.5,7,1.9c2.1-0.3,4.4-0.5,6.7-0.5S21,29.7,23.1,30z"/>
	<path class="st0" d="M2.7,27C1.6,26.4,1,25.7,1,25.1V27c0.2,0.2,0.4,0.4,0.7,0.5C2,27.3,2.3,27.2,2.7,27z"/>
	<path class="st0" d="M1,27v-1.9v-1.9c-0.6,0.6-1,1.2-1,1.9C0,25.8,0.4,26.4,1,27z"/>
	<path class="st0" d="M23.1,30c-2.1-0.3-4.4-0.5-6.7-0.5s-4.5,0.2-6.7,0.5c2.1,0.3,4.4,0.5,6.7,0.5S21,30.3,23.1,30z"/>
	<path class="st0" d="M2.7,27c-0.4,0.2-0.7,0.4-1,0.6c0.3,0.2,0.6,0.4,1,0.6c0.4-0.2,0.8-0.4,1.2-0.6C3.5,27.4,3,27.2,2.7,27z"/>
	<path class="st0" d="M23.1,25.1c1.9-0.3,3.7-0.6,5.2-1.1v-1.1c-2.7,1-6.9,1.7-11.9,1.7c-5.4,0-9.8-0.8-12.5-1.9
		c-0.5,0.2-0.9,0.4-1.2,0.6c1.8,0.9,4.3,1.5,7,1.9c2.1-0.3,4.4-0.5,6.7-0.5S21,24.8,23.1,25.1z"/>
	<path class="st0" d="M2.7,22C1.6,21.4,1,20.7,1,20.1V22c0.2,0.2,0.4,0.4,0.7,0.5C2,22.4,2.3,22.2,2.7,22z"/>
	<path class="st0" d="M1,22.1v-1.9v-1.9c-0.6,0.6-1,1.2-1,1.9S0.4,21.5,1,22.1z"/>
	<path class="st0" d="M23.1,25.1c-2.1-0.3-4.4-0.5-6.7-0.5s-4.5,0.2-6.7,0.5c2.1,0.3,4.4,0.5,6.7,0.5S21,25.4,23.1,25.1z"/>
	<path class="st0" d="M2.7,22c-0.4,0.2-0.7,0.4-1,0.6c0.3,0.2,0.6,0.4,1,0.6c0.4-0.2,0.8-0.4,1.2-0.6C3.5,22.4,3,22.2,2.7,22z"/>
	<path class="st0" d="M23.1,20.2c1.9-0.3,3.7-0.6,5.2-1.1V18c-2.7,1-6.9,1.7-11.9,1.7c-5.4,0-9.8-0.8-12.5-1.9
		C3.4,18,3,18.2,2.7,18.4c1.8,0.9,4.3,1.5,7,1.9c2.1-0.3,4.4-0.5,6.7-0.5S21,19.9,23.1,20.2z"/>
	<path class="st0" d="M2.7,17.1c-0.8-0.4-1.3-0.9-1.5-1.4H1v1.4c0.2,0.2,0.4,0.4,0.7,0.5C2,17.5,2.3,17.3,2.7,17.1z"/>
	<path class="st0" d="M16.4,10.8c5,0,9.1,0.7,11.9,1.7v-1.1c-3.2-1-7.6-1.6-11.9-1.6c-7.6,0-15.5,1.7-16.3,4.9h1.1
		C2.1,12.8,8.1,10.8,16.4,10.8z"/>
	<path class="st0" d="M1,17.2v-1.4h0.2c-0.1-0.2-0.1-0.3-0.1-0.5s0.1-0.3,0.1-0.5H0.1C0.1,15,0,15.1,0,15.3C0,15.9,0.4,16.6,1,17.2z
		"/>
	<path class="st0" d="M23.1,20.2c-2.1-0.3-4.4-0.5-6.7-0.5s-4.5,0.2-6.7,0.5c2.1,0.3,4.4,0.5,6.7,0.5S21,20.5,23.1,20.2z"/>
	<path class="st0" d="M2.7,17.1c-0.4,0.2-0.7,0.4-1,0.6c0.3,0.2,0.6,0.4,1,0.6c0.4-0.2,0.8-0.4,1.2-0.6C3.5,17.5,3,17.3,2.7,17.1z"
		/>
	<path class="st0" d="M28.3,20.2v1.1c0.1,0,0.3,0.1,0.4,0.1C28.4,21,28.3,20.6,28.3,20.2z"/>
	<path class="st0" d="M60,22.1v1.1c0.6,0.6,1,1.2,1,1.9v-4.9C61,20.9,60.7,21.5,60,22.1z"/>
	<path class="st0" d="M60,31.9V33c0.6,0.6,1,1.2,1,1.9V30C61,30.7,60.7,31.4,60,31.9z"/>
	<path class="st0" d="M28.3,14.7c0.1-0.5,0.4-1,0.9-1.4v-0.4c-0.3-0.1-0.6-0.3-1-0.4L28.3,14.7L28.3,14.7z"/>
	<path class="st0" d="M28.3,17.4v0.5c0.2-0.1,0.4-0.2,0.7-0.3C28.7,17.6,28.5,17.5,28.3,17.4z"/>
	<path class="st0" d="M60,12.2v1.1c0.6,0.6,1,1.2,1,1.9v-4.9C61,11,60.7,11.7,60,12.2z"/>
	<path class="st0" d="M28.7,18.9c-0.1,0-0.3,0.1-0.4,0.1v1.1C28.3,19.7,28.4,19.3,28.7,18.9z"/>
	<path class="st0" d="M28.7,23.8c-0.1,0-0.3,0.1-0.4,0.1V25C28.3,24.6,28.4,24.2,28.7,23.8z"/>
	<path class="st0" d="M28.3,5.1v0.3C28.3,5.3,28.3,5.2,28.3,5.1L28.3,5.1z"/>
	<path class="st0" d="M28.3,30v1.1c0.1,0,0.3,0.1,0.4,0.1C28.4,30.9,28.3,30.5,28.3,30z"/>
	<path class="st0" d="M60,27v1.1c0.6,0.6,1,1.2,1,1.9v-4.9C61,25.8,60.7,26.4,60,27z"/>
	<path class="st0" d="M28.3,25.1v1.1c0.1,0,0.3,0.1,0.4,0.1C28.4,26,28.3,25.5,28.3,25.1z"/>
	<path class="st0" d="M28.3,27.3v0.5c0.2-0.1,0.4-0.2,0.7-0.3C28.7,27.5,28.5,27.4,28.3,27.3z"/>
	<path class="st0" d="M28.7,28.7c-0.1,0-0.3,0.1-0.4,0.1V30C28.3,29.6,28.4,29.1,28.7,28.7z"/>
	<path class="st0" d="M60,7.3v1.1c0.6,0.6,1,1.2,1,1.9V5.4C61,6.1,60.7,6.7,60,7.3z"/>
	<path class="st0" d="M28.3,22.4v0.5c0.2-0.1,0.4-0.2,0.7-0.3C28.7,22.5,28.5,22.4,28.3,22.4z"/>
	<path class="st0" d="M28.3,10.3v1.1c0.1,0,0.3,0.1,0.4,0.1C28.4,11.2,28.3,10.8,28.3,10.3z"/>
	<path class="st0" d="M29.3,8.4V7.3c-0.6-0.6-1-1.2-1-1.9v4.9C28.3,9.6,28.6,8.9,29.3,8.4z"/>
	<path class="st0" d="M60,17.2v1.1c0.6,0.6,1,1.2,1,1.9v-4.9C61,15.9,60.7,16.6,60,17.2z"/>
	<path class="st0" d="M28.7,16.5c-0.2-0.2-0.3-0.5-0.3-0.8h-0.1v0.6C28.4,16.4,28.5,16.5,28.7,16.5z"/>
	<path class="st0" d="M28.3,14.7v0.5C28.3,15.1,28.3,14.9,28.3,14.7L28.3,14.7z"/>
	<path class="st0" d="M28.3,15.2v0.5h0.1C28.3,15.6,28.3,15.4,28.3,15.2z"/>
	<path class="st0" d="M29.3,31.9c-0.2-0.2-0.4-0.4-0.6-0.7c-0.1,0-0.3-0.1-0.4-0.1v1c0.3,0,0.7,0.1,1,0.1V31.9z"/>
	<path class="st0" d="M29.3,27.4V27c-0.2-0.2-0.4-0.4-0.6-0.7c-0.1,0-0.3-0.1-0.4-0.1v1.1c0.2,0.1,0.4,0.2,0.7,0.3
		C29,27.5,29.2,27.5,29.3,27.4z"/>
	<path class="st0" d="M29.3,22.5v-0.4c-0.2-0.2-0.4-0.4-0.6-0.7c-0.1,0-0.3-0.1-0.4-0.1v1.1c0.2,0.1,0.4,0.2,0.7,0.3
		C29,22.6,29.2,22.5,29.3,22.5z"/>
	<path class="st0" d="M29.3,28.1v-0.4c-0.1,0-0.2-0.1-0.3-0.1c-0.2,0.1-0.4,0.2-0.7,0.3V29c0.1,0,0.3-0.1,0.4-0.1
		C28.8,28.5,29,28.3,29.3,28.1z"/>
	<path class="st0" d="M28.9,27.5c0.1,0,0.2,0.1,0.3,0.1v-0.3C29.2,27.5,29,27.5,28.9,27.5z"/>
	<path class="st0" d="M29.3,23.1v-0.4c-0.1,0-0.2-0.1-0.3-0.1c-0.2,0.1-0.4,0.2-0.7,0.3V24c0.1,0,0.3-0.1,0.4-0.1
		C28.8,23.6,29,23.4,29.3,23.1z"/>
	<path class="st0" d="M29.3,17.5v-0.4c-0.2-0.2-0.4-0.4-0.6-0.7c-0.1,0-0.3-0.1-0.4-0.1v1.1c0.2,0.1,0.4,0.2,0.7,0.3
		C29,17.6,29.2,17.6,29.3,17.5z"/>
	<path class="st0" d="M28.9,22.6c0.1,0,0.2,0.1,0.3,0.1v-0.3C29.2,22.5,29,22.6,28.9,22.6z"/>
	<path class="st0" d="M29.3,18.2v-0.4c-0.1,0-0.2-0.1-0.3-0.1c-0.2,0.1-0.4,0.2-0.7,0.3v1c0.1,0,0.3-0.1,0.4-0.1
		C28.8,18.6,29,18.4,29.3,18.2z"/>
	<path class="st0" d="M29.3,12.9v-0.7c-0.2-0.2-0.4-0.4-0.6-0.7c-0.1,0-0.3-0.1-0.4-0.1v1.1C28.6,12.6,29,12.8,29.3,12.9z"/>
	<path class="st0" d="M28.9,17.7c0.1,0,0.2,0.1,0.3,0.1v-0.3C29.2,17.6,29,17.6,28.9,17.7z"/>
	<path class="st0" d="M44.7,39.3c-2,0-3.9-0.1-5.6-0.3v1c1.8,0.2,3.7,0.3,5.6,0.3c7.6,0,15.5-1.7,16.3-4.9h-1.1
		C59,37.4,53,39.3,44.7,39.3z"/>
	<path class="st0" d="M60,33v1.4c0,0,0,0.3,0,0.5s-0.1,0.3-0.1,0.5H61c0-0.2,0.1-0.3,0.1-0.5C61,34.2,60.7,33.6,60,33z"/>
	<path class="st0" d="M58.4,31.9c0.4,0.2,0.7,0.4,1,0.6c0.3-0.2,0.5-0.3,0.7-0.5v-2C60,30.6,59.4,31.3,58.4,31.9z"/>
	<path class="st0" d="M31.8,32.7L31.8,32.7C31.8,32.6,31.7,32.6,31.8,32.7C31.7,32.7,31.8,32.7,31.8,32.7z"/>
	<path class="st0" d="M29.3,30v1.5c0.3,0.1,0.6,0.3,0.9,0.4c0.1-0.1,0.3-0.2,0.4-0.2C29.7,31.1,29.3,30.6,29.3,30z"/>
	<path class="st0" d="M44.7,34.4c-5,0-9.1-0.7-11.9-1.7v0.2c1.7,0.4,3.1,0.9,4.2,1.5h17.2c1.6-0.4,3.1-0.8,4.2-1.4
		c-0.4-0.2-0.8-0.4-1.2-0.6C54.5,33.6,50,34.4,44.7,34.4z"/>
	<path class="st0" d="M31.8,32.6L31.8,32.6c0.3,0.1,0.7,0.2,1,0.3v-0.2c-0.2-0.1-0.4-0.2-0.7-0.3C32,32.5,31.9,32.6,31.8,32.6z"/>
	<path class="st0" d="M30.1,31.9c-0.3-0.1-0.6-0.3-0.9-0.4v0.4c0.1,0.1,0.2,0.2,0.3,0.2C29.8,32.1,29.9,32,30.1,31.9z"/>
	<path class="st0" d="M30.1,31.9c0.1,0.1,0.3,0.1,0.4,0.2c0.1-0.1,0.3-0.1,0.4-0.2c-0.1-0.1-0.3-0.2-0.4-0.2S30.3,31.8,30.1,31.9z"
		/>
	<path class="st0" d="M30.5,32.1c-0.1-0.1-0.3-0.1-0.4-0.2c-0.2,0.1-0.4,0.2-0.6,0.3l0.1,0.1c0.2,0,0.3,0,0.5,0.1
		C30.3,32.3,30.4,32.2,30.5,32.1z"/>
	<path class="st0" d="M37.7,34.9c2.2,0.3,4.6,0.5,7,0.5c3.3,0,6.7-0.3,9.5-1H37C37.2,34.6,37.5,34.7,37.7,34.9z"/>
	<path class="st0" d="M29.3,30v-1.5c-0.2,0.1-0.4,0.2-0.6,0.2c-0.3,0.4-0.4,0.8-0.4,1.3s0.1,0.9,0.4,1.3c0.2,0.1,0.4,0.2,0.6,0.2V30
		z"/>
	<path class="st0" d="M60,28.1V30v1.9c0.6-0.6,1-1.2,1-1.9S60.7,28.7,60,28.1z"/>
	<path class="st0" d="M28.7,31.3c0.2,0.2,0.4,0.4,0.6,0.7v-0.4C29.1,31.4,28.9,31.4,28.7,31.3z"/>
	<path class="st0" d="M29.3,28.1c-0.2,0.2-0.4,0.4-0.6,0.7c0.2-0.1,0.4-0.2,0.6-0.2V28.1z"/>
	<path class="st0" d="M31.1,32.5L31.1,32.5c0.3,0.1,0.4,0.2,0.6,0.2h0.1v-0.3c-0.1,0-0.2-0.1-0.3-0.1S31.3,32.4,31.1,32.5z"/>
	<path class="st0" d="M58.4,33c0.4-0.2,0.7-0.4,1-0.6c-0.3-0.2-0.6-0.4-1-0.6c-0.4,0.2-0.8,0.4-1.2,0.6C57.6,32.7,58,32.8,58.4,33z"
		/>
	<path class="st0" d="M32.1,32.5c-0.1,0-0.2-0.1-0.3-0.1v0.3C31.9,32.6,32,32.5,32.1,32.5z"/>
	<path class="st0" d="M31.2,32.6L31.2,32.6c-0.1-0.1-0.1-0.1-0.2-0.1C31.1,32.5,31.2,32.5,31.2,32.6z"/>
	<path class="st0" d="M31.1,32.5c0.1-0.1,0.3-0.2,0.4-0.3c-0.2-0.1-0.4-0.2-0.6-0.3c-0.1,0.1-0.3,0.1-0.4,0.2
		C30.7,32.2,30.9,32.3,31.1,32.5z"/>
	<path class="st0" d="M30.1,32.4c0.3,0.1,0.6,0.1,0.9,0.2c0,0,0,0,0.1,0c-0.2-0.1-0.4-0.3-0.6-0.4C30.4,32.2,30.3,32.3,30.1,32.4z"
		/>
	<path class="st0" d="M44.7,29.5c-5,0-9.1-0.7-11.9-1.7v1.1c1.5,0.5,3.3,0.9,5.2,1.1C40.1,29.7,42.4,29.6,44.7,29.5
		c2.3,0.1,4.5,0.2,6.7,0.5c2.8-0.4,5.3-1,7-1.9c-0.4-0.2-0.8-0.4-1.2-0.6C54.5,28.6,50,29.5,44.7,29.5z"/>
	<path class="st0" d="M29.3,25.1v1.5c0.3,0.1,0.6,0.3,0.9,0.4c0.1-0.1,0.3-0.2,0.4-0.2C29.7,26.2,29.3,25.6,29.3,25.1z"/>
	<path class="st0" d="M58.4,27c0.4,0.2,0.7,0.4,1,0.6c0.3-0.2,0.5-0.3,0.7-0.5v-1.9C60,25.7,59.4,26.4,58.4,27z"/>
	<path class="st0" d="M31.8,28.1v-0.4c-0.1,0-0.2,0.1-0.3,0.1C31.6,27.9,31.7,28,31.8,28.1z"/>
	<path class="st0" d="M31.8,27.7v0.4c0.2,0.2,0.4,0.4,0.6,0.7c0.1,0,0.3,0.1,0.4,0.1v-1.1c-0.2-0.1-0.4-0.2-0.7-0.3
		C32,27.6,31.9,27.6,31.8,27.7z"/>
	<path class="st0" d="M30.1,27c-0.3-0.1-0.6-0.3-0.9-0.4V27c0.1,0.1,0.2,0.2,0.3,0.2C29.8,27.2,29.9,27.1,30.1,27z"/>
	<path class="st0" d="M30.9,28.1c0.3,0.1,0.6,0.3,0.9,0.4v-0.4c-0.1-0.1-0.2-0.2-0.3-0.2C31.3,27.9,31.1,28,30.9,28.1z"/>
	<path class="st0" d="M32.4,28.7c-0.2-0.2-0.4-0.4-0.6-0.7v0.4C32,28.6,32.2,28.7,32.4,28.7z"/>
	<path class="st0" d="M30.1,27c0.1,0.1,0.3,0.1,0.4,0.2c0.1-0.1,0.3-0.1,0.4-0.2c-0.1-0.1-0.3-0.2-0.4-0.2S30.3,26.9,30.1,27z"/>
	<path class="st0" d="M30.1,27c-0.2,0.1-0.4,0.2-0.6,0.3c0.1,0.1,0.3,0.2,0.4,0.3c0.2-0.1,0.4-0.3,0.6-0.4
		C30.4,27.1,30.3,27,30.1,27z"/>
	<path class="st0" d="M29.3,25.1v-1.5c-0.2,0.1-0.4,0.2-0.6,0.2c-0.3,0.4-0.4,0.8-0.4,1.3s0.1,0.9,0.4,1.3c0.2,0.1,0.4,0.2,0.6,0.2
		V25.1z"/>
	<path class="st0" d="M60,23.1V25v2c0.6-0.6,1-1.2,1-1.9S60.7,23.7,60,23.1z"/>
	<path class="st0" d="M28.7,26.4c0.2,0.2,0.4,0.4,0.6,0.7v-0.4C29.1,26.5,28.9,26.4,28.7,26.4z"/>
	<path class="st0" d="M29.3,23.1c-0.2,0.2-0.4,0.4-0.6,0.7c0.2-0.1,0.4-0.2,0.6-0.2V23.1z"/>
	<path class="st0" d="M38,30c2.1,0.3,4.4,0.5,6.7,0.5s4.5-0.2,6.7-0.5c-2.1-0.3-4.4-0.5-6.7-0.5S40.1,29.7,38,30z"/>
	<path class="st0" d="M31.1,27.5c0.1,0.1,0.3,0.2,0.4,0.3c0.1,0,0.2-0.1,0.3-0.1v-0.3c-0.1,0-0.2-0.1-0.3-0.1
		C31.4,27.4,31.3,27.5,31.1,27.5z"/>
	<path class="st0" d="M58.4,28.1c0.4-0.2,0.7-0.4,1-0.6c-0.3-0.2-0.6-0.4-1-0.6c-0.4,0.2-0.8,0.4-1.2,0.6
		C57.6,27.7,58,27.9,58.4,28.1z"/>
	<path class="st0" d="M32.2,27.5c-0.1,0-0.2-0.1-0.3-0.1v0.3C31.9,27.6,32,27.6,32.2,27.5z"/>
	<path class="st0" d="M30.9,28.1c0.2-0.1,0.4-0.2,0.6-0.3c-0.1-0.1-0.3-0.2-0.4-0.3c-0.2,0.1-0.4,0.3-0.6,0.4
		C30.7,28,30.8,28,30.9,28.1z"/>
	<path class="st0" d="M31.1,27.5c0.1-0.1,0.3-0.2,0.4-0.3c-0.2-0.1-0.4-0.2-0.6-0.3c-0.1,0.1-0.3,0.1-0.4,0.2
		C30.7,27.3,30.9,27.4,31.1,27.5z"/>
	<path class="st0" d="M29.9,27.5c0.2,0.1,0.4,0.3,0.6,0.4c0.2-0.1,0.4-0.2,0.6-0.4c-0.2-0.1-0.4-0.3-0.6-0.4
		C30.3,27.3,30.1,27.4,29.9,27.5z"/>
	<path class="st0" d="M29.3,20.2v1.5c0.3,0.1,0.6,0.3,0.9,0.4c0.1-0.1,0.3-0.2,0.4-0.2C29.7,21.3,29.3,20.7,29.3,20.2z"/>
	<path class="st0" d="M58.4,22c0.4,0.2,0.7,0.4,1,0.6c0.3-0.2,0.5-0.3,0.7-0.5v-1.9C60,20.8,59.4,21.4,58.4,22z"/>
	<path class="st0" d="M44.7,24.5c-5,0-9.1-0.7-11.9-1.7v1.1c1.5,0.5,3.3,0.9,5.2,1.1C40.1,24.8,42.4,24.6,44.7,24.5
		c2.3,0.1,4.5,0.2,6.7,0.5c2.8-0.4,5.3-1,7-1.9c-0.4-0.2-0.8-0.4-1.2-0.6C54.5,23.7,50,24.5,44.7,24.5z"/>
	<path class="st0" d="M31.8,23.1v-0.4c-0.1,0-0.2,0.1-0.3,0.1C31.6,23,31.7,23.1,31.8,23.1z"/>
	<path class="st0" d="M31.8,22.8v0.4c0.2,0.2,0.4,0.4,0.6,0.7c0.1,0,0.3,0.1,0.4,0.1v-1.1c-0.2-0.1-0.4-0.2-0.7-0.3
		C32,22.7,31.9,22.7,31.8,22.8z"/>
	<path class="st0" d="M30.9,23.2c0.3,0.1,0.6,0.3,0.9,0.4v-0.4c-0.1-0.1-0.2-0.2-0.3-0.2C31.3,23,31.1,23.1,30.9,23.2z"/>
	<path class="st0" d="M30.1,22c-0.3-0.1-0.6-0.3-0.9-0.4V22c0.1,0.1,0.2,0.2,0.3,0.2C29.8,22.2,29.9,22.1,30.1,22z"/>
	<path class="st0" d="M32.4,23.8c-0.2-0.2-0.4-0.4-0.6-0.7v0.4C32,23.7,32.2,23.7,32.4,23.8z"/>
	<path class="st0" d="M30.1,22c0.1,0.1,0.3,0.1,0.4,0.2c0.1-0.1,0.3-0.1,0.4-0.2c-0.1-0.1-0.3-0.2-0.4-0.2
		C30.4,21.9,30.3,22,30.1,22z"/>
	<path class="st0" d="M30.1,22c-0.2,0.1-0.4,0.2-0.6,0.3c0.1,0.1,0.3,0.2,0.4,0.3c0.2-0.1,0.4-0.3,0.6-0.4
		C30.4,22.2,30.3,22.1,30.1,22z"/>
	<path class="st0" d="M60,18.2v1.9V22c0.6-0.6,1-1.2,1-1.9S60.7,18.8,60,18.2z"/>
	<path class="st0" d="M29.3,20.2v-1.5c-0.2,0.1-0.4,0.2-0.6,0.2c-0.3,0.4-0.4,0.8-0.4,1.3s0.1,0.9,0.4,1.3c0.2,0.1,0.4,0.2,0.6,0.2
		V20.2z"/>
	<path class="st0" d="M28.7,21.4c0.2,0.2,0.4,0.4,0.6,0.7v-0.4C29.1,21.6,28.9,21.5,28.7,21.4z"/>
	<path class="st0" d="M29.3,18.2c-0.2,0.2-0.4,0.4-0.6,0.7c0.2-0.1,0.4-0.2,0.6-0.2V18.2z"/>
	<path class="st0" d="M38,25.1c2.1,0.3,4.4,0.5,6.7,0.5s4.5-0.2,6.7-0.5c-2.1-0.3-4.4-0.5-6.7-0.5S40.1,24.8,38,25.1z"/>
	<path class="st0" d="M58.4,23.2c0.4-0.2,0.7-0.4,1-0.6c-0.3-0.2-0.6-0.4-1-0.6c-0.4,0.2-0.8,0.4-1.2,0.6C57.6,22.8,58,23,58.4,23.2
		z"/>
	<path class="st0" d="M31.1,22.6c0.1,0.1,0.3,0.2,0.4,0.3c0.1,0,0.2-0.1,0.3-0.1v-0.3c-0.1,0-0.2-0.1-0.3-0.1
		C31.4,22.4,31.3,22.5,31.1,22.6z"/>
	<path class="st0" d="M32.1,22.6c-0.1,0-0.2-0.1-0.3-0.1v0.3C31.9,22.7,32,22.7,32.1,22.6z"/>
	<path class="st0" d="M30.9,23.2c0.2-0.1,0.4-0.2,0.6-0.3c-0.1-0.1-0.3-0.2-0.4-0.3c-0.2,0.1-0.4,0.3-0.6,0.4
		C30.7,23.1,30.8,23.1,30.9,23.2z"/>
	<path class="st0" d="M31.1,22.6c0.1-0.1,0.3-0.2,0.4-0.3c-0.2-0.1-0.4-0.2-0.6-0.3c-0.1,0.1-0.3,0.1-0.4,0.2
		C30.7,22.4,30.9,22.5,31.1,22.6z"/>
	<path class="st0" d="M29.9,22.6c0.2,0.1,0.4,0.3,0.6,0.4c0.2-0.1,0.4-0.2,0.6-0.4c-0.2-0.1-0.4-0.3-0.6-0.4
		C30.3,22.4,30.1,22.5,29.9,22.6z"/>
	<path class="st0" d="M44.7,19.6c-5,0-9.1-0.7-11.9-1.7V19c1.5,0.5,3.3,0.9,5.2,1.1C40.1,19.9,42.4,19.7,44.7,19.6
		c2.3,0.1,4.5,0.2,6.7,0.5c2.8-0.4,5.3-1,7-1.9c-0.4-0.2-0.8-0.4-1.2-0.6C54.5,18.8,50,19.6,44.7,19.6z"/>
	<path class="st0" d="M58.4,17.1c0.4,0.2,0.7,0.4,1,0.6c0.3-0.2,0.5-0.3,0.7-0.5v-1.9C60,15.9,59.4,16.5,58.4,17.1z"/>
	<path class="st0" d="M31.8,18.2v-0.4c-0.1,0-0.2,0.1-0.3,0.1C31.6,18.1,31.7,18.1,31.8,18.2z"/>
	<path class="st0" d="M30.1,17.1c0.1-0.1,0.3-0.2,0.4-0.2c-0.6-0.4-1-0.8-1.1-1.1h-0.1v1C29.6,16.9,29.9,17,30.1,17.1z"/>
	<path class="st0" d="M29.3,15.2v0.5h0.1C29.3,15.6,29.3,15.4,29.3,15.2z"/>
	<path class="st0" d="M31.8,17.8v0.4c0.2,0.2,0.4,0.4,0.6,0.7c0.1,0,0.3,0.1,0.4,0.1v-1.1c-0.2-0.1-0.4-0.2-0.7-0.3
		C32,17.7,31.9,17.8,31.8,17.8z"/>
	<path class="st0" d="M30.1,17.1c-0.3-0.1-0.6-0.3-0.9-0.4v0.4c0.1,0.1,0.2,0.2,0.3,0.2C29.8,17.3,29.9,17.2,30.1,17.1z"/>
	<path class="st0" d="M30.9,18.3c0.3,0.1,0.6,0.3,0.9,0.4v-0.4c-0.1-0.1-0.2-0.2-0.3-0.2C31.3,18.1,31.1,18.2,30.9,18.3z"/>
	<path class="st0" d="M32.4,18.9c-0.2-0.2-0.4-0.4-0.6-0.7v0.4C32,18.7,32.2,18.8,32.4,18.9z"/>
	<path class="st0" d="M30.9,17.1c-0.1-0.1-0.3-0.2-0.4-0.2c-0.1,0.1-0.3,0.2-0.4,0.2c0.1,0.1,0.3,0.1,0.4,0.2
		C30.7,17.3,30.8,17.2,30.9,17.1z"/>
	<path class="st0" d="M29.9,17.7c0.2-0.1,0.4-0.3,0.6-0.4c-0.1-0.1-0.3-0.1-0.4-0.2c-0.2,0.1-0.4,0.2-0.6,0.3
		C29.7,17.5,29.8,17.6,29.9,17.7z"/>
	<path class="st0" d="M29.3,13.3c-0.5,0.4-0.8,0.9-0.9,1.4h0.9V13.3z"/>
	<path class="st0" d="M29.3,15.7h-0.9c0.1,0.3,0.2,0.5,0.3,0.8c0.2,0.1,0.4,0.2,0.6,0.2C29.3,16.7,29.3,15.7,29.3,15.7z"/>
	<path class="st0" d="M60,13.3v1.9v1.9c0.6-0.6,1-1.2,1-1.9S60.7,13.9,60,13.3z"/>
	<path class="st0" d="M29.3,15.7v-0.5v-0.5h-0.9c0,0.2-0.1,0.3-0.1,0.5s0,0.3,0.1,0.5H29.3z"/>
	<path class="st0" d="M29.3,17.2v-0.4c-0.2-0.1-0.4-0.2-0.6-0.2C28.8,16.7,29,17,29.3,17.2z"/>
	<path class="st0" d="M38,20.2c2.1,0.3,4.4,0.5,6.7,0.5s4.5-0.2,6.7-0.5c-2.1-0.3-4.4-0.5-6.7-0.5S40.1,19.9,38,20.2z"/>
	<path class="st0" d="M58.4,18.3c0.4-0.2,0.7-0.4,1-0.6c-0.3-0.2-0.6-0.4-1-0.6c-0.4,0.2-0.8,0.4-1.2,0.6
		C57.6,17.9,58,18.1,58.4,18.3z"/>
	<path class="st0" d="M31.1,17.7c0.1,0.1,0.3,0.2,0.4,0.3c0.1,0,0.2-0.1,0.3-0.1v-0.3c-0.1,0-0.2-0.1-0.3-0.1
		C31.4,17.5,31.3,17.6,31.1,17.7z"/>
	<path class="st0" d="M32.1,17.7c-0.1,0-0.2-0.1-0.3-0.1v0.3C31.9,17.8,32,17.7,32.1,17.7z"/>
	<path class="st0" d="M30.9,18.3c0.2-0.1,0.4-0.2,0.6-0.3c-0.1-0.1-0.3-0.2-0.4-0.3c-0.2,0.1-0.4,0.3-0.6,0.4
		C30.7,18.1,30.8,18.2,30.9,18.3z"/>
	<path class="st0" d="M31.1,17.7c0.1-0.1,0.3-0.2,0.4-0.3c-0.2-0.1-0.4-0.2-0.6-0.3c-0.1,0.1-0.3,0.1-0.4,0.2
		C30.7,17.4,30.9,17.6,31.1,17.7z"/>
	<path class="st0" d="M29.9,17.7c0.2,0.1,0.4,0.3,0.6,0.4c0.2-0.1,0.4-0.2,0.6-0.4c-0.2-0.1-0.4-0.3-0.6-0.4
		C30.3,17.4,30.1,17.6,29.9,17.7z"/>
	<path class="st0" d="M30.9,12.2c-1.1-0.6-1.7-1.3-1.7-1.9v1.5c0.5,0.2,0.9,0.4,1.3,0.6C30.7,12.3,30.8,12.3,30.9,12.2z"/>
	<path class="st0" d="M58.4,12.2c0.4,0.2,0.7,0.4,1,0.6c0.3-0.2,0.5-0.3,0.7-0.5v-1.9C60,10.9,59.4,11.6,58.4,12.2z"/>
	<path class="st0" d="M44.7,14.7c-5.4,0-9.8-0.8-12.5-1.9c-0.2,0.1-0.4,0.2-0.6,0.3c0.4,0.3,0.7,0.6,0.9,0.9c1.6,0.6,3.5,1,5.6,1.3
		C40.1,14.9,42.4,14.8,44.7,14.7c2.3,0.1,4.5,0.2,6.7,0.5c2.8-0.4,5.3-1,7-1.9c-0.4-0.2-0.8-0.4-1.2-0.6
		C54.5,13.9,50,14.7,44.7,14.7z"/>
	<path class="st0" d="M30.5,12.4c-0.4-0.2-0.8-0.4-1.3-0.6v0.4c0.2,0.2,0.4,0.4,0.7,0.5C30.1,12.6,30.3,12.5,30.5,12.4z"/>
	<path class="st0" d="M32.4,13.9c-0.2-0.3-0.5-0.6-0.9-0.9c-0.2,0.1-0.4,0.2-0.6,0.3C31.4,13.6,31.9,13.8,32.4,13.9z"/>
	<path class="st0" d="M29.3,11.8v-1.5V8.4c-0.6,0.6-1,1.2-1,1.9c0,0.5,0.1,0.9,0.4,1.3C28.9,11.7,29.1,11.7,29.3,11.8z"/>
	<path class="st0" d="M60,8.4v1.9v1.9c0.6-0.6,1-1.2,1-1.9S60.7,8.9,60,8.4z"/>
	<path class="st0" d="M28.7,11.6c0.2,0.2,0.4,0.4,0.6,0.7v-0.4C29.1,11.7,28.9,11.7,28.7,11.6z"/>
	<path class="st0" d="M38,15.2c2.1,0.3,4.4,0.5,6.7,0.5s4.5-0.2,6.7-0.5c-2.1-0.3-4.4-0.5-6.7-0.5S40.1,14.9,38,15.2z"/>
	<path class="st0" d="M32.2,12.8c-0.5-0.2-0.9-0.4-1.2-0.6c-0.1,0.1-0.3,0.1-0.4,0.2c0.4,0.2,0.7,0.4,1,0.6
		C31.7,12.9,31.9,12.9,32.2,12.8z"/>
	<path class="st0" d="M58.4,13.3c0.4-0.2,0.7-0.4,1-0.6c-0.3-0.2-0.6-0.4-1-0.6c-0.4,0.2-0.8,0.4-1.2,0.6
		C57.6,12.9,58,13.1,58.4,13.3z"/>
	<path class="st0" d="M31.5,13c-0.3-0.2-0.6-0.4-1-0.6c-0.2,0.1-0.4,0.2-0.6,0.4c0.3,0.2,0.6,0.4,1,0.6C31.1,13.2,31.3,13.1,31.5,13
		z"/>
	<path class="st0" d="M44.7,9.8c-5.4,0-9.8-0.8-12.5-1.9c-0.5,0.2-0.9,0.4-1.2,0.6c1.8,0.9,4.3,1.5,7,1.9C40.1,10,42.4,9.8,44.7,9.8
		c2.3,0.1,4.5,0.2,6.7,0.5c2.8-0.4,5.3-1,7-1.9C58,8.2,57.6,8,57.2,7.8C54.5,8.9,50,9.8,44.7,9.8z"/>
	<path class="st0" d="M44.7,1C53.3,1,59.4,3.1,60,5.1h1C60.5,1.8,52.3,0,44.7,0S28.9,1.8,28.4,5.1h1C29.9,3.1,36,1,44.7,1z"/>
	<path class="st0" d="M30.9,7.3c-0.7-0.4-1.2-0.8-1.4-1.2h-0.2v1.3c0.2,0.2,0.4,0.4,0.7,0.5C30.2,7.6,30.6,7.4,30.9,7.3z"/>
	<path class="st0" d="M58.4,7.3c0.4,0.2,0.7,0.4,1,0.6c0.3-0.2,0.5-0.3,0.7-0.5V6.1h-0.2C59.5,6.5,59.1,6.9,58.4,7.3z"/>
	<path class="st0" d="M60,5.1c0,0.1,0.1,0.2,0.1,0.3c0,0.2-0.1,0.5-0.2,0.7h0.2v1.3c0.6-0.6,1-1.2,1-1.9c0-0.1,0-0.2,0-0.3H60V5.1z"
		/>
	<path class="st0" d="M29.3,7.3V6h0.2c-0.1-0.2-0.2-0.5-0.2-0.7c0-0.1,0-0.2,0.1-0.3h-1c0,0.1,0,0.2,0,0.3
		C28.3,6.1,28.6,6.7,29.3,7.3z"/>
	<path class="st0" d="M38,10.3c2.1,0.3,4.4,0.5,6.7,0.5s4.5-0.2,6.7-0.5C49.3,10,47,9.8,44.7,9.8S40.1,10,38,10.3z"/>
	<path class="st0" d="M58.4,8.4c0.4-0.2,0.7-0.4,1-0.6c-0.3-0.2-0.6-0.4-1-0.6c-0.4,0.2-0.8,0.4-1.2,0.6C57.6,8,58,8.2,58.4,8.4z"/>
	<path class="st0" d="M30.9,7.3c-0.4,0.2-0.7,0.4-1,0.6c0.3,0.2,0.6,0.4,1,0.6c0.4-0.2,0.8-0.4,1.2-0.6C31.7,7.7,31.3,7.5,30.9,7.3z
		"/>
	<path class="st0" d="M7.3,40.2v-0.7c-0.3-0.1-0.7-0.1-1-0.2v2.9C6.3,41.4,6.7,40.7,7.3,40.2z"/>
	<path class="st0" d="M6.3,38.2c0.1,0,0.2,0.1,0.3,0.1c-0.2-0.3-0.3-0.7-0.3-1.1V38.2z"/>
	<path class="st0" d="M38.3,38.9c0.3,0,0.5,0.1,0.8,0.1v-1.8C39.1,37.8,38.8,38.4,38.3,38.9z"/>
	<path class="st0" d="M38.1,40.2c0.6,0.6,1,1.2,1,1.9V40c-0.3,0-0.7-0.1-1-0.1V40.2z"/>
	<path class="st0" d="M7.3,39.1c-0.3-0.3-0.5-0.6-0.7-0.9c-0.1,0-0.2,0-0.3-0.1v1c0.3,0.1,0.7,0.2,1,0.2V39.1z"/>
	<path class="st0" d="M38.3,38.9c-0.1,0.1-0.1,0.1-0.2,0.2v0.8c0.3,0,0.7,0.1,1,0.1v-1C38.8,39,38.6,38.9,38.3,38.9z"/>
	<path class="st0" d="M22.7,46.5c-8.2,0-14.2-1.9-15.2-3.8H6.4c0.9,3.1,8.8,4.8,16.3,4.8s15.4-1.7,16.3-4.8h-1.1
		C36.8,44.6,30.9,46.5,22.7,46.5z"/>
	<path class="st0" d="M7.3,42.1c0-0.1,0-0.4,0-0.4v-1.5c-0.6,0.6-1,1.2-1,1.9c0,0.2,0,0.4,0.1,0.6h1.1C7.4,42.5,7.3,42.3,7.3,42.1z"
		/>
	<path class="st0" d="M38.1,40.2v1.5c0,0,0,0.3,0,0.4c0,0.2-0.1,0.4-0.2,0.6H39c0.1-0.2,0.1-0.4,0.1-0.6
		C39.1,41.4,38.7,40.7,38.1,40.2z"/>
	<path class="st0" d="M7.9,39.6L8,39.7c0,0,0,0,0.1,0C8,39.6,7.9,39.6,7.9,39.6z"/>
	<path class="st0" d="M30.8,33.5c-0.1-0.1-0.2-0.1-0.3-0.2c-0.1,0-0.1,0.1-0.2,0.1C30.5,33.4,30.7,33.5,30.8,33.5z"/>
	<path class="st0" d="M22.7,32.8c1.7,0,3.2,0.1,4.7,0.2c0.3-0.1,0.6-0.2,0.9-0.3v-0.5c-0.2-0.1-0.3-0.1-0.5-0.2
		c-1.7-0.2-3.4-0.3-5.1-0.3c-4.9,0-10,0.7-13.2,2.1c0.7,0.1,1.4,0.2,2.2,0.3C14.4,33.4,18.2,32.8,22.7,32.8z"/>
	<path class="st0" d="M8.6,35.5H7c-0.3,0.4-0.6,0.8-0.7,1.2h1.1C7.6,36.3,8,35.9,8.6,35.5z"/>
	<path class="st0" d="M7.4,37.7H7.3v0.7c0.3,0.1,0.6,0.1,1,0.2C7.9,38.3,7.6,38,7.4,37.7z"/>
	<path class="st0" d="M22.7,41.6c-4.7,0-8.6-0.6-11.3-1.5c-0.6-0.1-1.1-0.1-1.7-0.2C9.5,40,9.2,40.1,9,40.3c1.2,0.6,2.8,1.1,4.7,1.5
		h18.1c1.8-0.4,3.4-0.9,4.7-1.5c-0.4-0.2-0.8-0.4-1.2-0.6C32.5,40.7,28.1,41.6,22.7,41.6z"/>
	<path class="st0" d="M37,38.7c0.4,0.1,0.7,0.1,1.1,0.2v-1.2H38C37.8,38,37.5,38.4,37,38.7z"/>
	<path class="st0" d="M32.8,33.9c0.6,0.2,1.2,0.3,1.7,0.5h0.7C34.4,34.2,33.6,34,32.8,33.9L32.8,33.9z"/>
	<path class="st0" d="M38,36.7h1.1c-0.1-0.4-0.3-0.9-0.7-1.2h-1.6C37.3,35.8,37.8,36.3,38,36.7z"/>
	<path class="st0" d="M9.7,34.9c-0.6-0.1-1.1-0.2-1.6-0.3c-0.4,0.3-0.7,0.5-1,0.8h1.6C8.9,35.3,9.3,35.1,9.7,34.9z"/>
	<path class="st0" d="M32.8,33.9L32.8,33.9c-0.1-0.1-0.3-0.2-0.4-0.2c0,0.1,0.1,0.1,0.1,0.2C32.6,33.9,32.7,33.9,32.8,33.9z"/>
	<path class="st0" d="M28.3,32.1c-0.2,0-0.3,0-0.5-0.1c0.2,0.1,0.3,0.1,0.5,0.2V32.1z"/>
	<path class="st0" d="M30.8,33.5c0.3,0.1,0.7,0.1,1,0.2v-0.3c-0.3-0.1-0.6-0.3-0.9-0.4c-0.1,0.1-0.3,0.2-0.4,0.2
		C30.6,33.4,30.7,33.4,30.8,33.5z"/>
	<path class="st0" d="M29.3,32.2L29.3,32.2c0.1,0.1,0.1,0,0.2,0C29.4,32.2,29.3,32.2,29.3,32.2z"/>
	<path class="st0" d="M9.7,39.9c0.6,0.1,1.1,0.1,1.7,0.2c-0.4-0.1-0.8-0.3-1.2-0.4C10,39.7,9.8,39.8,9.7,39.9z"/>
	<path class="st0" d="M8,39.6c0.3-0.2,0.6-0.4,0.9-0.5c-0.3-0.1-0.5-0.3-0.7-0.4c-0.3-0.1-0.7-0.1-1-0.2v0.7
		c0.2,0.2,0.3,0.3,0.6,0.4C7.9,39.6,8,39.6,8,39.6z"/>
	<path class="st0" d="M31.8,33.7c0.2,0.1,0.5,0.1,0.7,0.2c0-0.1-0.1-0.1-0.1-0.2c-0.2-0.1-0.4-0.2-0.6-0.2
		C31.8,33.5,31.8,33.7,31.8,33.7z"/>
	<path class="st0" d="M27.4,33c0.3,0,0.6,0.1,0.9,0.1v-0.4C28,32.8,27.7,32.9,27.4,33z"/>
	<path class="st0" d="M9.5,33.9c-0.4,0.2-0.8,0.4-1.2,0.6h2.4c0.3-0.1,0.6-0.2,0.9-0.3C10.9,34.1,10.2,34,9.5,33.9z"/>
	<path class="st0" d="M29.3,32.6V33c0.1-0.1,0.2-0.2,0.3-0.2C29.5,32.7,29.4,32.7,29.3,32.6z"/>
	<path class="st0" d="M10.8,34.5H8.4c-0.1,0.1-0.2,0.1-0.3,0.2c0.5,0.1,1.1,0.2,1.6,0.3C10,34.8,10.4,34.6,10.8,34.5z"/>
	<path class="st0" d="M29.6,32.8c0.1-0.1,0.3-0.2,0.4-0.3c-0.1-0.1-0.2-0.1-0.3-0.2c-0.1,0-0.2,0-0.2,0c-0.1,0-0.1,0.1-0.2,0.1v0.3
		C29.4,32.7,29.5,32.7,29.6,32.8z"/>
	<path class="st0" d="M28.3,32.2v0.5c0.2-0.1,0.4-0.2,0.7-0.3C28.7,32.4,28.5,32.3,28.3,32.2z"/>
	<path class="st0" d="M34.5,34.4c0.9,0.3,1.6,0.6,2.2,1h1.6c-0.2-0.2-0.4-0.4-0.6-0.5c-0.9-0.1-1.7-0.3-2.5-0.5H34.5z"/>
	<path class="st0" d="M28.9,32.5c0.1,0,0.2-0.1,0.3-0.1v-0.1c-0.3,0-0.7-0.1-1-0.1v0.1C28.5,32.3,28.7,32.4,28.9,32.5z"/>
	<path class="st0" d="M29.3,33v-0.4c-0.1,0-0.2-0.1-0.3-0.1c-0.2,0.1-0.4,0.2-0.7,0.3v0.4c0.3,0,0.5,0.1,0.8,0.1
		C29.1,33.1,29.2,33.1,29.3,33z"/>
	<path class="st0" d="M29.3,32.3c-0.1,0-0.2,0.1-0.3,0.1c0.1,0,0.2,0.1,0.3,0.1V32.3z"/>
	<path class="st0" d="M30.4,33.4c0.1,0,0.1-0.1,0.2-0.1c-0.1-0.1-0.3-0.2-0.4-0.2c-0.2,0.1-0.3,0.2-0.5,0.2
		C29.9,33.3,30.1,33.4,30.4,33.4z"/>
	<path class="st0" d="M37,38.7c-0.2,0.1-0.4,0.2-0.6,0.4c0.4,0.2,0.7,0.4,1,0.6c0.3-0.2,0.5-0.3,0.7-0.5V39
		C37.7,38.8,37.3,38.8,37,38.7z"/>
	<path class="st0" d="M30.1,33c0.1,0.1,0.3,0.2,0.4,0.2c0.1-0.1,0.3-0.2,0.4-0.2c-0.1-0.1-0.3-0.1-0.4-0.2
		C30.4,32.9,30.3,33,30.1,33z"/>
	<path class="st0" d="M29.6,33.3c0.2-0.1,0.3-0.2,0.5-0.2c-0.2-0.1-0.4-0.2-0.6-0.3c-0.1,0.1-0.2,0.2-0.3,0.2v0.2
		C29.4,33.3,29.5,33.3,29.6,33.3z"/>
	<path class="st0" d="M30.5,32.8c-0.2-0.1-0.4-0.2-0.6-0.4c-0.1,0.1-0.3,0.2-0.4,0.3c0.2,0.1,0.4,0.2,0.6,0.3
		C30.3,33,30.4,32.9,30.5,32.8z"/>
	<path class="st0" d="M29.3,33c-0.1,0.1-0.2,0.1-0.2,0.2c0.1,0,0.1,0,0.2,0V33z"/>
	<path class="st0" d="M31.5,32.8c0.1,0.1,0.2,0.2,0.3,0.2v-0.3h-0.1C31.6,32.7,31.6,32.7,31.5,32.8z"/>
	<path class="st0" d="M35.2,34.4H37c-1.1-0.6-2.5-1.1-4.2-1.5v0.9C33.5,34,34.3,34.2,35.2,34.4z"/>
	<path class="st0" d="M31.8,33c0.2,0.2,0.4,0.4,0.6,0.7c0.1,0,0.3,0.1,0.4,0.1v-0.9c-0.3-0.1-0.7-0.2-1-0.2V33z"/>
	<path class="st0" d="M30.9,33c0.3,0.1,0.6,0.3,0.9,0.4V33c-0.1-0.1-0.2-0.2-0.3-0.2C31.3,32.8,31.1,32.9,30.9,33z"/>
	<path class="st0" d="M32.4,33.7c-0.2-0.2-0.4-0.4-0.6-0.7v0.4C32,33.5,32.2,33.6,32.4,33.7z"/>
	<path class="st0" d="M29.7,32.3c0.1,0.1,0.2,0.1,0.3,0.2c0.1,0,0.1-0.1,0.2-0.1C30,32.3,29.8,32.3,29.7,32.3z"/>
	<path class="st0" d="M35.2,34.4c0.8,0.2,1.6,0.3,2.5,0.5c-0.2-0.2-0.5-0.3-0.7-0.5H35.2z"/>
	<path class="st0" d="M31.7,32.6c-0.2,0-0.3-0.1-0.5-0.1c0.1,0.1,0.2,0.1,0.3,0.2C31.6,32.7,31.6,32.7,31.7,32.6z"/>
	<path class="st0" d="M30.5,32.8c0.1,0.1,0.3,0.1,0.4,0.2c0.2-0.1,0.4-0.2,0.6-0.3c-0.1-0.1-0.2-0.1-0.3-0.2c-0.1,0-0.1,0-0.2,0
		C30.9,32.6,30.7,32.7,30.5,32.8z"/>
	<path class="st0" d="M31.1,32.5c-0.3-0.1-0.6-0.1-0.9-0.2c-0.1,0-0.1,0.1-0.2,0.1c0.2,0.1,0.4,0.3,0.6,0.4
		C30.7,32.7,30.9,32.6,31.1,32.5z"/>
	<path class="st0" d="M39,36.7h-1.1C38,36.9,38,37,38,37.2s-0.1,0.3-0.1,0.5H38v1.2c0.1,0,0.1,0,0.2,0c0.5-0.5,0.8-1.1,0.8-1.7
		C39.1,37,39,36.8,39,36.7z"/>
	<path class="st0" d="M22.7,42.6c3.1,0,6.3-0.3,9-0.9H13.6C16.4,42.3,19.6,42.6,22.7,42.6z"/>
	<path class="st0" d="M7.3,37.7h0.1c-0.1-0.2-0.1-0.3-0.1-0.5s0.1-0.3,0.1-0.5H6.3c0,0.2-0.1,0.3-0.1,0.5c0,0.4,0.1,0.7,0.3,1.1
		c0.2,0.1,0.5,0.1,0.7,0.2v-0.8H7.3z"/>
	<path class="st0" d="M6.6,38.3c0.2,0.3,0.4,0.6,0.7,0.9v-0.7C7.1,38.4,6.8,38.3,6.6,38.3z"/>
	<path class="st0" d="M38.1,39.1c0.1-0.1,0.1-0.1,0.2-0.2c-0.1,0-0.1,0-0.2,0C38.1,38.9,38.1,39.1,38.1,39.1z"/>
	<path class="st0" d="M8,39.6L8,39.6c0.2,0.2,0.6,0.4,0.9,0.6c0.2-0.1,0.4-0.2,0.7-0.4C9.1,39.8,8.6,39.7,8,39.6z"/>
	<path class="st0" d="M35.2,39.6c0.5,0.2,0.9,0.4,1.2,0.6c0.3-0.1,0.6-0.3,0.8-0.5c-0.5-0.1-1.1-0.2-1.6-0.3
		C35.5,39.5,35.3,39.6,35.2,39.6z"/>
	<path class="st0" d="M10.2,39.6C9.7,39.4,9.3,39.2,9,39c-0.3,0.2-0.6,0.3-0.9,0.5c0.5,0.1,1.1,0.2,1.6,0.3
		C9.8,39.8,10,39.7,10.2,39.6z"/>
	<path class="st0" d="M37.2,39.8c0.1,0,0.1-0.1,0.2-0.1c-0.3-0.2-0.6-0.4-1-0.6c-0.2,0.1-0.5,0.3-0.8,0.4
		C36.1,39.6,36.7,39.7,37.2,39.8z"/>
</g>
</svg>
