<?xml version="1.0" encoding="utf-8"?>
<!-- Generator: Adobe Illustrator 21.0.0, SVG Export Plug-In . SVG Version: 6.00 Build 0)  -->
<svg version="1.1" id="Слой_1" xmlns="http://www.w3.org/2000/svg" xmlns:xlink="http://www.w3.org/1999/xlink" x="0px" y="0px"
	 viewBox="0 0 51.5 46.9" style="enable-background:new 0 0 51.5 46.9;" xml:space="preserve">
<style type="text/css">
	.st0{display:none;}
	.st1{fill:none;stroke:#FFFFFF;stroke-miterlimit:10;}
	.st2{fill:none;stroke:#FDB341;stroke-miterlimit:10;}
	.st3{fill:#FDB341;}
</style>
<g id="Слой_2" class="st0">
</g>
<line class="st1" x1="14" y1="29.1" x2="18.1" y2="29.1"/>
<line class="st1" x1="14" y1="37.3" x2="18.1" y2="37.3"/>
<rect x="0.8" y="20.2" class="st2" width="50" height="5.3"/>
<rect x="0.8" y="33.3" class="st2" width="28.3" height="7.9"/>
<rect x="29.1" y="25.5" class="st2" width="21.7" height="13.3"/>
<line class="st2" x1="5.6" y1="41.3" x2="5.6" y2="46.9"/>
<line class="st2" x1="24.9" y1="41.3" x2="24.9" y2="46.9"/>
<line class="st2" x1="48.2" y1="39.2" x2="48.2" y2="46.9"/>
<rect x="5.8" y="0.7" class="st2" width="23.2" height="14.3"/>
<line class="st2" x1="18.1" y1="15" x2="18.1" y2="20.2"/>
<rect x="37.2" y="12.7" class="st2" width="5.3" height="7.4"/>
<path class="st3" d="M45,13.4h-2.5v1H45c0.7,0,1.2,0.5,1.2,1.2s-0.5,1.2-1.2,1.2h-2.5v1H45c1.2,0,2.2-1,2.2-2.2S46.2,13.4,45,13.4z"
	/>
<line class="st2" x1="40.7" y1="8.4" x2="40.7" y2="5.6"/>
<line class="st2" x1="38.8" y1="10.1" x2="38.8" y2="7.3"/>
<line class="st2" x1="0.8" y1="25.5" x2="0.8" y2="33.3"/>
</svg>
