<?xml version="1.0" encoding="utf-8"?>
<!-- Generator: Adobe Illustrator 21.0.0, SVG Export Plug-In . SVG Version: 6.00 Build 0)  -->
<svg version="1.1" id="Слой_1" xmlns="http://www.w3.org/2000/svg" xmlns:xlink="http://www.w3.org/1999/xlink" x="0px" y="0px"
	 viewBox="0 0 44.9 49" style="enable-background:new 0 0 44.9 49;" xml:space="preserve">
<style type="text/css">
	.st0{fill:none;stroke:#FDB341;stroke-miterlimit:10;}
</style>
<rect x="0.7" y="3.3" class="st0" width="36.9" height="45.2"/>
<rect x="3.7" y="6.9" class="st0" width="31" height="38"/>
<rect x="11.6" y="0.5" class="st0" width="15" height="2.8"/>
<g>
	<line class="st0" x1="10.1" y1="15.5" x2="22.5" y2="15.5"/>
	<line class="st0" x1="10.1" y1="21.5" x2="28" y2="21.5"/>
	<line class="st0" x1="10.1" y1="27.5" x2="19.1" y2="27.5"/>
	<line class="st0" x1="20.3" y1="27.5" x2="24.8" y2="27.5"/>
	<line class="st0" x1="23.6" y1="15.5" x2="28" y2="15.5"/>
	<line class="st0" x1="25.9" y1="27.5" x2="28" y2="27.5"/>
	<line class="st0" x1="10.1" y1="33.6" x2="16.4" y2="33.6"/>
</g>
<path class="st0" d="M42.7,40.8L42.7,40.8c-0.9,0-1.7-0.8-1.7-1.7V10.2c0-0.9,0.8-1.7,1.7-1.7l0,0c0.9,0,1.7,0.8,1.7,1.7v28.9
	C44.3,40,43.5,40.8,42.7,40.8z"/>
<line class="st0" x1="41" y1="16.8" x2="44.3" y2="16.8"/>
<line class="st0" x1="42.7" y1="40.8" x2="42.7" y2="43.4"/>
</svg>
