<?xml version="1.0" encoding="utf-8"?>
<!-- Generator: Adobe Illustrator 21.0.0, SVG Export Plug-In . SVG Version: 6.00 Build 0)  -->
<svg version="1.1" id="Слой_1" xmlns="http://www.w3.org/2000/svg" xmlns:xlink="http://www.w3.org/1999/xlink" x="0px" y="0px"
	 viewBox="0 0 66.1 70" style="enable-background:new 0 0 66.1 70;" xml:space="preserve">
<style type="text/css">
	.st0{fill:none;}
	.st1{fill:#F8B144;}
	.st2{fill:none;stroke:#F8B144;stroke-miterlimit:10;}
</style>
<path class="st0" d="M4,50.5V6.9H3.1c-1.1,0-2,0.9-2,2v58c0,1.1,0.9,2,2,2h43.6c1.1,0,2-0.9,2-2v-2.8H17.5L4,50.5z"/>
<path class="st0" d="M36.4,16.9c0,1.3,1,2.3,2.3,2.3H48L36.4,7.6V16.9z"/>
<path class="st0" d="M42.9,12.7l6.2,6.2c0,0,0,0,0,0l0.6,0.6v43.7h0.9c1.1,0,2-0.9,2-2V3c0-1.1-0.9-2-2-2H7C5.9,1,5,1.9,5,3v2.8
	h31.2L42.9,12.7z"/>
<path class="st0" d="M48.6,20.1h-9.9c-1.8,0-3.3-1.5-3.3-3.3V6.9c0,0,0-0.1,0-0.1H5v43.2l13,13h30.8L48.6,20.1
	C48.7,20.1,48.7,20.1,48.6,20.1z M10.6,20h14.3v1H10.6V20z M10.6,24.1h14.3v1H10.6V24.1z M39.6,53.6H10.1v-1h29.5V53.6z M39.6,49.5
	H10.1v-1h29.5V49.5z M39.6,45.4H10.1v-1h29.5V45.4z M39.6,41.3H10.1v-1h29.5V41.3z"/>
<path class="st1" d="M50.6,0H7C5.3,0,4,1.4,4,3v2.8h1V3c0-1.1,0.9-2,2-2h43.6c1.1,0,2,0.9,2,2v58c0,1.1-0.9,2-2,2h-0.9v1h0.9
	c1.7,0,3-1.4,3-3V3C53.6,1.4,52.3,0,50.6,0z"/>
<path class="st1" d="M35.5,6.9c0-0.3,0.2-0.5,0.4-0.6c0.3-0.1,0.6-0.1,0.8,0.2l6.2,6.2l-6.8-6.8H5v1H35.5z"/>
<path class="st1" d="M49.2,18.9c0.2,0.2,0.3,0.5,0.2,0.8c-0.1,0.3-0.3,0.4-0.6,0.4v43h1V19.4L49.2,18.9z"/>
<path class="st1" d="M48.7,66.9c0,1.1-0.9,2-2,2H3.1c-1.1,0-2-0.9-2-2v-58c0-1.1,0.9-2,2-2H4v-1H3.1c-1.7,0-3,1.4-3,3v58
	c0,1.7,1.4,3,3,3h43.6c1.7,0,3-1.4,3-3v-2.8h-1V66.9z"/>
<rect x="4" y="5.9" class="st1" width="1" height="1"/>
<rect x="48.7" y="63.1" class="st1" width="1" height="1"/>
<polygon class="st1" points="49.2,18.9 42.9,12.7 49.2,18.9 "/>
<path class="st1" d="M35.4,16.9c0,1.8,1.5,3.3,3.3,3.3h9.9c0,0,0.1,0,0.1,0v-0.3L48,19.1h-9.3c-1.3,0-2.3-1-2.3-2.3V7.6L48,19.1
	L35.7,6.9h-0.3c0,0,0,0.1,0,0.1V16.9z"/>
<path class="st1" d="M48,19.1l0.7,0.7v0.3c0.3,0,0.5-0.2,0.6-0.4c0.1-0.3,0.1-0.6-0.2-0.8l-6.2-6.2l-6.2-6.2
	c-0.2-0.2-0.5-0.3-0.8-0.2c-0.3,0.1-0.4,0.3-0.4,0.6h0.3L48,19.1z"/>
<rect x="10.6" y="20" class="st1" width="14.3" height="1"/>
<rect x="10.6" y="24.1" class="st1" width="14.3" height="1"/>
<rect x="10.1" y="40.3" class="st1" width="29.5" height="1"/>
<rect x="10.1" y="44.4" class="st1" width="29.5" height="1"/>
<rect x="10.1" y="48.5" class="st1" width="29.5" height="1"/>
<rect x="10.1" y="52.6" class="st1" width="29.5" height="1"/>
<path class="st2" d="M62.4,58.5L60.3,62l-2.1-3.5V20.8c0-0.6,0.5-1.1,1.1-1.1h3.1V58.5z"/>
<line class="st2" x1="58.1" y1="34.3" x2="62.4" y2="34.3"/>
<path class="st2" d="M60.3,19.6h3.2c0.9,0,1.7,0.8,1.7,1.7V32"/>
<line class="st2" x1="58.1" y1="58.5" x2="62.4" y2="58.5"/>
</svg>
