<?xml version="1.0" encoding="utf-8"?>
<!-- Generator: Adobe Illustrator 21.0.0, SVG Export Plug-In . SVG Version: 6.00 Build 0)  -->
<svg version="1.1" id="Слой_1" xmlns="http://www.w3.org/2000/svg" xmlns:xlink="http://www.w3.org/1999/xlink" x="0px" y="0px"
	 viewBox="0 0 61.5 65.5" style="enable-background:new 0 0 61.5 65.5;" xml:space="preserve">
<style type="text/css">
	.st0{fill:none;stroke:#F8B144;stroke-miterlimit:10;}
</style>
<path class="st0" d="M49.2,14.3H11.1c-3.3,0-6-2.7-6-6V6.7c0-3.3,2.7-6,6-6h38.1c3.3,0,6,2.7,6,6v1.7C55.2,11.6,52.5,14.3,49.2,14.3
	z"/>
<polyline class="st0" points="55.2,7.5 60.9,7.5 60.9,14.3 31.5,27.5 31.5,32.7 "/>
<rect x="28.1" y="32.7" class="st0" width="6.8" height="32"/>
<line class="st0" x1="28.1" y1="38.3" x2="34.9" y2="38.3"/>
<path class="st0" d="M0.8,7.1c0,1.3,1.1,2.4,2.4,2.4V4.6C1.9,4.6,0.8,5.7,0.8,7.1z"/>
<rect x="11.1" y="22.4" class="st0" width="10.8" height="42.4"/>
<line class="st0" x1="16.5" y1="27.8" x2="21.9" y2="27.8"/>
<line class="st0" x1="18.4" y1="30.4" x2="21.9" y2="30.4"/>
<line class="st0" x1="18.4" y1="35.5" x2="21.9" y2="35.5"/>
<line class="st0" x1="18.4" y1="40.7" x2="21.9" y2="40.7"/>
<line class="st0" x1="18.4" y1="45.9" x2="21.9" y2="45.9"/>
<line class="st0" x1="18.4" y1="51" x2="21.9" y2="51"/>
<line class="st0" x1="18.4" y1="55.9" x2="21.9" y2="55.9"/>
<line class="st0" x1="16.5" y1="33" x2="21.9" y2="33"/>
<line class="st0" x1="16.5" y1="38.1" x2="21.9" y2="38.1"/>
<line class="st0" x1="16.5" y1="43.3" x2="21.9" y2="43.3"/>
<line class="st0" x1="16.5" y1="48.5" x2="21.9" y2="48.5"/>
<line class="st0" x1="16.5" y1="53.6" x2="21.9" y2="53.6"/>
<line class="st0" x1="16.5" y1="58.8" x2="21.9" y2="58.8"/>
<polygon class="st0" points="6.1,64.8 2,64.8 2,49.4 4.1,47 6.1,49.4 "/>
<line class="st0" x1="2" y1="49.4" x2="6.1" y2="49.4"/>
<rect x="43.4" y="42.9" class="st0" width="12.3" height="5.6"/>
<g>
	<line class="st0" x1="43.4" y1="31.8" x2="43.4" y2="42.9"/>
	<line class="st0" x1="45.1" y1="31.8" x2="45.1" y2="42.9"/>
	<line class="st0" x1="46.9" y1="31.8" x2="46.9" y2="42.9"/>
	<line class="st0" x1="48.6" y1="31.8" x2="48.6" y2="42.9"/>
	<line class="st0" x1="50.4" y1="31.8" x2="50.4" y2="42.9"/>
	<line class="st0" x1="52.1" y1="31.8" x2="52.1" y2="42.9"/>
	<line class="st0" x1="53.9" y1="31.8" x2="53.9" y2="42.9"/>
	<line class="st0" x1="55.6" y1="31.8" x2="55.6" y2="42.9"/>
</g>
<rect x="48.6" y="48.7" class="st0" width="2.3" height="16"/>
</svg>
