<?xml version="1.0" encoding="utf-8"?>
<!-- Generator: Adobe Illustrator 21.0.0, SVG Export Plug-In . SVG Version: 6.00 Build 0)  -->
<svg version="1.1" id="Слой_1" xmlns="http://www.w3.org/2000/svg" xmlns:xlink="http://www.w3.org/1999/xlink" x="0px" y="0px"
	 viewBox="0 0 65.2 69" style="enable-background:new 0 0 65.2 69;" xml:space="preserve">
<style type="text/css">
	.st0{fill:none;}
	.st1{fill:#F8B144;}
	.st2{fill:none;stroke:#F8B144;stroke-miterlimit:10;}
	.st3{enable-background:new    ;}
</style>
<path class="st0" d="M41,58.5c-0.8,0.4-1.9,0.7-3.1,0.9c1.2,0.2,2.3,0.5,3.1,0.9c0.5-0.3,0.8-0.7,0.8-0.9S41.6,58.8,41,58.5z"/>
<path class="st0" d="M24.1,42.2c0.8-0.4,1.9-0.7,3.1-0.9c-1.2-0.2-2.3-0.5-3.1-0.9c-0.5,0.3-0.8,0.7-0.8,0.9S23.6,41.8,24.1,42.2z"
	/>
<path class="st0" d="M24.1,64.5c-0.2,0.1-0.4,0.3-0.6,0.4h1.6C24.8,64.8,24.5,64.7,24.1,64.5z"/>
<path class="st0" d="M41,46.3c-0.8,0.4-1.9,0.7-3.1,0.9c1.2,0.2,2.3,0.5,3.1,1c0.5-0.3,0.8-0.7,0.8-0.9C41.9,47,41.6,46.7,41,46.3z"
	/>
<path class="st0" d="M47.4,60.7c0.8-0.4,1.7-0.7,2.8-0.9c-1.1-0.2-2-0.5-2.8-0.9c-0.5,0.3-0.8,0.6-0.8,0.9S46.9,60.4,47.4,60.7z"/>
<path class="st0" d="M41,52.4c-0.8,0.4-1.9,0.7-3.1,0.9c1.2,0.2,2.3,0.5,3.1,0.9c0.5-0.3,0.8-0.7,0.8-0.9S41.6,52.7,41,52.4z"/>
<path class="st0" d="M41,55.4c-0.8,0.4-1.9,0.7-3.1,0.9c1.2,0.2,2.3,0.5,3.1,0.9c0.5-0.3,0.8-0.7,0.8-0.9S41.6,55.8,41,55.4z"/>
<path class="st0" d="M41,61.5c-0.8,0.4-1.9,0.7-3.1,0.9c1.2,0.2,2.3,0.5,3.1,0.9c0.5-0.3,0.8-0.7,0.8-0.9S41.6,61.8,41,61.5z"/>
<path class="st0" d="M24.1,48.2c0.8-0.4,1.9-0.7,3.1-1c-1.2-0.2-2.3-0.5-3.1-0.9c-0.5,0.3-0.8,0.7-0.8,1
	C23.3,47.6,23.6,47.9,24.1,48.2z"/>
<path class="st0" d="M24.1,51.3c0.8-0.4,1.9-0.7,3.1-0.9c-1.2-0.2-2.3-0.5-3.1-0.9c-0.5,0.3-0.8,0.7-0.8,0.9S23.6,50.9,24.1,51.3z"
	/>
<path class="st0" d="M24.2,45.2c0.8-0.4,1.9-0.7,3.1-0.9c-1.2-0.2-2.3-0.5-3.1-1c-0.5,0.3-0.8,0.7-0.8,0.9
	C23.3,44.5,23.6,44.9,24.2,45.2z"/>
<path class="st0" d="M24.1,54.3c0.8-0.4,1.9-0.7,3.1-0.9c-1.2-0.2-2.3-0.5-3.1-0.9c-0.5,0.3-0.8,0.7-0.8,0.9S23.6,54,24.1,54.3z"/>
<path class="st0" d="M24.1,60.4c0.8-0.4,1.9-0.7,3.1-0.9c-1.2-0.2-2.3-0.5-3.1-0.9c-0.5,0.3-0.8,0.7-0.8,0.9S23.6,60,24.1,60.4z"/>
<path class="st0" d="M24.1,57.3c0.8-0.4,1.9-0.7,3.1-0.9c-1.2-0.2-2.3-0.5-3.1-0.9c-0.5,0.3-0.8,0.7-0.8,0.9S23.6,57,24.1,57.3z"/>
<path class="st0" d="M24.1,63.4c0.8-0.4,1.9-0.7,3.1-0.9c-1.2-0.2-2.3-0.5-3.1-0.9c-0.5,0.3-0.8,0.7-0.8,0.9S23.6,63.1,24.1,63.4z"
	/>
<path class="st0" d="M48.7,58.4c1.5,0.5,3.8,0.9,6.7,0.9s5.2-0.4,6.7-0.9c-1.5-0.5-3.8-0.9-6.7-0.9S50.2,57.9,48.7,58.4z"/>
<path class="st0" d="M41,43.3c-0.8,0.4-1.9,0.7-3.1,1c1.2,0.2,2.3,0.5,3.1,0.9c0.5-0.3,0.8-0.7,0.8-1C41.9,44,41.6,43.6,41,43.3z"/>
<path class="st0" d="M47.4,49.2c0.2-0.1,0.5-0.2,0.8-0.3H47C47,49,47.2,49.1,47.4,49.2z"/>
<path class="st0" d="M48.7,52.6c1.5,0.5,3.8,0.9,6.7,0.9s5.2-0.4,6.7-0.9c-1.5-0.5-3.8-0.9-6.7-0.9S50.2,52.1,48.7,52.6z"/>
<path class="st0" d="M47.4,57.8c0.8-0.4,1.7-0.7,2.8-0.9c-1.1-0.2-2-0.5-2.8-0.9c-0.5,0.3-0.8,0.6-0.8,0.9
	C46.6,57.2,46.9,57.5,47.4,57.8z"/>
<path class="st0" d="M47.4,55c0.8-0.4,1.7-0.7,2.8-0.9c-1.1-0.2-2-0.5-2.8-0.9c-0.5,0.3-0.8,0.6-0.8,0.9S46.9,54.7,47.4,55z"/>
<path class="st0" d="M47.4,52.1c0.8-0.4,1.7-0.7,2.8-0.9c-1.1-0.2-2-0.5-2.8-0.9c-0.5,0.3-0.8,0.6-0.8,0.9
	C46.6,51.5,46.9,51.8,47.4,52.1z"/>
<path class="st0" d="M41,34.2c-0.8,0.4-1.9,0.7-3.1,0.9c1.2,0.2,2.3,0.5,3.1,0.9c0.5-0.3,0.8-0.7,0.8-0.9S41.6,34.5,41,34.2z"/>
<path class="st0" d="M48.7,61.3c1.5,0.5,3.8,0.9,6.7,0.9s5.2-0.4,6.7-0.9c-1.5-0.5-3.8-0.9-6.7-0.9S50.2,60.8,48.7,61.3z"/>
<path class="st0" d="M41,40.3c-0.8,0.4-1.9,0.7-3.1,0.9c1.2,0.2,2.3,0.5,3.1,0.9c0.5-0.3,0.8-0.7,0.8-0.9S41.6,40.6,41,40.3z"/>
<path class="st0" d="M41,37.2c-0.8,0.4-1.9,0.7-3.1,0.9c1.2,0.2,2.3,0.5,3.1,0.9c0.5-0.3,0.8-0.7,0.8-0.9S41.6,37.6,41,37.2z"/>
<path class="st0" d="M32.6,29.6c-4.9,0-8.2,1.1-9.1,2h9.1h9.1C40.8,30.7,37.5,29.6,32.6,29.6z"/>
<path class="st0" d="M41,33.1c0.2-0.1,0.4-0.3,0.6-0.4H40C40.4,32.8,40.7,32.9,41,33.1z"/>
<path class="st0" d="M41,49.4c-0.8,0.4-1.9,0.7-3.1,0.9c1.2,0.2,2.3,0.5,3.1,0.9c0.5-0.3,0.8-0.7,0.8-0.9S41.6,49.7,41,49.4z"/>
<path class="st0" d="M1.8,63.6c0.8-0.4,1.7-0.7,2.8-0.9c-1.1-0.2-2-0.5-2.8-0.9C1.3,62.2,1,62.5,1,62.7S1.3,63.3,1.8,63.6z"/>
<path class="st0" d="M1.8,64.7c-0.2,0.1-0.4,0.2-0.5,0.3h1.3C2.3,65,2,64.9,1.8,64.7z"/>
<path class="st0" d="M1.8,60.7c0.8-0.4,1.7-0.7,2.8-0.9c-1.1-0.2-2-0.5-2.8-0.9c-0.5,0.4-0.8,0.7-0.8,1S1.3,60.4,1.8,60.7z"/>
<path class="st0" d="M17.8,56.1C17,56.5,16.1,56.8,15,57c1.1,0.2,2,0.5,2.8,0.9c0.5-0.3,0.8-0.6,0.8-0.9
	C18.6,56.7,18.3,56.4,17.8,56.1z"/>
<path class="st0" d="M17.8,59c-0.8,0.4-1.7,0.7-2.8,0.9c1.1,0.2,2,0.5,2.8,0.9c0.5-0.3,0.8-0.6,0.8-0.9S18.3,59.3,17.8,59z"/>
<path class="st0" d="M17.8,61.9c-0.8,0.4-1.7,0.7-2.8,0.9c1.1,0.2,2,0.5,2.8,0.9c0.5-0.3,0.8-0.6,0.8-0.9S18.3,62.2,17.8,61.9z"/>
<path class="st0" d="M1.8,57.8c0.8-0.4,1.7-0.7,2.8-0.9c-1.1-0.2-2-0.5-2.8-0.9C1.3,56.4,1,56.7,1,57C1,57.2,1.3,57.5,1.8,57.8z"/>
<path class="st0" d="M3.1,61.3c1.5,0.5,3.8,0.9,6.7,0.9s5.2-0.4,6.7-0.9c-1.5-0.5-3.8-0.9-6.7-0.9C6.9,60.4,4.6,60.8,3.1,61.3z"/>
<path class="st0" d="M24.1,36.1c0.8-0.4,1.9-0.7,3.1-0.9c-1.2-0.2-2.3-0.5-3.1-0.9c-0.5,0.3-0.8,0.7-0.8,0.9S23.6,35.8,24.1,36.1z"
	/>
<path class="st0" d="M3.1,58.4c1.5,0.5,3.8,0.9,6.7,0.9s5.2-0.4,6.7-0.9c-1.5-0.5-3.8-0.9-6.7-0.9S4.6,57.9,3.1,58.4z"/>
<path class="st0" d="M1.8,52.1C2,52,2.3,51.8,2.6,51.7H1.3C1.4,51.8,1.6,52,1.8,52.1z"/>
<path class="st0" d="M1.8,55c0.8-0.4,1.7-0.7,2.8-0.9c-1.1-0.2-2-0.5-2.8-0.9C1.3,53.5,1,53.8,1,54.1S1.3,54.7,1.8,55z"/>
<path class="st0" d="M3.1,52.6c1.5,0.5,3.8,0.9,6.7,0.9s5.2-0.4,6.7-0.9c-1.5-0.5-3.8-0.9-6.7-0.9C6.9,51.7,4.6,52.1,3.1,52.6z"/>
<path class="st0" d="M3.1,55.5c1.5,0.5,3.8,0.9,6.7,0.9s5.2-0.4,6.7-0.9c-1.5-0.5-3.8-0.9-6.7-0.9S4.6,55,3.1,55.5z"/>
<path class="st0" d="M3.1,64.2c1.5,0.5,3.8,0.9,6.7,0.9s5.2-0.4,6.7-0.9c-1.5-0.5-3.8-0.9-6.7-0.9C6.9,63.3,4.6,63.7,3.1,64.2z"/>
<path class="st0" d="M25.4,39.7c1.6,0.6,4.1,1,7.2,1s5.6-0.4,7.2-1c-1.6-0.6-4.1-1-7.2-1C29.5,38.7,27,39.1,25.4,39.7z"/>
<path class="st0" d="M25.4,42.7c1.6,0.6,4.1,1,7.2,1s5.6-0.4,7.2-1c-1.6-0.6-4.1-1-7.2-1C29.5,41.7,27,42.2,25.4,42.7z"/>
<path class="st0" d="M25.4,45.8c1.6,0.6,4.1,1,7.2,1s5.6-0.4,7.2-1c-1.6-0.6-4.1-1-7.2-1C29.5,44.8,27,45.2,25.4,45.8z"/>
<path class="st0" d="M25.4,36.7c1.6,0.6,4.1,1,7.2,1s5.6-0.4,7.2-1c-1.6-0.6-4.1-1-7.2-1C29.5,35.7,27,36.1,25.4,36.7z"/>
<path class="st0" d="M24.1,33.1c0.3-0.2,0.7-0.3,1.1-0.4h-1.6C23.7,32.8,23.9,32.9,24.1,33.1z"/>
<path class="st0" d="M17.8,53.2c-0.8,0.4-1.7,0.7-2.8,0.9c1.1,0.2,2,0.5,2.8,0.9c0.5-0.3,0.8-0.6,0.8-0.9S18.3,53.5,17.8,53.2z"/>
<path class="st0" d="M25.4,48.8c1.6,0.6,4.1,1,7.2,1s5.6-0.4,7.2-1c-1.6-0.6-4.1-1-7.2-1C29.5,47.8,27,48.2,25.4,48.8z"/>
<path class="st0" d="M25.4,33.6c1.6,0.6,4.1,1,7.2,1s5.6-0.4,7.2-1c-1.6-0.6-4.1-1-7.2-1C29.5,32.7,27,33.1,25.4,33.6z"/>
<path class="st0" d="M9.8,48.9c-4.5,0-7.7,1-8.5,1.9h8.5h8.5C17.5,49.8,14.3,48.9,9.8,48.9z"/>
<path class="st0" d="M25.4,64c1.6,0.6,4.1,1,7.2,1s5.6-0.4,7.2-1c-1.6-0.6-4.1-1-7.2-1C29.5,63,27,63.4,25.4,64z"/>
<path class="st0" d="M17.8,52.1c0.2-0.1,0.4-0.2,0.5-0.3H17C17.3,51.8,17.5,52,17.8,52.1z"/>
<path class="st0" d="M25.4,54.9c1.6,0.6,4.1,1,7.2,1s5.6-0.4,7.2-1c-1.6-0.6-4.1-1-7.2-1C29.5,53.9,27,54.3,25.4,54.9z"/>
<path class="st0" d="M25.4,60.9c1.6,0.6,4.1,1,7.2,1s5.6-0.4,7.2-1c-1.6-0.6-4.1-1-7.2-1C29.5,59.9,27,60.4,25.4,60.9z"/>
<path class="st0" d="M25.4,57.9c1.6,0.6,4.1,1,7.2,1s5.6-0.4,7.2-1c-1.6-0.6-4.1-1-7.2-1C29.5,56.9,27,57.3,25.4,57.9z"/>
<path class="st0" d="M24.1,39.1c0.8-0.4,1.9-0.7,3.1-0.9c-1.2-0.2-2.3-0.5-3.1-0.9c-0.5,0.3-0.8,0.7-0.8,0.9S23.6,38.8,24.1,39.1z"
	/>
<path class="st0" d="M63.4,64.7c-0.3,0.1-0.5,0.2-0.9,0.3h1.3C63.8,65,63.6,64.9,63.4,64.7z"/>
<path class="st0" d="M47.4,63.6c0.8-0.4,1.7-0.7,2.8-0.9c-1.1-0.2-2-0.5-2.8-0.9c-0.5,0.3-0.8,0.6-0.8,0.9S46.9,63.3,47.4,63.6z"/>
<path class="st0" d="M63.4,53.2c-0.8,0.4-1.7,0.7-2.8,0.9c1.1,0.2,2,0.5,2.8,0.9c0.5-0.3,0.8-0.6,0.8-0.9S63.9,53.5,63.4,53.2z"/>
<path class="st0" d="M63.4,59c-0.8,0.4-1.7,0.7-2.8,0.9c1.1,0.2,2,0.5,2.8,0.9c0.5-0.3,0.8-0.6,0.8-0.9S63.9,59.3,63.4,59z"/>
<path class="st0" d="M46.9,66.1c0.9,0.9,4,1.9,8.5,1.9s7.7-1,8.5-1.9h-8.5H46.9z"/>
<path class="st0" d="M47.4,64.7c-0.2,0.1-0.4,0.2-0.5,0.3h1.3C47.9,65,47.6,64.9,47.4,64.7z"/>
<path class="st0" d="M63.4,61.9c-0.8,0.4-1.7,0.7-2.8,0.9c1.1,0.2,2,0.5,2.8,0.9c0.5-0.3,0.8-0.6,0.8-0.9S63.9,62.2,63.4,61.9z"/>
<path class="st0" d="M63.4,50.3c-0.8,0.4-1.7,0.7-2.8,0.9c1.1,0.2,2,0.5,2.8,0.9c0.5-0.3,0.8-0.6,0.8-0.9
	C64.2,50.9,63.9,50.6,63.4,50.3z"/>
<path class="st0" d="M63.4,49.2c0.2-0.1,0.3-0.2,0.5-0.3h-1.2C62.9,49,63.2,49.1,63.4,49.2z"/>
<path class="st1" d="M23.2,64c-0.6-0.4-0.9-0.9-0.9-1.5v3C22.3,64.9,22.6,64.4,23.2,64z"/>
<path class="st1" d="M23.2,51.8c-0.6-0.4-0.9-0.9-0.9-1.5v3C22.3,52.8,22.6,52.3,23.2,51.8z"/>
<path class="st1" d="M42,64c0.6,0.4,0.9,0.9,0.9,1.5v-3C42.9,63,42.5,63.5,42,64z"/>
<path class="st1" d="M23.2,60.9c-0.6-0.4-0.9-0.9-0.9-1.5v3C22.3,61.9,22.6,61.4,23.2,60.9z"/>
<path class="st1" d="M23.2,54.9c-0.6-0.4-0.9-0.9-0.9-1.5v3C22.3,55.8,22.6,55.3,23.2,54.9z"/>
<path class="st1" d="M42,45.8c0.6,0.4,0.9,0.9,0.9,1.5v-3C42.9,44.8,42.5,45.3,42,45.8z"/>
<path class="st1" d="M42,33.6c0.6,0.4,0.9,0.9,0.9,1.5v-3C42.9,32.7,42.5,33.2,42,33.6z"/>
<path class="st1" d="M23.2,57.9c-0.6-0.4-0.9-0.9-0.9-1.5v3C22.3,58.8,22.6,58.3,23.2,57.9z"/>
<path class="st1" d="M42,48.8c0.6,0.4,0.9,0.9,0.9,1.5v-3C42.9,47.9,42.5,48.4,42,48.8z"/>
<path class="st1" d="M42,51.8c0.6,0.4,0.9,0.9,0.9,1.5v-3C42.9,50.9,42.5,51.4,42,51.8z"/>
<path class="st1" d="M42,54.9c0.6,0.4,0.9,0.9,0.9,1.5v-3C42.9,53.9,42.5,54.4,42,54.9z"/>
<path class="st1" d="M42,42.7c0.6,0.4,0.9,0.9,0.9,1.5v-3C42.9,41.8,42.5,42.3,42,42.7z"/>
<path class="st1" d="M42,36.7c0.6,0.4,0.9,0.9,0.9,1.5v-3C42.9,35.7,42.5,36.2,42,36.7z"/>
<path class="st1" d="M42,39.7c0.6,0.4,0.9,0.9,0.9,1.5v-3C42.9,38.8,42.5,39.3,42,39.7z"/>
<path class="st1" d="M42,57.9c0.6,0.4,0.9,0.9,0.9,1.5v-3C42.9,57,42.5,57.5,42,57.9z"/>
<path class="st1" d="M42,60.9c0.6,0.4,0.9,0.9,0.9,1.5v-3C42.9,60,42.5,60.5,42,60.9z"/>
<path class="st1" d="M23.2,48.8c-0.6-0.4-0.9-0.9-0.9-1.5v3C22.3,49.7,22.6,49.2,23.2,48.8z"/>
<path class="st1" d="M23.2,33.6c-0.6-0.4-0.9-0.9-0.9-1.5v3C22.3,34.6,22.6,34.1,23.2,33.6z"/>
<path class="st1" d="M23.2,39.7c-0.6-0.4-0.9-0.9-0.9-1.5v3C22.3,40.6,22.6,40.1,23.2,39.7z"/>
<path class="st1" d="M23.2,45.8c-0.6-0.4-0.9-0.9-0.9-1.5v3C22.3,46.7,22.6,46.2,23.2,45.8z"/>
<path class="st1" d="M23.2,36.7c-0.6-0.4-0.9-0.9-0.9-1.5v3C22.3,37.6,22.6,37.1,23.2,36.7z"/>
<path class="st1" d="M23.2,42.7c-0.6-0.4-0.9-0.9-0.9-1.5v3C22.3,43.7,22.6,43.2,23.2,42.7z"/>
<path class="st1" d="M32.6,68c-4.9,0-8.2-1.1-9.1-2h-1.1c0.7,2,5.4,3,10.2,3c4.7,0,9.5-1,10.2-3h-1.1C40.8,66.9,37.5,68,32.6,68z"/>
<path class="st1" d="M41,63.4c0.3,0.2,0.6,0.3,0.8,0.5v-1.4C41.9,62.7,41.6,63.1,41,63.4z"/>
<path class="st1" d="M23.3,62.4v1.4c0.2-0.2,0.5-0.3,0.8-0.5C23.6,63.1,23.3,62.7,23.3,62.4z"/>
<path class="st1" d="M40,65c0.4-0.1,0.7-0.3,1.1-0.4c-0.3-0.2-0.8-0.4-1.3-0.6c-1.6,0.6-4.1,1-7.2,1H40z"/>
<path class="st1" d="M25.4,64c-0.5,0.2-0.9,0.4-1.3,0.6c0.3,0.2,0.7,0.3,1.1,0.4h7.4C29.5,65,27,64.5,25.4,64z"/>
<path class="st1" d="M42,60.9L42,60.9l-0.1,1.5v1.4l0.1,0.1c0.6-0.4,0.9-0.9,0.9-1.5S42.5,61.4,42,60.9z"/>
<path class="st1" d="M23.2,64l0.1-0.1v-1.4V61l-0.1-0.1c-0.6,0.4-0.9,0.9-0.9,1.5S22.6,63.5,23.2,64z"/>
<path class="st1" d="M25.2,65c2,0.7,4.7,1,7.4,1s5.4-0.3,7.4-1h-7.4H25.2z"/>
<path class="st1" d="M25.4,64c-0.5-0.2-0.9-0.4-1.3-0.6c-0.3,0.2-0.6,0.3-0.8,0.5V64c0.2,0.2,0.5,0.3,0.8,0.5
	C24.5,64.3,24.9,64.1,25.4,64z"/>
<path class="st1" d="M39.8,64c0.5,0.2,0.9,0.4,1.3,0.6c0.3-0.2,0.6-0.3,0.8-0.5v-0.2c-0.2-0.2-0.5-0.3-0.8-0.5
	C40.7,63.6,40.3,63.8,39.8,64z"/>
<path class="st1" d="M23.2,64l0.1,0.1v-0.2C23.3,63.9,23.2,63.9,23.2,64z"/>
<path class="st1" d="M42,64L42,64L42,64C41.9,64,41.9,64,42,64z"/>
<path class="st1" d="M25.4,60.9c-0.5,0.2-0.9,0.4-1.3,0.6c0.8,0.4,1.9,0.7,3.1,0.9c1.6-0.3,3.5-0.5,5.3-0.5c1.9,0,3.7,0.2,5.3,0.5
	c1.2-0.2,2.3-0.5,3.1-0.9c-0.3-0.2-0.8-0.4-1.3-0.6c-1.6,0.6-4.1,1-7.2,1C29.5,61.9,27,61.5,25.4,60.9z"/>
<path class="st1" d="M23.3,59.4v1.4c0.2-0.2,0.5-0.3,0.8-0.5C23.6,60,23.3,59.7,23.3,59.4z"/>
<path class="st1" d="M41,60.4c0.3,0.2,0.6,0.3,0.8,0.5v-1.4C41.9,59.7,41.6,60,41,60.4z"/>
<path class="st1" d="M42,57.9L42,57.9l-0.1,1.5v1.4l0.1,0.1c0.6-0.4,0.9-0.9,0.9-1.5S42.5,58.3,42,57.9z"/>
<path class="st1" d="M23.2,60.9l0.1-0.1v-1.4V58l-0.1-0.1c-0.6,0.4-0.9,0.9-0.9,1.5S22.6,60.5,23.2,60.9z"/>
<path class="st1" d="M27.3,62.4c1.6,0.3,3.5,0.5,5.3,0.5c1.9,0,3.7-0.2,5.3-0.5c-1.6-0.3-3.5-0.5-5.3-0.5
	C30.7,62,28.9,62.1,27.3,62.4z"/>
<path class="st1" d="M39.8,60.9c0.5,0.2,0.9,0.4,1.3,0.6c0.3-0.2,0.6-0.3,0.8-0.5v-0.2c-0.2-0.2-0.5-0.3-0.8-0.5
	C40.7,60.6,40.3,60.8,39.8,60.9z"/>
<path class="st1" d="M25.4,60.9c-0.5-0.2-0.9-0.4-1.3-0.6c-0.3,0.2-0.6,0.3-0.8,0.5V61c0.2,0.2,0.5,0.3,0.8,0.5
	C24.5,61.3,24.9,61.1,25.4,60.9z"/>
<path class="st1" d="M42,60.9L42,60.9L42,60.9C41.9,61,41.9,61,42,60.9z"/>
<path class="st1" d="M23.2,60.9l0.1,0.1v-0.2C23.3,60.9,23.2,60.9,23.2,60.9z"/>
<path class="st1" d="M25.4,57.9c-0.5,0.2-0.9,0.4-1.3,0.6c0.8,0.4,1.9,0.7,3.1,0.9c1.6-0.3,3.5-0.5,5.3-0.5c1.9,0,3.7,0.2,5.3,0.5
	c1.2-0.2,2.3-0.5,3.1-0.9c-0.3-0.2-0.8-0.4-1.3-0.6c-1.6,0.6-4.1,1-7.2,1C29.5,58.9,27,58.5,25.4,57.9z"/>
<path class="st1" d="M41,57.3c0.3,0.2,0.6,0.3,0.8,0.5v-1.4C41.9,56.7,41.6,57,41,57.3z"/>
<path class="st1" d="M23.3,56.4v1.4c0.2-0.2,0.5-0.3,0.8-0.5C23.6,57,23.3,56.7,23.3,56.4z"/>
<path class="st1" d="M42,54.9L42,54.9l-0.1,1.5v1.4l0.1,0.1c0.6-0.4,0.9-0.9,0.9-1.5S42.5,55.3,42,54.9z"/>
<path class="st1" d="M23.2,57.9l0.1-0.1v-1.4V55l-0.1-0.1c-0.6,0.4-0.9,0.9-0.9,1.5S22.6,57.5,23.2,57.9z"/>
<path class="st1" d="M27.3,59.4c1.6,0.3,3.5,0.5,5.3,0.5c1.9,0,3.7-0.2,5.3-0.5c-1.6-0.3-3.5-0.5-5.3-0.5
	C30.7,58.9,28.9,59.1,27.3,59.4z"/>
<path class="st1" d="M39.8,57.9c0.5,0.2,0.9,0.4,1.3,0.6c0.3-0.2,0.6-0.3,0.8-0.5v-0.2c-0.2-0.2-0.5-0.3-0.8-0.5
	C40.7,57.5,40.3,57.7,39.8,57.9z"/>
<path class="st1" d="M25.4,57.9c-0.5-0.2-0.9-0.4-1.3-0.6c-0.3,0.2-0.6,0.3-0.8,0.5V58c0.2,0.2,0.5,0.3,0.8,0.5
	C24.5,58.3,24.9,58.1,25.4,57.9z"/>
<path class="st1" d="M23.2,57.9l0.1,0.1v-0.2C23.3,57.8,23.2,57.9,23.2,57.9z"/>
<path class="st1" d="M42,57.9L42,57.9L42,57.9C41.9,57.9,41.9,57.9,42,57.9z"/>
<path class="st1" d="M25.4,54.9c-0.5,0.2-0.9,0.4-1.3,0.6c0.8,0.4,1.9,0.7,3.1,0.9c1.6-0.3,3.5-0.5,5.3-0.5c1.9,0,3.7,0.2,5.3,0.5
	c1.2-0.2,2.3-0.5,3.1-0.9c-0.3-0.2-0.8-0.4-1.3-0.6c-1.6,0.6-4.1,1-7.2,1C29.5,55.9,27,55.4,25.4,54.9z"/>
<path class="st1" d="M41,54.3c0.3,0.2,0.6,0.3,0.8,0.5v-1.4C41.9,53.6,41.6,54,41,54.3z"/>
<path class="st1" d="M23.3,53.4v1.4c0.2-0.2,0.5-0.3,0.8-0.5C23.6,54,23.3,53.6,23.3,53.4z"/>
<path class="st1" d="M42,51.8L42,51.8l-0.1,1.5v1.4l0.1,0.1c0.6-0.4,0.9-0.9,0.9-1.5S42.5,52.3,42,51.8z"/>
<path class="st1" d="M23.2,54.9l0.1-0.1v-1.4V52l-0.1-0.1c-0.6,0.4-0.9,0.9-0.9,1.5S22.6,54.4,23.2,54.9z"/>
<path class="st1" d="M27.3,56.4c1.6,0.3,3.5,0.5,5.3,0.5c1.9,0,3.7-0.2,5.3-0.5c-1.6-0.3-3.5-0.5-5.3-0.5
	C30.7,55.9,28.9,56.1,27.3,56.4z"/>
<path class="st1" d="M39.8,54.9c0.5,0.2,0.9,0.4,1.3,0.6c0.3-0.2,0.6-0.3,0.8-0.5v-0.2c-0.2-0.2-0.5-0.3-0.8-0.5
	C40.7,54.5,40.3,54.7,39.8,54.9z"/>
<path class="st1" d="M25.4,54.9c-0.5-0.2-0.9-0.4-1.3-0.6c-0.3,0.2-0.6,0.3-0.8,0.5V55c0.2,0.2,0.5,0.3,0.8,0.5
	C24.5,55.2,24.9,55,25.4,54.9z"/>
<path class="st1" d="M42,54.9L42,54.9L41.9,55C41.9,54.9,41.9,54.9,42,54.9z"/>
<path class="st1" d="M23.2,54.9l0.1,0.1v-0.2C23.3,54.8,23.2,54.8,23.2,54.9z"/>
<path class="st1" d="M25.4,51.8c-0.5,0.2-0.9,0.4-1.3,0.6c0.8,0.4,1.9,0.7,3.1,0.9c1.6-0.3,3.5-0.5,5.3-0.5c1.9,0,3.7,0.2,5.3,0.5
	c1.2-0.2,2.3-0.5,3.1-0.9c-0.3-0.2-0.8-0.4-1.3-0.6c-1.6,0.6-4.1,1-7.2,1C29.5,52.8,27,52.4,25.4,51.8z"/>
<path class="st1" d="M41,51.3c0.3,0.2,0.6,0.3,0.8,0.5v-1.4C41.9,50.6,41.6,50.9,41,51.3z"/>
<path class="st1" d="M23.3,50.3v1.4c0.2-0.2,0.5-0.3,0.8-0.5C23.6,50.9,23.3,50.6,23.3,50.3z"/>
<path class="st1" d="M23.2,51.8l0.1-0.1v-1.4v-1.4l-0.1-0.1c-0.6,0.4-0.9,0.9-0.9,1.5S22.6,51.4,23.2,51.8z"/>
<path class="st1" d="M42,48.8L42,48.8l-0.1,1.5v1.4l0.1,0.1c0.6-0.4,0.9-0.9,0.9-1.5S42.5,49.2,42,48.8z"/>
<path class="st1" d="M27.3,53.4c1.6,0.3,3.5,0.5,5.3,0.5c1.9,0,3.7-0.2,5.3-0.5c-1.6-0.3-3.5-0.5-5.3-0.5
	C30.7,52.9,28.9,53,27.3,53.4z"/>
<path class="st1" d="M39.8,51.8c0.5,0.2,0.9,0.4,1.3,0.6c0.3-0.2,0.6-0.3,0.8-0.5v-0.2c-0.2-0.2-0.5-0.3-0.8-0.5
	C40.7,51.5,40.3,51.7,39.8,51.8z"/>
<path class="st1" d="M25.4,51.8c-0.5-0.2-0.9-0.4-1.3-0.6c-0.3,0.2-0.6,0.3-0.8,0.5v0.2c0.2,0.2,0.5,0.3,0.8,0.5
	C24.5,52.2,24.9,52,25.4,51.8z"/>
<path class="st1" d="M42,51.8L42,51.8l-0.1,0.1C41.9,51.9,41.9,51.9,42,51.8z"/>
<path class="st1" d="M23.2,51.8l0.1,0.1v-0.2C23.3,51.8,23.2,51.8,23.2,51.8z"/>
<path class="st1" d="M41,48.2c0.3,0.2,0.6,0.3,0.8,0.5v-1.4C41.9,47.6,41.6,47.9,41,48.2z"/>
<path class="st1" d="M23.3,47.3v1.4c0.2-0.2,0.5-0.3,0.8-0.5C23.6,47.9,23.3,47.6,23.3,47.3z"/>
<path class="st1" d="M25.4,48.8c-0.5,0.2-0.9,0.4-1.3,0.6c0.8,0.4,1.9,0.7,3.1,0.9c1.6-0.3,3.5-0.5,5.3-0.5c1.9,0,3.7,0.2,5.3,0.5
	c1.2-0.2,2.3-0.5,3.1-0.9c-0.3-0.2-0.8-0.4-1.3-0.6c-1.6,0.6-4.1,1-7.2,1C29.5,49.8,27,49.4,25.4,48.8z"/>
<path class="st1" d="M42,45.8C42,45.8,41.9,45.8,42,45.8l-0.1,1.5v1.4l0.1,0.1c0.6-0.4,0.9-0.9,0.9-1.5S42.5,46.2,42,45.8z"/>
<path class="st1" d="M23.2,48.8l0.1-0.1v-1.4v-1.4c0,0-0.1,0-0.1-0.1c-0.6,0.4-0.9,0.9-0.9,1.5C22.3,47.9,22.6,48.4,23.2,48.8z"/>
<path class="st1" d="M27.3,50.3c1.6,0.3,3.5,0.5,5.3,0.5c1.9,0,3.7-0.2,5.3-0.5c-1.6-0.3-3.5-0.5-5.3-0.5
	C30.7,49.8,28.9,50,27.3,50.3z"/>
<path class="st1" d="M39.8,48.8c0.5,0.2,0.9,0.4,1.3,0.6c0.3-0.2,0.6-0.3,0.8-0.5v-0.2c-0.2-0.2-0.5-0.3-0.8-0.5
	C40.7,48.4,40.3,48.6,39.8,48.8z"/>
<path class="st1" d="M25.4,48.8c-0.5-0.2-0.9-0.4-1.3-0.6c-0.3,0.2-0.6,0.3-0.8,0.5v0.2c0.2,0.2,0.5,0.3,0.8,0.5
	C24.5,49.2,24.9,49,25.4,48.8z"/>
<path class="st1" d="M42,48.8L42,48.8l-0.1,0.1C41.9,48.9,41.9,48.8,42,48.8z"/>
<path class="st1" d="M23.2,48.8l0.1,0.1v-0.2C23.3,48.8,23.2,48.8,23.2,48.8z"/>
<path class="st1" d="M41,45.2c0.3,0.2,0.6,0.3,0.8,0.5v-1.4C41.9,44.5,41.6,44.9,41,45.2z"/>
<path class="st1" d="M25.4,45.8c-0.5,0.2-0.9,0.4-1.3,0.6c0.8,0.4,1.9,0.7,3.1,0.9c1.6-0.3,3.5-0.5,5.3-0.5s3.7,0.2,5.3,0.5
	c1.2-0.2,2.3-0.5,3.1-0.9c-0.3-0.2-0.8-0.4-1.3-0.6c-1.6,0.6-4.1,1-7.2,1C29.5,46.8,27,46.3,25.4,45.8z"/>
<path class="st1" d="M23.3,44.3v1.4c0.2-0.2,0.5-0.3,0.8-0.5C23.6,44.9,23.3,44.5,23.3,44.3z"/>
<path class="st1" d="M23.2,45.8c0,0,0.1,0,0.1-0.1v-1.4v-1.4l-0.1-0.1c-0.6,0.4-0.9,0.9-0.9,1.5C22.3,44.8,22.6,45.3,23.2,45.8z"/>
<path class="st1" d="M42,42.7L42,42.7l-0.1,1.5v1.4c0,0,0.1,0,0.1,0.1c0.6-0.4,0.9-0.9,0.9-1.5C42.9,43.7,42.5,43.2,42,42.7z"/>
<path class="st1" d="M27.3,47.3c1.6,0.3,3.5,0.5,5.3,0.5s3.7-0.2,5.3-0.5c-1.6-0.3-3.5-0.5-5.3-0.5C30.7,46.8,28.9,47,27.3,47.3z"/>
<path class="st1" d="M25.4,45.8c-0.5-0.2-0.9-0.4-1.3-0.6c-0.3,0.2-0.6,0.3-0.8,0.5v0.2c0.2,0.2,0.5,0.3,0.8,0.5
	C24.5,46.1,24.9,45.9,25.4,45.8z"/>
<path class="st1" d="M39.8,45.8c0.5,0.2,0.9,0.4,1.3,0.6c0.3-0.2,0.6-0.3,0.8-0.5v-0.2c-0.2-0.2-0.5-0.3-0.8-0.5
	C40.7,45.4,40.3,45.6,39.8,45.8z"/>
<path class="st1" d="M23.2,45.8c0,0,0.1,0,0.1,0.1v-0.2C23.3,45.7,23.2,45.7,23.2,45.8z"/>
<path class="st1" d="M42,45.8C42,45.8,41.9,45.8,42,45.8l-0.1,0.1C41.9,45.8,41.9,45.8,42,45.8z"/>
<path class="st1" d="M23.3,41.2v1.4c0.2-0.2,0.5-0.3,0.8-0.5C23.6,41.8,23.3,41.5,23.3,41.2z"/>
<path class="st1" d="M25.4,42.7c-0.5,0.2-0.9,0.4-1.3,0.6c0.8,0.4,1.9,0.7,3.1,1c1.6-0.3,3.5-0.5,5.3-0.5s3.7,0.2,5.3,0.5
	c1.2-0.2,2.3-0.5,3.1-1c-0.3-0.2-0.8-0.4-1.3-0.6c-1.6,0.6-4.1,1-7.2,1C29.5,43.7,27,43.3,25.4,42.7z"/>
<path class="st1" d="M41,42.2c0.3,0.2,0.6,0.3,0.8,0.5v-1.4C41.9,41.5,41.6,41.8,41,42.2z"/>
<path class="st1" d="M23.2,42.7l0.1-0.1v-1.4v-1.4l-0.1-0.1c-0.6,0.4-0.9,0.9-0.9,1.5S22.6,42.3,23.2,42.7z"/>
<path class="st1" d="M42,39.7L42,39.7l-0.1,1.5v1.4l0.1,0.1c0.6-0.4,0.9-0.9,0.9-1.5S42.5,40.1,42,39.7z"/>
<path class="st1" d="M27.3,44.3c1.6,0.3,3.5,0.5,5.3,0.5s3.7-0.2,5.3-0.5c-1.6-0.3-3.5-0.5-5.3-0.5C30.7,43.8,28.9,43.9,27.3,44.3z"
	/>
<path class="st1" d="M39.8,42.7c0.5,0.2,0.9,0.4,1.3,0.6c0.3-0.2,0.6-0.3,0.8-0.5v-0.2c-0.2-0.2-0.5-0.3-0.8-0.5
	C40.7,42.4,40.3,42.6,39.8,42.7z"/>
<path class="st1" d="M25.4,42.7c-0.5-0.2-0.9-0.4-1.3-0.6c-0.3,0.2-0.6,0.3-0.8,0.5v0.2c0.2,0.2,0.5,0.3,0.8,0.5
	C24.5,43.1,24.9,42.9,25.4,42.7z"/>
<path class="st1" d="M42,42.7L42,42.7l-0.1,0.1C41.9,42.8,41.9,42.8,42,42.7z"/>
<path class="st1" d="M23.2,42.7l0.1,0.1v-0.2C23.3,42.7,23.2,42.7,23.2,42.7z"/>
<path class="st1" d="M23.3,38.2v1.4c0.2-0.2,0.5-0.3,0.8-0.5C23.6,38.8,23.3,38.5,23.3,38.2z"/>
<path class="st1" d="M41,39.1c0.3,0.2,0.6,0.3,0.8,0.5v-1.4C41.9,38.5,41.6,38.8,41,39.1z"/>
<path class="st1" d="M25.4,39.7c-0.5,0.2-0.9,0.4-1.3,0.6c0.8,0.4,1.9,0.7,3.1,0.9c1.6-0.3,3.5-0.5,5.3-0.5c1.9,0,3.7,0.2,5.3,0.5
	c1.2-0.2,2.3-0.5,3.1-0.9c-0.3-0.2-0.8-0.4-1.3-0.6c-1.6,0.6-4.1,1-7.2,1C29.5,40.7,27,40.3,25.4,39.7z"/>
<path class="st1" d="M23.2,39.7l0.1-0.1v-1.4v-1.4l-0.1-0.1c-0.6,0.4-0.9,0.9-0.9,1.5S22.6,39.3,23.2,39.7z"/>
<path class="st1" d="M42,36.7L42,36.7l-0.1,1.5v1.4l0.1,0.1c0.6-0.4,0.9-0.9,0.9-1.5S42.5,37.1,42,36.7z"/>
<path class="st1" d="M27.3,41.2c1.6,0.3,3.5,0.5,5.3,0.5c1.9,0,3.7-0.2,5.3-0.5c-1.6-0.3-3.5-0.5-5.3-0.5
	C30.7,40.7,28.9,40.9,27.3,41.2z"/>
<path class="st1" d="M39.8,39.7c0.5,0.2,0.9,0.4,1.3,0.6c0.3-0.2,0.6-0.3,0.8-0.5v-0.2c-0.2-0.2-0.5-0.3-0.8-0.5
	C40.7,39.3,40.3,39.5,39.8,39.7z"/>
<path class="st1" d="M25.4,39.7c-0.5-0.2-0.9-0.4-1.3-0.6c-0.3,0.2-0.6,0.3-0.8,0.5v0.2c0.2,0.2,0.5,0.3,0.8,0.5
	C24.5,40.1,24.9,39.9,25.4,39.7z"/>
<path class="st1" d="M23.2,39.7l0.1,0.1v-0.2C23.3,39.7,23.2,39.7,23.2,39.7z"/>
<path class="st1" d="M42,39.7L42,39.7l-0.1,0.1C41.9,39.8,41.9,39.7,42,39.7z"/>
<path class="st1" d="M23.3,35.2v1.4c0.2-0.2,0.5-0.3,0.8-0.5C23.6,35.8,23.3,35.5,23.3,35.2z"/>
<path class="st1" d="M25.4,36.7c-0.5,0.2-0.9,0.4-1.3,0.6c0.8,0.4,1.9,0.7,3.1,0.9c1.6-0.3,3.5-0.5,5.3-0.5c1.9,0,3.7,0.2,5.3,0.5
	c1.2-0.2,2.3-0.5,3.1-0.9c-0.3-0.2-0.8-0.4-1.3-0.6c-1.6,0.6-4.1,1-7.2,1C29.5,37.7,27,37.2,25.4,36.7z"/>
<path class="st1" d="M41,36.1c0.3,0.2,0.6,0.3,0.8,0.5v-1.4C41.9,35.5,41.6,35.8,41,36.1z"/>
<path class="st1" d="M23.2,36.7l0.1-0.1v-1.4v-1.4l-0.1-0.1c-0.6,0.4-0.9,0.9-0.9,1.5S22.6,36.2,23.2,36.7z"/>
<path class="st1" d="M42,33.6L42,33.6l-0.1,1.5v1.4l0.1,0.1c0.6-0.4,0.9-0.9,0.9-1.5S42.5,34.1,42,33.6z"/>
<path class="st1" d="M27.3,38.2c1.6,0.3,3.5,0.5,5.3,0.5c1.9,0,3.7-0.2,5.3-0.5c-1.6-0.3-3.5-0.5-5.3-0.5
	C30.7,37.7,28.9,37.9,27.3,38.2z"/>
<path class="st1" d="M39.8,36.7c0.5,0.2,0.9,0.4,1.3,0.6c0.3-0.2,0.6-0.3,0.8-0.5v-0.2c-0.2-0.2-0.5-0.3-0.8-0.5
	C40.7,36.3,40.3,36.5,39.8,36.7z"/>
<path class="st1" d="M25.4,36.7c-0.5-0.2-0.9-0.4-1.3-0.6c-0.3,0.2-0.6,0.3-0.8,0.5v0.2c0.2,0.2,0.5,0.3,0.8,0.5
	C24.5,37,24.9,36.9,25.4,36.7z"/>
<path class="st1" d="M23.2,36.7l0.1,0.1v-0.2C23.3,36.6,23.2,36.6,23.2,36.7z"/>
<path class="st1" d="M42,36.7L42,36.7l-0.1,0.1C41.9,36.7,41.9,36.7,42,36.7z"/>
<path class="st1" d="M41,33.1c0.3,0.2,0.6,0.3,0.8,0.5v-0.9h-0.3C41.5,32.8,41.3,32.9,41,33.1z"/>
<path class="st1" d="M23.6,32.7h-0.3v0.9c0.2-0.2,0.5-0.3,0.8-0.5C23.9,32.9,23.7,32.8,23.6,32.7z"/>
<path class="st1" d="M25.4,33.6c-0.5,0.2-0.9,0.4-1.3,0.6c0.8,0.4,1.9,0.7,3.1,0.9c1.6-0.3,3.5-0.5,5.3-0.5c1.9,0,3.7,0.2,5.3,0.5
	c1.2-0.2,2.3-0.5,3.1-0.9c-0.3-0.2-0.8-0.4-1.3-0.6c-1.6,0.6-4.1,1-7.2,1C29.5,34.6,27,34.2,25.4,33.6z"/>
<path class="st1" d="M32.6,29.6c4.9,0,8.2,1.1,9.1,2h1.1c-0.7-2-5.4-3-10.2-3c-4.7,0-9.5,1-10.2,3h1.1
	C24.4,30.7,27.7,29.6,32.6,29.6z"/>
<path class="st1" d="M23.2,33.6l0.1-0.1v-0.9h0.3c-0.2-0.2-0.3-0.4-0.3-0.5c0-0.2,0.1-0.3,0.2-0.5h-1.1c-0.1,0.2-0.1,0.3-0.1,0.5
	C22.3,32.7,22.6,33.2,23.2,33.6z"/>
<path class="st1" d="M41.6,31.7c0.1,0.2,0.2,0.3,0.2,0.5s-0.1,0.3-0.3,0.5h0.3v0.9l0.1,0.1c0.6-0.4,0.9-0.9,0.9-1.5
	c0-0.2,0-0.3-0.1-0.5H41.6z"/>
<path class="st1" d="M27.3,35.2c1.6,0.3,3.5,0.5,5.3,0.5c1.9,0,3.7-0.2,5.3-0.5c-1.6-0.3-3.5-0.5-5.3-0.5
	C30.7,34.7,28.9,34.8,27.3,35.2z"/>
<path class="st1" d="M39.8,33.6c0.5,0.2,0.9,0.4,1.3,0.6c0.3-0.2,0.6-0.3,0.8-0.5v-0.2c-0.2-0.2-0.5-0.3-0.8-0.5
	C40.7,33.3,40.3,33.5,39.8,33.6z"/>
<path class="st1" d="M25.4,33.6c-0.5-0.2-0.9-0.4-1.3-0.6c-0.3,0.2-0.6,0.3-0.8,0.5v0.2c0.2,0.2,0.5,0.3,0.8,0.5
	C24.5,34,24.9,33.8,25.4,33.6z"/>
<path class="st1" d="M23.2,33.6l0.1,0.1v-0.2C23.3,33.6,23.2,33.6,23.2,33.6z"/>
<path class="st1" d="M42,33.6L42,33.6l-0.1,0.1C41.9,33.7,41.9,33.7,42,33.6z"/>
<path class="st1" d="M46.4,55.5c-0.5-0.4-0.8-0.9-0.8-1.4V57C45.6,56.4,45.9,55.9,46.4,55.5z"/>
<path class="st1" d="M46.4,64.2c-0.5-0.4-0.8-0.9-0.8-1.4v2.9C45.6,65.1,45.9,64.6,46.4,64.2z"/>
<path class="st1" d="M64.4,64.2c0.5,0.4,0.8,0.9,0.8,1.4v-2.9C65.2,63.3,64.9,63.8,64.4,64.2z"/>
<path class="st1" d="M46.4,52.6c-0.5-0.4-0.8-0.9-0.8-1.4v2.9C45.6,53.5,45.9,53.1,46.4,52.6z"/>
<path class="st1" d="M64.4,58.4c0.5,0.4,0.8,0.9,0.8,1.4V57C65.2,57.5,64.9,58,64.4,58.4z"/>
<path class="st1" d="M64.4,49.8c0.5,0.4,0.8,0.9,0.8,1.4v-2.9C65.2,48.9,64.9,49.4,64.4,49.8z"/>
<path class="st1" d="M64.4,52.6c0.5,0.4,0.8,0.9,0.8,1.4v-2.9C65.2,51.8,64.9,52.2,64.4,52.6z"/>
<path class="st1" d="M64.4,55.5c0.5,0.4,0.8,0.9,0.8,1.4V54C65.2,54.6,64.9,55.1,64.4,55.5z"/>
<path class="st1" d="M46.4,49.8c-0.5-0.4-0.8-0.9-0.8-1.4v2.9C45.6,50.7,45.9,50.2,46.4,49.8z"/>
<path class="st1" d="M64.4,61.3c0.5,0.4,0.8,0.9,0.8,1.4v-2.9C65.2,60.4,64.9,60.9,64.4,61.3z"/>
<path class="st1" d="M46.4,61.3c-0.5-0.4-0.8-0.9-0.8-1.4v2.9C45.6,62.2,45.9,61.7,46.4,61.3z"/>
<path class="st1" d="M46.4,58.4c-0.5-0.4-0.8-0.9-0.8-1.4v2.9C45.6,59.3,45.9,58.8,46.4,58.4z"/>
<path class="st1" d="M55.4,68c-4.5,0-7.7-1-8.5-1.9h-1.2c0.7,1.9,5.2,2.9,9.7,2.9s9-1,9.7-2.9h-1.2C63.1,67,59.9,68,55.4,68z"/>
<path class="st1" d="M48.7,64.2c-0.5,0.2-1,0.4-1.3,0.6c0.3,0.1,0.5,0.2,0.9,0.3h7.2C52.5,65.1,50.2,64.7,48.7,64.2z"/>
<path class="st1" d="M63.4,63.6c0.3,0.1,0.6,0.3,0.8,0.5v-1.3C64.2,63,63.9,63.3,63.4,63.6z"/>
<path class="st1" d="M62.5,65.1c0.3-0.1,0.6-0.2,0.9-0.3c-0.3-0.2-0.8-0.4-1.3-0.6c-1.5,0.5-3.8,0.9-6.7,0.9H62.5z"/>
<path class="st1" d="M46.6,62.7V64c0.2-0.2,0.5-0.3,0.8-0.5C46.9,63.3,46.6,63,46.6,62.7z"/>
<path class="st1" d="M64.4,61.3c-0.1,0-0.1,0.1-0.2,0.1v1.3V64c0.1,0,0.1,0.1,0.2,0.1c0.5-0.4,0.8-0.9,0.8-1.4
	C65.2,62.2,64.9,61.7,64.4,61.3z"/>
<path class="st1" d="M46.4,64.2c0.1,0,0.1-0.1,0.2-0.1v-1.3v-1.3c-0.1,0-0.1-0.1-0.2-0.1c-0.5,0.4-0.8,0.9-0.8,1.4
	C45.6,63.3,45.9,63.8,46.4,64.2z"/>
<path class="st1" d="M48.2,65.1c1.9,0.7,4.5,1,7.2,1s5.3-0.3,7.2-1h-7.2H48.2z"/>
<path class="st1" d="M62.1,64.2c0.5,0.2,1,0.4,1.3,0.6c0.3-0.1,0.6-0.3,0.8-0.5v-0.2c-0.2-0.2-0.5-0.3-0.8-0.5
	C63.1,63.8,62.6,64,62.1,64.2z"/>
<path class="st1" d="M48.7,64.2c-0.5-0.2-1-0.4-1.3-0.6c-0.3,0.1-0.6,0.3-0.8,0.5v0.2c0.2,0.2,0.5,0.3,0.8,0.5
	C47.7,64.5,48.2,64.4,48.7,64.2z"/>
<path class="st1" d="M64.4,64.2c-0.1,0-0.1-0.1-0.2-0.1v0.2C64.2,64.3,64.3,64.2,64.4,64.2z"/>
<path class="st1" d="M46.4,64.2c0.1,0,0.1,0.1,0.2,0.1v-0.2C46.5,64.1,46.5,64.1,46.4,64.2z"/>
<path class="st1" d="M46.6,59.9v1.3c0.2-0.2,0.5-0.3,0.8-0.5C46.9,60.4,46.6,60.1,46.6,59.9z"/>
<path class="st1" d="M63.4,60.7c0.3,0.1,0.6,0.3,0.8,0.5v-1.3C64.2,60.1,63.9,60.4,63.4,60.7z"/>
<path class="st1" d="M48.7,61.3c-0.5,0.2-1,0.4-1.3,0.6c0.8,0.4,1.7,0.7,2.8,0.9c1.6-0.3,3.4-0.5,5.2-0.5s3.6,0.2,5.2,0.5
	c1.1-0.2,2-0.5,2.8-0.9c-0.3-0.2-0.8-0.4-1.3-0.6c-1.5,0.5-3.8,0.9-6.7,0.9S50.2,61.8,48.7,61.3z"/>
<path class="st1" d="M46.4,61.3c0.1,0,0.1-0.1,0.2-0.1v-1.3v-1.3c-0.1,0-0.1-0.1-0.2-0.1c-0.5,0.4-0.8,0.9-0.8,1.4
	C45.6,60.4,45.9,60.9,46.4,61.3z"/>
<path class="st1" d="M64.4,58.4c-0.1,0-0.1,0.1-0.2,0.1v1.3v1.3c0.1,0,0.1,0.1,0.2,0.1c0.5-0.4,0.8-0.9,0.8-1.4
	C65.2,59.3,64.9,58.8,64.4,58.4z"/>
<path class="st1" d="M50.2,62.7c1.6,0.3,3.4,0.5,5.2,0.5s3.6-0.2,5.2-0.5c-1.6-0.3-3.4-0.5-5.2-0.5S51.8,62.4,50.2,62.7z"/>
<path class="st1" d="M48.7,61.3c-0.5-0.2-1-0.4-1.3-0.6c-0.3,0.1-0.6,0.3-0.8,0.5v0.2c0.2,0.2,0.5,0.3,0.8,0.5
	C47.7,61.7,48.2,61.5,48.7,61.3z"/>
<path class="st1" d="M62.1,61.3c0.5,0.2,1,0.4,1.3,0.6c0.3-0.1,0.6-0.3,0.8-0.5v-0.2c-0.2-0.2-0.5-0.3-0.8-0.5
	C63.1,60.9,62.6,61.1,62.1,61.3z"/>
<path class="st1" d="M64.4,61.3c-0.1,0-0.1-0.1-0.2-0.1v0.2C64.2,61.4,64.3,61.3,64.4,61.3z"/>
<path class="st1" d="M46.4,61.3c0.1,0,0.1,0.1,0.2,0.1v-0.2C46.5,61.2,46.5,61.3,46.4,61.3z"/>
<path class="st1" d="M46.6,57v1.3c0.2-0.2,0.5-0.3,0.8-0.5C46.9,57.5,46.6,57.2,46.6,57z"/>
<path class="st1" d="M63.4,57.8c0.3,0.1,0.6,0.3,0.8,0.5V57C64.2,57.2,63.9,57.5,63.4,57.8z"/>
<path class="st1" d="M48.7,58.4c-0.5,0.2-1,0.4-1.3,0.6c0.8,0.4,1.7,0.7,2.8,0.9c1.6-0.3,3.4-0.5,5.2-0.5s3.6,0.2,5.2,0.5
	c1.1-0.2,2-0.5,2.8-0.9c-0.3-0.2-0.8-0.4-1.3-0.6c-1.5,0.5-3.8,0.9-6.7,0.9S50.2,58.9,48.7,58.4z"/>
<path class="st1" d="M64.4,55.5c-0.1,0-0.1,0.1-0.2,0.1V57v1.3c0.1,0,0.1,0.1,0.2,0.1c0.5-0.4,0.8-0.9,0.8-1.4
	C65.2,56.4,64.9,55.9,64.4,55.5z"/>
<path class="st1" d="M46.4,58.4c0.1,0,0.1-0.1,0.2-0.1V57v-1.3c-0.1,0-0.1-0.1-0.2-0.1c-0.5,0.4-0.8,0.9-0.8,1.4
	C45.6,57.5,45.9,58,46.4,58.4z"/>
<path class="st1" d="M50.2,59.9c1.6,0.3,3.4,0.5,5.2,0.5s3.6-0.2,5.2-0.5c-1.6-0.3-3.4-0.5-5.2-0.5S51.8,59.5,50.2,59.9z"/>
<path class="st1" d="M48.7,58.4c-0.5-0.2-1-0.4-1.3-0.6c-0.3,0.1-0.6,0.3-0.8,0.5v0.2c0.2,0.2,0.5,0.3,0.8,0.5
	C47.7,58.8,48.2,58.6,48.7,58.4z"/>
<path class="st1" d="M62.1,58.4c0.5,0.2,1,0.4,1.3,0.6c0.3-0.1,0.6-0.3,0.8-0.5v-0.2c-0.2-0.2-0.5-0.3-0.8-0.5
	C63.1,58,62.6,58.2,62.1,58.4z"/>
<path class="st1" d="M64.4,58.4c-0.1,0-0.1-0.1-0.2-0.1v0.2C64.2,58.5,64.3,58.5,64.4,58.4z"/>
<path class="st1" d="M46.4,58.4c0.1,0,0.1,0.1,0.2,0.1v-0.2C46.5,58.3,46.5,58.4,46.4,58.4z"/>
<path class="st1" d="M48.7,55.5c-0.5,0.2-1,0.4-1.3,0.6c0.8,0.4,1.7,0.7,2.8,0.9c1.6-0.3,3.4-0.5,5.2-0.5s3.6,0.2,5.2,0.5
	c1.1-0.2,2-0.5,2.8-0.9c-0.3-0.2-0.8-0.4-1.3-0.6c-1.5,0.5-3.8,0.9-6.7,0.9S50.2,56,48.7,55.5z"/>
<path class="st1" d="M46.6,54.1v1.3c0.2-0.2,0.5-0.3,0.8-0.5C46.9,54.7,46.6,54.4,46.6,54.1z"/>
<path class="st1" d="M63.4,55c0.3,0.1,0.6,0.3,0.8,0.5v-1.3C64.2,54.4,63.9,54.7,63.4,55z"/>
<path class="st1" d="M46.4,55.5c0.1,0,0.1-0.1,0.2-0.1v-1.3v-1.3c-0.1,0-0.1-0.1-0.2-0.1c-0.5,0.4-0.8,0.9-0.8,1.4
	C45.6,54.6,45.9,55.1,46.4,55.5z"/>
<path class="st1" d="M64.4,52.6c-0.1,0-0.1,0.1-0.2,0.1V54v1.3c0.1,0,0.1,0.1,0.2,0.1c0.5-0.4,0.8-0.9,0.8-1.4
	C65.2,53.5,64.9,53.1,64.4,52.6z"/>
<path class="st1" d="M50.2,57c1.6,0.3,3.4,0.5,5.2,0.5s3.6-0.2,5.2-0.5c-1.6-0.3-3.4-0.5-5.2-0.5S51.8,56.7,50.2,57z"/>
<path class="st1" d="M48.7,55.5c-0.5-0.2-1-0.4-1.3-0.6c-0.3,0.1-0.6,0.3-0.8,0.5v0.2c0.2,0.2,0.5,0.3,0.8,0.5
	C47.7,55.9,48.2,55.7,48.7,55.5z"/>
<path class="st1" d="M62.1,55.5c0.5,0.2,1,0.4,1.3,0.6c0.3-0.1,0.6-0.3,0.8-0.5v-0.2c-0.2-0.2-0.5-0.3-0.8-0.5
	C63.1,55.2,62.6,55.3,62.1,55.5z"/>
<path class="st1" d="M64.4,55.5c-0.1,0-0.1-0.1-0.2-0.1v0.2C64.2,55.6,64.3,55.6,64.4,55.5z"/>
<path class="st1" d="M46.4,55.5c0.1,0,0.1,0.1,0.2,0.1v-0.2C46.5,55.5,46.5,55.5,46.4,55.5z"/>
<path class="st1" d="M48.7,52.6c-0.5,0.2-1,0.4-1.3,0.6c0.8,0.4,1.7,0.7,2.8,0.9c1.6-0.3,3.4-0.5,5.2-0.5s3.6,0.2,5.2,0.5
	c1.1-0.2,2-0.5,2.8-0.9c-0.3-0.2-0.8-0.4-1.3-0.6c-1.5,0.5-3.8,0.9-6.7,0.9S50.2,53.2,48.7,52.6z"/>
<path class="st1" d="M63.4,52.1c0.3,0.1,0.6,0.3,0.8,0.5v-1.3C64.2,51.5,63.9,51.8,63.4,52.1z"/>
<path class="st1" d="M46.6,51.2v1.3c0.2-0.2,0.5-0.3,0.8-0.5C46.9,51.8,46.6,51.5,46.6,51.2z"/>
<path class="st1" d="M64.4,49.8c-0.1,0-0.1,0.1-0.2,0.1v1.3v1.3c0.1,0,0.1,0.1,0.2,0.1c0.5-0.4,0.8-0.9,0.8-1.4
	C65.2,50.7,64.9,50.2,64.4,49.8z"/>
<path class="st1" d="M46.4,52.6c0.1,0,0.1-0.1,0.2-0.1v-1.3v-1.3c-0.1,0-0.1-0.1-0.2-0.1c-0.5,0.4-0.8,0.9-0.8,1.4
	C45.6,51.8,45.9,52.2,46.4,52.6z"/>
<path class="st1" d="M50.2,54.1c1.6,0.3,3.4,0.5,5.2,0.5s3.6-0.2,5.2-0.5c-1.6-0.3-3.4-0.5-5.2-0.5S51.8,53.8,50.2,54.1z"/>
<path class="st1" d="M62.1,52.6c0.5,0.2,1,0.4,1.3,0.6c0.3-0.1,0.6-0.3,0.8-0.5v-0.2c-0.2-0.2-0.5-0.3-0.8-0.5
	C63.1,52.3,62.6,52.5,62.1,52.6z"/>
<path class="st1" d="M48.7,52.6c-0.5-0.2-1-0.4-1.3-0.6c-0.3,0.1-0.6,0.3-0.8,0.5v0.2c0.2,0.2,0.5,0.3,0.8,0.5
	C47.7,53,48.2,52.8,48.7,52.6z"/>
<path class="st1" d="M46.4,52.6c0.1,0,0.1,0.1,0.2,0.1v-0.2C46.5,52.6,46.5,52.6,46.4,52.6z"/>
<path class="st1" d="M64.4,52.6c-0.1,0-0.1-0.1-0.2-0.1v0.2C64.2,52.7,64.3,52.7,64.4,52.6z"/>
<path class="st1" d="M63.4,49.2c0.3,0.1,0.6,0.3,0.8,0.5v-0.8h-0.3C63.7,49,63.6,49.1,63.4,49.2z"/>
<path class="st1" d="M55.4,46c4.6,0,7.7,1,8.6,1.9h1.2C64.5,46,59.9,45,55.4,45s-9.1,1-9.7,2.9h1.2C47.7,47,50.8,46,55.4,46z"/>
<path class="st1" d="M48.7,49.8c-0.5,0.2-1,0.4-1.3,0.6c0.8,0.4,1.7,0.7,2.8,0.9c1.6-0.3,3.4-0.5,5.2-0.5s3.6,0.2,5.2,0.5
	c1.1-0.2,2-0.5,2.8-0.9c-0.3-0.2-0.8-0.4-1.3-0.6c-1.5,0.5-3.8,0.9-6.7,0.9S50.2,50.3,48.7,49.8z"/>
<path class="st1" d="M46.9,48.9h-0.3v0.8c0.2-0.2,0.5-0.3,0.8-0.5C47.2,49.1,47,49,46.9,48.9z"/>
<path class="st1" d="M46.4,49.8c0.1,0,0.1-0.1,0.2-0.1v-0.8h0.3c-0.2-0.2-0.3-0.4-0.3-0.6c0-0.1,0.1-0.3,0.2-0.4h-1.2
	c0,0.1-0.1,0.3-0.1,0.4C45.6,48.9,45.9,49.4,46.4,49.8z"/>
<path class="st1" d="M64,47.9c0.1,0.2,0.2,0.3,0.2,0.4c0,0.2-0.1,0.4-0.3,0.6h0.3v0.8c0.1,0,0.1,0.1,0.2,0.1
	c0.5-0.4,0.8-0.9,0.8-1.4c0-0.2,0-0.3-0.1-0.4L64,47.9L64,47.9z"/>
<path class="st1" d="M50.2,51.2c1.6,0.3,3.4,0.5,5.2,0.5s3.6-0.2,5.2-0.5c-1.6-0.3-3.4-0.5-5.2-0.5S51.8,50.9,50.2,51.2z"/>
<path class="st1" d="M62.1,49.8c0.5,0.2,1,0.4,1.3,0.6c0.3-0.1,0.6-0.3,0.8-0.5v-0.2c-0.2-0.2-0.5-0.3-0.8-0.5
	C63.1,49.4,62.6,49.6,62.1,49.8z"/>
<path class="st1" d="M48.7,49.8c-0.5-0.2-1-0.4-1.3-0.6c-0.3,0.1-0.6,0.3-0.8,0.5v0.2c0.2,0.2,0.5,0.3,0.8,0.5
	C47.7,50.1,48.2,49.9,48.7,49.8z"/>
<path class="st1" d="M64.4,49.8c-0.1,0-0.1-0.1-0.2-0.1v0.2C64.2,49.8,64.3,49.8,64.4,49.8z"/>
<path class="st1" d="M46.4,49.8c0.1,0,0.1,0.1,0.2,0.1v-0.2C46.5,49.7,46.5,49.7,46.4,49.8z"/>
<path class="st1" d="M18.8,61.3c0.5,0.4,0.8,0.9,0.8,1.4v-2.9C19.6,60.4,19.3,60.9,18.8,61.3z"/>
<path class="st1" d="M18.8,58.4c0.5,0.4,0.8,0.9,0.8,1.4V57C19.6,57.5,19.3,58,18.8,58.4z"/>
<path class="st1" d="M18.8,64.2c0.5,0.4,0.8,0.9,0.8,1.4v-2.9C19.6,63.3,19.3,63.8,18.8,64.2z"/>
<path class="st1" d="M18.8,55.5c0.5,0.4,0.8,0.9,0.8,1.4V54C19.6,54.6,19.3,55.1,18.8,55.5z"/>
<path class="st1" d="M0.8,64.2C0.3,63.8,0,63.3,0,62.7v2.9C0,65.1,0.3,64.6,0.8,64.2z"/>
<path class="st1" d="M18.8,52.6c0.5,0.4,0.8,0.9,0.8,1.4v-2.9C19.6,51.8,19.3,52.2,18.8,52.6z"/>
<path class="st1" d="M0.8,58.4C0.3,58,0,57.5,0,57v2.9C0,59.3,0.3,58.8,0.8,58.4z"/>
<path class="st1" d="M0.8,61.3C0.3,60.9,0,60.4,0,59.9v2.9C0,62.2,0.3,61.7,0.8,61.3z"/>
<path class="st1" d="M0.8,55.5C0.3,55.1,0,54.6,0,54.1V57C0,56.4,0.3,55.9,0.8,55.5z"/>
<path class="st1" d="M0.8,52.6C0.3,52.2,0,51.8,0,51.2v2.9C0,53.5,0.3,53.1,0.8,52.6z"/>
<path class="st1" d="M9.8,68c-4.5,0-7.7-1-8.5-1.9H0.1C0.7,68,5.3,69,9.8,69s9-1,9.7-2.9h-1.2C17.5,67,14.3,68,9.8,68z"/>
<path class="st1" d="M3.1,64.2c-0.5,0.2-1,0.4-1.3,0.6C2,64.9,2.3,65,2.6,65.1h7.2C6.9,65.1,4.6,64.7,3.1,64.2z"/>
<path class="st1" d="M16.9,65.1c0.3-0.1,0.6-0.2,0.9-0.3c-0.3-0.2-0.8-0.4-1.3-0.6c-1.5,0.5-3.8,0.9-6.7,0.9H16.9z"/>
<path class="st1" d="M1,62.7V64c0.2-0.2,0.5-0.3,0.8-0.5C1.3,63.3,1,63,1,62.7z"/>
<path class="st1" d="M17.8,63.6c0.3,0.1,0.6,0.3,0.8,0.5v-1.3C18.6,63,18.3,63.3,17.8,63.6z"/>
<path class="st1" d="M18.8,61.3c-0.1,0-0.1,0.1-0.2,0.1v1.3V64c0.1,0,0.1,0.1,0.2,0.1c0.5-0.4,0.8-0.9,0.8-1.4
	C19.6,62.2,19.3,61.7,18.8,61.3z"/>
<path class="st1" d="M0.8,64.2c0.1,0,0.1-0.1,0.2-0.1v-1.3v-1.3c-0.1,0-0.1-0.1-0.2-0.1C0.3,61.7,0,62.2,0,62.7
	C0,63.3,0.3,63.8,0.8,64.2z"/>
<path class="st1" d="M2.6,65.1c1.9,0.7,4.5,1,7.2,1c2.6,0,5.3-0.3,7.2-1H9.8H2.6z"/>
<path class="st1" d="M3.1,64.2c-0.5-0.2-1-0.4-1.3-0.6c-0.3,0.1-0.6,0.3-0.8,0.5v0.2c0.2,0.2,0.5,0.3,0.8,0.5
	C2.1,64.5,2.6,64.4,3.1,64.2z"/>
<path class="st1" d="M16.5,64.2c0.5,0.2,1,0.4,1.3,0.6c0.3-0.1,0.6-0.3,0.8-0.5v-0.2c-0.2-0.2-0.5-0.3-0.8-0.5
	C17.5,63.8,17,64,16.5,64.2z"/>
<path class="st1" d="M18.8,64.2c-0.1,0-0.1-0.1-0.2-0.1v0.2C18.6,64.3,18.7,64.2,18.8,64.2z"/>
<path class="st1" d="M0.8,64.2c0.1,0,0.1,0.1,0.2,0.1v-0.2C0.9,64.1,0.9,64.1,0.8,64.2z"/>
<path class="st1" d="M17.8,60.7c0.3,0.1,0.6,0.3,0.8,0.5v-1.3C18.6,60.1,18.3,60.4,17.8,60.7z"/>
<path class="st1" d="M1,59.9v1.3c0.2-0.2,0.5-0.3,0.8-0.5C1.3,60.4,1,60.1,1,59.9z"/>
<path class="st1" d="M3.1,61.3c-0.5,0.2-1,0.4-1.3,0.6c0.8,0.4,1.7,0.7,2.8,0.9c1.6-0.3,3.4-0.5,5.2-0.5s3.6,0.2,5.2,0.5
	c1.1-0.2,2-0.5,2.8-0.9c-0.3-0.2-0.8-0.4-1.3-0.6c-1.5,0.5-3.8,0.9-6.7,0.9S4.6,61.8,3.1,61.3z"/>
<path class="st1" d="M18.8,58.4c-0.1,0-0.1,0.1-0.2,0.1v1.3v1.3c0.1,0,0.1,0.1,0.2,0.1c0.5-0.4,0.8-0.9,0.8-1.4
	C19.6,59.3,19.3,58.8,18.8,58.4z"/>
<path class="st1" d="M0.8,61.3c0.1,0,0.1-0.1,0.2-0.1v-1.3v-1.3c-0.1,0-0.1-0.1-0.2-0.1C0.3,58.8,0,59.3,0,59.9
	C0,60.4,0.3,60.9,0.8,61.3z"/>
<path class="st1" d="M4.6,62.7C6.2,63,8,63.2,9.8,63.2s3.6-0.2,5.2-0.5c-1.6-0.3-3.4-0.5-5.2-0.5C8,62.3,6.2,62.4,4.6,62.7z"/>
<path class="st1" d="M16.5,61.3c0.5,0.2,1,0.4,1.3,0.6c0.3-0.1,0.6-0.3,0.8-0.5v-0.2c-0.2-0.2-0.5-0.3-0.8-0.5
	C17.5,60.9,17,61.1,16.5,61.3z"/>
<path class="st1" d="M3.1,61.3c-0.5-0.2-1-0.4-1.3-0.6C1.5,60.9,1.2,61,1,61.2v0.2c0.2,0.2,0.5,0.3,0.8,0.5
	C2.1,61.7,2.6,61.5,3.1,61.3z"/>
<path class="st1" d="M0.8,61.3c0.1,0,0.1,0.1,0.2,0.1v-0.2C0.9,61.2,0.9,61.3,0.8,61.3z"/>
<path class="st1" d="M18.8,61.3c-0.1,0-0.1-0.1-0.2-0.1v0.2C18.6,61.4,18.7,61.3,18.8,61.3z"/>
<path class="st1" d="M17.8,57.8c0.3,0.1,0.6,0.3,0.8,0.5V57C18.6,57.2,18.3,57.5,17.8,57.8z"/>
<path class="st1" d="M1,57v1.3c0.2-0.2,0.5-0.3,0.8-0.5C1.3,57.5,1,57.2,1,57z"/>
<path class="st1" d="M3.1,58.4c-0.5,0.2-1,0.4-1.3,0.6c0.8,0.4,1.7,0.7,2.8,0.9c1.6-0.3,3.4-0.5,5.2-0.5s3.6,0.2,5.2,0.5
	c1.1-0.2,2-0.5,2.8-0.9c-0.3-0.2-0.8-0.4-1.3-0.6c-1.5,0.5-3.8,0.9-6.7,0.9C6.9,59.3,4.6,58.9,3.1,58.4z"/>
<path class="st1" d="M18.8,55.5c-0.1,0-0.1,0.1-0.2,0.1V57v1.3c0.1,0,0.1,0.1,0.2,0.1c0.5-0.4,0.8-0.9,0.8-1.4
	C19.6,56.4,19.3,55.9,18.8,55.5z"/>
<path class="st1" d="M0.8,58.4c0.1,0,0.1-0.1,0.2-0.1V57v-1.3c-0.1,0-0.1-0.1-0.2-0.1C0.3,55.9,0,56.4,0,57C0,57.5,0.3,58,0.8,58.4z
	"/>
<path class="st1" d="M4.6,59.9c1.6,0.3,3.4,0.5,5.2,0.5s3.6-0.2,5.2-0.5c-1.6-0.3-3.4-0.5-5.2-0.5S6.2,59.5,4.6,59.9z"/>
<path class="st1" d="M3.1,58.4c-0.5-0.2-1-0.4-1.3-0.6C1.5,58,1.2,58.1,1,58.3v0.2c0.2,0.2,0.5,0.3,0.8,0.5
	C2.1,58.8,2.6,58.6,3.1,58.4z"/>
<path class="st1" d="M16.5,58.4c0.5,0.2,1,0.4,1.3,0.6c0.3-0.1,0.6-0.3,0.8-0.5v-0.2c-0.2-0.2-0.5-0.3-0.8-0.5
	C17.5,58,17,58.2,16.5,58.4z"/>
<path class="st1" d="M0.8,58.4c0.1,0,0.1,0.1,0.2,0.1v-0.2C0.9,58.3,0.9,58.4,0.8,58.4z"/>
<path class="st1" d="M18.8,58.4c-0.1,0-0.1-0.1-0.2-0.1v0.2C18.6,58.5,18.7,58.5,18.8,58.4z"/>
<path class="st1" d="M17.8,55c0.3,0.1,0.6,0.3,0.8,0.5v-1.3C18.6,54.4,18.3,54.7,17.8,55z"/>
<path class="st1" d="M1,54.1v1.3c0.2-0.2,0.5-0.3,0.8-0.5C1.3,54.7,1,54.4,1,54.1z"/>
<path class="st1" d="M3.1,55.5c-0.5,0.2-1,0.4-1.3,0.6c0.8,0.4,1.7,0.7,2.8,0.9c1.6-0.3,3.4-0.5,5.2-0.5s3.6,0.2,5.2,0.5
	c1.1-0.2,2-0.5,2.8-0.9c-0.3-0.2-0.8-0.4-1.3-0.6c-1.5,0.5-3.8,0.9-6.7,0.9S4.6,56,3.1,55.5z"/>
<path class="st1" d="M18.8,52.6c-0.1,0-0.1,0.1-0.2,0.1V54v1.3c0.1,0,0.1,0.1,0.2,0.1c0.5-0.4,0.8-0.9,0.8-1.4
	C19.6,53.5,19.3,53.1,18.8,52.6z"/>
<path class="st1" d="M0.8,55.5c0.1,0,0.1-0.1,0.2-0.1v-1.3v-1.3c-0.1,0-0.1-0.1-0.2-0.1C0.3,53.1,0,53.5,0,54.1
	C0,54.6,0.3,55.1,0.8,55.5z"/>
<path class="st1" d="M4.6,57c1.6,0.3,3.4,0.5,5.2,0.5s3.6-0.2,5.2-0.5c-1.6-0.3-3.4-0.5-5.2-0.5S6.2,56.7,4.6,57z"/>
<path class="st1" d="M16.5,55.5c0.5,0.2,1,0.4,1.3,0.6c0.3-0.1,0.6-0.3,0.8-0.5v-0.2c-0.2-0.2-0.5-0.3-0.8-0.5
	C17.5,55.2,17,55.3,16.5,55.5z"/>
<path class="st1" d="M3.1,55.5c-0.5-0.2-1-0.4-1.3-0.6C1.5,55,1.2,55.2,1,55.4v0.2c0.2,0.2,0.5,0.3,0.8,0.5
	C2.1,55.9,2.6,55.7,3.1,55.5z"/>
<path class="st1" d="M18.8,55.5c-0.1,0-0.1-0.1-0.2-0.1v0.2C18.6,55.6,18.7,55.6,18.8,55.5z"/>
<path class="st1" d="M0.8,55.5c0.1,0,0.1,0.1,0.2,0.1v-0.2C0.9,55.5,0.9,55.5,0.8,55.5z"/>
<path class="st1" d="M1.3,51.7H1v0.8c0.2-0.2,0.5-0.3,0.8-0.5C1.6,52,1.4,51.8,1.3,51.7z"/>
<path class="st1" d="M3.1,52.6c-0.5,0.2-1,0.4-1.3,0.6c0.8,0.4,1.7,0.7,2.8,0.9c1.6-0.3,3.4-0.5,5.2-0.5s3.6,0.2,5.2,0.5
	c1.1-0.2,2-0.5,2.8-0.9c-0.3-0.2-0.8-0.4-1.3-0.6c-1.5,0.5-3.8,0.9-6.7,0.9C6.9,53.6,4.6,53.2,3.1,52.6z"/>
<path class="st1" d="M17.8,52.1c0.3,0.1,0.6,0.3,0.8,0.5v-0.8h-0.3C18.2,51.8,18,52,17.8,52.1z"/>
<path class="st1" d="M9.8,48.9c4.5,0,7.7,1,8.5,1.9h1.2c-0.7-1.9-5.2-2.9-9.7-2.9s-9,1-9.7,2.9h1.2C2.1,49.8,5.3,48.9,9.8,48.9z"/>
<path class="st1" d="M18.3,50.7c0.2,0.2,0.3,0.3,0.3,0.5s-0.1,0.3-0.3,0.5h0.3v0.8c0.1,0,0.1,0.1,0.2,0.1c0.5-0.4,0.8-0.9,0.8-1.4
	c0-0.2,0-0.3-0.1-0.5C19.5,50.7,18.3,50.7,18.3,50.7z"/>
<path class="st1" d="M0.8,52.6c0.1,0,0.1-0.1,0.2-0.1v-0.8h0.3C1.1,51.6,1,51.4,1,51.2c0-0.1,0.1-0.3,0.3-0.5H0.1
	C0,50.9,0,51,0,51.2C0,51.8,0.3,52.2,0.8,52.6z"/>
<path class="st1" d="M4.6,54.1c1.6,0.3,3.4,0.5,5.2,0.5s3.6-0.2,5.2-0.5c-1.6-0.3-3.4-0.5-5.2-0.5S6.2,53.8,4.6,54.1z"/>
<path class="st1" d="M3.1,52.6c-0.5-0.2-1-0.4-1.3-0.6c-0.3,0.1-0.6,0.3-0.8,0.5v0.2c0.2,0.2,0.5,0.3,0.8,0.5
	C2.1,53,2.6,52.8,3.1,52.6z"/>
<path class="st1" d="M16.5,52.6c0.5,0.2,1,0.4,1.3,0.6c0.3-0.1,0.6-0.3,0.8-0.5v-0.2c-0.2-0.2-0.5-0.3-0.8-0.5
	C17.5,52.3,17,52.5,16.5,52.6z"/>
<path class="st1" d="M0.8,52.6c0.1,0,0.1,0.1,0.2,0.1v-0.2C0.9,52.6,0.9,52.6,0.8,52.6z"/>
<path class="st1" d="M18.8,52.6c-0.1,0-0.1-0.1-0.2-0.1v0.2C18.6,52.7,18.7,52.7,18.8,52.6z"/>
<path class="st2" d="M13.7,35.2H5.9c-1.8,0-3.2-1.4-3.2-3.2v-7.9c0-1.8,1.4-3.2,3.2-3.2h7.9c1.8,0,3.2,1.4,3.2,3.2V32
	C16.9,33.7,15.5,35.2,13.7,35.2z"/>
<path class="st2" d="M36.5,15h-7.9c-1.8,0-3.2-1.4-3.2-3.2V3.9c0-1.8,1.4-3.2,3.2-3.2h7.9c1.8,0,3.2,1.4,3.2,3.2v7.9
	C39.7,13.6,38.3,15,36.5,15z"/>
<path class="st2" d="M59.8,34H52c-1.8,0-3.2-1.4-3.2-3.2v-7.9c0-1.8,1.4-3.2,3.2-3.2h7.9c1.8,0,3.2,1.4,3.2,3.2v7.9
	C63,32.6,61.6,34,59.8,34z"/>
<line class="st2" x1="9.8" y1="39" x2="9.8" y2="45.1"/>
<line class="st2" x1="32.6" y1="18.5" x2="32.6" y2="24.5"/>
<line class="st2" x1="55.9" y1="35.9" x2="55.9" y2="42"/>
<g class="st3">
	<path class="st1" d="M9.5,25.1L9.5,25.1l-1.4,0.7L8,25l1.7-0.9h0.9v7.8h-1V25.1z"/>
</g>
<g class="st3">
	<path class="st1" d="M30,11.7V11l0.8-0.8c2-1.9,2.9-2.9,2.9-4.1c0-0.8-0.4-1.5-1.5-1.5c-0.7,0-1.3,0.4-1.7,0.7l-0.3-0.7
		c0.5-0.5,1.3-0.8,2.2-0.8c1.7,0,2.4,1.2,2.4,2.3c0,1.4-1,2.6-2.7,4.2l-0.6,0.6v0H35v0.9H30z"/>
</g>
<g class="st3">
	<path class="st1" d="M53.6,29.8c0.3,0.2,1,0.5,1.7,0.5c1.4,0,1.8-0.9,1.8-1.5c0-1.1-1-1.6-2-1.6h-0.6v-0.8h0.6
		c0.8,0,1.7-0.4,1.7-1.3c0-0.6-0.4-1.2-1.4-1.2c-0.6,0-1.2,0.3-1.6,0.5l-0.3-0.8c0.4-0.3,1.2-0.6,2-0.6c1.5,0,2.2,0.9,2.2,1.9
		c0,0.8-0.5,1.5-1.4,1.8v0c1,0.2,1.7,0.9,1.7,2c0,1.2-1,2.3-2.8,2.3c-0.9,0-1.6-0.3-2-0.5L53.6,29.8z"/>
</g>
<path class="st1" d="M46.6,65.7L46.6,65.7v-0.6v-0.3v-0.5c-0.1,0-0.1-0.1-0.2-0.1c-0.5,0.4-0.8,0.9-0.8,1.4c0,0.2,0,0.3,0.1,0.5h1.2
	C46.7,65.9,46.6,65.8,46.6,65.7L46.6,65.7z"/>
<path class="st1" d="M64.4,64.2c-0.1,0-0.1,0.1-0.2,0.1v0.5v0.3v0.5v0.1v-0.1c0,0.1-0.1,0.3-0.3,0.5h1.2c0.1-0.2,0.1-0.3,0.1-0.5
	C65.2,65.1,64.9,64.6,64.4,64.2z"/>
<path class="st1" d="M18.3,66.1h0.3v-0.5C18.6,65.8,18.5,65.9,18.3,66.1z"/>
<path class="st1" d="M18.8,64.2c-0.1,0-0.1,0.1-0.2,0.1v0.3v0.5v0.5v0.5h0.9c0.1-0.2,0.1-0.3,0.1-0.5C19.6,65.1,19.3,64.6,18.8,64.2
	z"/>
<path class="st1" d="M1,65.8v-0.2v-0.5v-0.4v-0.4c-0.1,0-0.1-0.1-0.2-0.1C0.3,64.6,0,65.1,0,65.6c0,0.2,0,0.3,0.1,0.5h1.2
	C1.1,65.9,1,65.8,1,65.6V65.8z"/>
<path class="st1" d="M23.3,65v-0.5V64l-0.1-0.1c-0.6,0.4-0.9,0.9-0.9,1.5c0,0.2,0,0.3,0.1,0.5h0.9v-0.5V65z"/>
<path class="st1" d="M23.3,65.5V66h0.2C23.4,65.8,23.3,65.6,23.3,65.5z"/>
<path class="st1" d="M41.6,66h0.2v-0.5C41.9,65.6,41.8,65.8,41.6,66z"/>
<path class="st1" d="M42.9,65.5c0-0.6-0.3-1.1-0.9-1.5l-0.1,0.1v0.2V65v0.5V66h0.9C42.8,65.8,42.9,65.6,42.9,65.5z"/>
</svg>
