<?xml version="1.0" encoding="utf-8"?>
<!-- Generator: Adobe Illustrator 21.0.0, SVG Export Plug-In . SVG Version: 6.00 Build 0)  -->
<svg version="1.1" id="Слой_1" xmlns="http://www.w3.org/2000/svg" xmlns:xlink="http://www.w3.org/1999/xlink" x="0px" y="0px"
	 viewBox="0 0 60 60" style="enable-background:new 0 0 60 60;" xml:space="preserve">
<style type="text/css">
	.st0{fill:#F9B243;}
	.st1{fill:#FFFFFF;stroke:#F9B243;stroke-miterlimit:10;}
	.st2{fill:none;stroke:#F9B243;stroke-linecap:round;stroke-miterlimit:10;}
</style>
<g>
	<g>
		<path class="st0" d="M13.2,39.2H2.5c-1.4,0-2.5-1.1-2.5-2.5V26c0-1.4,1.1-2.5,2.5-2.5h10.7c1.4,0,2.5,1.1,2.5,2.5v10.7
			C15.7,38.1,14.6,39.2,13.2,39.2z M2.5,24.5C1.7,24.5,1,25.1,1,26v10.7c0,0.8,0.7,1.5,1.5,1.5h10.7c0.8,0,1.5-0.7,1.5-1.5V26
			c0-0.8-0.7-1.5-1.5-1.5H2.5z"/>
	</g>
	<g>
		<g>
			<path class="st0" d="M5.3,34.1c-0.3,0-0.5-0.2-0.5-0.5v-4.5c0-0.3,0.2-0.5,0.5-0.5s0.5,0.2,0.5,0.5v4.5
				C5.8,33.9,5.6,34.1,5.3,34.1z"/>
		</g>
		<g>
			<path class="st0" d="M10.4,34.1c-0.3,0-0.5-0.2-0.5-0.5v-4.5c0-0.3,0.2-0.5,0.5-0.5s0.5,0.2,0.5,0.5v4.5
				C10.9,33.9,10.7,34.1,10.4,34.1z"/>
		</g>
	</g>
</g>
<path class="st1" d="M18.1,6.5v8.9c0,4.4,3.6,7.9,7.9,7.9h4.6c4.4,0,7.9-3.6,7.9-7.9V6.5H18.1z"/>
<g>
	<path class="st0" d="M23,7c-0.3,0-0.5-0.2-0.5-0.5v-6C22.5,0.2,22.7,0,23,0s0.5,0.2,0.5,0.5v6C23.5,6.7,23.3,7,23,7z"/>
</g>
<g>
	<path class="st0" d="M33.4,7c-0.3,0-0.5-0.2-0.5-0.5v-6c0-0.3,0.2-0.5,0.5-0.5s0.5,0.2,0.5,0.5v6C33.9,6.7,33.6,7,33.4,7z"/>
</g>
<path class="st2" d="M27.9,24.1v8.6c0,2,1.6,3.7,3.7,3.7h0c2,0,3.7,1.6,3.7,3.7v20"/>
<path class="st0" d="M31.2,9.6l-5.5,5.2c-0.1,0,0,0.1,0.1,0.1h1.7c0.1,0,0.1,0.1,0.1,0.1l-2,5.1c0,0.1,0.1,0.1,0.1,0.1l5.5-5.2
	c0.1,0,0-0.1-0.1-0.1h-1.7c-0.1,0-0.1-0.1-0.1-0.1l2-5.1C31.3,9.6,31.2,9.5,31.2,9.6z"/>
<g>
	<path class="st2" d="M29.6,52.8h-5.8c-1.1,0-2-0.9-2-2V45c0-1.1,0.9-2,2-2h5.8c1.1,0,2,0.9,2,2v5.8C31.6,51.9,30.7,52.8,29.6,52.8z
		"/>
	<g>
		<line class="st2" x1="25" y1="49.4" x2="25" y2="46.4"/>
		<line class="st2" x1="28.4" y1="49.4" x2="28.4" y2="46.4"/>
	</g>
</g>
<g>
	<g>
		<path class="st0" d="M57.5,30.5h-7.6c-1.4,0-2.5-1.1-2.5-2.5v-7.6c0-1.4,1.1-2.5,2.5-2.5h7.6c1.4,0,2.5,1.1,2.5,2.5V28
			C60,29.4,58.9,30.5,57.5,30.5z M49.9,18.9c-0.8,0-1.5,0.7-1.5,1.5V28c0,0.8,0.7,1.5,1.5,1.5h7.6c0.8,0,1.5-0.7,1.5-1.5v-7.6
			c0-0.8-0.7-1.5-1.5-1.5H49.9z"/>
	</g>
	<g>
		<g>
			<path class="st0" d="M51.8,26.5c-0.3,0-0.5-0.2-0.5-0.5v-3.5c0-0.3,0.2-0.5,0.5-0.5s0.5,0.2,0.5,0.5V26
				C52.3,26.3,52,26.5,51.8,26.5z"/>
		</g>
		<g>
			<path class="st0" d="M55.7,26.5c-0.3,0-0.5-0.2-0.5-0.5v-3.5c0-0.3,0.2-0.5,0.5-0.5s0.5,0.2,0.5,0.5V26
				C56.2,26.3,56,26.5,55.7,26.5z"/>
		</g>
	</g>
</g>
</svg>
