<?xml version="1.0" encoding="UTF-8"?>
<!-- Generator: Adobe Illustrator 21.0.0, SVG Export Plug-In . SVG Version: 6.00 Build 0)  -->
<svg version="1.1" id="Слой_1" xmlns="http://www.w3.org/2000/svg" xmlns:xlink="http://www.w3.org/1999/xlink" x="0px" y="0px" viewBox="0 0 81.9 60" style="enable-background:new 0 0 81.9 60;" xml:space="preserve">
<style type="text/css">
	.st0{fill:#F9B243;}
</style>
<g>
	<g>
		<path class="st0" d="M10.5,48.3h-9c-0.8,0-1.5-0.7-1.5-1.5V24.4c0-0.8,0.7-1.5,1.5-1.5h9V48.3z M1.5,23.9c-0.3,0-0.5,0.2-0.5,0.5    v22.5c0,0.3,0.2,0.5,0.5,0.5h8V23.9H1.5z"/>
	</g>
	<g>
		<path class="st0" d="M80.4,48.3h-9V22.9h9c0.8,0,1.5,0.7,1.5,1.5v22.5C81.9,47.7,81.2,48.3,80.4,48.3z M72.4,47.3h8    c0.3,0,0.5-0.2,0.5-0.5V24.4c0-0.3-0.2-0.5-0.5-0.5h-8V47.3z"/>
	</g>
	<g>
		<g>
			<path class="st0" d="M70.7,52.8H11c-0.8,0-1.5-0.7-1.5-1.5v-8.4h62.7v8.4C72.1,52.1,71.5,52.8,70.7,52.8z M10.5,43.9v7.4     c0,0.3,0.2,0.5,0.5,0.5h59.7c0.3,0,0.5-0.2,0.5-0.5v-7.4H10.5z"/>
		</g>
		<g>
			<g>
				<path class="st0" d="M41.3,43.9H9.5V2.4c0-1.3,1-2.3,2.3-2.3h29.6V43.9z M10.5,42.9h29.8V1.1H11.7c-0.7,0-1.3,0.6-1.3,1.3V42.9z      "/>
			</g>
			<g>
				<path class="st0" d="M72.1,43.9H40.3V0.1h29.6c1.3,0,2.3,1,2.3,2.3V43.9z M41.3,42.9h29.8V2.4c0-0.7-0.6-1.3-1.3-1.3H41.3V42.9z      "/>
			</g>
		</g>
	</g>
	<g>
		<path class="st0" d="M19.7,60c-0.3,0-0.5-0.2-0.5-0.5v-7.2c0-0.3,0.2-0.5,0.5-0.5s0.5,0.2,0.5,0.5v7.2C20.2,59.8,20,60,19.7,60z"/>
	</g>
	<g>
		<path class="st0" d="M62.9,60c-0.3,0-0.5-0.2-0.5-0.5v-6.4c0-0.3,0.2-0.5,0.5-0.5c0.3,0,0.5,0.2,0.5,0.5v6.4    C63.4,59.8,63.2,60,62.9,60z"/>
	</g>
	<g>
		<g>
			<path class="st0" d="M17.9,13.3c-1.2,0-2.2-1-2.2-2.2s1-2.2,2.2-2.2c1.2,0,2.2,1,2.2,2.2S19.1,13.3,17.9,13.3z M17.9,9.8     c-0.7,0-1.2,0.6-1.2,1.2c0,0.7,0.6,1.2,1.2,1.2c0.7,0,1.2-0.6,1.2-1.2C19.1,10.4,18.6,9.8,17.9,9.8z"/>
		</g>
		<g>
			<path class="st0" d="M33.1,13.3c-1.2,0-2.2-1-2.2-2.2s1-2.2,2.2-2.2c1.2,0,2.2,1,2.2,2.2S34.3,13.3,33.1,13.3z M33.1,9.8     c-0.7,0-1.2,0.6-1.2,1.2c0,0.7,0.6,1.2,1.2,1.2s1.2-0.6,1.2-1.2C34.3,10.4,33.7,9.8,33.1,9.8z"/>
		</g>
	</g>
	<g>
		<g>
			<path class="st0" d="M48.6,13.3c-1.2,0-2.2-1-2.2-2.2s1-2.2,2.2-2.2s2.2,1,2.2,2.2S49.9,13.3,48.6,13.3z M48.6,9.8     c-0.7,0-1.2,0.6-1.2,1.2c0,0.7,0.6,1.2,1.2,1.2s1.2-0.6,1.2-1.2C49.9,10.4,49.3,9.8,48.6,9.8z"/>
		</g>
		<g>
			<path class="st0" d="M63.8,13.3c-1.2,0-2.2-1-2.2-2.2s1-2.2,2.2-2.2S66,9.8,66,11S65,13.3,63.8,13.3z M63.8,9.8     c-0.7,0-1.2,0.6-1.2,1.2c0,0.7,0.6,1.2,1.2,1.2S65,11.7,65,11C65,10.4,64.5,9.8,63.8,9.8z"/>
		</g>
	</g>
	<g>
		<g>
			<path class="st0" d="M17.9,36.5c-1.2,0-2.2-1-2.2-2.2s1-2.2,2.2-2.2c1.2,0,2.2,1,2.2,2.2S19.1,36.5,17.9,36.5z M17.9,33     c-0.7,0-1.2,0.6-1.2,1.2s0.6,1.2,1.2,1.2c0.7,0,1.2-0.6,1.2-1.2S18.6,33,17.9,33z"/>
		</g>
		<g>
			<path class="st0" d="M33.1,36.5c-1.2,0-2.2-1-2.2-2.2s1-2.2,2.2-2.2c1.2,0,2.2,1,2.2,2.2S34.3,36.5,33.1,36.5z M33.1,33     c-0.7,0-1.2,0.6-1.2,1.2s0.6,1.2,1.2,1.2s1.2-0.6,1.2-1.2S33.7,33,33.1,33z"/>
		</g>
	</g>
	<g>
		<g>
			<path class="st0" d="M48.6,36.5c-1.2,0-2.2-1-2.2-2.2s1-2.2,2.2-2.2s2.2,1,2.2,2.2S49.9,36.5,48.6,36.5z M48.6,33     c-0.7,0-1.2,0.6-1.2,1.2s0.6,1.2,1.2,1.2s1.2-0.6,1.2-1.2S49.3,33,48.6,33z"/>
		</g>
		<g>
			<path class="st0" d="M63.8,36.5c-1.2,0-2.2-1-2.2-2.2s1-2.2,2.2-2.2s2.2,1,2.2,2.2S65,36.5,63.8,36.5z M63.8,33     c-0.7,0-1.2,0.6-1.2,1.2s0.6,1.2,1.2,1.2s1.2-0.6,1.2-1.2S64.5,33,63.8,33z"/>
		</g>
	</g>
	<g>
		<path class="st0" d="M25.5,25.6c-1.2,0-2.2-1-2.2-2.2c0-1.2,1-2.2,2.2-2.2c1.2,0,2.2,1,2.2,2.2C27.7,24.6,26.7,25.6,25.5,25.6z     M25.5,22.1c-0.7,0-1.2,0.6-1.2,1.2c0,0.7,0.6,1.2,1.2,1.2c0.7,0,1.2-0.6,1.2-1.2C26.7,22.7,26.1,22.1,25.5,22.1z"/>
	</g>
	<g>
		<path class="st0" d="M56.2,25.6c-1.2,0-2.2-1-2.2-2.2c0-1.2,1-2.2,2.2-2.2c1.2,0,2.2,1,2.2,2.2C58.5,24.6,57.5,25.6,56.2,25.6z     M56.2,22.1c-0.7,0-1.2,0.6-1.2,1.2c0,0.7,0.6,1.2,1.2,1.2c0.7,0,1.2-0.6,1.2-1.2C57.5,22.7,56.9,22.1,56.2,22.1z"/>
	</g>
</g>
<style xmlns="" type="text/css" id="undefined"/></svg>