<?xml version="1.0" encoding="UTF-8"?>
<!-- Generator: Adobe Illustrator 21.0.0, SVG Export Plug-In . SVG Version: 6.00 Build 0)  -->
<svg version="1.1" id="Слой_1" xmlns="http://www.w3.org/2000/svg" xmlns:xlink="http://www.w3.org/1999/xlink" x="0px" y="0px" viewBox="0 0 46.8 54.4" style="enable-background:new 0 0 46.8 54.4;" xml:space="preserve">
<style type="text/css">
	.st0{fill:#F9B243;}
</style>
<g>
	<path class="st0" d="M7.8,26.2c-0.8,0-1.5-0.2-2.2-0.6C4.6,25,4,23.8,3.6,22.9l-2.9-6c-0.6-1.3-0.8-2.6-0.6-3.9   c0.6-2.8,2.8-3.6,4.8-4.2C5.9,8.4,7,8.1,7.7,7.4C8.5,6.8,8.9,5.9,9.4,5c0.4-0.7,0.8-1.5,1.3-2.2c1.4-1.8,3-2,4.7-2.2   c0.4,0,0.8-0.1,1.2-0.2l0.8-0.1l0,0.1c0.5-0.1,1.2-0.1,1.9-0.3c1.6-0.3,3.3,0.1,4.5,1.3c2.1,2,4,2.8,5.8,2.5   c1.2-0.2,2.4-0.8,3.7-1.6c2-1.1,4-2.3,6.4-1.4c1.4,0.5,2.5,1.7,3.1,3.2c0.8,2,0.8,4.1,0.7,6.1c0,1-0.1,1.9,0,2.8   c0,0.3,0,0.5,0.1,0.8c0.1,0.9,0.2,1.8,0,2.7c-0.4,2.2-2.2,3.8-3.6,4.7c-0.8,0.5-2,1.2-3.4,0.9c-0.8-0.2-1.5-0.7-2-1.1   c-2.8-2.1-5.7-4.1-8.7-3.5c-1.5,0.3-2.9,1.2-4.2,2.1l-0.4,0.3c-3.2,2.1-6.6,4-10.1,5.4C10.1,25.9,8.9,26.2,7.8,26.2z M16.8,1.9   L16.8,1.9C16.4,2,16,2.1,15.6,2.1c-1.5,0.2-2.6,0.3-3.7,1.6l0,0c-0.5,0.6-0.8,1.2-1.2,1.9c-0.5,1-1.1,2.1-2,2.9   c-1,0.8-2.2,1.3-3.4,1.6c-2.1,0.7-3.4,1.2-3.8,3.1c-0.2,0.9,0,2,0.4,3l2.9,6c0.5,0.9,0.9,1.7,1.5,2.1c1.1,0.7,2.8,0.2,4.1-0.3   c3.5-1.4,6.8-3.1,9.9-5.2l0.4-0.3c1.4-1,2.9-2,4.7-2.4c3.6-0.7,6.9,1.5,9.9,3.8c0.4,0.3,0.9,0.7,1.4,0.8c0.6,0.1,1.3-0.1,2.3-0.7   c1.2-0.7,2.6-2,2.9-3.7c0.1-0.7,0.1-1.5,0-2.3c0-0.3-0.1-0.6-0.1-0.9c-0.1-1,0-2,0-3c0.1-1.9,0.1-3.7-0.6-5.4   c-0.5-1.1-1.3-2-2.3-2.4c-1.7-0.7-3.3,0.2-5.1,1.3c-1.3,0.7-2.7,1.5-4.2,1.7c-2.3,0.3-4.6-0.6-7.1-2.9c-0.9-0.8-2.1-1.2-3.2-0.9   C18.1,1.9,17.3,2,16.8,1.9z M11.3,3.3L11.3,3.3L11.3,3.3z"/>
</g>
<g>
	<path class="st0" d="M22.1,53.4c-0.2,0-0.4-0.1-0.5-0.2c-0.3-0.3-0.3-0.7-0.1-1.1c2.2-2.5,2.8-13.5,2.1-17   c-0.3-1.5-0.9-2.9-1.4-4.3c-0.3-0.7-0.6-1.4-0.8-2.1c-0.2-0.5-0.4-1-0.5-1.6c-0.7-2-1.3-3.9-2.6-5.6c-0.2-0.3-0.2-0.8,0.2-1   c0.3-0.2,0.8-0.2,1,0.2c1.4,1.9,2.1,3.9,2.8,6.1c0.2,0.5,0.3,1,0.5,1.5c0.2,0.7,0.5,1.4,0.8,2.1c0.6,1.5,1.2,3,1.5,4.6   c0.7,3.4,0.4,15.2-2.4,18.4C22.5,53.3,22.3,53.4,22.1,53.4z"/>
</g>
<g>
	<path class="st0" d="M26.7,21.7c-0.1,0-0.1,0-0.2,0c-0.4-0.1-0.7-0.3-0.8-0.4c-1.1-0.9-2-2.1-2.5-3.5c-0.1-0.4,0-0.8,0.4-1   c0.4-0.1,0.8,0,1,0.4c0.4,1.1,1.1,2.1,2.1,2.8c0,0,0.1,0.1,0.1,0.1c0,0,0.1-0.1,0.1-0.1c1.2-0.7,2.3-1.6,3.3-2.5   c0.3-0.3,0.8-0.3,1.1,0c0.3,0.3,0.3,0.8,0,1.1c-1.1,1-2.3,1.9-3.5,2.7C27.5,21.5,27.1,21.7,26.7,21.7z"/>
</g>
<g>
	<path class="st0" d="M28.3,35.8c-0.2,0-0.5-0.1-0.6-0.3l-0.1-0.1c-1.2-1.6-2.3-3.1-2.1-5.4c0.1-1,0.2-2.1,0.5-3.2   c0.4-1.2,1.1-2.3,1.6-3c1.6-2.3,3.3-3.9,5.2-5c0.4-0.2,0.8-0.1,1,0.3c0.2,0.4,0.1,0.8-0.3,1c-1.7,1-3.2,2.4-4.7,4.5   c-0.5,0.7-1.1,1.6-1.4,2.6c-0.3,0.9-0.4,1.9-0.5,2.8c-0.2,1.7,0.7,2.8,1.8,4.3l0.1,0.1c0.3,0.3,0.2,0.8-0.1,1.1   C28.6,35.8,28.4,35.8,28.3,35.8z"/>
</g>
<g>
	<path class="st0" d="M11.4,54.6H1.6V35.9l4.9-3l4.9,3V54.6z M3.1,53.1h6.8V36.7l-3.4-2.1l-3.4,2.1V53.1z"/>
</g>
<g>
	<path class="st0" d="M46.8,54.6H37V35.9l4.9-3l4.9,3V54.6z M38.5,53.1h6.8V36.7l-3.4-2.1l-3.4,2.1V53.1z"/>
</g>
<g>
	<path class="st0" d="M22.8,54.6H13V35.9l4.9-3l4.9,3V54.6z M14.5,53.1h6.8V36.7l-3.4-2.1l-3.4,2.1V53.1z"/>
</g>
<g>
	<path class="st0" d="M35.3,54.6h-9.8V35.9l4.9-3l4.9,3V54.6z M27,53.1h6.8V36.7l-3.4-2.1L27,36.7V53.1z"/>
</g>
<style xmlns="" type="text/css" id="undefined"/></svg>