<?xml version="1.0" encoding="utf-8"?>
<!-- Generator: Adobe Illustrator 21.0.0, SVG Export Plug-In . SVG Version: 6.00 Build 0)  -->
<svg version="1.1" id="Слой_1" xmlns="http://www.w3.org/2000/svg" xmlns:xlink="http://www.w3.org/1999/xlink" x="0px" y="0px"
	 viewBox="0 0 60 60" style="enable-background:new 0 0 60 60;" xml:space="preserve">
<style type="text/css">
	.st0{fill:none;}
	.st1{fill:#F9B243;}
</style>
<g>
	<rect x="11.8" y="26.7" class="st0" width="3.4" height="3.3"/>
	<path class="st0" d="M20.2,20.5H2.1c-0.6,0-1.2,0.5-1.2,1.2v17.9c0,1.1,0.9,2,2,2h17.8c0.4,0,0.8-0.1,1.2-0.2V20.2
		C21.3,20.4,20.8,20.5,20.2,20.5z M16.1,35.5H6.4v-9.8h9.8V35.5z"/>
	<rect x="7.4" y="26.7" class="st0" width="3.4" height="7.8"/>
	<path class="st0" d="M42.8,38.4c-0.6,0.6-0.9,1.4-0.9,2.3v18c0,0.3,0.2,0.4,0.3,0.4c0.1,0,0.3,0.1,0.4-0.1L58,43.5
		c0.7-0.7,1-1.6,1-2.5V22.2c0-0.2,0-0.4,0-0.6L42.8,38.4z"/>
	<rect x="11.8" y="31.1" class="st0" width="3.4" height="3.5"/>
	<path class="st1" d="M23.2,40.5c-0.1,0.1-0.2,0.2-0.4,0.3v1.2c0.4-0.2,0.7-0.5,1.1-0.8l15-15c-0.4,0-0.9-0.1-1.3-0.1L23.2,40.5z"/>
	<path class="st1" d="M59.9,20.7l-0.1-0.2c-0.2-0.7-0.7-1.4-1.2-1.9l-4.3-4.3c-0.1,0.4-0.2,0.8-0.3,1.1l3.8,3.8
		c0.3,0.3,0.6,0.7,0.8,1.2l-9.6,9.9l-4.9-4.9c-0.4,0.1-0.7,0.2-1.1,0.3l5.3,5.3l-6.4,6.6c-0.8,0.8-1.2,1.9-1.2,3v18
		c0,0.6,0.3,1.1,0.9,1.3c0.2,0.1,0.4,0.1,0.5,0.1c0.4,0,0.7-0.1,1-0.4l15.5-15.5c0.9-0.9,1.3-2,1.3-3.2V22.2
		C60.1,21.7,60,21.2,59.9,20.7z M59.1,40.9c0,1-0.4,1.9-1,2.5L42.6,59c-0.2,0.2-0.4,0.1-0.4,0.1c-0.1,0-0.3-0.1-0.3-0.4v-18
		c0-0.9,0.3-1.7,0.9-2.3l16.3-16.8c0,0.2,0,0.4,0,0.6V40.9z"/>
	<path class="st1" d="M21.9,41.3c-0.4,0.1-0.8,0.2-1.2,0.2H2.9c-1.1,0-2-0.9-2-2V21.6c0-0.6,0.5-1.2,1.2-1.2h18.1
		c0.6,0,1.1-0.1,1.7-0.3v-0.7h1v0.3c0.5-0.3,1-0.6,1.4-1l1.6-1.6c-0.1-0.3-0.3-0.7-0.4-1l-1.9,1.9c-0.9,0.9-2.1,1.4-3.4,1.4H2.1
		c-1.2,0-2.2,1-2.2,2.2v17.9c0,1.7,1.3,3,3,3h17.8c0.7,0,1.4-0.2,2-0.5h-0.8V41.3z"/>
	<path class="st1" d="M21.9,20.2v21.1c0.4-0.1,0.7-0.3,1-0.6v-21C22.6,19.9,22.2,20.1,21.9,20.2z"/>
	<path class="st1" d="M22.9,19.5h-1v0.7c0.3-0.1,0.7-0.2,1-0.4V19.5z"/>
	<path class="st1" d="M21.9,41.3V42h0.8c0.1,0,0.1-0.1,0.2-0.1v-1.2C22.6,41,22.2,41.2,21.9,41.3z"/>
	<path class="st1" d="M50.9,10.9L50.9,10.9C50.9,10.9,50.9,10.9,50.9,10.9z"/>
	<path class="st1" d="M50.9,10.9L50.9,10.9c-0.1-0.1-0.2-0.2-0.4-0.2h-1.2h-2L48,9.5l0.5-0.9l0.9-1.6c0.1-0.2,0-0.5-0.2-0.7
		c-0.2-0.1-0.5,0-0.7,0.2l-0.8,1.4l-0.5,0.9l-1.1,2h-4.9h-0.2l0.2-0.2l3.9-3.9l0.7-0.7l0,0c0.2-0.2,0.2-0.5,0-0.7
		c-0.2-0.2-0.5-0.2-0.7,0l0,0l-0.7,0.7l-3.2,3.2l-1,1l-0.1,0.1V5.3l0.1,0l1-0.6l1.2-0.7l0.9-0.5l1-0.6c0.2-0.1,0.3-0.4,0.2-0.7
		s-0.5-0.3-0.7-0.2l-1.3,0.8l-0.9,0.5l-0.5,0.3l-1,0.6l-0.1,0V2.8V1.4v-1c0-0.3-0.2-0.5-0.5-0.5s-0.5,0.2-0.5,0.5v2v1.4v0.3L39,4
		l-0.9-0.5l-2.7-1.6c-0.2-0.1-0.5-0.1-0.7,0.2c-0.1,0.2-0.1,0.5,0.2,0.7l2.5,1.5l0.9,0.5l0.9,0.5v4.5l-3-3l-0.7-0.7l-1.2-1.2
		c-0.2-0.2-0.5-0.2-0.7,0c-0.2,0.2-0.2,0.5,0,0.7l1.2,1.2l0.7,0.7l3.2,3.2h-5l-0.5-0.9L32.7,9l-1.4-2.5c-0.1-0.2-0.4-0.3-0.7-0.2
		c-0.2,0.1-0.3,0.4-0.2,0.7l1.5,2.8l0.5,0.9l0.1,0.1h-0.2h-1.4h-2.1c-0.3,0-0.5,0.2-0.5,0.5s0.2,0.5,0.5,0.5h1.1h1.4h1.2l-2.1,3.8
		c-0.1,0.2,0,0.5,0.2,0.7c0.1,0,0.2,0.1,0.2,0.1c0.2,0,0.3-0.1,0.4-0.3l2.4-4.3h5.1l-4.8,4.9c-0.2,0.2-0.2,0.5,0,0.7
		c0.1,0.1,0.2,0.1,0.4,0.1c0.1,0,0.3,0,0.4-0.1l4.6-4.7v5l-4.3,2.5c-0.2,0.1-0.3,0.4-0.2,0.7c0.1,0.2,0.3,0.2,0.4,0.2
		c0.1,0,0.2,0,0.3-0.1l3.8-2.2V22c0,0.3,0.2,0.5,0.5,0.5s0.5-0.2,0.5-0.5v-3.2l0.1,0l1,0.6l2.6,1.6c0.1,0,0.2,0.1,0.3,0.1
		c0.2,0,0.3-0.1,0.4-0.2c0.1-0.2,0.1-0.5-0.2-0.7l-3.1-1.9l-1-0.6l-0.1,0v-5.4l0.1,0.1l1,1l3.7,3.7c0.1,0.1,0.2,0.1,0.4,0.1
		c0.1,0,0.3,0,0.4-0.1c0.2-0.2,0.2-0.5,0-0.7l-4.4-4.4l-0.2-0.2h0.2h4.9l2.4,4.3c0.1,0.2,0.3,0.3,0.4,0.3c0.1,0,0.2,0,0.2-0.1
		c0.2-0.1,0.3-0.4,0.2-0.7l-2.1-3.8h3h0.2c0.3,0,0.5-0.2,0.5-0.5C51,11.1,51,11,50.9,10.9z"/>
	<path class="st1" d="M6.4,35.5h9.8v-9.8H6.4V35.5z M7.4,26.7h3.4v-0.5h1v0.5h3.4v3.3h0.5v1h-0.5v3.5h-3.4V35h-1v-0.5H7.4V26.7z"/>
	<polygon class="st1" points="11.8,34.5 11.8,31.1 11.3,31.1 11.3,30.1 11.8,30.1 11.8,26.7 10.8,26.7 10.8,34.5 	"/>
	<rect x="10.8" y="34.5" class="st1" width="1" height="0.5"/>
	<rect x="10.8" y="26.2" class="st1" width="1" height="0.5"/>
	<rect x="11.8" y="30.1" class="st1" width="3.4" height="1"/>
	<rect x="15.1" y="30.1" class="st1" width="0.5" height="1"/>
	<rect x="11.3" y="30.1" class="st1" width="0.5" height="1"/>
</g>
</svg>
