<?xml version="1.0" encoding="utf-8"?>
<!-- Generator: Adobe Illustrator 21.0.0, SVG Export Plug-In . SVG Version: 6.00 Build 0)  -->
<svg version="1.1" id="Слой_1" xmlns="http://www.w3.org/2000/svg" xmlns:xlink="http://www.w3.org/1999/xlink" x="0px" y="0px"
	 viewBox="0 0 49 60" style="enable-background:new 0 0 49 60;" xml:space="preserve">
<style type="text/css">
	.st0{fill:#F9B243;}
</style>
<g>
	<path class="st0" d="M48.5,56.9h-48c-0.3,0-0.5-0.2-0.5-0.5s0.2-0.5,0.5-0.5h48c0.3,0,0.5,0.2,0.5,0.5S48.8,56.9,48.5,56.9z"/>
</g>
<g>
	<path class="st0" d="M48.5,60.1h-48c-0.3,0-0.5-0.2-0.5-0.5s0.2-0.5,0.5-0.5h48c0.3,0,0.5,0.2,0.5,0.5S48.8,60.1,48.5,60.1z"/>
</g>
<g>
	<path class="st0" d="M10.3,39.2H0.5C0.2,39.2,0,39,0,38.7s0.2-0.5,0.5-0.5h9.8c0.3,0,0.5,0.2,0.5,0.5S10.6,39.2,10.3,39.2z"/>
</g>
<g>
	<path class="st0" d="M48.5,39.2h-6.4c-0.3,0-0.5-0.2-0.5-0.5s0.2-0.5,0.5-0.5h6.4c0.3,0,0.5,0.2,0.5,0.5S48.8,39.2,48.5,39.2z"/>
</g>
<g>
	<path class="st0" d="M34.4,39.2H15c-0.3,0-0.5-0.2-0.5-0.5s0.2-0.5,0.5-0.5h19.4c0.3,0,0.5,0.2,0.5,0.5S34.7,39.2,34.4,39.2z"/>
</g>
<g>
	<path class="st0" d="M39.6,39.2h-2.4c-0.3,0-0.5-0.2-0.5-0.5s0.2-0.5,0.5-0.5h2.4c0.3,0,0.5,0.2,0.5,0.5S39.9,39.2,39.6,39.2z"/>
</g>
<g>
	<path class="st0" d="M12.8,41.1c-1.3,0-2.4-1.1-2.4-2.4s1.1-2.4,2.4-2.4s2.4,1.1,2.4,2.4S14.2,41.1,12.8,41.1z M12.8,37.3
		c-0.8,0-1.4,0.6-1.4,1.4s0.6,1.4,1.4,1.4s1.4-0.6,1.4-1.4S13.6,37.3,12.8,37.3z"/>
</g>
<g>
	<path class="st0" d="M18.6,44.4c-1.2,0-2.2-1-2.2-2.2s1-2.2,2.2-2.2s2.2,1,2.2,2.2S19.8,44.4,18.6,44.4z M18.6,41.1
		c-0.7,0-1.2,0.5-1.2,1.2s0.5,1.2,1.2,1.2c0.7,0,1.2-0.5,1.2-1.2S19.3,41.1,18.6,41.1z"/>
</g>
<g>
	<path class="st0" d="M27.5,50.2c-2.1,0-3.8-1.7-3.8-3.8c0-2.1,1.7-3.8,3.8-3.8s3.8,1.7,3.8,3.8C31.3,48.5,29.6,50.2,27.5,50.2z
		 M27.5,43.6c-1.5,0-2.8,1.3-2.8,2.8c0,1.5,1.3,2.8,2.8,2.8c1.5,0,2.8-1.3,2.8-2.8C30.3,44.9,29.1,43.6,27.5,43.6z"/>
</g>
<g>
	<path class="st0" d="M5.1,43.6c-0.8,0-1.4-0.6-1.4-1.4s0.6-1.4,1.4-1.4c0.8,0,1.4,0.6,1.4,1.4S5.9,43.6,5.1,43.6z M5.1,41.9
		c-0.2,0-0.4,0.2-0.4,0.4c0,0.2,0.2,0.4,0.4,0.4c0.2,0,0.4-0.2,0.4-0.4C5.5,42.1,5.3,41.9,5.1,41.9z"/>
</g>
<g>
	<path class="st0" d="M36.3,37.8c-0.8,0-1.4-0.6-1.4-1.4s0.6-1.4,1.4-1.4s1.4,0.6,1.4,1.4S37.1,37.8,36.3,37.8z M36.3,36
		c-0.2,0-0.4,0.2-0.4,0.4c0,0.2,0.2,0.4,0.4,0.4c0.2,0,0.4-0.2,0.4-0.4C36.7,36.2,36.5,36,36.3,36z"/>
</g>
<g>
	<path class="st0" d="M41.4,44.1c-1,0-1.9-0.8-1.9-1.9c0-1,0.8-1.9,1.9-1.9s1.9,0.8,1.9,1.9C43.3,43.3,42.4,44.1,41.4,44.1z
		 M41.4,41.4c-0.5,0-0.9,0.4-0.9,0.9s0.4,0.9,0.9,0.9s0.9-0.4,0.9-0.9S41.9,41.4,41.4,41.4z"/>
</g>
<g>
	<rect x="2.5" y="57.3" transform="matrix(0.7071 -0.7071 0.7071 0.7071 -39.5187 20.2887)" class="st0" width="4.5" height="1"/>
</g>
<g>
	<rect x="5.8" y="57.3" transform="matrix(0.7071 -0.7071 0.7071 0.7071 -38.564 22.5935)" class="st0" width="4.5" height="1"/>
</g>
<g>
	<rect x="9" y="57.3" transform="matrix(0.7071 -0.7071 0.7071 0.7071 -37.6093 24.8983)" class="st0" width="4.5" height="1"/>
</g>
<g>
	<rect x="12.3" y="57.3" transform="matrix(0.7071 -0.7071 0.7071 0.7071 -36.6547 27.203)" class="st0" width="4.5" height="1"/>
</g>
<g>
	<rect x="15.5" y="57.3" transform="matrix(0.7071 -0.7071 0.7071 0.7071 -35.7 29.5078)" class="st0" width="4.5" height="1"/>
</g>
<g>
	<rect x="18.8" y="57.3" transform="matrix(0.7071 -0.7071 0.7071 0.7071 -34.7453 31.8126)" class="st0" width="4.5" height="1"/>
</g>
<g>
	<rect x="22" y="57.3" transform="matrix(0.7071 -0.7071 0.7071 0.7071 -33.7907 34.1174)" class="st0" width="4.5" height="1"/>
</g>
<g>
	<rect x="25.3" y="57.3" transform="matrix(0.7069 -0.7074 0.7074 0.7069 -32.8435 36.4429)" class="st0" width="4.5" height="1"/>
</g>
<g>
	<rect x="28.6" y="57.3" transform="matrix(0.7071 -0.7071 0.7071 0.7071 -31.8814 38.7268)" class="st0" width="4.5" height="1"/>
</g>
<g>
	<rect x="31.8" y="57.3" transform="matrix(0.7071 -0.7071 0.7071 0.7071 -30.9267 41.0318)" class="st0" width="4.5" height="1"/>
</g>
<g>
	<rect x="35.1" y="57.3" transform="matrix(0.7071 -0.7071 0.7071 0.7071 -29.972 43.3364)" class="st0" width="4.5" height="1"/>
</g>
<g>
	<rect x="38.3" y="57.3" transform="matrix(0.7071 -0.7071 0.7071 0.7071 -29.0174 45.6411)" class="st0" width="4.5" height="1"/>
</g>
<g>
	<rect x="41.6" y="57.3" transform="matrix(0.7071 -0.7071 0.7071 0.7071 -28.0626 47.9461)" class="st0" width="4.5" height="1"/>
</g>
<g>
	<path class="st0" d="M19.5,39.2c-0.3,0-0.5-0.2-0.5-0.5V19.3c0-0.3,0.2-0.5,0.5-0.5S20,19,20,19.3v19.4C20,39,19.8,39.2,19.5,39.2z
		"/>
</g>
<g>
	<path class="st0" d="M8.6,39.2c-0.1,0-0.1,0-0.2,0c-0.3-0.1-0.4-0.4-0.3-0.6l6.6-19.4c0.1-0.3,0.4-0.4,0.6-0.3
		c0.3,0.1,0.4,0.4,0.3,0.6L9.1,38.8C9,39,8.9,39.2,8.6,39.2z"/>
</g>
<g>
	<path class="st0" d="M30.4,39.2c-0.2,0-0.4-0.1-0.5-0.3l-6.6-19.4c-0.1-0.3,0-0.5,0.3-0.6c0.3-0.1,0.5,0,0.6,0.3l6.6,19.4
		c0.1,0.3,0,0.5-0.3,0.6C30.5,39.2,30.5,39.2,30.4,39.2z"/>
</g>
<g>
	<path class="st0" d="M31.7,19.3H7.1L11.3,0h16.1L31.7,19.3z M8.4,18.3h22.1L26.6,1H12.2L8.4,18.3z"/>
</g>
</svg>
