<?xml version="1.0" encoding="utf-8"?>
<!-- Generator: Adobe Illustrator 21.0.0, SVG Export Plug-In . SVG Version: 6.00 Build 0)  -->
<svg version="1.1" id="Слой_1" xmlns="http://www.w3.org/2000/svg" xmlns:xlink="http://www.w3.org/1999/xlink" x="0px" y="0px"
	 viewBox="0 0 51.6 37.6" style="enable-background:new 0 0 51.6 37.6;" xml:space="preserve">
<style type="text/css">
	.st0{fill:none;}
	.st1{fill:#F9B243;}
	.st2{fill:none;stroke:#F9B243;stroke-linecap:round;stroke-miterlimit:10;}
</style>
<g>
	<g>
		<g>
			<rect x="44.9" y="19.3" class="st0" width="3.1" height="3.6"/>
			<path class="st0" d="M33.2,23.9v0.9c1,0,1.9,0,2.9,0v-0.8H33.2z"/>
			<path class="st0" d="M44.9,25.1c0.6,0,1.3,0.1,1.9,0.1c0.4,0,0.8,0.1,1.2,0.1v-1.4h-3.1V25.1z"/>
			<path class="st0" d="M44.9,26v0.4c0,0.9,0.7,1.6,1.6,1.6s1.6-0.7,1.6-1.6v-0.1c-0.4-0.1-0.8-0.1-1.2-0.1
				C46.1,26.1,45.5,26,44.9,26z"/>
			<path class="st0" d="M37,23.9v0.8c1,0,2.1,0,3.1,0.1v-0.9H37z"/>
			<rect x="25.3" y="10.6" class="st0" width="2.9" height="7.8"/>
			<path class="st0" d="M29.1,23.9V25c1-0.1,2.1-0.1,3.1-0.2v-0.9H29.1z"/>
			<rect x="25.3" y="19.3" class="st0" width="2.9" height="3.6"/>
			<rect x="29.1" y="10.6" class="st0" width="3.1" height="7.8"/>
			<path class="st0" d="M25.3,23.9v1.2c0.3-0.2,0.5-0.3,0.7-0.5c0.2-0.2,0.5-0.2,0.7,0c0.2,0.2,0.2,0.4,0,0.6c0.5-0.1,1-0.1,1.5-0.2
				v-1.2H25.3z"/>
			<rect x="41" y="19.3" class="st0" width="2.9" height="3.6"/>
			<rect x="41" y="6" class="st0" width="2.9" height="3.6"/>
			<rect x="33.2" y="6" class="st0" width="2.9" height="3.6"/>
			<rect x="44.9" y="6" class="st0" width="3.1" height="3.6"/>
			<rect x="29.1" y="6" class="st0" width="3.1" height="3.6"/>
			<rect x="44.9" y="10.6" class="st0" width="3.1" height="7.8"/>
			<rect x="37" y="6" class="st0" width="3.1" height="3.6"/>
			<path class="st0" d="M22.8,27.9c0.8,0,1.4-0.6,1.5-1.4c-0.6,0.2-1.1,0.3-1.7,0.3c-0.4,0.1-0.8,0.2-1.1,0.3
				C21.7,27.6,22.2,27.9,22.8,27.9z"/>
			<rect x="41" y="10.6" class="st0" width="2.9" height="7.8"/>
			<path class="st0" d="M22.5,7.5v0.5c0,0.9,0.7,1.6,1.6,1.6h0.3V6h-0.3C23.2,6,22.5,6.7,22.5,7.5z"/>
			<rect x="25.3" y="6" class="st0" width="2.9" height="3.6"/>
			<path class="st0" d="M22.4,26c0.6-0.1,1.1-0.2,1.7-0.3c0.1,0,0.1-0.1,0.2-0.1v-1.7h-0.3c-1.4,0-2.5-1.1-2.5-2.5v-0.5
				c0-1.4,1.1-2.5,2.5-2.5h0.3v-7.8h-0.3c-1.4,0-2.5-1.1-2.5-2.5V7.5c0-1.4,1.1-2.5,2.5-2.5h0.3V2.5c0-0.9-0.7-1.6-1.6-1.6
				s-1.6,0.7-1.6,1.6V26C21.6,26,22,26,22.4,26z"/>
			<path class="st0" d="M41,24.9c1,0,1.9,0.1,2.9,0.1v-1.1H41V24.9z"/>
			<path class="st0" d="M40.1,2.5c0-0.9-0.7-1.6-1.6-1.6c-0.9,0-1.6,0.7-1.6,1.6V5h3.1V2.5z"/>
			<rect x="33.2" y="19.3" class="st0" width="2.9" height="3.6"/>
			<rect x="37" y="19.3" class="st0" width="3.1" height="3.6"/>
			<path class="st0" d="M48,2.5c0-0.9-0.7-1.6-1.6-1.6s-1.6,0.7-1.6,1.6V5H48V2.5z"/>
			<path class="st0" d="M32.2,2.5c0-0.9-0.7-1.6-1.6-1.6c-0.9,0-1.6,0.7-1.6,1.6V5h3.1V2.5z"/>
			<path class="st0" d="M24.1,19.3c-0.9,0-1.6,0.7-1.6,1.6v0.5c0,0.9,0.7,1.6,1.6,1.6h0.3v-3.6H24.1z"/>
			<rect x="29.1" y="19.3" class="st0" width="3.1" height="3.6"/>
			<path class="st0" d="M29.1,26.4c0,0.9,0.7,1.6,1.6,1.6c0.9,0,1.6-0.7,1.6-1.6v-0.6c-1,0-2.1,0.1-3.1,0.2V26.4z"/>
			<rect x="33.2" y="10.6" class="st0" width="2.9" height="7.8"/>
			<path class="st0" d="M37,26.4c0,0.9,0.7,1.6,1.6,1.6c0.9,0,1.6-0.7,1.6-1.6v-0.6c-1,0-2.1-0.1-3.1-0.1V26.4z"/>
			<rect x="37" y="10.6" class="st0" width="3.1" height="7.8"/>
			<path class="st1" d="M21.2,2.5c0-0.9,0.7-1.6,1.6-1.6s1.6,0.7,1.6,1.6V5h0.9V2.5c0-1.4-1.1-2.5-2.5-2.5s-2.5,1.1-2.5,2.5v23.4
				c0.3,0,0.6,0,0.9,0.1V2.5z"/>
			<path class="st1" d="M22.8,28.9c1.4,0,2.5-1.1,2.5-2.5c-0.3,0-0.6,0.1-0.9,0.1c0,0,0,0,0,0c-0.1,0.8-0.7,1.4-1.5,1.4
				c-0.6,0-1-0.3-1.3-0.7c-0.3,0.1-0.6,0.2-0.9,0.2C20.9,28.3,21.8,28.9,22.8,28.9z"/>
			<rect x="24.3" y="19.3" class="st1" width="0.9" height="3.6"/>
			<rect x="24.3" y="6" class="st1" width="0.9" height="3.6"/>
			<rect x="24.3" y="10.6" class="st1" width="0.9" height="7.8"/>
			<path class="st1" d="M25.3,23.9h-0.9v1.7c0.3-0.1,0.6-0.3,0.9-0.4V23.9z"/>
			<rect x="28.2" y="6" class="st1" width="0.9" height="3.6"/>
			<path class="st1" d="M28.2,23.9v1.2c0.3,0,0.6-0.1,0.9-0.1v-1.1H28.2z"/>
			<path class="st1" d="M32.2,26.4c0,0.9-0.7,1.6-1.6,1.6c-0.9,0-1.6-0.7-1.6-1.6v-0.4c-0.3,0-0.6,0.1-0.9,0.1v0.3
				c0,1.4,1.1,2.5,2.5,2.5c1.4,0,2.5-1.1,2.5-2.5v-0.7c-0.3,0-0.6,0-0.9,0V26.4z"/>
			<rect x="28.2" y="10.6" class="st1" width="0.9" height="7.8"/>
			<path class="st1" d="M32.2,23.9v0.9c0.3,0,0.6,0,0.9,0v-0.9H32.2z"/>
			<rect x="32.2" y="10.6" class="st1" width="0.9" height="7.8"/>
			<rect x="32.2" y="6" class="st1" width="0.9" height="3.6"/>
			<path class="st1" d="M29.1,2.5c0-0.9,0.7-1.6,1.6-1.6c0.9,0,1.6,0.7,1.6,1.6V5h0.9V2.5C33.2,1.1,32,0,30.7,0
				c-1.4,0-2.5,1.1-2.5,2.5V5h0.9V2.5z"/>
			<rect x="28.2" y="19.3" class="st1" width="0.9" height="3.6"/>
			<rect x="32.2" y="19.3" class="st1" width="0.9" height="3.6"/>
			<rect x="36.1" y="6" class="st1" width="0.9" height="3.6"/>
			<rect x="40.1" y="6" class="st1" width="0.9" height="3.6"/>
			<path class="st1" d="M40.1,26.4c0,0.9-0.7,1.6-1.6,1.6c-0.9,0-1.6-0.7-1.6-1.6v-0.7c-0.3,0-0.6,0-0.9,0v0.7
				c0,1.4,1.1,2.5,2.5,2.5s2.5-1.1,2.5-2.5v-0.6c-0.3,0-0.6,0-0.9,0V26.4z"/>
			<path class="st1" d="M37,2.5c0-0.9,0.7-1.6,1.6-1.6c0.9,0,1.6,0.7,1.6,1.6V5H41V2.5C41,1.1,39.9,0,38.6,0s-2.5,1.1-2.5,2.5V5H37
				V2.5z"/>
			<rect x="40.1" y="10.6" class="st1" width="0.9" height="7.8"/>
			<rect x="36.1" y="10.6" class="st1" width="0.9" height="7.8"/>
			<path class="st1" d="M36.1,23.9v0.8c0.3,0,0.6,0,0.9,0v-0.8H36.1z"/>
			<rect x="40.1" y="19.3" class="st1" width="0.9" height="3.6"/>
			<path class="st1" d="M40.1,23.9v0.9c0.3,0,0.6,0,0.9,0v-1H40.1z"/>
			<rect x="36.1" y="19.3" class="st1" width="0.9" height="3.6"/>
			<rect x="48" y="6" class="st1" width="0.9" height="3.6"/>
			<path class="st1" d="M43.9,25c0.3,0,0.6,0,0.9,0.1v-1.2h-0.9V25z"/>
			<rect x="43.9" y="19.3" class="st1" width="0.9" height="3.6"/>
			<rect x="43.9" y="10.6" class="st1" width="0.9" height="7.8"/>
			<rect x="48" y="19.3" class="st1" width="0.9" height="3.6"/>
			<rect x="43.9" y="6" class="st1" width="0.9" height="3.6"/>
			<path class="st1" d="M46.4,27.9c-0.9,0-1.6-0.7-1.6-1.6V26c-0.3,0-0.6,0-0.9-0.1v0.4c0,1.4,1.1,2.5,2.5,2.5
				c1.4,0,2.5-1.1,2.5-2.4c-0.3-0.1-0.6-0.2-0.9-0.2v0.1C48,27.2,47.3,27.9,46.4,27.9z"/>
			<path class="st1" d="M48,25.3c0.3,0,0.6,0.1,0.9,0.2v-1.6H48V25.3z"/>
			<rect x="48" y="10.6" class="st1" width="0.9" height="7.8"/>
			<path class="st1" d="M44.9,2.5c0-0.9,0.7-1.6,1.6-1.6S48,1.6,48,2.5V5h0.9V2.5c0-1.4-1.1-2.5-2.5-2.5s-2.5,1.1-2.5,2.5V5h0.9V2.5
				z"/>
			<rect x="41" y="5" class="st1" width="2.9" height="0.9"/>
			<rect x="25.3" y="7.7" class="st1" width="2.9" height="0.9"/>
			<rect x="41" y="7.7" class="st1" width="2.9" height="0.9"/>
			<rect x="25.3" y="5" class="st1" width="2.9" height="0.9"/>
			<rect x="33.2" y="5" class="st1" width="2.9" height="0.9"/>
			<rect x="33.2" y="7.7" class="st1" width="2.9" height="0.9"/>
			<rect x="24.3" y="9.6" class="st1" width="0.9" height="0.9"/>
			<rect x="24.3" y="5" class="st1" width="0.9" height="0.9"/>
			<rect x="28.2" y="9.6" class="st1" width="0.9" height="0.9"/>
			<rect x="32.2" y="5" class="st1" width="0.9" height="0.9"/>
			<rect x="32.2" y="9.6" class="st1" width="0.9" height="0.9"/>
			<rect x="28.2" y="5" class="st1" width="0.9" height="0.9"/>
			<rect x="40.1" y="5" class="st1" width="0.9" height="0.9"/>
			<rect x="40.1" y="9.6" class="st1" width="0.9" height="0.9"/>
			<rect x="36.1" y="9.6" class="st1" width="0.9" height="0.9"/>
			<rect x="36.1" y="5" class="st1" width="0.9" height="0.9"/>
			<rect x="43.9" y="5" class="st1" width="0.9" height="0.9"/>
			<rect x="48" y="9.6" class="st1" width="0.9" height="0.9"/>
			<rect x="48" y="5" class="st1" width="0.9" height="0.9"/>
			<rect x="43.9" y="9.6" class="st1" width="0.9" height="0.9"/>
			<rect x="25.3" y="21.1" class="st1" width="2.9" height="0.9"/>
			<rect x="33.2" y="18.4" class="st1" width="2.9" height="0.9"/>
			<rect x="25.3" y="18.4" class="st1" width="2.9" height="0.9"/>
			<rect x="41" y="21.1" class="st1" width="2.9" height="0.9"/>
			<rect x="41" y="18.4" class="st1" width="2.9" height="0.9"/>
			<rect x="33.2" y="21.1" class="st1" width="2.9" height="0.9"/>
			<rect x="24.3" y="22.9" class="st1" width="0.9" height="0.9"/>
			<rect x="24.3" y="18.4" class="st1" width="0.9" height="0.9"/>
			<rect x="32.2" y="22.9" class="st1" width="0.9" height="0.9"/>
			<rect x="28.2" y="22.9" class="st1" width="0.9" height="0.9"/>
			<rect x="28.2" y="18.4" class="st1" width="0.9" height="0.9"/>
			<rect x="32.2" y="18.4" class="st1" width="0.9" height="0.9"/>
			<rect x="36.1" y="22.9" class="st1" width="0.9" height="0.9"/>
			<rect x="40.1" y="18.4" class="st1" width="0.9" height="0.9"/>
			<rect x="36.1" y="18.4" class="st1" width="0.9" height="0.9"/>
			<rect x="40.1" y="22.9" class="st1" width="0.9" height="0.9"/>
			<rect x="43.9" y="18.4" class="st1" width="0.9" height="0.9"/>
			<rect x="48" y="18.4" class="st1" width="0.9" height="0.9"/>
			<rect x="43.9" y="22.9" class="st1" width="0.9" height="0.9"/>
			<rect x="48" y="22.9" class="st1" width="0.9" height="0.9"/>
			<path class="st1" d="M33.2,24.8v0.9c1,0,1.9,0,2.9,0v-0.9C35.1,24.7,34.1,24.7,33.2,24.8z"/>
			<path class="st1" d="M25.3,25.2v0.9c1,0,1.9,0,2.9,0v-0.9C27.2,25.2,26.2,25.2,25.3,25.2z"/>
			<path class="st1" d="M41,24.9v0.9c1,0,1.9,0.1,2.9,0.1V25C43,24.9,42,24.9,41,24.9z"/>
			<path class="st1" d="M25.3,25.1c-0.3,0.2-0.6,0.3-0.9,0.4v0.8c0,0.1,0,0.1,0,0.2c0,0,0,0,0,0c0.3-0.1,0.6-0.1,0.9-0.1
				c0,0,0,0,0,0V25.1z"/>
			<path class="st1" d="M20.5,27.4c0.3-0.1,0.6-0.2,0.9-0.2c-0.1-0.2-0.2-0.5-0.2-0.8V26c-0.3,0-0.6,0-0.9-0.1v0.4
				C20.3,26.7,20.4,27.1,20.5,27.4z"/>
			<path class="st1" d="M32.2,24.8v1c0.3,0,0.6,0,0.9,0v-0.9C32.8,24.8,32.5,24.8,32.2,24.8z"/>
			<path class="st1" d="M29.1,25c-0.3,0-0.6,0.1-0.9,0.1v1c0.3,0,0.6-0.1,0.9-0.1V25z"/>
			<path class="st1" d="M37,24.7c-0.3,0-0.6,0-0.9,0v0.9c0.3,0,0.6,0,0.9,0V24.7z"/>
			<path class="st1" d="M40.1,24.8v0.9c0.3,0,0.6,0,0.9,0v-0.9C40.7,24.8,40.4,24.8,40.1,24.8z"/>
			<path class="st1" d="M43.9,25.9c0.3,0,0.6,0,0.9,0.1v-0.9c-0.3,0-0.6,0-0.9-0.1V25.9z"/>
			<path class="st1" d="M48,26.2c0.3,0,0.6,0.1,0.9,0.2c0,0,0,0,0-0.1v-0.9c-0.3-0.1-0.6-0.1-0.9-0.2V26.2z"/>
			<path class="st1" d="M12.9,29.2c-0.1,0-0.3-0.1-0.4-0.2c-0.1-0.1-0.2-0.3-0.1-0.4c0-0.3-0.1-0.5-0.4-0.6
				c-0.3-0.1-0.5,0.1-0.6,0.4c-0.1,0.4,0,0.8,0.3,1.2c0.3,0.4,0.7,0.6,1.1,0.6c0,0,0,0,0,0c0.2,0,0.5-0.2,0.5-0.4
				C13.3,29.5,13.1,29.2,12.9,29.2z"/>
			<path class="st1" d="M25,32.8c-1.5-0.2-2.9-0.8-4.2-1.6c-0.2-0.1-0.5-0.1-0.7,0.2c-0.1,0.2-0.1,0.5,0.2,0.7
				c1.4,0.9,3,1.5,4.6,1.7c0,0,0.1,0,0.1,0c0.2,0,0.4-0.2,0.5-0.4C25.5,33,25.3,32.8,25,32.8z"/>
			<path class="st1" d="M16.6,28.4C16.5,28.1,16.3,28,16,28c-0.3,0.1-0.4,0.3-0.4,0.6c0.1,0.4,0.3,0.8,0.7,1.1
				c0.1,0.1,0.2,0.1,0.3,0.1c0.2,0,0.3-0.1,0.4-0.2c0.1-0.2,0.1-0.5-0.1-0.7C16.7,28.8,16.6,28.6,16.6,28.4z"/>
			<path class="st1" d="M30.5,31.8h-1.9c-0.3,0-0.5,0.2-0.5,0.5c0,0.3,0.2,0.5,0.5,0.5h1.9c0.3,0,0.5-0.2,0.5-0.5
				C31,32,30.8,31.8,30.5,31.8z"/>
			<path class="st1" d="M49.7,25.7c-0.3-0.1-0.5-0.2-0.8-0.3v0.9c0,0,0,0,0,0.1c0.1,0,0.3,0.1,0.4,0.1c0.6,0.3,1.3,0.9,1.3,1.7
				c0,1.4-1.7,2.1-3.3,2.4c-2.1,0.3-4.2,0.5-6.3,0.3L41,31c-1.5-0.1-3.2-0.2-4.3,0.9c-0.5,0.5-0.7,1-1,1.6c-0.1,0.3-0.3,0.6-0.5,0.9
				c-1.2,1.9-3.9,2.2-5.4,2.2c-2.1,0-4.2-0.3-6.1-0.9c-0.9-0.3-1.7-0.6-2.6-1c-2-0.8-4.1-1.6-6.3-1.6c-0.2,0-0.3,0-0.5,0
				c-1.3,0.1-2.6,0.5-3.9,0.9c-1.6,0.5-3,1-4.6,0.8c-1-0.1-2-0.4-3-0.8c-0.9-0.3-1.9-0.9-1.9-1.6c0-0.6,0.7-1,1.3-1.1
				c0.4-0.1,0.8-0.1,1.3-0.1c0.4,0,0.7,0,1.1,0c1.7-0.2,3.1-1.1,4.4-1.9c0.3-0.2,0.7-0.4,0.8-0.9c0.1-0.3,0.1-0.5,0.1-0.8
				c0-0.1,0-0.2,0-0.2c0-1.1,1.7-1.6,2.8-1.6c1.4,0,2.8,0.3,4.2,0.6c0.5,0.1,2.9,0.5,3.4,0.6l-0.1-1c-0.5-0.1-2.7-0.4-3.2-0.5
				c-1.4-0.3-2.9-0.6-4.4-0.6c-1.8,0-3.7,0.8-3.8,2.5c0,0.1,0,0.2,0,0.3c0,0.2,0,0.3,0,0.4c-0.1,0.2-0.2,0.3-0.5,0.4
				c-1.2,0.8-2.5,1.6-3.9,1.8c-0.3,0-0.6,0-1,0c-0.5,0-1,0-1.5,0.1c-0.9,0.2-2,0.9-2,2c-0.1,0.8,0.3,1.8,2.5,2.6
				c1,0.4,2.1,0.7,3.2,0.8c1.7,0.1,3.3-0.4,4.9-0.9c1.2-0.4,2.4-0.8,3.7-0.8c2.2-0.1,4.3,0.7,6.5,1.6c0.9,0.3,1.7,0.7,2.6,1
				c2,0.6,4.1,1,6.2,1c0.1,0,0.2,0,0.3,0c2.1,0,4.8-0.5,6.2-2.7c0.2-0.3,0.4-0.7,0.5-1c0.2-0.5,0.5-1,0.8-1.3
				c0.8-0.8,2.2-0.7,3.6-0.7l0.1,0c2.2,0.1,4.4,0,6.5-0.4c2-0.3,4.1-1.4,4.1-3.4C51.6,27.2,50.8,26.2,49.7,25.7z"/>
			<path class="st2" d="M31,30.3c0.6-0.1,1.3,0.2,1.9,0.1c0.9,0,1.7-0.7,2.4-1.4"/>
			<path class="st2" d="M23.9,30.2c0.4,0.1,0.9,0.2,1.3,0.1"/>
			<path class="st2" d="M42.8,28.7c-0.3,0.5-0.7,0.9-1.2,1.1"/>
		</g>
		<g>
			<line class="st2" x1="18.6" y1="6.9" x2="20.3" y2="6.9"/>
			<line class="st2" x1="18.6" y1="20" x2="20.3" y2="20"/>
		</g>
	</g>
	<g>
		<line class="st2" x1="49" y1="6.9" x2="50.8" y2="6.9"/>
		<line class="st2" x1="49" y1="20" x2="50.8" y2="20"/>
	</g>
</g>
</svg>
