<?xml version="1.0" encoding="utf-8"?>
<!-- Generator: Adobe Illustrator 21.0.0, SVG Export Plug-In . SVG Version: 6.00 Build 0)  -->
<svg version="1.1" id="Слой_1" xmlns="http://www.w3.org/2000/svg" xmlns:xlink="http://www.w3.org/1999/xlink" x="0px" y="0px"
	 viewBox="0 0 34.2 34.2" style="enable-background:new 0 0 34.2 34.2;" xml:space="preserve">
<style type="text/css">
	.st0{fill:#F9B243;}
</style>
<g>
	<g>
		<path class="st0" d="M30.2,34.2H4c-2.2,0-4-1.8-4-4V4c0-2.2,1.8-4,4-4h26.2c2.2,0,4,1.8,4,4v26.2C34.2,32.4,32.4,34.2,30.2,34.2z
			 M4,1C2.3,1,1,2.3,1,4v26.2c0,1.7,1.3,3,3,3h26.2c1.7,0,3-1.3,3-3V4c0-1.7-1.3-3-3-3H4z"/>
	</g>
	<g>
		<path class="st0" d="M15.3,19c-0.3,0-0.5-0.2-0.5-0.5v-3.3c0-0.3,0.2-0.5,0.5-0.5s0.5,0.2,0.5,0.5v3.3C15.8,18.8,15.6,19,15.3,19z
			"/>
	</g>
	<g>
		<path class="st0" d="M34.2,16.6H14.8v-4.7l0.4-0.1c4.1-1.2,6.1-3.4,6.3-6.8h-6.7V0h15.4c2.2,0,4,1.8,4,4V16.6z M15.8,15.6h17.4V4
			c0-1.7-1.3-3-3-3H15.8v3h6.7v0.5c0,4-2.2,6.7-6.7,8.1V15.6z"/>
	</g>
	<path class="st0" d="M14,24.8v-1h6v1H14z M14,27.5v-1h6v1H14z"/>
	<path class="st0" d="M5.8,28.3l0.7-0.9c0.6,0.7,1.6,1.4,3,1.4c1.7,0,2.2-0.9,2.2-1.6c0-2.4-5.6-1.1-5.6-4.5c0-1.6,1.4-2.6,3.3-2.6
		c1.4,0,2.6,0.5,3.4,1.3L12,22.2c-0.7-0.8-1.7-1.1-2.7-1.1c-1.1,0-1.9,0.6-1.9,1.5c0,2.1,5.6,0.9,5.6,4.4c0,1.4-0.9,2.8-3.5,2.8
		C7.8,29.8,6.5,29.2,5.8,28.3z"/>
	<path class="st0" d="M22.9,26.2c0-1.8,2.6-2,2.6-3.5c0-0.7-0.6-1.3-1.7-1.3c-1.1,0-1.7,0.5-2.3,1.2l-0.7-0.8
		c0.7-0.9,1.7-1.4,3.1-1.4c1.7,0,2.8,1,2.8,2.2c0,2.1-2.8,2.3-2.8,3.7c0,0.2,0.1,0.5,0.4,0.7l-0.9,0.4C23.1,27,22.9,26.6,22.9,26.2z
		 M23,29.4c0-0.4,0.4-0.8,0.8-0.8c0.4,0,0.8,0.4,0.8,0.8c0,0.4-0.4,0.8-0.8,0.8C23.4,30.1,23,29.8,23,29.4z"/>
</g>
</svg>
