<?xml version="1.0" encoding="utf-8"?>
<!-- Generator: Adobe Illustrator 21.0.0, SVG Export Plug-In . SVG Version: 6.00 Build 0)  -->
<svg version="1.1" id="Слой_1" xmlns="http://www.w3.org/2000/svg" xmlns:xlink="http://www.w3.org/1999/xlink" x="0px" y="0px"
	 viewBox="0 0 88.5 92.9" style="enable-background:new 0 0 88.5 92.9;" xml:space="preserve">
<style type="text/css">
	.st0{fill:#F9B243;}
	.st1{fill:none;}
</style>
<g>
	<g>
	</g>
	<g>
	</g>
	<g>
	</g>
	<g>
	</g>
	<g>
	</g>
	<g>
	</g>
	<g>
	</g>
	<g>
	</g>
	<g>
	</g>
	<g>
	</g>
	<g>
	</g>
	<g>
	</g>
	<g>
	</g>
	<g>
	</g>
</g>
<g>
	<path class="st0" d="M0.8,44.4h0.8v-1.5H0.8c-0.4,0-0.8,0.3-0.8,0.8S0.3,44.4,0.8,44.4z"/>
	<circle class="st1" cx="62.8" cy="31" r="0.7"/>
	<path class="st1" d="M38.9,44.3c-0.1,0.1-0.2,0.1-0.4,0.1h-37v47h72.8V54.7c-3.7,1.9-7.9,3-12.3,3C52.1,57.8,43.5,52.4,38.9,44.3z
		 M8.5,50.3h17.1c0.4,0,0.8,0.3,0.8,0.8s-0.3,0.8-0.8,0.8H8.5c-0.4,0-0.8-0.3-0.8-0.8S8.1,50.3,8.5,50.3z M7.8,56.3
		c0-0.4,0.3-0.8,0.8-0.8h17.1c0.4,0,0.8,0.3,0.8,0.8S26,57,25.6,57H8.5C8.1,57,7.8,56.7,7.8,56.3z M47,72.4c0,0.7-0.1,1.8-1.2,2.8
		c0.1,0.5,0.1,1.3-0.4,2c-0.6,1-1.7,1.7-3.3,2c-0.7,0.1-1.5,0.2-2.5,0.2c-0.6,0-1.1,0-1.8-0.1C34.4,79.4,31,79,30.8,79l-1.2-0.1
		c-0.4,0.3-0.8,0.4-1.3,0.4h-3.2c-1.2,0-2.2-1-2.2-2.2v-8.6c0-1.2,1-2.2,2.2-2.2h3.2c0.4,0,0.7,0.1,1.1,0.3c0.2-0.5,0.6-1,1-1.6
		c0,0,0.1-0.1,0.1-0.1c1.7-1.3,3.6-5.9,4.3-7.8c-0.1-0.6-0.1-1.8,0.4-2.5c0.3-0.3,0.6-0.5,1-0.5c0.4,0,1.8,0.1,2.7,1.3
		c0.8,1.2,0.9,2.9,0.1,5.2c-0.6,1.9-0.7,2.7-0.7,3.1c0.3-0.1,0.6-0.1,0.8-0.2h0c0,0,1.2-0.3,2.6-0.3c2-0.1,3.4,0.2,4.3,1
		c1.2,1.1,1,2.4,0.7,3.3c0.3,0.4,0.7,1,0.7,1.8c0,0.7-0.2,1.4-0.7,2.1C46.9,71.6,47,72,47,72.4z M68.5,84.4H51.4
		c-0.4,0-0.8-0.3-0.8-0.8s0.3-0.8,0.8-0.8h17.1c0.4,0,0.8,0.3,0.8,0.8S69,84.4,68.5,84.4z M69.3,78.4c0,0.4-0.3,0.8-0.8,0.8H51.4
		c-0.4,0-0.8-0.3-0.8-0.8s0.3-0.8,0.8-0.8h17.1C69,77.7,69.3,78,69.3,78.4z"/>
	<path class="st1" d="M62,55.5c-13.4,0-24.2-10.9-24.2-24.2c0-1.5,0.2-3.1,0.4-4.5h-0.8c-0.3,1.5-0.4,3-0.4,4.5
		c0,13.8,11.2,25,25,25c4.5,0,8.7-1.2,12.3-3.3v-0.9C70.7,54.3,66.5,55.5,62,55.5z"/>
	<path class="st1" d="M37.7,25.3h0.8C41.2,14.8,50.7,7.1,62,7.1c13.4,0,24.2,10.9,24.2,24.2c0,8.2-4.1,15.5-10.4,19.9v1
		C82.5,47.6,87,40,87,31.3c0-13.8-11.2-25-25-25C50.3,6.3,40.4,14.4,37.7,25.3z"/>
	<path class="st1" d="M45.4,67.1c0.1-0.1,0.7-1.2-0.2-1.9c-1-0.9-3.9-0.7-5.6-0.4c0,0,0,0-0.1,0c-0.3,0-0.6,0.1-0.9,0.2
		c-0.3,0.1-0.8,0.1-1.2-0.2c-0.7-0.6-0.6-2.1,0.3-4.8c0.6-1.8,0.6-3.1,0.1-3.9c-0.5-0.6-1.2-0.7-1.5-0.7c-0.1,0.2-0.2,0.9-0.1,1.5
		c0,0.1,0,0.2,0,0.4c-0.1,0.3-2.4,6.7-4.8,8.5c-0.6,0.7-0.9,1.5-1,1.8c0.1,0.2,0.1,0.4,0.1,0.7V77c0,0.2,0,0.3,0,0.5l0.5,0.1h0
		c0,0,3.5,0.5,6.9,0.4c0,0,0.1,0,0.1,0c1.6,0.1,2.9,0.1,3.9-0.1c1.2-0.3,2-0.7,2.3-1.3c0.4-0.7,0.1-1.4,0.1-1.4
		c-0.1-0.3,0-0.6,0.2-0.8c0.7-0.5,1-1.1,1-1.8c0-0.5-0.2-0.9-0.2-0.9c-0.2-0.3-0.1-0.6,0.1-0.9c0.5-0.5,0.7-1,0.7-1.4
		c0-0.7-0.6-1.2-0.6-1.2C45.2,67.8,45.2,67.4,45.4,67.1z"/>
	<path class="st1" d="M18.7,33.8c0,1,0.8,1.8,1.8,1.8s1.8-0.8,1.8-1.8c0-0.7-0.4-1.4-1.1-1.6v1.6c0,0.4-0.3,0.8-0.8,0.8
		s-0.8-0.3-0.8-0.8v-1.6C19.1,32.4,18.7,33,18.7,33.8z"/>
	<path class="st1" d="M9.3,33.8c0,1,0.8,1.8,1.8,1.8s1.8-0.8,1.8-1.8c0-0.7-0.4-1.4-1.1-1.6v1.6c0,0.4-0.3,0.8-0.8,0.8
		s-0.8-0.3-0.8-0.8v-1.6C9.7,32.4,9.3,33,9.3,33.8z"/>
	<path class="st1" d="M28.3,67.6h-3.2c-0.4,0-0.8,0.3-0.8,0.8V77c0,0.4,0.3,0.8,0.8,0.8v0h3.2c0.4,0,0.8-0.3,0.8-0.8v-8.6
		C29.1,68,28.7,67.6,28.3,67.6z"/>
	<path class="st1" d="M35.5,31.3c0-1.5,0.1-3.1,0.4-4.5H21.2v3.8c1.5,0.3,2.6,1.7,2.6,3.2c0,1.8-1.5,3.3-3.3,3.3s-3.3-1.5-3.3-3.3
		c0-1.6,1.1-2.9,2.6-3.2v-3.8h-7.9v3.8c1.5,0.3,2.6,1.7,2.6,3.2c0,1.8-1.5,3.3-3.3,3.3s-3.3-1.5-3.3-3.3c0-1.6,1.1-2.9,2.6-3.2v-3.8
		H6.4c-2.7,0-4.9,2.2-4.9,4.9v11.3h36.7C36.4,39.4,35.5,35.5,35.5,31.3z"/>
	<path class="st1" d="M69.1,2V1.8c0-0.2-0.2-0.3-0.3-0.3H55.2c-0.2,0-0.3,0.2-0.3,0.3V2c0,0.2,0.2,0.3,0.3,0.3h6.4
		c0.1-0.1,0.3-0.1,0.4-0.1s0.3,0.1,0.4,0.1h6.4C69,2.3,69.1,2.2,69.1,2z"/>
	<path class="st1" d="M45,7.6C44.5,7.2,43.8,7,43.1,7c-2,0-3.7,1.7-3.7,3.7c0,0.7,0.2,1.4,0.6,1.9L45,7.6z"/>
	<path class="st0" d="M0.8,42.9h0.8V31.7c0-2.7,2.2-4.9,4.9-4.9h3.9v-1.5H6.4c-3.5,0-6.4,2.9-6.4,6.4v12C0,43.3,0.3,42.9,0.8,42.9z"
		/>
	<path class="st0" d="M74.3,91.4H1.5v-47H0.8c-0.4,0-0.8-0.3-0.8-0.8v49.2h75.8v-39c-0.5,0.3-1,0.6-1.5,0.9V91.4z"/>
	<rect x="11.8" y="25.3" class="st0" width="7.9" height="1.5"/>
	<path class="st0" d="M35.9,26.8c0.1-0.5,0.2-1,0.3-1.5H21.2v1.5H35.9z"/>
	<path class="st0" d="M62,6.3c-0.4,0-0.8-0.3-0.8-0.8V4.8c-12.2,0.3-22.4,9-25.1,20.5h1.5C40.4,14.4,50.3,6.3,62,6.3z"/>
	<path class="st0" d="M88.5,31.3C88.5,16.9,77,5.2,62.7,4.8v0.7c0,0.4-0.3,0.8-0.8,0.8c13.8,0,25,11.2,25,25
		c0,8.7-4.4,16.3-11.2,20.8v1.8C83.4,49.2,88.5,40.8,88.5,31.3z"/>
	<path class="st0" d="M37,31.3c0-1.5,0.1-3.1,0.4-4.5h-1.5c-0.3,1.5-0.4,3-0.4,4.5c0,4.2,1,8.1,2.7,11.7h0.3c0.4,0,0.8,0.3,0.8,0.8
		c0,0.3-0.1,0.5-0.4,0.6c4.6,8,13.2,13.5,23.1,13.5c4.4,0,8.6-1.1,12.3-3V53c-3.6,2.1-7.8,3.3-12.3,3.3C48.2,56.3,37,45.1,37,31.3z"
		/>
	<path class="st0" d="M74.3,53v1.7c0.5-0.3,1-0.6,1.5-0.9v-1.8C75.3,52.4,74.8,52.7,74.3,53z"/>
	<path class="st0" d="M37.4,26.8c0.1-0.5,0.2-1,0.3-1.5h-1.5c-0.1,0.5-0.2,1-0.3,1.5H37.4z"/>
	<path class="st0" d="M39.9,14.8l7.3-7.3l-0.6-0.5c-1-0.9-2.2-1.4-3.6-1.4c-2.9,0-5.2,2.3-5.2,5.2c0,1.3,0.5,2.6,1.4,3.6L39.9,14.8z
		 M43.1,7c0.7,0,1.4,0.2,1.9,0.6L40,12.6c-0.4-0.6-0.6-1.2-0.6-1.9C39.4,8.6,41.1,7,43.1,7z"/>
	<path class="st0" d="M84.8,14.3c0.9-1,1.4-2.2,1.4-3.6c0-2.9-2.3-5.2-5.2-5.2c-1.3,0-2.6,0.5-3.6,1.4l-0.6,0.5l7.3,7.3L84.8,14.3z
		 M84.7,10.7c0,0.7-0.2,1.4-0.6,1.9l-5.1-5.1C79.7,7.2,80.4,7,81.1,7C83.1,7,84.7,8.6,84.7,10.7z"/>
	<path class="st0" d="M62,8.6c12.5,0,22.7,10.2,22.7,22.7c0,7.3-3.5,13.9-8.9,18v1.9c6.3-4.4,10.4-11.7,10.4-19.9
		C86.2,17.9,75.3,7.1,62,7.1c-11.3,0-20.8,7.7-23.5,18.2h1.6C42.7,15.7,51.5,8.6,62,8.6z"/>
	<path class="st0" d="M62,54c-12.5,0-22.7-10.2-22.7-22.7c0-1.6,0.2-3.1,0.5-4.5h-1.5c-0.3,1.5-0.4,3-0.4,4.5
		c0,13.4,10.9,24.2,24.2,24.2c4.5,0,8.7-1.2,12.3-3.4v-1.8C70.8,52.7,66.5,54,62,54z"/>
	<path class="st0" d="M39.7,26.8c0.1-0.5,0.2-1,0.4-1.5h-1.6c-0.1,0.5-0.2,1-0.3,1.5H39.7z"/>
	<path class="st0" d="M74.3,50.4v1.8c0.5-0.3,1-0.6,1.5-1v-1.9C75.3,49.7,74.8,50,74.3,50.4z"/>
	<path class="st0" d="M62.3,47.3C53.3,47.3,46,40,46,31c0-1.5,0.2-2.9,0.6-4.2H45c-0.3,1.4-0.5,2.8-0.5,4.2c0,9.8,8,17.8,17.8,17.8
		c4.6,0,8.8-1.8,12-4.7V42C71.3,45.3,67.1,47.3,62.3,47.3z"/>
	<path class="st0" d="M62.3,14.7c9,0,16.3,7.3,16.3,16.3c0,3.4-1,6.6-2.8,9.2v2.4c2.7-3.1,4.3-7.2,4.3-11.6c0-9.8-8-17.8-17.8-17.8
		c-7.8,0-14.5,5.1-16.9,12.1H47C49.4,19.1,55.3,14.7,62.3,14.7z"/>
	<path class="st0" d="M47,25.3h-1.6c-0.2,0.5-0.3,1-0.4,1.5h1.5C46.7,26.3,46.9,25.8,47,25.3z"/>
	<path class="st0" d="M75.8,42.6v-2.4c-0.5,0.7-1,1.3-1.5,1.9v2.1C74.8,43.7,75.3,43.2,75.8,42.6z"/>
	<path class="st0" d="M62.7,4.8v-1h-1.5v1c0.2,0,0.5,0,0.8,0S62.5,4.8,62.7,4.8z"/>
	<path class="st0" d="M62,6.3c0.4,0,0.8-0.3,0.8-0.8V4.8c-0.2,0-0.5,0-0.8,0s-0.5,0-0.8,0v0.7C61.2,5.9,61.6,6.3,62,6.3z"/>
	<path class="st0" d="M61.6,2.3h-6.4c-0.2,0-0.3-0.2-0.3-0.3V1.8c0-0.2,0.2-0.3,0.3-0.3h13.6c0.2,0,0.3,0.2,0.3,0.3V2
		c0,0.2-0.2,0.3-0.3,0.3h-6.4c0.2,0.1,0.3,0.3,0.3,0.6v0.9h6.1c1,0,1.8-0.8,1.8-1.8V1.8c0-1-0.8-1.8-1.8-1.8H55.2
		c-1,0-1.8,0.8-1.8,1.8V2c0,1,0.8,1.8,1.8,1.8h6.1V2.9C61.2,2.7,61.4,2.5,61.6,2.3z"/>
	<path class="st0" d="M62.7,2.9c0-0.3-0.1-0.5-0.3-0.6h-0.8c-0.2,0.1-0.3,0.3-0.3,0.6v0.9h1.5V2.9z"/>
	<path class="st0" d="M52.9,31.2c0-0.4-0.3-0.8-0.8-0.8h-3.9c-0.4,0-0.8,0.3-0.8,0.8s0.3,0.8,0.8,0.8h3.9
		C52.6,32,52.9,31.6,52.9,31.2z"/>
	<path class="st0" d="M76.2,31.2c0-0.4-0.3-0.8-0.8-0.8h-3.9c-0.4,0-0.8,0.3-0.8,0.8s0.3,0.8,0.8,0.8h3.9
		C75.9,32,76.2,31.6,76.2,31.2z"/>
	<path class="st0" d="M62.3,16.5c-0.4,0-0.8,0.3-0.8,0.8v3.9c0,0.4,0.3,0.8,0.8,0.8s0.8-0.3,0.8-0.8v-3.9
		C63.1,16.9,62.7,16.5,62.3,16.5z"/>
	<path class="st0" d="M62.3,40.1c-0.4,0-0.8,0.3-0.8,0.8v3.9c0,0.4,0.3,0.8,0.8,0.8s0.8-0.3,0.8-0.8v-3.9
		C63.1,40.4,62.7,40.1,62.3,40.1z"/>
	<path class="st0" d="M53.1,21c-0.3-0.3-0.8-0.3-1.1,0s-0.3,0.8,0,1.1l2.8,2.8c0.1,0.1,0.3,0.2,0.5,0.2s0.4-0.1,0.5-0.2
		c0.3-0.3,0.3-0.8,0-1.1L53.1,21z"/>
	<path class="st0" d="M69.8,37.6c-0.3-0.3-0.8-0.3-1.1,0s-0.3,0.8,0,1.1l2.8,2.8c0.1,0.1,0.3,0.2,0.5,0.2s0.4-0.1,0.5-0.2
		c0.3-0.3,0.3-0.8,0-1.1L69.8,37.6z"/>
	<path class="st0" d="M71.7,21.1l-2.8,2.8c-0.3,0.3-0.3,0.8,0,1.1c0.1,0.1,0.3,0.2,0.5,0.2s0.4-0.1,0.5-0.2l2.8-2.8
		c0.3-0.3,0.3-0.8,0-1.1S71.9,20.8,71.7,21.1z"/>
	<path class="st0" d="M55,37.8l-2.8,2.8c-0.3,0.3-0.3,0.8,0,1.1c0.1,0.1,0.3,0.2,0.5,0.2s0.4-0.1,0.5-0.2l2.8-2.8
		c0.3-0.3,0.3-0.8,0-1.1S55.3,37.5,55,37.8z"/>
	<path class="st0" d="M62.8,28.8c-1.2,0-2.2,1-2.2,2.2s1,2.2,2.2,2.2c1.2,0,2.2-1,2.2-2.2S64.1,28.8,62.8,28.8z M62.8,31.7
		c-0.4,0-0.7-0.3-0.7-0.7s0.3-0.7,0.7-0.7c0.4,0,0.7,0.3,0.7,0.7S63.2,31.7,62.8,31.7z"/>
	<path class="st0" d="M11.1,34.5c0.4,0,0.8-0.3,0.8-0.8v-1.6C11.6,32,11.3,32,11.1,32s-0.5,0.1-0.8,0.2v1.6
		C10.3,34.2,10.7,34.5,11.1,34.5z"/>
	<path class="st0" d="M11.8,21c0-0.4-0.3-0.8-0.8-0.8s-0.8,0.3-0.8,0.8v4.3h1.5V21z"/>
	<path class="st0" d="M11.1,30.5c0.3,0,0.5,0,0.8,0.1v-3.8h-1.5v3.8C10.6,30.5,10.8,30.5,11.1,30.5z"/>
	<rect x="10.3" y="25.3" class="st0" width="1.5" height="1.5"/>
	<path class="st0" d="M12.9,33.8c0,1-0.8,1.8-1.8,1.8s-1.8-0.8-1.8-1.8c0-0.7,0.4-1.4,1.1-1.6v-1.6c-1.5,0.3-2.6,1.7-2.6,3.2
		c0,1.8,1.5,3.3,3.3,3.3s3.3-1.5,3.3-3.3c0-1.6-1.1-2.9-2.6-3.2v1.6C12.4,32.4,12.9,33,12.9,33.8z"/>
	<path class="st0" d="M10.3,30.6v1.6c0.2-0.1,0.5-0.2,0.8-0.2s0.5,0.1,0.8,0.2v-1.6c-0.2-0.1-0.5-0.1-0.8-0.1S10.6,30.5,10.3,30.6z"
		/>
	<path class="st0" d="M20.5,34.5c0.4,0,0.8-0.3,0.8-0.8v-1.6C21,32,20.8,32,20.5,32S20,32,19.7,32.1v1.6
		C19.7,34.2,20.1,34.5,20.5,34.5z"/>
	<path class="st0" d="M21.2,21c0-0.4-0.3-0.8-0.8-0.8s-0.8,0.3-0.8,0.8v4.3h1.5V21z"/>
	<path class="st0" d="M20.5,30.5c0.3,0,0.5,0,0.8,0.1v-3.8h-1.5v3.8C20,30.5,20.2,30.5,20.5,30.5z"/>
	<rect x="19.7" y="25.3" class="st0" width="1.5" height="1.5"/>
	<path class="st0" d="M22.3,33.8c0,1-0.8,1.8-1.8,1.8s-1.8-0.8-1.8-1.8c0-0.7,0.4-1.4,1.1-1.6v-1.6c-1.5,0.3-2.6,1.7-2.6,3.2
		c0,1.8,1.5,3.3,3.3,3.3s3.3-1.5,3.3-3.3c0-1.6-1.1-2.9-2.6-3.2v1.6C21.9,32.4,22.3,33,22.3,33.8z"/>
	<path class="st0" d="M19.7,30.6v1.6C20,32,20.2,32,20.5,32s0.5,0.1,0.8,0.2v-1.6c-0.2-0.1-0.5-0.1-0.8-0.1S20,30.5,19.7,30.6z"/>
	<path class="st0" d="M39.3,44.3c-0.3-0.4-0.5-0.9-0.7-1.4h-37v1.5h37.4C39,44.4,39.1,44.4,39.3,44.3z"/>
	<path class="st0" d="M39.3,43.7c0-0.4-0.3-0.8-0.8-0.8h-0.3c0.2,0.5,0.5,0.9,0.7,1.4C39.1,44.2,39.3,44,39.3,43.7z"/>
	<path class="st0" d="M46.8,67.4c0.3-0.9,0.5-2.2-0.7-3.3c-0.8-0.8-2.3-1.1-4.3-1c-1.4,0.1-2.6,0.3-2.6,0.3h0
		c-0.3,0-0.5,0.1-0.8,0.2c0-0.3,0-1.2,0.7-3.1c0.7-2.3,0.7-4-0.1-5.2c-0.9-1.2-2.3-1.3-2.7-1.3c-0.4,0-0.8,0.2-1,0.5
		c-0.6,0.7-0.5,1.9-0.4,2.5c-0.7,1.9-2.7,6.5-4.3,7.8c0,0-0.1,0-0.1,0.1c-0.5,0.5-0.8,1.1-1,1.6c-0.3-0.2-0.7-0.3-1.1-0.3h-3.2
		c-1.2,0-2.2,1-2.2,2.2V77c0,1.2,1,2.2,2.2,2.2h3.2c0.5,0,0.9-0.1,1.3-0.4l1.2,0.1c0.2,0,3.6,0.5,7.1,0.4c0.6,0,1.2,0.1,1.8,0.1
		c1,0,1.8-0.1,2.5-0.2c1.6-0.3,2.7-1,3.3-2c0.4-0.8,0.4-1.5,0.4-2c1.1-1,1.2-2,1.2-2.8c0-0.4-0.1-0.8-0.2-1.1
		c0.5-0.7,0.8-1.4,0.7-2.1C47.5,68.4,47.1,67.8,46.8,67.4z M29.1,77c0,0.4-0.4,0.8-0.8,0.8h-3.2v0c-0.4,0-0.8-0.4-0.8-0.8v-8.6
		c0-0.4,0.4-0.8,0.8-0.8h3.2c0.4,0,0.8,0.4,0.8,0.8V77z M45.4,70.7c-0.2,0.2-0.3,0.6-0.1,0.9c0,0,0.2,0.4,0.2,0.9
		c0,0.7-0.3,1.3-1,1.8c-0.2,0.2-0.4,0.5-0.2,0.8c0,0,0.2,0.7-0.1,1.4c-0.4,0.6-1.1,1.1-2.3,1.3c-1,0.2-2.3,0.2-3.9,0.1
		c0,0,0,0-0.1,0C34.5,78,31,77.6,31,77.6h0l-0.5-0.1c0-0.1,0-0.3,0-0.5v-8.6c0-0.2,0-0.5-0.1-0.7c0.1-0.4,0.4-1.1,1-1.8
		c2.4-1.9,4.7-8.3,4.8-8.5c0-0.1,0.1-0.2,0-0.4c-0.1-0.6-0.1-1.3,0.1-1.5c0.3,0,1,0.1,1.5,0.7c0.5,0.7,0.5,2.1-0.1,3.9
		c-0.9,2.7-1,4.1-0.3,4.8c0.4,0.3,0.8,0.3,1.2,0.2c0.3-0.1,0.6-0.1,0.9-0.2c0,0,0,0,0.1,0c1.6-0.4,4.6-0.6,5.6,0.4
		c0.9,0.8,0.2,1.8,0.2,1.9c-0.2,0.3-0.1,0.7,0.1,0.9c0,0,0.6,0.5,0.6,1.2C46.1,69.7,45.9,70.2,45.4,70.7z"/>
	<path class="st0" d="M8.5,51.8h17.1c0.4,0,0.8-0.3,0.8-0.8s-0.3-0.8-0.8-0.8H8.5c-0.4,0-0.8,0.3-0.8,0.8S8.1,51.8,8.5,51.8z"/>
	<path class="st0" d="M26.4,56.3c0-0.4-0.3-0.8-0.8-0.8H8.5c-0.4,0-0.8,0.3-0.8,0.8S8.1,57,8.5,57h17.1C26,57,26.4,56.7,26.4,56.3z"
		/>
	<path class="st0" d="M50.7,78.4c0,0.4,0.3,0.8,0.8,0.8h17.1c0.4,0,0.8-0.3,0.8-0.8s-0.3-0.8-0.8-0.8H51.4
		C51,77.7,50.7,78,50.7,78.4z"/>
	<path class="st0" d="M68.5,82.9H51.4c-0.4,0-0.8,0.3-0.8,0.8s0.3,0.8,0.8,0.8h17.1c0.4,0,0.8-0.3,0.8-0.8S69,82.9,68.5,82.9z"/>
</g>
</svg>
