<?xml version="1.0" encoding="utf-8"?>
<!-- Generator: Adobe Illustrator 21.0.0, SVG Export Plug-In . SVG Version: 6.00 Build 0)  -->
<svg version="1.1" id="Слой_1" xmlns="http://www.w3.org/2000/svg" xmlns:xlink="http://www.w3.org/1999/xlink" x="0px" y="0px"
	 viewBox="0 0 82.9 90.9" style="enable-background:new 0 0 82.9 90.9;" xml:space="preserve">
<style type="text/css">
	.st0{fill:none;}
	.st1{fill:#F9B243;}
</style>
<g>
	<g>
	</g>
	<g>
	</g>
	<g>
	</g>
	<g>
	</g>
	<g>
	</g>
	<g>
	</g>
	<g>
	</g>
	<g>
	</g>
	<g>
	</g>
	<g>
	</g>
	<g>
	</g>
	<g>
	</g>
	<g>
	</g>
	<g>
	</g>
</g>
<g>
	<rect x="59.3" y="22.5" class="st0" width="3.8" height="6.3"/>
	<path class="st0" d="M16.5,37c0-0.1-0.1-0.2-0.1-0.2c0-0.1-0.2-0.1-0.8-0.1c-0.7,0.1-1.4,0-1.9-0.3c-0.6-0.3-0.7-0.8-0.7-1.1
		c0-0.2,0-0.3-0.3-0.5c-0.7-0.4-1-0.5-1.2-0.6l0.3,6.7l5.2-3.3c-0.1-0.1-0.2-0.2-0.3-0.3C16.7,37.2,16.6,37.1,16.5,37z"/>
	<polygon class="st0" points="32,9.2 29,7.6 26,6.1 22.5,12.8 30.2,12.8 	"/>
	<polygon class="st0" points="59.3,86.3 10.7,86.3 9.6,85.2 9.6,85.2 6.9,82.5 6.9,89.4 63.1,89.4 63.1,77.6 59.3,77.6 	"/>
	<rect x="70.3" y="55.6" class="st0" width="4.3" height="14.7"/>
	<rect x="38.6" y="55.9" class="st0" width="4.3" height="4.3"/>
	<rect x="49.1" y="66" class="st0" width="4.3" height="4.3"/>
	<rect x="49.1" y="55.9" class="st0" width="4.3" height="4.3"/>
	<rect x="59.6" y="55.9" class="st0" width="3.5" height="4.3"/>
	<rect x="38.6" y="66" class="st0" width="4.3" height="4.3"/>
	<rect x="59.6" y="66" class="st0" width="3.5" height="4.3"/>
	<path class="st0" d="M13.5,33.6c0.9,0.6,1,1.2,1,1.5c0,0,0,0,0,0c0.3,0.1,0.6,0.1,0.9,0.1c0.4-0.1,1.4-0.2,2.1,0.5
		c0.2,0.2,0.3,0.3,0.3,0.5c0,0.1,0.1,0.1,0.1,0.2c0,0,0,0,0,0l7.2-14h-7.7l-5.4,10.4C12.5,33,13,33.3,13.5,33.6z"/>
	<polygon class="st0" points="26,21 29.4,14.3 21.7,14.3 18.3,21 	"/>
	<path class="st0" d="M33.6,3.9c0.1-0.3,0-0.6-0.2-0.7l-3.2-1.7c-0.1-0.1-0.3-0.1-0.4,0c-0.1,0-0.2,0.1-0.3,0.3l-0.8,1.5l4.2,2.1
		L33.6,3.9z"/>
	<polygon class="st0" points="32.1,6.8 27.9,4.6 27.6,5.2 29.7,6.3 31.8,7.4 	"/>
	<polygon class="st1" points="63.1,89.4 6.9,89.4 6.9,82.5 5.4,81 5.4,90.9 64.6,90.9 64.6,77.6 63.1,77.6 	"/>
	<polygon class="st1" points="63.1,22.5 63.1,28.8 64.6,28.8 64.6,21 59.3,21 59.3,22.5 	"/>
	<polygon class="st1" points="6.9,80.4 9.5,83.1 6.9,80.4 	"/>
	<path class="st1" d="M0.9,75.5c0.1-0.3,0.4-0.5,0.7-0.7V14.3H20l0.8-1.5H0.1v63l1.1,1.1C0.8,76.5,0.7,75.9,0.9,75.5z"/>
	<polygon class="st1" points="57.8,14.3 57.8,21 59.3,21 59.3,12.8 31.9,12.8 31.1,14.3 	"/>
	<polygon class="st1" points="2.7,76.2 2.7,76.2 5.4,78.9 5.4,78.9 	"/>
	<path class="st1" d="M57.8,84.8H11.6c-0.1,0.3-0.4,0.6-0.7,0.7c-0.2,0.1-0.3,0.1-0.5,0.1c-0.3,0-0.6-0.1-0.9-0.4l1.1,1.1h48.7v-8.7
		h-1.5V84.8z"/>
	<rect x="57.8" y="22.5" class="st1" width="1.5" height="6.3"/>
	<polygon class="st1" points="6.9,80.4 5.4,78.9 5.4,78.9 6.9,80.4 	"/>
	<rect x="57.8" y="21" class="st1" width="1.5" height="1.5"/>
	<polygon class="st1" points="9.6,85.2 6.9,82.5 6.9,82.5 9.6,85.2 	"/>
	<path class="st1" d="M11.7,76c0-0.7-0.6-1.3-1.3-1.3H6.9v1.5h3.3v7.6l-0.7-0.7l1.7,1.7h0.3c0.1-0.1,0.1-0.3,0.1-0.5V76z M10.5,76.2
		L10.5,76.2L10.5,76.2z"/>
	<path class="st1" d="M5.4,74.7H2.1c-0.2,0-0.3,0-0.5,0.1v0.3l1.1,1.1h2.7V74.7z"/>
	<polygon class="st1" points="1.2,76.8 1.2,76.8 5.4,81 5.4,81 	"/>
	<polygon class="st1" points="6.9,82.5 5.4,81 5.4,81 6.9,82.5 	"/>
	<rect x="5.4" y="74.7" class="st1" width="1.5" height="1.5"/>
	<path class="st1" d="M10.5,85.6c0.2,0,0.3,0,0.5-0.1c0.3-0.1,0.6-0.4,0.7-0.7h-0.3l-1.7-1.7l-2.7-2.7v2.1l2.7,2.7
		C9.8,85.5,10.1,85.6,10.5,85.6z"/>
	<path class="st1" d="M5.4,78.9l-2.7-2.7h0l-1.1-1.1v-0.3c-0.3,0.1-0.6,0.4-0.7,0.7c-0.2,0.5-0.1,1,0.3,1.4L5.4,81V78.9z"/>
	<polygon class="st1" points="5.4,78.9 5.4,81 6.9,82.5 6.9,80.4 	"/>
	<path class="st1" d="M12.1,32.9l5.4-10.4h-1.7l-5.5,10.6c0.1-0.1,0.2-0.1,0.3-0.1C11,32.6,11.5,32.6,12.1,32.9z"/>
	<path class="st1" d="M18.3,38.1c-0.5,0-0.9-0.2-1.3-0.5l-5.2,3.3l-0.3-6.7c0,0,0,0,0,0c-0.2,0.2-0.5,0.3-1,0.2
		c-0.2,0-0.4-0.2-0.5-0.3l0.4,9.4l8.3-5.4l0.2-0.3c0,0-0.1,0.1-0.1,0.1C18.6,38,18.4,38.1,18.3,38.1z"/>
	<polygon class="st1" points="26,6.1 29,7.6 25.6,5.9 26.3,4.6 25.3,4.1 20.8,12.8 22.5,12.8 	"/>
	<path class="st1" d="M10.8,33l-0.1,0.7L10.8,33C10.8,33,10.8,33,10.8,33z"/>
	<path class="st1" d="M18,36.4c0.1,0.1,0.2,0.1,0.4,0.1c0.4-0.1,0.8,0.1,0.9,0.5c0,0,0,0.1,0,0.1l7.6-14.7h-1.7L18,36.4z"/>
	<polygon class="st1" points="27.6,5.2 29.7,6.3 27.6,5.2 	"/>
	<polygon class="st1" points="18.3,21 21.7,14.3 20,14.3 16.6,21 	"/>
	<polygon class="st1" points="27.7,21 31.1,14.3 29.4,14.3 26,21 	"/>
	<polygon class="st1" points="32,9.2 30.2,12.8 31.9,12.8 34.1,8.6 33.1,8.1 32.4,9.4 	"/>
	<polygon class="st1" points="17.5,22.5 18.3,21 16.6,21 15.8,22.5 	"/>
	<polygon class="st1" points="26.9,22.5 27.7,21 26,21 25.2,22.5 	"/>
	<polygon class="st1" points="29.4,14.3 31.1,14.3 31.9,12.8 30.2,12.8 	"/>
	<polygon class="st1" points="21.7,14.3 22.5,12.8 20.8,12.8 20,14.3 	"/>
	<polygon class="st1" points="32,9.2 29,7.6 32,9.2 	"/>
	<path class="st1" d="M33.1,7.2c-0.1,0-0.2,0-0.3-0.1l-0.7-0.3l-0.3,0.6l-2.1-1.1l3.4,1.8l0.7-1.3C33.6,7,33.4,7.2,33.1,7.2z"/>
	<path class="st1" d="M28,2.9l0.7,0.3l0.8-1.5c0.1-0.1,0.2-0.2,0.3-0.3c0.1,0,0.3,0,0.4,0l3.2,1.7c0.3,0.1,0.4,0.5,0.2,0.7l-0.8,1.5
		l0.7,0.3c0.4,0.2,0.5,0.6,0.3,1l1.1-2.2c0.2-0.5,0.3-1,0.1-1.6c-0.2-0.5-0.5-0.9-1-1.2l-3.2-1.7c-0.5-0.3-1-0.3-1.6-0.1
		c-0.5,0.2-0.9,0.5-1.2,1L27,3.3C27.1,2.9,27.6,2.7,28,2.9z"/>
	<path class="st1" d="M27.9,4.6l-0.7-0.3c-0.4-0.2-0.5-0.6-0.3-1l-0.7,1.3l1.3,0.7L27.9,4.6z"/>
	<polygon class="st1" points="29,7.6 32,9.2 32,9.2 32.4,9.4 33.1,8.1 29.7,6.3 27.6,5.2 27.6,5.2 26.3,4.6 25.6,5.9 	"/>
	<polygon class="st1" points="27,3.3 27,3.3 27,3.3 	"/>
	<rect x="29.6" y="2.7" transform="matrix(0.4591 -0.8884 0.8884 0.4591 11.9658 29.6883)" class="st1" width="1.5" height="4.7"/>
	<polygon class="st1" points="33.8,6.8 33.8,6.8 33.8,6.8 	"/>
	<path class="st1" d="M27.3,4.3l0.7,0.3l0.7-1.3L28,2.9c-0.4-0.2-0.8,0-1,0.3l0,0C26.8,3.6,26.9,4.1,27.3,4.3z"/>
	<path class="st1" d="M33.4,5.8l-0.7-0.3l-0.7,1.3l0.7,0.3c0.1,0.1,0.2,0.1,0.3,0.1c0.3,0,0.5-0.1,0.7-0.4l0,0
		C34,6.4,33.8,6,33.4,5.8z"/>
	<path class="st1" d="M10.3,33.1c-0.2,0.1-0.4,0.3-0.4,0.5c0,0.2,0,0.4,0.1,0.5l0-0.5L10.3,33.1z"/>
	<path class="st1" d="M19.3,37.2l-0.4,0.7C19.2,37.8,19.3,37.5,19.3,37.2z"/>
	<path class="st1" d="M17.8,36.2c-0.1-0.1-0.2-0.3-0.3-0.5c-0.6-0.7-1.6-0.6-2.1-0.5c-0.4,0-0.7,0-0.9-0.1c0,0,0,0,0,0
		c0-0.3-0.1-1-1-1.5c-0.5-0.3-1-0.6-1.4-0.7L11.5,34l0,0.2c0.2,0.1,0.5,0.2,1.2,0.6C13,35,13,35.1,13,35.3c0,0.3,0.1,0.8,0.7,1.1
		c0.5,0.3,1.2,0.4,1.9,0.3c0.6-0.1,0.7,0,0.8,0.1c0,0,0.1,0.1,0.1,0.2c0.1,0.1,0.1,0.2,0.2,0.3c0.1,0.1,0.2,0.2,0.3,0.3l0.6-0.4
		l0.4-0.7c0,0,0,0,0,0C17.9,36.4,17.9,36.3,17.8,36.2z"/>
	<path class="st1" d="M18.3,36.6c-0.1,0-0.3,0-0.4-0.1l-0.4,0.7L17,37.6c0.3,0.3,0.8,0.5,1.3,0.5c0.2,0,0.4,0,0.5-0.1
		c0,0,0.1,0,0.1-0.1l0.4-0.7c0,0,0-0.1,0-0.1C19.2,36.7,18.7,36.4,18.3,36.6z"/>
	<path class="st1" d="M10.5,34.5c0.5,0.1,0.8-0.1,1-0.2c0,0,0,0,0,0l0-0.2l0.6-1.2c-0.6-0.2-1.1-0.2-1.5,0.1c-0.1,0-0.2,0-0.3,0.1
		L10,33.7l0,0.5C10.1,34.3,10.3,34.4,10.5,34.5z M10.8,33C10.8,33,10.8,33,10.8,33l-0.1,0.7L10.8,33z"/>
	<path class="st1" d="M79.2,28.8H64.6v1.5h14.6c1.2,0,2.2,1,2.2,2.2v15.2H82c0.4,0,0.8,0.3,0.8,0.8s-0.3,0.8-0.8,0.8h-0.5v24.7
		c0,1.2-1,2.2-2.2,2.2H64.6v1.5h14.6c2,0,3.7-1.7,3.7-3.7V32.5C82.9,30.4,81.3,28.8,79.2,28.8z"/>
	<rect x="59.3" y="28.8" class="st1" width="3.8" height="1.5"/>
	<rect x="59.3" y="76.1" class="st1" width="3.8" height="1.5"/>
	<path class="st1" d="M34,76.1c-1.2,0-2.2-1-2.2-2.2V49.1c-0.2-0.1-0.4-0.4-0.4-0.7s0.2-0.5,0.4-0.7V32.5c0-1.2,1-2.2,2.2-2.2h23.9
		v-1.5H34c-2,0-3.7,1.7-3.7,3.7v41.5c0,2,1.7,3.7,3.7,3.7h23.9v-1.5H34z"/>
	<rect x="63.1" y="76.1" class="st1" width="1.5" height="1.5"/>
	<rect x="63.1" y="28.8" class="st1" width="1.5" height="1.5"/>
	<rect x="57.8" y="28.8" class="st1" width="1.5" height="1.5"/>
	<rect x="57.8" y="76.1" class="st1" width="1.5" height="1.5"/>
	<path class="st1" d="M32.1,47.7c-0.1,0-0.2,0-0.3,0.1v1.3c0.1,0.1,0.2,0.1,0.3,0.1h25.7v-1.5H32.1z"/>
	<rect x="59.3" y="47.7" class="st1" width="3.8" height="1.5"/>
	<rect x="64.6" y="47.7" class="st1" width="16.8" height="1.5"/>
	<rect x="63.1" y="47.7" class="st1" width="1.5" height="1.5"/>
	<rect x="57.8" y="47.7" class="st1" width="1.5" height="1.5"/>
	<path class="st1" d="M31.4,48.5c0,0.3,0.2,0.5,0.4,0.7v-1.3C31.5,47.9,31.4,48.2,31.4,48.5z"/>
	<path class="st1" d="M82,49.2c0.4,0,0.8-0.3,0.8-0.8s-0.3-0.8-0.8-0.8h-0.5v1.5H82z"/>
	<rect x="59.3" y="33.8" class="st1" width="3.8" height="1.5"/>
	<rect x="59.3" y="42.1" class="st1" width="3.8" height="1.5"/>
	<polygon class="st1" points="74.6,35.3 74.6,42.1 64.6,42.1 64.6,43.6 76.1,43.6 76.1,33.8 64.6,33.8 64.6,35.3 	"/>
	<polygon class="st1" points="37.1,43.6 57.8,43.6 57.8,42.1 38.6,42.1 38.6,35.3 57.8,35.3 57.8,33.8 37.1,33.8 	"/>
	<rect x="63.1" y="33.8" class="st1" width="1.5" height="1.5"/>
	<rect x="63.1" y="42.1" class="st1" width="1.5" height="1.5"/>
	<rect x="57.8" y="33.8" class="st1" width="1.5" height="1.5"/>
	<rect x="57.8" y="42.1" class="st1" width="1.5" height="1.5"/>
	<path class="st1" d="M44.4,54.4h-7.3v7.3h7.3V54.4z M42.9,60.2h-4.3v-4.3h4.3V60.2z"/>
	<path class="st1" d="M54.9,54.4h-7.3v7.3h7.3V54.4z M53.4,60.2h-4.3v-4.3h4.3V60.2z"/>
	<rect x="64.6" y="54.4" class="st1" width="0.8" height="7.3"/>
	<polygon class="st1" points="59.3,61.7 63.1,61.7 63.1,60.2 59.6,60.2 59.6,55.9 63.1,55.9 63.1,54.4 59.3,54.4 	"/>
	<polygon class="st1" points="63.1,55.9 63.9,55.9 63.9,60.2 63.1,60.2 63.1,61.7 64.6,61.7 64.6,54.4 63.1,54.4 	"/>
	<rect x="58.1" y="54.4" class="st1" width="1.3" height="7.3"/>
	<polygon class="st1" points="59.6,70.3 59.6,66 63.1,66 63.1,64.5 59.3,64.5 59.3,71.8 63.1,71.8 63.1,70.3 	"/>
	<rect x="64.6" y="64.5" class="st1" width="0.8" height="7.3"/>
	<polygon class="st1" points="63.1,66 63.9,66 63.9,70.3 63.1,70.3 63.1,71.8 64.6,71.8 64.6,64.5 63.1,64.5 	"/>
	<rect x="58.1" y="64.5" class="st1" width="1.3" height="7.3"/>
	<path class="st1" d="M44.4,64.5h-7.3v7.3h7.3V64.5z M42.9,70.3h-4.3V66h4.3V70.3z"/>
	<path class="st1" d="M54.9,64.5h-7.3v7.3h7.3V64.5z M53.4,70.3h-4.3V66h4.3V70.3z"/>
	<path class="st1" d="M76.1,54.1h-7.3v17.7h7.3V54.1z M74.6,70.3h-4.3V55.6h4.3V70.3z"/>
</g>
</svg>
