<?xml version="1.0" encoding="utf-8"?>
<!-- Generator: Adobe Illustrator 21.0.0, SVG Export Plug-In . SVG Version: 6.00 Build 0)  -->
<svg version="1.1" id="Слой_1" xmlns="http://www.w3.org/2000/svg" xmlns:xlink="http://www.w3.org/1999/xlink" x="0px" y="0px"
	 viewBox="0 0 78.4 84.6" style="enable-background:new 0 0 78.4 84.6;" xml:space="preserve">
<style type="text/css">
	.st0{fill:#F9B243;}
</style>
<g>
	<path class="st0" d="M67.3,84.6H3.7c-2,0-3.6-1.6-3.6-3.6V23c0-2,1.6-3.6,3.6-3.6h63.6c2,0,3.6,1.6,3.6,3.6v12.9
		c0,0.4-0.3,0.8-0.8,0.8s-0.8-0.3-0.8-0.8V23c0-1.1-0.9-2.1-2.1-2.1H3.7c-1.1,0-2.1,0.9-2.1,2.1V81c0,1.1,0.9,2.1,2.1,2.1h63.6
		c1.1,0,2.1-0.9,2.1-2.1V44c0-0.4,0.3-0.8,0.8-0.8s0.8,0.3,0.8,0.8v37C70.9,83,69.3,84.6,67.3,84.6z"/>
</g>
<g>
	<path class="st0" d="M70.1,53H58.8c-0.4,0-0.8-0.3-0.8-0.8s0.3-0.8,0.8-0.8h11.3c0.4,0,0.8,0.3,0.8,0.8S70.6,53,70.1,53z"/>
</g>
<g>
	<path class="st0" d="M69.5,68.8H56.6c-0.4,0-0.8-0.3-0.8-0.8s0.3-0.8,0.8-0.8h12.9c0.4,0,0.8,0.3,0.8,0.8S70,68.8,69.5,68.8z"/>
</g>
<g>
	<path class="st0" d="M52.1,53H42c-0.4,0-0.8-0.3-0.8-0.8s0.3-0.8,0.8-0.8h10.1c0.4,0,0.8,0.3,0.8,0.8S52.5,53,52.1,53z"/>
</g>
<g>
	<path class="st0" d="M42,56.7c-0.4,0-0.8-0.3-0.8-0.8V42.1c0-0.4,0.3-0.8,0.8-0.8s0.8,0.3,0.8,0.8V56C42.7,56.4,42.4,56.7,42,56.7z
		"/>
</g>
<g>
	<path class="st0" d="M42,35.5c-0.4,0-0.8-0.3-0.8-0.8V20.9c0-0.4,0.3-0.8,0.8-0.8s0.8,0.3,0.8,0.8v13.9
		C42.7,35.2,42.4,35.5,42,35.5z"/>
</g>
<g>
	<path class="st0" d="M56.6,72.9c-0.4,0-0.8-0.3-0.8-0.8V60c0-0.4,0.3-0.8,0.8-0.8s0.8,0.3,0.8,0.8v12.1
		C57.3,72.5,57,72.9,56.6,72.9z"/>
</g>
<g>
	<path class="st0" d="M56.6,84.4c-0.4,0-0.8-0.3-0.8-0.8v-5.1c0-0.4,0.3-0.8,0.8-0.8s0.8,0.3,0.8,0.8v5.1
		C57.3,84.1,57,84.4,56.6,84.4z"/>
</g>
<g>
	<path class="st0" d="M63.3,43.5c-0.4,0-0.8-0.3-0.8-0.8c0-4.2,3.4-7.7,7.6-7.7c0.4,0,0.8,0.3,0.8,0.8s-0.3,0.8-0.8,0.8
		c-3.4,0-6.1,2.8-6.1,6.2C64,43.2,63.7,43.5,63.3,43.5z"/>
</g>
<g>
	<path class="st0" d="M26.6,64.2c-4.2,0-7.7-3.4-7.7-7.6c0-0.4,0.3-0.8,0.8-0.8s0.8,0.3,0.8,0.8c0,3.4,2.8,6.1,6.2,6.1
		c0.4,0,0.8,0.3,0.8,0.8S27,64.2,26.6,64.2z"/>
</g>
<g>
	<g>
		<path class="st0" d="M78.4,7.9H0.1V0h78.3V7.9z M1.6,6.4h75.3V1.5H1.6V6.4z"/>
	</g>
	<g>
		<path class="st0" d="M8,7.9c-0.4,0-0.8-0.3-0.8-0.8V3.3c0-0.4,0.3-0.8,0.8-0.8s0.8,0.3,0.8,0.8v3.8C8.7,7.5,8.4,7.9,8,7.9z"/>
	</g>
	<g>
		<path class="st0" d="M13.2,7.9c-0.4,0-0.8-0.3-0.8-0.8V4.3c0-0.4,0.3-0.8,0.8-0.8c0.4,0,0.8,0.3,0.8,0.8v2.8
			C14,7.5,13.6,7.9,13.2,7.9z"/>
	</g>
	<g>
		<path class="st0" d="M18.5,7.9c-0.4,0-0.8-0.3-0.8-0.8V3.3c0-0.4,0.3-0.8,0.8-0.8c0.4,0,0.8,0.3,0.8,0.8v3.8
			C19.2,7.5,18.9,7.9,18.5,7.9z"/>
	</g>
	<g>
		<path class="st0" d="M23.7,7.9c-0.4,0-0.8-0.3-0.8-0.8V4.3c0-0.4,0.3-0.8,0.8-0.8s0.8,0.3,0.8,0.8v2.8C24.5,7.5,24.1,7.9,23.7,7.9
			z"/>
	</g>
	<g>
		<path class="st0" d="M28.9,7.9c-0.4,0-0.8-0.3-0.8-0.8V3.3c0-0.4,0.3-0.8,0.8-0.8s0.8,0.3,0.8,0.8v3.8C29.7,7.5,29.4,7.9,28.9,7.9
			z"/>
	</g>
	<g>
		<path class="st0" d="M34.2,7.9c-0.4,0-0.8-0.3-0.8-0.8V4.3c0-0.4,0.3-0.8,0.8-0.8S35,3.9,35,4.3v2.8C35,7.5,34.6,7.9,34.2,7.9z"/>
	</g>
	<g>
		<path class="st0" d="M39.4,7.9c-0.4,0-0.8-0.3-0.8-0.8V3.3c0-0.4,0.3-0.8,0.8-0.8c0.4,0,0.8,0.3,0.8,0.8v3.8
			C40.2,7.5,39.9,7.9,39.4,7.9z"/>
	</g>
	<g>
		<path class="st0" d="M44.7,7.9c-0.4,0-0.8-0.3-0.8-0.8V4.3c0-0.4,0.3-0.8,0.8-0.8s0.8,0.3,0.8,0.8v2.8C45.4,7.5,45.1,7.9,44.7,7.9
			z"/>
	</g>
	<g>
		<path class="st0" d="M49.9,7.9c-0.4,0-0.8-0.3-0.8-0.8V3.3c0-0.4,0.3-0.8,0.8-0.8s0.8,0.3,0.8,0.8v3.8C50.7,7.5,50.3,7.9,49.9,7.9
			z"/>
	</g>
	<g>
		<path class="st0" d="M55.2,7.9c-0.4,0-0.8-0.3-0.8-0.8V4.3c0-0.4,0.3-0.8,0.8-0.8s0.8,0.3,0.8,0.8v2.8C55.9,7.5,55.6,7.9,55.2,7.9
			z"/>
	</g>
	<g>
		<path class="st0" d="M60.4,7.9c-0.4,0-0.8-0.3-0.8-0.8V3.3c0-0.4,0.3-0.8,0.8-0.8c0.4,0,0.8,0.3,0.8,0.8v3.8
			C61.2,7.5,60.8,7.9,60.4,7.9z"/>
	</g>
	<g>
		<path class="st0" d="M70.3,7.9c-0.4,0-0.8-0.3-0.8-0.8V3.3c0-0.4,0.3-0.8,0.8-0.8s0.8,0.3,0.8,0.8v3.8C71.1,7.5,70.8,7.9,70.3,7.9
			z"/>
	</g>
	<g>
		<path class="st0" d="M65.7,7.9c-0.4,0-0.8-0.3-0.8-0.8V4.3c0-0.4,0.3-0.8,0.8-0.8s0.8,0.3,0.8,0.8v2.8C66.4,7.5,66.1,7.9,65.7,7.9
			z"/>
	</g>
</g>
<g>
	<g>
		<rect y="13.5" class="st0" width="2" height="1"/>
	</g>
	<g>
		<path class="st0" d="M67.4,14.5h-4.1v-1h4.1V14.5z M59.3,14.5h-4.1v-1h4.1V14.5z M51.1,14.5H47v-1h4.1V14.5z M42.9,14.5h-4.1v-1
			h4.1V14.5z M34.7,14.5h-4.1v-1h4.1V14.5z M26.5,14.5h-4.1v-1h4.1V14.5z M18.4,14.5h-4.1v-1h4.1V14.5z M10.2,14.5H6.1v-1h4.1V14.5z
			"/>
	</g>
	<g>
		<rect x="71.5" y="13.5" class="st0" width="2" height="1"/>
	</g>
</g>
<g>
	<g>
		<rect x="75.3" y="83.2" class="st0" width="1" height="2"/>
	</g>
	<g>
		<path class="st0" d="M76.3,79.3h-1v-3.8h1V79.3z M76.3,71.7h-1v-3.8h1V71.7z M76.3,64h-1v-3.8h1V64z M76.3,56.3h-1v-3.8h1V56.3z
			 M76.3,48.7h-1v-3.8h1V48.7z M76.3,41h-1v-3.8h1V41z M76.3,33.4h-1v-3.8h1V33.4z M76.3,25.7h-1v-3.8h1V25.7z"/>
	</g>
	<g>
		<rect x="75.3" y="16.1" class="st0" width="1" height="2"/>
	</g>
</g>
<g>
	<rect x="75.3" y="11.3" class="st0" width="1" height="6.4"/>
</g>
<g>
	<rect x="73.5" y="13.5" class="st0" width="4.9" height="1"/>
</g>
<g>
	<g>
		<path class="st0" d="M26,34.9c-0.4,0-0.8-0.3-0.8-0.8V20.1c0-0.4,0.3-0.8,0.8-0.8s0.8,0.3,0.8,0.8v14.1
			C26.8,34.6,26.5,34.9,26,34.9z"/>
	</g>
	<g>
		<path class="st0" d="M26,34.9H0.8c-0.4,0-0.8-0.3-0.8-0.8s0.3-0.8,0.8-0.8H26c0.4,0,0.8,0.3,0.8,0.8S26.5,34.9,26,34.9z"/>
	</g>
</g>
<g>
	<path class="st0" d="M6.3,28.9c-1.3,0-2.3-1-2.3-2.3s1-2.3,2.3-2.3s2.3,1,2.3,2.3S7.6,28.9,6.3,28.9z M6.3,25.8
		c-0.4,0-0.8,0.4-0.8,0.8s0.4,0.8,0.8,0.8s0.8-0.4,0.8-0.8S6.7,25.8,6.3,25.8z"/>
</g>
<g>
	<path class="st0" d="M26,25.8H13.4c-0.4,0-0.8-0.3-0.8-0.8s0.3-0.8,0.8-0.8H26c0.4,0,0.8,0.3,0.8,0.8S26.5,25.8,26,25.8z"/>
</g>
<g>
	<path class="st0" d="M26,30H13.4c-0.4,0-0.8-0.3-0.8-0.8s0.3-0.8,0.8-0.8H26c0.4,0,0.8,0.3,0.8,0.8S26.5,30,26,30z"/>
</g>
<g>
	<path class="st0" d="M19.7,57H1.8C1.4,57,1,56.7,1,56.3s0.3-0.8,0.8-0.8h17.9c0.4,0,0.8,0.3,0.8,0.8S20.1,57,19.7,57z"/>
</g>
<g>
	<path class="st0" d="M35.6,57h-7.3c-0.4,0-0.8-0.3-0.8-0.8s0.3-0.8,0.8-0.8h7.3c0.4,0,0.8,0.3,0.8,0.8S36,57,35.6,57z"/>
</g>
<g>
	<path class="st0" d="M35.5,84.1c-0.4,0-0.8-0.3-0.8-0.8V56.3c0-0.4,0.3-0.8,0.8-0.8s0.8,0.3,0.8,0.8v27.1
		C36.2,83.8,35.9,84.1,35.5,84.1z"/>
</g>
<g>
	<path class="st0" d="M15.5,45.7H0.8c-0.4,0-0.8-0.3-0.8-0.8s0.3-0.8,0.8-0.8h14.7c0.4,0,0.8,0.3,0.8,0.8S15.9,45.7,15.5,45.7z"/>
</g>
<g>
	<path class="st0" d="M12.9,56.7c-0.4,0-0.8-0.3-0.8-0.8V45.7c0-0.4,0.3-0.8,0.8-0.8s0.8,0.3,0.8,0.8V56
		C13.6,56.4,13.3,56.7,12.9,56.7z"/>
</g>
</svg>
