<?xml version="1.0" encoding="utf-8"?>
<!-- Generator: Adobe Illustrator 21.0.0, SVG Export Plug-In . SVG Version: 6.00 Build 0)  -->
<svg version="1.1" id="Слой_1" xmlns="http://www.w3.org/2000/svg" xmlns:xlink="http://www.w3.org/1999/xlink" x="0px" y="0px"
	 viewBox="0 0 60 60" style="enable-background:new 0 0 60 60;" xml:space="preserve">
<style type="text/css">
	.st0{fill:#FFFFFF;}
	.st1{fill:none;}
</style>
<g>
	<path class="st0" d="M34.9,17v8.7H47V17H34.9z M46,20.7h-4.6V18H46V20.7z M40.4,18v2.6h-4.6V18H40.4z M35.8,21.7h4.6v3h-4.6V21.7z
		 M41.4,24.7v-3H46v3H41.4z"/>
	<rect x="1" y="28.2" class="st1" width="27.5" height="30.9"/>
	<path class="st0" d="M54,16.1V-0.1h-6v9.5L41,1.7l-5.5,6.2H6.1L0.1,27.2L0,27.6v0.6v31.9h28.5h1H35h12.5h6.1V22.9H60L54,16.1z
		 M28.5,59.1H1V28.2h27.5V59.1z M28.5,27.2H1.2L6.8,8.9h27.8L22,22.9h6.5V27.2z M46.5,38.3h-4.8V31c2.7,0.3,4.8,2.5,4.8,5.3V38.3z
		 M46.5,39.3V46h-4.8v-6.8H46.5z M40.7,38.3h-4.8v-2c0-2.8,2.1-5,4.8-5.3V38.3z M35.9,39.3h4.8V46h-4.8V39.3z M35.9,59.1V47h4.8v12
		H35.9z M41.7,59.1V47h4.8v12H41.7z M52.5,21.9v37.2h-5.1V36.3c0-3.5-2.8-6.3-6.3-6.3S35,32.8,35,36.3v22.8h-5.5V28.2v-1v-1.3v-4
		h-5.2l11.7-13l0.9-1L41,3.2l7.9,8.8V0.9H53v15.6l4.8,5.3H52.5z"/>
	<path class="st0" d="M4.4,36.5v11.8h19.6V36.5H4.4z M22.9,41.8h-3v-4.4h3V41.8z M9.5,37.5H19v9.8H9.5V37.5z M8.5,37.5v4.4H5.3v-4.4
		H8.5z M5.3,42.8h3.1v4.4H5.3V42.8z M20,47.2v-4.4h3v4.4H20z"/>
</g>
</svg>
