<?xml version="1.0" encoding="utf-8"?>
<!-- Generator: Adobe Illustrator 21.0.0, SVG Export Plug-In . SVG Version: 6.00 Build 0)  -->
<svg version="1.1" id="Слой_1" xmlns="http://www.w3.org/2000/svg" xmlns:xlink="http://www.w3.org/1999/xlink" x="0px" y="0px"
	 viewBox="0 0 60 60" style="enable-background:new 0 0 60 60;" xml:space="preserve">
<style type="text/css">
	.st0{fill:#FFFFFF;}
	.st1{fill:none;stroke:#FFFFFF;stroke-miterlimit:10;}
</style>
<g>
	<path class="st0" d="M16.5,15.4H0L1.9,0h12.7L16.5,15.4z M1.1,14.4h14.3L13.7,1H2.8L1.1,14.4z"/>
</g>
<g>
	<rect x="12.6" y="14.9" class="st0" width="1" height="2.7"/>
</g>
<g>
	<rect x="7.7" y="14.9" class="st0" width="1" height="44.7"/>
</g>
<line class="st1" x1="-0.1" y1="59.6" x2="16.4" y2="59.6"/>
<g>
	<path class="st0" d="M52.5,42.9H33.1v-9.3c0-4.2,3.4-7.7,7.7-7.7h4c4.2,0,7.7,3.4,7.7,7.7V42.9z M34.1,41.9h17.4v-8.3
		c0-3.7-3-6.7-6.7-6.7h-4c-3.7,0-6.7,3-6.7,6.7V41.9z"/>
</g>
<g>
	<path class="st0" d="M52.5,49.4H33.1v-7.5h19.4V49.4z M34.1,48.4h17.4v-5.5H34.1V48.4z"/>
</g>
<g>
	<path class="st0" d="M60,56.8H25.3V36.9c0-2.4,1.9-4.3,4.3-4.3s4.3,1.9,4.3,4.3v11.5h17.7V36.9c0-2.4,1.9-4.3,4.3-4.3
		s4.3,1.9,4.3,4.3V56.8z M26.3,55.8H59V36.9c0-1.8-1.5-3.3-3.3-3.3s-3.3,1.5-3.3,3.3v12.5H32.9V36.9c0-1.8-1.5-3.3-3.3-3.3
		s-3.3,1.5-3.3,3.3V55.8z"/>
</g>
<g>
	<rect x="28.2" y="56.3" class="st0" width="1" height="3.7"/>
</g>
<g>
	<rect x="55.4" y="56.3" class="st0" width="1" height="3.7"/>
</g>
<g>
	<rect x="30.7" y="5.5" class="st0" width="1" height="27.6"/>
</g>
<g>
	<rect x="19.3" y="15" class="st0" width="25" height="1"/>
</g>
<g>
	<rect x="18.8" y="5.5" class="st0" width="1" height="32.8"/>
</g>
<g>
	<rect x="18.8" y="37.8" class="st0" width="7" height="1"/>
</g>
<g>
	<g>
		<rect x="18.8" y="5" class="st0" width="26" height="1"/>
	</g>
</g>
<g>
	<rect x="43.8" y="5.5" class="st0" width="1" height="20.9"/>
</g>
</svg>
