<?xml version="1.0" encoding="utf-8"?>
<!-- Generator: Adobe Illustrator 21.0.0, SVG Export Plug-In . SVG Version: 6.00 Build 0)  -->
<svg version="1.1" id="Слой_1" xmlns="http://www.w3.org/2000/svg" xmlns:xlink="http://www.w3.org/1999/xlink" x="0px" y="0px"
	 viewBox="0 0 60 60" style="enable-background:new 0 0 60 60;" xml:space="preserve">
<style type="text/css">
	.st0{fill:#FFFFFF;}
</style>
<g>
	<path class="st0" d="M35.5,38.9c-1,0-1.9-0.9-1.9-2s0.9-2,1.9-2s1.9,0.9,1.9,2S36.5,38.9,35.5,38.9z M35.5,35.9
		c-0.5,0-0.9,0.4-0.9,1s0.4,1,0.9,1s0.9-0.4,0.9-1S36,35.9,35.5,35.9z"/>
</g>
<g>
	<path class="st0" d="M54.8,60h-6.4V20.6H27.8V60h-6.4V13.8h33.4V60z M49.4,59h4.4V14.8H22.4V59h4.4V19.6h22.6V59z"/>
</g>
<g>
	<rect y="59" class="st0" width="25.8" height="1"/>
</g>
<g>
	<rect x="52.9" y="59" class="st0" width="7.1" height="1"/>
</g>
<g>
	<polygon class="st0" points="27.5,60.2 27.1,59.3 39.3,52.9 39.3,19.8 40.3,19.8 40.3,53.5 	"/>
</g>
<g>
	<g>
		<path class="st0" d="M9.1,43.4l-3.6-2.3v-7.6h2.2V32H5.5v-3.8h2.2v-1.5H5.5v-3.8h2.2v-1.5H5.5v-2.8H0V0h18.5v18.5h-5.8v22.6
			L9.1,43.4z M6.5,40.6l2.6,1.7l2.6-1.7V17.5h5.8V1H1v16.5h5.5v2.8h2.2v3.5H6.5v1.8h2.2v3.5H6.5V31h2.2v3.5H6.5V40.6z"/>
	</g>
	<g>
		<path class="st0" d="M11.6,12.6H6.9v-3H5L9.3,5l4.2,4.6h-1.9V12.6z M7.9,11.6h2.7v-3h0.6L9.3,6.5L7.3,8.6h0.6V11.6z"/>
	</g>
</g>
<g>
	<rect x="0" y="18" class="st0" width="1" height="41.5"/>
</g>
<g>
	<rect x="59" class="st0" width="1" height="59.5"/>
</g>
<g>
	<rect x="18" y="0" class="st0" width="41.4" height="1"/>
</g>
</svg>
