<?xml version="1.0" encoding="utf-8"?>
<!-- Generator: Adobe Illustrator 21.0.0, SVG Export Plug-In . SVG Version: 6.00 Build 0)  -->
<svg version="1.1" id="Слой_1" xmlns="http://www.w3.org/2000/svg" xmlns:xlink="http://www.w3.org/1999/xlink" x="0px" y="0px"
	 viewBox="0 0 60 60" style="enable-background:new 0 0 60 60;" xml:space="preserve">
<style type="text/css">
	.st0{fill:#FFFFFF;}
	.st1{fill:none;stroke:#FFFFFF;stroke-miterlimit:10;}
</style>
<g>
	<g>
		<path class="st0" d="M55.8,12.4H4.2V-0.1h51.6V12.4z M5.2,11.4h49.6V0.9H5.2V11.4z"/>
	</g>
	<g>
		<rect x="8.2" y="8.3" class="st0" width="1" height="3.6"/>
	</g>
	<g>
		<rect x="14.4" y="8.3" class="st0" width="1" height="3.6"/>
	</g>
	<g>
		<rect x="11.3" y="5.3" class="st0" width="1" height="6.6"/>
	</g>
	<g>
		<rect x="17.6" y="5.3" class="st0" width="1" height="6.6"/>
	</g>
	<g>
		<rect x="20.4" y="8.3" class="st0" width="1" height="3.6"/>
	</g>
	<g>
		<rect x="26.7" y="8.3" class="st0" width="1" height="3.6"/>
	</g>
	<g>
		<rect x="23.5" y="5.3" class="st0" width="1" height="6.6"/>
	</g>
	<g>
		<rect x="29.8" y="5.3" class="st0" width="1" height="6.6"/>
	</g>
	<g>
		<rect x="32.7" y="8.3" class="st0" width="1" height="3.6"/>
	</g>
	<g>
		<rect x="38.9" y="8.3" class="st0" width="1" height="3.6"/>
	</g>
	<g>
		<rect x="35.8" y="5.3" class="st0" width="1" height="6.6"/>
	</g>
	<g>
		<rect x="42.1" y="5.3" class="st0" width="1" height="6.6"/>
	</g>
	<g>
		<rect x="44.9" y="8.3" class="st0" width="1" height="3.6"/>
	</g>
	<g>
		<rect x="51.1" y="8.3" class="st0" width="1" height="3.6"/>
	</g>
	<g>
		<rect x="48" y="5.3" class="st0" width="1" height="6.6"/>
	</g>
	<g>
		<path class="st0" d="M41.5,21.6H19.3V16h22.1c1.6,0,2.8,1.3,2.8,2.8S43,21.6,41.5,21.6z M20.3,20.6h21.1c1,0,1.8-0.8,1.8-1.8
			c0-1-0.8-1.8-1.8-1.8H20.3V20.6z"/>
	</g>
	<g>
		<rect x="38.3" y="16.6" class="st0" width="1" height="4.6"/>
	</g>
	<g>
		<rect x="19.8" y="18.4" class="st0" width="19" height="1"/>
	</g>
	<polygon class="st0" points="17,18.8 19.3,17.4 19.3,16 14.5,18.8 19.3,21.6 19.3,20.2 	"/>
	<g>
		<path class="st1" d="M32.8,25.8"/>
	</g>
	<g>
		<polygon class="st0" points="60,53.3 30.4,53.3 30.4,52.3 59,52.3 59,26.3 42.4,26.3 42.4,25.3 60,25.3 		"/>
	</g>
	<g>
		<polygon class="st0" points="26.5,60.1 0,60.1 0,25.3 32.8,25.3 32.8,26.3 1,26.3 1,59.1 25.5,59.1 25.5,55.5 26.5,55.5 		"/>
	</g>
	<g>
		<rect x="0" y="40.7" class="st0" width="12.4" height="1"/>
	</g>
	<g>
		<rect x="18.9" y="25.8" class="st0" width="1" height="6.1"/>
	</g>
	<g>
		<rect x="18.9" y="51.6" class="st0" width="1" height="7.5"/>
	</g>
	<g>
		<rect x="18.9" y="37.6" class="st0" width="1" height="7.4"/>
	</g>
	<g>
		<rect x="31.5" y="39.7" class="st0" width="28.2" height="1"/>
	</g>
	<g>
		<rect x="36.8" y="32.4" class="st0" width="1" height="7.8"/>
	</g>
	<g>
		<path class="st0" d="M53.7,53.3h-15v-9.6h15V53.3z M39.7,52.3h13v-7.6h-13V52.3z"/>
	</g>
	<g>
		<path class="st0" d="M13.1,38.1H5.9v-9.8h7.2V38.1z M6.9,37.1h5.2v-7.8H6.9V37.1z"/>
	</g>
	<g>
		<path class="st0" d="M16.4,27.8H2.6v-2.5h13.8V27.8z M3.6,26.8h11.8v-0.5H3.6V26.8z"/>
	</g>
	<g>
		<path class="st0" d="M55.8,40.4H41.9v-2.5h13.8V40.4z M42.9,39.4h11.8v-0.5H42.9V39.4z"/>
	</g>
	<g>
		<path class="st0" d="M15.7,60.1H1.8v-2.5h13.8V60.1z M2.8,59.1h11.8v-0.5H2.8V59.1z"/>
	</g>
	<g>
		<path class="st0" d="M7.9,56.1H2.4v-4.7h5.5V56.1z M3.4,55.1h3.5v-2.7H3.4V55.1z"/>
	</g>
	<g>
		<path class="st0" d="M7.9,49.8H2.4v-4.7h5.5V49.8z M3.4,48.8h3.5v-2.7H3.4V48.8z"/>
	</g>
</g>
</svg>
