<?xml version="1.0" encoding="utf-8"?>
<!-- Generator: Adobe Illustrator 21.0.0, SVG Export Plug-In . SVG Version: 6.00 Build 0)  -->
<svg version="1.1" id="Слой_1" xmlns="http://www.w3.org/2000/svg" xmlns:xlink="http://www.w3.org/1999/xlink" x="0px" y="0px"
	 viewBox="0 0 60 60" style="enable-background:new 0 0 60 60;" xml:space="preserve">
<style type="text/css">
	.st0{fill:#FFFFFF;}
</style>
<g>
	<rect x="9" y="42.6" class="st0" width="3.9" height="1"/>
</g>
<g>
	<rect x="9" y="50.3" class="st0" width="3.9" height="1"/>
</g>
<g>
	<path class="st0" d="M60,40.1H0v-6h60V40.1z M1,39.1h58v-4H1V39.1z"/>
</g>
<g>
	<path class="st0" d="M20.4,47.6H0v-8.4h20.4V47.6z M1,46.6h18.4v-6.4H1V46.6z"/>
</g>
<g>
	<path class="st0" d="M20.4,55H0v-8.4h20.4V55z M1,54h18.4v-6.4H1V54z"/>
</g>
<g>
	<rect x="4.7" y="54.7" class="st0" width="1" height="5.3"/>
</g>
<g>
	<rect x="15.9" y="54.7" class="st0" width="1" height="5.3"/>
</g>
<g>
	<rect x="59" y="39.6" class="st0" width="1" height="20.4"/>
</g>
<g>
	<path class="st0" d="M33.5,33.7H19.4v-9.1h14.1V33.7z M20.4,32.7h12.1v-7.1H20.4V32.7z"/>
</g>
<g>
	<rect x="21.6" y="27.6" transform="matrix(0.7071 -0.7071 0.7071 0.7071 -13.1265 24.5432)" class="st0" width="3" height="1"/>
</g>
<g>
	<rect x="21.7" y="28.4" transform="matrix(0.7071 -0.7071 0.7071 0.7071 -13.332 25.5465)" class="st0" width="5" height="1"/>
</g>
<g>
	<path class="st0" d="M47.7,49.2H33.9c-1.5,0-2.7-1.2-2.7-2.7s1.2-2.7,2.7-2.7h13.8c1.5,0,2.7,1.2,2.7,2.7S49.2,49.2,47.7,49.2z
		 M33.9,44.8c-0.9,0-1.7,0.8-1.7,1.7s0.8,1.7,1.7,1.7h13.8c0.9,0,1.7-0.8,1.7-1.7s-0.8-1.7-1.7-1.7H33.9z"/>
</g>
<g>
	<rect x="40.3" y="48.7" class="st0" width="1" height="8.3"/>
</g>
<g>
	<rect x="34.5" y="57.8" transform="matrix(0.9138 -0.4061 0.4061 0.9138 -20.4273 20.3758)" class="st0" width="6.6" height="1"/>
</g>
<g>
	<rect x="43.5" y="55" transform="matrix(0.4062 -0.9138 0.9138 0.4062 -27.1864 74.7983)" class="st0" width="1" height="6.6"/>
</g>
<g>
	<path class="st0" d="M34.2,35.1H18.7c-0.7,0-1.2-0.5-1.2-1.2s0.5-1.2,1.2-1.2h15.5c0.7,0,1.2,0.5,1.2,1.2S34.9,35.1,34.2,35.1z
		 M18.7,33.7c-0.1,0-0.2,0.1-0.2,0.2c0,0.1,0.1,0.2,0.2,0.2h15.5c0.1,0,0.2-0.1,0.2-0.2c0-0.1-0.1-0.2-0.2-0.2H18.7z"/>
</g>
<g>
	<path class="st0" d="M60.1,16.3H29.5V0h30.6V16.3z M30.5,15.3h28.6V1H30.5V15.3z"/>
</g>
<g>
	<path class="st0" d="M40.8,13.1H33V3.4h7.7V13.1z M34,12.1h5.7V4.4H34V12.1z"/>
</g>
<g>
	<path class="st0" d="M48.8,7.4h-5.3V3.4h5.3V7.4z M44.5,6.4h3.3V4.4h-3.3V6.4z"/>
</g>
<g>
	<path class="st0" d="M56,7.4h-5.3V3.4H56V7.4z M51.8,6.4H55V4.4h-3.3V6.4z"/>
</g>
<g>
	<path class="st0" d="M48.8,12.8h-5.3V8.9h5.3V12.8z M44.5,11.8h3.3V9.9h-3.3V11.8z"/>
</g>
<g>
	<path class="st0" d="M56,12.8h-5.3V8.9H56V12.8z M51.8,11.8H55V9.9h-3.3V11.8z"/>
</g>
<g>
	<path class="st0" d="M47.8,35.1h-5.1v-15h5.1V35.1z M43.7,34.1h3.1v-13h-3.1V34.1z"/>
</g>
<g>
	<path class="st0" d="M51.9,35.1h-5.1v-15h5.1V35.1z M47.8,34.1h3.1v-13h-3.1V34.1z"/>
</g>
<g>
	<path class="st0" d="M55.9,35.1h-5.1v-15h5.1V35.1z M51.9,34.1h3.1v-13h-3.1V34.1z"/>
</g>
<g>
	<path class="st0" d="M60,35.1H55v-15H60V35.1z M56,34.1H59v-13H56V34.1z"/>
</g>
<g>
	<rect x="44.6" y="31" class="st0" width="1.2" height="1"/>
</g>
<g>
	<rect x="48.7" y="31" class="st0" width="1.2" height="1"/>
</g>
<g>
	<rect x="52.9" y="31" class="st0" width="1.2" height="1"/>
</g>
<g>
	<rect x="57.1" y="31" class="st0" width="1.2" height="1"/>
</g>
<g>
	<rect x="12" class="st0" width="1" height="5.3"/>
</g>
<g>
	<path class="st0" d="M18.2,16.5H6.7v-3.1c0-3.2,2.6-5.8,5.8-5.8c3.2,0,5.8,2.6,5.8,5.8V16.5z M7.7,15.5h9.6v-2.1
		c0-2.6-2.1-4.8-4.8-4.8s-4.8,2.1-4.8,4.8V15.5z"/>
</g>
<g>
	<path class="st0" d="M14,8.8h-3.2v-4H14V8.8z M11.9,7.8H13v-2h-1.2V7.8z"/>
</g>
</svg>
