<?xml version="1.0" encoding="utf-8"?>
<!-- Generator: Adobe Illustrator 21.0.0, SVG Export Plug-In . SVG Version: 6.00 Build 0)  -->
<svg version="1.1" id="Слой_1" xmlns="http://www.w3.org/2000/svg" xmlns:xlink="http://www.w3.org/1999/xlink" x="0px" y="0px"
	 viewBox="0 0 378.2 197.1" style="enable-background:new 0 0 378.2 197.1;" xml:space="preserve">
<style type="text/css">
	.st0{fill:#FDB341;}
	.st1{fill:none;stroke:#FFFFFF;stroke-miterlimit:10;}
	.st2{fill:none;stroke:#FFFFFF;stroke-width:2;stroke-miterlimit:10;}
	.st3{fill:none;stroke:#FFFFFF;stroke-width:2;stroke-miterlimit:10;stroke-dasharray:8.1343,8.1343;}
	.st4{fill:none;stroke:#FFFFFF;stroke-width:2;stroke-linecap:round;stroke-miterlimit:10;}
	.st5{fill:#FFFFFF;stroke:#FDB341;stroke-width:2;stroke-miterlimit:10;}
	.st6{fill:#B9B9B9;}
</style>
<polygon class="st0" points="27.2,55.7 0,197.1 57.6,184.5 110.2,197.1 166.5,185.6 223,197.1 199,55.7 148.7,44.2 110.9,53.9 
	68.1,44.2 "/>
<line class="st1" x1="68.1" y1="44.2" x2="57.6" y2="184.5"/>
<line class="st1" x1="148.7" y1="44.2" x2="166.5" y2="185.6"/>
<line class="st1" x1="111.5" y1="53.9" x2="110.2" y2="197.1"/>
<g>
	<g>
		<path class="st2" d="M47.8,82.8c0.6-1.2,1.4-2.3,2.3-3.2"/>
		<path class="st3" d="M56.8,74.9c2.7-1.3,5.6-2.2,8.4-2.9c12.7-3.4,45.7,12,45.7,12s44.9-2.6,63.1,16.4c5,5.2,9.5,11.1,11.8,18
			s2,14.9-2.1,20.8c-2.3,3.4-5.8,6-9.4,8.1c-12.8,7.5-28,9.7-42.9,8.6"/>
		<path class="st2" d="M127.4,155.5c-1.3-0.1-2.6-0.3-4-0.5"/>
	</g>
</g>
<g>
	<line class="st4" x1="35.3" y1="84.7" x2="50" y2="87.5"/>
	<line class="st4" x1="44" y1="78.8" x2="41.2" y2="93.5"/>
</g>
<path class="st5" d="M111.5,1.4c-24.7,0-44.7,20-44.7,44.7s44.7,79.4,44.7,79.4s44.7-54.7,44.7-79.4S136.2,1.4,111.5,1.4z
	 M111.5,63.4c-12.1,0-22-9.8-22-22c0-12.1,9.8-22,22-22s22,9.8,22,22C133.5,53.6,123.7,63.4,111.5,63.4z"/>
<line class="st2" x1="123.4" y1="155.9" x2="123.4" y2="132.6"/>
<polygon class="st2" points="137.2,128.2 123.4,129.8 123.4,142.4 "/>
<path d="M269.6,73.7c1.1-0.2,1.8-1,2.3-4.6l0.8-5.9h8.4v10.4h1.4v4.7h-1.9v-3.1h-9.1v3.1h-1.9V73.7z M273.8,69.4
	c-0.3,2.3-0.9,3.5-1.7,4.2h7.2v-8.8h-4.9L273.8,69.4z"/>
<path d="M284.3,69.2c0-3.5,2.3-6.3,6-6.3c3.7,0,6,2.8,6,6.3c0,3.5-2.3,6.3-6,6.3C286.6,75.6,284.3,72.7,284.3,69.2z M294.2,69.2
	c0-2.4-1.4-4.6-4-4.6c-2.6,0-4,2.2-4,4.6c0,2.5,1.4,4.7,4,4.7C292.8,73.9,294.2,71.7,294.2,69.2z"/>
<path d="M351.9,75.3l-2.6-4.3l-1.1,1.4v2.9h-3.8V63.2h3.8V68l3.7-4.8h4.6l-4.4,5.5l4.7,6.6H351.9z"/>
<path d="M369.1,75.3v-7.2l-2.8,7.2h-2l-2.8-7.2v7.2h-3.8V63.2h5.1l2.5,6.5l2.5-6.5h5.1v12.1H369.1z"/>
<path d="M270.4,91.2c0-3.5,2.3-6.3,6-6.3c3.7,0,6,2.8,6,6.3c0,3.5-2.3,6.3-6,6.3C272.7,97.6,270.4,94.7,270.4,91.2z M280.3,91.2
	c0-2.4-1.4-4.6-4-4.6c-2.6,0-4,2.2-4,4.6c0,2.5,1.4,4.7,4,4.7C278.9,95.9,280.3,93.7,280.3,91.2z"/>
<path d="M287.4,97.3V86.9h-3.5v-1.6h8.9v1.6h-3.5v10.4H287.4z"/>
<path d="M309.9,86.9h-6.6v10.4h-1.9V85.2h8.4V86.9z"/>
<path d="M311.6,91.2c0-3.5,2.3-6.3,6-6.3c3.7,0,6,2.8,6,6.3c0,3.5-2.3,6.3-6,6.3C313.9,97.6,311.6,94.7,311.6,91.2z M321.5,91.2
	c0-2.4-1.4-4.6-4-4.6c-2.6,0-4,2.2-4,4.6c0,2.5,1.4,4.7,4,4.7C320.1,95.9,321.5,93.7,321.5,91.2z"/>
<path d="M328.3,95.5v6.4h-1.9V85.2h1.9V87c0.9-1.2,2.4-2.1,4.1-2.1c3.2,0,5.4,2.4,5.4,6.3c0,3.9-2.2,6.3-5.4,6.3
	C330.7,97.6,329.3,96.8,328.3,95.5z M335.8,91.2c0-2.7-1.4-4.6-3.9-4.6c-1.5,0-2.9,0.9-3.6,1.9V94c0.6,1,2.1,1.9,3.6,1.9
	C334.3,95.9,335.8,93.9,335.8,91.2z"/>
<path d="M339.9,91.2c0-3.5,2.3-6.3,6-6.3c3.7,0,6,2.8,6,6.3c0,3.5-2.3,6.3-6,6.3C342.2,97.6,339.9,94.7,339.9,91.2z M349.9,91.2
	c0-2.4-1.4-4.6-4-4.6c-2.6,0-4,2.2-4,4.6c0,2.5,1.4,4.7,4,4.7C348.5,95.9,349.9,93.7,349.9,91.2z"/>
<path d="M353.4,95.7c1.1-0.2,1.8-1,2.3-4.6l0.8-5.9h8.4v10.4h1.4v4.7h-1.9v-3.1h-9.1v3.1h-1.9V95.7z M357.5,91.4
	c-0.3,2.3-0.9,3.5-1.8,4.2h7.2v-8.8h-4.9L357.5,91.4z"/>
<path d="M376.2,97.3v-1.4c-1,1.1-2.4,1.7-4,1.7c-2,0-4.2-1.4-4.2-4c0-2.7,2.2-4,4.2-4c1.6,0,3,0.5,4,1.6v-2.2c0-1.6-1.3-2.5-3-2.5
	c-1.4,0-2.6,0.5-3.7,1.7l-0.9-1.3c1.3-1.3,2.8-2,4.8-2c2.5,0,4.7,1.1,4.7,4.1v8.3H376.2z M376.2,94.7v-2.3c-0.7-1-2-1.5-3.3-1.5
	c-1.8,0-3,1.1-3,2.6c0,1.5,1.2,2.6,3,2.6C374.2,96.2,375.5,95.7,376.2,94.7z"/>
<g>
	<g>
		<path class="st6" d="M305.3,129.2"/>
	</g>
	<g>
		<path class="st6" d="M282.6,127.5c-0.3,0.2,1.2,2.2,1.5,2c4.6-3.4,8.3-7.7,10.8-12.9C295.2,116,287.3,124.1,282.6,127.5z"/>
	</g>
	<g>
		<path class="st6" d="M289.6,131.9c-0.2,0.8,1.9,2.1,2.1,1.2c0.9-3.9,3.4-12.5,3.3-16.5C294.9,115.8,290.5,128,289.6,131.9z"/>
	</g>
	<g>
		<path class="st6" d="M292,120c-1.8,3.3-4.9,7.6-6.8,10.8c-2.6,4.5-6.2,7.8-10.4,10.8c-8.4,5.9-17,9.7-27.5,9c-1.5-0.1-5,3.2-3,3.4
			c11.4,0.7,21.1-3.2,30.4-9.5c4.1-2.8,8.2-5.9,11.4-9.8c3.5-4.3,6.7-10.8,8.3-16.4C295.1,115.7,292,120,292,120z"/>
	</g>
</g>
<g>
	<path d="M305.4,74.3l2.3-3c1.1,1,2.7,1.6,4.3,1.6c1.8,0,2.7-0.9,2.7-1.9c0-1.1-0.9-1.9-2.6-1.9c-1.3,0-2.4,0.4-3.3,1.2l-3-0.7v-9.8
		H318v3.7h-7.8v3.2c0.8-0.8,2.1-1.3,3.6-1.3c2.8,0,5.4,2.1,5.4,5.4c0,3.6-2.7,5.9-7,5.9C309.1,76.7,306.9,75.8,305.4,74.3z"/>
	<path d="M320.3,68.1c0-4.4,2.3-8.6,7.1-8.6c4.9,0,7.1,4.2,7.1,8.6s-2.3,8.6-7.1,8.6C322.6,76.7,320.3,72.5,320.3,68.1z M330.3,68.1
		c0-2.9-0.8-4.8-2.8-4.8c-2,0-2.8,1.8-2.8,4.8c0,2.9,0.8,4.8,2.8,4.8C329.5,72.9,330.3,71,330.3,68.1z"/>
</g>
</svg>
