<?xml version="1.0" encoding="utf-8"?>
<!-- Generator: Adobe Illustrator 21.0.0, SVG Export Plug-In . SVG Version: 6.00 Build 0)  -->
<svg version="1.2" baseProfile="tiny" id="Слой_1"
	 xmlns="http://www.w3.org/2000/svg" xmlns:xlink="http://www.w3.org/1999/xlink" x="0px" y="0px" viewBox="0 0 621.1 233.6"
	 xml:space="preserve">
<g>
	<path fill="#020203" d="M5.1,113.2V31.7h3.1v20.1h0.3c1.5-6.4,4.6-11.7,9.2-15.8c4.6-4.1,9.9-6.1,15.9-6.1c6.2,0,11.3,1.7,15.5,5
		c4.1,3.3,6.8,8,8.1,14h0.3c1.5-5.6,4.6-10.2,9.2-13.7c4.6-3.5,9.9-5.2,15.8-5.2c4.6,0,8.5,0.7,11.8,2.1c3.3,1.4,5.9,3.4,7.7,6
		c1.9,2.6,3.2,5.7,4.1,9.3c0.9,3.7,1.3,7.8,1.3,12.4v53.5h-3.1V59.8c0-5.7-0.7-10.5-2-14.4c-1.3-3.9-3.6-6.9-6.8-9.1
		C92.4,34.1,88,33,82.5,33c-7.4,0-13.3,2.8-17.8,8.4c-4.5,5.6-6.8,12.3-6.9,20.2v51.6h-3.1V61c0-8.7-1.5-15.6-4.5-20.5
		c-3-5-8.5-7.4-16.6-7.4c-3.7,0-7.2,0.9-10.3,2.7c-3.1,1.8-5.9,4.3-8.1,7.5c-2.3,3.2-4,6.9-5.2,10.9c-1.2,4.1-1.8,8.4-1.8,13v46.1
		H5.1z"/>
	<path fill="#020203" d="M306.5,55.8h-3.1c0-5.3-1.1-9.6-3.2-13c-2.1-3.4-5.1-5.9-8.8-7.4c-3.8-1.6-8.2-2.3-13.4-2.3
		c-9.3,0-15.6,2-18.8,6c-3.2,4-4.8,7.8-4.8,11.3c0,7.1,2.9,11.8,8.8,14.2c1.7,0.6,3.2,1.1,4.6,1.6c1.4,0.4,2.9,0.9,4.6,1.4
		c1.7,0.5,3.4,0.9,4.9,1.3c1.5,0.4,3.6,1,6.1,1.7c5.5,1.5,10,2.9,13.3,4.2c3.3,1.4,6.2,3.4,8.5,6.3c2.3,2.8,3.5,6.6,3.5,11.4
		c0,5.1-1.4,9.4-4.1,12.8c-2.7,3.4-6.3,5.9-10.6,7.5c-4.3,1.6-8.9,2.3-13.8,2.3c-7,0-12.8-1.1-17.5-3.2c-4.7-2.1-8.3-5.4-10.7-9.9
		c-2.4-4.5-3.6-10-3.6-16.7h3.1c0,8.8,2.5,15.5,7.4,20c5,4.5,12.1,6.7,21.4,6.7c4.2,0,8.2-0.7,12.1-2c3.9-1.3,7.1-3.4,9.6-6.4
		c2.5-2.9,3.8-6.5,3.8-10.8c0-3.5-0.7-6.3-2.2-8.6c-1.5-2.2-3.4-4-5.8-5.4c-2.4-1.4-5.1-2.4-8-3.3c-2.9-0.8-6.6-1.8-11.1-2.9
		c-5.7-1.5-9.5-2.6-11.5-3.2c-2-0.6-4-1.4-6.1-2.3c-3.3-1.5-5.7-3.6-7.2-6.3c-1.5-2.7-2.3-6.2-2.3-10.6c0-3.4,0.9-6.6,2.7-9.7
		c1.8-3.1,4.7-5.6,8.7-7.7c4-2,9.1-3.1,15.3-3.1c9.1,0,16.1,2.1,21.1,6.4C304,40.5,306.5,47,306.5,55.8"/>
	<path fill="#020203" d="M377.4,55.8h-3.1c0-5.3-1.1-9.6-3.2-13c-2.1-3.4-5.1-5.9-8.8-7.4c-3.8-1.6-8.2-2.3-13.4-2.3
		c-9.3,0-15.6,2-18.8,6c-3.2,4-4.8,7.8-4.8,11.3c0,7.1,2.9,11.8,8.8,14.2c1.7,0.6,3.2,1.1,4.6,1.6c1.3,0.4,2.9,0.9,4.6,1.4
		c1.7,0.5,3.4,0.9,4.9,1.3c1.5,0.4,3.6,1,6.1,1.7c5.5,1.5,10,2.9,13.3,4.2c3.3,1.4,6.2,3.4,8.5,6.3c2.3,2.8,3.5,6.6,3.5,11.4
		c0,5.1-1.4,9.4-4.1,12.8c-2.7,3.4-6.3,5.9-10.6,7.5c-4.3,1.6-8.9,2.3-13.8,2.3c-7,0-12.8-1.1-17.5-3.2c-4.7-2.1-8.3-5.4-10.7-9.9
		c-2.4-4.5-3.6-10-3.6-16.7h3.1c0,8.8,2.5,15.5,7.4,20c5,4.5,12.1,6.7,21.4,6.7c4.2,0,8.2-0.7,12.1-2c3.9-1.3,7.1-3.4,9.6-6.4
		c2.5-2.9,3.8-6.5,3.8-10.8c0-3.5-0.7-6.3-2.2-8.6c-1.5-2.2-3.4-4-5.8-5.4c-2.4-1.4-5.1-2.4-8-3.3c-2.9-0.8-6.6-1.8-11.1-2.9
		c-5.7-1.5-9.5-2.6-11.5-3.2c-2-0.6-4-1.4-6.1-2.3c-3.3-1.5-5.7-3.6-7.2-6.3c-1.5-2.7-2.3-6.2-2.3-10.6c0-3.4,0.9-6.6,2.7-9.7
		c1.8-3.1,4.7-5.6,8.7-7.7c4-2,9.1-3.1,15.3-3.1c9.1,0,16.1,2.1,21.1,6.4C375,40.5,377.4,47,377.4,55.8"/>
	<path fill="#020203" d="M392.4,69.9h62.9c0-5-0.6-9.8-1.9-14.2c-1.3-4.4-3.3-8.4-6-11.9c-2.7-3.5-6-6.2-9.9-8
		c-3.9-1.9-8.3-2.8-13.2-2.8c-5.7,0-10.9,1.5-15.6,4.5c-4.7,3-8.4,7.3-11.3,12.9C394.4,56,392.8,62.5,392.4,69.9 M458.3,73.1h-65.9
		c0.2,11.9,2.7,21.3,7.8,28.4c5,7.1,12.8,10.6,23.3,10.6c8.3,0,15.2-2.3,20.7-7.1c5.5-4.7,8.9-11.4,10.1-20h3.1
		c-1,9.2-4.7,16.5-10.8,22c-6.2,5.5-13.8,8.2-22.8,8.2c-7.8,0-14.3-1.8-19.5-5.4c-5.1-3.6-8.9-8.6-11.4-15.1
		c-2.4-6.4-3.7-13.8-3.7-22.2c0-8.6,1.6-16.1,4.8-22.6c3.2-6.5,7.4-11.4,12.7-14.8c5.3-3.4,10.9-5.1,17-5.1c5.7,0,10.7,1.1,15.2,3.3
		c4.4,2.2,8,5.3,10.8,9.1c2.8,3.8,4.9,8.4,6.4,13.7C457.6,61.4,458.3,67,458.3,73.1"/>
	<path fill="#020203" d="M473.7,72.6c0,7.1,1.3,13.7,3.8,19.8c2.5,6,6.2,10.8,11,14.3c4.8,3.5,10.5,5.3,17,5.3
		c9.7,0,17.2-3.8,22.5-11.3c5.3-7.6,7.9-16.9,7.9-28c0-6.7-1.1-13.1-3.3-19.1c-2.2-6.1-5.6-11-10.1-14.8c-4.6-3.8-10.2-5.7-17-5.7
		c-6.4,0-12,1.6-16.8,4.7s-8.5,7.7-11.1,13.7C475,57.5,473.7,64.5,473.7,72.6 M473.7,0v54.6h0.3c1-3.8,2.4-7.2,4.2-10.2
		c1.8-3,4.1-5.6,6.7-7.7c2.6-2.1,5.7-3.8,9.2-5c3.5-1.2,7.3-1.8,11.4-1.8c5.3,0,10.1,1.1,14.3,3.3c4.2,2.2,7.7,5.3,10.6,9.4
		c2.9,4,5.1,8.6,6.5,13.7c1.4,5.1,2.2,10.6,2.2,16.3c0,6.3-0.8,12-2.3,17.1c-1.5,5.1-3.7,9.5-6.6,13.4c-2.9,3.8-6.5,6.8-10.7,8.9
		c-4.2,2.1-8.9,3.2-13.9,3.2c-5.2,0-9.9-1.1-14.3-3.2c-4.3-2.1-7.9-5-10.8-8.7c-2.9-3.7-5.1-7.9-6.5-12.8h-0.3v22.7h-3.1V0H473.7z"
		/>
	<path fill="#020203" d="M551.8,72.5c0,7,1.2,13.5,3.7,19.6c2.5,6.1,6.2,10.9,11.1,14.5c4.9,3.6,10.8,5.4,17.6,5.4
		c6.7,0,12.5-1.8,17.4-5.4c4.9-3.6,8.7-8.5,11.2-14.5c2.5-6.1,3.8-12.6,3.8-19.6c0-5.3-0.7-10.3-2.2-15c-1.4-4.7-3.5-8.9-6.2-12.6
		c-2.7-3.7-6.1-6.6-10.1-8.7c-4-2.1-8.6-3.2-13.9-3.2c-5.2,0-9.8,1-13.8,3.1c-4,2.1-7.4,5-10.2,8.8c-2.8,3.8-4.9,8-6.4,12.8
		C552.5,62.5,551.8,67.4,551.8,72.5 M548.7,72.4c0-5.5,0.8-10.8,2.4-16.1c1.6-5.3,3.9-9.8,6.9-13.8c3-3.9,6.7-7,11.1-9.3
		c4.4-2.3,9.5-3.4,15.2-3.4c7.4,0,13.8,1.9,19.1,5.8c5.4,3.9,9.4,9.1,12.2,15.6c2.8,6.5,4.2,13.6,4.2,21.1c0,7.7-1.4,14.7-4.2,21.2
		c-2.8,6.5-6.8,11.7-12.2,15.6c-5.4,3.9-11.8,5.9-19.2,5.9c-5.4,0-10.4-1.1-14.9-3.4c-4.5-2.3-8.3-5.4-11.4-9.6s-5.4-8.7-6.9-13.8
		C549.5,83.3,548.7,78,548.7,72.4"/>
	<path fill="#020203" d="M128.4,93.4c0-2.1,0.2-4.3,0.5-6.4c0.7-5.1,2.1-10.1,4.3-14.7c5.3-10.9,13.3-18.7,24.3-23.2
		c2.1-0.8,4.2-1.5,6.4-1.9c0.1,0,0.2,0,0.3,0c-0.5,1.3-1.1,2.5-1.5,3.8c-1.3,3.8-2.2,7.8-2.6,11.9c-0.5,4.9-0.4,9.9,0.4,14.8
		c2.1,11.9,7.4,22,16.4,30c6.1,5.5,13.2,9,21.1,10.7c4,0.8,8.1,1,12.2,0.7c0.1,0,0.2,0,0.3,0c-0.4,0.8-0.9,1.6-1.4,2.3
		c-5.1,7.7-11.8,13.4-20.1,17c-3.7,1.6-7.5,2.5-11.5,3c-0.7,0.1-1.4,0.1-2.1,0.2c-0.1,0-0.2-0.1-0.3,0.1h-0.3c-0.1-0.1-0.3,0-0.4,0
		c-0.1,0-0.2,0-0.4,0c-0.2,0-0.4,0-0.6,0h-0.9c-0.2-0.1-0.5,0-0.7,0c-0.2,0-0.3,0-0.5,0h-1c-0.6-0.1-1.2-0.1-1.8-0.1
		c-1.7-0.1-3.3-0.4-5-0.8c-3.6-0.8-7-2.1-10.3-3.8c-3.1-1.7-6-3.7-8.7-6c-1.3-1.2-2.5-2.4-3.7-3.7c-1.4-1.6-2.7-3.2-3.9-5
		c-1.6-2.3-2.9-4.7-4.1-7.3c-1.5-3.2-2.6-6.6-3.3-10c-0.4-1.9-0.7-3.7-0.9-5.6c-0.1-0.8-0.2-1.6-0.2-2.4c0-0.8-0.1-1.7,0-2.5
		C128.3,94,128.3,93.7,128.4,93.4"/>
	<path fill="#EB5D38" d="M235.3,49.3c0,1.7-0.1,3.3-0.2,5c-0.5,5-1.6,9.9-3.6,14.5c-4.5,10.7-11.8,18.8-22.1,24.1
		c-3.1,1.6-6.3,2.7-9.7,3.4c0,0-0.1,0-0.2,0c0-0.2,0.1-0.3,0.1-0.4c1.9-4.4,3.2-9.1,3.8-13.9c0.4-3,0.6-6.1,0.4-9.2
		c-0.5-11-3.8-21-10.4-29.8c-5.9-7.8-13.4-13.4-22.6-16.5c-3.6-1.2-7.2-1.9-11-2.2c-2-0.1-3.9-0.1-5.9,0c-0.2,0-0.5,0-0.8,0
		c3.8-6.5,8.7-11.8,14.9-15.8c6.2-4,13-6.3,20.4-6.7c0.1-0.1,0.3,0,0.4,0c0.2,0,0.3,0,0.5,0c0.3,0,0.5,0.1,0.8,0h1.6
		c0.2,0.1,0.5,0,0.7,0h0.4h0.4c2.3,0,4.6,0.4,6.9,0.9c3.7,0.8,7.1,2.1,10.5,3.9c3,1.6,5.8,3.6,8.4,5.8c0.9,0.8,1.7,1.5,2.5,2.4
		c1.4,1.5,2.7,3,4,4.6c2.1,2.8,3.9,5.9,5.4,9.1c1.5,3.3,2.6,6.7,3.4,10.3c0.4,1.8,0.7,3.5,0.8,5.3c0.1,0.8,0.2,1.6,0.2,2.4
		C235.3,47.6,235.4,48.4,235.3,49.3"/>
	<path fill="#F0F0F0" d="M128.4,94.3L128.4,94.3L128.4,94.3l-0.1-1c0,0,0,0,0.1,0C128.4,93.7,128.4,94,128.4,94.3"/>
	<path fill="#EF7E5F" d="M190.2,1.9c-0.3,0.2-0.5,0.1-0.8,0.1c0,0,0,0,0,0c0,0,0,0,0,0H190.2z"/>
	<path fill="#F08468" d="M192.5,2c-0.2,0-0.5,0.1-0.7-0.1L192.5,2C192.5,1.9,192.5,1.9,192.5,2C192.5,2,192.5,2,192.5,2"/>
	<path fill="#1B1D1D" d="M171.8,141.4c0.2,0,0.5-0.1,0.7,0.1L171.8,141.4C171.7,141.5,171.7,141.5,171.8,141.4
		C171.7,141.4,171.7,141.4,171.8,141.4"/>
	<path fill="#2A2A2C" d="M173.3,141.5c0.2-0.2,0.4-0.1,0.6-0.1c0,0,0,0,0,0c0,0,0,0,0,0H173.3z"/>
	<path fill="#F5A996" d="M189.4,1.9C189.4,1.9,189.4,2,189.4,1.9C189.3,2,189.1,2,188.9,2c0,0,0,0,0-0.1c0,0,0,0,0,0H189.4z"/>
	<path fill="#FAD0C3" d="M193.3,1.9C193.3,1.9,193.3,1.9,193.3,1.9C193.2,2,193,2,192.9,2c0,0,0,0,0,0c0,0,0,0,0,0H193.3z"/>
	<path fill="#393B3B" d="M171.8,141.4C171.8,141.4,171.8,141.5,171.8,141.4l-0.5,0.1C171.4,141.3,171.6,141.5,171.8,141.4"/>
	<path fill="#FBD5CA" d="M188.9,1.9C188.9,1.9,188.9,2,188.9,1.9C188.8,2,188.7,2,188.5,2c0,0,0,0,0-0.1H188.9z"/>
	<path fill="#F5A692" d="M192.9,1.9C192.9,1.9,192.9,1.9,192.9,1.9C192.7,2,192.6,2,192.5,2c0,0,0,0,0-0.1H192.9z"/>
	<path fill="#585858" d="M174,141.5C174,141.5,174,141.4,174,141.5c0.1-0.1,0.3-0.1,0.4-0.1c0,0,0,0,0,0c0,0,0,0,0,0H174z"/>
	<path fill="#87878A" d="M174.4,141.5C174.4,141.5,174.4,141.5,174.4,141.5c0.1,0,0.3-0.2,0.4,0H174.4z"/>
</g>
<g>
	<path fill="#3C3C3B" stroke="#3C3C3B" stroke-miterlimit="10" d="M32.2,219.1h5v14.4h-1.5v-13H1.5v13H0v-14.4h4.3
		c5.5-10.7,6-24.5,6-36.2h22V219.1z M30.7,184.3H11.6c0,10.4-0.3,24.1-5.7,34.8h24.8V184.3z"/>
	<path fill="#3C3C3B" stroke="#3C3C3B" stroke-miterlimit="10" d="M45.8,220.5v-37.6h1.5v36.3h0.1l24.8-36.3h2.3v37.6H73v-36.3h-0.1
		l-24.8,36.3H45.8z"/>
	<path fill="#3C3C3B" stroke="#3C3C3B" stroke-miterlimit="10" d="M86.8,193.3h-1.5c0.7-7.3,4.6-11.5,13.7-11.5
		c8,0,13.4,3.6,13.4,10.1c0,4.3-2.2,7.9-7.6,8.6v0.1c4.6,0.2,8.4,3.9,8.4,8.9c0,7.1-6,12.1-14.8,12.1c-9.1,0-14.3-5.2-14.3-13.5V208
		h1.5v0.2c0,7.6,4.6,12,12.8,12c7.4,0,13.3-4.3,13.3-10.7c0-5-4-8.2-10.4-8.2h-5.4V200h5.4c6,0,9.6-2.9,9.6-8
		c0-5.7-4.9-8.6-11.9-8.6C91.2,183.3,87.5,186.6,86.8,193.3z"/>
	<path fill="#3C3C3B" stroke="#3C3C3B" stroke-miterlimit="10" d="M155.6,220.2c-0.8,0.2-1.4,0.3-2.4,0.3c-4,0-4-2.6-4-6
		c0-1.4,0-0.8,0.1-3.3c-2.6,6.6-7.2,10.4-15.1,10.4c-7.9,0-12.6-3.8-12.6-10.4c0-8.7,7.6-10.9,14.8-11.4c7-0.5,9.7-0.4,11.2-1.4
		c1.6-1,1.5-3,1.5-4.7c0-7.4-4.1-10.4-11.6-10.4c-7.4,0-11.7,3.7-12.4,11.2H124c0.7-8.1,5.5-12.5,13.9-12.5
		c7.2,0,12.9,2.9,12.9,10.7v22.7c0,2.3,0.4,3.9,2.8,3.9c0.7,0,1.2-0.1,2.1-0.4V220.2z M135.9,201.2c-6.4,0.5-12.8,2.1-12.8,10.1
		c0,5.7,4.1,9,11.2,9c4.2,0,7.5-1.2,10-3.7c2.9-2.8,5-7.1,5-11.1v-7.1C147.5,201,143.1,200.6,135.9,201.2z"/>
	<path fill="#3C3C3B" stroke="#3C3C3B" stroke-miterlimit="10" d="M163.6,220.5v-37.6h1.5v36.3h0.1l24.8-36.3h2.3v37.6h-1.5v-36.3
		h-0.1l-24.8,36.3H163.6z M170.5,168.2c0.8,4.2,3.4,6.4,7.5,6.4c4.4,0,7-2.1,7.6-6.4h1.5c-0.9,5.1-4,7.9-9.2,7.9
		c-4.9,0-7.9-2.7-8.9-7.9H170.5z"/>
	<path fill="#3C3C3B" stroke="#3C3C3B" stroke-miterlimit="10" d="M204.1,220.5v-37.6h1.5v17.3h25.7v-17.3h1.5v37.6h-1.5v-18.9
		h-25.7v18.9H204.1z"/>
	<path fill="#3C3C3B" stroke="#3C3C3B" stroke-miterlimit="10" d="M270.1,220.5v-37.6h1.5v36.3h0.1l24.8-36.3h2.3v37.6h-1.5v-36.3
		h-0.1l-24.8,36.3H270.1z"/>
	<path fill="#3C3C3B" stroke="#3C3C3B" stroke-miterlimit="10" d="M310.6,220.5v-37.6h1.5v17.3h25.7v-17.3h1.5v37.6h-1.5v-18.9
		h-25.7v18.9H310.6z"/>
	<path fill="#3C3C3B" stroke="#3C3C3B" stroke-miterlimit="10" d="M362.1,220.5v-36.2h-14.8v-1.4h31v1.4h-14.8v36.2H362.1z"/>
	<path fill="#3C3C3B" stroke="#3C3C3B" stroke-miterlimit="10" d="M398.6,221.8c-10.1,0-16.8-7.8-16.8-19.6c0-12,6.8-20.1,16.8-20.1
		c10.9,0,16.1,9.3,16.1,18.3v1.5h-31.4c0,9.3,4.4,18.6,15.2,18.6c8.2,0,13.5-6.2,14.3-13h1.5C413.2,215.5,407.6,221.8,398.6,221.8z
		 M398.7,183.5c-9.6,0-15,8.2-15.3,17h29.9C413.3,192,408.7,183.5,398.7,183.5z"/>
	<path fill="#3C3C3B" stroke="#3C3C3B" stroke-miterlimit="10" d="M426,193.4c2.3-7,6.6-11.6,14.8-11.6c9.9,0,16.3,7.9,16.3,20.1
		c0,12-6.5,19.9-16.4,19.9c-7.9,0-12.9-4.6-14.7-11.4l0.1,4.3v19h-1.5v-50.7h1.4V193.4z M426,202.1c0,9.3,4.1,18.4,14.8,18.4
		c9,0,14.8-7.2,14.8-18.7c0-11.5-5.7-18.6-14.8-18.6C431.4,183.2,426,190,426,202.1z"/>
	<path fill="#3C3C3B" stroke="#3C3C3B" stroke-miterlimit="10" d="M484.3,220.5h-17v-37.6h1.5v16.5h16c7.3,0,11.5,3.9,11.5,10.4
		C496.3,216.3,491.8,220.5,484.3,220.5z M484.9,200.8h-16v18.3h15.5c6.8,0,10.5-3.8,10.5-9.3C494.9,204.3,491.5,200.8,484.9,200.8z"
		/>
	<path fill="#3C3C3B" stroke="#3C3C3B" stroke-miterlimit="10" d="M520.6,221.8c-10.1,0-16.8-7.8-16.8-19.6c0-12,6.8-20.1,16.8-20.1
		c10.9,0,16.1,9.3,16.1,18.3v1.5h-31.4c0,9.3,4.4,18.6,15.2,18.6c8.2,0,13.5-6.2,14.3-13h1.5C535.2,215.5,529.5,221.8,520.6,221.8z
		 M520.6,183.5c-9.6,0-15,8.2-15.3,17h29.9C535.3,192,530.6,183.5,520.6,183.5z"/>
	<path fill="#3C3C3B" stroke="#3C3C3B" stroke-miterlimit="10" d="M548,193.4c2.3-7,6.6-11.6,14.8-11.6c9.9,0,16.3,7.9,16.3,20.1
		c0,12-6.5,19.9-16.4,19.9c-7.9,0-12.9-4.6-14.7-11.4l0.1,4.3v19h-1.5v-50.7h1.4V193.4z M548,202.1c0,9.3,4.1,18.4,14.8,18.4
		c9,0,14.8-7.2,14.8-18.7c0-11.5-5.7-18.6-14.8-18.6C553.4,183.2,548,190,548,202.1z"/>
	<path fill="#3C3C3B" stroke="#3C3C3B" stroke-miterlimit="10" d="M621.1,220.2c-0.8,0.2-1.4,0.3-2.4,0.3c-4,0-4-2.6-4-6
		c0-1.4,0-0.8,0.1-3.3c-2.6,6.6-7.2,10.4-15.1,10.4c-7.9,0-12.6-3.8-12.6-10.4c0-8.7,7.6-10.9,14.8-11.4c7-0.5,9.7-0.4,11.2-1.4
		c1.6-1,1.5-3,1.5-4.7c0-7.4-4.1-10.4-11.6-10.4c-7.4,0-11.7,3.7-12.4,11.2h-1.4c0.7-8.1,5.5-12.5,13.9-12.5
		c7.2,0,12.9,2.9,12.9,10.7v22.7c0,2.3,0.4,3.9,2.8,3.9c0.7,0,1.2-0.1,2.1-0.4V220.2z M601.4,201.2c-6.4,0.5-12.8,2.1-12.8,10.1
		c0,5.7,4.1,9,11.2,9c4.2,0,7.5-1.2,10-3.7c2.9-2.8,5-7.1,5-11.1v-7.1C612.9,201,608.6,200.6,601.4,201.2z"/>
</g>
</svg>
