<?xml version="1.0" encoding="utf-8"?>
<!-- Generator: Adobe Illustrator 21.1.0, SVG Export Plug-In . SVG Version: 6.00 Build 0)  -->
<svg version="1.1" id="Layer_1" xmlns="http://www.w3.org/2000/svg" xmlns:xlink="http://www.w3.org/1999/xlink" x="0px" y="0px"
	 viewBox="0 0 145.5 32.7" enable-background="new 0 0 145.5 32.7" xml:space="preserve">
<g>
	<g>
		<path fill="#1D1D1B" d="M0,26.2V7.3h0.7V12h0.1C1.2,10.5,1.9,9.3,3,8.3c1.1-0.9,2.3-1.4,3.8-1.4c1.5,0,2.7,0.4,3.7,1.2
			c1,0.8,1.6,1.8,1.9,3.2h0.1c0.4-1.3,1.1-2.4,2.2-3.2c1.1-0.8,2.3-1.2,3.7-1.2c1.1,0,2,0.2,2.8,0.5c0.8,0.3,1.4,0.8,1.8,1.4
			c0.4,0.6,0.8,1.3,1,2.2c0.2,0.8,0.3,1.8,0.3,2.9v12.4h-0.7V13.8c0-1.3-0.2-2.4-0.5-3.3c-0.3-0.9-0.9-1.6-1.6-2.1
			c-0.8-0.5-1.8-0.7-3.1-0.7c-1.7,0-3.2,0.6-4.2,1.9c-1.1,1.3-1.6,2.8-1.6,4.7v11.9h-0.7V14.1c0-2-0.4-3.6-1.1-4.7
			c-0.7-1.1-2-1.7-3.9-1.7C5.9,7.6,5,7.8,4.3,8.3c-0.7,0.4-1.4,1-1.9,1.7c-0.5,0.7-0.9,1.6-1.2,2.5s-0.4,1.9-0.4,3v10.7H0z"/>
		<path fill="#1D1D1B" d="M71.3,12.9h-0.7c0-1.2-0.3-2.2-0.8-3c-0.5-0.8-1.2-1.4-2.1-1.7c-0.9-0.4-2-0.5-3.2-0.5
			c-2.2,0-3.7,0.5-4.5,1.4C59.4,10,59,10.8,59,11.6c0,1.6,0.7,2.7,2.1,3.3c0.4,0.1,0.8,0.3,1.1,0.4c0.3,0.1,0.7,0.2,1.1,0.3
			s0.8,0.2,1.2,0.3c0.4,0.1,0.8,0.2,1.4,0.4c1.3,0.3,2.4,0.7,3.2,1c0.8,0.3,1.5,0.8,2,1.5c0.5,0.7,0.8,1.5,0.8,2.6
			c0,1.2-0.3,2.2-1,3s-1.5,1.4-2.5,1.7c-1,0.4-2.1,0.5-3.3,0.5c-1.7,0-3-0.2-4.2-0.7c-1.1-0.5-2-1.3-2.5-2.3c-0.6-1-0.9-2.3-0.9-3.9
			h0.7c0,2,0.6,3.6,1.8,4.6c1.2,1,2.9,1.6,5.1,1.6c1,0,1.9-0.2,2.9-0.5c0.9-0.3,1.7-0.8,2.3-1.5c0.6-0.7,0.9-1.5,0.9-2.5
			c0-0.8-0.2-1.5-0.5-2c-0.3-0.5-0.8-0.9-1.4-1.2c-0.6-0.3-1.2-0.6-1.9-0.8c-0.7-0.2-1.6-0.4-2.6-0.7c-1.3-0.4-2.3-0.6-2.7-0.7
			c-0.5-0.1-1-0.3-1.5-0.5c-0.8-0.3-1.3-0.8-1.7-1.4c-0.4-0.6-0.5-1.4-0.5-2.4c0-0.8,0.2-1.5,0.6-2.2C59.3,8.7,60,8.1,61,7.6
			c0.9-0.5,2.1-0.7,3.6-0.7c2.1,0,3.8,0.5,5,1.5C70.8,9.4,71.3,10.9,71.3,12.9z"/>
		<path fill="#1D1D1B" d="M88.1,12.9h-0.7c0-1.2-0.3-2.2-0.8-3c-0.5-0.8-1.2-1.4-2.1-1.7c-0.9-0.4-2-0.5-3.2-0.5
			c-2.2,0-3.7,0.5-4.5,1.4c-0.8,0.9-1.1,1.8-1.1,2.6c0,1.6,0.7,2.7,2.1,3.3c0.4,0.1,0.8,0.3,1.1,0.4c0.3,0.1,0.7,0.2,1.1,0.3
			s0.8,0.2,1.2,0.3c0.4,0.1,0.8,0.2,1.4,0.4c1.3,0.3,2.4,0.7,3.2,1c0.8,0.3,1.5,0.8,2,1.5c0.5,0.7,0.8,1.5,0.8,2.6
			c0,1.2-0.3,2.2-1,3s-1.5,1.4-2.5,1.7c-1,0.4-2.1,0.5-3.3,0.5c-1.7,0-3-0.2-4.2-0.7c-1.1-0.5-2-1.3-2.5-2.3c-0.6-1-0.9-2.3-0.9-3.9
			h0.7c0,2,0.6,3.6,1.8,4.6c1.2,1,2.9,1.6,5.1,1.6c1,0,1.9-0.2,2.9-0.5c0.9-0.3,1.7-0.8,2.3-1.5c0.6-0.7,0.9-1.5,0.9-2.5
			c0-0.8-0.2-1.5-0.5-2c-0.3-0.5-0.8-0.9-1.4-1.2c-0.6-0.3-1.2-0.6-1.9-0.8c-0.7-0.2-1.6-0.4-2.6-0.7c-1.3-0.4-2.3-0.6-2.7-0.7
			c-0.5-0.1-1-0.3-1.5-0.5c-0.8-0.3-1.3-0.8-1.7-1.4c-0.4-0.6-0.5-1.4-0.5-2.4c0-0.8,0.2-1.5,0.6-2.2c0.4-0.7,1.1-1.3,2.1-1.8
			c0.9-0.5,2.1-0.7,3.6-0.7c2.1,0,3.8,0.5,5,1.5C87.6,9.4,88.1,10.9,88.1,12.9z"/>
		<path fill="#1D1D1B" d="M107.3,16.9H91.7c0,2.7,0.6,4.9,1.8,6.6c1.2,1.6,3,2.4,5.5,2.4c2,0,3.6-0.5,4.9-1.6
			c1.3-1.1,2.1-2.6,2.4-4.6h0.7c-0.2,2.1-1.1,3.8-2.6,5.1c-1.5,1.3-3.3,1.9-5.4,1.9c-1.9,0-3.4-0.4-4.6-1.3c-1.2-0.8-2.1-2-2.7-3.5
			c-0.6-1.5-0.9-3.2-0.9-5.1c0-2,0.4-3.7,1.1-5.2c0.8-1.5,1.8-2.6,3-3.4c1.3-0.8,2.6-1.2,4-1.2c1.3,0,2.5,0.3,3.6,0.8
			c1,0.5,1.9,1.2,2.6,2.1c0.7,0.9,1.2,1.9,1.5,3.2C107.1,14.2,107.3,15.5,107.3,16.9z M91.7,16.2h14.9c0-1.2-0.2-2.3-0.5-3.3
			c-0.3-1-0.8-1.9-1.4-2.7c-0.6-0.8-1.4-1.4-2.3-1.9c-0.9-0.4-2-0.6-3.1-0.6c-1.4,0-2.6,0.3-3.7,1c-1.1,0.7-2,1.7-2.7,3
			C92.1,12.9,91.8,14.4,91.7,16.2z"/>
		<path fill="#1D1D1B" d="M110.9,0v12.6h0.1c0.2-0.9,0.6-1.7,1-2.4c0.4-0.7,1-1.3,1.6-1.8s1.4-0.9,2.2-1.2c0.8-0.3,1.7-0.4,2.7-0.4
			c1.3,0,2.4,0.3,3.4,0.8c1,0.5,1.8,1.2,2.5,2.2c0.7,0.9,1.2,2,1.5,3.2c0.3,1.2,0.5,2.4,0.5,3.8c0,1.5-0.2,2.8-0.5,3.9
			c-0.4,1.2-0.9,2.2-1.6,3.1c-0.7,0.9-1.5,1.6-2.5,2.1s-2.1,0.7-3.3,0.7c-1.2,0-2.4-0.2-3.4-0.7c-1-0.5-1.9-1.2-2.6-2
			c-0.7-0.8-1.2-1.8-1.5-3h-0.1v5.3h-0.7V0H110.9z M110.9,16.8c0,1.7,0.3,3.2,0.9,4.6c0.6,1.4,1.5,2.5,2.6,3.3
			c1.1,0.8,2.5,1.2,4,1.2c2.3,0,4.1-0.9,5.3-2.6c1.3-1.7,1.9-3.9,1.9-6.5c0-1.5-0.3-3-0.8-4.4c-0.5-1.4-1.3-2.5-2.4-3.4
			c-1.1-0.9-2.4-1.3-4-1.3c-1.5,0-2.8,0.4-4,1.1c-1.1,0.7-2,1.8-2.6,3.2C111.2,13.3,110.9,14.9,110.9,16.8z"/>
		<path fill="#1D1D1B" d="M128.7,16.7c0-1.3,0.2-2.5,0.6-3.7c0.4-1.2,0.9-2.3,1.6-3.2c0.7-0.9,1.6-1.6,2.6-2.1
			c1-0.5,2.2-0.8,3.6-0.8c1.7,0,3.3,0.4,4.5,1.3s2.2,2.1,2.9,3.6c0.7,1.5,1,3.1,1,4.9c0,1.8-0.3,3.4-1,4.9c-0.7,1.5-1.6,2.7-2.9,3.6
			c-1.3,0.9-2.8,1.4-4.6,1.4c-1.3,0-2.5-0.3-3.5-0.8c-1.1-0.5-2-1.3-2.7-2.2c-0.7-1-1.3-2-1.6-3.2C128.9,19.2,128.7,18,128.7,16.7z
			 M129.4,16.8c0,1.6,0.3,3.1,0.9,4.5c0.6,1.4,1.5,2.5,2.6,3.4s2.6,1.3,4.2,1.3c1.6,0,3-0.4,4.1-1.3c1.2-0.8,2.1-2,2.6-3.4
			c0.6-1.4,0.9-2.9,0.9-4.5c0-1.2-0.2-2.4-0.5-3.5c-0.3-1.1-0.8-2.1-1.5-2.9c-0.6-0.8-1.4-1.5-2.4-2c-1-0.5-2-0.7-3.3-0.7
			c-1.2,0-2.3,0.2-3.3,0.7c-0.9,0.5-1.8,1.2-2.4,2c-0.7,0.9-1.2,1.9-1.5,3C129.6,14.5,129.4,15.6,129.4,16.8z"/>
	</g>
	<g>
		<path fill="#1D1D1B" d="M29.2,21.6c0-0.5,0-1,0.1-1.5c0.2-1.2,0.5-2.3,1-3.4c1.2-2.5,3.1-4.3,5.8-5.4c0.5-0.2,1-0.3,1.5-0.4
			c0,0,0,0,0.1,0c-0.1,0.3-0.2,0.6-0.4,0.9c-0.3,0.9-0.5,1.8-0.6,2.7c-0.1,1.1-0.1,2.3,0.1,3.4c0.5,2.8,1.8,5.1,3.9,6.9
			c1.4,1.3,3.1,2.1,5,2.5c1,0.2,1.9,0.2,2.9,0.2c0,0,0,0,0.1,0c-0.1,0.2-0.2,0.4-0.3,0.5c-1.2,1.8-2.8,3.1-4.8,3.9
			c-0.9,0.4-1.8,0.6-2.7,0.7c-0.2,0-0.3,0-0.5,0c0,0-0.1,0-0.1,0c0,0,0,0-0.1,0c0,0-0.1,0-0.1,0c0,0-0.1,0-0.1,0c0,0-0.1,0-0.1,0
			c-0.1,0-0.1,0-0.2,0c-0.1,0-0.1,0-0.2,0c0,0-0.1,0-0.1,0c-0.1,0-0.2,0-0.2,0c-0.1,0-0.3,0-0.4,0c-0.4,0-0.8-0.1-1.2-0.2
			c-0.8-0.2-1.7-0.5-2.4-0.9c-0.7-0.4-1.4-0.8-2.1-1.4c-0.3-0.3-0.6-0.6-0.9-0.9c-0.3-0.4-0.6-0.7-0.9-1.2c-0.4-0.5-0.7-1.1-1-1.7
			c-0.3-0.7-0.6-1.5-0.8-2.3c-0.1-0.4-0.2-0.9-0.2-1.3c0-0.2,0-0.4,0-0.5c0-0.2,0-0.4,0-0.6C29.2,21.7,29.2,21.6,29.2,21.6z"/>
		<path fill="#FD5C30" d="M54.5,11.4c0,0.4,0,0.8-0.1,1.2c-0.1,1.2-0.4,2.3-0.8,3.4c-1.1,2.5-2.8,4.4-5.2,5.6
			c-0.7,0.4-1.5,0.6-2.3,0.8c0,0,0,0,0,0c0,0,0-0.1,0-0.1c0.5-1,0.7-2.1,0.9-3.2c0.1-0.7,0.1-1.4,0.1-2.1C47,14.3,46.2,12,44.6,10
			c-1.4-1.8-3.2-3.1-5.3-3.8c-0.8-0.3-1.7-0.4-2.6-0.5c-0.5,0-0.9,0-1.4,0c-0.1,0-0.1,0-0.2,0C36,4.2,37.1,2.9,38.6,2
			c1.5-0.9,3.1-1.4,4.8-1.6c0,0,0.1,0,0.1,0c0,0,0.1,0,0.1,0c0.1,0,0.1,0,0.2,0c0.1,0,0.2,0,0.4,0c0.1,0,0.1,0,0.2,0
			c0,0,0.1,0,0.1,0c0,0,0.1,0,0.1,0c0.6,0,1.1,0.1,1.6,0.2c0.9,0.2,1.7,0.5,2.5,0.9c0.7,0.4,1.4,0.8,2,1.4c0.2,0.2,0.4,0.4,0.6,0.5
			c0.3,0.3,0.6,0.7,0.9,1.1c0.5,0.7,0.9,1.4,1.3,2.1c0.4,0.8,0.6,1.6,0.8,2.4c0.1,0.4,0.2,0.8,0.2,1.2c0,0.2,0,0.4,0,0.6
			C54.5,11,54.5,11.2,54.5,11.4z"/>
		<path fill="#F0F0F0" d="M29.2,21.8L29.2,21.8L29.2,21.8c0-0.1,0-0.1,0-0.2c0,0,0,0,0,0C29.2,21.7,29.2,21.7,29.2,21.8z"/>
		<path fill="#FE805D" d="M43.8,0.4c-0.1,0-0.1,0-0.2,0c0,0,0,0,0,0c0,0,0,0,0,0C43.7,0.4,43.8,0.4,43.8,0.4z"/>
		<path fill="#FE8665" d="M44.4,0.5c-0.1,0-0.1,0-0.2,0C44.2,0.4,44.3,0.4,44.4,0.5C44.4,0.4,44.4,0.4,44.4,0.5
			C44.4,0.5,44.4,0.5,44.4,0.5z"/>
		<path fill="#1A1B1C" d="M39.4,32.7c0.1,0,0.1,0,0.2,0C39.6,32.7,39.5,32.7,39.4,32.7C39.4,32.7,39.4,32.7,39.4,32.7
			C39.4,32.7,39.4,32.7,39.4,32.7z"/>
		<path fill="#292A2B" d="M39.8,32.7c0,0,0.1,0,0.2,0c0,0,0,0,0,0c0,0,0,0,0,0C39.9,32.7,39.9,32.7,39.8,32.7z"/>
		<path fill="#FEAC95" d="M43.6,0.4C43.6,0.4,43.6,0.5,43.6,0.4c0,0-0.1,0-0.1,0c0,0,0,0,0,0c0,0,0,0,0,0
			C43.6,0.4,43.6,0.4,43.6,0.4z"/>
		<path fill="#FED0C3" d="M44.6,0.4C44.6,0.4,44.6,0.4,44.6,0.4c0,0-0.1,0-0.1,0c0,0,0,0,0,0c0,0,0,0,0,0
			C44.5,0.4,44.5,0.4,44.6,0.4z"/>
		<path fill="#393A3B" d="M39.4,32.7C39.5,32.7,39.5,32.7,39.4,32.7c0,0-0.1,0-0.1,0C39.4,32.7,39.4,32.7,39.4,32.7z"/>
		<path fill="#FED6CA" d="M43.5,0.4C43.5,0.4,43.5,0.5,43.5,0.4C43.5,0.5,43.5,0.5,43.5,0.4C43.4,0.5,43.4,0.4,43.5,0.4
			C43.5,0.4,43.5,0.4,43.5,0.4z"/>
		<path fill="#FEA991" d="M44.4,0.4C44.4,0.4,44.4,0.5,44.4,0.4C44.4,0.5,44.4,0.5,44.4,0.4C44.4,0.5,44.4,0.4,44.4,0.4
			C44.4,0.4,44.4,0.4,44.4,0.4z"/>
		<path fill="#565657" d="M40,32.7C40,32.7,40,32.7,40,32.7C40,32.7,40,32.7,40,32.7C40.1,32.7,40.1,32.7,40,32.7
			C40.1,32.7,40.1,32.7,40,32.7C40,32.7,40,32.7,40,32.7z"/>
		<path fill="#888889" d="M40.1,32.7C40.1,32.7,40.1,32.7,40.1,32.7C40.1,32.7,40.1,32.7,40.1,32.7C40.1,32.7,40.1,32.7,40.1,32.7z"
			/>
	</g>
</g>
</svg>
