<?xml version="1.0" encoding="UTF-8"?>
<!-- Generator: Adobe Illustrator 21.0.0, SVG Export Plug-In . SVG Version: 6.00 Build 0)  -->
<svg version="1.1" id="Layer_1" xmlns="http://www.w3.org/2000/svg" xmlns:xlink="http://www.w3.org/1999/xlink" x="0px" y="0px" viewBox="0 0 200 70" enable-background="new 0 0 200 70" xml:space="preserve">
<g>
	<g>
		<path stroke="#000000" stroke-width="0.4216" stroke-miterlimit="10" d="M4.9,38.8V14h1v6.1h0.1c0.5-2,1.4-3.6,2.9-4.8    c1.4-1.2,3.1-1.9,5-1.9c1.9,0,3.5,0.5,4.8,1.5c1.3,1,2.1,2.4,2.5,4.2h0.1c0.5-1.7,1.4-3.1,2.9-4.2c1.4-1.1,3.1-1.6,4.9-1.6    c1.4,0,2.7,0.2,3.7,0.7c1,0.4,1.8,1,2.4,1.8c0.6,0.8,1,1.7,1.3,2.8c0.3,1.1,0.4,2.4,0.4,3.8v16.3h-1V22.5c0-1.7-0.2-3.2-0.6-4.4    c-0.4-1.2-1.1-2.1-2.1-2.8c-1-0.7-2.4-1-4.1-1c-2.3,0-4.1,0.9-5.5,2.5c-1.4,1.7-2.1,3.7-2.1,6.1v15.7h-1V22.9    c0-2.7-0.5-4.7-1.4-6.2c-0.9-1.5-2.7-2.3-5.2-2.3c-1.2,0-2.2,0.3-3.2,0.8c-1,0.5-1.8,1.3-2.5,2.3c-0.7,1-1.2,2.1-1.6,3.3    s-0.6,2.5-0.6,3.9v14H4.9z"/>
		<path stroke="#000000" stroke-width="0.4216" stroke-miterlimit="10" d="M98.7,21.3h-1c0-1.6-0.3-2.9-1-3.9    c-0.7-1-1.6-1.8-2.8-2.3c-1.2-0.5-2.6-0.7-4.2-0.7c-2.9,0-4.9,0.6-5.9,1.8s-1.5,2.4-1.5,3.4c0,2.2,0.9,3.6,2.7,4.3    c0.5,0.2,1,0.3,1.4,0.5c0.4,0.1,0.9,0.3,1.4,0.4s1.1,0.3,1.5,0.4c0.5,0.1,1.1,0.3,1.9,0.5c1.7,0.5,3.1,0.9,4.1,1.3    c1,0.4,1.9,1,2.6,1.9c0.7,0.9,1.1,2,1.1,3.5c0,1.6-0.4,2.8-1.3,3.9s-2,1.8-3.3,2.3c-1.3,0.5-2.8,0.7-4.3,0.7c-2.2,0-4-0.3-5.5-1    c-1.5-0.7-2.6-1.7-3.3-3c-0.8-1.4-1.1-3.1-1.1-5.1h1c0,2.7,0.8,4.7,2.3,6.1c1.5,1.4,3.8,2,6.7,2c1.3,0,2.6-0.2,3.8-0.6    c1.2-0.4,2.2-1,3-1.9c0.8-0.9,1.2-2,1.2-3.3c0-1.1-0.2-1.9-0.7-2.6c-0.5-0.7-1.1-1.2-1.8-1.6c-0.8-0.4-1.6-0.7-2.5-1    c-0.9-0.3-2.1-0.6-3.4-0.9c-1.8-0.5-3-0.8-3.6-1c-0.6-0.2-1.3-0.4-1.9-0.7c-1-0.5-1.8-1.1-2.2-1.9c-0.5-0.8-0.7-1.9-0.7-3.2    c0-1,0.3-2,0.9-2.9c0.6-0.9,1.5-1.7,2.7-2.3c1.2-0.6,2.8-0.9,4.8-0.9c2.8,0,5,0.6,6.6,1.9C97.9,16.7,98.7,18.7,98.7,21.3z"/>
		<path stroke="#000000" stroke-width="0.4216" stroke-miterlimit="10" d="M120.8,21.3h-1c0-1.6-0.3-2.9-1-3.9    c-0.7-1-1.6-1.8-2.8-2.3c-1.2-0.5-2.6-0.7-4.2-0.7c-2.9,0-4.9,0.6-5.9,1.8s-1.5,2.4-1.5,3.4c0,2.2,0.9,3.6,2.7,4.3    c0.5,0.2,1,0.3,1.4,0.5c0.4,0.1,0.9,0.3,1.4,0.4s1.1,0.3,1.5,0.4c0.5,0.1,1.1,0.3,1.9,0.5c1.7,0.5,3.1,0.9,4.1,1.3    c1,0.4,1.9,1,2.6,1.9c0.7,0.9,1.1,2,1.1,3.5c0,1.6-0.4,2.8-1.3,3.9s-2,1.8-3.3,2.3c-1.3,0.5-2.8,0.7-4.3,0.7c-2.2,0-4-0.3-5.5-1    s-2.6-1.7-3.3-3c-0.8-1.4-1.1-3.1-1.1-5.1h1c0,2.7,0.8,4.7,2.3,6.1c1.5,1.4,3.8,2,6.7,2c1.3,0,2.6-0.2,3.8-0.6    c1.2-0.4,2.2-1,3-1.9c0.8-0.9,1.2-2,1.2-3.3c0-1.1-0.2-1.9-0.7-2.6c-0.5-0.7-1.1-1.2-1.8-1.6c-0.8-0.4-1.6-0.7-2.5-1    c-0.9-0.3-2-0.6-3.4-0.9c-1.8-0.5-3-0.8-3.6-1s-1.3-0.4-1.9-0.7c-1-0.5-1.8-1.1-2.2-1.9c-0.5-0.8-0.7-1.9-0.7-3.2    c0-1,0.3-2,0.9-2.9c0.6-0.9,1.5-1.7,2.7-2.3c1.2-0.6,2.8-0.9,4.8-0.9c2.8,0,5,0.6,6.6,1.9C120,16.7,120.8,18.7,120.8,21.3z"/>
		<path stroke="#000000" stroke-width="0.4216" stroke-miterlimit="10" d="M146,26.6h-20.5c0,3.6,0.9,6.5,2.4,8.6    c1.6,2.1,4,3.2,7.3,3.2c2.6,0,4.7-0.7,6.4-2.1c1.7-1.4,2.8-3.5,3.2-6.1h1c-0.3,2.8-1.4,5-3.4,6.7c-1.9,1.7-4.3,2.5-7.1,2.5    c-2.4,0-4.5-0.6-6.1-1.7c-1.6-1.1-2.8-2.6-3.5-4.6c-0.8-1.9-1.1-4.2-1.1-6.7c0-2.6,0.5-4.9,1.5-6.9c1-2,2.3-3.5,4-4.5    c1.6-1,3.4-1.5,5.3-1.5c1.8,0,3.3,0.3,4.7,1c1.4,0.7,2.5,1.6,3.4,2.8c0.9,1.2,1.5,2.6,2,4.2C145.8,23,146,24.7,146,26.6z     M125.5,25.6H145c0-1.5-0.2-3-0.6-4.3c-0.4-1.3-1-2.5-1.9-3.6c-0.8-1.1-1.9-1.9-3.1-2.4c-1.2-0.6-2.6-0.8-4.1-0.8    c-1.8,0-3.4,0.5-4.9,1.4c-1.5,0.9-2.6,2.2-3.5,3.9C126.1,21.4,125.6,23.4,125.5,25.6z"/>
		<path stroke="#000000" stroke-width="0.4216" stroke-miterlimit="10" d="M150.8,4.4v16.6h0.1c0.3-1.2,0.8-2.2,1.3-3.1    c0.6-0.9,1.3-1.7,2.1-2.3s1.8-1.2,2.9-1.5c1.1-0.4,2.3-0.5,3.6-0.5c1.7,0,3.1,0.3,4.4,1c1.3,0.7,2.4,1.6,3.3,2.8    c0.9,1.2,1.6,2.6,2,4.2c0.5,1.6,0.7,3.2,0.7,5c0,1.9-0.2,3.6-0.7,5.2c-0.5,1.5-1.2,2.9-2.1,4.1c-0.9,1.2-2,2.1-3.3,2.7    s-2.8,1-4.3,1c-1.6,0-3.1-0.3-4.4-1s-2.5-1.5-3.4-2.6c-0.9-1.1-1.6-2.4-2-3.9h-0.1v6.9h-1V4.4H150.8z M150.8,26.4    c0,2.2,0.4,4.2,1.2,6c0.8,1.8,1.9,3.3,3.4,4.4c1.5,1.1,3.3,1.6,5.3,1.6c3,0,5.4-1.1,7-3.4c1.6-2.3,2.5-5.1,2.5-8.5    c0-2-0.3-4-1-5.8c-0.7-1.8-1.7-3.3-3.2-4.5c-1.4-1.2-3.2-1.7-5.3-1.7c-2,0-3.7,0.5-5.2,1.4s-2.7,2.3-3.5,4.2    C151.2,21.8,150.8,24,150.8,26.4z"/>
		<path stroke="#000000" stroke-width="0.4216" stroke-miterlimit="10" d="M174.2,26.4c0-1.7,0.2-3.3,0.7-4.9c0.5-1.6,1.2-3,2.1-4.2    c0.9-1.2,2.1-2.1,3.5-2.8c1.4-0.7,2.9-1,4.7-1c2.3,0,4.3,0.6,6,1.8s2.9,2.8,3.8,4.7c0.9,2,1.3,4.1,1.3,6.4c0,2.3-0.4,4.5-1.3,6.5    c-0.9,2-2.1,3.6-3.8,4.7c-1.7,1.2-3.7,1.8-6,1.8c-1.7,0-3.2-0.3-4.6-1c-1.4-0.7-2.6-1.7-3.5-2.9c-1-1.3-1.7-2.7-2.2-4.2    C174.4,29.7,174.2,28.1,174.2,26.4z M175.1,26.4c0,2.1,0.4,4.1,1.2,5.9c0.8,1.8,1.9,3.3,3.5,4.4s3.4,1.7,5.5,1.7    c2.1,0,3.9-0.6,5.4-1.7c1.5-1.1,2.7-2.6,3.5-4.4c0.8-1.8,1.2-3.8,1.2-5.9c0-1.6-0.2-3.1-0.7-4.6c-0.5-1.4-1.1-2.7-1.9-3.8    s-1.9-2-3.1-2.6c-1.3-0.6-2.7-1-4.3-1c-1.6,0-3,0.3-4.3,1c-1.2,0.6-2.3,1.5-3.2,2.7c-0.9,1.1-1.5,2.4-2,3.9    C175.3,23.4,175.1,24.9,175.1,26.4z"/>
	</g>
	<g>
		<path fill="#010204" d="M43.3,32.7c0-0.7,0.1-1.3,0.1-1.9c0.2-1.6,0.7-3.1,1.4-4.5c1.6-3.3,4.1-5.7,7.6-7.1c0.6-0.3,1.3-0.4,2-0.6    c0,0,0,0,0.1,0c-0.2,0.4-0.3,0.8-0.5,1.2c-0.4,1.2-0.7,2.4-0.8,3.6c-0.2,1.5-0.1,3,0.1,4.5c0.6,3.6,2.3,6.7,5.1,9.1    c1.9,1.7,4.1,2.7,6.6,3.2c1.3,0.3,2.5,0.3,3.8,0.2c0,0,0.1,0,0.1,0c-0.1,0.2-0.3,0.5-0.4,0.7c-1.6,2.3-3.7,4.1-6.3,5.2    c-1.1,0.5-2.3,0.8-3.6,0.9c-0.2,0-0.4,0-0.6,0.1c0,0-0.1,0-0.1,0c0,0-0.1,0-0.1,0c0,0-0.1,0-0.1,0c0,0-0.1,0-0.1,0    c-0.1,0-0.1,0-0.2,0c-0.1,0-0.2,0-0.3,0c-0.1,0-0.1,0-0.2,0c-0.1,0-0.1,0-0.2,0c-0.1,0-0.2,0-0.3,0c-0.2,0-0.4,0-0.6,0    c-0.5,0-1-0.1-1.5-0.2c-1.1-0.2-2.2-0.6-3.2-1.2c-1-0.5-1.9-1.1-2.7-1.8c-0.4-0.4-0.8-0.7-1.2-1.1c-0.4-0.5-0.8-1-1.2-1.5    c-0.5-0.7-0.9-1.4-1.3-2.2c-0.5-1-0.8-2-1-3c-0.1-0.6-0.2-1.1-0.3-1.7c0-0.2,0-0.5,0-0.7c0-0.3,0-0.5,0-0.8    C43.3,32.9,43.2,32.8,43.3,32.7z"/>
		<path fill="#FD5C30" d="M76.6,19.3c0,0.5,0,1-0.1,1.5c-0.1,1.5-0.5,3-1.1,4.4c-1.4,3.3-3.7,5.7-6.9,7.3c-1,0.5-2,0.8-3,1    c0,0,0,0-0.1,0c0-0.1,0-0.1,0-0.1c0.6-1.4,1-2.8,1.2-4.2c0.1-0.9,0.2-1.9,0.1-2.8c-0.1-3.4-1.2-6.4-3.2-9c-1.8-2.4-4.2-4.1-7-5    c-1.1-0.4-2.2-0.6-3.4-0.7c-0.6,0-1.2,0-1.8,0c-0.1,0-0.2,0-0.3,0c1.2-2,2.7-3.6,4.6-4.8c1.9-1.2,4.1-1.9,6.3-2c0,0,0.1,0,0.1,0    c0,0,0.1,0,0.1,0c0.1,0,0.2,0,0.2,0c0.2,0,0.3,0,0.5,0c0.1,0,0.1,0,0.2,0c0,0,0.1,0,0.1,0c0,0,0.1,0,0.1,0c0.7,0,1.4,0.1,2.2,0.3    c1.1,0.3,2.2,0.6,3.3,1.2c0.9,0.5,1.8,1.1,2.6,1.8c0.3,0.2,0.5,0.5,0.8,0.7c0.4,0.4,0.9,0.9,1.2,1.4c0.7,0.9,1.2,1.8,1.7,2.8    c0.5,1,0.8,2,1,3.1c0.1,0.5,0.2,1.1,0.3,1.6c0,0.2,0,0.5,0,0.7C76.6,18.8,76.6,19.1,76.6,19.3z"/>
		<path fill="#F0F0F0" d="M43.3,33L43.3,33L43.3,33c0-0.1,0-0.2,0-0.3c0,0,0,0,0,0C43.3,32.8,43.3,32.9,43.3,33z"/>
		<path fill="#FE805D" d="M62.5,4.9c-0.1,0-0.2,0-0.2,0c0,0,0,0,0,0c0,0,0,0,0,0C62.3,4.9,62.4,4.9,62.5,4.9z"/>
		<path fill="#FE8665" d="M63.2,5c-0.1,0-0.2,0-0.2,0C63.1,4.9,63.1,4.9,63.2,5C63.2,4.9,63.2,4.9,63.2,5C63.2,5,63.2,5,63.2,5z"/>
		<path fill="#1A1B1C" d="M56.8,47.3c0.1,0,0.2,0,0.2,0C56.9,47.4,56.8,47.4,56.8,47.3C56.8,47.4,56.8,47.4,56.8,47.3    C56.8,47.3,56.8,47.3,56.8,47.3z"/>
		<path fill="#292A2B" d="M57.3,47.4c0.1,0,0.1,0,0.2,0c0,0,0,0,0,0c0,0,0,0,0,0C57.4,47.4,57.3,47.4,57.3,47.4z"/>
		<path fill="#FEAC95" d="M62.3,4.9C62.3,4.9,62.3,4.9,62.3,4.9c-0.1,0-0.1,0-0.1,0c0,0,0,0,0,0c0,0,0,0,0,0    C62.2,4.9,62.2,4.9,62.3,4.9z"/>
		<path fill="#FED0C3" d="M63.5,4.9C63.5,4.9,63.5,4.9,63.5,4.9c0,0-0.1,0-0.1,0c0,0,0,0,0,0c0,0,0,0,0,0    C63.4,4.9,63.4,4.9,63.5,4.9z"/>
		<path fill="#393A3B" d="M56.8,47.3C56.8,47.4,56.8,47.4,56.8,47.3c0,0-0.1,0-0.1,0C56.7,47.3,56.7,47.4,56.8,47.3z"/>
		<path fill="#FED6CA" d="M62.1,4.9C62.1,4.9,62.1,4.9,62.1,4.9c0,0-0.1,0-0.1,0c0,0,0,0,0,0C62,4.9,62.1,4.9,62.1,4.9z"/>
		<path fill="#FEA991" d="M63.3,4.9C63.3,4.9,63.3,4.9,63.3,4.9c0,0-0.1,0-0.1,0c0,0,0,0,0,0C63.3,4.9,63.3,4.9,63.3,4.9z"/>
		<path fill="#565657" d="M57.5,47.4C57.5,47.4,57.5,47.4,57.5,47.4c0,0,0.1,0,0.1,0c0,0,0,0,0,0c0,0,0,0,0,0    C57.5,47.4,57.5,47.4,57.5,47.4z"/>
		<path fill="#888889" d="M57.6,47.4C57.6,47.4,57.6,47.4,57.6,47.4c0,0,0.1,0,0.1,0C57.7,47.4,57.6,47.4,57.6,47.4z"/>
	</g>
</g>
<g>
	<path d="M12.7,64.7h1l0,2.9h-0.8v-2.2H6v2.2H5.2v-2.9h0.6c0.5-0.5,0.8-1.2,1.1-2.1c0.3-0.9,0.5-2,0.5-3.1l0.2-3.3h5.1V64.7z    M6.7,64.7H12v-7.9H8.4l-0.1,2.6c-0.1,1.1-0.2,2.1-0.5,3C7.5,63.4,7.1,64.1,6.7,64.7z"/>
	<path d="M26.6,56.1h0.8v9.2h-0.8v-7.9l-5.3,7.9h-0.8v-9.2h0.8V64L26.6,56.1z"/>
	<path d="M40,58.5c0-0.6-0.2-1-0.6-1.4s-1-0.5-1.8-0.5c-0.7,0-1.2,0.2-1.7,0.5c-0.4,0.4-0.7,0.8-0.7,1.4h-0.8c0-0.5,0.1-0.9,0.4-1.3   c0.3-0.4,0.6-0.7,1.1-0.9c0.5-0.2,1-0.3,1.6-0.3c1,0,1.8,0.2,2.3,0.7s0.9,1.1,0.9,1.9c0,0.5-0.2,0.9-0.5,1.3s-0.7,0.6-1.2,0.8   c1.2,0.3,1.8,1.1,1.8,2.2c0,0.8-0.3,1.4-0.9,1.9c-0.6,0.5-1.4,0.7-2.4,0.7c-0.6,0-1.2-0.1-1.7-0.4c-0.5-0.2-0.9-0.6-1.1-1   c-0.3-0.4-0.4-0.9-0.4-1.4h0.8c0,0.6,0.2,1.1,0.7,1.5s1,0.6,1.8,0.6c0.8,0,1.4-0.2,1.9-0.5s0.7-0.8,0.7-1.4c0-0.6-0.2-1.1-0.6-1.4   s-1-0.5-1.9-0.5h-1.2v-0.7h1.1c0.8,0,1.4-0.2,1.8-0.5S40,59.1,40,58.5z"/>
	<path d="M52.9,62.7h-4.2l-1,2.6h-0.8l3.5-9.2h0.7l3.5,9.2h-0.8L52.9,62.7z M48.9,62.1h3.7l-1.9-5L48.9,62.1z"/>
	<path d="M67.3,56.1H68v9.2h-0.8v-7.9L62,65.3h-0.8v-9.2H62V64L67.3,56.1z M66.5,53.8c0,0.5-0.2,0.9-0.5,1.2   c-0.3,0.3-0.8,0.5-1.3,0.5c-0.6,0-1-0.1-1.3-0.4c-0.3-0.3-0.5-0.7-0.5-1.2h0.6c0,0.4,0.1,0.6,0.3,0.8c0.2,0.2,0.5,0.3,0.9,0.3   s0.7-0.1,0.9-0.3c0.2-0.2,0.3-0.5,0.3-0.8H66.5z"/>
	<path d="M82.5,65.3h-0.8v-4.4h-5.3v4.4h-0.8v-9.2h0.8v4.2h5.3v-4.2h0.8V65.3z"/>
	<path d="M99.8,60.3c-0.4-0.4-0.6-0.8-0.8-1.2c-0.2-0.3-0.3-0.7-0.3-1c0-0.6,0.2-1.2,0.6-1.5c0.4-0.4,0.9-0.6,1.5-0.6   c0.6,0,1.1,0.2,1.4,0.5s0.5,0.8,0.5,1.3c0,0.6-0.4,1.2-1.1,1.8l-1,0.8l2.5,3c0.4-0.6,0.6-1.3,0.6-2.1h0.7c0,1-0.3,1.9-0.8,2.7   l1.3,1.5h-0.9l-0.8-0.9c-0.3,0.3-0.7,0.6-1.2,0.8c-0.4,0.2-0.9,0.3-1.4,0.3c-0.9,0-1.6-0.2-2.1-0.7c-0.5-0.5-0.8-1.1-0.8-1.8   c0-0.4,0.1-0.9,0.4-1.3C98.5,61.3,99,60.9,99.8,60.3L99.8,60.3z M100.8,64.8c0.4,0,0.8-0.1,1.1-0.2c0.4-0.2,0.7-0.4,1-0.7l-2.6-3   l-0.1-0.1L99.9,61c-0.8,0.7-1.2,1.3-1.2,2c0,0.6,0.2,1,0.6,1.3C99.6,64.7,100.1,64.8,100.8,64.8z M99.5,58c0,0.5,0.3,1.1,0.9,1.8   l0.8-0.6c0.3-0.2,0.5-0.4,0.7-0.6c0.2-0.2,0.3-0.5,0.3-0.8c0-0.3-0.1-0.6-0.3-0.8c-0.2-0.2-0.5-0.3-0.9-0.3c-0.4,0-0.7,0.1-1,0.4   S99.5,57.6,99.5,58z"/>
	<path d="M120.7,61.6v3.8h-0.8v-9.2h3.1c1,0,1.7,0.2,2.3,0.7c0.6,0.5,0.8,1.2,0.8,2c0,0.9-0.3,1.5-0.8,2c-0.5,0.5-1.3,0.7-2.3,0.7   H120.7z M120.7,60.9h2.4c0.8,0,1.3-0.2,1.7-0.5c0.4-0.4,0.6-0.9,0.6-1.5c0-0.6-0.2-1.1-0.6-1.5c-0.4-0.4-1-0.6-1.7-0.6h-2.4V60.9z"/>
	<path d="M138.2,60.9h-4.3v3.8h5v0.7h-5.8v-9.2h5.7v0.7h-4.9v3.5h4.3V60.9z"/>
	<path d="M146.8,56.1l3.4,8.2l3.4-8.2h1v9.2h-0.8v-4l0.1-4.1l-3.4,8.2h-0.6l-3.4-8.1l0.1,4.1v4h-0.8v-9.2H146.8z"/>
	<path d="M169,61.2c0,0.9-0.1,1.6-0.4,2.2c-0.3,0.6-0.7,1.1-1.3,1.5c-0.5,0.3-1.2,0.5-1.9,0.5c-1.1,0-2-0.4-2.6-1.2   c-0.7-0.8-1-1.8-1-3.1v-1c0-0.8,0.1-1.6,0.4-2.2c0.3-0.6,0.7-1.1,1.3-1.5c0.5-0.3,1.2-0.5,1.9-0.5s1.3,0.2,1.9,0.5s1,0.8,1.3,1.5   c0.3,0.6,0.5,1.4,0.5,2.2V61.2z M168.2,60.2c0-1.1-0.3-2-0.8-2.6c-0.5-0.6-1.2-0.9-2.1-0.9c-0.9,0-1.5,0.3-2.1,0.9   c-0.5,0.6-0.8,1.5-0.8,2.6v1c0,1.1,0.3,2,0.8,2.6c0.5,0.6,1.2,1,2.1,1c0.9,0,1.6-0.3,2.1-0.9c0.5-0.6,0.7-1.5,0.7-2.6V60.2z"/>
	<path d="M183,65.3h-0.8v-4.4H177v4.4h-0.8v-9.2h0.8v4.2h5.3v-4.2h0.8V65.3z"/>
	<path d="M196.7,56.8h-3.2v8.6h-0.8v-8.6h-3.2v-0.7h7.1V56.8z"/>
</g>
</svg>