<?xml version="1.0" encoding="utf-8"?>
<!-- Generator: Adobe Illustrator 21.0.0, SVG Export Plug-In . SVG Version: 6.00 Build 0)  -->
<svg version="1.1" id="Слой_1" xmlns="http://www.w3.org/2000/svg" xmlns:xlink="http://www.w3.org/1999/xlink" x="0px" y="0px"
	 viewBox="0 0 144.7 165.2" style="enable-background:new 0 0 144.7 165.2;" xml:space="preserve">
<style type="text/css">
	.st0{fill:none;}
	.st1{fill:#F9B345;}
</style>
<g>
	<path class="st0" d="M129.2,99.6c1.2,1.1,3,1.1,4.3,0c0.6-0.6,0.9-1.4,0.9-2.2c0-0.8-0.3-1.4-0.9-1.9l0,0l-5.2-5.2l0.4-0.5
		c2.2-3,3.5-6.1,4-9.6l0.1-0.6h7.5c1.6,0,3-1.4,3-3s-1.4-3-3-3h-7.5l-0.1-0.6c-0.5-3.5-1.8-6.8-4-9.7l-0.4-0.5l5.2-5.2
		c1.1-1.2,1.1-3,0-4.3c-1.2-1-3-1-4.2,0.1l-3.2,3.2v40.2L129.2,99.6z"/>
	<path class="st1" d="M140.2,71.9H134c-0.6-3.3-1.8-6.4-3.8-9.2l4.4-4.4c1.6-1.8,1.6-4.5-0.1-6.4c-1.8-1.6-4.5-1.6-6.3,0l-2.1,2.1
		v2.1l3.2-3.2c1.2-1.1,3.1-1.1,4.2-0.1c1.1,1.2,1.1,3.1,0,4.3l-5.2,5.2l0.4,0.5c2.1,2.9,3.5,6.2,4,9.7l0.1,0.6h7.5c1.6,0,3,1.4,3,3
		s-1.4,3-3,3h-7.5l-0.1,0.6c-0.5,3.4-1.8,6.6-4,9.6l-0.4,0.5l5.2,5.2l0,0c0.6,0.5,0.9,1.2,0.9,1.9c0,0.8-0.3,1.6-0.9,2.2
		c-1.2,1.1-3.1,1.1-4.3,0l-3.2-3.2v2.1l2.2,2.2c1.8,1.6,4.5,1.6,6.3,0c0.9-0.9,1.4-2.1,1.4-3.4c0-1.2-0.5-2.2-1.4-3l-4.3-4.3
		c2-2.9,3.2-5.8,3.8-9.1h6.2c2.4,0,4.5-2.1,4.5-4.5C144.7,74,142.6,71.9,140.2,71.9z"/>
	<polygon class="st1" points="124.5,57.7 126,56.2 126,54.1 124.5,55.6 	"/>
	<polygon class="st1" points="124.5,94.9 124.5,97.1 126,98.6 126,96.4 	"/>
	<polygon class="st1" points="120.3,76.4 120.8,77.2 124.5,77.2 124.5,75.7 120.8,75.7 	"/>
	<rect x="124.5" y="75.7" class="st1" width="0.4" height="1.5"/>
	<polygon class="st1" points="122.2,82.9 123.6,82.2 120.8,77.2 119,77.2 	"/>
	<polygon class="st1" points="120.1,76.8 119.5,76.4 118.8,76.8 119,77.2 120.8,77.2 120.3,76.4 	"/>
	<polygon class="st1" points="123.6,70.6 122.2,69.9 119,75.7 120.8,75.7 	"/>
	<polygon class="st1" points="119.5,76.4 120.1,76.1 120.3,76.4 120.8,75.7 119,75.7 118.8,76.1 	"/>
	<polygon class="st1" points="119.5,76.4 120.1,76.8 120.3,76.4 120.1,76.1 	"/>
	<g>
		<path class="st0" d="M14.1,88.7c-0.8,0.8-1.2,1.8-1.2,3s0.4,2.2,1.2,3l4,3.9V87.7C16.7,87.4,15.1,87.7,14.1,88.7z"/>
		<path class="st0" d="M120.8,77.2l2.8,5l-1.3,0.7l-3.2-5.8h-6.6l6,6.1l-1.1,1.1l-6.2-6.3v7.1l5.6,3.4l-0.8,1.3l-4.8-2.9V91h-1.5
			v-4.2l-5,2.9l-0.8-1.3l5.8-3.4v-6.5l-6.1,6.1l-1.1-1.1l6.3-6.4h-6.6l-3.2,5.8l-1.3-0.7l2.8-5h-4.9v-1.5h4.9l-2.8-5l1.3-0.7
			l3.2,5.8h6.6l-6.7-6.8l1.1-1.1l6.4,6.5v-5.9l-5.8-3.4l0.8-1.3l5,2.9v-4.8h1.5v4.8l4.8-2.9l0.8,1.3l-5.6,3.4v6.4l6.6-6.6l1.1,1.1
			l-6.3,6.4h6.6l3.2-5.8l1.3,0.7l-2.8,5h3.8V57.7l-0.5,0.5l-0.5-0.4c-2.9-2.1-6.2-3.5-9.6-4l-0.6-0.1v-7.5c0-1.6-1.4-3-3-3
			s-3,1.4-3,3v7.5l-0.6,0.1c-3.5,0.5-6.8,1.9-9.6,4l-0.5,0.4L91.3,53c-1.2-1.1-3-1.1-4.3,0c-1,1.2-1,3,0.1,4.2l5.2,5.2L91.9,63
			c-2.1,2.9-3.5,6.2-4,9.7l-0.1,0.6h-7.3c-1.6,0-3,1.4-3,3s1.4,3,3,3h7.3l0.1,0.6c0.5,3.4,1.9,6.7,4,9.6l0.4,0.5L87,95.4
			c-1.1,1.2-1.1,3,0,4.3c1.2,1,3,1,4.2-0.1l5.2-5.2l0.5,0.4c2.9,2.1,6.2,3.5,9.6,4l0.6,0.1v7.5c0,1.6,1.4,3,3,3s3-1.4,3-3v-7.5
			l0.6-0.1c3.5-0.5,6.8-1.9,9.6-4l0.5-0.4l0.6,0.6V77.2H120.8z"/>
		<path class="st0" d="M114.8,100.1v6.2c0,2.4-2.1,4.5-4.5,4.5c-2.4,0-4.5-2.1-4.5-4.5v-6.2c-3.2-0.6-6.3-1.9-9.1-3.8l-4.3,4.3
			c-1.9,1.7-4.5,1.7-6.3,0c-1.7-1.9-1.7-4.5-0.1-6.4l4.4-4.4c-1.9-2.8-3.2-5.9-3.8-9.1h-6c-2.4,0-4.5-2.1-4.5-4.5
			c0-2.4,2.1-4.5,4.5-4.5h6c0.6-3.3,1.8-6.4,3.8-9.2L86,58.3c-1.7-1.9-1.7-4.5,0-6.3c1.9-1.7,4.5-1.7,6.4-0.1l4.4,4.4
			c2.7-1.9,5.8-3.2,9.1-3.8v-6.2c0-2.4,2.1-4.5,4.5-4.5c2.4,0,4.5,2.1,4.5,4.5v6.2c3.2,0.6,6.3,1.9,9.1,3.8l0.7-0.7V25.2
			c0-2.9-2.4-5.3-5.3-5.3h-18.9v7.1c0,2.6-1.9,4.5-4.5,4.5c-2.4,0-4.5-2.1-4.5-4.5V20H48v7.1c-0.2,2.7-2.1,4.5-4.5,4.5
			c-2.4,0-4.5-2.1-4.5-4.5V20H24.9c-2.9,0-5.3,2.4-5.3,5.3v23.3h52.5V50H19.6v36.6c0.5,0.3,1,0.6,1.5,1l6,5.9
			c3.7-2.5,7.8-4.2,12.5-5.1V80c0-3.1,2.6-5.7,5.7-5.7S51,76.9,51,80v8.4c4.4,0.7,8.5,2.4,12.5,5.1l5.9-6c2.2-2.2,5.9-2.2,8.1,0
			c1,1,1.6,2.5,1.6,4s-0.6,3-1.6,4l-5.9,6c2.7,3.6,4.5,7.9,5.3,12.5h8.4c2.8,0,5.2,2.1,5.6,4.8h28.4c2.9,0,5.3-2.4,5.3-5.3V97.1
			l-0.7-0.7C121.2,98.3,118.1,99.6,114.8,100.1z M72.2,68H51.5v-1.5h20.7V68z M72.2,58.9H51.5v-1.5h20.7V58.9z"/>
		<path class="st0" d="M85.3,115.6h-9.7l-0.1-0.6c-0.7-4.8-2.6-9.3-5.5-13l-0.4-0.5l6.8-7c0.8-0.8,1.2-1.8,1.2-3s-0.4-2.2-1.2-3
			c-0.8-0.8-1.8-1.2-3-1.2s-2.2,0.4-3,1.2l-6.8,6.9l-0.5-0.4c-4.1-2.9-8.5-4.7-13-5.3l-0.6-0.1V80c0-2.3-1.9-4.2-4.2-4.2
			s-4.2,1.9-4.2,4.2v9.7l-0.6,0.1c-4.9,0.9-9.2,2.6-13,5.3L27,95.5L20,88.8c-0.1-0.1-0.3-0.2-0.4-0.4v11.7l1.4,1.4l-0.4,0.5
			c-0.4,0.5-0.7,1.1-1.1,1.6v10.1c0,2.9,2.4,5.3,5.3,5.3h12.5c0.5-2.9,2.7-5.5,5.7-6.3c4.3-1.2,8.8,1.2,10,5.5
			c0.1,0.3,0.1,0.5,0.2,0.8h36.1C89,117,87.3,115.6,85.3,115.6z M34.2,115.5l-7.5-4.1l0.7-1.3l7.5,4.1L34.2,115.5z M41.2,108.4
			l-2.4-8.2l1.4-0.4l2.4,8.2L41.2,108.4z M52,109.6l-1.3-0.7l4.1-7.3l1.3,0.7L52,109.6z M57,117.6l-0.4-1.4l8.2-2.4l0.4,1.4
			L57,117.6z"/>
		<path class="st0" d="M47.6,128.1c-0.8,0.2-1.5,0.3-2.3,0.3c-3.5,0-6.8-2.3-7.8-5.8c-0.2-0.7-0.3-1.5-0.3-2.2H24.9
			c-3.7,0-6.8-3-6.8-6.8v-7.4c-1.4,2.8-2.3,5.7-2.8,8.7l-0.1,0.6H5.7c-2.3,0-4.2,1.9-4.2,4.2s1.9,4.2,4.2,4.2h9.7l0.1,0.6
			c0.9,5,2.7,9.3,5.3,12.8l0.4,0.5l-6.8,6.9c-1.6,1.6-1.6,4.4,0,6c1.6,1.6,4.4,1.6,5.9,0l6.8-6.9l0.5,0.4c4.1,2.9,8.5,4.7,13,5.3
			l0.6,0.1v9.7c0,2.3,1.9,4.2,4.2,4.2s4.2-1.9,4.2-4.2v-9.7l0.6-0.1c4.9-0.9,9.2-2.6,13-5.3l0.5-0.4l6.9,6.8c1.6,1.6,4.4,1.6,6,0
			c1.5-1.5,1.4-4.1-0.2-5.8l-6.9-6.8l0.4-0.5c2.9-4.1,4.7-8.5,5.3-13l0.1-0.6h9.9c2.1,0,3.9-1.6,4.1-3.6h-36
			C53.4,123.9,51.1,127.1,47.6,128.1z M24.7,127l-0.4-1.4l8.2-2.4l0.4,1.4L24.7,127z M35.7,139.2l-1.3-0.7l4.3-7.5l1.3,0.7
			L35.7,139.2z M50.4,140.7l-2.4-8.2l1.4-0.4l2.4,8.2L50.4,140.7z M56.8,126.3l7.5,4.1l-0.7,1.3l-7.5-4.1L56.8,126.3z"/>
		<path class="st0" d="M51.7,118.5c-0.5-1.7-1.6-3.1-3.2-3.9c-1.5-0.9-3.3-1-5-0.6c-2.4,0.7-4.1,2.6-4.6,4.9h12.9
			C51.8,118.8,51.7,118.6,51.7,118.5z"/>
		<path class="st0" d="M47.2,126.7c2.9-0.8,4.7-3.4,4.8-6.3H38.8c0,0.6,0.1,1.2,0.3,1.8C40,125.7,43.7,127.7,47.2,126.7z"/>
		<path class="st1" d="M119.3,20c2.9,0,5.3,2.4,5.3,5.3v30.4l1.5-1.5V25.2c0-3.7-3-6.8-6.8-6.8h-18.9V20H119.3z"/>
		<path class="st1" d="M124.5,113.7c0,2.9-2.4,5.3-5.3,5.3H90.9c0,0.3,0.1,0.6,0.1,0.9c0,0.2,0,0.4,0,0.6h28.3c3.7,0,6.8-3,6.8-6.8
			V98.6l-1.5-1.5V113.7z"/>
		<rect x="48" y="18.5" class="st1" width="43.4" height="1.5"/>
		<path class="st1" d="M19.6,50h-0.8v-1.5h0.8V25.2c0-2.9,2.4-5.3,5.3-5.3H39v-1.5H24.9c-3.7,0-6.8,3-6.8,6.8v60.9
			c0.5,0.1,1,0.3,1.5,0.5V50z"/>
		<path class="st1" d="M123.5,94.8c-2.7,2.1-6,3.4-9.6,4l-0.6,0.1v7.5c0,1.6-1.4,3-3,3s-3-1.4-3-3v-7.5l-0.6-0.1
			c-3.4-0.5-6.7-1.9-9.6-4l-0.5-0.4l-5.2,5.2c-1.2,1.1-3.1,1.1-4.2,0.1c-1.1-1.2-1.1-3.1,0-4.3l5.2-5.2l-0.4-0.5
			c-2.1-2.9-3.5-6.2-4-9.6l-0.1-0.6h-7.3c-1.6,0-3-1.4-3-3s1.4-3,3-3h7.3l0.1-0.6c0.5-3.5,1.8-6.8,4-9.7l0.4-0.5l-5.2-5.2
			C86,56.1,86,54.3,87,53.1c1.2-1.1,3.1-1.1,4.3,0l5.2,5.2l0.5-0.4c2.7-2.1,6-3.4,9.6-4l0.6-0.1v-7.5c0-1.6,1.4-3,3-3s3,1.4,3,3v7.5
			l0.6,0.1c3.4,0.5,6.7,1.9,9.6,4l0.5,0.4l0.5-0.5v-2.1l-0.7,0.7c-2.8-1.9-5.9-3.2-9.1-3.8v-6.2c0-2.4-2.1-4.5-4.5-4.5
			c-2.4,0-4.5,2.1-4.5,4.5v6.2c-3.3,0.6-6.4,1.9-9.1,3.8L92.3,52c-1.8-1.6-4.5-1.6-6.4,0.1c-1.6,1.8-1.6,4.5,0,6.3l4.3,4.3
			c-1.9,2.8-3.2,5.9-3.8,9.2h-6c-2.4,0-4.5,2.1-4.5,4.5c0,2.4,2.1,4.5,4.5,4.5h6c0.6,3.2,1.9,6.3,3.8,9.1l-4.4,4.4
			c-1.6,1.8-1.6,4.5,0.1,6.4c1.8,1.6,4.5,1.6,6.3,0l4.3-4.3c2.8,1.9,5.9,3.2,9.1,3.8v6.2c0,2.4,2.1,4.5,4.5,4.5
			c2.4,0,4.5-2.1,4.5-4.5v-6.2c3.3-0.6,6.4-1.9,9.1-3.8l0.7,0.7v-2.1l-0.6-0.6L123.5,94.8z"/>
		<path class="st1" d="M21,101.5l-1.4-1.4v3.5c0.3-0.5,0.7-1.1,1.1-1.6L21,101.5z"/>
		<path class="st1" d="M85.3,114.1h-8.4c-0.8-4.6-2.6-8.9-5.3-12.5l5.9-6c1-1,1.6-2.5,1.6-4s-0.6-3-1.6-4c-2.2-2.2-5.9-2.2-8.1,0
			l-5.9,6c-3.9-2.7-8.1-4.4-12.5-5.1V80c0-3.1-2.6-5.7-5.7-5.7s-5.7,2.6-5.7,5.7v8.4c-4.7,0.9-8.8,2.6-12.5,5.1l-6-5.9
			c-0.4-0.4-1-0.8-1.5-1v1.7c0.1,0.1,0.3,0.2,0.4,0.4l6.9,6.8l0.5-0.4c3.8-2.7,8.1-4.5,13-5.3l0.6-0.1V80c0-2.3,1.9-4.2,4.2-4.2
			s4.2,1.9,4.2,4.2v9.7l0.6,0.1c4.5,0.6,8.9,2.4,13,5.3l0.5,0.4l6.8-6.9c0.8-0.8,1.8-1.2,3-1.2s2.2,0.4,3,1.2c0.8,0.8,1.2,1.8,1.2,3
			s-0.4,2.2-1.2,3l-6.8,7L70,102c2.9,3.7,4.8,8.2,5.5,13l0.1,0.6h9.7c2,0,3.7,1.4,4.1,3.3h1.5C90.5,116.2,88.1,114.1,85.3,114.1z"/>
		<path class="st1" d="M85.3,124h-9.9l-0.1,0.6c-0.6,4.5-2.4,8.9-5.3,13l-0.4,0.5l6.9,6.8c1.6,1.7,1.6,4.3,0.2,5.8
			c-1.6,1.6-4.4,1.6-6,0l-6.9-6.8l-0.5,0.4c-3.8,2.7-8.1,4.5-13,5.3l-0.6,0.1v9.7c0,2.3-1.9,4.2-4.2,4.2s-4.2-1.9-4.2-4.2v-9.7
			l-0.6-0.1c-4.5-0.6-8.9-2.4-13-5.3l-0.5-0.4l-6.8,6.9c-1.6,1.6-4.4,1.6-5.9,0c-1.6-1.6-1.6-4.4,0-6l6.8-6.9l-0.4-0.5
			c-2.6-3.5-4.4-7.9-5.3-12.8l-0.1-0.6H5.7c-2.3,0-4.2-1.9-4.2-4.2s1.9-4.2,4.2-4.2h9.5l0.1-0.6c0.4-3,1.4-5.9,2.8-8.7v-3.1
			c-2.1,3.4-3.5,7.2-4.2,11H5.7c-3.1,0-5.7,2.6-5.7,5.7s2.6,5.7,5.7,5.7h8.4c0.9,4.7,2.7,8.9,5.1,12.3l-5.9,6
			c-2.2,2.2-2.2,5.9,0,8.1c2.2,2.2,5.9,2.2,8.1,0l5.9-6c3.9,2.7,8.1,4.4,12.5,5.1v8.4c0,3.1,2.6,5.7,5.7,5.7s5.7-2.6,5.7-5.7V151
			c4.7-0.9,8.8-2.6,12.5-5.1l6,5.9c2.2,2.2,5.9,2.2,8.1,0c2-2,2-5.6-0.1-7.9l-6.1-5.9c2.7-3.9,4.4-8.1,5.1-12.5h8.6
			c2.9,0,5.4-2.3,5.7-5.1h-1.5C89.2,122.4,87.4,124,85.3,124z"/>
		<path class="st1" d="M14.1,94.7c-0.8-0.8-1.2-1.8-1.2-3s0.4-2.2,1.2-3c1-1,2.6-1.4,4-1v-1.6c-1.8-0.3-3.7,0.2-5.1,1.5
			c-1,1-1.6,2.5-1.6,4s0.6,3,1.6,4l5.1,4.9v-2.1L14.1,94.7z"/>
		<path class="st1" d="M19.6,103.6v-3.5l-1.5-1.5v2.1l1,0.9c-0.3,0.5-0.7,1-1,1.5v3.1C18.6,105.4,19.1,104.5,19.6,103.6z"/>
		<path class="st1" d="M90.9,118.9h-1.5c0.1,0.3,0.1,0.6,0.1,0.9c0,0.2,0,0.4-0.1,0.6H91c0-0.2,0-0.4,0-0.6
			C91,119.5,91,119.2,90.9,118.9z"/>
		<path class="st1" d="M19.6,88.4v-1.7c-0.5-0.2-1-0.4-1.5-0.5v1.6C18.6,87.8,19.2,88.1,19.6,88.4z"/>
		<path class="st1" d="M43.5,114c1.7-0.5,3.5-0.3,5,0.6c1.5,0.8,2.7,2.3,3.2,3.9c0,0.1,0.1,0.3,0.1,0.4h1.5c0-0.3-0.1-0.5-0.2-0.8
			c-1.2-4.3-5.7-6.8-10-5.5c-3,0.9-5.2,3.4-5.7,6.3h1.5C39.4,116.6,41.1,114.7,43.5,114z"/>
		<path class="st1" d="M47.2,126.7c-3.5,1-7.2-1-8.2-4.5c-0.2-0.6-0.2-1.2-0.3-1.8h-1.5c0,0.7,0.1,1.5,0.3,2.2
			c1,3.5,4.3,5.8,7.8,5.8c0.7,0,1.5-0.1,2.3-0.3c3.5-1,5.8-4.2,5.8-7.7H52C51.9,123.2,50.1,125.8,47.2,126.7z"/>
		<path class="st1" d="M52,120.4h1.5c0-0.5,0-1-0.1-1.5h-1.5C51.9,119.4,52,119.9,52,120.4z"/>
		<path class="st1" d="M37.3,120.4h1.5c0-0.5,0-1,0.2-1.5h-1.5C37.3,119.4,37.3,119.9,37.3,120.4z"/>
		<rect x="40" y="99.8" transform="matrix(0.96 -0.28 0.28 0.96 -27.5189 15.5663)" class="st1" width="1.5" height="8.5"/>
		<rect x="49.2" y="132.1" transform="matrix(0.96 -0.28 0.28 0.96 -36.1902 19.4404)" class="st1" width="1.5" height="8.5"/>
		<rect x="56.6" y="115" transform="matrix(0.96 -0.2801 0.2801 0.96 -29.9715 21.6809)" class="st1" width="8.5" height="1.5"/>
		<rect x="24.3" y="124.4" transform="matrix(0.96 -0.2801 0.2801 0.96 -33.8947 13.0147)" class="st1" width="8.5" height="1.5"/>
		
			<rect x="49.2" y="104.8" transform="matrix(0.4869 -0.8735 0.8735 0.4869 -64.817 100.7803)" class="st1" width="8.4" height="1.5"/>
		
			<rect x="32.9" y="134.3" transform="matrix(0.4935 -0.8698 0.8698 0.4935 -98.5849 100.7691)" class="st1" width="8.6" height="1.5"/>
		
			<rect x="59.4" y="124.8" transform="matrix(0.4788 -0.8779 0.8779 0.4788 -81.9162 120.1062)" class="st1" width="1.5" height="8.6"/>
		
			<rect x="30.1" y="108.5" transform="matrix(0.4789 -0.8779 0.8779 0.4789 -82.9796 85.841)" class="st1" width="1.5" height="8.6"/>
		<polygon class="st1" points="109.7,86.8 109.7,91 111.2,91 111.2,86.8 110.4,86.4 		"/>
		<polygon class="st1" points="111.2,66.7 111.2,61.9 109.7,61.9 109.7,66.8 110.4,67.2 		"/>
		<polygon class="st1" points="111.2,74.9 111.2,68.5 110.8,68.7 110.4,68.1 110,68.7 109.7,68.5 109.7,74.3 110.7,75.4 		"/>
		<polygon class="st1" points="109.7,78.5 109.7,85.1 110,84.8 110.4,85.5 110.8,84.8 111.2,85.1 111.2,78 110.7,77.5 		"/>
		<polygon class="st1" points="116.8,65.1 116,63.8 111.2,66.7 111.2,68.5 		"/>
		<polygon class="st1" points="110.8,67.4 110.4,68.1 110.8,68.7 111.2,68.5 111.2,66.7 110.4,67.2 		"/>
		<polygon class="st1" points="104.7,63.8 103.9,65.1 109.7,68.5 109.7,66.8 		"/>
		<polygon class="st1" points="110.4,68.1 110,67.4 110.4,67.2 109.7,66.8 109.7,68.5 110,68.7 		"/>
		<polygon class="st1" points="110.4,67.2 110,67.4 110.4,68.1 110.8,67.4 		"/>
		<polygon class="st1" points="103.9,88.4 104.7,89.7 109.7,86.8 109.7,85.1 		"/>
		<polygon class="st1" points="110,86.1 110.4,85.5 110,84.8 109.7,85.1 109.7,86.8 110.4,86.4 		"/>
		<polygon class="st1" points="116,89.7 116.8,88.4 111.2,85.1 111.2,86.8 		"/>
		<polygon class="st1" points="110.4,85.5 110.8,86.1 110.4,86.4 111.2,86.8 111.2,85.1 110.8,84.8 		"/>
		<polygon class="st1" points="110.4,86.4 110.8,86.1 110.4,85.5 110,86.1 		"/>
		<polygon class="st1" points="108.9,75.7 102.3,75.7 102.5,76.1 101.9,76.4 102.5,76.8 102.3,77.2 108.9,77.2 109.6,76.4 		"/>
		<polygon class="st1" points="100.6,75.7 95.7,75.7 95.7,77.2 100.6,77.2 101,76.4 		"/>
		<polygon class="st1" points="119.5,76.4 118.8,76.1 119,75.7 112.5,75.7 111.7,76.4 112.5,77.2 119,77.2 118.8,76.8 		"/>
		<polygon class="st1" points="99.1,69.9 97.8,70.6 100.6,75.7 102.3,75.7 		"/>
		<polygon class="st1" points="101.2,76.1 101.9,76.4 102.5,76.1 102.3,75.7 100.6,75.7 101,76.4 		"/>
		<polygon class="st1" points="97.8,82.2 99.1,82.9 102.3,77.2 100.6,77.2 		"/>
		<polygon class="st1" points="101.9,76.4 101.2,76.8 101,76.4 100.6,77.2 102.3,77.2 102.5,76.8 		"/>
		<polygon class="st1" points="101,76.4 101.2,76.8 101.9,76.4 101.2,76.1 		"/>
		<polygon class="st1" points="111.2,78 117.4,84.3 118.5,83.2 112.5,77.2 111.2,77.2 		"/>
		<polygon class="st1" points="109.7,74.3 103.3,67.9 102.2,68.9 108.9,75.7 109.7,75.7 		"/>
		<polygon class="st1" points="111,77.2 110.7,77.5 111.2,78 111.2,77.2 		"/>
		<polygon class="st1" points="110.4,75.7 110.7,75.4 109.7,74.3 109.7,75.7 		"/>
		<polygon class="st1" points="111.2,77 111.2,77.2 112.5,77.2 111.7,76.4 		"/>
		<polygon class="st1" points="109.7,76.4 109.7,75.7 108.9,75.7 109.6,76.4 		"/>
		<polygon class="st1" points="111.2,77.2 111.2,77 111,77.2 		"/>
		<polygon class="st1" points="109.7,75.7 109.7,76.4 110.4,75.7 		"/>
		<polygon class="st1" points="108.9,77.2 102.5,83.6 103.6,84.6 109.7,78.5 109.7,77.2 		"/>
		<polygon class="st1" points="112.5,75.7 118.8,69.3 117.8,68.2 111.2,74.9 111.2,75.7 		"/>
		<polygon class="st1" points="111,75.7 111.2,75.7 111.2,74.9 110.7,75.4 		"/>
		<polygon class="st1" points="110.4,77.2 109.7,77.2 109.7,78.5 110.7,77.5 		"/>
		<polygon class="st1" points="109.7,76.5 109.6,76.4 108.9,77.2 109.7,77.2 		"/>
		<polygon class="st1" points="111.2,75.9 111.7,76.4 112.5,75.7 111.2,75.7 		"/>
		<polygon class="st1" points="109.7,77.2 110.4,77.2 109.7,76.5 		"/>
		<polygon class="st1" points="111.2,75.7 111,75.7 111.2,75.9 		"/>
		<polygon class="st1" points="110.7,77.5 111,77.2 110.4,77.2 		"/>
		<polygon class="st1" points="110.7,75.4 110.4,75.7 111,75.7 		"/>
		<polygon class="st1" points="111.2,77 111.7,76.4 111.2,75.9 		"/>
		<polygon class="st1" points="109.6,76.4 109.7,76.5 109.7,76.4 		"/>
		<polygon class="st1" points="111,75.7 110.4,75.7 109.7,76.4 109.7,76.5 110.4,77.2 111,77.2 111.2,77 111.2,75.9 		"/>
		<rect x="19.6" y="48.5" class="st1" width="52.5" height="1.5"/>
		<rect x="18.9" y="48.5" class="st1" width="0.8" height="1.5"/>
		<path class="st1" d="M40.5,4.5c0-1.6,1.4-3,3-3s3,1.4,3,3l0,13.9H48V4.5C48,2.1,45.9,0,43.5,0C41,0,39,2.1,39,4.5v13.9h1.5V4.5z"
			/>
		<path class="st1" d="M43.5,31.6c2.5,0,4.3-1.8,4.5-4.5V20h-1.5l0,7.1c-0.1,1.8-1.4,3.1-3,3.1c-1.6,0-3-1.4-3-3V20H39v7.1
			C39,29.5,41,31.6,43.5,31.6z"/>
		<rect x="39" y="18.5" class="st1" width="1.5" height="1.5"/>
		<rect x="46.5" y="18.5" class="st1" width="1.5" height="1.5"/>
		<path class="st1" d="M92.9,4.5c0-1.6,1.4-3,3-3s3,1.4,3,3v13.9h1.5V4.5c0-2.4-2.1-4.5-4.5-4.5c-2.4,0-4.5,2.1-4.5,4.5v13.9h1.5
			V4.5z"/>
		<path class="st1" d="M95.9,31.6c2.6,0,4.5-1.9,4.5-4.5V20h-1.5v7.1c0,1.7-1.3,3-3,3c-1.6,0-3-1.4-3-3V20h-1.5v7.1
			C91.4,29.5,93.5,31.6,95.9,31.6z"/>
		<rect x="98.9" y="18.5" class="st1" width="1.5" height="1.5"/>
		<rect x="91.4" y="18.5" class="st1" width="1.5" height="1.5"/>
		<rect x="51.5" y="57.4" class="st1" width="20.7" height="1.5"/>
		<rect x="51.5" y="66.5" class="st1" width="20.7" height="1.5"/>
	</g>
</g>
</svg>
